<?xml version="1.0" encoding="UTF-8"?>
<svg id="Layer_1" xmlns="http://www.w3.org/2000/svg" version="1.1" viewBox="0 0 354.92 595.28">
  <!-- Generator: Adobe Illustrator 30.1.0, SVG Export Plug-In . SVG Version: 2.1.1 Build 136)  -->
  <defs>
    <style>
      .st0 {
        fill: #fff;
      }
    </style>
  </defs>
  <g id="bg">
    <path class="st0" d="M230.48,21.7c-.06.08-.12.16-.17.23-.02-.08-.05-.16-.06-.25-3.57-12.12-29.64-13.77-34.18-1.74-.03.08-.05.18-.09.28-.05-.08-.1-.15-.15-.23-7.13-10.42-32.44-3.92-33.04,8.91,0,.08,0,.2.01.29-.07-.07-.14-.13-.22-.18-9.99-7.71-32.06,6.28-28.66,18.68.04.08.07.18.09.27l-.23-.09c-11.9-4.23-28.56,15.88-21.51,26.61.06.09.12.16.18.24-.08,0-.18,0-.26-.02-12.63-.36-22.24,23.94-12.21,31.96.06.06.15.12.23.18-.08.01-.17.03-.26.05-12.11,3.57-13.75,29.64-1.73,34.17.08.03.18.07.27.09-.07.06-.15.11-.23.15-10.41,7.13-3.92,32.44,8.91,33.04.09,0,.18,0,.29,0-.05.06-.12.13-.16.2-7.71,10,6.27,32.06,18.67,28.66.08,0,.19-.05.28-.08-.05.08-.07.17-.1.25-2.41,6.76,3.07,15.05,10.2,19.66-.18-.11-.38-.2-.61-.24-.9-.17-1.78.44-1.95,1.33l-.21,1.08c-1.12-1.01-2.27-1.98-3.47-2.93-.17-.14-.34-.27-.52-.4l.72-3c.22-.9-.33-1.8-1.23-2.03-.9-.22-1.81.34-2.03,1.23l-.41,1.69c-1.93-1.27-4.03-2.49-6.29-3.64h0l.55-3.1c.16-.91-.45-1.78-1.36-1.95-.91-.16-1.77.45-1.95,1.36l-.38,2.14h0c-1.86-.88-3.8-1.74-5.8-2.55l.41-3.29c.12-.92-.54-1.75-1.46-1.87s-1.76.53-1.87,1.46l-.3,2.43c-1.58-.62-3.18-1.2-4.79-1.76h0l.4-3.44c.11-.92-.55-1.74-1.47-1.85s-1.76.56-1.85,1.47l-.3,2.7c-1.64-.54-3.28-1.07-4.94-1.58l.27-4.54c.05-.92-.66-1.71-1.58-1.77s-1.71.66-1.77,1.58l-.21,3.73c-1.57-.46-3.14-.91-4.69-1.33h0l.25-3.65c.06-.92-.63-1.72-1.55-1.78s-1.72.63-1.78,1.56l-.2,2.99c-1.4-.38-2.78-.74-4.14-1.07h0l.57-4.26c.12-.92-.52-1.76-1.43-1.89-.92-.12-1.76.53-1.89,1.43l-.53,3.91c-1.85-.45-3.63-.87-5.32-1.25h0l.88-4.58c.18-.91-.43-1.79-1.33-1.96-.91-.18-1.8.43-1.96,1.33l-.86,4.48h0c-7.85-1.69-13.33-2.63-14.01-2.74l-2.96-.49,1.12,2.77c.26.65,2.34,5.75,5.69,12.98h0l-4.02,1.76c-.84.37-1.23,1.36-.86,2.2s1.36,1.24,2.2.86l4.1-1.79h0c.74,1.54,1.51,3.16,2.34,4.83h0l-3.41,1.28c-.87.32-1.3,1.29-.98,2.16.32.87,1.29,1.3,2.16.99l3.73-1.4c.62,1.22,1.25,2.46,1.91,3.72l-2.47.74c-.89.27-1.38,1.2-1.12,2.09.26.89,1.2,1.38,2.09,1.12l3.09-.93h0c.75,1.41,1.51,2.81,2.3,4.22h0l-3.09.91c-.89.26-1.4,1.18-1.14,2.08.26.89,1.18,1.4,2.08,1.14l3.85-1.12h0c.85,1.48,1.72,2.96,2.61,4.42h0l-1.96.69c-.88.31-1.33,1.26-1.03,2.13.31.88,1.26,1.33,2.13,1.03l2.62-.92h0c.9,1.42,1.81,2.84,2.74,4.23h0l-1.57.57c-.86.31-1.32,1.28-1.01,2.14.31.86,1.28,1.32,2.14,1.01l2.39-.86c1.24,1.75,2.49,3.45,3.75,5.05h0l-1.17.49c-.86.36-1.25,1.34-.89,2.2.36.86,1.34,1.25,2.2.89l2.06-.87c1.65,1.95,3.3,3.73,4.95,5.32l-.63.31c-.83.4-1.16,1.41-.76,2.25.41.84,1.41,1.16,2.25.76l1.85-.92h0c.15.13.31.26.46.38,1.18.95,2.37,1.84,3.58,2.7-.78.39-1.13,1.34-.78,2.15.37.84,1.36,1.24,2.2.86l1.83-.8c2.19,1.4,4.41,2.67,6.62,3.81-.53.48-.72,1.26-.42,1.94.39.84,1.38,1.21,2.22.82l2.05-.94h0c2.79,1.24,5.57,2.24,8.28,3l-2.57,1.09c-.86.36-1.25,1.34-.88,2.2s1.34,1.25,2.2.88l6.86-2.91h0c10.68,1.8,19.99-.28,25.18-6.65.35-.42.68-.88.98-1.34h.01c3.38-.06,7.57,2.59,9.78,5.55,2.2,2.95,3.32,6.71,4.4,10.35.2.65.39,1.29.58,1.93,2.15,6.98,4.22,14.1,5.99,20.23,3.88,13.46,7.84,27.54,12.11,43.08h.01c1.76,8,3.78,16.78,5.98,26.11h0c-.5-.33-.99-.64-1.49-.93l-21.88-78.29c-.17-.71-4.41-17.42-16.86-20.43-3.93-.95-7.25-.49-9.85,1.38-4.31,3.08-4.88,8.84-4.91,9.09h.09c-.77.75-1.38,1.69-1.69,2.8-.91,3.26.98,6.63,4.24,7.54s6.63-.98,7.54-4.24-.98-6.63-4.24-7.54c-.73-.21-1.47-.26-2.18-.21.45-1.48,1.35-3.49,3.11-4.73,1.77-1.27,4.17-1.54,7.1-.83,10.47,2.53,14.36,17.83,14.41,18.03l5.72,20.47c-2.34-5-5-10.49-6.96-14.23.21-2.84-1.6-5.53-4.45-6.33-3.26-.91-6.63.98-7.54,4.24s.98,6.63,4.24,7.54c2.2.62,4.47-.06,5.98-1.58,3.16,6.22,7.36,15.2,9.51,20.19,2.36,5.51,4.45,10.64,6.35,15.66l8.24,29.48c-.19-.08-.39-.14-.58-.21h0c-1.56-4.7-9.37-26.82-20.17-32.22-1.64-.83-3.13-1.47-4.46-1.94.5-4.38-.47-9.07-2.88-13.75-1.58-3.08-3.76-6.09-6.43-8.96h0l-1.94-10.07c-.17-.91-1.05-1.5-1.97-1.32-.91.17-1.5,1.05-1.32,1.96l1.04,5.36c-2.54-2.22-5.37-4.31-8.44-6.27l-.66-4.05c-.15-.91-1.01-1.53-1.92-1.38s-1.53,1.01-1.38,1.92l.21,1.28h0c-2.5-1.41-5.14-2.72-7.89-3.9h0l-.66-3.57c-.16-.9-1.04-1.51-1.95-1.35-.9.16-1.51,1.04-1.35,1.95l.27,1.47h0c-1.63-.62-3.32-1.2-5.01-1.73-.27-.09-.53-.16-.8-.24l-.46-3.48c-.13-.92-.97-1.56-1.88-1.44s-1.56.97-1.44,1.88l.29,2.16h0c-2.59-.58-5.36-1.01-8.29-1.32l-.69-3.53c-.17-.91-1.06-1.5-1.97-1.32-.91.17-1.5,1.06-1.32,1.97l.51,2.58h0c-2.37-.18-4.83-.29-7.33-.33l-.93-3.68c-.22-.9-1.14-1.44-2.03-1.22s-1.44,1.14-1.22,2.03l.7,2.82h0c-1.99.01-3.99.04-5.99.1l-.99-3.81c-.23-.9-1.15-1.44-2.04-1.2s-1.44,1.15-1.2,2.04l.81,3.1c-2.02.09-4.05.22-6.05.36h0l-1.57-4.89c-.29-.88-1.23-1.37-2.11-1.08s-1.37,1.23-1.08,2.11l1.33,4.14h0c-1.93.17-3.83.34-5.71.53h0l-1.25-3.99c-.28-.88-1.21-1.37-2.09-1.1s-1.38,1.21-1.1,2.09l1.04,3.35h0c-1.71.19-3.4.39-5.05.6l-1.14-4.77c-.21-.89-1.12-1.45-2.02-1.24s-1.45,1.12-1.24,2.02l1.06,4.41h0c-2.2.28-4.32.58-6.31.89h0l-.95-5.24c-.16-.9-1.04-1.51-1.95-1.35s-1.51,1.04-1.35,1.95l.93,5.14h0c-8.84,1.38-14.91,2.62-15.68,2.78l-2.93.6,2.04,2.18c.53.56,4.76,5.03,11.15,11.21l-3.57,3.54c-.66.65-.66,1.72,0,2.36.65.66,1.72.66,2.36,0l3.63-3.6h0c1.45,1.37,2.98,2.81,4.58,4.29h0l-3.14,2.79c-.69.62-.75,1.68-.14,2.36.62.69,1.67.75,2.36.14l3.4-3.02h0c1.21,1.09,2.45,2.19,3.72,3.32l-2.4,1.88c-.73.57-.86,1.62-.29,2.35s1.62.86,2.35.29l2.92-2.28c1.41,1.22,2.84,2.43,4.31,3.66h0l-2.98,2.28c-.74.56-.87,1.61-.31,2.35s1.61.87,2.35.31l3.62-2.76h0c1.55,1.26,3.12,2.5,4.72,3.72h0l-1.89,1.62c-.7.6-.79,1.66-.19,2.36s1.66.79,2.36.19l2.44-2.09h0c1.58,1.19,3.19,2.36,4.79,3.48h0l-1.55,1.34c-.69.61-.77,1.66-.17,2.37.61.69,1.66.77,2.37.17l2.2-1.92h0c2.07,1.39,4.13,2.69,6.17,3.9l-1.16,1.12c-.67.65-.69,1.7-.04,2.37.64.67,1.7.69,2.37.04l1.86-1.81h0c2.57,1.42,5.09,2.65,7.53,3.65l-.68.75c-.62.68-.58,1.74.1,2.36s1.74.58,2.36-.1l1.6-1.74h0l.73.24c1.67.53,3.35,1,5.02,1.42h0l-.13.12c-.66.65-.67,1.71,0,2.36.65.66,1.71.67,2.36.01l1.62-1.61c2.94.6,5.83,1.04,8.66,1.33h0c-.48.67-.41,1.59.19,2.16.66.65,1.72.63,2.36-.03l1.77-1.82h0c3.56.17,7,.07,10.27-.27l-2.55,2.48c-.66.65-.67,1.7-.03,2.37.64.67,1.7.67,2.37.04l5.91-5.75c11.69-2.38,20.4-8.2,23.2-16.78.06-.16.1-.31.14-.47,1.07.42,2.28.94,3.65,1.63,8.51,4.27,15.41,21.63,17.81,28.37v.02c-.16-.02-.3-.05-.46-.06-.75-3.54-3.56-12.94-13.01-17.39-4.01-1.89-7.62-2.22-10.71-.96-2.88,1.16-4.53,3.41-5.3,4.77-.58.66-1.04,1.46-1.29,2.36-.91,3.26.98,6.63,4.24,7.54,3.26.91,6.63-.98,7.54-4.24s-.82-6.3-3.79-7.39c2.17-.82,4.81-.5,7.89.94,7.42,3.48,10.1,10.83,10.97,14.28-2.56.12-5.09.62-7.25,1.56-3.41,1.48-5.79,3.87-6.87,6.91-1,2.74-.29,6.04,1.94,9.3.12.18.26.35.38.54-4.97-4.58-11.03-8.24-17.92-10.76-6.01-2.18-12.52-3.51-19.37-3.93-1.73-.1-3.59-.05-5.4.03-4.8.16-9.74.33-13.03-2.52l.08.02c3.26.91,6.63-.98,7.54-4.24s-.98-6.63-4.24-7.54-6.63.98-7.54,4.24c-.1.34-.15.68-.19,1.02-1.27,2.55-1.82,5.15,1.56,8.49,4.31,4.27,10.48,4.05,15.93,3.87,1.8-.06,3.51-.13,5.08-.02,6.53.41,12.73,1.66,18.43,3.73,5.6,2.03,10.59,4.89,14.85,8.39-22.14-15.07-45.1-9.76-53.32-7.06h0c-2.72-5.81-7.85-10.44-14.5-12.3-1.43-.4-2.86-.65-4.28-.76-.43-5.3-2.66-10.23-6.43-14.08-4.26-4.36-9.97-6.81-16.09-6.88-6.1-.08-11.86,2.24-16.24,6.5-1.05,1.03-1.99,2.14-2.81,3.33-4.8-2.29-10.19-2.8-15.4-1.48-5.91,1.52-10.88,5.24-14.01,10.49-3.11,5.25-4,11.4-2.48,17.32.36,1.44.86,2.8,1.48,4.11-4.23,2.92-7.49,7.27-8.98,12.58-3.41,12.13,3.7,24.78,15.83,28.19,1.43.4,2.86.65,4.28.76.43,5.3,2.66,10.23,6.43,14.08,4.26,4.36,9.97,6.81,16.09,6.88,6.1.08,11.87-2.23,16.24-6.5,1.05-1.03,1.99-2.14,2.82-3.32,4.64,2.18,10.04,2.84,15.39,1.48,8.19-2.09,14.22-8.4,16.35-16.01,1.05-3.73,1.16-7.78.13-11.8-.36-1.44-.86-2.8-1.48-4.11,4.23-2.92,7.49-7.27,8.98-12.58,1.22-4.35,1.09-8.77-.15-12.81,9.14-3.11,37.36-9.7,61.48,16.52,2.89,3.15,5.84,7.07,8.81,11.55-5.14-4.87-11.35-10.52-16.06-14.04-7.24-5.39-16.27-9.41-26.83-11.96-9.45-2.27-17.03-.21-22.54,6.12-5.08,5.83-8.42,15.13-4.43,22.74,1.88,3.61,5.21,6.39,9.1,7.6.93.29,1.74.42,2.48.44-.03.47.13.95.49,1.31l1.53,1.5c-.95.71-1.92,1.46-2.88,2.23h0l-2.13-1.9c-.69-.61-1.75-.55-2.37.14-.61.69-.55,1.75.14,2.37l1.77,1.58h0c-.71.61-1.4,1.23-2.09,1.87l-2.21-1.93c-.7-.61-1.75-.54-2.36.16s-.54,1.75.16,2.36l1.96,1.71h0c-.69.67-1.37,1.34-2.05,2.02l-2.96-2.34c-.73-.58-1.77-.45-2.35.28-.57.72-.45,1.77.28,2.35l2.68,2.11c-.63.66-1.24,1.32-1.85,1.97l-2.37-1.91c-.72-.57-1.77-.46-2.36.25s-.46,1.77.25,2.36l2.21,1.77c-.52.56-1.02,1.13-1.52,1.7l-2.63-2.39c-.68-.62-1.74-.57-2.36.11s-.57,1.74.11,2.36l2.69,2.44c-.71.82-1.38,1.62-2.02,2.39l-2.73-2.74c-.65-.66-1.72-.66-2.36,0-.66.65-.66,1.72,0,2.36l2.96,2.96c-3.63,4.45-5.99,7.65-6.29,8.07l-1,1.37,1.65.38c.5.12,4.38,1,10.06,2.01h0l-.22,4.01c-.05.92.66,1.71,1.58,1.77.8.05,1.5-.47,1.71-1.21.03-.12.06-.24.05-.36l.2-3.62h0c1,.15,2.02.32,3.08.48l-.36,3.34c-.1.92.56,1.75,1.49,1.84.82.09,1.57-.44,1.79-1.21.02-.09.04-.19.05-.27l.35-3.22c.74.1,1.48.19,2.23.29h0l-.41,2.44c-.15.91.46,1.78,1.37,1.93.85.15,1.66-.38,1.89-1.2.02-.05.03-.12.04-.17l.44-2.6h0c.89.1,1.78.19,2.67.27h0l-.52,2.92c-.16.91.45,1.78,1.36,1.95.85.15,1.67-.38,1.9-1.19.02-.05.03-.11.03-.16l.57-3.23c.96.07,1.92.13,2.89.19h0l-.25,2.05c-.12.92.54,1.75,1.46,1.87.83.1,1.6-.42,1.82-1.2.02-.08.05-.16.05-.25l.29-2.32h0c.94.04,1.86.05,2.79.05h0l-.2,1.73c-.11.92.55,1.75,1.47,1.86.83.09,1.58-.44,1.8-1.21.02-.09.04-.17.05-.26l.25-2.17h0c1.25-.03,2.46-.1,3.66-.19l-.09,1.4c-.06.92.63,1.72,1.55,1.78.81.05,1.52-.47,1.73-1.22.03-.11.05-.22.06-.34l.13-2h0c1.47-.2,2.88-.47,4.21-.79v.91c-.02.44.15.83.42,1.14-1.56.97-2.87,2.06-3.88,3.22-4.76,5.46-4.86,13.09-.27,20.41,4.71,7.51,14.62,14.17,23.71,11.69,2.91-.79,5.53-2.74,7.57-5.6.13-.18.24-.41.73-1.35.17-.33.43-.83.64-1.24,7.71.11,14.31,6.71,19.65,12.04l.33.32c5.42,5.42,10.47,11.66,15.42,19.06,4.11,6.16,8.16,13.15,12.73,21.98,1.97,3.8,3.81,7.53,5.4,10.76-9.49-14-22.92-33.75-30.07-43.82-12.64-17.81-22.49-11.79-22.91-11.54l.19.31c-1.57.72-2.84,2.1-3.35,3.91-.91,3.26.98,6.63,4.24,7.54s6.63-.98,7.54-4.24c.47-1.69.19-3.4-.65-4.8,3.15,1.06,7.33,3.91,12.19,10.76,10.87,15.32,40.56,59.68,40.56,59.68l21.16,1.85s15.76-54.5,17.85-59.97c.26-.68.6-1.24,1-1.74.33,2.33,1.99,4.36,4.41,5.04,3.26.91,6.63-.98,7.54-4.24s-.98-6.63-4.24-7.54c-2.18-.61-4.41.04-5.92,1.52-2.28.86-4.68,2.51-5.92,5.76-1.07,2.81-4.96,15.62-8.89,28.69,2.31-12.05,4.76-24.61,6.21-31.6,1.35-6.52,3.58-10.41,5.7-12.74.33,2.33,1.99,4.36,4.41,5.04,3.26.91,6.63-.98,7.54-4.24s-.98-6.63-4.24-7.54c-1.54-.43-3.1-.23-4.41.44-3.06,1.14-9.52,5.06-12.26,18.37-2.03,9.8-6.01,30.51-8.86,45.44v-.02c.91-43.93,9.56-63.97,12.17-69.07,11.5,5.92,20.58,2.22,26.1-.04,4.4-1.79,7.41-6.96,8.87-12.16.84-2.98,1.16-5.96.93-8.32-.53-5.55-3.32-9.95-8.05-12.73-8.65-5.07-23.09-4.03-32.06-.11-14.12,6.18-23.93,20.28-24.43,35.04-.32,9.44.38,18.78,1.25,29.14.98,11.66,2.27,23.73,3.89,36.57q1.08,8.56,0,.02c-5.22-26.03-12.92-70.38-8.82-87.55,1.56-6.54,3.31-10.64,4.93-13.21.58,1.95,2.11,3.57,4.21,4.16,3.26.91,6.63-.98,7.54-4.24.63-2.25-.08-4.56-1.65-6.06h-.01c-.7-.68-1.57-1.19-2.57-1.47-1.45-.41-2.93-.25-4.21.34h-.01c-4.88,1.63-8.73,8.26-11.48,19.7-4.38,18.34,3.8,64.58,9.08,90.58-.01-.04-.02-.06-.03-.1-1.45-5.32-3.2-11.75-5.18-19.06-.01-.04-.02-.08-.03-.13-.56-2.07-1.13-4.2-1.72-6.41-3.38-24.81-5.28-44-6.15-61.96-.62-12.99-1.27-26.39,7.69-36.32h0c2.45,3.37,6.19,6.04,10.97,7.77h.01l5.59,6.49c.6.7,1.66.78,2.36.18.26-.22.43-.5.52-.82.15-.53.03-1.1-.34-1.55l-2.37-2.74h0c1.71.32,3.46.51,5.26.59h0l2.25,2.74c.59.72,1.64.82,2.36.23.27-.23.46-.52.55-.84.14-.51.05-1.08-.32-1.51l-.52-.63h.01c1.42-.07,2.84-.21,4.29-.43h0l1.99,2.34c.6.7,1.66.79,2.36.2.26-.23.45-.51.53-.82.14-.52.04-1.09-.34-1.53l-.73-.87h.01c.87-.18,1.75-.41,2.63-.65h.01l1.75,2.27c.57.73,1.62.86,2.35.3.3-.23.5-.53.59-.87.14-.49.05-1.04-.29-1.48l-1.07-1.38c1.26-.52,2.53-1.13,3.84-1.83l1.82,2.1c.6.7,1.66.77,2.37.17.26-.22.43-.5.52-.81.15-.53.03-1.11-.34-1.55l-1.4-1.62h0c1.02-.62,2.04-1.28,3.06-1.98l1.97,2.07c.64.67,1.69.7,2.37.06.22-.22.38-.47.45-.75.15-.55.03-1.16-.4-1.61l-1.64-1.72h0c.75-.54,1.51-1.11,2.24-1.68l2.03,2.1c.65.67,1.7.67,2.37.04.22-.22.37-.48.44-.75.16-.56.02-1.18-.41-1.62l-1.81-1.86h0c.74-.6,1.48-1.23,2.21-1.85l2.76,2.57c.68.63,1.74.59,2.37-.09.18-.2.32-.43.39-.69.16-.58,0-1.24-.47-1.67l-2.5-2.33h0c.68-.6,1.36-1.2,2.01-1.8l2.2,2.08c.67.64,1.73.6,2.37-.06.2-.2.32-.44.39-.7.16-.58,0-1.23-.46-1.67l-2.04-1.94h0c.55-.53,1.1-1.05,1.63-1.57h0l2.43,2.58c.63.68,1.69.71,2.36.08.23-.21.39-.48.47-.77.15-.55.02-1.15-.39-1.59l-2.47-2.64h0c.76-.76,1.5-1.5,2.2-2.22h0l2.49,2.95c.6.7,1.66.79,2.36.2.26-.23.45-.51.53-.82.14-.52.04-1.09-.34-1.53l-2.7-3.19h0c3.98-4.15,6.59-7.15,6.92-7.53l1.1-1.28-1.61-.51c-.49-.16-4.3-1.37-9.87-2.83l.55-3.98c.13-.91-.51-1.77-1.43-1.89-.91-.13-1.78.51-1.89,1.43l-.5,3.6h0c-.97-.25-1.98-.5-3.03-.74h0l.63-3.3c.18-.91-.43-1.79-1.33-1.96s-1.79.41-1.96,1.33l-.61,3.19h0c-.72-.17-1.45-.33-2.2-.48h0l.61-2.4c.23-.9-.32-1.8-1.21-2.03-.9-.23-1.81.29-2.03,1.21l-.65,2.57c-.87-.17-1.76-.33-2.65-.49l.76-2.88c.24-.9-.3-1.81-1.19-2.05-.88-.24-1.8.28-2.04,1.17v.02l-.84,3.17h0c-.95-.15-1.9-.29-2.86-.42h-.01l.42-2.03c.19-.91-.39-1.79-1.3-1.99-.91-.19-1.77.39-1.99,1.3l-.48,2.3h-.01c-.93-.11-1.87-.2-2.78-.29h0l.34-1.7c.19-.91-.4-1.78-1.31-1.97s-1.78.4-1.97,1.31l-.42,2.13c-1.25-.06-2.48-.1-3.67-.1l.22-1.39c.14-.91-.49-1.77-1.4-1.9s-1.77.49-1.9,1.4l-.3,1.98c-1.48.08-2.92.23-4.26.44l.08-.91c.08-.92-.59-1.74-1.51-1.83-.93-.09-1.74.59-1.83,1.51l-.18,1.98h0c-.86.25-1.71.52-2.53.8l.03-.18c.13-.91-.51-1.77-1.43-1.9s-1.76.5-1.9,1.43l-.28,2.02c-1.34.57-2.65,1.21-3.91,1.91h0c-.01-.82-.63-1.52-1.47-1.63-.92-.12-1.75.54-1.87,1.46l-.29,2.34c-1.45.96-2.81,2.01-4.07,3.11h0l.33-2.21c.14-.91-.49-1.76-1.41-1.9-.91-.14-1.76.49-1.9,1.41l-1.02,6.8h0c-4.99,6.08-6.79,12.76-5.07,18.87.24.84.54,1.67.91,2.46h0c-10.63,11.03-9.91,26.13-9.27,39.51.38,7.89.96,16,1.77,24.72h0c-.94-5.27-1.83-10.52-2.69-15.76,0-.02,0-.05-.01-.07-.32-5.61-3.48-66.88,7.55-87.67.76,1.43,2.07,2.58,3.76,3.05,3.26.91,6.63-.98,7.54-4.24.91-3.26-.98-6.63-4.24-7.54-2.54-.71-5.15.29-6.61,2.32h-.01c-9.97,10.33-11.98,43.36-12.03,67.54v-.1c-.97-7.02-1.95-14.46-2.77-22.04.33-14.34,1.67-26.71,4.13-37.64,1.93-8.6,4.1-16.05,11.23-20.21,6.81-3.97,16.49-6.87,21.39-2.02.9.89,1.3,2.23,1.43,3.65-.71-.7-1.59-1.22-2.61-1.51-3.26-.91-6.63.98-7.54,4.24-.91,3.26.98,6.63,4.24,7.54,3.26.91,6.63-.98,7.54-4.24l.02-.08h.04c.09-.3,2.08-7.6-1.54-11.19-5.8-5.74-16.59-2.68-24.09,1.68-7.9,4.61-10.23,12.54-12.28,21.65-1.44,6.47-2.51,13.43-3.22,20.96h0v-.02c-.21-12.72,1.65-25.75,9.05-38.32,6.3-10.72,16.63-18.57,30.74-23.41.21.13.43.24.65.34-1.55,5.08-1.3,10.49.78,15.45,2.35,5.63,6.76,10.01,12.41,12.33,5.64,2.33,11.86,2.31,17.5-.05,1.35-.56,2.64-1.25,3.85-2.05,3.51,3.74,8.28,6.35,13.75,7.06,8.4,1.07,16.32-2.56,21.12-8.86,2.35-3.07,3.95-6.8,4.48-10.92.19-1.47.23-2.92.15-4.36,4.99-1.15,9.64-3.98,12.98-8.38,7.63-10.02,5.7-24.39-4.32-32.04-1.18-.9-2.41-1.65-3.7-2.29,1.56-5.08,1.31-10.48-.78-15.45-2.35-5.62-6.76-10.01-12.41-12.33-5.64-2.33-11.85-2.29-17.49.05-1.37.57-2.65,1.25-3.85,2.05-3.62-3.89-8.44-6.36-13.77-7.05-6.06-.77-12.05.85-16.89,4.58-4.83,3.73-7.92,9.12-8.69,15.18-.2,1.46-.24,2.92-.15,4.36-5.01,1.16-9.64,4-12.98,8.38-7.53,9.86-5.77,23.98,3.87,31.69-13.67,5.15-23.77,13.2-30.13,24-10.57,17.97-10.38,36.6-8.59,54.05,1.47,14.46,3.51,28.51,5.32,40.34.59,3.91,1.21,7.83,1.86,11.75v.04s0,.02.01.04c0,.13.01.24.02.3h.04c.1.7.22,1.39.34,2.1-5.1-19.34-10.48-40.03-15.61-60.27v-.02c.14-5.87.67-11.75,1.58-17.47.75-4.73,1.72-8.84,2.98-12.56,1.04-3.07,2.9-5.43,4.88-7.94,1.01-1.26,2.06-2.58,3.02-4.03,1.3-1.95,2.29-4.11,2.92-6.37.33-1.19.57-2.41.71-3.64.02-.16.03-.31.03-.45h0c1.53-1.65,3.05-3.33,4.55-5.03l1.16-1.32c2.95-3.32,5.99-6.77,7.72-11.04.16-.4.29-.79.4-1.17.8-2.85.31-5.65-1.37-7.68-1.17-1.42-2.78-2.27-4.64-2.52-.47-.3-1-.54-1.56-.69-3.26-.91-6.63.98-7.54,4.24-.91,3.26.98,6.63,4.24,7.54s6.63-.98,7.54-4.24c.07-.24.11-.47.15-.71.34,1.17.24,2.56-.33,3.98-1.51,3.74-4.38,6.96-7.13,10.08-.39.45-.78.89-1.17,1.33-.78.89-1.58,1.78-2.37,2.66-.45-1.67-1.25-3.05-2.39-4.08-2.39-2.18-5.61-3.15-9.31-2.84-1.69.14-3.44.55-5.14,1.19.5-8.43,1.75-17.29,3.83-22.81h0c.77,1.36,2.05,2.43,3.68,2.89,3.26.91,6.63-.98,7.54-4.24s-.98-6.63-4.24-7.54c-1.81-.51-3.65-.14-5.08.84-.03.02-.04.02-.07.03h-.01c-6.85,3.95-8.64,21.8-9.09,32.45-.52.28-1.02.59-1.51.92-.32-6.07-.32-12.3.02-18.55.54-9.6,1.42-25.67,10.34-31.97,6.81-4.81,19.52-10.01,24.64-3.47,1.13,1.45,1.58,3.66.95,5.41-.78-.98-1.85-1.75-3.14-2.11-3.26-.91-6.63.98-7.54,4.24s.98,6.63,4.24,7.54c3.26.91,6.63-.98,7.54-4.24.14-.48.2-.96.22-1.45,1.01-.95,1.66-2.12,2.01-3.37.78-2.76.07-5.92-1.63-8.1-7.11-9.09-22.22-2.14-29.2,2.81-10.24,7.25-11.18,24.32-11.75,34.52-.4,7.23-.35,14.38.14,21.35-.06.04-.11.09-.14.14-2.3-14.37-6.3-51,8.55-69.42,1.59,1.57,3.79,2.72,6.5,3.48,4.78,1.34,11.09,1.44,18.48.39l8.86,2.92c.88.29,1.83-.19,2.11-1.07l.02-.08c.24-.86-.24-1.76-1.08-2.04l-2.95-.97c3.67-.79,7.47-1.84,11.44-3.12l3.49,1.27c.87.31,1.83-.13,2.15-1l.03-.12c.2-.71-.11-1.42-.71-1.82-.4-.27-.39-.27.02,0,3.11-1.12,6.28-2.38,9.49-3.79l3.24,1.11c.88.29,1.83-.17,2.13-1.05l.02-.09c.22-.8-.18-1.64-.93-1.98h.01c1.65-.77,3.32-1.58,4.99-2.42.43-.22.87-.44,1.3-.68h0l3.03,1.22c.85.34,1.83-.07,2.17-.93.03-.05.04-.12.06-.17.23-.82-.19-1.69-.99-2.01l-.5-.2h0c2.63-1.53,5.34-3.25,8.09-5.1l3.37,1.1c.88.28,1.83-.19,2.11-1.08l.02-.06c.24-.86-.24-1.76-1.1-2.05l-.96-.31c2.15-1.52,4.31-3.12,6.47-4.77l3.74,1c.88.24,1.8-.28,2.04-1.17v-.02c.25-.9-.29-1.81-1.18-2.05l-1.28-.35h0c1.65-1.3,3.28-2.63,4.92-3.96h0l3.94,1.01c.89.23,1.79-.3,2.03-1.17v-.03c.24-.9-.29-1.81-1.19-2.04l-1.6-.41c1.62-1.34,3.22-2.7,4.79-4.07h0l5.26,1.05c.87.17,1.71-.35,1.94-1.18l.03-.12c.19-.91-.4-1.79-1.31-1.97l-2.74-.55h0c1.46-1.29,2.92-2.59,4.32-3.87l4.35.92c.86.18,1.72-.34,1.96-1.19l.03-.11c.2-.91-.39-1.79-1.3-1.99l-1.97-.41c1.28-1.17,2.52-2.33,3.74-3.46h0l4.77,1.33c.89.25,1.81-.27,2.06-1.16h0c.25-.89-.27-1.81-1.16-2.06l-2.84-.8h0c1.67-1.57,3.26-3.1,4.75-4.54l4.92,1.68c.88.3,1.83-.17,2.13-1.05l.02-.09c.24-.85-.23-1.75-1.07-2.04l-3.32-1.13h0c6.46-6.34,10.68-10.75,11.22-11.32l3.34-3.53-4.8.72c-.85.12-7.52,1.13-17.23,2.87l.48-2.92c.15-.91-.46-1.78-1.37-1.93s-1.78.47-1.93,1.37l-.69,4.12c-2.29.42-4.71.89-7.24,1.39h-.01l.54-2.26c.22-.9-.34-1.8-1.23-2.02s-1.82.35-2.02,1.23l-.91,3.77c-1.86.37-3.75.77-5.66,1.17l.42-1.29.02-.08c.24-.86-.24-1.76-1.08-2.04-.88-.29-1.83.19-2.12,1.06l-1.04,3.15c-2.11.46-4.24.94-6.4,1.44l.63-1.84.02-.09c.24-.85-.23-1.75-1.07-2.04-.88-.29-1.83.17-2.13,1.05l-1.31,3.84h0c-2.29.54-4.59,1.1-6.89,1.7h0l.23-.85c.24-.9-.29-1.81-1.19-2.05s-1.78.31-2.05,1.19l-.72,2.69c-2.29.61-4.56,1.24-6.81,1.87l.13-.51c.23-.9-.32-1.8-1.21-2.03-.9-.23-1.76.33-2.03,1.21l-.62,2.42h-.01c-2.87.85-5.68,1.74-8.4,2.67h0l.03-.2c.18-.91-.43-1.78-1.34-1.95-.92-.16-1.78.43-1.95,1.34l-.38,2.07h0c-3.39,1.22-6.6,2.48-9.56,3.78h0c-.02-.83-.65-1.54-1.5-1.63-.92-.1-1.74.58-1.84,1.5l-.22,1.74-1.13.55c-1.92.97-3.8,1.96-5.62,2.97h0c-.19-.56-.67-1-1.3-1.11-.91-.15-1.78.46-1.93,1.37l-.29,1.73c-3.26,1.89-6.33,3.82-9.22,5.79-.24-.45-.68-.78-1.23-.87-.91-.13-1.77.51-1.9,1.43l-.26,1.82h0c-3.36,2.43-6.42,4.9-9.12,7.35h0l.29-1.62c.16-.91-.44-1.78-1.34-1.94s-1.79.44-1.94,1.34l-1.13,6.21h0c-4.96,5.17-8.3,10.19-9.56,14.7l-.04.14c-.8,2.98-.69,5.63.38,7.91-17.93,21.03-11.54,64.04-9.33,75.94-.27.43-.54.88-.79,1.34-4.09-17.25-7.5-32.6-9.78-44.47-.18-.92-.35-1.84-.51-2.74-.02-15.54,1.91-38.34,6.89-48.3.68,1.71,2.11,3.09,4.03,3.62,3.26.91,6.63-.98,7.54-4.24s-.98-6.63-4.24-7.54c-1.29-.36-2.6-.28-3.77.16-8.71,2.69-11.93,23.04-13.11,38.67h0c0-.06-.01-.1-.02-.15,0-.06,0-.13-.02-.19-.58-9.08-.52-18.31.19-27.42,1.27-16.2,4.43-31.48,18.9-33.5,1.12-.16,2.49-.23,3.82-.02-1.32.77-2.34,2.03-2.79,3.61-.91,3.26.98,6.63,4.24,7.54s6.63-.98,7.54-4.24c.61-2.16-.03-4.38-1.49-5.89-.62-.97-1.37-1.68-1.64-1.92-3.07-2.73-7.21-2.81-10.14-2.41-11.92,1.67-17.09,10.87-19.52,20.42,1.41-15.85,4.55-26.5,6.55-31.97,5.09,10.8,29.27,11.86,33.62.32.03-.08.07-.19.09-.28.05.07.08.16.13.22,7.13,10.42,32.44,3.93,33.04-8.91.01-.08,0-.18,0-.28.06.04.13.11.2.17,10,7.69,32.06-6.3,28.67-18.68-.03-.1-.06-.19-.08-.28l.24.09c11.89,4.24,28.55-15.88,21.49-26.62-.04-.07-.11-.16-.17-.23.09,0,.18.02.26.02,12.62.35,22.24-23.93,12.21-31.96-.07-.07-.15-.11-.23-.17.08-.04.17-.04.25-.07,12.12-3.56,13.76-29.63,1.74-34.18-.09-.02-.18-.05-.28-.09.08-.05.15-.09.22-.13,10.42-7.13,3.94-32.43-8.9-33.04h-.3c.06-.06.13-.14.17-.2,7.71-10-6.28-32.07-18.66-28.68-.09.03-.18.07-.28.09.03-.07.08-.15.09-.24,4.25-11.9-15.87-28.55-26.62-21.5-.07.06-.15.11-.24.18.01-.09.03-.19.02-.27.33-12.63-23.94-22.26-31.98-12.23l.14.05ZM148.34,472.94h0c.84-.31,1.67-.65,2.46-.99h0v.17c-.05.49.14.93.46,1.26h0c-1.03.31-2,.69-2.93,1.1h0l.03-1.54h-.01ZM208.95,512.06h0c-11.03-15.07-23.95-29.26-31.89-34.69-7.67-5.24-16.05-6.13-22.98-4.72h0c.03-.11.05-.22.06-.34l.12-2.03c1.31-.69,2.55-1.43,3.74-2.22.09.81.75,1.46,1.59,1.49.79.04,1.47-.49,1.68-1.22.04-.13.06-.25.06-.39l.1-2.37c1.37-1.1,2.65-2.25,3.8-3.47l-.15,2.28c-.06.92.64,1.72,1.56,1.78.11,0,.23-.02.33-.03-.77,3.18,1.11,6.42,4.29,7.31s6.63-.98,7.54-4.24c.75-2.68-.4-5.43-2.64-6.83,2.03-.17,4.16.52,6.32,2.09,5.27,3.83,17.43,28.18,26.47,47.6h0ZM222.7,533.28c-.74-1.36-1.53-2.74-2.35-4.13-1.56-3.58-26.52-60.6-35.91-67.4-3.18-2.3-6.38-3.17-9.53-2.59-2.82.52-4.98,2.1-6.35,3.43l.32-4.92c1.76-2.56,3.05-5.21,3.8-7.88.91-3.26,1.04-6.55.21-9.66,10.36,2.4,19.28,19.2,19.39,19.39l.08.14c9.03,13.98,19.21,38.7,30.35,73.62,0,.01,0,0,0,0h0ZM233.52,550.07h0c1.51,5.6,2.9,10.67,4.08,15.12-1.44-2.91-2.96-6.04-4.47-9.27h0c-14.05-47.79-26.82-80.76-37.93-98.01-.83-1.55-11.05-20.36-23.71-21.35h0c-2.57-4.87-7.5-8.32-13.69-10.06l-.08-.02-6.14-6.04c-.66-.65-1.72-.65-2.37.02s-.63,1.72.02,2.37l2.61,2.56h0c-1.72-.17-3.48-.22-5.3-.17l-2.48-2.56c-.65-.67-1.7-.69-2.37-.04s-.69,1.7-.04,2.37l.58.59c-1.41.18-2.83.43-4.26.77l-2.17-2.17c-.65-.66-1.72-.66-2.36,0-.66.65-.66,1.72,0,2.36l.79.8c-.86.26-1.72.55-2.58.88l-1.93-2.12c-.62-.68-1.69-.73-2.37-.11s-.73,1.69-.11,2.37l1.17,1.28c-1.21.62-2.44,1.34-3.67,2.15l-1.62-1.59c.33-.2.63-.4.88-.61,3.23-2.8,2.6-8.59,2.32-10.3-.15-.91-1.01-1.53-1.92-1.38s-1.53,1.01-1.38,1.92c.52,3.25.03,6.17-1.21,7.24-.72.63-1.87.7-3.38.23-.68-.21-1.33-.5-1.97-.83,2.16-.44,4.19-1.5,4.81-3.71.06-.2.11-.42.13-.65.09-.61-.34-1.17-.94-1.26s-1.17.33-1.26.94c-.32,2.31-3.66,2.65-5.5,2.66-.96-.91-1.78-1.96-2.38-3.12-.07-.15-.13-.3-.2-.45,1.5.44,3.29.73,4.82.23,1.13-.37,2.01-1.13,2.53-2.21.03-.06.06-.12.08-.19.14-.52-.09-1.07-.59-1.3-.55-.27-1.22-.04-1.49.52-.26.54-.64.88-1.2,1.05-1.43.47-3.6-.2-5.01-.8-.22-1.09-.3-2.21-.25-3.33.81.61,1.8,1.12,2.89,1.22.91.08,2.27-.12,3.59-1.47.13-.14.22-.3.27-.48.11-.38,0-.81-.29-1.1-.45-.43-1.15-.41-1.58.02-.57.59-1.16.86-1.79.8-1.01-.09-2.02-.93-2.74-1.68.78-3.69,2.7-7.23,4.98-9.84,4.69-5.39,10.98-7.04,19.23-5.06,10.12,2.43,18.74,6.27,25.62,11.39,8.63,6.43,23.04,20.83,25.01,22.81.39.7.78,1.4,1.17,2.11-6.89-7.08-16.96-16.52-26.84-22.44-7.34-4.4-13.43-5.87-18.1-4.35-2.83.92-4.36,2.74-5.05,3.8-1.7.68-3.08,2.12-3.61,4.02-.91,3.26.98,6.63,4.24,7.54s6.63-.98,7.54-4.24c.84-3-.7-6.09-3.5-7.28.41-.25.87-.49,1.43-.67,2.54-.83,7.26-.8,15.33,4.04,15.65,9.38,32.42,28.55,34.51,30.97,21.8,43.97,40.97,104.28,41.23,105.1h-.03ZM171.81,401.73c1.54.83,3.08,1.49,4.57,2.13,2.93,1.26,5.68,2.46,8.05,4.68,2.85,2.68,5.65,5.84,8.55,9.66,3.54,4.67,6.81,9.64,9.73,14.8l.06-.03h0c6.23,24.6,12.83,49.85,18.84,72.54-12.1-32.47-29.75-74.63-46.54-95.58-1.7-3.76-3.93-7.25-6.59-10.4,1.04.84,2.16,1.57,3.34,2.2h0ZM152.98,224.96c-.32,11.2,18.78,20.04,28.7,14.87-1.87,5.54-4.2,14.3-5.54,26.41-.19-4.52-.53-9.05-1.19-13.54-.68-4.61-3.69-10.25-8.14-12.14-1.97-.83-5.09-1.28-8.74,1.34,0,0-3.64.71-4.83,4.5-1.01,3.22.98,6.63,4.24,7.54s6.63-.99,7.54-4.24c.68-2.42-.19-4.9-2.02-6.4.85-.12,1.69,0,2.5.33,3.16,1.34,5.6,5.91,6.13,9.55,1.16,7.91,1.29,16.08,1.43,23.99l.05,3.53c.11,5.31.59,11.27,1.07,17.04.36,4.44.73,8.97.94,13.31-.02-.06-.04-.14-.06-.2-1.78-6.14-3.84-13.29-6.01-20.28-.19-.63-.38-1.26-.57-1.9-1.16-3.92-2.37-7.97-4.93-11.4-2.09-2.8-6.36-6.11-10.77-6.78.28-.65.5-1.33.69-2.02.77-2.73.99-5.76.64-9-.33-3.13-1.19-6.39-2.5-9.69l1.63-9.08c.16-.91-.44-1.78-1.36-1.95s-1.78.44-1.95,1.36l-.8,4.41c-1.37-2.56-3-5.11-4.84-7.62h0l.74-3.56c.19-.91-.39-1.79-1.3-1.99-.91-.19-1.81.43-1.99,1.3l-.17.82c-1.59-1.91-3.31-3.77-5.15-5.57l.6-3.15c.12-.63-.13-1.24-.59-1.63,5.38,3.42,11.69,4.75,16.27,1.73.08-.05.16-.12.24-.18.02.11.01.2,0,.28h.04Z"/>
  </g>
  <g id="w_x5F_1">
    <path class="st0" d="M276.4,339.72c-3.1,11.04,3.34,22.49,14.37,25.59,11.04,3.1,22.49-3.34,25.59-14.37s-3.34-22.49-14.37-25.59c-11.03-3.11-22.49,3.34-25.59,14.37ZM36.96,400.45c-3.1,11.04,3.34,22.49,14.37,25.59,11.04,3.1,22.49-3.34,25.59-14.37s-3.34-22.49-14.37-25.59c-11.04-3.1-22.49,3.34-25.59,14.37ZM210.47,96.28c-.67-.06-1.34-.1-2.01-.11-2.79-.05-5.54.27-8.21.9-.64.14-1.3.33-1.94.54-2.64.79-5.18,1.93-7.53,3.37-.57.34-1.14.71-1.69,1.1-2.25,1.57-4.31,3.42-6.12,5.54-.45.51-.86,1.03-1.27,1.58-1.65,2.15-3.03,4.54-4.1,7.16-.14.29-.24.58-.36.86-.13.33-.25.67-.35,1.01-.94,2.67-1.5,5.38-1.7,8.09-.06.67-.1,1.34-.11,2-.05,2.79.27,5.54.91,8.2.14.65.33,1.31.53,1.95.79,2.64,1.93,5.17,3.37,7.53.35.58.72,1.15,1.11,1.7,1.57,2.25,3.41,4.31,5.53,6.11.51.45,1.04.87,1.58,1.27,2.16,1.65,4.54,3.03,7.16,4.1.29.14.59.25.87.36.33.13.67.25,1.01.35,2.67.94,5.37,1.49,8.08,1.7.67.06,1.34.11,2,.11,2.79.05,5.55-.25,8.22-.89.66-.15,1.3-.33,1.94-.54,2.64-.8,5.17-1.95,7.53-3.38.57-.34,1.13-.72,1.69-1.09,2.25-1.57,4.31-3.42,6.11-5.55.44-.5.87-1.03,1.26-1.57,1.64-2.15,3.01-4.55,4.09-7.17.14-.29.24-.58.36-.87.13-.33.25-.67.35-1,.94-2.67,1.5-5.38,1.7-8.09.06-.67.11-1.34.11-2,.05-2.79-.25-5.54-.89-8.22-.15-.65-.33-1.29-.53-1.92-.8-2.65-1.94-5.18-3.39-7.55-.34-.57-.7-1.13-1.09-1.69-1.57-2.25-3.42-4.31-5.55-6.13-.5-.43-1.03-.84-1.57-1.24-2.16-1.64-4.55-3.03-7.17-4.1-.29-.14-.58-.24-.86-.36-.33-.13-.67-.25-1.01-.35-2.67-.95-5.38-1.5-8.08-1.71h.02Z"/>
  </g>
  <g id="b_x5F_1">
    <path d="M136.35,223.05c-.18-.11-.38-.2-.61-.24-.9-.17-1.78.44-1.95,1.33l-.21,1.08c-1.12-1.01-2.27-1.98-3.47-2.93-.17-.14-.34-.27-.52-.4l.72-3c.22-.9-.33-1.8-1.23-2.03-.9-.22-1.81.34-2.03,1.23l-.41,1.69c-1.93-1.27-4.03-2.49-6.29-3.64h0l.55-3.1c.16-.91-.45-1.78-1.36-1.95-.91-.16-1.77.45-1.95,1.36l-.38,2.14h0c-1.86-.88-3.8-1.74-5.8-2.55l.41-3.29c.12-.92-.54-1.75-1.46-1.87s-1.76.53-1.87,1.46l-.3,2.43c-1.58-.62-3.18-1.2-4.79-1.76h0l.4-3.44c.11-.92-.55-1.74-1.47-1.85s-1.76.56-1.85,1.47l-.3,2.7c-1.64-.54-3.28-1.07-4.94-1.58l.27-4.54c.05-.92-.66-1.71-1.58-1.77s-1.71.66-1.77,1.58l-.21,3.73c-1.57-.46-3.14-.91-4.69-1.33h0l.25-3.65c.06-.92-.63-1.72-1.55-1.78s-1.72.63-1.78,1.56l-.2,2.99c-1.4-.38-2.78-.74-4.14-1.07h0l.57-4.26c.12-.92-.52-1.76-1.43-1.89-.92-.12-1.76.53-1.89,1.43l-.53,3.91c-1.85-.45-3.63-.87-5.32-1.25h0l.88-4.58c.18-.91-.43-1.79-1.33-1.96-.91-.18-1.8.43-1.96,1.33l-.86,4.48h0c-7.85-1.69-13.33-2.63-14.01-2.74l-2.96-.49,1.12,2.77c.26.65,2.34,5.75,5.69,12.98h0l-4.02,1.76c-.84.37-1.23,1.36-.86,2.2s1.36,1.24,2.2.86l4.1-1.79h0c.74,1.54,1.51,3.16,2.34,4.83h0l-3.41,1.28c-.87.32-1.3,1.29-.98,2.16.32.87,1.29,1.3,2.16.99l3.73-1.4c.62,1.22,1.25,2.46,1.91,3.72l-2.47.74c-.89.27-1.38,1.2-1.12,2.09.26.89,1.2,1.38,2.09,1.12l3.09-.93h0c.75,1.41,1.51,2.81,2.3,4.22h0l-3.09.91c-.89.26-1.4,1.18-1.14,2.08.26.89,1.18,1.4,2.08,1.14l3.85-1.12h0c.85,1.48,1.72,2.96,2.61,4.42h0l-1.96.69c-.88.31-1.33,1.26-1.03,2.13.31.88,1.26,1.33,2.13,1.03l2.62-.92h0c.9,1.42,1.81,2.84,2.74,4.23h0l-1.57.57c-.86.31-1.32,1.28-1.01,2.14.31.86,1.28,1.32,2.14,1.01l2.39-.86c1.24,1.75,2.49,3.45,3.75,5.05h0l-1.17.49c-.86.36-1.25,1.34-.89,2.2.36.86,1.34,1.25,2.2.89l2.06-.87c1.65,1.95,3.3,3.73,4.95,5.32l-.63.31c-.83.4-1.16,1.41-.76,2.25.41.84,1.41,1.16,2.25.76l1.85-.92h0c.15.13.31.26.46.38,1.18.95,2.37,1.84,3.58,2.7-.78.39-1.13,1.34-.78,2.15.37.84,1.36,1.24,2.2.86l1.83-.8c2.19,1.4,4.41,2.67,6.62,3.81-.53.48-.72,1.26-.42,1.94.39.84,1.38,1.21,2.22.82l2.05-.94h0c2.79,1.24,5.57,2.24,8.28,3l-2.57,1.09c-.86.36-1.25,1.34-.88,2.2s1.34,1.25,2.2.88l6.86-2.91h0c10.68,1.8,19.99-.28,25.18-6.65.35-.42.68-.88.98-1.34h.01c3.38-.06,7.57,2.59,9.78,5.55,2.2,2.95,3.32,6.71,4.4,10.35.2.65.39,1.29.58,1.93,2.15,6.98,4.22,14.1,5.99,20.23,3.88,13.46,7.84,27.54,12.11,43.08h.01c1.76,8,3.78,16.78,5.98,26.11h0c-.5-.33-.99-.64-1.49-.93l-21.88-78.29c-.17-.71-4.41-17.42-16.86-20.43-3.93-.95-7.25-.49-9.85,1.38-4.31,3.08-4.88,8.84-4.91,9.09h.09c-.77.75-1.38,1.69-1.69,2.8-.91,3.26.98,6.63,4.24,7.54s6.63-.98,7.54-4.24-.98-6.63-4.24-7.54c-.73-.21-1.47-.26-2.18-.21.45-1.48,1.35-3.49,3.11-4.73,1.77-1.27,4.17-1.54,7.1-.83,10.47,2.53,14.36,17.83,14.41,18.03l5.72,20.47c-2.34-5-5-10.49-6.96-14.23.21-2.84-1.6-5.53-4.45-6.33-3.26-.91-6.63.98-7.54,4.24s.98,6.63,4.24,7.54c2.2.62,4.47-.06,5.98-1.58,3.16,6.22,7.36,15.2,9.51,20.19,2.36,5.51,4.45,10.64,6.35,15.66l8.24,29.48c-.19-.08-.39-.14-.58-.21h0c-1.56-4.7-9.37-26.82-20.17-32.22-1.64-.83-3.13-1.47-4.46-1.94.5-4.38-.47-9.07-2.88-13.75-1.58-3.08-3.76-6.09-6.43-8.96h0l-1.94-10.07c-.17-.91-1.05-1.5-1.97-1.32-.91.17-1.5,1.05-1.32,1.96l1.04,5.36c-2.54-2.22-5.37-4.31-8.44-6.27l-.66-4.05c-.15-.91-1.01-1.53-1.92-1.38s-1.53,1.01-1.38,1.92l.21,1.28h0c-2.5-1.41-5.14-2.72-7.89-3.9h0l-.66-3.57c-.16-.9-1.04-1.51-1.95-1.35-.9.16-1.51,1.04-1.35,1.95l.27,1.47h0c-1.63-.62-3.32-1.2-5.01-1.73-.27-.09-.53-.16-.8-.24l-.46-3.48c-.13-.92-.97-1.56-1.88-1.44s-1.56.97-1.44,1.88l.29,2.16h0c-2.59-.58-5.36-1.01-8.29-1.32l-.69-3.53c-.17-.91-1.06-1.5-1.97-1.32-.91.17-1.5,1.06-1.32,1.97l.51,2.58h0c-2.37-.18-4.83-.29-7.33-.33l-.93-3.68c-.22-.9-1.14-1.44-2.03-1.22s-1.44,1.14-1.22,2.03l.7,2.82h0c-1.99.01-3.99.04-5.99.1l-.99-3.81c-.23-.9-1.15-1.44-2.04-1.2s-1.44,1.15-1.2,2.04l.81,3.1c-2.02.09-4.05.22-6.05.36h0l-1.57-4.89c-.29-.88-1.23-1.37-2.11-1.08s-1.37,1.23-1.08,2.11l1.33,4.14h0c-1.93.17-3.83.34-5.71.53h0l-1.25-3.99c-.28-.88-1.21-1.37-2.09-1.1s-1.38,1.21-1.1,2.09l1.04,3.35h0c-1.71.19-3.4.39-5.05.6l-1.14-4.77c-.21-.89-1.12-1.45-2.02-1.24s-1.45,1.12-1.24,2.02l1.06,4.41h0c-2.2.28-4.32.58-6.31.89h0l-.95-5.24c-.16-.9-1.04-1.51-1.95-1.35s-1.51,1.04-1.35,1.95l.93,5.14h0c-8.84,1.38-14.91,2.62-15.68,2.78l-2.93.6,2.04,2.18c.53.56,4.76,5.03,11.15,11.21l-3.57,3.54c-.66.65-.66,1.72,0,2.36.65.66,1.72.66,2.36,0l3.63-3.6h0c1.45,1.37,2.98,2.81,4.58,4.29h0l-3.14,2.79c-.69.62-.75,1.68-.14,2.36.62.69,1.67.75,2.36.14l3.4-3.02h0c1.21,1.09,2.45,2.19,3.72,3.32l-2.4,1.88c-.73.57-.86,1.62-.29,2.35s1.62.86,2.35.29l2.92-2.28c1.41,1.22,2.84,2.43,4.31,3.66h0l-2.98,2.28c-.74.56-.87,1.61-.31,2.35s1.61.87,2.35.31l3.62-2.76h0c1.55,1.26,3.12,2.5,4.72,3.72h0l-1.89,1.62c-.7.6-.79,1.66-.19,2.36s1.66.79,2.36.19l2.44-2.09h0c1.58,1.19,3.19,2.36,4.79,3.48h0l-1.55,1.34c-.69.61-.77,1.66-.17,2.37.61.69,1.66.77,2.37.17l2.2-1.92h0c2.07,1.39,4.13,2.69,6.17,3.9l-1.16,1.12c-.67.65-.69,1.7-.04,2.37.64.67,1.7.69,2.37.04l1.86-1.81h0c2.57,1.42,5.09,2.65,7.53,3.65l-.68.75c-.62.68-.58,1.74.1,2.36s1.74.58,2.36-.1l1.6-1.74h0l.73.24c1.67.53,3.35,1,5.02,1.42h0l-.13.12c-.66.65-.67,1.71,0,2.36.65.66,1.71.67,2.36.01l1.62-1.61c2.94.6,5.83,1.04,8.66,1.33h0c-.48.67-.41,1.59.19,2.16.66.65,1.72.63,2.36-.03l1.77-1.82h0c3.56.17,7,.07,10.27-.27l-2.55,2.48c-.66.65-.67,1.7-.03,2.37.64.67,1.7.67,2.37.04l5.91-5.75c11.69-2.38,20.4-8.2,23.2-16.78.06-.16.1-.31.14-.47,1.07.42,2.28.94,3.65,1.63,8.51,4.27,15.41,21.63,17.81,28.37v.02c-.16-.02-.3-.05-.46-.06-.75-3.54-3.56-12.94-13.01-17.39-4.01-1.89-7.62-2.22-10.71-.96-2.88,1.16-4.53,3.41-5.3,4.77-.58.66-1.04,1.46-1.29,2.36-.91,3.26.98,6.63,4.24,7.54,3.26.91,6.63-.98,7.54-4.24s-.82-6.3-3.79-7.39c2.17-.82,4.81-.5,7.89.94,7.42,3.48,10.1,10.83,10.97,14.28-2.56.12-5.09.62-7.25,1.56-3.41,1.48-5.79,3.87-6.87,6.91-1,2.74-.29,6.04,1.94,9.3.12.18.26.35.38.54-4.97-4.58-11.03-8.24-17.92-10.76-6.01-2.18-12.52-3.51-19.37-3.93-1.73-.1-3.59-.05-5.4.03-4.8.16-9.74.33-13.03-2.52l.08.02c3.26.91,6.63-.98,7.54-4.24s-.98-6.63-4.24-7.54c-3.26-.91-6.63.98-7.54,4.24-.1.34-.15.68-.19,1.02-1.27,2.55-1.82,5.15,1.56,8.49,4.31,4.27,10.48,4.05,15.93,3.87,1.8-.06,3.51-.13,5.08-.02,6.53.41,12.73,1.66,18.43,3.73,5.6,2.03,10.59,4.89,14.85,8.39-22.14-15.07-45.1-9.76-53.32-7.06h0c-2.72-5.81-7.85-10.44-14.5-12.3-1.43-.4-2.86-.65-4.28-.76-.43-5.3-2.66-10.23-6.43-14.08-4.26-4.36-9.97-6.81-16.09-6.88-6.1-.08-11.86,2.24-16.24,6.5-1.05,1.03-1.99,2.14-2.81,3.33-4.8-2.29-10.19-2.8-15.4-1.48-5.91,1.52-10.88,5.24-14.01,10.49-3.11,5.25-4,11.4-2.48,17.32.36,1.44.86,2.8,1.48,4.11-4.23,2.92-7.49,7.27-8.98,12.58-3.41,12.13,3.7,24.78,15.83,28.19,1.43.4,2.86.65,4.28.76.43,5.3,2.66,10.23,6.43,14.08,4.26,4.36,9.97,6.81,16.09,6.88,6.1.08,11.87-2.23,16.24-6.5,1.05-1.03,1.99-2.14,2.82-3.32,4.64,2.18,10.04,2.84,15.39,1.48,8.19-2.09,14.22-8.4,16.35-16.01,1.05-3.73,1.16-7.78.13-11.8-.36-1.44-.86-2.8-1.48-4.11,4.23-2.92,7.49-7.27,8.98-12.58,1.22-4.35,1.09-8.77-.15-12.81,9.14-3.11,37.36-9.7,61.48,16.52,2.89,3.15,5.84,7.07,8.81,11.55-5.14-4.87-11.35-10.52-16.06-14.04-7.24-5.39-16.27-9.41-26.83-11.96-9.45-2.27-17.03-.21-22.54,6.12-5.08,5.83-8.42,15.13-4.43,22.74,1.88,3.61,5.21,6.39,9.1,7.6.93.29,1.74.42,2.48.44-.03.47.13.95.49,1.31l1.53,1.5c-.95.71-1.92,1.46-2.88,2.23h0l-2.13-1.9c-.69-.61-1.75-.55-2.37.14-.61.69-.55,1.75.14,2.37l1.77,1.58h0c-.71.61-1.4,1.23-2.09,1.87l-2.21-1.93c-.7-.61-1.75-.54-2.36.16s-.54,1.75.16,2.36l1.96,1.71h0c-.69.67-1.37,1.34-2.05,2.02l-2.96-2.34c-.73-.58-1.77-.45-2.35.28-.57.72-.45,1.77.28,2.35l2.68,2.11c-.63.66-1.24,1.32-1.85,1.97l-2.37-1.91c-.72-.57-1.77-.46-2.36.25s-.46,1.77.25,2.36l2.21,1.77c-.52.56-1.02,1.13-1.52,1.7l-2.63-2.39c-.68-.62-1.74-.57-2.36.11s-.57,1.74.11,2.36l2.69,2.44c-.71.82-1.38,1.62-2.02,2.39l-2.73-2.74c-.65-.66-1.72-.66-2.36,0-.66.65-.66,1.72,0,2.36l2.96,2.96c-3.63,4.45-5.99,7.65-6.29,8.07l-1,1.37,1.65.38c.5.12,4.38,1,10.06,2.01h0l-.22,4.01c-.05.92.66,1.71,1.58,1.77.8.05,1.5-.47,1.71-1.21.03-.12.06-.24.05-.36l.2-3.62h0c1,.15,2.02.32,3.08.48l-.36,3.34c-.1.92.56,1.75,1.49,1.84.82.09,1.57-.44,1.79-1.21.02-.09.04-.19.05-.27l.35-3.22c.74.1,1.48.19,2.23.29h0l-.41,2.44c-.15.91.46,1.78,1.37,1.93.85.15,1.66-.38,1.89-1.2.02-.05.03-.12.04-.17l.44-2.6h0c.89.1,1.78.19,2.67.27h0l-.52,2.92c-.16.91.45,1.78,1.36,1.95.85.15,1.67-.38,1.9-1.19.02-.05.03-.11.03-.16l.57-3.23c.96.07,1.92.13,2.89.19h0l-.25,2.05c-.12.92.54,1.75,1.46,1.87.83.1,1.6-.42,1.82-1.2.02-.08.05-.16.05-.25l.29-2.32h0c.94.04,1.86.05,2.79.05h0l-.2,1.73c-.11.92.55,1.75,1.47,1.86.83.09,1.58-.44,1.8-1.21.02-.09.04-.17.05-.26l.25-2.17h0c1.25-.03,2.46-.1,3.66-.19l-.09,1.4c-.06.92.63,1.72,1.55,1.78.81.05,1.52-.47,1.73-1.22.03-.11.05-.22.06-.34l.13-2h0c1.47-.2,2.88-.47,4.21-.79v.91c-.02.44.15.83.42,1.14-1.56.97-2.87,2.06-3.88,3.22-4.76,5.46-4.86,13.09-.27,20.41,4.71,7.51,14.62,14.17,23.71,11.69,2.91-.79,5.53-2.74,7.57-5.6.13-.18.24-.41.73-1.35.17-.33.43-.83.64-1.24,7.71.11,14.31,6.71,19.65,12.04l.33.32c5.42,5.42,10.47,11.66,15.42,19.06,4.11,6.16,8.16,13.15,12.73,21.98,1.97,3.8,3.81,7.53,5.4,10.76-9.49-14-22.92-33.75-30.07-43.82-12.64-17.81-22.49-11.79-22.91-11.54l.19.31c-1.57.72-2.84,2.1-3.35,3.91-.91,3.26.98,6.63,4.24,7.54s6.63-.98,7.54-4.24c.47-1.69.19-3.4-.65-4.8,3.15,1.06,7.33,3.91,12.19,10.76,10.87,15.32,40.56,59.68,40.56,59.68l21.16,1.85s15.76-54.5,17.85-59.97c.26-.68.6-1.24,1-1.74.33,2.33,1.99,4.36,4.41,5.04,3.26.91,6.63-.98,7.54-4.24s-.98-6.63-4.24-7.54c-2.18-.61-4.41.04-5.92,1.52-2.28.86-4.68,2.51-5.92,5.76-1.07,2.81-4.96,15.62-8.89,28.69,2.31-12.05,4.76-24.61,6.21-31.6,1.35-6.52,3.58-10.41,5.7-12.74.33,2.33,1.99,4.36,4.41,5.04,3.26.91,6.63-.98,7.54-4.24s-.98-6.63-4.24-7.54c-1.54-.43-3.1-.23-4.41.44-3.06,1.14-9.52,5.06-12.26,18.37-2.03,9.8-6.01,30.51-8.86,45.44v-.02c.91-43.93,9.56-63.97,12.17-69.07,11.5,5.92,20.58,2.22,26.1-.04,4.4-1.79,7.41-6.96,8.87-12.16.84-2.98,1.16-5.96.93-8.32-.53-5.55-3.32-9.95-8.05-12.73-8.65-5.07-23.09-4.03-32.06-.11-14.12,6.18-23.93,20.28-24.43,35.04-.32,9.44.38,18.78,1.25,29.14.98,11.66,2.27,23.73,3.89,36.57q1.08,8.56,0,.02c-5.22-26.03-12.92-70.38-8.82-87.55,1.56-6.54,3.31-10.64,4.93-13.21.58,1.95,2.11,3.57,4.21,4.16,3.26.91,6.63-.98,7.54-4.24.63-2.25-.08-4.56-1.65-6.06h-.01c-.7-.68-1.57-1.19-2.57-1.47-1.45-.41-2.93-.25-4.21.34h-.01c-4.88,1.63-8.73,8.26-11.48,19.7-4.38,18.34,3.8,64.58,9.08,90.58-.01-.04-.02-.06-.03-.1-1.45-5.32-3.2-11.75-5.18-19.06-.01-.04-.02-.08-.03-.13-.56-2.07-1.13-4.2-1.72-6.41-3.38-24.81-5.28-44-6.15-61.96-.62-12.99-1.27-26.39,7.69-36.32h0c2.45,3.37,6.19,6.04,10.97,7.77h.01l5.59,6.49c.6.7,1.66.78,2.36.18.26-.22.43-.5.52-.82.15-.53.03-1.1-.34-1.55l-2.37-2.74h0c1.71.32,3.46.51,5.26.59h0l2.25,2.74c.59.72,1.64.82,2.36.23.27-.23.46-.52.55-.84.14-.51.05-1.08-.32-1.51l-.52-.63h.01c1.42-.07,2.84-.21,4.29-.43h0l1.99,2.34c.6.7,1.66.79,2.36.2.26-.23.45-.51.53-.82.14-.52.04-1.09-.34-1.53l-.73-.87h.01c.87-.18,1.75-.41,2.63-.65h.01l1.75,2.27c.57.73,1.62.86,2.35.3.3-.23.5-.53.59-.87.14-.49.05-1.04-.29-1.48l-1.07-1.38c1.26-.52,2.53-1.13,3.84-1.83l1.82,2.1c.6.7,1.66.77,2.37.17.26-.22.43-.5.52-.81.15-.53.03-1.11-.34-1.55l-1.4-1.62h0c1.02-.62,2.04-1.28,3.06-1.98l1.97,2.07c.64.67,1.69.7,2.37.06.22-.22.38-.47.45-.75.15-.55.03-1.16-.4-1.61l-1.64-1.72h0c.75-.54,1.51-1.11,2.24-1.68l2.03,2.1c.65.67,1.7.67,2.37.04.22-.22.37-.48.44-.75.16-.56.02-1.18-.41-1.62l-1.81-1.86h0c.74-.6,1.48-1.23,2.21-1.85l2.76,2.57c.68.63,1.74.59,2.37-.09.18-.2.32-.43.39-.69.16-.58,0-1.24-.47-1.67l-2.5-2.33h0c.68-.6,1.36-1.2,2.01-1.8l2.2,2.08c.67.64,1.73.6,2.37-.06.2-.2.32-.44.39-.7.16-.58,0-1.23-.46-1.67l-2.04-1.94h0c.55-.53,1.1-1.05,1.63-1.57h0l2.43,2.58c.63.68,1.69.71,2.36.08.23-.21.39-.48.47-.77.15-.55.02-1.15-.39-1.59l-2.47-2.64h0c.76-.76,1.5-1.5,2.2-2.22h0l2.49,2.95c.6.7,1.66.79,2.36.2.26-.23.45-.51.53-.82.14-.52.04-1.09-.34-1.53l-2.7-3.19h0c3.98-4.15,6.59-7.15,6.92-7.53l1.1-1.28-1.61-.51c-.49-.16-4.3-1.37-9.87-2.83l.55-3.98c.13-.91-.51-1.77-1.43-1.89-.91-.13-1.78.51-1.89,1.43l-.5,3.6h0c-.97-.25-1.98-.5-3.03-.74h0l.63-3.3c.18-.91-.43-1.79-1.33-1.96s-1.79.41-1.96,1.33l-.61,3.19h0c-.72-.17-1.45-.33-2.2-.48h0l.61-2.4c.23-.9-.32-1.8-1.21-2.03-.9-.23-1.81.29-2.03,1.21l-.65,2.57c-.87-.17-1.76-.33-2.65-.49l.76-2.88c.24-.9-.3-1.81-1.19-2.05-.88-.24-1.8.28-2.04,1.17v.02l-.84,3.17h0c-.95-.15-1.9-.29-2.86-.42h-.01l.42-2.03c.19-.91-.39-1.79-1.3-1.99-.91-.19-1.77.39-1.99,1.3l-.48,2.3h-.01c-.93-.11-1.87-.2-2.78-.29h0l.34-1.7c.19-.91-.4-1.78-1.31-1.97s-1.78.4-1.97,1.31l-.42,2.13c-1.25-.06-2.48-.1-3.67-.1l.22-1.39c.14-.91-.49-1.77-1.4-1.9s-1.77.49-1.9,1.4l-.3,1.98c-1.48.08-2.92.23-4.26.44l.08-.91c.08-.92-.59-1.74-1.51-1.83-.93-.09-1.74.59-1.83,1.51l-.18,1.98h0c-.86.25-1.71.52-2.53.8l.03-.18c.13-.91-.51-1.77-1.43-1.9s-1.76.5-1.9,1.43l-.28,2.02c-1.34.57-2.65,1.21-3.91,1.91h0c-.01-.82-.63-1.52-1.47-1.63-.92-.12-1.75.54-1.87,1.46l-.29,2.34c-1.45.96-2.81,2.01-4.07,3.11h0l.33-2.21c.14-.91-.49-1.76-1.41-1.9-.91-.14-1.76.49-1.9,1.41l-1.02,6.8h0c-4.99,6.08-6.79,12.76-5.07,18.87.24.84.54,1.67.91,2.46h0c-10.63,11.03-9.91,26.13-9.27,39.51.38,7.89.96,16,1.77,24.72h0c-.94-5.27-1.83-10.52-2.69-15.76,0-.02,0-.05-.01-.07-.32-5.61-3.48-66.88,7.55-87.67.76,1.43,2.07,2.58,3.76,3.05,3.26.91,6.63-.98,7.54-4.24s-.98-6.63-4.24-7.54c-2.54-.71-5.15.29-6.61,2.32h-.01c-9.97,10.33-11.98,43.36-12.03,67.54v-.1c-.97-7.02-1.95-14.46-2.77-22.04.33-14.34,1.67-26.71,4.13-37.64,1.93-8.6,4.1-16.05,11.23-20.21,6.81-3.97,16.49-6.87,21.39-2.02.9.89,1.3,2.23,1.43,3.65-.71-.7-1.59-1.22-2.61-1.51-3.26-.91-6.63.98-7.54,4.24s.98,6.63,4.24,7.54,6.63-.98,7.54-4.24l.02-.08h.04c.09-.3,2.08-7.6-1.54-11.19-5.8-5.74-16.59-2.68-24.09,1.68-7.9,4.61-10.23,12.54-12.28,21.65-1.44,6.47-2.51,13.43-3.22,20.96h0v-.02c-.21-12.72,1.65-25.75,9.05-38.32,6.3-10.72,16.63-18.57,30.74-23.41.21.13.43.24.65.34-1.55,5.08-1.3,10.49.78,15.45,2.35,5.63,6.76,10.01,12.41,12.33,5.64,2.33,11.86,2.31,17.5-.05,1.35-.56,2.64-1.25,3.85-2.05,3.51,3.74,8.28,6.35,13.75,7.06,8.4,1.07,16.32-2.56,21.12-8.86,2.35-3.07,3.95-6.8,4.48-10.92.19-1.47.23-2.92.15-4.36,4.99-1.15,9.64-3.98,12.98-8.38,7.63-10.02,5.7-24.39-4.32-32.04-1.18-.9-2.41-1.65-3.7-2.29,1.56-5.08,1.31-10.48-.78-15.45-2.35-5.62-6.76-10.01-12.41-12.33-5.64-2.33-11.85-2.29-17.49.05-1.37.57-2.65,1.25-3.85,2.05-3.62-3.89-8.44-6.36-13.77-7.05-6.06-.77-12.05.85-16.89,4.58-4.83,3.73-7.92,9.12-8.69,15.18-.2,1.46-.24,2.92-.15,4.36-5.01,1.16-9.64,4-12.98,8.38-7.53,9.86-5.77,23.98,3.87,31.69-13.67,5.15-23.77,13.2-30.13,24-10.57,17.97-10.38,36.6-8.59,54.05,1.47,14.46,3.51,28.51,5.32,40.34.59,3.91,1.21,7.83,1.86,11.75v.04s0,.02.01.04c0,.13.01.24.02.3h.04c.1.7.22,1.39.34,2.1-5.1-19.34-10.48-40.03-15.61-60.27v-.02c.14-5.87.67-11.75,1.58-17.47.75-4.73,1.72-8.84,2.98-12.56,1.04-3.07,2.9-5.43,4.88-7.94,1.01-1.26,2.06-2.58,3.02-4.03,1.3-1.95,2.29-4.11,2.92-6.37.33-1.19.57-2.41.71-3.64.02-.16.03-.31.03-.45h0c1.53-1.65,3.05-3.33,4.55-5.03l1.16-1.32c2.95-3.32,5.99-6.77,7.72-11.04.16-.4.29-.79.4-1.17.8-2.85.31-5.65-1.37-7.68-1.17-1.42-2.78-2.27-4.64-2.52-.47-.3-1-.54-1.56-.69-3.26-.91-6.63.98-7.54,4.24s.98,6.63,4.24,7.54,6.63-.98,7.54-4.24c.07-.24.11-.47.15-.71.34,1.17.24,2.56-.33,3.98-1.51,3.74-4.38,6.96-7.13,10.08-.39.45-.78.89-1.17,1.33-.78.89-1.58,1.78-2.37,2.66-.45-1.67-1.25-3.05-2.39-4.08-2.39-2.18-5.61-3.15-9.31-2.84-1.69.14-3.44.55-5.14,1.19.5-8.43,1.75-17.29,3.83-22.81h0c.77,1.36,2.05,2.43,3.68,2.89,3.26.91,6.63-.98,7.54-4.24.91-3.26-.98-6.63-4.24-7.54-1.81-.51-3.65-.14-5.08.84-.03.02-.04.02-.07.03h-.01c-6.85,3.95-8.64,21.8-9.09,32.45-.52.28-1.02.59-1.51.92-.32-6.07-.32-12.3.02-18.55.54-9.6,1.42-25.67,10.34-31.97,6.81-4.81,19.52-10.01,24.64-3.47,1.13,1.45,1.58,3.66.95,5.41-.78-.98-1.85-1.75-3.14-2.11-3.26-.91-6.63.98-7.54,4.24s.98,6.63,4.24,7.54,6.63-.98,7.54-4.24c.14-.48.2-.96.22-1.45,1.01-.95,1.66-2.12,2.01-3.37.78-2.76.07-5.92-1.63-8.1-7.11-9.09-22.22-2.14-29.2,2.81-10.24,7.25-11.18,24.32-11.75,34.52-.4,7.23-.35,14.38.14,21.35-.06.04-.11.09-.14.14-2.3-14.37-6.3-51,8.55-69.42,1.59,1.57,3.79,2.72,6.5,3.48,4.78,1.34,11.09,1.44,18.48.39l8.86,2.92c.88.29,1.83-.19,2.11-1.07l.02-.08c.24-.86-.24-1.76-1.08-2.04l-2.95-.97c3.67-.79,7.47-1.84,11.44-3.12l3.49,1.27c.87.31,1.83-.13,2.15-1l.03-.12c.2-.71-.11-1.42-.71-1.82-.4-.27-.39-.27.02,0,3.11-1.12,6.28-2.38,9.49-3.79l3.24,1.11c.88.29,1.83-.17,2.13-1.05l.02-.09c.22-.8-.18-1.64-.93-1.98h.01c1.65-.77,3.32-1.58,4.99-2.42.43-.22.87-.44,1.3-.68h0l3.03,1.22c.85.34,1.83-.07,2.17-.93.03-.05.04-.12.06-.17.23-.82-.19-1.69-.99-2.01l-.5-.2h0c2.63-1.53,5.34-3.25,8.09-5.1l3.37,1.1c.88.28,1.83-.19,2.11-1.08l.02-.06c.24-.86-.24-1.76-1.1-2.05l-.96-.31c2.15-1.52,4.31-3.12,6.47-4.77l3.74,1c.88.24,1.8-.28,2.04-1.17v-.02c.25-.9-.29-1.81-1.18-2.05l-1.28-.35h0c1.65-1.3,3.28-2.63,4.92-3.96h0l3.94,1.01c.89.23,1.79-.3,2.03-1.17v-.03c.24-.9-.29-1.81-1.19-2.04l-1.6-.41c1.62-1.34,3.22-2.7,4.79-4.07h0l5.26,1.05c.87.17,1.71-.35,1.94-1.18l.03-.12c.19-.91-.4-1.79-1.31-1.97l-2.74-.55h0c1.46-1.29,2.92-2.59,4.32-3.87l4.35.92c.86.18,1.72-.34,1.96-1.19l.03-.11c.2-.91-.39-1.79-1.3-1.99l-1.97-.41c1.28-1.17,2.52-2.33,3.74-3.46h0l4.77,1.33c.89.25,1.81-.27,2.06-1.16h0c.25-.89-.27-1.81-1.16-2.06l-2.84-.8h0c1.67-1.57,3.26-3.1,4.75-4.54l4.92,1.68c.88.3,1.83-.17,2.13-1.05l.02-.09c.24-.85-.23-1.75-1.07-2.04l-3.32-1.13h0c6.46-6.34,10.68-10.75,11.22-11.32l3.34-3.53-4.8.72c-.85.12-7.52,1.13-17.23,2.87l.48-2.92c.15-.91-.46-1.78-1.37-1.93s-1.78.47-1.93,1.37l-.69,4.12c-2.29.42-4.71.89-7.24,1.39h-.01l.54-2.26c.22-.9-.34-1.8-1.23-2.02s-1.82.35-2.02,1.23l-.91,3.77c-1.86.37-3.75.77-5.66,1.17l.42-1.29.02-.08c.24-.86-.24-1.76-1.08-2.04-.88-.29-1.83.19-2.12,1.06l-1.04,3.15c-2.11.46-4.24.94-6.4,1.44l.63-1.84.02-.09c.24-.85-.23-1.75-1.07-2.04-.88-.29-1.83.17-2.13,1.05l-1.31,3.84h0c-2.29.54-4.59,1.1-6.89,1.7h0l.23-.85c.24-.9-.29-1.81-1.19-2.05s-1.78.31-2.05,1.19l-.72,2.69c-2.29.61-4.56,1.24-6.81,1.87l.13-.51c.23-.9-.32-1.8-1.21-2.03-.9-.23-1.76.33-2.03,1.21l-.62,2.42h-.01c-2.87.85-5.68,1.74-8.4,2.67h0l.03-.2c.18-.91-.43-1.78-1.34-1.95-.92-.16-1.78.43-1.95,1.34l-.38,2.07h0c-3.39,1.22-6.6,2.48-9.56,3.78h0c-.02-.83-.65-1.54-1.5-1.63-.92-.1-1.74.58-1.84,1.5l-.17,1.76-1.13.55c-1.92.97-3.8,1.96-5.62,2.97h0c-.19-.56-.67-1-1.3-1.11-.91-.15-1.78.46-1.93,1.37l-.29,1.73c-3.26,1.89-6.33,3.82-9.22,5.79-.24-.45-.68-.78-1.23-.87-.91-.13-1.77.51-1.9,1.43l-.26,1.82h0c-3.36,2.43-6.42,4.9-9.12,7.35h0l.29-1.62c.16-.91-.44-1.78-1.34-1.94s-1.79.44-1.94,1.34l-1.13,6.21h0c-4.96,5.17-8.3,10.19-9.56,14.7l-.04.14c-.8,2.98-.69,5.63.38,7.91-17.93,21.03-11.54,64.04-9.33,75.94-.27.43-.54.88-.79,1.34-4.09-17.25-7.5-32.6-9.78-44.47-.18-.92-.35-1.84-.51-2.74-.02-15.54,1.91-38.34,6.89-48.3.68,1.71,2.11,3.09,4.03,3.62,3.26.91,6.63-.98,7.54-4.24s-.98-6.63-4.24-7.54c-1.29-.36-2.6-.28-3.77.16-8.71,2.69-11.93,23.04-13.11,38.67h0c0-.06-.01-.1-.02-.15,0-.06,0-.13-.02-.19-.58-9.08-.52-18.31.19-27.42,1.27-16.2,4.43-31.48,18.9-33.5,1.12-.16,2.49-.23,3.82-.02-1.32.77-2.34,2.03-2.79,3.61-.91,3.26.98,6.63,4.24,7.54s6.63-.98,7.54-4.24c.61-2.16-.03-4.38-1.49-5.89-.62-.97-1.37-1.68-1.64-1.92-3.07-2.73-7.21-2.81-10.14-2.41-11.92,1.67-17.09,10.87-19.52,20.42,1.41-15.85,4.55-26.5,6.55-31.97.04.08.09.15.12.23,0-.19.02-.4.04-.6-.4-.62-.7-1.34-.78-2.14h-.01c-.84.5-1.8.76-2.79.76,0,.48-.08.99-.23,1.52-.17.6-.41,1.14-.7,1.59.09-.04.2-.08.28-.13-1.87,5.54-4.2,14.3-5.54,26.41-.19-4.52-.53-9.05-1.19-13.54-.66-4.47-3.52-9.93-7.78-11.97-.59-.19-1.16-.4-1.74-.62-1.92-.43-4.47-.29-7.35,1.79,0,0-3.64.71-4.83,4.5-1.01,3.22.98,6.63,4.24,7.54s6.63-.99,7.54-4.24c.68-2.42-.19-4.9-2.02-6.4.85-.12,1.69,0,2.5.33,3.16,1.34,5.6,5.91,6.13,9.55,1.16,7.91,1.29,16.08,1.43,23.99l.05,3.53c.11,5.31.59,11.27,1.07,17.04.36,4.44.73,8.97.94,13.31-.02-.06-.04-.14-.06-.2-1.78-6.14-3.84-13.29-6.01-20.28-.19-.63-.38-1.26-.57-1.9-1.16-3.92-2.37-7.97-4.93-11.4-2.09-2.8-6.36-6.11-10.77-6.78.28-.65.5-1.33.69-2.02.77-2.73.99-5.76.64-9-.33-3.13-1.19-6.39-2.5-9.69l1.63-9.08c.16-.91-.44-1.78-1.36-1.95s-1.78.44-1.95,1.36l-.8,4.41c-1.37-2.56-3-5.11-4.84-7.62h0l.74-3.56c.19-.91-.39-1.79-1.3-1.99-.91-.19-1.81.43-1.99,1.3l-.17.82c-1.59-1.91-3.31-3.77-5.15-5.57l.6-3.15c.12-.63-.13-1.24-.59-1.63M150.81,259.84c.43,4-.14,7.59-1.63,10.55l-1.09-.85,2.26-12.57c.2.97.35,1.93.46,2.88h0ZM148.16,250.14l-3.07,17.06-6.12-4.77,4.42-21.05c1.94,2.91,3.55,5.85,4.77,8.76h0ZM140.74,237.72l-4.71,22.43-4.95-3.85s.02-.1.03-.14l4.61-24.25c1.82,1.88,3.5,3.82,5.02,5.8h0ZM132.86,229.07l-4.74,24.92-5.29-4.12,5.91-24.39c1.44,1.16,2.82,2.36,4.13,3.59h-.01ZM119.75,219.61c2.2,1.17,4.25,2.39,6.07,3.66l-5.9,24.34-4.52-3.52s.02-.02.02-.04c.02-.05.03-.11.03-.16l4.3-24.28h0ZM116.63,218.03l-4.21,23.75-4.39-3.41c.05-.1.12-.2.16-.32.02-.08.03-.16.05-.25l2.77-22.3c1.94.82,3.82,1.66,5.62,2.53h0ZM103.04,212.45c1.6.58,3.2,1.16,4.75,1.77l-2.71,21.84-4.36-3.39,2.31-20.22h.01ZM99.78,211.33l-2.17,18.93-3.73-2.9c.03-.07.09-.14.11-.21.03-.12.05-.23.05-.36l.99-16.99c1.6.5,3.18,1.01,4.75,1.53h0ZM87.02,207.43c1.56.44,3.14.89,4.72,1.36h0l-.94,16.17-4.73-3.68.94-13.85h0ZM83.73,206.53l-.83,12.26-4.84-3.76,1.29-9.64h0c1.44.37,2.9.74,4.38,1.14ZM70.59,203.31c1.76.39,3.59.82,5.49,1.29l-1.08,8.07-5.4-4.21.99-5.15h0ZM67.31,202.57l-.69,3.56-6.51-5.06c2.04.4,4.48.9,7.2,1.5ZM57.75,203.49l6.83,5.31-3.7,1.62c-1.22-2.65-2.28-4.98-3.13-6.93ZM62.33,213.46h0l5.27-2.31,5.42,4.22-8.28,3.09c-.86-1.74-1.67-3.41-2.42-5h0ZM66.25,221.48l9.87-3.7,4.86,3.79-12.72,3.84c-.68-1.33-1.36-2.64-2.02-3.93h.01ZM72.19,232.65c-.79-1.41-1.56-2.83-2.31-4.23h0l14.15-4.27c.06-.02.12-.06.19-.09l4.76,3.7-16.78,4.89h0ZM73.9,235.66s0,0,0,0l17.06-4.99c.38-.11.68-.35.89-.65l3.94,3.06-19.39,6.83c-.85-1.41-1.68-2.82-2.51-4.25h0ZM80.96,247.02c-.92-1.37-1.84-2.78-2.74-4.2l20.21-7.12c.16-.06.3-.13.44-.24l4.44,3.45-22.34,8.11h0ZM86.6,254.77c-1.23-1.56-2.47-3.2-3.67-4.9l22.07-8.01c.44-.16.76-.48.94-.88l4.7,3.66-24.05,10.13h.01ZM93.76,262.55c-1.64-1.49-3.29-3.21-4.91-5.09h0l23.79-10.02c.33-.14.59-.38.77-.67l4.74,3.68-24.38,12.09h0ZM100.89,268.04c-1.45-.98-2.9-2.03-4.32-3.14h0l24.07-11.95c.13-.07.26-.16.37-.25l5.4,4.21-25.52,11.13h0ZM104.28,270.21l23.94-10.45c.38-.16.66-.45.83-.8l5.29,4.12-23.38,10.74c-2.22-1.04-4.45-2.25-6.68-3.6h0ZM147.32,273.18c-3.57,4.2-9.36,6.12-16.25,5.93h0l15.09-6.41c.12-.05.22-.11.32-.18l.85.66h-.01ZM124.36,278.33c-2.98-.58-6.08-1.5-9.23-2.73h0l22.04-10.12c.06-.03.11-.06.15-.1l6.19,4.81-19.14,8.14ZM45.42,310.04l-9.65-2.91c2.44-.43,5.45-.94,8.86-1.47h0l.79,4.37h0ZM56.65,313.42l-7.62-2.29h0l-1.08-5.97h0c2.06-.3,4.24-.6,6.5-.91h0l2.19,9.17h0ZM60.36,314.54h0l-2.57-10.7c1.72-.21,3.49-.41,5.29-.62l4.16,13.39-6.87-2.07h0ZM71.12,317.77h0l-4.63-14.9h0c1.9-.19,3.82-.36,5.76-.52l5.61,17.45-6.72-2.03h0ZM81.54,320.91h0c.03-.24.03-.48-.05-.72l-5.81-18.08c1.95-.14,3.9-.25,5.86-.34l5.42,20.78-5.4-1.63h-.01ZM90.7,323.68h0l-5.75-22.03c2.01-.06,3.99-.1,5.96-.08h0l6,23.97-6.21-1.86h0ZM106.74,328.5l-6.28-1.89c.06-.24.06-.49,0-.75l-6.07-24.25c2.46.05,4.85.17,7.16.36h0l5.2,26.53h0ZM110.33,329.58h0c0-.11,0-.22-.02-.33l-5.3-26.95c2.87.34,5.58.8,8.08,1.41h0l3.67,27.79-6.43-1.92ZM120.28,332.57l-3.68-27.84c2.07.65,4.09,1.39,6.04,2.18h0l5.11,27.9-7.47-2.25h0ZM131.33,335.89h0c0-.08,0-.17-.02-.25l-4.96-27.12h0c2.76,1.27,5.39,2.66,7.86,4.17h0l4.14,25.32-7.01-2.12h0ZM141.91,339.08l-3.92-23.95h0c3.32,2.31,6.28,4.8,8.79,7.42l3.69,19.11-8.56-2.58ZM154.12,342.75l-.06-.32-2.8-14.44c.79,1.15,1.49,2.31,2.09,3.49,1.99,3.86,2.86,7.69,2.58,11.25-.02.18-.04.37-.05.55l-1.76-.53h0ZM34.39,310.23l10.12,3.04-3.5,3.48c-2.6-2.51-4.84-4.73-6.61-6.52h0ZM54.55,329.19c-1.33-1.16-2.64-2.33-3.9-3.46l8.92-7.93,6.92,2.08-11.93,9.31h0ZM61.47,335.1c-1.48-1.23-2.93-2.45-4.35-3.67l13.03-10.16c.07-.06.13-.15.2-.22h.02l6.78,2.05-15.68,12h0ZM68.72,340.88c-1.54-1.17-3.07-2.38-4.58-3.6l15.75-12.05c.3-.23.5-.54.59-.88.02-.08.03-.16.03-.25l5.76,1.73h0l-17.57,15.05h.02ZM71.45,342.95l18.13-15.52c.17-.14.29-.31.38-.5h0l6.35,1.91h0l-20.09,17.53c-1.61-1.09-3.2-2.24-4.79-3.43h0ZM79.1,348.34h0l19.7-17.18c.26-.22.43-.5.52-.81.05-.18.06-.38.05-.58h0l6.79,2.05h0l-21.01,20.29c-1.99-1.16-4.01-2.43-6.05-3.77h0ZM95.62,357.27c-2.38-.92-4.88-2.09-7.41-3.45h0l20.66-19.97c.22-.22.38-.47.45-.75.03-.11.04-.22.05-.33h0l6.8,2.05-20.55,22.45h0ZM105.15,360.07c-2.02-.46-4.05-1-6.07-1.61l20.21-22.08c.13-.15.23-.33.3-.51h0l7.66,2.3-22.11,21.9h0ZM117.83,361.98c-2.85-.2-5.77-.56-8.74-1.11l20.72-20.53c.21-.21.36-.47.44-.74.05-.17.06-.35.06-.53h0l7.58,2.29-20.04,20.61h-.02ZM122.35,362.16h0l18.93-19.48c.07-.07.13-.16.18-.24h0l6.72,2.03,1.95.58-.44.42-16.27,15.8c-3.44.61-7.15.91-11.08.88h0ZM155.22,346.42s-.03.1-.05.15c-2.04,6.08-7.59,10.53-15.24,13.08l13.51-13.12c.13-.12.22-.25.3-.39.07-.11.11-.22.14-.34.43.03.92.11,1.47.23-.04.14-.08.28-.13.41v-.02ZM49.34,366.35c.65-.92,1.39-1.79,2.22-2.59,3.73-3.65,8.65-5.62,13.86-5.56,5.21.07,10.08,2.16,13.72,5.88,3.14,3.21,5.03,7.3,5.47,11.7.07.71.1,1.43.09,2.16,0,.4-.03.79-.06,1.19-.34,4.76-2.39,9.17-5.83,12.54-.71.69-1.46,1.33-2.26,1.88-3.02-4.53-7.58-7.85-12.84-9.33-1.36-.38-2.72-.64-4.01-.74-.09-.01-.18-.02-.27-.02-.1-1.26-.32-2.51-.63-3.76-1.42-5.53-4.76-10.24-9.48-13.36h.02ZM73.78,395.43c.56.82,1.06,1.71,1.51,2.68,1.93,4.2,2.3,8.96,1.05,13.4-.33,1.18-.76,2.3-1.3,3.37-.44.92-.96,1.81-1.55,2.65-3.42,4.82-8.76,7.8-14.67,8.18-1.03.07-2.06.06-3.09-.05-1.12-.11-2.28-.31-3.44-.64-4.49-1.26-8.37-4.09-10.95-7.98-.56-.82-1.06-1.71-1.51-2.68-1.92-4.2-2.3-8.96-1.05-13.4.33-1.18.76-2.3,1.3-3.37.44-.91.96-1.81,1.55-2.65,3.42-4.82,8.76-7.8,14.67-8.18,1.02-.07,2.06-.06,3.11.05,1.12.11,2.27.31,3.43.64,4.49,1.26,8.37,4.09,10.95,7.98h0ZM17.76,390.2c-.86-3.37-.81-6.82.1-10.08.46-1.62,1.13-3.21,2.02-4.71,2.66-4.48,6.9-7.66,11.95-8.95,4.34-1.1,8.83-.7,12.85,1.13.66.29,1.31.62,1.94,1,.34.2.67.41,1.01.63,3.95,2.69,6.75,6.66,7.94,11.33.25.96.42,1.94.5,2.9h0c-6.91.44-13.16,3.93-17.16,9.59-.04.06-.09.12-.13.18-1.12-.54-2.31-.98-3.56-1.33-5.64-1.58-11.42-.88-16.3,1.53-.48-1.03-.85-2.1-1.14-3.22h-.01ZM10.24,408.62c1.24-4.43,3.92-8.07,7.4-10.57.91-.65,1.87-1.21,2.88-1.71,4.15-2.01,9.01-2.57,13.78-1.23.97.27,1.88.61,2.76,1.02-.63,1.24-1.13,2.56-1.52,3.94-1.46,5.2-1.02,10.77,1.23,15.7.04.08.07.16.11.23-1.04.72-2.02,1.53-2.94,2.42-4.08,3.99-6.49,9.24-6.83,14.89-1.12-.11-2.23-.31-3.35-.63-10.36-2.91-16.42-13.7-13.51-24.06h0ZM65.76,446.13c-.65.92-1.39,1.79-2.22,2.59-3.73,3.65-8.65,5.62-13.86,5.56-5.21-.07-10.08-2.16-13.72-5.88-3.14-3.21-5.03-7.3-5.47-11.7-.07-.71-.1-1.43-.09-2.16,0-.39.03-.79.06-1.19.09-1.33.32-2.62.67-3.88.91-3.26,2.66-6.23,5.16-8.66.71-.69,1.46-1.33,2.26-1.88,3.02,4.53,7.58,7.85,12.84,9.33,1.36.38,2.73.64,4.02.75.09.01.17.01.26.03.1,1.26.32,2.51.63,3.75,1.45,5.68,4.94,10.34,9.48,13.36l-.02-.02ZM97.33,422.29c1.29,5.06.54,10.31-2.12,14.79-2.66,4.48-6.9,7.66-11.95,8.95-4.34,1.1-8.83.7-12.85-1.13-.66-.29-1.31-.62-1.94-1-.34-.2-.67-.41-1.01-.63-3.95-2.69-6.76-6.66-7.94-11.33-.25-.96-.42-1.94-.5-2.9h0c6.91-.44,13.16-3.93,17.16-9.59.04-.06.09-.12.13-.18,1.12.54,2.31.98,3.56,1.33,5.64,1.58,11.42.88,16.3-1.53.48,1.03.85,2.1,1.14,3.22h0ZM103.6,390.05s-.02,0-.03.02l.74,1.61c1.42,3.77,1.72,8.02.54,12.19-1.24,4.43-3.92,8.07-7.4,10.57-.91.65-1.87,1.21-2.88,1.71-4.15,2.01-9.01,2.57-13.78,1.23-.97-.27-1.88-.61-2.76-1.02.63-1.24,1.13-2.56,1.52-3.94,1.46-5.2,1.02-10.77-1.23-15.7-.04-.08-.07-.16-.11-.23,1.04-.72,2.02-1.53,2.94-2.42,2.91-2.85,4.96-6.33,6.03-10.14.43-1.54.7-3.13.8-4.75,1.12.11,2.23.31,3.35.63,5.58,1.57,9.9,5.41,12.26,10.24h0ZM265.42,451.72h0c-1.47.17-2.94.25-4.38.27l-12.04-14.7,3.35-.98,13.06,15.42h.01ZM272.08,450.46c-.93.25-1.85.47-2.78.66h0l-13.45-15.87,3.63-1.07,12.6,16.28ZM279.24,447.66h0c-1.28.67-2.53,1.26-3.74,1.73h0l-12.57-16.23,2.97-.88,13.34,15.38ZM285.18,444.05c-.99.68-1.98,1.32-2.97,1.91h0l-12.78-14.73,2.79-.83c.05.07.1.14.16.21l12.8,13.43h0ZM290.18,440.42c-.74.58-1.49,1.14-2.23,1.68l-12.15-12.76,2.83-.84,11.55,11.91h0ZM294.93,436.56h0c-.7.59-1.41,1.18-2.12,1.76h0l-10.56-10.88,2.21-.65c.05.07.11.14.18.2l10.29,9.58h0ZM299.49,432.53h0c-.66.6-1.33,1.22-2.02,1.81h0l-9.3-8.65,3.13-.93,8.2,7.77h-.01ZM303.7,428.58h0c-.57.55-1.14,1.1-1.74,1.66h0l-6.95-6.58,3.21-.95,5.48,5.87ZM308.4,423.95l-2.29,2.29h0l-4.31-4.6,3.72-1.1,2.88,3.41ZM314.08,418.01c-.96,1.02-2.07,2.21-3.33,3.53h0l-1.72-2.04,5.06-1.49h-.01ZM313.37,414.72h.01l-5.35,1.59.41-2.94c1.88.5,3.53.96,4.93,1.35ZM305.17,412.53h0l-.67,4.81-3.74,1.11,1.27-6.68c1.09.26,2.13.52,3.14.76ZM296.43,410.53c.79.16,1.57.32,2.33.49h0l-1.62,8.51-3.25.97,2.54-9.96h0ZM290.47,409.37h0c.89.16,1.79.33,2.67.49l-2.98,11.73-3.15.94,3.46-13.16ZM284.4,408.41h0c.91.13,1.84.26,2.75.41h0l-3.7,14.07c-.07.24-.07.48-.03.71l-2.34.7,3.32-15.89ZM278.29,407.71c.92.08,1.84.17,2.77.28h0l-3.6,17.21s0,.1-.02.16l-2.86.84,3.71-18.5h0ZM271.36,407.4h0c1.16,0,2.34.03,3.56.08h0l-3.78,18.87c-.06.3-.02.58.06.85l-2.99.89,3.14-20.69h0ZM263.82,407.99h0c1.29-.23,2.68-.38,4.13-.47h0l-3.19,20.99c-.04.21-.02.41.03.61l-3.06.91,2.09-22.04h0ZM260.37,408.84h0l-2.09,22.09v.12l-3.69,1.1,3.13-22.4h0c.87-.34,1.75-.63,2.65-.9h0ZM250.28,413.26c1.23-.73,2.52-1.4,3.85-2.03h0l-2.97,21.18c-.03.25-.01.5.06.72l-3.52,1.04,2.57-20.93v.02ZM242.36,419.4s.01,0,0,0c1.27-1.34,2.69-2.56,4.24-3.7l-2.39,19.5-4.4,1.3,2.55-17.1h0ZM235.87,437.67c-.65-2.57-.56-5.26.19-7.96.46-1.63,1.16-3.26,2.11-4.87h0l-1.89,12.66v.04l-.42.13h.01ZM241.18,439.61l4.35-1.28,11.03,13.47c-1.99-.19-3.91-.54-5.75-1.03h-.01l-9.61-11.15h-.01ZM238.1,442.61s.01,0,0,0c.27-.25.42-.55.49-.88l5.31,6.15c-2.43-1.43-4.37-3.21-5.8-5.27q-.95-1.37,0,0ZM311.86,366.92c4.66,3.56,10.27,5.04,15.72,4.6.05,1.13,0,2.26-.13,3.41-.67,5.18-3.3,9.78-7.43,12.96s-9.25,4.57-14.41,3.91c-4.44-.58-8.47-2.62-11.53-5.8-.51-.51-.99-1.05-1.43-1.63-.24-.31-.47-.63-.7-.96-2.68-3.95-3.83-8.68-3.2-13.46.13-.98.32-1.94.6-2.87h.02c6.58,2.13,13.68,1.19,19.5-2.58.07-.04.13-.09.19-.13.85.92,1.8,1.77,2.82,2.55h-.02ZM290.37,363.89c-.98-.31-1.94-.71-2.86-1.18-1-.5-1.99-1.13-2.96-1.86-3.71-2.83-6.28-6.89-7.24-11.46-.22-.96-.35-1.99-.41-3.05-.11-2.14.13-4.26.7-6.3.66-2.35,1.76-4.58,3.26-6.55.73-.96,1.56-1.86,2.45-2.65.75-.68,1.56-1.31,2.43-1.87,4.95-3.22,11.02-4.04,16.65-2.2.98.3,1.94.71,2.87,1.19,1.01.5,1.99,1.13,2.96,1.86,3.71,2.83,6.28,6.89,7.25,11.45.22.96.35,1.99.39,3.06.25,4.61-1.16,9.17-3.96,12.84-.74.98-1.55,1.86-2.45,2.65-.75.68-1.57,1.32-2.43,1.88-4.95,3.22-11.02,4.03-16.65,2.2h0ZM337.55,333.23c8.56,6.53,10.21,18.8,3.69,27.35-2.79,3.66-6.62,6.05-10.78,7.1-1.08.26-2.19.44-3.3.52-4.6.35-9.33-.94-13.27-3.94-.79-.6-1.53-1.25-2.19-1.95,1.04-.93,2-1.98,2.87-3.11,1.76-2.31,3.05-4.92,3.82-7.68.67-2.38.95-4.86.83-7.36-.01-.08,0-.18-.02-.26,1.22-.27,2.44-.67,3.63-1.16,3.76-1.57,6.94-4.05,9.35-7.2.97-1.27,1.81-2.66,2.5-4.12.99.51,1.96,1.12,2.88,1.82h-.01ZM306.49,303.63c4.81-2.01,10.11-2.03,14.94-.05,4.81,1.99,8.57,5.73,10.59,10.53,1.73,4.15,1.98,8.65.76,12.9-.2.68-.44,1.36-.71,2.04-.16.37-.32.73-.49,1.09-2.08,4.3-5.61,7.64-10.04,9.51-.92.39-1.85.7-2.8.92-.56-2.67-1.6-5.19-3.04-7.46s-3.27-4.29-5.45-5.95c-1.13-.86-2.3-1.6-3.45-2.17-.08-.05-.16-.08-.25-.12.37-1.21.64-2.45.8-3.73.72-5.66-.64-11.26-3.88-15.92.95-.6,1.96-1.14,3.02-1.59h0ZM280.92,323.74c-4.66-3.56-10.29-5.03-15.72-4.59-.07-1.13-.01-2.28.13-3.41.44-3.46,1.76-6.65,3.82-9.34,1.02-1.34,2.24-2.56,3.6-3.63,4.13-3.19,9.25-4.58,14.41-3.91,4.45.58,8.47,2.61,11.53,5.79.51.51.99,1.07,1.43,1.64.25.31.49.62.71.95,2.68,3.95,3.81,8.68,3.2,13.47-.13.98-.32,1.94-.59,2.87h-.02c-6.59-2.14-13.69-1.21-19.51,2.58-.07.04-.13.09-.19.13-.84-.92-1.79-1.78-2.81-2.56h0ZM256.61,358.4c-.47-.3-.93-.62-1.39-.97-8.56-6.52-10.21-18.78-3.69-27.34,2.79-3.66,6.63-6.06,10.78-7.1,1.09-.27,2.19-.44,3.3-.53,4.6-.33,9.33.94,13.27,3.94.79.6,1.52,1.26,2.2,1.96-1.03.92-2,1.97-2.88,3.11-3.27,4.29-4.92,9.63-4.64,15.03,0,.08,0,.18.02.26-1.22.27-2.44.67-3.63,1.16-4.72,1.98-8.57,5.39-11.03,9.76-.3.51-.57,1.02-.82,1.56-.52-.26-1.02-.54-1.5-.85h.01ZM260.71,361.61c.15-.36.31-.73.49-1.08h0c.26-.54.54-1.07.84-1.56h0c.37-.64.77-1.23,1.21-1.8,2.04-2.69,4.77-4.81,7.99-6.15.92-.38,1.85-.69,2.8-.92,1.12,5.34,4.13,10.1,8.48,13.42,1.13.86,2.31,1.6,3.47,2.18.07.04.14.07.22.11-.37,1.21-.64,2.45-.8,3.72-.74,5.82.78,11.43,3.88,15.92-.94.62-1.94,1.15-3.02,1.59-4.81,2.01-10.11,2.03-14.93.05-4.82-1.99-8.58-5.72-10.59-10.53-1.75-4.14-1.99-8.64-.77-12.9.2-.68.44-1.36.72-2.04h0ZM126.4,433.41c1.21-.77,2.42-1.47,3.6-2.04l13.85,15.14-2.89,1.13-14.56-14.23h0ZM164.99,438.32l-4.23,1.64-12.1-12.53c2.02.03,3.96.22,5.8.55h0l10.52,10.34h.01ZM161.58,430.26c3.13,1.53,5.68,3.67,7.37,6.35-.26.03-.53.07-.79.13l-6.58-6.47h0ZM154.08,472.66h0c.03-.11.05-.22.05-.33l.12-2.03c1.31-.69,2.55-1.43,3.74-2.22.09.81.75,1.46,1.59,1.49.79.04,1.47-.49,1.68-1.22.04-.13.06-.25.06-.39l.1-2.37c1.37-1.1,2.65-2.25,3.8-3.47l-.15,2.28c-.06.92.64,1.72,1.56,1.78.11,0,.23-.02.33-.03-.77,3.18,1.11,6.42,4.29,7.31s6.63-.98,7.54-4.24c.75-2.68-.4-5.43-2.64-6.83,2.03-.17,4.16.52,6.32,2.09,5.28,3.81,17.44,28.16,26.48,47.58h0c-11.03-15.07-23.95-29.26-31.89-34.69-7.67-5.22-16.06-6.12-22.98-4.71h0ZM145,471.68c-1.27.33-2.65.6-4.08.81l1.46-21.18c0-.21,0-.41-.07-.6l2.98-1.16-.28,22.12h0ZM150.8,471.96v.17c-.05.49.14.93.46,1.26h0c-1.03.31-2,.69-2.93,1.1h0v-1.53h0c.85-.32,1.68-.65,2.47-1h0ZM165.46,458.58h0c-1.16,1.39-2.47,2.74-3.92,4.02l.8-19.65,4.28-1.65-1.15,17.28h0ZM170.05,439.99v-.04l.21-.08h.23c1.35,4.12.79,8.6-1.29,12.93h0l.85-12.81ZM158.08,465.33c-1.16.82-2.39,1.6-3.67,2.32l1.23-21.35c.01-.25-.03-.5-.12-.7l3.42-1.32-.87,21.06h0ZM150.94,469.45h0c-.84.4-1.7.76-2.57,1.11h0l.29-22.19s0-.07,0-.12l3.59-1.39-1.29,22.6h0ZM184.43,461.77c-3.18-2.3-6.38-3.17-9.53-2.59-2.82.52-4.98,2.1-6.35,3.43l.32-4.92c1.76-2.56,3.05-5.21,3.8-7.88.91-3.26,1.04-6.55.21-9.66,10.36,2.4,19.28,19.2,19.39,19.39l.08.14c9.04,13.99,19.22,38.72,30.37,73.65h0c-.74-1.37-1.53-2.75-2.35-4.14-1.57-3.59-26.51-60.62-35.92-67.41h-.02ZM157.37,441.27l-3.25,1.26-14.27-14.29c1.46-.3,2.9-.51,4.33-.64l13.19,13.67ZM150.71,443.85l-3.52,1.36-13.89-15.2c.92-.33,1.83-.62,2.74-.87h0l14.68,14.7h0ZM120.77,437.49c.94-.76,1.88-1.48,2.81-2.16h0l13.95,13.64-2.72,1.06c-.05-.07-.1-.14-.16-.2l-13.87-12.34h0ZM116.09,441.51c.7-.64,1.39-1.24,2.08-1.85h0l13.15,11.71-2.74,1.06-12.49-10.93h0ZM111.68,445.76h0c.65-.65,1.3-1.3,1.97-1.94l11.41,9.98-2.17.84c-.06-.06-.11-.14-.18-.19l-11.03-8.7h0ZM107.44,450.13h0c.61-.66,1.24-1.32,1.87-1.97h0l9.99,7.87-3.04,1.18-8.82-7.08ZM103.58,454.42c.52-.6,1.06-1.2,1.6-1.81l7.48,6.01-3.12,1.21-5.96-5.41ZM99.28,459.41c.66-.8,1.37-1.62,2.1-2.47h0l4.67,4.23-3.62,1.4-3.15-3.16h0ZM94.1,465.81c.87-1.1,1.88-2.37,3.04-3.8h0l1.89,1.9-4.93,1.9h0ZM100.1,469.96h0c-1.92-.34-3.6-.66-5.02-.95h0l5.19-2.01-.17,2.96h0ZM106.61,471.02c-1.1-.16-2.17-.33-3.2-.49l.27-4.86,3.64-1.41-.72,6.77h0ZM112.3,471.82c-.8-.1-1.59-.2-2.37-.31l.92-8.61,3.16-1.22-1.71,10.14h0ZM118.33,472.49h0c-.91-.09-1.8-.19-2.69-.28h0l2.01-11.95,3.07-1.19-2.39,13.42ZM124.46,472.95h0c-.92-.05-1.85-.11-2.78-.19l2.55-14.32c.04-.24.03-.48-.03-.71l2.28-.88-2.01,16.1h-.01ZM127.83,473.09s0,0,0,0l2.18-17.46v-.16l2.78-1.07-2.17,18.73c-.93,0-1.86-.01-2.8-.03h.01ZM137.54,472.87c-1.15.09-2.34.17-3.56.21h0l2.22-19.12c.04-.29-.02-.59-.13-.84l2.9-1.12-1.44,20.87h.01ZM244.36,529.12c-.86-10.25-1.54-19.49-1.23-28.74.44-13.3,9.66-26.5,22.43-32.09,8.2-3.6,21.29-4.61,29.02-.08,3.81,2.24,5.97,5.66,6.4,10.16.53,5.39-2.5,14.93-7.73,17.06-5.51,2.26-13.87,5.66-24.65-.58l-1.37-.79-.87,1.32c-.28.42-3.35,5.26-6.5,16.48-3.78,13.48-7.67,36.18-6.95,71.5l-2.27-.16c-2.8-19.56-4.86-37.26-6.27-54.08h0ZM241.93,580.98v.02c.15.53.29,1.01.4,1.43l-4.87-.46c-1.4-3.24-5.96-13.91-6.69-15.4-1.67-3.4-3.67-7.43-5.79-11.54-4.63-8.95-8.73-16.04-12.91-22.31-5.07-7.59-10.24-13.99-15.83-19.57l-.33-.32c-6-6-13.47-13.46-23.05-13-1.06.05-1.29.51-2.58,3.03-.24.47-.44.86-.47.95-1.11,1.56-2.99,3.57-5.72,4.31-7.53,2.05-15.92-3.75-19.99-10.24-1.81-2.88-5.43-10.26-.05-16.44,4.17-4.78,18-10.28,31.13-1.31,10.66,7.28,30.52,30.81,42.15,50.45h0c2.65,4.47,4.86,8.72,6.45,12.52,6.23,14.95,14.27,30.55,18.15,37.87h0ZM233.53,550.08h0c1.51,5.6,2.9,10.67,4.08,15.12-1.44-2.91-2.96-6.04-4.47-9.27h0c-14.05-47.79-26.82-80.76-37.93-98.01-.83-1.55-11.05-20.36-23.71-21.35h0c-2.57-4.87-7.5-8.32-13.69-10.06l-.08-.02-6.14-6.04c-.66-.65-1.72-.65-2.37.02s-.63,1.72.02,2.37l2.61,2.56h0c-1.72-.17-3.48-.22-5.3-.17l-2.48-2.56c-.65-.67-1.7-.69-2.37-.04s-.69,1.7-.04,2.37l.58.59c-1.41.18-2.83.43-4.26.77l-2.17-2.17c-.65-.66-1.72-.66-2.36,0-.66.65-.66,1.72,0,2.36l.79.8c-.86.26-1.72.55-2.58.88l-1.93-2.12c-.62-.68-1.69-.73-2.37-.11s-.73,1.69-.11,2.37l1.17,1.28c-1.21.62-2.44,1.34-3.67,2.15l-1.62-1.59c.33-.2.63-.4.88-.61,3.23-2.8,2.6-8.59,2.32-10.3-.15-.91-1.01-1.53-1.92-1.38s-1.53,1.01-1.38,1.92c.52,3.25.03,6.17-1.21,7.24-.72.63-1.87.7-3.38.23-.68-.21-1.33-.5-1.97-.83,2.16-.44,4.19-1.5,4.81-3.71.06-.2.11-.42.13-.65.09-.61-.34-1.17-.94-1.26s-1.17.33-1.26.94c-.32,2.31-3.66,2.65-5.5,2.66-.96-.91-1.78-1.96-2.38-3.12-.07-.15-.13-.3-.2-.45,1.5.44,3.29.73,4.82.23,1.13-.37,2.01-1.13,2.53-2.21.03-.06.06-.12.08-.19.14-.52-.09-1.07-.59-1.3-.55-.27-1.22-.04-1.49.52-.26.54-.64.88-1.2,1.05-1.43.47-3.6-.2-5.01-.8-.22-1.09-.3-2.21-.25-3.33.81.61,1.8,1.12,2.89,1.22.91.08,2.27-.12,3.59-1.47.13-.14.22-.3.27-.48.11-.38,0-.81-.29-1.1-.45-.43-1.15-.41-1.58.02-.57.59-1.16.86-1.79.8-1.01-.09-2.02-.93-2.74-1.68.78-3.69,2.7-7.23,4.98-9.84,4.69-5.39,10.98-7.04,19.23-5.06,10.12,2.43,18.74,6.27,25.62,11.39,8.63,6.43,23.04,20.83,25.01,22.81.39.7.78,1.4,1.17,2.11-6.89-7.08-16.96-16.52-26.84-22.44-7.34-4.4-13.43-5.87-18.1-4.35-2.83.92-4.36,2.74-5.05,3.8-1.7.68-3.08,2.12-3.61,4.02-.91,3.26.98,6.63,4.24,7.54s6.63-.98,7.54-4.24c.84-3-.7-6.09-3.5-7.28.41-.25.87-.49,1.43-.67,2.54-.83,7.26-.8,15.33,4.04,15.65,9.38,32.42,28.55,34.51,30.97,21.8,43.97,40.97,104.28,41.23,105.1h-.03ZM202.71,433.02l.06-.03h0c6.23,24.6,12.83,49.85,18.84,72.54-12.1-32.47-29.75-74.63-46.54-95.58-1.7-3.76-3.93-7.25-6.59-10.4,1.04.83,2.16,1.56,3.34,2.19,1.54.83,3.08,1.49,4.57,2.13,2.93,1.26,5.68,2.46,8.05,4.68,2.85,2.68,5.65,5.84,8.55,9.66,3.54,4.67,6.8,9.64,9.72,14.81h0ZM200.1,422.42v.02c-1.43-2.13-2.91-4.22-4.45-6.26-3.01-3.98-5.94-7.27-8.93-10.08-2.79-2.61-5.95-3.99-9.01-5.31-1.43-.62-2.91-1.26-4.33-2.01-2.69-1.44-5.02-3.53-6.73-6.04-.93-1.36-2.33-3.97-1.54-6.29.77-2.17,2.47-3.84,5.04-4.96,4.04-1.75,9.82-1.78,13.75-.07l.14.06c.52.23,1.04.5,1.56.77v.04h.06c1.82.99,3.64,2.26,5.53,3.86,2.75,11.49,5.76,23.73,8.9,36.24q2.09,8.34,0,.04h.01ZM201.35,374.93c1.05-.75,2.2-1.41,3.41-1.95,1.82-.83,3.76-1.39,5.58-1.54,2.8-.23,5.08.44,6.79,1.99,1.81,1.64,1.79,4.63,1.61,6.27-.33,3.03-1.4,5.97-3.08,8.5-.9,1.35-1.89,2.6-2.86,3.82-2.08,2.61-4.21,5.31-5.44,8.94-1.31,3.89-2.33,8.18-3.11,13.1-.38,2.43-.7,4.88-.95,7.35-3.19-12.67-6.24-25.04-9.01-36.65h0c.57-1.42,1.18-2.68,1.85-3.85.39-.7.81-1.35,1.25-1.97.12-.18.23-.34.36-.5.11-.14.22-.3.33-.44l.1-.14c.58-.73,1.26-1.43,2.04-2.08.35-.3.72-.59,1.11-.86h.02ZM222.17,306.39c-5.88.15-10.45-.73-13.26-2.55h0l2.14-1.1,11.11,3.65h.01ZM208.72,299.83c-.02.12-.03.23-.03.35l-1.91.98c-.11.06-.19.14-.28.22t-.02-.03h0c-.95-1.66-1.1-3.7-.45-6.11l.03-.11c.8-2.84,2.57-5.92,5.17-9.18l-2.52,13.87h0ZM243.34,302.77c-4.58,1.32-8.86,2.27-12.78,2.86l-15.32-5.03,9.16-4.71,18.94,6.88ZM212.41,298.27l3.11-17.12c2.7-2.73,5.89-5.48,9.48-8.24h0l-2.87,20.18v.18l-9.71,5h-.01ZM236.35,290.09l21.95,7.47h0c-3.3,1.36-6.52,2.54-9.64,3.57h0l-20.21-7.34,7.55-3.88c.11.08.22.13.36.18h0ZM225.76,291.42l3.02-21.27h0c2.74-1.94,5.67-3.87,8.75-5.74l-3.67,21.79c-.06.34,0,.68.13.99l-8.24,4.24h.01ZM269.69,292.42h0c-2.29,1.13-4.55,2.19-6.77,3.17h-.01l-22.85-7.77,7.97-4.09,21.66,8.7h0ZM237.4,285.42l3.91-23.26h0c2.21-1.26,4.49-2.5,6.83-3.68h0l-2.21,22.16c-.01.12,0,.25.01.37l-8.54,4.41ZM259.34,278.32l22.25,7.24c-2.73,1.79-5.4,3.4-7.96,4.83h-.01l-21.64-8.69,6.95-3.58c.13.08.27.16.42.2h-.01ZM249.44,279.23l2.24-22.47h0c2.82-1.31,5.92-2.57,9.2-3.79h.01l-4,21.51c-.05.31-.02.62.09.89l-7.54,3.86ZM291.46,278.61c-2.13,1.59-4.25,3.12-6.35,4.56l-22.07-7.18,6.67-3.43c.19.18.43.33.7.39l21.05,5.65h0ZM267.81,269.79l-7.33,3.77,4.07-21.91h0c2.62-.91,5.35-1.79,8.14-2.64h0l-5.01,19.63c-.1.4-.04.8.13,1.15h0ZM299.77,272.13c-1.65,1.32-3.29,2.64-4.95,3.91h0l-20.94-5.61,6.46-3.32s.07.03.12.04l19.31,4.98h0ZM278.37,264.36l-7.06,3.63,5.13-20.1c2.23-.65,4.49-1.29,6.77-1.89l-4.78,17.86c-.06.17-.06.34-.06.5ZM302.98,269.5l-18.18-4.68,5.6-2.88c.21.17.45.3.73.36l16.46,3.32c-1.52,1.3-3.06,2.61-4.62,3.89h0ZM288.52,259.14l-6.23,3.2,4.64-17.33h0c2.2-.57,4.41-1.12,6.6-1.65h.01l-5.02,14.72c-.11.35-.1.73,0,1.06h0ZM310.81,262.84h0l-15.92-3.2,6.84-3.52h.03l13.46,2.85c-1.45,1.29-2.91,2.58-4.41,3.87h0ZM299.89,253.04c-.03.1-.05.19-.07.28l-7.45,3.82,5.02-14.72h0c2.17-.51,4.32-1,6.46-1.48h0l-3.96,12.09h0ZM318.27,256.19l-11.84-2.5,7.05-3.62,8.78,2.45c-1.27,1.2-2.62,2.43-3.99,3.67ZM311.65,247.25l-7.61,3.92,3.63-11.03c2.05-.45,4.05-.87,6.01-1.27l-2.03,8.38h0ZM330.11,245.14h0c-1.57,1.51-3.22,3.08-4.96,4.72h0l-7.28-2.03,8.02-4.13,4.22,1.44ZM324.13,240.83l-8.55,4.39,1.71-7.09h.01c2.63-.52,5.14-1.01,7.52-1.46l-.69,4.15h0ZM332.81,242.51h0l-2.78-.94,7.87-4.05c-1.52,1.5-3.21,3.18-5.09,5h0ZM327.84,238.92l.49-2.9h0c2.9-.54,5.54-1,7.86-1.4h.02l-8.37,4.3h0ZM55.76,316.61l-6.65,6.69h0c-1.78-1.44-3.48-2.83-5.08-4.16h0l4.03-4.54h0l7.71,2.01h0Z"/>
    <path d="M137.43,72.06c.96-1.19.78-2.94-.41-3.9s-2.94-.78-3.9.41c-.96,1.19-.78,2.94.41,3.9s2.94.78,3.9-.41ZM117.45,124.32c.08-1.53-1.1-2.82-2.63-2.91-1.53-.08-2.82,1.1-2.91,2.63s1.1,2.82,2.63,2.91,2.82-1.1,2.91-2.63ZM215.37,35.9c.08-1.53-1.1-2.82-2.63-2.91s-2.82,1.1-2.91,2.63c-.08,1.53,1.1,2.82,2.63,2.91s2.83-1.09,2.91-2.63ZM186.25,38.14c-.4-1.48-1.92-2.35-3.39-1.95s-2.35,1.92-1.95,3.39,1.92,2.35,3.39,1.95c1.48-.4,2.35-1.93,1.95-3.39ZM159.25,49.25c-.84-1.28-2.55-1.64-3.83-.81s-1.64,2.55-.81,3.83,2.55,1.64,3.83.81,1.64-2.55.81-3.83ZM123.29,96.61c.55-1.42-.17-3.03-1.59-3.58s-3.03.17-3.58,1.59.17,3.03,1.59,3.58c1.43.55,3.04-.16,3.58-1.59ZM120.45,152.49c-.4-1.48-1.92-2.35-3.39-1.95s-2.35,1.92-1.95,3.39,1.92,2.35,3.39,1.95,2.35-1.93,1.95-3.39ZM283.7,79.53c.84,1.28,2.55,1.64,3.83.81s1.64-2.55.81-3.83-2.55-1.64-3.83-.81-1.64,2.55-.81,3.83ZM295.26,105.38c.4,1.48,1.92,2.35,3.39,1.95s2.35-1.92,1.95-3.39-1.92-2.35-3.39-1.95-2.35,1.93-1.95,3.39ZM298.26,133.55c-.08,1.53,1.1,2.82,2.63,2.91,1.53.08,2.82-1.1,2.91-2.63.08-1.53-1.1-2.82-2.63-2.91-1.52-.08-2.82,1.1-2.91,2.63ZM264.31,54.61c-.96,1.19-.78,2.94.41,3.9,1.19.96,2.94.78,3.9-.41s.78-2.94-.41-3.9-2.94-.78-3.9.41ZM292.4,161.26c-.55,1.42.17,3.03,1.59,3.58s3.03-.17,3.58-1.59-.17-3.03-1.59-3.58-3.02.16-3.58,1.59ZM230.74,20.66c-.06.08-.12.16-.17.23-.02-.08-.05-.16-.06-.25-3.58-12.18-29.79-13.83-34.35-1.75-.03.08-.05.18-.09.28-.05-.08-.1-.15-.15-.23-7.16-10.47-32.6-3.94-33.2,8.95,0,.08,0,.2.01.29-.07-.07-.14-.13-.22-.18-10.04-7.74-32.22,6.32-28.81,18.78.04.08.07.18.09.27l-.23-.09c-11.97-4.25-28.7,15.96-21.62,26.74.06.09.12.16.18.24-.08,0-.18,0-.26-.02-12.69-.36-22.36,24.06-12.27,32.12.06.06.15.12.23.18-.08.01-.17.03-.26.05-12.17,3.59-13.82,29.78-1.74,34.34.08.03.18.07.27.09-.07.06-.15.11-.23.15-10.46,7.16-3.94,32.6,8.95,33.2.09,0,.18,0,.29,0-.05.06-.12.13-.16.2-7.75,10.05,6.31,32.22,18.77,28.8.08,0,.19-.05.28-.08-.05.08-.07.17-.1.25-2.42,6.79,3.08,15.13,10.26,19.76.02.02.04.02.05.04.03.02.06.04.08.06h.02c5.41,3.45,11.75,4.79,16.35,1.74.08-.05.16-.12.24-.18,0,.1,0,.19-.02.27-.32,11.26,18.88,20.14,28.84,14.94,1.25-.65,2.37-1.54,3.28-2.67.07-.07.12-.15.17-.23.04.08.04.17.08.25.14.48.32.95.54,1.42h0c5.11,10.86,29.42,11.93,33.8.34.03-.08.07-.19.09-.28.05.07.08.16.13.22,7.16,10.47,32.59,3.95,33.2-8.95.01-.08,0-.18,0-.28.06.04.13.11.2.17,10.05,7.73,32.22-6.33,28.82-18.78-.03-.1-.06-.19-.08-.28l.24.09c11.95,4.26,28.69-15.96,21.59-26.75-.04-.07-.11-.16-.17-.23.09,0,.18.02.26.02,12.68.36,22.35-24.05,12.27-32.12-.07-.07-.15-.11-.23-.17.08-.04.17-.04.25-.07,12.18-3.57,13.83-29.78,1.75-34.35-.09-.02-.18-.05-.28-.09.08-.05.15-.09.22-.13,10.47-7.16,3.96-32.59-8.94-33.2h-.3c.06-.06.13-.14.17-.2,7.75-10.05-6.32-32.23-18.76-28.82-.09.03-.18.07-.28.09.03-.07.08-.15.09-.24,4.27-11.96-15.95-28.68-26.75-21.6-.07.06-.15.11-.24.18.01-.09.03-.19.02-.27.35-12.67-24.05-22.35-32.12-12.27h.01ZM212.12,26.63c.28,0,.57,0,.84.03.3,0,.57.02.85.06,5.59.65,9.49,5.93,8.89,11.55l-1.47,9.34c-.44,1.67-.87,3.37-1.29,5.09-1.96-.32-3.93-.55-5.9-.71-1.75-.17-3.47-.23-4.79-.27-1.87-.04-3.73,0-5.59.12-.4-2.74-.79-5.44-1.21-8.04l-.35-6.6c0-5.61,4.4-10.5,10.03-10.58h-.01ZM180.31,30.31c.25-.08.53-.16.81-.24s.55-.14.82-.2c5.52-1.11,10.85,2.73,12.03,8.24l1.49,9.33c.1,1.72.22,3.47.35,5.25-1.96.31-3.93.69-5.86,1.16-1.59.37-3.15.81-4.58,1.27-1.79.53-3.57,1.14-5.31,1.8-1.21-2.5-2.44-4.95-3.63-7.29l-2.38-6.15c-1.75-5.36.92-11.36,6.26-13.18h0ZM149.29,58.11c-3.32-4.55-2.61-11.06,1.89-14.45.22-.17.46-.32.7-.48.24-.15.47-.31.72-.45,4.91-2.76,11.18-.76,14,4.12l4.31,8.41c.63,1.61,1.28,3.24,1.95,4.9-1.78.89-3.51,1.87-5.21,2.91-1.46.88-2.81,1.76-3.99,2.61-1.54,1.07-3.03,2.19-4.48,3.37-1.93-1.99-3.85-3.93-5.72-5.8l-4.16-5.14h-.01ZM135.82,83.25l-5.53-3.58c-4.56-3.29-5.94-9.71-2.68-14.33.16-.22.34-.45.53-.68.18-.22.35-.43.54-.64,3.82-4.15,10.39-4.17,14.57-.4l6.7,6.67c1.11,1.33,2.23,2.69,3.38,4.03-1.41,1.4-2.77,2.86-4.05,4.36-1.06,1.21-2.05,2.44-2.99,3.74-1.13,1.48-2.22,3.01-3.22,4.58-2.45-1.3-4.88-2.56-7.24-3.76h0ZM111.89,93.26c.07-.26.16-.53.28-.79.09-.28.2-.55.32-.79,2.34-5.13,8.59-7.18,13.73-4.89l8.42,4.28c1.45.93,2.95,1.86,4.45,2.8-.9,1.76-1.72,3.57-2.48,5.41-.34.73-.62,1.46-.86,2.1-.3.78-.59,1.61-.84,2.42-.62,1.75-1.16,3.52-1.64,5.3-2.74-.49-5.42-.93-8.04-1.34l-6.39-1.7c-5.36-1.72-8.63-7.41-6.96-12.8h0ZM105.56,124.65c0-.28.02-.55.03-.84s.02-.57.06-.85c.65-5.59,5.94-9.47,11.55-8.89l9.34,1.47c1.67.44,3.37.87,5.09,1.29-.32,1.97-.55,3.95-.71,5.92-.14,1.41-.22,2.92-.26,4.77-.04,1.87,0,3.74.11,5.6-2.74.38-5.44.78-8.04,1.2l-6.58.37c-5.63,0-10.51-4.4-10.58-10.04h0ZM109.24,156.48c-.09-.27-.16-.53-.23-.82-.09-.27-.15-.54-.2-.81-1.11-5.53,2.72-10.86,8.23-12.03l9.34-1.5c1.73-.1,3.48-.23,5.26-.36.3,1.96.69,3.9,1.15,5.81.34,1.57.78,3.14,1.26,4.63.53,1.79,1.15,3.56,1.81,5.31-2.5,1.22-4.95,2.45-7.31,3.64l-6.15,2.38c-5.36,1.75-11.35-.91-13.17-6.26h.01ZM122.58,185.6c-.17-.22-.31-.46-.48-.7-.16-.23-.31-.47-.44-.71-2.77-4.92-.77-11.17,4.11-14l8.41-4.3c1.61-.63,3.24-1.29,4.9-1.95.89,1.77,1.86,3.49,2.9,5.2.74,1.24,1.59,2.53,2.64,4.03,1.06,1.54,2.18,3.01,3.35,4.45-2,1.92-3.93,3.85-5.8,5.71l-5.13,4.16c-4.55,3.32-11.08,2.64-14.46-1.89h0ZM144.26,209.18c-.22-.16-.45-.32-.67-.51-.23-.18-.44-.37-.65-.55-4.15-3.81-4.17-10.39-.4-14.56l6.68-6.7c1.33-1.1,2.67-2.21,4.03-3.36,1.4,1.41,2.86,2.77,4.35,4.04,1.34,1.17,2.57,2.16,3.79,3.02,1.47,1.12,2.98,2.19,4.53,3.18-1.3,2.45-2.57,4.87-3.76,7.24l-3.59,5.53c-3.28,4.56-9.7,5.93-14.31,2.67h0ZM171.38,224.62c-.27-.1-.53-.21-.79-.32-5.11-2.35-7.18-8.6-4.89-13.73l4.28-8.43c.93-1.45,1.86-2.95,2.8-4.45,1.76.9,3.57,1.73,5.41,2.48.73.34,1.47.62,2.12.87.78.3,1.61.59,2.42.84,1.75.61,3.52,1.15,5.29,1.62-.49,2.74-.95,5.44-1.36,8.06l-1.7,6.38c-1.71,5.36-7.41,8.64-12.8,6.98-.26-.11-.53-.19-.8-.3h.02ZM203.58,231.23c-.28,0-.56,0-.85-.03-.29,0-.56-.02-.84-.05-5.59-.65-9.48-5.95-8.88-11.56l1.47-9.33c.44-1.67.87-3.39,1.28-5.1,1.96.32,3.95.56,5.92.71,1.72.17,3.28.25,4.77.26,1.87.04,3.74,0,5.6-.11.4,2.74.79,5.44,1.21,8.04l.35,6.59c0,5.63-4.38,10.5-10.03,10.58h0ZM235.4,227.54c-.26.09-.54.17-.81.24-.28.08-.55.15-.82.2-5.52,1.12-10.85-2.72-12.03-8.23l-1.49-9.32c-.1-1.72-.22-3.47-.35-5.25,1.99-.3,3.95-.7,5.88-1.17,1.7-.39,3.21-.83,4.58-1.27,1.78-.53,3.55-1.15,5.28-1.81,1.22,2.5,2.44,4.94,3.63,7.29l2.38,6.16c1.76,5.34-.91,11.35-6.25,13.15h0ZM266.41,199.75c3.33,4.55,2.63,11.08-1.89,14.45-.22.17-.45.34-.7.48-.23.17-.47.31-.72.45-4.91,2.77-11.16.76-13.97-4.12l-4.31-8.41c-.63-1.61-1.28-3.24-1.95-4.9,1.78-.9,3.53-1.87,5.24-2.92,1.49-.89,2.89-1.83,3.98-2.58,1.54-1.07,3.03-2.2,4.47-3.38,1.92,2,3.84,3.94,5.71,5.81l4.14,5.13h0ZM279.88,174.61l5.53,3.58c4.57,3.3,5.94,9.73,2.68,14.33-.16.23-.32.45-.5.67-.19.22-.37.44-.56.64-3.81,4.16-10.38,4.18-14.56.41l-6.7-6.67c-1.11-1.33-2.23-2.69-3.38-4.04,1.42-1.41,2.77-2.88,4.04-4.37,1.09-1.23,2.11-2.49,3.02-3.73,1.12-1.48,2.2-3,3.2-4.56,2.45,1.29,4.86,2.54,7.22,3.74h.01ZM303.82,164.62c-.08.25-.18.53-.28.78-.11.27-.21.53-.33.79-2.34,5.12-8.59,7.18-13.73,4.89l-8.43-4.28c-1.45-.93-2.93-1.86-4.44-2.81.89-1.76,1.72-3.56,2.46-5.4.35-.74.62-1.48.87-2.12.3-.8.59-1.62.84-2.41.53-1.51,1-3.02,1.43-4.56.07-.25.14-.49.2-.74,2.74.49,5.44.94,8.06,1.35l6.37,1.71c5.36,1.72,8.64,7.41,6.97,12.81h.01ZM277.5,139.45c-14.29-3.37-28.83-6.33-36.84-7.9-.22,2.71-.77,5.44-1.71,8.12,7.94,1.88,22.4,5.16,36.82,7.89-.41,1.46-.86,2.91-1.37,4.35l-.03.12c-.21.67-.45,1.37-.72,2.06-.22.59-.46,1.22-.71,1.75l-.07.16c-.63,1.53-1.3,3.01-2.02,4.48-12.55-7.63-25.48-14.93-32.61-18.89-1.07,2.62-2.46,5.04-4.11,7.2,6.99,4.25,19.73,11.84,32.59,18.88-.84,1.28-1.72,2.53-2.65,3.75-.83,1.12-1.72,2.23-2.73,3.36-1.06,1.26-2.17,2.46-3.33,3.63-9.57-11.13-19.62-22.07-25.17-28.05-1.82,2.13-3.88,4-6.14,5.57,5.35,6.2,15.12,17.36,25.18,28.03-1.17.95-2.4,1.85-3.64,2.72-.98.68-2.29,1.55-3.64,2.36-1.41.87-2.85,1.67-4.32,2.44-5.66-13.54-11.82-27.04-15.26-34.45-2.38,1.44-4.93,2.61-7.57,3.39,3.15,7.53,8.99,21.15,15.27,34.42-1.44.55-2.9,1.05-4.38,1.49-1.25.4-2.6.78-4.12,1.14-1.6.38-3.22.72-4.84.98-1.2-14.64-2.9-29.4-3.86-37.5-2.68.65-5.46.96-8.25.91.68,8.14,2.03,22.91,3.9,37.46-1.54.08-3.08.1-4.64.08-1.33,0-2.7-.09-4.27-.24-1.64-.14-3.28-.32-4.92-.57,3.39-14.3,6.33-28.84,7.91-36.85-2.71-.22-5.43-.77-8.11-1.71-1.89,7.96-5.16,22.4-7.89,36.82-1.46-.4-2.9-.85-4.34-1.36l-.1-.04c-.7-.22-1.41-.47-2.09-.73-.57-.22-1.22-.46-1.75-.71l-.16-.07c-1.53-.63-3.02-1.3-4.49-2.02,7.64-12.55,14.94-25.49,18.9-32.61-2.62-1.07-5.02-2.45-7.19-4.12-4.24,7-11.83,19.73-18.88,32.59-1.28-.82-2.5-1.7-3.7-2.63l-.08-.07c-1.05-.75-2.12-1.6-3.34-2.68-1.25-1.06-2.45-2.17-3.62-3.32,11.12-9.56,22.06-19.62,28.05-25.17-2.13-1.82-3.99-3.87-5.56-6.13-6.2,5.33-17.36,15.1-28.03,25.15-.94-1.18-1.84-2.4-2.72-3.64-.95-1.37-1.69-2.53-2.38-3.67-.87-1.41-1.66-2.83-2.41-4.29,13.54-5.66,27.03-11.82,34.43-15.27-1.44-2.38-2.59-4.91-3.38-7.57-7.53,3.15-21.16,9.01-34.42,15.28-.53-1.45-1.04-2.91-1.48-4.4-.44-1.36-.82-2.73-1.13-4.14-.38-1.59-.72-3.19-.98-4.81,14.63-1.2,29.38-2.9,37.48-3.88-.65-2.68-.95-5.44-.91-8.23-8.14.68-22.91,2.03-37.46,3.89-.07-1.53-.1-3.04-.08-4.57.04-1.68.11-3.03.24-4.33.13-1.65.32-3.28.57-4.92,14.29,3.38,28.84,6.33,36.84,7.9.22-2.71.77-5.44,1.72-8.12-7.96-1.89-22.41-5.16-36.83-7.89l.04-.15c.4-1.42.83-2.8,1.33-4.2l.03-.11c.22-.7.47-1.41.72-2.08.22-.59.45-1.21.71-1.74l.06-.14c.63-1.53,1.3-3.03,2.04-4.49,12.54,7.63,25.47,14.93,32.6,18.9,1.07-2.62,2.45-5.03,4.12-7.19-7-4.24-19.73-11.83-32.59-18.88.85-1.29,1.73-2.54,2.68-3.76.87-1.2,1.74-2.28,2.68-3.36,1.07-1.25,2.19-2.46,3.35-3.63,9.57,11.13,19.61,22.06,25.16,28.05,1.83-2.13,3.89-3.99,6.15-5.57-5.35-6.2-15.11-17.34-25.17-28.01,1.2-.97,2.44-1.89,3.71-2.77,1.06-.76,2.27-1.54,3.6-2.34,1.39-.87,2.82-1.68,4.29-2.43,5.66,13.53,11.83,27.04,15.27,34.44,2.35-1.45,4.9-2.59,7.56-3.39-3.15-7.53-8.99-21.15-15.27-34.42,1.45-.53,2.9-1.04,4.39-1.48,1.33-.43,2.7-.81,4.12-1.14,1.6-.37,3.21-.71,4.83-.97,1.21,14.62,2.9,29.37,3.87,37.48,2.69-.65,5.45-.95,8.25-.9-.69-8.16-2.03-22.93-3.89-37.47,1.53-.07,3.03-.1,4.56-.08,1.2.03,2.76.09,4.37.25,1.65.13,3.26.31,4.9.56-3.38,14.29-6.33,28.84-7.9,36.84,2.71.22,5.43.78,8.11,1.72,1.89-7.96,5.16-22.41,7.89-36.83,1.46.41,2.91.86,4.35,1.37l.12.03c.69.22,1.4.46,2.08.72.58.22,1.17.45,1.74.71l.14.06c1.52.62,3,1.29,4.47,2.03-7.62,12.54-14.93,25.48-18.89,32.6,2.62,1.07,5.02,2.46,7.2,4.12,4.24-7,11.83-19.72,18.87-32.58,1.28.84,2.54,1.72,3.77,2.67,1.15.83,2.26,1.73,3.35,2.66,1.26,1.07,2.47,2.19,3.65,3.35-11.12,9.56-22.07,19.61-28.06,25.17,2.13,1.83,4,3.89,5.57,6.15,6.2-5.35,17.36-15.12,28.03-25.16.95,1.18,1.85,2.41,2.73,3.65.85,1.21,1.61,2.4,2.34,3.63.87,1.41,1.68,2.84,2.44,4.31-13.54,5.66-27.04,11.83-34.45,15.27,1.46,2.37,2.6,4.91,3.4,7.58,7.53-3.15,21.16-9,34.42-15.28.54,1.44,1.03,2.89,1.48,4.37.4,1.26.77,2.63,1.14,4.12.38,1.61.72,3.23.98,4.85-14.63,1.2-29.38,2.91-37.49,3.87.65,2.69.96,5.46.9,8.26,8.15-.69,22.92-2.04,37.46-3.9.08,1.54.1,3.08.08,4.63-.01,1.33-.09,2.7-.25,4.28-.12,1.64-.32,3.27-.57,4.91l-.04.02ZM310.15,133.19c.01.29,0,.57-.02.85-.01.29-.03.57-.06.85-.64,5.58-5.94,9.47-11.56,8.88l-9.32-1.47c-1.67-.44-3.39-.87-5.11-1.29.32-1.96.55-3.95.71-5.92.17-1.72.25-3.28.26-4.77.04-1.87,0-3.74-.11-5.6,2.74-.38,5.44-.79,8.05-1.21l6.58-.35c5.64,0,10.51,4.4,10.58,10.02h0ZM306.47,101.38c.09.27.16.53.23.82.08.26.15.55.2.82,1.11,5.52-2.73,10.84-8.23,12.02l-9.33,1.49c-1.73.1-3.48.23-5.26.36-.3-1.99-.69-3.97-1.17-5.93-.39-1.65-.82-3.13-1.24-4.5-.54-1.8-1.15-3.57-1.83-5.31,2.5-1.22,4.94-2.44,7.29-3.63l6.17-2.39c5.35-1.75,11.35.92,13.17,6.26h0ZM293.13,72.26c.17.22.34.45.49.7.16.24.31.47.45.72,2.76,4.91.76,11.17-4.12,13.97l-8.42,4.3c-1.61.63-3.24,1.28-4.9,1.95-.9-1.78-1.87-3.53-2.93-5.23-.8-1.33-1.64-2.64-2.58-3.98-1.07-1.54-2.2-3.04-3.38-4.47,2.01-1.92,3.95-3.83,5.81-5.7l5.13-4.16c4.55-3.33,11.09-2.62,14.45,1.89h0ZM271.44,48.69c.23.16.45.32.68.53.22.17.43.35.64.54,4.15,3.81,4.18,10.39.42,14.56l-6.68,6.7c-1.33,1.1-2.69,2.21-4.03,3.37-1.42-1.43-2.89-2.8-4.41-4.1-1.21-1.03-2.46-2.03-3.69-2.94-1.49-1.13-3.03-2.21-4.58-3.22,1.3-2.45,2.57-4.87,3.76-7.24l3.58-5.53c3.29-4.57,9.71-5.92,14.31-2.67h0ZM244.33,33.24c.26.1.53.21.78.31,5.13,2.34,7.18,8.6,4.89,13.73l-4.28,8.43c-.93,1.45-1.86,2.95-2.81,4.45-1.76-.9-3.57-1.73-5.4-2.48-.72-.33-1.42-.61-2.09-.85h-.01c-.78-.3-1.61-.59-2.42-.84-1.75-.62-3.52-1.16-5.3-1.64.49-2.73.93-5.43,1.34-8.05l1.71-6.38c1.72-5.36,7.42-8.64,12.81-6.97.26.1.52.18.79.29h-.01ZM238.58,40.8c-.55,1.42.17,3.03,1.59,3.58s3.03-.17,3.58-1.59-.17-3.03-1.59-3.58c-1.43-.55-3.04.17-3.58,1.59ZM132.01,178.34c-.84-1.28-2.55-1.64-3.83-.81s-1.64,2.55-.81,3.83,2.55,1.64,3.83.81,1.64-2.55.81-3.83ZM200.33,221.97c-.08,1.53,1.1,2.82,2.63,2.91s2.82-1.1,2.91-2.63c.08-1.53-1.1-2.82-2.63-2.91-1.52-.08-2.82,1.1-2.91,2.63ZM177.13,217.07c.55-1.42-.17-3.03-1.59-3.58s-3.03.17-3.58,1.59.17,3.03,1.59,3.58,3.04-.17,3.58-1.59ZM278.28,185.8c-.96,1.19-.78,2.94.41,3.9,1.19.96,2.94.78,3.9-.41s.78-2.94-.41-3.9c-1.19-.96-2.94-.78-3.9.41ZM151.4,203.26c.96-1.19.78-2.94-.41-3.9-1.19-.96-2.94-.78-3.9.41s-.78,2.94.41,3.9,2.93.76,3.9-.41ZM256.45,208.62c.84,1.28,2.55,1.64,3.83.81s1.64-2.55.81-3.83-2.55-1.64-3.83-.81-1.64,2.55-.81,3.83ZM229.46,219.73c.4,1.48,1.92,2.35,3.39,1.95s2.35-1.92,1.95-3.39-1.92-2.35-3.39-1.95-2.36,1.92-1.95,3.39Z"/>
  </g>
</svg>