<?xml version="1.0" encoding="UTF-8"?>
<svg id="Layer_1" xmlns="http://www.w3.org/2000/svg" version="1.1" viewBox="0 0 427.47 595.28">
  <!-- Generator: Adobe Illustrator 30.1.0, SVG Export Plug-In . SVG Version: 2.1.1 Build 136)  -->
  <defs>
    <style>
      .st0 {
        fill: #fff;
      }
    </style>
  </defs>
  <g id="bg">
    <path class="st0" d="M103.69,219.91c.07-.34.06-.7-.06-1.04-.06-.16-4.72-14.31-.27-24.54,2.14,5.87,8.16,11.31,9.08,12.11.81.71,2.03.63,2.73-.18.23-.26.37-.55.44-.87.15-.67-.07-1.39-.62-1.88-2.68-2.35-9.95-10.02-8.28-14.46h0c.23-.66.11-1.4-.34-1.93-.06-.06-.1-.12-.16-.17h0s-.07-.06-.1-.08c-.07-.06-.13-.11-.19-.16-.07-.04-.13-.06-.21-.09-.04-.02-.08-.05-.13-.06h0c-.07-.04-.16-.05-.24-.07-.04,0-.09-.03-.13-.04-.03,0-.06,0-.08,0-.3-.03-.6,0-.87.11-.09.04-.18.08-.27.12-.06.03-.14.07-.21.11-.03.02-.04.05-.07.06-.07.06-.15.13-.21.19,0,.01-.01,0-.01,0-.33.36-.66.74-.95,1.12-5.98,4.62-12.25,1.25-12.53,1.09-.94-.53-2.11-.19-2.65.73-.53.94-.19,2.12.73,2.65.28.15,5.26,2.9,11.2,1.4-4.19,11.39.43,25.37.67,26.09.34,1.01,1.44,1.56,2.46,1.21.67-.22,1.13-.77,1.28-1.42ZM133.16,135.14c-2.14-5.87-8.16-11.32-9.08-12.12-.81-.71-2.04-.62-2.75.18s-.62,2.03.19,2.74c2.67,2.34,9.93,10.02,8.27,14.47h0c-.24.69-.09,1.47.43,2.02.03.03.05.06.06.07.01,0,0,.01.02.02.05.04.1.08.15.11.05.03.1.08.15.11.07.04.14.08.22.11.04.02.08.04.12.06h.01c.07.03.16.05.24.07.04,0,.09.03.13.03.03,0,.06,0,.09,0,.29.03.59,0,.86-.11.1-.02.17-.06.27-.11.07-.04.14-.07.21-.13.03-.02.04-.05.07-.06.08-.06.15-.12.21-.19t.01,0c.33-.36.64-.73.94-1.11,5.98-4.62,12.26-1.25,12.53-1.1.94.53,2.12.2,2.65-.73.1-.17.17-.35.21-.54.18-.81-.18-1.68-.94-2.11-.28-.15-5.26-2.9-11.22-1.39.42-1.11.75-2.25,1-3.4,2.34-10.59-1.44-22.04-1.67-22.68-.34-1.01-1.44-1.56-2.46-1.22-1.02.35-1.56,1.44-1.22,2.46.06.16,4.72,14.31.28,24.55ZM79.48,161.46c2.34-2.67,10.03-9.94,14.46-8.27h.01c.09.03.16.05.25.07l.13.03s.06,0,.08,0c.3.03.6,0,.87-.11.09-.04.18-.08.27-.11.07-.04.14-.08.21-.13.03-.02.04-.05.07-.06.07-.06.15-.13.21-.19,0,0,0-.01.01,0,0-.01,0-.02.02-.03.09-.11.16-.22.24-.34.02-.05.04-.09.07-.15.02-.04.05-.08.06-.12.03-.09.06-.16.08-.25h0c.05-.22.05-.43.02-.64,0-.06-.02-.11-.03-.17-.02-.15-.07-.3-.14-.44-.02-.05-.04-.1-.06-.14-.1-.17-.21-.33-.37-.47,0-.01-.02-.02-.03-.02,0-.01,0-.01,0-.01-.35-.33-.72-.64-1.09-.93-4.61-5.97-1.24-12.24-1.08-12.53.51-.93.19-2.11-.74-2.64-.94-.53-2.12-.2-2.65.73-.15.28-2.9,5.26-1.4,11.2-11.39-4.19-25.37.43-26.08.66-1.02.35-1.56,1.44-1.22,2.47.35,1.01,1.44,1.56,2.46,1.21.17-.05,14.31-4.71,24.55-.27-5.87,2.14-11.31,8.17-12.11,9.08-.71.81-.63,2.04.17,2.74.81.71,2.04.62,2.75-.18ZM249.91,175.15c.51-2.32.62-4.48.12-6.32-.79-2.88-2.15-4.52-4.06-4.88-1.96-.36-3.69.8-5.04,2.1-1.82,1.75-1.39,4.57-1.68,6.88-.22,1.81-.62,3.58-1.15,5.32-1.08,3.5-2.73,6.8-4.69,9.89-3.42,5.36-7.73,10.14-12.4,14.43-2.13,1.95-4.33,3.88-6.69,5.55-18.49,12.49-34.77,30.12-48.86,47-.5.59-.99,1.19-1.48,1.78,2.19-14.8,6.92-29.37,14.71-45.32.8-1.64,1.67-3.35,2.67-4.95,2.28,4.6,7,7.63,11.65,7.42,2.74-.12,5.49-1.52,7.35-3.74,1.7-2.03,2.45-4.47,2.12-6.87-.38-2.77-2.06-5.09-4.77-6.57-3.38-1.85-7.77-2.01-11.17-.42-1.06.49-2.04,1.09-2.94,1.78.07-1.53.36-3.14.86-4.76,2.14-7.04,7.4-12.88,12.76-18.16.76-.75,1.52-1.5,2.3-2.25,4.89-4.73,9.93-9.63,13.38-15.73,2.86-5.06,4.85-12.09,3.37-18.69,1.5-1.46,2.78-3.18,3.73-5.13.71-1.47,1.26-3.04,1.61-4.65,1.13-5.13.48-10.89-1.95-16.41-2.41-5.49-6.29-10.55-12.6-16.43-5.64-5.26-11.85-9.98-17.86-14.55-6.91-5.25-14.07-10.7-20.26-16.9-6.34-6.35-20.65-23.22-16.79-42.51.21-1.04-.47-2.07-1.52-2.29-1.04-.21-2.09.53-2.29,1.52-4.23,21.12,11.08,39.22,17.86,46.01,6.37,6.39,13.64,11.92,20.66,17.25,5.93,4.51,12.06,9.16,17.56,14.3,5.9,5.5,9.5,10.17,11.69,15.15,2.69,6.13,2.84,12.79.39,17.8-.46.95-1.04,1.85-1.7,2.66-.23-.47-.47-.93-.75-1.38-2.81-4.68-7.59-7.39-12.19-6.89-2.82.3-5.51,2.07-7.06,4.65-1.33,2.24-1.59,4.77-.7,6.97,1.11,2.72,3.85,4.79,7.33,5.54,3.81.82,7.87-.02,11.35-2.07.57,5.02-1.07,10.23-3.27,14.13-3.17,5.62-8.01,10.31-12.69,14.86-.78.74-1.56,1.5-2.32,2.26-5.73,5.63-11.35,11.92-13.75,19.79-1.01,3.32-1.29,6.62-.84,9.61-1.87,2.37-3.36,5.15-4.72,7.92-9.05,18.55-14.08,35.32-15.83,52.7-10.42,13.1-20.05,27.43-29.33,43.72.89-6.56,3.18-16.46,9.03-27.76,2.09-4.05,4.41-8.18,6.64-12.18,6.55-11.68,13.26-23.64,15.94-35.79,1.23-5.59,1.62-11.21.74-16.87-3.16-20.53-11.74-33.26-30.39-44.96.09-.21.06-.12.15-.33,6.24,2.16,15.38,2.02,22.68-.27,7.45-2.33,17.39-11.76,23.4-18.05,2.46-2.58,1.13-6.84-2.37-7.55-8.52-1.72-22.06-3.8-29.51-1.47-7.33,2.29-14.93,7.41-18.81,12.77-1.58-1.32-3.42-2.29-5.41-2.83,2.17-6.25,2.04-15.41-.26-22.74-2.33-7.45-11.77-17.39-18.05-23.4-2.58-2.46-6.84-1.13-7.55,2.37-1.72,8.52-3.8,22.06-1.47,29.51,2.3,7.33,7.41,14.93,12.76,18.81-1.33,1.59-2.28,3.44-2.82,5.42-6.24-2.18-15.41-2.05-22.73.24-7.45,2.33-17.38,11.77-23.4,18.05-2.46,2.58-1.12,6.84,2.37,7.55,8.53,1.73,22.07,3.81,29.51,1.47,7.33-2.29,14.93-7.41,18.82-12.76,1.57,1.32,3.42,2.29,5.41,2.83-2.17,6.24-2.05,15.39.25,22.72,2.33,7.45,11.77,17.38,18.05,23.4,2.58,2.46,6.84,1.12,7.55-2.37,1.72-8.52,3.8-22.06,1.47-29.51-2.29-7.33-7.42-14.91-12.75-18.8.39-.49.75-.99,1.08-1.52,17.27,10.96,25.24,22.87,28.18,41.98,1.3,8.45-.52,16.99-3.83,25.51.17-4.04-.2-8.38-1.67-12.42-.36-1.01-1.48-1.53-2.49-1.17-1.01.36-1.52,1.49-1.16,2.5,3.9,10.76-1.14,24.58-1.66,25.95-.74,1.38-1.49,2.76-2.24,4.14,1.66-7.92,3.02-18.93.55-27.89-.28-1.04-1.34-1.65-2.38-1.36-1.04.29-1.64,1.36-1.35,2.38,1.67,6.13,1.35,13.51.42,20-.38-6.26-1.27-12.71-3.15-17.15-.37-.84-1.22-1.4-2.12-1.26-1.31.23-1.99,1.57-1.5,2.7,1.79,4.14,2.6,10.5,2.93,16.68-1.18-6.66-3.64-13.28-8.39-18.11-.83-.85-2.25-.77-2.97.23-.58.79-.38,1.89.3,2.59,11.76,12.14,7.36,38.28,6.87,40.96-1.41,2.85-2.59,5.61-3.61,8.24-2.68-5.83-9.5-19.9-13.78-21.87-2.71-1.25-3.69-.16-4,1.23-.33,1.49.1,3.06,1.02,4.28,5.33,7.09,8.52,19.65,10.26,29.03.77,4.19,1.15,7.74,1.04,12.02-.03.91-.03,2.32-.03,2.79-.57,1.06-1.44,1.8-3.16,1.86s-3.26-1.8-3.51-2.86c-1.33-5.67-6.19-23.75-15.12-30.23-10.66-7.71-18.98-7.58-19.25-5.89s3.87,3.34,4.38,3.78c4.04,3.32,7.73,5.9,10.76,10.27,2.7,3.92,4.71,8.27,6.5,12.68,3.17,7.83,5.31,16.73,3.45,25.16-2.43,11.01-3.19,21.59-3.41,28.43-2.8,9.82-4.6,20.13-5.72,30.35l-2.98-14.59c-.19-.95-1.02-1.69-1.99-1.65-1.23.05-2.07,1.17-1.83,2.34l2.11,10.32c-5.02-6.82-11.14-11.93-14.51-14.48,1.35-1.06,2.34-2.4,2.99-3.99.22-.56.38-1.12.51-1.69.79-3.6-.2-7.28-.8-8.99.17-.28.33-.56.48-.87.77-1.5,1.34-3.12,1.72-4.85.15-.67.25-1.34.33-2.04,2.15-1.17,6.7-4.32,8.08-10.6.71-3.23.58-7.27-1.14-12.28-.34-1.01-1.45-1.55-2.46-1.2s-1.56,1.44-1.21,2.46c3.29,9.56-.27,14.56-3.08,16.86-.18-4.52-1.32-9.59-3.47-15.2-10.78-28.15-45.75-62.9-47.24-64.36l-3.25-3.21-.06,4.57c-.02,2.08-.43,51.38,11.73,78.96,2.4,5.47,5.11,9.89,8.07,13.26-3.63.3-9.58-.86-13.89-9.83-.47-.96-1.64-1.37-2.6-.91-.96.47-1.37,1.62-.91,2.6,6.64,13.77,17.03,12.46,20.8,11.44,2.1,1.71,4.31,2.96,6.63,3.72.13.04.25.07.38.11.91,1.85,3.35,6.02,7.45,7.77,2.25.96,4.63,1.05,7.08.27,2.26,1.61,9.02,6.74,14.54,13.92-2.47-2.21-5.46-3.96-9.07-4.83-1.03-.25-2.08.39-2.33,1.43v.04c-.25,1.03.41,2.05,1.43,2.3,13.06,3.18,16.83,21.27,17.12,22.88-.17,5.6-.18,11.05-.07,16.23-3.87-11.06-9.52-25.73-13.93-30.62-6.28-6.97-23.12-9.58-26.28-8.44-.95.34-1.53,1.08-1.57,2-.08,1.59,1.48,2.31,2.07,2.58,5.3,2.43,10.5,8.62,10.56,8.69l.2.2c8.79,7.85,11.76,18.39,16.67,35.84.44,1.58.91,3.2,1.39,4.89,5.16,18.14,12.77,25.33,15.08,27.17.04.27.11.55.16.83,0,.26.05.51.15.74.7,3.62,1.49,7.22,2.36,10.81-11.22-13.3-24.13-18.35-30.87-20.18,2.91-4.11,6.37-12.02.02-21.65-9.41-14.26-10.12-41.31-10.12-41.31,0,0-8.32,11.09-9.63,21.48-4.03-7.28-11.89-14.17-12.32-14.55-.9-.77-2.29-.59-2.93.46-.5.82-.27,1.89.45,2.53,2.82,2.46,9.06,8.71,11.87,14.29-15.21-9.77-33.76-16.03-34.88-16.41l-6.25-2.08,2.16,6.22c.4,1.12,6.89,19.58,16.86,34.67-5.66-2.75-12.05-8.99-14.5-11.74-.72-.8-1.95-.87-2.75-.16-.8.72-.86,1.94-.15,2.75.38.42,7.38,8.19,14.7,12.13-10.37,1.44-21.36,9.9-21.36,9.9,0,0,27.05.35,41.44,9.58,10.68,6.84,19.12,1.86,22.75-1.16.94-.57,1.59-1.16,1.98-1.6,6.37,1.51,23.88,7.3,36.27,27.19.74,2.56,1.5,5.1,2.32,7.62-2.59-1.81-6.21-3.86-11.3-5.95-15.45-6.31-29.29,3.52-29.88,3.94l-3.92,2.85,14.01,1.89c21.73,1.92,38.57,18.87,39.75,20.08,3.01,6.9,6.32,13.69,9.96,20.34.08.3.23.59.44.82,2.52,4.58,5.2,9.09,8.02,13.55-9.58-4.03-24.38-7.01-33.38-8.58,5.19-3.56,10.59-10.61-1.25-21.88,0,0-5.13-2.88-9.87-.25.02-7.45-2.87-16.74-3.67-19.16-.34-1.01-1.44-1.57-2.46-1.23s-1.57,1.44-1.23,2.46c1.63,4.92,3.19,11.72,3.43,16.86-5.54-5.9-22.16-20.63-49.89-20.04,5.29,26.91,23.99,38.64,31.57,42.38-5.16.8-12.04.63-16.78.13-1.07-.11-2.04.67-2.14,1.73-.11,1.07.66,2.03,1.73,2.14,2.53.27,12.23,1.12,19.5-.49-1.55,5.19,2.35,9.59,2.35,9.59,19.63,13.26,22.88-6.92,23.18-9.22,7.56,1.19,20.12,3.54,30.05,6.54-13.12-.89-19.21,6.45-19.54,6.87-.54.68-.57,1.63-.07,2.34s1.41,1,2.23.71c16.44-5.79,36.56,5.98,39.01,7.48.7.9,1.4,1.8,2.1,2.69.09.13.18.27.3.37.71.9,1.44,1.81,2.15,2.71-17.5-7.19-29.67-8.95-36.22-5.2-3.71,2.13-4.14,5.23-4.18,5.59-.02.25,0,.48.06.7,0,.04-.03.07-.04.11-.91,4.13,2.15,8.23,6.65,8.27,2.64.02,5.13-1.58,6.19-4.01,1.44-3.31.12-6.81-2.61-8.52,5.52-.67,16,.74,35.7,9.7.84.98,1.71,1.94,2.56,2.89.04.06.09.11.14.16.42.47.83.95,1.27,1.43l2.88-2.61c-.31-.34-.61-.68-.92-1.03,0-.05,0-.09-.01-.14-.04-1.57-.1-20.53,23.74-28.06.98,1.08,2.44,1.99,4.67,2.06,3.4.11,6.77-.48,8.88-.95.48-.1.45-.79-.04-.88-1.72-.29-4.11-.76-5.79-1.38,5.1-1.74,7.98-5.24,9.24-7.17.48-.72.18-1.7-.62-2.03-2.13-.88-6.5-2.16-11.69-.72,1.05-1.47,2.75-3.2,4.02-4.41.35-.34-.01-.92-.48-.74-2,.79-5.11,2.2-7.88,4.21-4.52,3.29-2.11,8.35-2.11,8.35,0,0,0,.06.03.14-12.01,3.94-18.46,10.74-21.9,17.05,1.44-15.83,8.04-40,33.45-52.56.37-.18.64-.48.83-.81,1.13.37,1.89.53,1.89.53,0,0,5.05,23.05,24.11,6.74,0,0,3.38-4.8,1.26-9.79,7.42.78,16.95-1.15,19.43-1.71.76-.17,1.32-.76,1.47-1.48.06-.27.07-.56,0-.84-.23-1.05-1.27-1.71-2.31-1.48-4.8,1.06-11.89,2.03-17.17,1.73,6.42-4.88,22.82-19.92,25.06-47.61-27.31,2.51-40.89,19.92-45.37,27.08-.27-5.21.6-12.03,1.57-16.69.22-1.05-.45-2.08-1.5-2.3-1.04-.22-2.07.44-2.3,1.5-.52,2.49-2.36,12.05-1.5,19.45-5-2.07-9.77,1.36-9.77,1.36-10.28,12.28-4.57,18.68.9,21.7-31.95,16.91-34.58,51.32-34.27,65.08-2.16-2.52-4.26-5.08-6.31-7.68-.72-4.02-5.33-32.65,7.8-40.84.86-.53,1.17-1.65.71-2.54-.47-.91-1.55-1.29-2.48-.9-.2.09-19.14,8.22-18.58,26.89-3.75-5.68-7.26-11.49-10.51-17.41-.68-5.71-.96-19.46,4.9-23.02.89,2.18,3.02,5.44,7.89,5.58,4.49.13,8.91-.64,11.67-1.25.64-.15.61-1.06-.03-1.15-2.28-.38-5.41-1-7.62-1.82,6.7-2.28,10.5-6.89,12.16-9.42.62-.95.23-2.23-.82-2.67-2.81-1.16-8.54-2.82-15.35-.94,1.36-1.94,3.6-4.2,5.27-5.8.48-.45,0-1.22-.62-.99-2.63,1.05-6.72,2.9-10.35,5.54-3.99,2.91-3.88,6.86-3.37,9.14-.1.04-.21.07-.3.13-6,3.12-7.49,11.76-7.66,18.6-2.88-5.71-5.53-11.53-7.94-17.42-.41-3.18-2.07-20.27,8.51-27.51.96,2.64,3.53,7.12,9.87,7.32,5.51.16,10.95-.78,14.35-1.54.77-.17.73-1.29-.05-1.42-2.8-.46-6.65-1.21-9.37-2.23,8.22-2.81,12.88-8.45,14.94-11.56.76-1.17.28-2.77-1.03-3.3-3.45-1.43-10.47-3.46-18.85-1.16,1.68-2.37,4.44-5.17,6.49-7.12.58-.55-.03-1.5-.77-1.2-3.23,1.28-8.26,3.55-12.72,6.8-5.11,3.71-4.75,8.81-4.06,11.56-8.03,4.79-10.67,13.59-11.36,20.84-2.09-5.82-3.96-11.71-5.58-17.66-.19-3.72-.48-28.57,22.74-41.19,1.02,2.94,3.87,8.24,11.2,8.46,6.21.19,12.31-.87,16.14-1.74.88-.2.84-1.45-.05-1.59-3.14-.52-7.48-1.38-10.54-2.51,9.25-3.16,14.51-9.51,16.81-13.02.87-1.32.32-3.11-1.14-3.71-3.89-1.6-11.8-3.89-21.23-1.29,1.9-2.67,5-5.81,7.31-8.02.65-.61-.02-1.68-.86-1.35-3.64,1.44-9.3,4-14.31,7.65-5.98,4.34-5.31,10.38-4.49,13.37-.1.02-.19.06-.28.11-16.29,8.66-22.09,23.1-24.13,33.42-.5-2.22-.96-4.43-1.39-6.66.18-4.89,3.06-57.97,37.95-86.56l26.05,4.58c1.38,6.44,3.97,12.65,7.55,17.97,8.83,13.13,23.87,21.18,38.83,25.27,15.53,4.23,32.24,4.27,43.47-9.15,2.77-3.32-.15-8.28-4.4-7.48-6.35,1.18-15.45,1.84-26.16-.34-21.03-4.3-43.3-12.18-48.91-20.7-.38-.57-.76-1.14-1.12-1.72,2.64,2.39,5.76,4.69,9.53,6.66,1.67.87,3.41,1.64,5.19,2.31.79.87,1.96,1.39,3.23,1.26.12,0,.22-.03.34-.04,14.01,4.19,31.15,2.87,51.09-3.98,64.45-22.14,124.56-90.08,127.07-92.96l4.49-5.11-6.67-1.27c-3.77-.73-92.94-17.37-157.38,4.78-20.89,7.18-35.6,17.24-43.91,29.98-.04.05-.08.11-.12.16-1.31,2.04-2.48,4.13-3.47,6.3-1.76,3.85-2.81,7.6-3.43,11.11-.05-.69-.11-1.37-.17-2.05-.81-10.16,11.9-30.07,25.86-46.38,7.1-8.31,14.7-13.38,20.43-16.36,3.83-1.99,3.1-7.7-1.13-8.61-17.12-3.69-30.26,6.62-39.92,19.51-9.28,12.4-16.2,28.01-15.09,43.81.44,6.37,2.23,12.87,5.09,18.79l-18.24,20.19c-26.39,21.23-35.38,55.71-38.41,75.37-.78-6.06-1.35-12.13-1.65-18.24-1.35-26.83-.13-64.78,13.35-93.14,11.17-23.53,22.44-43.27,34.68-60.71,2.47-1.79,23.63-16.96,40.45-26.26,12.34-6.82,33.18-8.35,44.5-8.66,2.65-.07,4.98,1.75,5.8,4.55.97,3.29,3.65,5.99,7.57,7.59,2.35.97,4.79,1.07,6.81.3,1.54-.59,2.93-1.69,4.13-3.27,1.34-1.77,2.22-3.6,2.63-5.48.33-1.49.36-2.99.11-4.53-.75-4.49-4.09-8.93-9.42-12.49-8.99-6.01-19.59-8.1-30.64-6.03-10.49,1.96-20.01,6.77-29.66,11.97-5.45,2.94-10.73,6.02-15.82,9.25,15.4-17.35,33.1-34.12,53-43.65,47.9-22.94,68.29-4.52,78.09,4.33.56.51,1.09.99,1.58,1.42,5.28,4.64,11.63,18.07,9.14,27.74-1.3,5.07-4.92,8.32-10.74,9.63-.91.03-6.6.04-10.47-3.64-.56-.54-1.06-1.14-1.5-1.8,2.55,1.06,5.59,1.33,9.9-1.63,1.96-1.34,3.42-3.36,3.9-5.69,1.21-5.95-3.04-11.77-9.37-12.16-3.88-.25-7.65,1.87-9.48,5.3-1.04,1.95-1.36,3.97-1.16,5.87.13,5.51,1.81,9.87,5.04,12.95,5.45,5.17,13.19,4.69,13.52,4.67l.27-.04c9.3-2.04,12.65-7.92,13.83-12.49.05-.22.11-.43.16-.65,2.46-11.15-4.47-25.68-10.5-30.97-.48-.42-.99-.87-1.54-1.37-8.87-8.02-28.76-25.94-71.31-9.71,3.55-5.21,8.28-13.07,9.73-19.65ZM396.73,34.91l-1.34-7.59-17.71,4.5-2.4-9.45-22.17,10.94-3.71-12.01-20.26,15.39-4.71-12.44-27.09,19.92-3.37-9.87c-17.49,8.78-34.15,40.84-36.86,65.02-.33,2.95-.02,6.02.78,9.1-1.03-2.51-14.61-37.26,6.73-63.21,1.3-1.59,2.18-3.52,2.43-5.57.45-3.6-.89-7.87-11.21-4.95-16.5,4.67-21.92,34.36-18.58,48.3,3.34,13.95,17.98,43.09,30.2,52.76,0,0,4.36,5.76,2.23,15.66-2.12,9.92-1.61,19.94,4.88,25.35,6.03,5.91,16.06,5.39,25.71,2.27,9.64-3.12,15.81.63,15.81.63,10.86,11.16,41.34,22.76,55.55,24.67s43.2-6.51,46.17-23.4c1.85-10.55-2.53-11.45-6.08-10.64-2.02.46-3.85,1.52-5.29,2.99-23.65,23.86-59.6,13.88-62.2,13.11,3.16.48,6.23.48,9.14-.15,23.77-5.15,53.97-25,60.93-43.28l-10.17-2.36,17.06-28.97-12.85-3.41,13.24-21.72-12.33-2.49,8.62-23.16-9.64-1.42,2.67-18.08-7.68-.56,4.21-11.21-10.73,5.33Z"/>
  </g>
  <g id="b_x5F_1">
    <path d="M133.16,135.14c-2.14-5.87-8.17-11.31-9.08-12.12-.81-.71-2.03-.62-2.75.18-.71.81-.62,2.03.18,2.75,2.67,2.34,9.93,10.01,8.28,14.46h0c-.25.69-.09,1.47.43,2.02.03.03.05.06.06.07.01,0,0,.01,0,.01.05.04.1.08.15.11.05.03.1.08.15.11.07.04.14.08.22.11.04.02.07.04.11.06h.01c.07.03.16.05.24.07.04,0,.09.03.13.03.02,0,.06,0,.08,0,.3.03.6,0,.87-.11.09-.04.18-.08.27-.11.08-.04.14-.07.21-.13.03-.02.04-.05.07-.06.07-.06.15-.12.21-.19h.01c.33-.37.65-.75.95-1.13,5.98-4.62,12.25-1.25,12.53-1.1.93.53,2.11.2,2.64-.74.1-.17.17-.35.21-.54.18-.81-.18-1.68-.93-2.11-.28-.15-5.26-2.9-11.22-1.39.41-1.11.75-2.25,1-3.4,2.34-10.59-1.44-22.04-1.67-22.68-.35-1.02-1.44-1.56-2.46-1.22s-1.56,1.44-1.22,2.46c.06.17,4.73,14.32.29,24.57ZM79.48,161.46c2.34-2.67,10.03-9.94,14.48-8.28h.01c.07.03.16.05.24.07.04,0,.09.03.13.03.02,0,.06,0,.08,0,.3.03.6,0,.87-.11.09-.04.18-.08.27-.11.08-.04.14-.07.21-.13.03-.02.04-.05.07-.06.07-.06.15-.12.21-.19h.01s.02-.03.02-.04c.09-.11.17-.21.24-.34.02-.04.04-.09.06-.13s.04-.08.06-.12c.03-.09.06-.16.08-.25h0c.05-.22.05-.43.02-.64,0-.06-.02-.12-.03-.17-.03-.16-.08-.3-.14-.44-.02-.05-.04-.1-.06-.14-.1-.17-.21-.33-.37-.47-.01,0,0-.01-.02-.02s0-.01-.02-.02c-.35-.32-.71-.63-1.08-.93-4.61-5.98-1.24-12.24-1.09-12.53.53-.94.2-2.11-.74-2.64s-2.12-.2-2.65.73c-.15.28-2.9,5.26-1.4,11.2-11.39-4.19-25.38.43-26.08.66-1.01.34-1.56,1.44-1.22,2.46.35,1.02,1.44,1.56,2.46,1.22.16-.06,14.31-4.71,24.54-.27-5.87,2.14-11.31,8.17-12.11,9.08-.71.81-.62,2.03.18,2.75.81.71,2.04.62,2.75-.18ZM103.69,219.91c.07-.33.06-.69-.06-1.03-.06-.16-4.71-14.31-.27-24.55,2.14,5.87,8.17,11.31,9.08,12.12.81.71,2.03.62,2.75-.18.23-.26.36-.55.43-.86.15-.67-.07-1.4-.62-1.88-2.67-2.34-9.94-10.01-8.28-14.46h0c.23-.66.11-1.39-.34-1.93-.05-.06-.1-.11-.16-.17,0,0-.01,0,0-.01-.03-.03-.07-.05-.1-.08-.07-.05-.13-.11-.2-.15-.07-.04-.13-.06-.21-.1-.04-.02-.08-.04-.13-.06h-.01c-.07-.03-.16-.05-.24-.07-.04,0-.09-.03-.13-.03-.02,0-.06,0-.08,0-.3-.03-.6,0-.87.11-.09.04-.18.08-.27.11-.08.04-.14.07-.21.13-.03.02-.04.05-.07.06-.07.06-.15.13-.21.19h-.01c-.33.37-.66.75-.96,1.13-5.98,4.62-12.24,1.24-12.53,1.09-.93-.53-2.11-.2-2.64.74-.53.93-.2,2.12.73,2.65.28.15,5.26,2.9,11.2,1.4-4.19,11.39.43,25.38.66,26.08.35,1.02,1.44,1.56,2.46,1.22.68-.24,1.15-.79,1.29-1.43ZM364.85,80.54c2.31-2.56,2.3-6.34,2.3-6.34,0,0-3.75.38-6.07,2.94-2.31,2.56-3.35,5.4-2.3,6.34,1.05.94,3.76-.37,6.07-2.94ZM249.91,175.15c.51-2.32.61-4.49.12-6.32-.78-2.89-2.15-4.53-4.06-4.89-1.96-.36-3.69.8-5.04,2.1-1.83,1.76-1.39,4.57-1.68,6.88-.23,1.81-.62,3.58-1.15,5.32-1.08,3.5-2.73,6.8-4.69,9.89-3.42,5.36-7.73,10.14-12.4,14.43-2.13,1.95-4.33,3.88-6.68,5.55-18.49,12.48-34.77,30.12-48.85,46.99-.5.6-.99,1.19-1.49,1.79,2.18-14.8,6.92-29.37,14.71-45.32.8-1.64,1.67-3.34,2.67-4.95,2.28,4.6,7,7.63,11.65,7.42,2.74-.12,5.49-1.52,7.35-3.74,1.7-2.03,2.46-4.48,2.13-6.88-.38-2.76-2.06-5.09-4.77-6.57-3.38-1.85-7.77-2.01-11.18-.43-1.06.49-2.03,1.09-2.94,1.78.07-1.53.36-3.13.86-4.76,2.14-7.04,7.4-12.88,12.75-18.16.76-.75,1.53-1.5,2.31-2.24,4.89-4.73,9.92-9.63,13.38-15.73,2.86-5.06,4.85-12.09,3.37-18.69,1.5-1.46,2.79-3.18,3.73-5.13.71-1.47,1.26-3.04,1.61-4.65,1.13-5.13.48-10.88-1.95-16.41-2.41-5.49-6.29-10.55-12.6-16.43-5.64-5.26-11.85-9.98-17.86-14.55-6.92-5.27-14.07-10.7-20.26-16.9-6.34-6.35-20.65-23.22-16.79-42.51.21-1.05-.47-2.08-1.52-2.29-1.05-.21-2.09.51-2.29,1.52-4.23,21.12,11.08,39.21,17.86,46.01,6.37,6.39,13.63,11.92,20.66,17.25,5.93,4.51,12.07,9.17,17.56,14.3,5.9,5.5,9.51,10.17,11.69,15.15,2.69,6.13,2.84,12.79.39,17.8-.46.95-1.04,1.85-1.7,2.66-.23-.46-.48-.93-.75-1.38-2.81-4.68-7.6-7.38-12.2-6.89-2.81.3-5.51,2.07-7.05,4.65-1.34,2.24-1.6,4.78-.7,6.98,1.11,2.72,3.85,4.78,7.33,5.54,3.8.82,7.86-.02,11.34-2.07.57,5.01-1.06,10.24-3.26,14.13-3.18,5.61-8.02,10.3-12.7,14.84-.77.76-1.55,1.5-2.32,2.26-5.73,5.63-11.35,11.93-13.74,19.8-1.01,3.33-1.29,6.62-.84,9.61-1.87,2.39-3.36,5.15-4.72,7.94-9.05,18.54-14.08,35.3-15.83,52.69-10.44,13.11-20.06,27.44-29.34,43.72.88-6.55,3.17-16.45,9.03-27.76,2.1-4.04,4.41-8.18,6.65-12.18,6.55-11.68,13.25-23.64,15.93-35.79,1.23-5.59,1.62-11.21.74-16.87-3.15-20.53-11.74-33.26-30.39-44.96.09-.2.06-.12.15-.32,6.24,2.16,15.38,2.02,22.68-.27,7.45-2.33,17.39-11.76,23.4-18.05,2.46-2.58,1.13-6.84-2.37-7.55-8.52-1.73-22.07-3.81-29.51-1.47-7.33,2.29-14.93,7.41-18.81,12.77-1.58-1.32-3.42-2.29-5.41-2.83,2.17-6.24,2.04-15.41-.26-22.74-2.33-7.45-11.77-17.39-18.05-23.4-2.58-2.46-6.84-1.13-7.55,2.37-1.73,8.52-3.81,22.07-1.47,29.51,2.29,7.33,7.41,14.93,12.76,18.81-1.32,1.58-2.29,3.43-2.82,5.42-6.25-2.18-15.41-2.05-22.73.24-7.45,2.33-17.39,11.77-23.4,18.05-2.46,2.58-1.13,6.84,2.37,7.55,8.52,1.74,22.07,3.81,29.51,1.47,7.33-2.29,14.93-7.41,18.81-12.76,1.56,1.33,3.42,2.29,5.41,2.83-2.17,6.24-2.05,15.39.25,22.72,2.33,7.45,11.77,17.39,18.05,23.4,2.58,2.46,6.84,1.13,7.55-2.37,1.73-8.52,3.81-22.07,1.47-29.51-2.29-7.33-7.42-14.91-12.76-18.8.4-.47.76-.99,1.09-1.51,17.27,10.96,25.24,22.87,28.18,41.99,1.3,8.45-.53,16.99-3.83,25.51.17-4.04-.2-8.38-1.67-12.43-.36-1.01-1.48-1.53-2.48-1.17-1.01.36-1.53,1.48-1.17,2.48,3.91,10.76-1.14,24.6-1.66,25.95-.74,1.38-1.48,2.76-2.24,4.14,1.66-7.92,3.02-18.93.56-27.89-.29-1.04-1.36-1.64-2.38-1.36-1.04.29-1.64,1.36-1.36,2.38,1.69,6.13,1.36,13.51.44,19.99-.38-6.26-1.28-12.71-3.16-17.14-.35-.84-1.22-1.4-2.11-1.26-1.31.22-1.99,1.57-1.5,2.7,1.79,4.14,2.6,10.5,2.93,16.68-1.18-6.67-3.64-13.28-8.39-18.11-.83-.85-2.24-.77-2.96.23-.58.79-.38,1.89.3,2.59,11.76,12.14,7.36,38.27,6.87,40.96-1.41,2.85-2.59,5.61-3.6,8.23-2.68-5.83-9.5-19.9-13.78-21.87-2.71-1.25-3.69-.16-4,1.23-.33,1.49.1,3.06,1.03,4.29,5.32,7.1,8.52,19.65,10.26,29.03.78,4.2,1.16,7.74,1.04,12.01-.02.91-.03,2.33-.02,2.8-.58,1.05-1.44,1.8-3.16,1.86-1.72.06-3.26-1.81-3.51-2.86-1.34-5.67-6.19-23.75-15.12-30.23-10.66-7.72-18.98-7.58-19.25-5.89s3.87,3.34,4.39,3.78c4.03,3.32,7.73,5.9,10.74,10.28,2.71,3.92,4.72,8.28,6.5,12.67,3.18,7.83,5.31,16.74,3.45,25.16-2.43,11.01-3.18,21.59-3.4,28.43-2.8,9.82-4.62,20.14-5.72,30.35l-2.98-14.59c-.19-.95-1.02-1.69-1.99-1.65-1.23.05-2.07,1.17-1.83,2.34l2.11,10.33c-5.02-6.82-11.14-11.94-14.51-14.48,1.35-1.06,2.34-2.4,2.98-4,.23-.56.4-1.12.52-1.69.79-3.6-.2-7.28-.8-8.99.17-.28.32-.57.48-.87.77-1.5,1.34-3.12,1.73-4.86.14-.66.25-1.34.35-2.03,2.14-1.17,6.7-4.32,8.08-10.6.71-3.23.58-7.27-1.14-12.28-.35-1.02-1.46-1.56-2.46-1.21-1.02.35-1.56,1.46-1.21,2.46,3.28,9.55-.27,14.56-3.08,16.86-.18-4.52-1.33-9.6-3.48-15.2-10.78-28.15-45.75-62.9-47.23-64.36l-3.26-3.22-.05,4.58c-.02,2.08-.44,51.37,11.73,78.96,2.41,5.47,5.11,9.9,8.07,13.26-3.64.3-9.58-.86-13.9-9.83-.46-.96-1.62-1.37-2.6-.91-.96.46-1.37,1.62-.91,2.6,6.64,13.78,17.03,12.46,20.8,11.44,2.1,1.71,4.31,2.96,6.63,3.72.13.04.26.07.39.11.91,1.85,3.35,6.02,7.45,7.77,2.25.96,4.63,1.05,7.08.27,2.26,1.62,9.01,6.75,14.54,13.92-2.47-2.2-5.46-3.96-9.07-4.83-1.03-.25-2.08.39-2.33,1.43v.04c-.25,1.04.4,2.05,1.43,2.3,13.06,3.18,16.82,21.27,17.12,22.88-.18,5.6-.19,11.06-.09,16.23-3.85-11.06-9.52-25.73-13.93-30.62-6.28-6.96-23.12-9.58-26.28-8.44-.95.34-1.52,1.09-1.56,1.99-.07,1.6,1.48,2.31,2.07,2.58,5.3,2.44,10.5,8.64,10.56,8.69l.2.2c8.79,7.85,11.76,18.39,16.67,35.84.44,1.58.91,3.22,1.38,4.9,5.16,18.13,12.77,25.33,15.07,27.15.05.28.11.55.16.83,0,.26.05.51.15.74.7,3.62,1.49,7.22,2.36,10.81-11.22-13.29-24.12-18.35-30.87-20.18,2.91-4.11,6.38-12.01.02-21.64-9.4-14.28-10.12-41.32-10.12-41.32,0,0-8.32,11.09-9.63,21.49-4.03-7.29-11.89-14.18-12.32-14.55-.89-.78-2.29-.59-2.93.46-.5.82-.27,1.89.45,2.52,2.82,2.46,9.06,8.72,11.87,14.29-15.21-9.77-33.76-16.03-34.89-16.41l-6.25-2.08,2.16,6.22c.4,1.12,6.89,19.58,16.86,34.68-5.65-2.75-12.05-9-14.5-11.74-.72-.8-1.94-.86-2.74-.16-.8.72-.88,1.94-.16,2.74.39.43,7.37,8.2,14.72,12.13-10.39,1.45-21.37,9.9-21.37,9.9,0,0,27.06.37,41.44,9.58,10.69,6.84,19.11,1.87,22.75-1.16.94-.56,1.59-1.16,1.99-1.6,6.36,1.51,23.87,7.3,36.27,27.2.73,2.55,1.5,5.09,2.32,7.62-2.59-1.82-6.21-3.86-11.3-5.95-15.45-6.32-29.29,3.52-29.87,3.94l-3.93,2.85,14.01,1.89c21.73,1.92,38.57,18.87,39.75,20.08,3.01,6.9,6.32,13.7,9.96,20.34.08.3.23.59.44.82,2.53,4.58,5.2,9.11,8.02,13.55-9.58-4.03-24.38-7.01-33.38-8.58,5.2-3.55,10.59-10.61-1.25-21.89,0,0-5.14-2.86-9.88-.24.02-7.46-2.87-16.74-3.67-19.16-.34-1.01-1.44-1.57-2.46-1.23s-1.57,1.44-1.23,2.46c1.63,4.92,3.2,11.73,3.43,16.86-5.54-5.9-22.17-20.64-49.89-20.05,5.29,26.91,23.99,38.65,31.56,42.37-5.15.8-12.04.63-16.77.14-1.07-.11-2.04.66-2.14,1.73-.11,1.07.66,2.03,1.73,2.14,2.53.27,12.22,1.11,19.5-.49-1.55,5.19,2.35,9.59,2.35,9.59,19.63,13.26,22.88-6.91,23.18-9.21,7.56,1.19,20.12,3.54,30.07,6.53-13.13-.89-19.21,6.45-19.55,6.86-.54.67-.57,1.63-.07,2.34s1.41,1,2.23.71c16.45-5.78,36.57,5.97,39.01,7.48.69.91,1.4,1.8,2.1,2.7.09.13.17.26.28.37.72.9,1.44,1.81,2.16,2.71-17.5-7.19-29.67-8.94-36.22-5.2-3.73,2.14-4.15,5.24-4.18,5.59-.02.25,0,.48.06.71,0,.03-.03.07-.04.11-.91,4.13,2.15,8.23,6.65,8.27,2.64.02,5.13-1.58,6.18-4.01,1.44-3.31.12-6.81-2.6-8.52,5.52-.67,16,.74,35.7,9.7.84.98,1.71,1.94,2.56,2.89.04.06.09.11.14.16.42.47.83.95,1.27,1.43l5.07.02c-.3-.34-2.79-3.31-3.09-3.65,0-.05-.01-.09-.01-.14-.04-1.57-.1-20.53,23.74-28.06.97,1.07,2.44,1.99,4.66,2.06,3.42.1,6.78-.48,8.88-.95.48-.11.46-.8-.02-.88-1.72-.29-4.12-.76-5.81-1.38,5.1-1.74,7.99-5.24,9.25-7.18.47-.72.17-1.69-.62-2.03-2.13-.88-6.5-2.16-11.69-.72,1.04-1.47,2.75-3.2,4.02-4.41.36-.34-.01-.92-.48-.75-2.01.79-5.12,2.21-7.88,4.21-4.52,3.29-2.12,8.36-2.12,8.36,0,0,0,.06.03.14-12.02,3.95-18.46,10.75-21.9,17.05,1.44-15.83,8.04-40.01,33.45-52.57.37-.18.64-.48.83-.8,1.13.37,1.89.53,1.89.53,0,0,5.05,23.05,24.11,6.74,0,0,3.38-4.8,1.26-9.79,7.41.78,16.95-1.15,19.43-1.71.76-.17,1.32-.76,1.47-1.48.06-.26.06-.55,0-.84-.23-1.05-1.27-1.71-2.31-1.47-4.8,1.06-11.89,2.02-17.16,1.73,6.42-4.88,22.81-19.93,25.06-47.61-27.31,2.51-40.89,19.92-45.37,27.08-.27-5.21.59-12.03,1.58-16.7.22-1.05-.46-2.08-1.5-2.3s-2.07.44-2.3,1.5c-.53,2.49-2.36,12.05-1.5,19.45-5-2.07-9.77,1.36-9.77,1.36-10.28,12.29-4.57,18.68.9,21.7-31.95,16.91-34.58,51.32-34.27,65.08-2.16-2.53-4.26-5.08-6.31-7.68-.72-4.02-5.34-32.65,7.8-40.84.85-.53,1.16-1.64.7-2.54-.47-.91-1.54-1.29-2.47-.9-.21.09-19.15,8.22-18.59,26.89-3.75-5.68-7.25-11.47-10.5-17.4-.68-5.71-.96-19.48,4.9-23.02.88,2.18,3.02,5.43,7.89,5.58,4.49.14,8.91-.64,11.67-1.25.64-.15.6-1.05-.04-1.16-2.28-.38-5.41-.99-7.62-1.82,6.7-2.28,10.5-6.89,12.16-9.42.62-.95.23-2.23-.82-2.66-2.81-1.16-8.54-2.82-15.35-.95,1.36-1.92,3.61-4.2,5.28-5.79.47-.45-.02-1.22-.62-.97-2.64,1.05-6.73,2.89-10.35,5.54-4,2.9-3.87,6.85-3.37,9.14-.1.04-.21.07-.31.13-6,3.12-7.49,11.76-7.66,18.6-2.88-5.71-5.52-11.53-7.94-17.42-.41-3.18-2.07-20.27,8.51-27.51.96,2.64,3.53,7.12,9.89,7.31,5.51.17,10.95-.77,14.34-1.54.78-.17.74-1.29-.05-1.42-2.8-.46-6.65-1.21-9.37-2.23,8.22-2.81,12.88-8.44,14.94-11.56.76-1.17.28-2.76-1.02-3.3-3.45-1.43-10.48-3.46-18.85-1.16,1.68-2.37,4.43-5.17,6.49-7.12.58-.55-.01-1.49-.77-1.2-3.24,1.28-8.26,3.55-12.72,6.8-5.11,3.71-4.74,8.8-4.06,11.56-8.03,4.79-10.66,13.59-11.36,20.84-2.08-5.83-3.95-11.71-5.58-17.66-.19-3.72-.47-28.57,22.74-41.19,1.02,2.94,3.87,8.24,11.2,8.46,6.21.19,12.32-.87,16.15-1.73.88-.2.84-1.45-.06-1.61-3.14-.52-7.48-1.38-10.54-2.51,9.25-3.15,14.5-9.5,16.81-13.02.87-1.32.31-3.11-1.14-3.71-3.88-1.6-11.8-3.9-21.21-1.3,1.88-2.67,4.99-5.81,7.29-8.01.65-.62-.02-1.69-.86-1.36-3.64,1.44-9.3,4-14.31,7.65-5.97,4.35-5.31,10.38-4.49,13.37-.09.04-.19.06-.28.11-16.29,8.66-22.1,23.1-24.13,33.42-.5-2.21-.95-4.43-1.39-6.66.18-4.89,3.06-57.98,37.95-86.56l26.05,4.59c1.38,6.43,3.97,12.65,7.54,17.96,8.83,13.14,23.88,21.2,38.83,25.27,15.53,4.23,32.24,4.27,43.47-9.15,2.77-3.32-.15-8.28-4.4-7.48-6.36,1.18-15.46,1.85-26.17-.34-21.03-4.29-43.3-12.18-48.91-20.7-.38-.58-.76-1.14-1.12-1.72,2.64,2.39,5.78,4.69,9.53,6.66,1.68.87,3.41,1.64,5.19,2.31.79.87,1.96,1.39,3.23,1.26.12,0,.22-.03.34-.04,14.03,4.2,31.15,2.87,51.09-3.97,64.45-22.14,124.55-90.09,127.08-92.97l4.47-5.1-6.67-1.28c-3.76-.72-92.94-17.36-157.38,4.78-20.88,7.18-35.6,17.25-43.91,29.98-.03.05-.07.11-.12.17-1.31,2.04-2.48,4.13-3.46,6.29-1.76,3.85-2.81,7.6-3.43,11.11-.05-.69-.11-1.37-.17-2.05-.82-10.17,11.9-30.07,25.86-46.38,7.1-8.31,14.69-13.37,20.43-16.35,3.85-1.99,3.1-7.7-1.13-8.61-17.11-3.68-30.26,6.62-39.92,19.5-9.29,12.41-16.2,28.01-15.1,43.8.45,6.38,2.23,12.87,5.09,18.79l-18.23,20.19c-26.4,21.23-35.38,55.72-38.42,75.37-.78-6.06-1.35-12.13-1.65-18.24-1.35-26.83-.13-64.78,13.35-93.14,11.17-23.53,22.44-43.27,34.68-60.71,2.47-1.78,23.63-16.96,40.44-26.25,12.34-6.82,33.18-8.35,44.5-8.66,2.65-.07,4.98,1.75,5.8,4.55.96,3.3,3.64,5.99,7.57,7.59,2.37.97,4.79,1.07,6.81.3,1.54-.59,2.93-1.68,4.13-3.26,1.34-1.77,2.22-3.6,2.63-5.48.33-1.49.36-2.99.11-4.53-.75-4.5-4.11-8.93-9.42-12.49-8.98-6.01-19.57-8.09-30.64-6.03-10.49,1.96-20.02,6.78-29.66,11.97-5.45,2.94-10.73,6.02-15.82,9.25,15.4-17.34,33.09-34.12,52.99-43.65,47.9-22.94,68.29-4.52,78.09,4.34.56.51,1.09.99,1.58,1.42,5.28,4.63,11.63,18.06,9.14,27.72-1.3,5.08-4.92,8.32-10.74,9.63-.91.03-6.61.06-10.47-3.63-.57-.54-1.05-1.15-1.5-1.8,2.55,1.06,5.59,1.33,9.9-1.63,1.96-1.34,3.43-3.37,3.9-5.7,1.22-5.93-3.03-11.76-9.37-12.16-3.88-.24-7.64,1.88-9.47,5.3-1.05,1.95-1.36,3.97-1.16,5.88.13,5.51,1.81,9.87,5.04,12.95,5.45,5.17,13.18,4.69,13.51,4.66l.27-.04c9.29-2.04,12.65-7.92,13.82-12.5.06-.22.11-.43.16-.65,2.46-11.15-4.47-25.68-10.5-30.96-.48-.42-.99-.88-1.54-1.38-8.87-8.02-28.76-25.94-71.31-9.71,3.59-5.19,8.33-13.05,9.77-19.63ZM202.24,139.57c-1.72-.37-3.82-1.4-4.56-3.21-.3-.73-.29-1.44-.15-2.05s.38-1.11.58-1.45c.91-1.52,2.52-2.61,4.12-2.78,3.53-.38,6.79,2.26,8.47,5.02.43.71.78,1.45,1.08,2.19-2.87,2.04-6.36,2.96-9.54,2.29ZM184.69,204.6c-.23-.51-.43-1.06-.59-1.61,1.18-1.25,2.53-2.3,4.07-3.02,2.29-1.07,5.37-.94,7.67.32,1.13.62,2.52,1.75,2.78,3.67.18,1.3-.27,2.68-1.26,3.86-1.17,1.39-2.87,2.28-4.53,2.35-3.24.14-6.59-2.14-8.14-5.57ZM120.23,170.48c-3.2,1-6.6-.78-7.61-3.98-1.01-3.22.77-6.62,3.98-7.62,3.22-1.01,6.62.77,7.63,3.99,1,3.2-.78,6.6-4,7.61ZM79.65,328.74c2.52,6.56,3.57,12.25,3.18,17.01-.01.1-.02.2-.02.3-.22,2.34-.8,4.44-1.72,6.3-2.16,4.32-5.64,6.09-7.07,6.66l.79-40.56c1.9,3.49,3.56,6.95,4.84,10.29ZM55.14,304.63l2.59,2.51-.09,3.85-2.54-2.51.05-3.85ZM51.25,304.68l-2.54-2.52.02-3.76,2.57,2.49-.04,3.79ZM63.88,335.36l-2.84-2.81.09-3.88,2.8,2.69-.04,3.99ZM67.76,335.09l2.78,2.69-.08,4.11-2.75-2.72.05-4.08ZM67.81,329.74l.03-3.16,2.85,2.82-.06,3.06-2.83-2.72ZM63.98,326.03l-2.73-2.63.07-3.29,2.69,2.67-.03,3.25ZM67.92,321.18l.04-4.08,2.94,2.85-.08,4.11-2.9-2.88ZM64.07,317.37l-2.64-2.6.09-3.93,2.59,2.51-.04,4.02ZM51.2,310.09l-.03,3.57-2.48-2.39v-3.66s2.51,2.48,2.51,2.48ZM55.04,313.9l2.47,2.45-.08,3.38-2.43-2.35.03-3.48ZM51.11,319.02l-.04,3.71-2.42-2.39v-3.67s2.46,2.35,2.46,2.35ZM54.96,322.72l2.36,2.28-.08,3.8-2.32-2.29.03-3.79ZM51.02,328.12l-.04,4.66-2.34-2.21v-4.79s2.39,2.35,2.39,2.35ZM54.87,331.92l2.25,2.22-.1,4.35-2.19-2.07.04-4.5ZM60.91,337.9l2.9,2.86-.05,4.11-2.95-2.78.1-4.19ZM67.66,344.57l2.7,2.67-.08,3.79-2.67-2.51.05-3.95ZM63.68,359.88c-1.85-.61-3.65-1.66-5.38-3.1-.23-.46-.63-.8-1.09-.97-3.38-3.19-6.48-7.92-9.19-14.05-9.67-21.92-11.15-59.37-11.36-72.58,7.74,8.07,27.06,29.15,38,48.99l-6.64-6.44v-.16s-.16,0-.16,0l-22.99-22.33-.13,42.99,28.62,27.02-.42.17c-.17.1-4.03,2.21-9.25.46ZM71.92,367.9c-1.7-.72-3.05-2.13-4.01-3.45,3.48-.02,5.97-1.15,6.72-1.52.84-.26,3.66-1.32,6.38-3.98.29,1.64.37,3.62-.32,5.34-.64,1.59-1.84,2.72-3.68,3.49h0c-1.84.75-3.51.8-5.1.12ZM46.22,441.23l-1.39-7.04,7.17,1.56.67,6.1-6.44-.62ZM63.78,438.39c1.09,1.75,1.96,3.34,2.68,4.8l-9.85-.95-.62-5.61,7.73,1.68s.04.04.05.07ZM22.09,411.68c9.81,3.86,28.08,11.93,37.75,21.81l-19.98-4.34,3.84,19.34c-9.69-9.7-17.72-27.27-21.61-36.81ZM49.34,453.02c-.34-.21-.69-.44-1.03-.66.04-.22.04-.45,0-.69l-1.28-6.45,6.07.58,1.07,9.83c-1.46-.69-3.06-1.55-4.82-2.61ZM58.25,457.3l-1.21-11.13,11.14,1.07c2.16,6.22.55,8.77.13,9.29l-.3-.03-.41.76c-.4.37-2.87,2.19-9.34.04ZM121.77,559.31c5.09-1.15,12.47-.89,22.43,3.8.47.68.95,1.35,1.42,2.01-5.97-2.73-14.74-5.82-23.85-5.82ZM154.02,539.48c-3.43,8.82-3.12,20.04-2.38,27.35-.98-1.32-1.94-2.65-2.88-3.98.06-.28.06-.59-.02-.9-2.87-10.36.81-17.7,5.28-22.47ZM98.24,494.06c13.27,5.43,15.42,10.28,15.42,10.28.06.17.16.33.26.48.74,2.03,1.5,4.07,2.3,6.09-7.29-5.85-20.25-14.25-35.86-15.62l-3.21-.43c4.9-2.12,12.83-4.17,21.08-.8ZM163.57,359.95c.98,1.67,2.06,3.29,3.23,4.82.56,2.68,1.19,4.47,1.41,5.07.19.61.8,2.42,2,4.88.02,1.92.16,3.85.41,5.78l-22.1-3.89,15.05-16.65ZM193.85,388.25c-2.96-1.54-5.45-3.32-7.58-5.2,22.15,3.41,40.23-14.14,47.56-25.69.25-.39.42-.81.51-1.24.34-1.55-.29-3.21-1.71-4.11-1.81-1.16-4.21-.62-5.36,1.19-.87,1.36-21.52,32.98-49.61,18.98-1.44-2.71-2.01-4.6-2.02-4.64l-.13-.38c-.02-.05-.73-1.89-1.25-4.92,13.55-28.31,49.27-16.06,50.79-15.52,2.02.72,4.24-.34,4.96-2.36.06-.16.1-.31.14-.47.42-1.88-.62-3.83-2.48-4.49-12.88-4.6-37.94-7.33-53.3,8.98h-.01c.52-2.79,1.41-5.75,2.79-8.76.7-1.52,1.51-2.99,2.4-4.45,39.93-24.91,63.85,3.36,64.86,4.59,1.35,1.66,3.8,1.92,5.46.56.71-.58,1.17-1.35,1.35-2.18.25-1.12,0-2.33-.78-3.29-.24-.31-21.1-25.32-55.55-15.23,6.23-4.3,13.82-8.08,22.71-11.31,53.65-2.23,62.61,15.54,62.84,16.02.8,1.95,3.01,2.91,5,2.15,1.27-.49,2.12-1.56,2.39-2.8.16-.72.11-1.49-.17-2.23-.76-1.99-7.64-16.64-43.58-20.28,15.18-2.9,31.02-4.21,46.2-4.55,16.01,3.1,20.99,7.93,22.51,10.57.45.78.68,1.48.79,2.08.23,1.24,1.03,2.3,2.19,2.8l.58.24c2.47,1.04,5.27-.9,4.99-3.56,0-.01,0-.04,0-.05-.17-1.48-.63-3.18-1.6-4.96-1.39-2.59-3.6-4.9-6.58-6.93,23.47.84,43.24,3.44,53.23,4.98-6.93,7.36-20.93,21.56-38.92,36.64.26-.8.48-1.59.65-2.37.56-2.54.65-4.92.28-7.14-.3-1.8-.88-3.28-1.56-4.48-1.43-2.55-5.11-2.55-6.58-.02l-.11.17c-.68,1.17-.64,2.59-.02,3.79.27.53.52,1.23.64,2.09.41,3.01-.55,9.89-11.27,22.18-12.28,9.13-25.68,17.89-39.54,24.97,15-14.51,20.3-26.26,22-33.97,1.35-6.13.44-9.72.33-10.1-.59-2.07-2.73-3.26-4.8-2.69-2.06.58-3.26,2.73-2.69,4.8.06.2,4.37,20.86-39.83,52.46-8.35,2.7-16.09,4.35-23.21,4.91,22.24-9.56,29.42-28.02,31.71-38.43.99-4.5,1.08-7.51,1.08-7.63.03-2.15-1.68-3.91-3.83-3.94s-3.91,1.68-3.94,3.83c0,.09-.21,9.84-6.27,20.2-7.9,13.51-21.66,21.45-40.9,23.67-2-.71-3.93-1.5-5.78-2.46ZM99.69,437.93c.49,7.14,1.29,14.25,2.41,21.31-2.97-3.74-7.04-10.41-10.17-21.42-.48-1.69-.94-3.32-1.39-4.89-5.09-18.07-8.16-29.01-17.73-37.6-.56-.65-3.3-3.8-6.86-6.54,5.37.93,12.89,3.11,16.31,6.9,6.43,7.12,16.63,39.66,17.43,42.24ZM195.46,240.89c9.37-5.04,18.59-9.71,28.54-11.58,10.03-1.88,19.64.01,27.76,5.44,4.36,2.91,7.18,6.53,7.75,9.91.39,2.37-.28,4.73-2.01,7.02-.75.99-1.56,1.66-2.41,1.98-1.49.57-3.12.08-3.97-.27-2.8-1.14-4.68-2.95-5.31-5.08-1.32-4.51-5.19-7.45-9.63-7.33-11.68.32-33.22,1.93-46.28,9.14-10.69,5.91-23.08,14.14-31.44,19.9,2.24-2.93,4.52-5.81,6.83-8.64.96-1.18,1.94-2.36,2.93-3.54,8.38-6.04,17.54-11.74,27.24-16.95ZM229.85,199.22c.72-.33,1.52-1.74,2.03-2.36.71-.86,1.4-1.73,2.07-2.63,1.38-1.84,2.67-3.76,3.83-5.74,2.36-4.04,4.21-8.43,5.07-13.05.21-1.11.36-2.24.45-3.38.07-1-.01-2.01.31-2.84.19-.51.54-.96,1.19-1.31.12-.05.23-.12.37-.11.74.04.97,1.52,1.12,2.05,1.82,6.66-8.44,21.94-12.9,27.74-1.17.52-2.36,1.06-3.55,1.63ZM396.73,34.91l-1.34-7.59-17.71,4.5-2.4-9.45-22.16,10.94-3.72-12.01-20.26,15.39-4.7-12.43-27.09,19.92-3.37-9.87c-17.49,8.79-34.15,40.85-36.86,65.03-.33,2.95-.02,6,.78,9.1-1.02-2.51-14.61-37.26,6.73-63.21,1.31-1.59,2.19-3.53,2.43-5.57.44-3.61-.89-7.88-11.21-4.96-16.5,4.67-21.93,34.36-18.59,48.31,3.34,13.94,17.98,43.09,30.2,52.75,0,0,4.36,5.76,2.24,15.68s-1.61,19.94,4.89,25.34c6.05,5.91,16.06,5.4,25.71,2.28,9.64-3.12,15.82.63,15.82.63,10.86,11.17,41.34,22.77,55.55,24.67,14.21,1.91,43.2-6.51,46.17-23.4,1.85-10.56-2.53-11.45-6.08-10.64-2.01.46-3.85,1.52-5.29,2.99-23.65,23.86-59.59,13.88-62.19,13.13,3.16.48,6.23.48,9.14-.15,23.77-5.16,53.97-25,60.94-43.29l-10.17-2.35,17.06-28.97-12.85-3.41,13.24-21.72-12.33-2.48,8.62-23.16-9.64-1.42,2.67-18.08-7.68-.56,4.21-11.21-10.75,5.3ZM258,108.85c.1.38.22.75.34,1.13-.17-.44-.28-.82-.34-1.13ZM278.87,171.98s-6.69-13.14.79-30.74c7.9,8.04,14.84,13.43,14.84,13.43,0,0,6,6.27,14.72,13.26-16.71,9.18-30.35,4.04-30.35,4.04ZM374.8,170.09c-33.82,26.12-76.22-19.93-76.22-19.93,0,0-.17-.13-.47-.37,1.1-.61,2.18-1.22,3.29-1.82,1.54-.84,3.09-1.7,4.65-2.57,2.66-.38,18.21-2.79,25.67-8.67,7.23-5.69,19.75-7.98,26.18-2.18,5.39,4.87,8.07,9.12,8.16,12.99.08,2.77-1.18,5.39-3.81,8.02-1.69,1.68-3.15,2.37-4.34,2.05-1.19-.33-2.22-1.57-3.04-2.97.21-.09.5-.13.85-.09,2.8.31,5.77-2.3,6.51-4.19,1.46-3.69-1.23-6.58-3.46-8.08s-9.62-2.2-9.58,6.37c0,.86.08,1.63.18,2.36l-.13.03c.04.18.17.64.38,1.28.31,1.28.77,2.33,1.29,3.15,1.22,2.44,3.14,5.11,5.97,5.88,2.64.73,5.37-.29,8.13-3.05,2.5-2.49,4.06-5.14,4.67-7.89.22-.98.31-1.97.29-2.97-.12-4.99-3.22-10.15-9.45-15.78-.31-.29-.65-.52-.99-.78.79-.19,1.62-.44,2.48-.74.21.15.45.26.71.32,2.65.57,7.77,2.09,12.17,4.51-1.9,3.04-2.8,6.55-1.62,10.52,1.15,3.89,5.2,6.09,9.22,4.99,1.54-.42,2.72-1.31,3.43-2.59.28-.51.47-1.05.6-1.61.38-1.73.05-3.55-.36-4.92-.88-2.92-2.97-5.33-5.55-7.32,1.53-1.59,3.51-3.22,5.95-4.9.88-.61,1.1-1.82.49-2.7-.61-.88-1.82-1.1-2.7-.49-2.33,1.62-4.92,3.59-7.05,5.92-3.43-1.96-7.12-3.32-9.83-4.14,1.7-.97,3.41-2.17,5.07-3.66,3.72-3.35,5.32-6.49,5.89-9.05.85-3.85-.62-6.44-.72-6.62l-1.75-2.98-1.64,3.04c-3,5.59-8.46,6.55-14.25,7.56-1.38.24-2.81.49-4.18.81-2.39.56-4.3.54-6.33.52-3.47-.03-7.05-.07-12.32,2.94-6.23,3.57-7.42,9.34-7.13,12.81-.26.18-.53.37-.78.56-3.42,2.7-9.03,4.61-13.99,5.89,2.22-1.61,4.36-3.34,6.35-5.29,5.12-5.06,9.14-11.27,11.74-18.06,7.15-9.27,16.15-9.63,16.58-9.64.91-.02,1.67-.66,1.86-1.53.03-.14.05-.3.04-.45-.02-1.07-.9-1.93-1.97-1.91-.37.01-7.39.22-14.46,5.91.21-1.31.37-2.6.53-3.89.5-4.14.96-8.05,2.88-11.5.97-1.74,3.24-4.39,5.89-3.88.95,1.85,2.32,3.56,4.09,5.09,3.36,3.21,7.25,4.75,11.24,4.52l-.03.03s11.17,5.8,19.34,1.45c1.64-.88.77-3.36-1.06-3.02-3.85.71-8.78,1.16-12.21-.25,2.39-1.32,4.64-3.32,6.66-6,3.15-4.18,4.98-8.93,5.99-13.52,1.31-5.94,1.26-11.59.98-15.34l-.14-1.84-1.85.05c-6.68.18-19.2,1.7-28.01,9.87-2.45,2.28-4.22,4.72-5.29,7.23-1.74-3.27-1.81-8.23-1.49-12.13.16-1.86-2.41-2.48-3.11-.76-3.5,8.57,3.41,19.1,3.41,19.1l.02-.03c.03.56.09,1.11.18,1.64-3.39.3-6.33,2.91-8,5.9-.74,1.33-1.28,2.7-1.72,4.08-1.92-5.8-4.84-9.09-5.05-9.32-.72-.79-1.95-.84-2.74-.12-.79.72-.85,1.94-.14,2.74.07.08,7.12,8.09,5.42,21.25-.2.95-.42,1.9-.73,2.82-1.63,4.95-4.1,9.6-7.23,13.72,1.25-6.03,2.34-14.51,1-22.67-.53-3.2-1.26-6.5-1.96-9.7-2.41-10.9-4.69-21.18.94-26.65l2.1-2.05-2.71-1.14c-.18-.07-4.42-1.81-8.78.31-3.41,1.67-5.85,5.14-7.24,10.31l-.04.12-.02.12c-.05.31-.57,4.24-.21,9.46-2.47-1.94-5.86-3.87-9.66-3.99-3.66-5.7-12.96-10.68-15.3-11.87-.96-.49-2.12-.1-2.61.86s-.1,2.12.86,2.61c4.33,2.21,9.87,5.86,12.75,9.1-3.84,1.3-5.93,3.14-6.27,5.5-.33,2.38,1.31,4.38,2.96,5.47.64.43,2.61,1.71,4.74.88,1.92-.75,3.26-2.88,4.21-6.72.15-.56.19-1.14.16-1.71,4.32.95,7.98,4.85,8.99,6.02.73,3.58,1.99,7.32,4.06,10.68,1.37,2.22,2.19,4.51,2.66,6.73-2.54-3.54-6.41-6.71-10.68-8.72-4.23-1.98-8.83-2.26-12.65-.75-3.9,1.53-6.33,3.85-7.03,6.71-.89,3.6.86,7.54,5.01,11.49.24.22.47.44.72.65l.08-.1c.87.73,1.96,1.44,3.33,2.1,7.74,3.67,10.25-3.31,9.84-5.97-.41-2.66-1.87-6.32-5.84-6.56-2.02-.13-5.65,1.46-6.56,4.11-.18.52-.45.79-.77.92-1.33-1.66-2.48-3.73-2.06-5.65l.02-.08c.49-1.99,2.81-3.28,4.68-4.01,2.79-1.09,6.37-.85,9.58.66,3.75,1.76,7.14,4.55,9.3,7.64,5.69,8.16-.98,22.31-4.84,30.28-2.17,1.26-4.38,2.48-6.56,3.68-1.55.85-3.1,1.7-4.65,2.56-11.16-9.6-42.63-40.59-23.89-70.77,22.54-36.31,125.59-34.74,125.59-34.74,0,0,12.06,102.35-21.77,128.48ZM334.05,130.7c.32-2.11,1.47-4.95,5.09-7.02,4.36-2.49,7.14-2.46,10.35-2.44,2.06.02,4.4.04,7.26-.62,1.26-.3,2.58-.52,3.98-.77,4.7-.83,9.89-1.74,13.81-5.37-.48,1.81-1.73,4.11-4.61,6.71-7.47,6.72-16.67,6.71-16.9,6.7-6.05-1.41-13.14-.15-18.98,2.81ZM378.17,137.11c2.04,1.55,3.63,3.36,4.24,5.41.45,1.49.48,2.8.08,3.53-.13.25-.37.55-1.04.73-1.96.53-3.93-.49-4.47-2.34-.4-1.36-.45-2.73-.15-4.09.23-1.08.68-2.15,1.34-3.23ZM314.61,99.39c-5.71-9.24-4.32-22.25-4.15-23.57,1.08-3.95,2.81-6.54,5.11-7.69.96-.47,1.94-.65,2.8-.68-4.35,7.1-2.06,17.47.17,27.52.69,3.15,1.41,6.39,1.93,9.48,1.93,11.72-1.68,24.74-2.73,28.17-1.75,1.6-3.6,3.07-5.55,4.44,1.57-3.58,3.13-7.64,4.04-11.76.15-.67.27-1.33.38-1.99l.31.11c.17-.52,4.56-12.94-2.31-24.04ZM347.13,83.35c-.02-.75.06-1.51.23-2.27.59-2.67,2.3-5.36,5.02-7.89,7.12-6.6,17.2-8.36,23.59-8.75.26,6.4-.46,16.61-6.31,24.36-2.87,3.81-6.18,5.97-9.57,6.26-2.97.25-5.94-.95-8.65-3.53-2.77-2.38-4.25-5.2-4.32-8.19ZM294.36,84.79c.03.25,0,.48-.05.71-.9,3.63-1.82,4.02-1.85,4.04-.02,0-.28.09-1.19-.52-.73-.48-1.3-1.25-1.23-1.68v-.03c.11-.48,1.07-1.5,4.07-2.44.09-.03.18-.05.27-.08Z"/>
  </g>
</svg>