<?xml version="1.0" encoding="UTF-8"?>
<svg id="Layer_1" xmlns="http://www.w3.org/2000/svg" version="1.1" viewBox="0 0 595.28 595.28">
  <!-- Generator: Adobe Illustrator 30.1.0, SVG Export Plug-In . SVG Version: 2.1.1 Build 136)  -->
  <defs>
    <style>
      .st0 {
        fill: #fff;
      }
    </style>
  </defs>
  <g id="bg">
    <path class="st0" d="M557.19,221.83c-9.37-1.21-26.04-.88-38.88.32v-.07c12.84-1.27,29.26-4.12,38.21-7.09,15.88-5.26,16.48-10.99,14.43-17.12-2.03-6.1-5.92-10.34-21.8-5.07-8.95,2.96-23.83,10.49-34.87,17.15-.01-.01-.02-.03-.03-.07,11.02-6.69,24.56-16.41,31.35-22.96,12.02-11.63,10.08-17.04,5.57-21.68-4.48-4.64-9.82-6.76-21.83,4.87-6.78,6.56-16.93,19.81-23.98,30.61-.01-.01-.05-.05-.07-.06,7.02-10.8,15.03-25.45,18.28-34.29,5.79-15.7,1.69-19.73-4.38-21.94-6.06-2.26-11.79-1.84-17.57,13.85-3.25,8.87-6.64,25.19-8.31,37.98-.03,0-.06-.01-.08-.02,1.64-12.78,2.49-29.43,1.59-38.83-1.61-16.66-7.04-18.49-13.47-17.88-.4.05-.78.09-1.16.16-5.85.86-10.15,4.34-8.64,19.96.89,9.39,4.92,25.58,8.96,37.83-.02,0-.05.01-.08.02-4.08-12.24-10.53-27.6-15.41-35.68-7.62-12.58-12.96-13.57-17.88-11.34-16.08-10.42-32.42-19.48-54.37-18.09-18.29,1.14-36.24,8.94-49.28,21.37-20.59,19.63-36.01,45.43-47.48,69.34,4.51-14.82,10.35-29.69,17.48-44.53,5.21-10.8,10.7-21.1,16.48-30.82,3.77-2.86,7.6-5.61,11.47-8.3,13.78-9.56,31.42-22.33,48.95-23.49,5.09-.36,10.54-.39,12.81-5.88,2.05-4.93-3.82-8.11-7.52-9.86-12.93-6.09-38.41,14.29-52.62,27.17,2.57-3.67,5.17-7.26,7.82-10.73,10.73-7.55,28.18-18.74,41.01-21.42,0,0,4.07-.48,7.29.25,3.75.84,7.81-.55,9.88-3.8,1.99-3.09,1.99-7.54-5.11-13.31-1.98-1.61-4.53-2.4-7.07-2.11-1.54.17-3.48.54-5.79,1.29,19.46-18.02,43.12-42.77,44.9-57.86,0,0,1.26-15.77-9.7-9.93-1.73.92-3.03,2.49-3.52,4.39-1.42,5.65-5.99,20.95-14.25,23.83,0,0,13.73-21.51,5.69-33.17-2.93-4.25-8.58-5.92-13.37-4.03-2.67,1.06-4.61,3.24-2.48,7.73,4.57,9.65,6.61,15.25-3.57,33.04-4.43,7.77-12.29,19.92-19.72,31.14,2.95-8.28,3.22-14.08,2.87-17.62-.24-2.55-1.52-4.87-3.5-6.48-7.11-5.78-11.46-4.87-14.08-2.29-2.75,2.69-3.29,6.94-1.69,10.46,1.38,3.01,1.73,7.07,1.73,7.07,0,14.63-9.19,37.06-14.29,48.4-1.72,2.22-3.4,4.49-5.08,6.81,7.37-17.92,15.94-44.49,6.83-53.92-2.83-2.94-7.74-7.47-11.73-3.96-4.49,3.93-2.78,9.1-1.45,14.03,4.54,16.99-1.89,37.8-6.51,53.91-1.87,6.52-3.9,13.04-6.18,19.44-5,8.66-9.8,17.75-14.34,27.24-3.22,6.71-6.21,13.44-8.9,20.18,7.15-32.53,11.92-71.19,2.51-96.05-5.07-13.36-13.28-22.01-24.43-25.73-17.76-5.91-38.01,2.41-47.71,7.37-3.87-3.86-9.2-4.86-20.79,4.38-7.38,5.88-18.75,18.09-26.79,28.16-.03-.01-.06-.02-.08-.06,8.03-10.09,17.39-23.88,21.5-32.38,7.24-15.07,3.56-19.47-2.26-22.27-5.83-2.81-11.56-2.95-18.82,12.13-4.09,8.5-9.04,24.43-11.93,36.99-.02,0-.06-.02-.09-.02,2.87-12.58,5.32-29.07,5.32-38.5,0-16.72-5.24-19.09-11.69-19.09s-11.7,2.37-11.7,19.09c0,9.43,2.44,25.92,5.3,38.5-.02,0-.05.02-.07.02-2.9-12.56-7.84-28.49-11.93-36.99-7.27-15.07-13-14.94-18.82-12.14-5.83,2.81-9.51,7.21-2.26,22.28,4.1,8.5,13.46,22.29,21.49,32.38-.02.03-.05.05-.06.06-8.06-10.06-19.43-22.27-26.81-28.16-13.07-10.43-18.18-7.81-22.21-2.76-4.03,5.06-5.45,10.63,7.62,21.04,7.38,5.9,21.8,14.26,33.42,19.86-.01.03-.02.06-.05.08-11.62-5.59-27.14-11.64-36.34-13.74-16.31-3.72-19.77.85-21.21,7.14-1.44,6.3-.3,11.94,16,15.66,9.2,2.1,25.83,3.37,38.74,3.39v.09c-12.91.01-29.54,1.3-38.74,3.39-16.3,3.73-17.44,9.36-16,15.65,1.44,6.3,4.91,10.88,21.21,7.15,9.2-2.08,24.72-8.15,36.34-13.73.02.02.03.05.05.08-11.62,5.61-26.04,13.96-33.42,19.84-13.07,10.43-11.65,16-7.62,21.05,4.03,5.04,9.14,7.67,22.21-2.75,7.38-5.88,18.75-18.1,26.81-28.17l.06.06c-8.03,10.09-17.39,23.88-21.49,32.39-7.26,15.06-3.57,19.46,2.25,22.27,5.83,2.79,11.56,2.94,18.83-12.13,4.09-8.51,9.03-24.43,11.92-37,.03,0,.06.01.08.01-2.86,12.6-5.3,29.08-5.3,38.52,0,16.72,5.24,19.09,11.68,19.09s11.71-2.37,11.71-19.09c0-9.44-2.45-25.92-5.32-38.52.03,0,.06-.01.09-.01,2.89,12.58,7.84,28.49,11.93,37,7.26,15.06,12.99,14.91,18.82,12.13,5.82-2.81,9.5-7.21,2.26-22.27-4.11-8.51-13.47-22.31-21.5-32.39l.06-.06c8.06,10.06,19.43,22.28,26.81,28.17,13.08,10.42,18.18,7.8,22.21,2.75,4.03-5.06,5.45-10.62-7.62-21.05-7.38-5.88-21.8-14.23-33.42-19.84.01-.03.02-.06.05-.08,11.62,5.57,27.14,11.64,36.34,13.73,16.31,3.73,19.77-.85,21.21-7.14,1.45-6.3.3-11.93-16-15.66-9.2-2.08-25.83-3.37-38.74-3.39,0-.01.02-.02.02-.05,0-.01-.02-.02-.02-.05,12.91-.01,29.54-1.29,38.74-3.39,16.3-3.72,17.45-9.36,16-15.65-1.44-6.3-4.91-10.87-21.21-7.15-9.2,2.1-24.72,8.15-36.34,13.74-.02-.02-.03-.05-.05-.08,11.62-5.61,26.04-13.97,33.42-19.86,9.92-7.91,11.48-13.01,9.92-17.22,9.09-4.51,27.02-11.62,41.96-6.63,9.18,3.06,16.04,10.42,20.37,21.86,14.97,39.5-9.06,119.62-16.96,143.74-1.31-2.11-2.71-3.92-4.09-5.46-7.34-8.2-17.77-12.76-28.7-12.47-18.07.47-33.33,15.1-34.01,32.62-.26,6.91,2.22,13.38,7,18.23,4.99,5.04,11.82,7.74,19.22,7.53.77-.01,1.51-.07,2.25-.16l-.31.2s19.15.35,26.11-11.35c5.6-9.42.66-19.17-6.36-17.08-3.31.97-5.27,3.62-5.42,7.06v.67c-1.12,7.74-8.16,13.97-16.43,14.19-5.59.14-10.71-1.85-14.42-5.61-3.51-3.57-5.34-8.31-5.14-13.42.55-14.18,12.97-26,27.67-26.38,8.98-.22,17.62,3.54,23.69,10.32,3.9,4.35,8.02,11.3,9.37,21.86.13,2.42-.03,14.03-.03,14.03-.09,1.2-.16,2.38-.23,3.58-.02.17-.02.32-.02.48l6.5.21c.18-3.42.43-6.81.75-10.2.3-3.17.66-6.33,1.08-9.48.29-2.14.61-4.3.96-6.45.15-.9.3-1.8.46-2.68.99-2.55,2.13-4.8,3.34-6.77,2.33-3.81,4.93-6.61,7.38-8.67,6.94-5.87,16.03-8.36,24.89-6.89,14.52,2.45,25.15,15.9,23.7,30.02-.51,5.07-2.99,9.51-6.97,12.54-4.19,3.21-9.55,4.46-15.06,3.54-8.15-1.37-14.26-8.52-14.28-16.35l.09-.66c.35-3.42-1.24-6.32-4.36-7.76-6.66-3.05-12.91,5.92-8.69,16.03,5.23,12.55,24.24,14.91,24.24,14.91l-.29-.24c.73.2,1.47.35,2.21.47,1.55.26,3.11.39,4.63.39,5.64,0,11.01-1.76,15.45-5.16,5.42-4.12,8.8-10.18,9.5-17.06,1.78-17.45-11.26-34.08-29.09-37.08-9.11-1.53-18.4.41-26.15,5.37,11.52-25.2,27.47-53.45,49.35-74.32,11.93-11.39,28.41-18.54,45.19-19.59,19.06-1.21,33.86,6.48,48.3,15.71-2.75,3.41-2.89,8.76,3.55,19.36,4.88,8.06,15.53,20.9,24.51,30.17-.03.03-.05.03-.06.03-.01.01-.01.03-.01.03-8.99-9.25-21.48-20.3-29.38-25.46-14.01-9.12-18.86-6.03-22.39-.61-3.51,5.4-4.39,11.09,9.63,20.21,7.9,5.16,23.07,12.08,35.15,16.57,0,.02-.01.05-.02.07-12.11-4.43-28.14-8.98-37.51-10.19-16.58-2.13-19.6,2.75-20.43,9.16-.82,6.4.85,11.91,17.44,14.05,9.36,1.21,26.04.88,38.88-.33,0,.02,0,.06.01.08-12.84,1.26-29.27,4.12-38.23,7.09-15.87,5.26-16.47,10.99-14.43,17.11,2.04,6.11,5.93,10.34,21.79,5.08,8.97-2.97,23.85-10.48,34.88-17.16.03.02.05.05.06.08-11.03,6.69-24.6,16.39-31.38,22.96-12.01,11.63-10.06,17.03-5.57,21.68,4.49,4.64,9.82,6.75,21.85-4.88,6.78-6.56,16.93-19.78,24-30.6.01.01.03.02.06.06-7.02,10.81-15.03,25.44-18.29,34.29-5.77,15.7-1.68,19.73,4.38,21.96,6.07,2.23,11.79,1.81,17.56-13.88,3.28-8.87,6.67-25.2,8.35-37.98.02.01.06.01.07.01-1.64,12.78-2.49,29.46-1.59,38.84,1.6,16.65,7.05,18.49,13.46,17.88,6.44-.62,11.42-3.47,9.82-20.13-.91-9.39-4.93-25.55-8.97-37.81.02-.01.05-.02.08-.02,4.08,12.23,10.51,27.6,15.42,35.66,8.66,14.31,14.36,13.61,19.9,10.26,5.5-3.34,8.75-8.07.1-22.38-4.89-8.06-15.53-20.91-24.51-30.19l.07-.06c8.98,9.26,21.47,20.33,29.38,25.47,14,9.12,18.85,6.02,22.38.61,3.51-5.41,4.39-11.08-9.62-20.21-7.91-5.15-23.07-12.1-35.16-16.56,0-.03.01-.06.02-.08,12.11,4.43,28.16,8.98,37.51,10.19,16.58,2.14,19.61-2.75,20.43-9.16.83-6.4-.85-11.92-17.44-14.05Z"/>
  </g>
  <g id="b_x5F_1">
    <path d="M326.32,39.4c3.89,0,7.04-3.16,7.04-7.04s-3.16-7.04-7.04-7.04-7.04,3.16-7.04,7.04,3.14,7.04,7.04,7.04ZM60.5,381.26c21.35-6.47,38.84-1.49,59.98,3.12,20.18,4.39,46.65,3.39,59.43-15.53.92-1.36,7.27-14.56,6.84-24.7-.43-10.17-7.83-22.77-8.87-24.07-14.3-17.79-40.77-16.61-60.52-10.56-20.67,6.33-37.69,12.76-59.5,8.07-16.51-3.56-32.36-12.13-42.46-25.82-1.66-2.25-4.95-2.4-6.83-.36-1.28,1.39-1.57,3.43-.67,5.1,4.35,8.11,20.97,30.97,73.24,41.04,22.2,4.28,36.51,7.44,41.02,8.46-21.18-1.24-79.05-4.58-88.17-4.21-11.23.46-20.16,4.71-19.97,9.49.2,4.77,9.45,8.26,20.68,7.78,9.12-.38,66.4-8.48,87.46-11.48-4.48,1.4-18.45,5.75-40.13,11.82-51.26,14.39-65.93,38.56-69.59,46.99-.75,1.74-.3,3.74,1.09,5.02,2.04,1.89,5.31,1.46,6.77-.92,8.94-14.46,24.01-24.32,40.18-29.24ZM574.45,320c.89-1.67.61-3.71-.67-5.1-1.88-2.04-5.17-1.89-6.83.36-10.1,13.69-25.95,22.26-42.46,25.82-21.82,4.69-38.83-1.74-59.5-8.07-19.75-6.05-46.21-7.23-60.52,10.56-1.02,1.3-8.44,13.9-8.87,24.07-.43,10.15,5.92,23.34,6.84,24.7,12.78,18.92,39.25,19.92,59.43,15.53,21.12-4.59,38.61-9.59,59.98-3.12,16.17,4.91,31.24,14.76,40.18,29.25,1.46,2.37,4.73,2.81,6.77.92,1.39-1.28,1.84-3.29,1.09-5.02-3.67-8.43-18.33-32.59-69.59-46.96-21.68-6.07-35.65-10.41-40.13-11.82,21.06,3.01,78.34,11.1,87.46,11.48,11.23.46,20.49-3.03,20.68-7.78.2-4.78-8.74-9.02-19.97-9.49-9.12-.38-66.99,2.97-88.17,4.21,4.51-1.02,18.82-4.19,41.02-8.46,52.27-10.12,68.89-32.98,73.24-41.08ZM295.96,361.78c3.89,0,7.04-3.16,7.04-7.04s-3.16-7.04-7.04-7.04-7.04,3.16-7.04,7.04,3.14,7.04,7.04,7.04ZM326.32,21.63c3.89,0,7.04-3.16,7.04-7.04s-3.16-7.04-7.04-7.04-7.04,3.16-7.04,7.04c-.01,3.89,3.14,7.04,7.04,7.04ZM437.65,69.8c-3.89,0-7.04,3.16-7.04,7.04s3.16,7.04,7.04,7.04,7.04-3.16,7.04-7.04-3.14-7.04-7.04-7.04ZM455.19,82.18c3.89,0,7.04-3.16,7.04-7.04s-3.16-7.04-7.04-7.04-7.04,3.16-7.04,7.04,3.16,7.04,7.04,7.04ZM430.61,59.08c0,3.89,3.16,7.04,7.04,7.04s7.04-3.16,7.04-7.04-3.16-7.04-7.04-7.04-7.04,3.14-7.04,7.04ZM343.85,37.7c3.89,0,7.04-3.16,7.04-7.04s-3.16-7.04-7.04-7.04-7.04,3.16-7.04,7.04,3.14,7.04,7.04,7.04ZM455.19,64.09c3.89,0,7.04-3.16,7.04-7.04s-3.16-7.04-7.04-7.04-7.04,3.16-7.04,7.04,3.16,7.04,7.04,7.04ZM301.22,321.14c0-3.89-3.16-7.04-7.04-7.04s-7.04,3.16-7.04,7.04,3.16,7.04,7.04,7.04,7.04-3.14,7.04-7.04ZM343.85,19.6c3.89,0,7.04-3.16,7.04-7.04s-3.16-7.04-7.04-7.04-7.04,3.16-7.04,7.04,3.14,7.04,7.04,7.04ZM257.01,185.52c3.89,0,7.04-3.16,7.04-7.04s-3.16-7.04-7.04-7.04-7.04,3.16-7.04,7.04,3.14,7.04,7.04,7.04ZM269.9,315.88c-3.89,0-7.04,3.16-7.04,7.04s3.16,7.04,7.04,7.04,7.04-3.16,7.04-7.04-3.14-7.04-7.04-7.04ZM264.65,356.52c0,3.89,3.16,7.04,7.04,7.04s7.04-3.16,7.04-7.04-3.16-7.04-7.04-7.04c-3.89,0-7.04,3.14-7.04,7.04ZM257.01,203.29c3.89,0,7.04-3.16,7.04-7.04s-3.16-7.04-7.04-7.04-7.04,3.16-7.04,7.04,3.14,7.04,7.04,7.04ZM274.55,201.6c3.89,0,7.04-3.16,7.04-7.04s-3.16-7.04-7.04-7.04-7.04,3.16-7.04,7.04,3.14,7.04,7.04,7.04ZM294.53,344.98c3.89,0,7.04-3.16,7.04-7.04s-3.16-7.04-7.04-7.04-7.04,3.16-7.04,7.04,3.14,7.04,7.04,7.04ZM270.26,332.68c-3.89,0-7.04,3.16-7.04,7.04s3.16,7.04,7.04,7.04,7.04-3.16,7.04-7.04-3.16-7.04-7.04-7.04ZM542.3,421.58c-12.51-9.21-25.92-11.82-40.81-10.04-13.16,1.55-26.31,4.88-39.36,6.91-12.87,1.99-26.19.7-38.69-1.8-40.36-8.08-34.93-49.32-34.93-49.32,0,0-2.02-41.56,38.89-46.26,12.67-1.45,26.05-1.64,38.71,1.42,12.85,3.1,25.68,7.5,38.66,10.15,14.69,2.98,28.27,1.51,41.49-6.63,13-8,15.71-16.18,17.24-19.54.84-1.87.21-4.05-1.52-5.16-2.06-1.31-4.79-.51-5.87,1.69-3.18,6.47-13.66,19.98-28.06,20.6-23.22,1-42.68-9.16-65.24-13.9-13.06-2.74-40.23-6.05-56.85,4.77-12.02,7.82-19.57,15.9-24.21,24.52-3.18,5.92-5,12.09-5.97,18.62-5.91.77-13.6,2.82-22.32,7.68-23.02,12.84-42.89,38.95-59.16,77.73-2.12-19.81-3.94-40.55-5.49-62.67-.43-6.09-.9-12.23-1.38-18.38-1.99-25.4-4.02-51.49-2.61-77,.18-3.42.43-6.81.75-10.2.3-3.17.64-6.35,1.08-9.49.29-2.14.61-4.28.96-6.45.14-.9.3-1.8.45-2.69.99-2.55,2.13-4.79,3.34-6.77,2.33-3.81,4.94-6.61,7.38-8.66,6.96-5.87,16.03-8.37,24.9-6.89,14.52,2.44,25.15,15.9,23.7,30.01-.51,5.07-2.98,9.52-6.97,12.55-4.19,3.21-9.55,4.46-15.07,3.54-8.14-1.38-14.26-8.52-14.28-16.35l.09-.64c.35-3.43-1.23-6.32-4.36-7.77-6.66-3.05-12.9,5.92-8.69,16.03,5.24,12.55,24.24,14.91,24.24,14.91l-.29-.24c.73.2,1.46.35,2.21.48,1.55.26,3.11.39,4.63.39,5.65,0,11.02-1.76,15.47-5.16,5.41-4.13,8.8-10.18,9.5-17.06,1.8-17.45-11.26-34.08-29.09-37.08-9.11-1.53-18.39.41-26.15,5.37,11.53-25.21,27.47-53.45,49.35-74.32,11.94-11.39,28.41-18.54,45.2-19.59,19.06-1.21,33.86,6.48,48.29,15.71-2.75,3.42-2.88,8.78,3.55,19.36,4.88,8.07,15.53,20.9,24.51,30.18-.02.02-.03.02-.06.02-.01.01-.01.03-.01.03-8.99-9.25-21.48-20.3-29.38-25.46-14.01-9.12-18.86-6.02-22.39-.61-3.52,5.4-4.39,11.09,9.63,20.21,7.9,5.16,23.05,12.08,35.15,16.56,0,.02-.01.06-.02.08-12.1-4.45-28.14-8.99-37.51-10.2-16.58-2.13-19.59,2.75-20.42,9.16-.82,6.4.84,11.9,17.44,14.05,9.35,1.21,26.04.89,38.87-.32,0,.01,0,.06.01.08-12.84,1.24-29.27,4.12-38.23,7.09-15.87,5.26-16.46,10.97-14.42,17.11,2.04,6.11,5.92,10.34,21.79,5.08,8.96-2.97,23.84-10.48,34.88-17.16.02.02.03.06.06.08-11.03,6.69-24.6,16.4-31.38,22.97-12.02,11.63-10.06,17.03-5.57,21.68,4.48,4.64,9.82,6.75,21.83-4.88,6.78-6.56,16.93-19.78,24-30.6.01.01.03.02.07.06-7.02,10.82-15.03,25.44-18.29,34.29-5.77,15.7-1.68,19.73,4.38,21.96,6.07,2.23,11.79,1.82,17.56-13.88,3.27-8.86,6.67-25.2,8.34-37.98.02.01.07.01.08.01-1.64,12.78-2.5,29.46-1.6,38.84,1.61,16.64,7.06,18.48,13.47,17.87,6.43-.62,11.42-3.47,9.82-20.13-.91-9.4-4.94-25.55-8.98-37.81.02-.01.06-.02.08-.02,4.08,12.23,10.53,27.6,15.42,35.66,8.66,14.31,14.37,13.61,19.9,10.26,5.5-3.34,8.75-8.07.1-22.38-4.89-8.07-15.53-20.91-24.51-30.19l.07-.07c8.98,9.26,21.47,20.34,29.38,25.47,14,9.12,18.85,6.01,22.38.61,3.52-5.41,4.39-11.08-9.62-20.21-7.91-5.15-23.07-12.09-35.16-16.55,0-.03.01-.07.02-.09,12.1,4.45,28.16,8.99,37.51,10.2,16.58,2.14,19.6-2.75,20.42-9.16.83-6.4-.84-11.92-17.44-14.05-9.36-1.21-26.04-.89-38.87.32v-.08c12.84-1.26,29.26-4.12,38.21-7.09,15.88-5.26,16.48-10.97,14.43-17.12-2.03-6.1-5.92-10.34-21.8-5.07-8.95,2.96-23.83,10.5-34.87,17.15-.01-.01-.02-.03-.03-.07,11.02-6.69,24.56-16.41,31.35-22.97,12.02-11.63,10.06-17.04,5.57-21.68-4.48-4.64-9.82-6.76-21.83,4.87-6.78,6.56-16.93,19.81-23.96,30.61-.01-.01-.06-.03-.08-.06,7.02-10.81,15.03-25.45,18.28-34.29,5.79-15.7,1.69-19.73-4.38-21.94-6.06-2.25-11.78-1.83-17.56,13.87-3.25,8.86-6.66,25.17-8.31,37.98-.03,0-.07-.01-.09-.02,1.64-12.78,2.5-29.42,1.6-38.83-1.61-16.65-7.04-18.48-13.47-17.87-.4.03-.79.09-1.17.16-5.85.88-10.15,4.34-8.64,19.96.9,9.4,4.93,25.58,8.96,37.83-.02,0-.06.01-.08.02-4.08-12.24-10.53-27.6-15.41-35.68-7.62-12.58-12.96-13.57-17.88-11.34-16.08-10.42-32.42-19.48-54.36-18.1-18.29,1.14-36.25,8.94-49.28,21.37-20.59,19.65-36.01,45.43-47.48,69.34,4.53-14.81,10.35-29.69,17.49-44.52,5.19-10.81,10.69-21.1,16.48-30.82,3.77-2.86,7.6-5.61,11.47-8.3,13.78-9.56,31.42-22.33,48.95-23.5,5.09-.35,10.54-.39,12.81-5.88,2.04-4.93-3.83-8.11-7.52-9.85-12.94-6.09-38.41,14.29-52.62,27.17,2.57-3.67,5.17-7.27,7.82-10.73,10.73-7.57,28.18-18.75,41.01-21.42,0,0,4.07-.48,7.29.24,3.75.84,7.81-.54,9.89-3.79,1.99-3.1,1.99-7.54-5.11-13.31-1.97-1.61-4.53-2.4-7.07-2.11-1.54.17-3.48.54-5.79,1.29,19.46-18.02,43.12-42.77,44.9-57.86,0,0,1.26-15.75-9.7-9.93-1.73.92-3.03,2.48-3.52,4.39-1.42,5.65-5.99,20.95-14.26,23.83,0,0,13.73-21.51,5.69-33.17-2.93-4.25-8.58-5.92-13.37-4.03-2.67,1.05-4.62,3.24-2.48,7.72,4.57,9.65,6.61,15.25-3.56,33.04-4.45,7.78-12.29,19.93-19.73,31.14,2.95-8.28,3.22-14.08,2.87-17.62-.24-2.55-1.52-4.87-3.51-6.48-7.11-5.78-11.46-4.87-14.08-2.29-2.75,2.69-3.28,6.93-1.69,10.44,1.38,3.02,1.73,7.08,1.73,7.08,0,14.61-9.19,37.06-14.29,48.39-1.72,2.22-3.41,4.49-5.08,6.81,7.37-17.92,15.94-44.49,6.83-53.92-2.83-2.94-7.74-7.47-11.75-3.96-4.48,3.93-2.76,9.1-1.44,14.03,4.54,16.99-1.9,37.8-6.51,53.91-1.87,6.52-3.92,13.04-6.18,19.44-5,8.66-9.8,17.75-14.34,27.24-3.22,6.71-6.2,13.45-8.9,20.18,7.16-32.53,11.93-71.18,2.51-96.05-5.07-13.36-13.28-22.01-24.43-25.73-17.75-5.91-38.01,2.41-47.71,7.37-3.87-3.86-9.2-4.86-20.79,4.38-7.38,5.88-18.75,18.08-26.79,28.16-.02-.01-.06-.02-.08-.06,8.03-10.1,17.4-23.9,21.5-32.39,7.26-15.07,3.56-19.47-2.26-22.27-5.82-2.81-11.56-2.95-18.82,12.13-4.09,8.5-9.04,24.43-11.93,36.99-.02,0-.07-.01-.09-.01,2.86-12.58,5.31-29.08,5.31-38.51,0-16.72-5.24-19.08-11.69-19.08s-11.69,2.36-11.69,19.08c0,9.43,2.44,25.93,5.3,38.51-.02,0-.06.01-.08.01-2.9-12.56-7.83-28.49-11.93-36.99-7.27-15.07-13-14.92-18.82-12.14-5.84,2.81-9.52,7.21-2.26,22.28,4.09,8.5,13.46,22.29,21.49,32.39-.02.02-.06.03-.07.06-8.05-10.06-19.43-22.27-26.8-28.16-13.07-10.43-18.18-7.81-22.21-2.76-4.03,5.06-5.45,10.63,7.62,21.05,7.38,5.88,21.8,14.26,33.42,19.87-.01.02-.02.06-.03.08-11.63-5.59-27.15-11.64-36.36-13.75-16.31-3.72-19.77.85-21.21,7.14-1.43,6.3-.3,11.94,16.01,15.65,9.2,2.11,25.83,3.37,38.73,3.39v.09c-12.9.01-29.53,1.3-38.73,3.39-16.31,3.73-17.44,9.35-16.01,15.64,1.44,6.3,4.91,10.88,21.21,7.16,9.2-2.1,24.72-8.15,36.36-13.73.01.02.02.06.03.08-11.62,5.61-26.04,13.97-33.42,19.85-13.07,10.43-11.65,16-7.62,21.05,4.03,5.04,9.14,7.67,22.21-2.75,7.38-5.88,18.75-18.1,26.8-28.17.01.01.03.03.07.06-8.03,10.1-17.4,23.9-21.49,32.41-7.27,15.06-3.57,19.46,2.25,22.27,5.82,2.8,11.56,2.94,18.83-12.13,4.09-8.51,9.03-24.43,11.92-37,.03,0,.07.01.09.01-2.86,12.59-5.3,29.08-5.3,38.52,0,16.72,5.24,19.08,11.68,19.08s11.7-2.36,11.7-19.08c0-9.44-2.45-25.93-5.31-38.52.02,0,.06-.01.09-.01,2.88,12.58,7.83,28.49,11.93,37,7.26,15.06,12.99,14.91,18.82,12.13,5.82-2.81,9.51-7.21,2.26-22.27-4.11-8.51-13.47-22.31-21.5-32.41.02-.01.06-.03.07-.06,8.05,10.06,19.43,22.28,26.8,28.17,13.08,10.42,18.18,7.8,22.21,2.75,4.03-5.06,5.45-10.62-7.62-21.05-7.38-5.88-21.8-14.23-33.42-19.85.01-.02.02-.06.03-.08,11.63,5.57,27.15,11.64,36.36,13.73,16.31,3.73,19.77-.85,21.21-7.14,1.44-6.3.3-11.93-16.01-15.65-9.2-2.1-25.83-3.37-38.73-3.39,0-.01.01-.02.01-.03s-.01-.02-.01-.06c12.9-.01,29.53-1.29,38.73-3.39,16.31-3.72,17.45-9.35,16.01-15.64-1.44-6.3-4.91-10.87-21.21-7.16-9.2,2.11-24.72,8.15-36.36,13.75-.01-.02-.02-.06-.03-.08,11.62-5.61,26.04-13.98,33.42-19.86,9.92-7.91,11.48-13.01,9.92-17.23,9.1-4.5,27.03-11.62,41.96-6.62,9.19,3.06,16.04,10.42,20.37,21.86,14.98,39.51-9.05,119.62-16.95,143.74-1.31-2.11-2.72-3.92-4.09-5.46-7.34-8.2-17.77-12.76-28.7-12.47-18.07.47-33.33,15.1-34,32.62-.28,6.91,2.22,13.38,7,18.23,4.97,5.06,11.82,7.74,19.22,7.53.77-.01,1.51-.07,2.25-.16l-.31.2s19.15.33,26.1-11.35c5.6-9.42.67-19.17-6.36-17.09-3.31.98-5.27,3.63-5.41,7.07v.67c-1.12,7.74-8.18,13.97-16.43,14.19-5.59.14-10.72-1.85-14.42-5.61-3.51-3.56-5.34-8.31-5.14-13.4.54-14.18,12.97-26.01,27.67-26.38,8.98-.22,17.62,3.54,23.69,10.32,3.89,4.35,8.02,11.31,9.36,21.87.13,2.42-.02,14.01-.02,14.01-.09,1.2-.17,2.4-.23,3.58-.02.17-.02.32-.02.48-1.4,25.86.63,52.13,2.63,77.71.48,6.15.96,12.25,1.38,18.33.75,10.73,1.58,21.12,2.45,31.24-15.64-34.67-34.39-58.26-55.91-70.24-8.72-4.86-16.42-6.91-22.33-7.69-.94-6.52-2.76-12.69-5.95-18.61-4.64-8.63-12.17-16.71-24.21-24.53-16.64-10.8-43.81-7.5-56.85-4.76-22.56,4.73-42.02,14.89-65.24,13.89-14.41-.61-24.9-14.13-28.06-20.6-1.08-2.2-3.81-2.98-5.87-1.68-1.73,1.09-2.37,3.28-1.52,5.15,1.53,3.37,4.24,11.54,17.24,19.55,13.22,8.14,26.8,9.63,41.48,6.62,12.99-2.65,25.83-7.04,38.66-10.13,12.67-3.05,26.05-2.88,38.72-1.43,40.89,4.7,38.89,46.26,38.89,46.26,0,0,5.45,41.25-34.93,49.32-12.49,2.51-25.83,3.78-38.69,1.8-13.06-2.03-26.21-5.34-39.37-6.91-14.88-1.76-28.28.84-40.79,10.05-12.3,9.05-14.31,17.41-15.57,20.9-.69,1.92.13,4.05,1.95,5,2.15,1.14,4.8.12,5.7-2.15,2.64-6.71,11.95-21.05,26.27-22.87,23.04-2.93,43.29,5.6,66.16,8.45,13.22,1.65,40.57,2.67,56.26-9.45,22.69-17.56,27.4-34.73,26.57-54.7-.03-.83-.08-1.66-.13-2.48,5.12.84,11.65,2.78,19.01,6.97,16.35,9.32,40.13,31.89,60.61,86.44h0c.93,9.35,1.95,18.49,3.03,27.47-4.54-14.6-22.02-65.87-45.11-69.35-26.94-4.07-4.32,17.8-4.32,17.8,0,0,36.06,23.54,52.74,77.36v.03c1.12,8.51,2.2,17.09,2.95,25.66-9.25-61-80.19-109.06-130.18-58.58-18.58,18.53-20.05,52.24,6.01,64.81,17.07,9.52,39.04,6.89,55.93-1.7,14.18-8.71-1.96-34.74-13.69-19.57-5.16,8.27,1.21,18.84-13.68,17.4-69.76.35-35.1-75.82,14.76-74.08,20.2,1.51,37.52,12.02,50.42,26.87-8.29-7.82-17.65-13.38-27.4-15.62-20.19-4.63-41.99.96-56.76,15.1-2.78,2.12-8.26,8.02-7.97,16.26.39,10.68,13.47,7.26,14.61,3.82,1.14-3.43-.43-8.4-1.49-9.54-.37-.39-.78-1.31-.81-2.52-.03-1.53.68-3.01,1.82-4.03,13.14-11.91,31.57-16.79,49.13-12.76,28.25,6.48,52.56,48,54.68,83.33,0,0,.71,11.9.86,16.76.13,3.79.24,7.59.37,11.38v.03c-.13.5-.28.94-.41,1.44-3.33,11.44-8.32,19.28-14.88,23.3,3.26,0,7.16,0,10.06,0,4.72-5.17,8.42-12.36,11.06-21.49,3.59-12.44,4.99-25.17,5.07-37.99v-.03c8.28-35.68,41.12-68.23,69.67-68.72.31-.01.63-.01.94-.01,17.64,0,34.23,8.51,44.44,22.58,1.13,1.55,1.46,3.65.66,5.4-.3.64-.67,1.09-.97,1.3-1.28.9-3.85,5.41-3.43,9.02.4,3.58,12.51,9.65,15.09-.71,2-8-3.28-14.36-5.06-17.35-11.33-16.62-30.4-26.73-50.72-26.73-.35,0-.7,0-1.05.01-10,.17-20.3,3.67-30.03,9.6,15.7-11.85,34.8-18.56,54.9-15.85,49.15,8.61,67.3,90.31-.9,75.53-14.84-1.68-6.45-10.71-9.79-19.85-8.33-17.27-29.52,4.86-17.44,16.31,14.74,11.9,35.69,19.02,54.36,13.24,28.11-6.91,33.65-40.2,19.29-62.17-39.43-61.22-121.87-25.66-141.02,34.85-.63-7.17-1.5-14.33-2.42-21.45h0c13.7-47.76,43.15-70.86,43.15-70.86,0,0,20.66-23.73-5.84-17.35-23.31,5.61-36.38,60.84-39.19,74.08-.07-.48-.13-.94-.2-1.43-.81-6.09-1.55-12.24-2.3-18.48h0c20.38-53.86,43.97-76.18,60.23-85.45,7.36-4.18,13.89-6.14,19.01-6.97-.06.82-.09,1.64-.13,2.46-.83,19.98,3.88,37.14,26.57,54.7,15.68,12.15,43.01,11.11,56.26,9.45,22.87-2.86,43.09-11.37,66.16-8.44,14.31,1.81,23.63,16.15,26.27,22.85.89,2.29,3.54,3.32,5.7,2.17,1.82-.94,2.64-3.07,1.95-5-1.23-3.5-3.25-11.86-15.55-20.92ZM433.67,188.49c-1.54,2.4-5.09,2.82-7.9.98-2.83-1.84-3.87-5.25-2.33-7.62s5.09-2.81,7.92-.98c2.82,1.84,3.86,5.26,2.3,7.62ZM423.42,216.36c-.37,2.81-3.36,4.74-6.7,4.3-3.34-.43-5.76-3.06-5.4-5.87.37-2.82,3.36-4.74,6.73-4.32,3.33.46,5.75,3.06,5.38,5.9ZM422.09,252.69c-3.2,1.05-6.51-.26-7.4-2.95-.9-2.71.96-5.73,4.18-6.79,3.18-1.07,6.51.26,7.4,2.95.89,2.68-.99,5.72-4.18,6.79ZM440.84,279.2c-2.43,2.35-5.99,2.6-7.97.56s-1.61-5.59.81-7.93c2.43-2.34,5.99-2.59,7.97-.54,1.96,2.03,1.61,5.57-.81,7.91ZM469.23,294.97c-1.17,3.17-4.26,4.94-6.92,3.95-2.66-.98-3.87-4.33-2.72-7.5,1.17-3.16,4.26-4.93,6.93-3.95,2.65.97,3.87,4.34,2.71,7.5ZM524.14,281.92c2.41-1.46,5.78-.32,7.53,2.56,1.74,2.88,1.2,6.4-1.22,7.88-2.44,1.46-5.82.32-7.57-2.56-1.75-2.89-1.2-6.39,1.26-7.88ZM545.44,261.27c1.54-2.36,5.08-2.81,7.91-.98,2.82,1.84,3.85,5.26,2.31,7.62-1.55,2.4-5.09,2.82-7.91.98-2.83-1.82-3.86-5.24-2.31-7.62ZM555.69,233.43c.37-2.81,3.36-4.73,6.7-4.3,3.35.43,5.76,3.05,5.39,5.87-.37,2.82-3.35,4.74-6.71,4.3-3.33-.44-5.73-3.04-5.38-5.87ZM557.01,197.09c3.21-1.05,6.52.26,7.4,2.94.9,2.72-.96,5.76-4.17,6.81-3.18,1.07-6.51-.26-7.4-2.96-.89-2.67.99-5.71,4.17-6.78ZM538.27,170.59c2.43-2.35,5.99-2.6,7.97-.56,1.98,2.04,1.61,5.6-.82,7.93-2.42,2.35-5.98,2.59-7.95.54s-1.62-5.57.79-7.91ZM509.89,154.82c1.15-3.17,4.25-4.94,6.92-3.95,2.66.98,3.87,4.33,2.71,7.5-1.15,3.16-4.26,4.93-6.92,3.94-2.67-.96-3.87-4.33-2.71-7.49ZM463.6,228.57c-.38-2.64,1.46-5.07,4.09-5.46,2.65-.37,5.09,1.46,5.47,4.11s-1.46,5.09-4.11,5.47c-2.63.37-5.07-1.46-5.45-4.12ZM477.54,243.25c-1.91,1.84-4.96,1.8-6.82-.13-1.85-1.91-1.81-4.96.1-6.81,1.92-1.87,4.97-1.82,6.83.1,1.85,1.91,1.81,4.95-.12,6.83ZM490.62,246.8c-.47,2.63-2.96,4.38-5.6,3.93-2.63-.45-4.38-2.96-3.93-5.59.45-2.64,2.97-4.39,5.6-3.94,2.63.46,4.38,2.97,3.93,5.6ZM501.65,296.83c.32,3.37-1.7,6.31-4.53,6.58-2.83.28-5.38-2.22-5.69-5.59-.33-3.34,1.69-6.28,4.53-6.55,2.81-.26,5.35,2.22,5.69,5.56ZM501.07,248.43c-2.4,1.19-5.29.18-6.46-2.21-1.17-2.4-.18-5.27,2.22-6.46,2.4-1.17,5.29-.18,6.46,2.22,1.17,2.4.18,5.29-2.22,6.45ZM512.71,237.17c-1.23,2.36-4.17,3.26-6.52,2.02-2.36-1.26-3.25-4.17-2.02-6.53,1.24-2.35,4.18-3.25,6.53-2,2.35,1.23,3.25,4.16,2,6.52ZM515.5,221.21c.38,2.64-1.46,5.09-4.1,5.47-2.64.37-5.09-1.46-5.46-4.12-.38-2.64,1.45-5.08,4.11-5.46,2.64-.36,5.08,1.47,5.45,4.11ZM501.56,206.56c1.91-1.85,4.96-1.82,6.82.1,1.85,1.92,1.81,4.97-.12,6.83-1.91,1.84-4.96,1.81-6.83-.12-1.85-1.91-1.8-4.96.13-6.82ZM499.03,234.69c-5.4,5.24-14.05,5.09-19.28-.31-5.25-5.41-5.1-14.06.31-19.29,5.4-5.24,14.05-5.1,19.28.31,5.25,5.41,5.1,14.04-.31,19.29ZM488.48,202.99c.47-2.61,2.96-4.39,5.59-3.94,2.64.48,4.39,2.97,3.93,5.61-.45,2.61-2.95,4.38-5.59,3.92-2.64-.45-4.39-2.95-3.93-5.59ZM477.46,152.94c-.32-3.35,1.7-6.29,4.53-6.58,2.83-.28,5.38,2.23,5.7,5.59.32,3.36-1.7,6.3-4.54,6.56-2.82.26-5.34-2.22-5.69-5.57ZM478.04,201.34c2.4-1.17,5.29-.18,6.46,2.22,1.17,2.4.18,5.29-2.21,6.46-2.41,1.17-5.3.17-6.47-2.21-1.17-2.41-.17-5.3,2.22-6.47ZM472.91,210.61c2.36,1.24,3.26,4.17,2.02,6.53-1.26,2.35-4.17,3.25-6.53,2-2.35-1.24-3.25-4.17-2-6.52,1.24-2.37,4.17-3.27,6.52-2.02ZM448.67,157.43c2.42-1.49,5.79-.33,7.54,2.56,1.74,2.87,1.2,6.4-1.23,7.88-2.42,1.46-5.79.32-7.53-2.56-1.75-2.88-1.21-6.43,1.22-7.88ZM190.42,68.81c1.46-3.04,4.72-4.5,7.28-3.27,2.56,1.23,3.44,4.69,1.97,7.73-1.45,3.03-4.72,4.49-7.27,3.26-2.55-1.23-3.43-4.7-1.98-7.72ZM134.54,76.52c-2.56,1.23-5.82-.23-7.28-3.26-1.46-3.04-.59-6.49,1.99-7.73,2.55-1.23,5.79.23,7.27,3.27,1.45,3.02.56,6.48-1.98,7.72ZM111.34,95.02c-1.78,2.22-5.34,2.31-7.97.22-2.65-2.11-3.35-5.6-1.58-7.82,1.76-2.22,5.33-2.31,7.97-.21,2.65,2.11,3.35,5.6,1.58,7.81ZM98.46,121.76c-.63,2.76-3.81,4.4-7.09,3.65-3.28-.74-5.45-3.58-4.8-6.37.63-2.75,3.81-4.39,7.09-3.64,3.28.76,5.42,3.6,4.8,6.36ZM93.66,157.8c-3.28.75-6.46-.88-7.09-3.65-.63-2.75,1.52-5.6,4.8-6.36,3.28-.75,6.46.89,7.08,3.64.63,2.78-1.51,5.62-4.79,6.37ZM109.77,185.99c-2.64,2.11-6.2,2.02-7.98-.21-1.76-2.21-1.07-5.7,1.59-7.82,2.63-2.1,6.18-2,7.95.22,1.78,2.22,1.08,5.71-1.55,7.81ZM136.52,204.4c-1.46,3.04-4.72,4.5-7.28,3.27s-3.44-4.68-1.97-7.73c1.45-3.03,4.72-4.49,7.27-3.26,2.55,1.23,3.43,4.69,1.98,7.72ZM192.4,196.68c2.56-1.23,5.82.23,7.28,3.26,1.46,3.05.59,6.49-1.97,7.73s-5.8-.23-7.28-3.27c-1.46-3.03-.58-6.48,1.97-7.72ZM215.6,178.19c1.78-2.22,5.34-2.31,7.98-.22,2.64,2.12,3.34,5.61,1.58,7.83-1.76,2.21-5.34,2.3-7.98.2-2.65-2.1-3.35-5.59-1.58-7.81ZM172.13,116.47c1.58-2.15,4.58-2.64,6.76-1.08,2.15,1.58,2.63,4.59,1.07,6.76-1.58,2.15-4.58,2.64-6.75,1.07-2.18-1.58-2.64-4.59-1.08-6.75ZM163.48,57.72c2.83,0,5.14,2.73,5.14,6.1s-2.3,6.09-5.14,6.09-5.15-2.73-5.15-6.09,2.29-6.1,5.15-6.1ZM168.29,115.23c0,2.66-2.15,4.84-4.83,4.84s-4.84-2.17-4.84-4.84,2.15-4.84,4.84-4.84,4.83,2.16,4.83,4.84ZM148.07,115.39c2.15-1.55,5.17-1.08,6.75,1.08,1.58,2.15,1.09,5.17-1.07,6.75-2.15,1.58-5.18,1.09-6.76-1.07-1.55-2.15-1.08-5.18,1.08-6.76ZM138.55,128.51c.82-2.53,3.55-3.93,6.08-3.1,2.53.82,3.93,3.55,3.11,6.08-.83,2.53-3.55,3.93-6.09,3.11-2.55-.84-3.94-3.56-3.1-6.09ZM144.63,147.81c-2.53.82-5.26-.58-6.08-3.11-.83-2.53.56-5.26,3.1-6.08,2.55-.83,5.26.56,6.09,3.09.81,2.56-.58,5.27-3.11,6.1ZM154.81,156.74c-1.58,2.15-4.58,2.64-6.75,1.07-2.15-1.58-2.64-4.58-1.08-6.75,1.58-2.15,4.59-2.64,6.76-1.08,2.17,1.58,2.65,4.61,1.07,6.76ZM163.46,215.5c-2.83,0-5.14-2.73-5.14-6.1s2.3-6.09,5.14-6.09,5.15,2.73,5.15,6.09-2.3,6.1-5.15,6.1ZM158.64,157.99c0-2.67,2.15-4.84,4.84-4.84s4.83,2.15,4.83,4.84-2.15,4.83-4.83,4.83-4.84-2.15-4.84-4.83ZM163.48,150.25c-7.53,0-13.65-6.1-13.65-13.65s6.1-13.65,13.65-13.65,13.65,6.1,13.65,13.65c-.01,7.54-6.11,13.65-13.65,13.65ZM178.89,157.81c-2.17,1.58-5.18,1.09-6.76-1.07-1.55-2.15-1.09-5.18,1.08-6.76,2.15-1.55,5.17-1.08,6.75,1.08,1.54,2.15,1.08,5.17-1.07,6.75ZM188.39,144.7c-.82,2.53-3.55,3.93-6.08,3.11-2.53-.83-3.93-3.55-3.11-6.09.83-2.53,3.56-3.93,6.09-3.09,2.55.81,3.94,3.54,3.1,6.07ZM185.3,134.6c-2.53.82-5.26-.58-6.09-3.11-.82-2.53.58-5.26,3.11-6.08,2.53-.83,5.26.56,6.08,3.1.83,2.53-.56,5.25-3.1,6.09ZM228.49,151.45c.62-2.76,3.79-4.4,7.08-3.65,3.28.75,5.45,3.59,4.8,6.37-.62,2.76-3.79,4.39-7.09,3.64-3.27-.75-5.42-3.59-4.79-6.36ZM233.28,115.4c3.31-.75,6.47.89,7.09,3.65.63,2.75-1.52,5.61-4.8,6.36-3.28.75-6.46-.89-7.08-3.64-.63-2.76,1.52-5.61,4.79-6.37ZM223.57,95.24c-2.64,2.1-6.2,2-7.97-.21-1.78-2.22-1.08-5.71,1.55-7.82,2.64-2.11,6.2-2.02,7.97.2h.01c.2.25.37.53.5.81l.02.06c1.06,2.19.24,5.11-2.08,6.97ZM344.99,206.16c-3.89,0-7.04,3.16-7.04,7.04s3.16,7.04,7.04,7.04,7.04-3.16,7.04-7.04c.01-3.89-3.14-7.04-7.04-7.04ZM344.99,188.39c-3.89,0-7.04,3.16-7.04,7.04s3.16,7.04,7.04,7.04,7.04-3.16,7.04-7.04-3.14-7.04-7.04-7.04ZM274.55,183.49c3.89,0,7.04-3.16,7.04-7.04s-3.16-7.04-7.04-7.04-7.04,3.16-7.04,7.04c0,3.88,3.14,7.04,7.04,7.04ZM362.53,186.36c-3.89,0-7.04,3.16-7.04,7.04s3.16,7.04,7.04,7.04,7.04-3.16,7.04-7.04c.01-3.89-3.14-7.04-7.04-7.04ZM362.53,204.45c-3.89,0-7.04,3.16-7.04,7.04s3.16,7.04,7.04,7.04,7.04-3.16,7.04-7.04-3.14-7.04-7.04-7.04Z"/>
  </g>
</svg>