<?xml version="1.0" encoding="UTF-8"?>
<svg xmlns="http://www.w3.org/2000/svg" version="1.1" viewBox="0 0 400.39 593.15">
  <!-- Generator: Adobe Illustrator 30.5.1, SVG Export Plug-In . SVG Version: 2.1.4 Build 3)  -->
  <defs>
    <style>
      .st0 {
        fill: #fff;
      }

      .st1 {
        stroke: #fff;
        stroke-miterlimit: 10;
      }
    </style>
  </defs>
  <g id="Layer_1">
    <path class="st0" d="M112.54,285.7c3.11,3.32,5.31,7.59,6.71,13.07.21.82.41,1.65.6,2.49l.14.61c1.18,5.08,2.4,10.34,6.17,14.45,3.56,3.88,9.11,5.97,15.21,5.76,2.78-.1,5.16-.68,7.27-1.77,1.85-.96,3.49-2.31,5.13-4.23-.11.45-.19.9-.24,1.32-.57,4.69.44,9.29,2.85,12.96,2.43,3.69,5.98,6,10,6.48.53.06,1.06.1,1.58.1,3.48,0,6.86-1.39,9.68-3.99,3.22-2.98,5.3-7.21,5.87-11.9.42-3.45-1.07-8.11-4.42-13.88.43-.19.86-.39,1.28-.61.11-.06.21-.12.32-.18,2.18,5.22,4.59,8.86,7.19,10.81,7.82,5.88,18.25,5.24,23.26-1.41h0c5-6.66,2.7-16.86-5.11-22.73-2.79-2.09-7.53-3.12-14.24-3.11.07-.62.12-1.21.13-1.78,5.62.72,9.99.45,12.97-.82,4.34-1.85,7.82-5.03,9.79-8.95,1.98-3.95,2.2-8.17.61-11.9-1.59-3.73-4.79-6.5-9.01-7.8-3.97-1.23-8.39-1.02-12.54.58v-.02l-.7.3c-3.2,1.36-6.5,4.98-9.82,10.78-.47-.35-.97-.68-1.48-1,3.44-4.52,5.39-8.44,5.78-11.65.57-4.69-.44-9.29-2.85-12.96-2.43-3.69-5.98-5.99-10-6.48-4.02-.49-8.02.9-11.26,3.9-3.22,2.98-5.3,7.21-5.87,11.9-.19,1.54.03,3.34.6,5.35-1.7-3.43-6.8-15.14-5.98-31.09.15-3.01-.13-7.03-2.37-9.09-1.18-1.09-2.77-1.52-4.71-1.27-3.13.4-5.16,2.15-6.04,5.2-2.67,9.26,6.33,27.55,10.64,31.11l8.26,6.82.39-.44.16-.09c.75,2.21,1.89,4.67,3.47,7.38-.43.19-.86.39-1.28.61-.11.06-.21.12-.32.18-2.18-5.22-4.59-8.86-7.19-10.81-7.81-5.87-18.25-5.24-23.26,1.41-5,6.66-2.71,16.86,5.11,22.73,2.79,2.09,7.56,3.11,14.24,3.11-.07.62-.12,1.21-.13,1.78-5.63-.72-9.99-.45-12.96.82-4.35,1.85-7.82,5.03-9.79,8.95-1.98,3.95-2.2,8.17-.61,11.9,1.59,3.73,4.79,6.5,9.01,7.8,4.19,1.3,8.89.99,13.24-.87,1.06-.45,2.13-1.15,3.21-2.11-2.51,3.06-5.33,4.83-10,4.99-5.03.18-9.55-1.5-12.38-4.59-3.13-3.41-4.25-8.21-5.32-12.85-.24-1.05-.48-2.1-.74-3.12-1.47-5.76-3.78-10.37-7.05-14.07,1.99-4.78,7.4-19.72,2.85-30.88-5.43-13.32-17.69-29.21-17.82-29.37l-.35-.46-.4.41c-.19.2-19.41,20.41-10.14,41.59,7.31,16.71,18.15,19.99,22.67,20.62Z"/>
    <path class="st0" d="M399.84,60.74c-6.59-1.35-14.09-1.96-22.29-1.81h0c-5.34.11-12.62.25-17.36,3.58-3.07,2.15-5.39,5.57-6.9,10.15-1.4,4.3-2.05,9.23-1.86,14.26-4.62,4.08-8.64,7.92-11.49,10.73l.89-4.13c.6-2.79,1.3-5.67,1.94-8.3,1.63-6.71,3.31-13.65,3.87-20.53.11-1.39.16-2.76.19-3.85,3.66-2.74,11.47-10.76,10.14-28.64-1.72-23.05-28.15-31.93-28.41-32.02l-.55-.18-.1.57c-.04.2-3.45,19.98-2.02,34.3,1.22,12.26,13.28,22.98,17.27,26.21-.04,1.29-.09,2.35-.17,3.32-.55,6.66-2.21,13.47-3.81,20.05l-.17.69c-.61,2.51-1.23,5.1-1.78,7.62l-.9,4.15c-1.44-3.72-3.52-8.87-6.07-14.53,2.24-4.52,3.68-9.28,4.16-13.77.51-4.8-.2-8.86-2.12-12.09-2.95-4.97-9.31-7.99-14.42-10.42-7.4-3.5-14.49-6.03-21.06-7.52l-.55-.12-.06.56c-.68,6.63-.54,14.11.42,22.22.63,5.31,1.48,12.57,5.28,16.98,2.45,2.85,6.08,4.82,10.78,5.86,4.44.97,9.44,1.12,14.47.42,4.2,9.38,7.02,17.07,7.66,18.85l-16.74,12.85-7.14-7.09-5.28,10.43-7.1-8.15-3.83,10.38-8.25-6.94-1.42,8.7-10.76-4.57-.03,10.23-11.39-3.4,3.28,11.86-12.91-3.75,5.83,10.94-13.68.48,7.37,9.74-12.83,3.17,9.94,8.54c-1.99,1.11-7.88,4.73-10.06,9.86-2.84,6.68,1.55,14.22,10.93,18.75,6.89,3.35,19.36-2.4,26.18-6.12,2.79-1.52,6.27-.98,8.46,1.32l.71.75c1.19,1.24,1.97,2.78,2.26,4.46.31,1.67.12,3.39-.55,4.97-.85,1.99-2.41,3.6-4.4,4.51l-10.69,4.91c-9.14,4.2-14.05,14.01-11.94,23.85l6.02,27.92c-1.71,1.95-16.03,18.37-26.27,34.45-.25-.69-.51-1.45-.8-2.36.42-2.14,2.23-9.08,8.81-16.43,1.34-1.5,2.88-3.73,2.62-5.88-.14-1.19-.81-2.2-1.99-3.01-1.21-.83-2.45-1.12-3.66-.85-1.74.39-3.39,1.89-4.9,4.47-1.56,2.64-2.95,6.42-3.75,10.1-.5-2.31-.99-4.64-1.47-6.96l-.31-1.48c.99-3.43,3.45-10.1,8.97-17.05,1.03-1.27,2.71-3.77,2.33-6.21-.2-1.27-.94-2.32-2.19-3.13-1.27-.8-2.51-1.04-3.69-.71-1.71.47-3.23,2.06-4.66,4.87-1.56,3.09-2.68,7.06-3.34,10.39-.69-2.99-1.38-5.78-2.09-8.46.79-3.46,2.82-10.29,7.59-18.01.6-.94,1.64-2.81,1.76-4.86.14-2.13-.81-3.77-2.74-4.74-1.35-.68-2.61-.79-3.75-.33-1.63.66-2.99,2.5-4.03,5.47-.68,1.85-1.26,4.16-1.66,6.66-.27,1.39-.45,2.78-.58,4.12-.85-2.6-1.82-5.33-2.93-8.25.39-3.55,1.55-10.66,5.01-19.19.5-1.27,1.55-4.48.38-6.97-.59-1.26-1.64-2.14-3.14-2.63-1.45-.47-2.71-.38-3.75.26-1.51.93-2.49,2.97-3,6.24-.24,1.72-.52,4.31-.48,6.91-.02,1.51,0,2.91.05,4.18-.47-.95-.95-1.9-1.45-2.85-.34-.59-.67-1.19-1-1.79-.56-1.01-1.14-2.06-1.77-3.08-.37-6.58-.06-13.35.92-20.1.2-1.42.28-3.51-.42-5.38-.69-2.03-2.41-3.33-4.71-3.57-1.53-.14-2.74.23-3.59,1.08-1.25,1.25-1.7,3.5-1.38,6.89.37,3.53,1.27,7.66,2.16,11-2.06-2.57-3.97-4.71-5.89-6.62-1.12-3.77-3.15-10.7-4.39-19.84-.17-1.16-.64-3.36-1.92-5.09-1.29-1.82-3.25-2.59-5.53-2.16-1.52.29-2.59.98-3.18,2.05-.85,1.55-.66,3.83.59,6.97.84,2,1.86,4.31,3.03,6.34.33.59.66,1.19.98,1.78.35.64.69,1.26,1.03,1.86-1.19-.86-2.42-1.7-3.73-2.54-.1-.43-.29-.81-.56-1.12l-5.74-6.9c-.46-.56-1.12-.9-1.79-.97l-11.31-2.48c-1.14-.11-2.18.46-2.7,1.48-.52,1.02-.38,2.19.4,3.08l8.94,8.73c.47.54,1.13.88,1.86.94l8.01.61c.38.03.75-.02,1.11-.16,1.18.76,2.32,1.54,3.42,2.34-1.31-.28-2.64-.47-4.04-.5-2.48-.02-4.5.09-6.37.7-4.25,1.29-6.32,3.94-5.68,7.25.35,1.8,1.35,2.69,3.07,2.74,1.41,0,3.08-.71,4.21-1.25,6.56-3.04,13.41-2.66,17.68-1.29,1.83,1.83,3.65,3.87,5.62,6.32-2.9-1.43-6.66-2.7-10.07-2.61-4.44.05-7.15,2.02-7.44,5.4-.23,2.41,1.15,3.15,2.23,3.51,1.05.31,2.5.3,4.42,0,8.76-1.32,15.58,2.21,17.61,3.43.59.95,1.15,1.95,1.68,2.92.33.6.66,1.2,1,1.77.48.92.94,1.83,1.4,2.75-.95-.76-2.07-1.58-3.31-2.33-1.63-.94-3.79-2.08-5.96-2.57-4.5-1.09-7.53.13-8.56,3.44-.37,1.19-.28,2.21.27,3.03,1.08,1.62,3.7,2.02,5.58,2.19,8.18.77,14,4.77,16.79,7.15,1.08,2.85,2.02,5.51,2.85,8.05-.85-.91-1.83-1.86-2.92-2.82-1.86-1.56-3.75-2.81-5.49-3.62-4.34-1.95-7.56-1.3-9.08,1.84-.84,1.76-.57,3.26.79,4.48,1.15,1.01,2.95,1.61,4.21,1.98,7.57,2.08,12.78,6.37,15.84,9.65.69,2.63,1.37,5.38,2.05,8.35-1.99-2.58-4.8-5.54-7.75-7.36-2.36-1.47-4.52-2.02-6.25-1.6-1.24.3-2.24,1.08-2.98,2.32-.69,1.13-.87,2.23-.54,3.26.5,1.53,2.1,2.85,4.89,4.02,7.34,2.98,12.3,7.68,15.18,11.13l.5,2.41c.42,2.02.84,4.05,1.28,6.07-1.67-2.27-4.41-5.58-7.52-7.8-2.38-1.7-4.48-2.39-6.23-2.06-1.24.24-2.26.98-3.06,2.21-.74,1.15-.96,2.3-.64,3.42.59,2.08,2.92,3.58,4.78,4.47,7.69,3.69,12.85,8.84,15.63,11.62.56,1.74,1.14,3.44,1.91,5.13-4.47,7.5-7.19,13.71-8.04,18.38-5,13.45-7.03,28.12-6.06,43.66-3.82-8.73-9.1-14.77-15.74-17.98l-.21-.05c-.09,0-.76.02-1.27.78-1.33,1.97-.32,6.93,2.98,14.75,1.25,2.96,3.08,5.62,5.42,7.9,3.12,3.05,7.3,7.49,10.42,12.16-11.1-12.63-42.07-41.09-90.58-33.79-4.23-5.33-7.61-10.68-10.03-15.9-2.09-4.49-2.58-9.38-3.05-14.11-.51-5.11-1.03-10.4-3.55-15.32-4.19-8.22-13.12-14.18-23.31-15.56-8.82-1.18-18.7.98-27.84,6.06-7.73,4.29-13.73,10.08-20.09,16.21-.89.86-1.79,1.73-2.69,2.59-6.34,6.02-13.3,11.32-21.27,9.38l-.12.49-.12.49c7.97,1.95,11.72,9.85,14.58,18.11.42,1.21.83,2.42,1.23,3.63,2.81,8.34,5.47,16.21,10.34,23.55,5.79,8.73,13.58,15.19,21.93,18.19,9.66,3.46,20.34,2.28,27.86-3.09,4.49-3.21,7.38-7.66,10.18-11.97,2.59-3.99,5.27-8.11,9.2-11.15,4.51-3.48,9.95-6.67,16.16-9.47,4.49,2.1,15.44,7.04,28.52,11.5-19.56.3-38.52,6.26-52.41,16.56l-.96.71c-6.33,4.7-11.8,8.75-17.21,14.74l-4.41,4.88c-1.86.53-9.93,2.77-19.95,4.85-2.38-4.5-5.42-8.46-8.81-11.5-3.6-3.21-7.32-5.01-11.06-5.33-5.78-.49-12.19,3.05-16.87,5.64-7.16,3.97-13.31,8.22-18.28,12.64l-.42.38.42.37c5.05,4.47,11.24,8.74,18.41,12.69,4.67,2.59,11.07,6.12,16.88,5.61,3.75-.33,7.46-2.13,11.05-5.35,3.36-3.02,6.38-6.96,8.74-11.42,5-1.02,10.15-2.21,15.34-3.56l-2.84,3.15c-1.92,2.12-3.82,4.34-5.61,6.43-4.41,5.15-8.97,10.47-14.05,14.8-.81.69-1.68,1.39-2.59,2.08-4.97-1.34-20.74-4.84-31.37,1.3-12.45,7.21-26.51,21.54-26.65,21.68l-.4.41.47.34c.23.17,22.88,16.42,42.59,4.34,15.28-9.37,17.23-20.4,17.32-24.96,1.02-.76,2.03-1.58,3.02-2.42,5.25-4.48,9.9-9.91,14.44-15.21l.42-.49c1.68-1.95,3.41-3.97,5.13-5.87l2.83-3.13c-.54,3.49-1.34,9.11-1.99,15.6-4.2,2.8-7.82,6.2-10.48,9.84-2.84,3.89-4.25,7.76-4.21,11.53.07,5.83,4.24,11.83,7.29,16.22,4.67,6.74,9.54,12.47,14.49,17.03l.41.38.33-.46c3.94-5.45,7.45-11.82,10.73-19.47,1.34-3.12,2.99-6.97,3.74-10.82l13.32,3.4-7.92,12.05,14.39-.93-3.8,13.91,13.4-5.33.69,14.4,11.09-9.21,5.1,13.49,7.7-12.2,9.02,11.25,3.56-13.97,12.05,7.92-.93-14.39,13.91,3.81-5.33-13.4,9.31-.44c5.98,3.84,12.04,7.93,18.44,12.45-3.7-.94-8.22-1.64-12.03-1.37-3.2.23-5.34,1.1-6.38,2.58-.73,1.04-.88,2.35-.45,3.88.69,2.47,2.88,5.08,9.35,3.47,8.93-2.27,16.93-1.14,20.97-.24,2.69,2.01,5.34,4.14,7.92,6.36-4.03-1.42-8.4-2.2-11.73-2.05-3.22.12-5.4.91-6.49,2.34-.76,1.01-.95,2.3-.57,3.85.31,1.18.75,2.02,1.39,2.63.58.55,1.31.94,2.27,1.18,1.34.3,3.04.25,5.04-.16,9.14-1.93,17.2.62,20.34,1.85,2.16,2.19,4.38,4.54,7,7.44-3.35-1.68-7.66-3.34-11.4-3.75-3.01-.35-5.3.12-6.61,1.36-.94.89-1.37,2.14-1.28,3.7.18,3.55,2.94,5.25,8.2,5.03,8.95-.41,16.59,2.5,20.4,4.32,2.2,2.65,4.23,5.34,6.07,8.02-5.41-3.68-12.83-6.17-16.57-4.45-1.6.74-2.44,2.19-2.44,4.17-.06,1.38.3,2.51,1.09,3.37,1.48,1.61,4.12,1.9,6.26,1.98,4.99.14,8.93,1.45,11.35,2.53,3.29,1.44,5.74,3.24,7.25,4.51,1.42,3.02,2.65,6.15,3.67,9.34-2.64-3.22-6.05-6.02-9.06-7.33-2.57-1.14-4.79-1.36-6.44-.64-1.21.53-2.08,1.55-2.57,3.02-.63,1.9-.23,3.45,1.2,4.59,1.18.98,2.92,1.58,4.31,2,9.11,2.54,14.21,9.65,15.64,11.92.46,3.42,1.04,6.86,1.6,10.21-.77-1.31-1.63-2.64-2.53-3.93-.77-1.11-1.56-2.18-2.35-3.19l-.22-.28c-.74-.93-1.5-1.88-2.25-2.48-2.09-1.87-4.17-2.75-5.98-2.54-1.33.15-2.45.87-3.33,2.11-.65.89-.96,1.74-.94,2.59,0,.11,0,.23.03.33l.05.39c.04.26.11.52.18.77.15.5.35.98.6,1.43.81,1.45,2.13,2.78,3.95,3.95,9.03,5.79,13.66,12.7,14.95,14.83.25,1.99.43,4.01.55,6-.75.88-1.44,1.6-2.23,2.4l-.81.83c-3.29,3.42-6.79,6.66-6.83,6.69l-.94.87h4.8l5.43-5.24c.24-.26.48-.51.75-.79,2.04-2.09,5.12-5.26,11.99-17.82l.37-.69c.31-.58.62-1.14.92-1.71.68-.41,1.33-.78,1.89-1.09,2.33-.24,5.5-.35,9.45-.31,4.14,0,9.04-.05,14.78-.64,1.12-.16,2.24-.45,3.34-.86,1.06-.39,2.44-.97,3.62-1.99,1.22-1,2.22-2.13,3.01-3.41.76-1.49,1.16-3.06,1.21-4.66.02-.76-.04-1.42-.17-1.99-.16-.55-.4-1.01-.7-1.37-.57-.7-1.35-1-2.36-1.01-1.42.06-3.55.91-6.33,2.52l-.92.49c-2.17,1.17-4.62,2.49-7.08,3.49l-.98.45-1.06.38c-.68.25-1.36.5-2.03.75-.25.09-.5.18-.74.26,3.27-2.54,5.88-5.38,7.79-8.48.34-.28.73-.58,1.16-.9.69-.53,1.48-1.12,2.27-1.82l2.03-1.84c.37-.33.75-.67,1.14-1.03.27-.25.52-.51.78-.78l.33-.34c.54-.57,1.13-1.16,1.75-1.78,1.02-1.03,2.08-2.09,3.04-3.17,1.05-1.15,2.28-2.41,3.47-3.63.62-.63,1.23-1.26,1.81-1.87.93-.94,2.62-2.89,3.5-5.43.35-1.18.45-2.33.32-3.41-.14-1.17-.51-2-1.23-3.67l-.13-.3c-.31-.64-.76-1.31-1.3-1.91l-.26-.21c-.4-.32-.71-.58-1.11-.72-.89-.36-1.76-.19-2.59.52-.45.41-.77.8-.92,1.11-.22.28-.42.6-.63.94-.11.17-.22.34-.33.52-.38.57-.75,1.2-1,1.65l-.28.41c-.25.36-.49.71-.72,1.1-.62,1-1.26,2.17-1.89,3.45-.81,1.5-1.44,2.72-2,3.85-.59,1.33-1.29,2.66-1.96,3.95-.1.18-.19.37-.28.55l.15-1.05c.06-.4.12-.8.16-1.23l.24-5.4c0-.76-.03-1.53-.06-2.29-.01-.4-.03-.79-.04-1.19l.69-1.8c.07-.21.15-.42.24-.64.21-.55.46-1.17.55-1.8l.14-.59c.06-.26.12-.53.2-.83.06-.34.1-.69.14-1.06l.05-.46c.13-1.08.19-2.23.17-3.39l.03-.8c.18-4.2.36-8.54,1.15-13.12.36-2.02,1.09-8.75-4.49-10.35-1.61-.46-2.94-.3-3.95.47-1.43,1.09-2.13,3.39-2.09,6.82.05,3.72.93,8.25,1.98,12.78-1.97-3.08-4.12-6.04-6.32-9.03-.76-3.21-1.23-6.21-1.44-9.17-.14-2.08-.13-4.08.03-5.94.09-.91.25-1.9.49-3.01.1-.4.24-.77.38-1.15l.08-.22c.06-.15.12-.3.18-.46.11-.29.22-.59.37-.76.21-.22.42-.47.62-.71l.09-.09c.19-.2.43-.45.56-.89.35-.88.54-1.62.6-2.26.08-.73-.06-1.42-.42-2.12-.35-.71-1-1.25-1.98-1.66-1.47-.64-2.85-.69-4.11-.15-1.64.7-2.96,2.33-3.9,4.85-.46,1.12-.65,2.3-.81,3.41-.08.6-.15,1.23-.2,1.87-.06.81-.09,1.41-.08,1.88.01,1.29.24,2.81.7,4.56-.71-1.03-1.42-2.11-2.06-3.2-.37-.59-.67-1.27-.99-1.98-.15-.34-.3-.68-.45-.99-.16-.37-.33-.74-.5-1.1-.31-.65-.59-1.27-.8-1.92.09-1.29.25-2.58.47-3.83.33-1.46.85-3.07,1.48-4.65.66-1.51,1.59-3.12,2.75-4.75,1.35-1.7,2.73-3.11,4.22-4.28,1.05-.81,2.53-2.04,3.24-3.39.96-1.54.8-3.1-.48-4.76-.94-1.23-2.1-1.9-3.43-1.98-1.81-.12-3.86.92-5.85,2.97-2.42,2.39-4.54,6.4-5.67,10.56-.36-3.67-.39-7.2-.09-10.53.42-.86,1.06-1.89,2.07-3.32.83-1.22,1.91-2.49,3.22-3.79,1.91-1.93,5.18-4.64,9.95-6.62,1.96-.81,3.41-1.72,4.3-2.7,1.41-1.47,1.76-3.24,1.04-5.26-.53-1.51-1.42-2.5-2.64-2.93-1.71-.6-4.01-.06-6.65,1.58-2.98,1.8-6.29,5.09-8.79,8.65,1.53-5.84,3.75-11.99,7.01-19.47l7.07-10.86,8.86,11.38,3.75-13.93,11.95,8.08-.74-14.4,13.86,3.99-5.16-13.47,14.41-.49-9.07-11.23,13.62-4.94-12.08-7.86,11.38-8.87-13.93-3.75,8.08-11.95-14.4.74,3.99-13.86-13.47,5.16-.49-14.41-11.21,9.06-4.91-13.55-7.86,12.08-8.87-11.38-3.75,13.93-11.95-8.08.74,14.4-13.86-3.99,5.16,13.47-14.41.49,9.06,11.21-13.55,4.91,12.08,7.86-11.38,8.87,13.93,3.75-8.08,11.95,14.4-.74-3.99,13.86,13.47-5.16.49,14.41,11.21-9.06,3.23,8.91c-2.68,6.02-5.9,13.74-8.07,21.97-.38-4.53-.92-9.25-1.84-12.94-.92-3.56-2.17-5.6-3.83-6.24-1.16-.45-2.49-.2-3.94.75-1.98,1.31-3.04,3.36-3.05,5.91.02,2.35.86,4.47,1.55,5.83,2.19,4.32,3.77,8.42,5.33,12.59l.48,1.36c.49,1.37.94,2.66,1.36,3.84.24.7.46,1.36.66,1.98.23.72.45,1.38.67,1.98-.31,3.57-.28,7.33.11,11.22-.34-.73-.69-1.49-1.04-2.25-1.57-3.41-3.2-6.94-4.72-9.85-1.4-2.42-2.55-4.08-3.98-4.88-1.17-.66-2.99-.94-4.97,1.47-1.56,1.9-2.03,4.36-1.35,7.15.76,2.56,2.38,4.57,3.29,5.54,2.03,2.13,3.69,3.95,5.08,5.58,1.17,1.24,2.22,2.42,3.23,3.57.42.48.83.95,1.25,1.42,1.2,1.25,2.26,2.44,3.19,3.49l.59.66c1.06,1.07,2.03,2.1,2.88,3.05.24.75.57,1.45.88,2.14.17.37.34.74.51,1.13.16.33.3.66.45.99.34.76.68,1.55,1.16,2.32.7,1.18,1.43,2.3,2.22,3.46-.08-.06-.16-.12-.24-.17l-.4-.29c-.36-.25-.73-.52-1.1-.79l-.61-.45c-.62-.42-1.23-.93-1.76-1.38-.43-.34-.8-.66-1.15-.97l-.54-.47c-.47-.39-.94-.78-1.4-1.16l-3.48-2.72c-3.28-2.5-5.58-3.39-7.26-2.77-1.15.42-1.94,1.54-2.33,3.35-.29,1.37-.25,2.74.11,4.08.39,1.38,1.25,2.51,1.86,3.24.75.86,1.63,1.63,2.63,2.3l1.51,1.01c.47.3.98.59,1.54.87.48.24.91.38,1.32.51.22.07.45.14.7.24.29.1.57.2.86.3.34.12.67.24,1.01.35.95.27,1.88.56,2.77.85l.61.19c2.01.61,4,1.29,5.91,2.02,3.84,1.47,6.66,2.97,8.38,3.98,2.16,2.95,4.26,5.85,6.16,8.81-3.36-2.52-7.5-4.72-11.02-5.78-3.21-.96-5.59-.91-7.05.15-1.03.74-1.57,1.95-1.61,3.59-.08,2.62,1.19,5.88,7.74,6.55,4.09.4,8.11,1.49,11.35,3.07.71.26,1.35.59,1.86.96l.16.11c.23.16.47.33.67.5.24.23.48.48.69.71.76.86,1.26,1.88,1.73,2.87l.09.19c.01.38.03.76.04,1.15.03.73.06,1.46.06,2.17l-.24,5.14c-.03.39-.09.78-.15,1.17l-.14.94c-.06-.24-.11-.49-.17-.73-.27-1.32-.8-2.64-1.29-3.76-.63-1.44-1.15-2.5-1.71-3.43-.7-1.08-1.42-2.06-2.16-2.91-.36-.41-.74-.84-1.21-1.22-.42-.24-.8-.43-1.17-.56-.88-.3-1.78-.27-2.39-.23-1.33.12-2.51.45-3.65.77l-.46.13c-.97.09-1.43,1.23-1.53,2.2-.07.79.11,1.58.55,2.39.51,1.08,1.53,2.24,3.11,3.54,1.56,1.29,2.78,2.58,4.08,4.32,1.22,1.6,1.9,3.12,2.54,4.66.15.39.32.8.42,1.15.1.37.19.75.26,1.13.15.69.29,1.45.39,2.23.13,1.15.05,2.18-.03,3.17l-.04.53c-2.48,4-5.79,7.27-9.13,8.99-4.06,2.49-5.98,3.59-7.5,4.45,4.57-10.06,6.4-19.9,2.07-36.1h.02l-.14-.61c-.42-1.9-.96-3.73-1.59-5.46-2.77-7.55-7.27-14.32-11.31-19.94-15.56-21.62-32-45.16-46.82-70.81-.47-.8-.94-1.61-1.4-2.43.01-.02.02-.05.04-.08,2.13-5.08,5.31-10.15,7.6-13.51.63-.92,1.21-1.93,1.74-3.01l4.44,4.29c-.23.44-.47.88-.71,1.3-.91,1.63-1.85,3.31-2.05,5.37-.38,4.15,1.23,8.55,4.44,12.05,5.26,5.78,16.88,6.93,26.02,6.09l.42-.04.04-.42c.81-9.13-.4-20.76-6.2-25.99-1.07-.97-2.26-1.81-3.55-2.52-.65-.35-1.32-.66-2.01-.93-2.28-.87-4.62-1.19-6.76-.93-1.93.23-3.58,1.17-5.16,2.08-.54.31-1.08.61-1.62.89-.16.08-.31.16-.47.24l-5.34-5.18c.22-.72.4-1.44.54-2.14,1.7-8.31,1.71-13.38.01-15.05-.66-.65-1.33-.53-1.4-.51l-.2.09c-9.97,7.56-12.77,20.99-13.26,31.59-6.9-13.23-11.93-27.48-14.58-41.35,1.42-3.01,2.82-5.92,4.18-8.65,3.53-3.33,10.82-9.3,20.36-12.43,3.76-1.23,8.13-3.78,7.56-8.88-.2-1.77-.88-2.98-2.01-3.58-1.61-.85-4.05-.42-7.25,1.27-3.75,1.97-7.83,5.38-11.03,8.54,1.73-3.31,3.75-7.12,5.83-10.91,2.96-2.58,10.77-8.69,20.87-11.21,1.47-.36,3.59-1.05,5.29-2.36,1.92-1.43,2.83-3.34,2.7-5.67-.07-1.73-.66-2.96-1.78-3.66-1.58-1-4.08-.8-7.2.56-3.9,1.62-8.22,4.79-11.52,7.69.76-1.29,1.54-2.58,2.34-3.85,1.29-2.14,2.7-4.37,4.19-6.61,1.45-1.09,4.46-3.14,8.72-5.06,2.23-.93,4.14-1.57,6.02-2.04,2.29-.56,4.59-.93,6.85-1.1,1.66-.12,3.78-.38,5.46-1.25.89-.44,1.66-1.06,2.28-1.84.67-.83,1.08-1.86,1.23-3.05.21-1.72-.16-3.04-1.12-3.92-1.34-1.25-3.73-1.53-7.11-.86-2.64.52-5.46,1.75-7.91,2.9-1.67.88-3.22,1.78-4.61,2.66.33-.4.66-.79.98-1.18.63-.75,1.25-1.5,1.85-2.24.57-.63,1.14-1.26,1.7-1.9,1.15-1.29,2.34-2.62,3.55-3.88,2.77-1.34,12.19-5.37,22.64-3.71,2.24.36,4.04.34,5.52-.06,2.27-.57,3.7-1.87,4.38-3.96.57-1.64.47-3.01-.29-4.09-1.05-1.5-3.36-2.31-6.66-2.34-4.18-.14-9.2,1.18-13.33,2.79,2.85-2.33,6.21-4.94,9.79-7.28,5.67-1.49,14.63-1.89,22.84,1.42,1.35.55,3.41,1.2,5.4,1.15,2.29,0,4.05-.99,5.22-2.94,1.19-1.91,1.21-3.59.06-5-1.01-1.24-2.84-2.18-5.46-2.77-1.13-.27-2.47-.48-3.97-.63-1.42-.14-2.85-.11-4.38-.08-1.54.06-3.04.13-4.5.33-.27.04-.54.08-.81.13l.46-.24c.72-.37,1.46-.7,2.21-1.03.45-.2.91-.41,1.35-.62l3.58-1.61,3.59-1.41h.45c1.17,0,2.48-.01,3.97.17,1.86.2,3.74.5,5.59.89,2.1.42,4.37,1.24,6.1,1.91,2.33.92,4.34,1.94,6.17,3.13,1.89,1.21,3.65,1.93,5.22,2.15,2.42.33,4.33-.31,5.82-1.95,1.2-1.28,1.67-2.58,1.41-3.85-.37-1.79-2.18-3.41-5.38-4.8-2.05-.94-4.71-1.67-8.12-2.24-1.62-.3-3.34-.49-5.3-.59,2.85-.75,5.83-1.45,9.02-2.12.26.19.53.32.82.4l7.87,2.2c.7.2,1.44.11,2-.21l11.51-4.09c1-.56,1.54-1.61,1.39-2.75-.14-1.14-.92-2.02-2.07-2.32l-12.31-2.15c-.7-.19-1.45-.08-2.07.28l-6.96,4.02c-.45.25-.79.61-1.04,1.06-3.23.68-6.26,1.39-9.17,2.16,1.01-.65,2.04-1.34,3.05-2.01l1.54-1.02c2.45-1.68,4.92-3.6,6.98-5.41,2.92-2.66,4.19-4.82,3.87-6.63-.22-1.25-1.2-2.23-2.92-2.94-2.46-.97-4.95-.79-7.2.53-2.13,1.24-3.71,3.07-4.64,4.39-1.81,2.46-3.3,4.36-4.69,5.99-1.06,1.27-2.14,2.41-3.19,3.51-.5.53-1,1.05-1.47,1.57-1.42,1.51-2.84,2.91-4.22,4.16-.65.58-1.25,1.15-1.82,1.69-.56.53-1.09,1.03-1.57,1.45l-3.69,1.45-3.68,1.65c-.44.21-.88.4-1.32.6-.77.35-1.57.7-2.35,1.1l-.45.23c.2-.2.4-.4.6-.6.36-.35.72-.7,1.08-1.05.74-.72,1.5-1.44,2.22-2.2.7-.71,1.39-1.46,2.05-2.2.37-.41.73-.81,1.1-1.19,1.06-1.13,1.99-2.23,2.76-3.26,1.81-2.4,2.78-4.37,2.89-5.87.07-1.12-.3-3.1-3.64-3.76-2.53-.47-4.99.19-7.13,1.92-1.48,1.23-2.77,3-3.83,5.26-4.08,8.77-8.93,15.78-12.13,20.42l-.81,1.17c-3.14,2.06-6.34,4.43-10.09,7.5,2.49-3.79,5.31-8.45,7.26-12.45,1.72-3.76,2.06-6.21,1.07-7.72-.68-1.04-1.95-1.56-3.89-1.52-3.36.13-5.45,1.96-6.61,3.47-1.51,2.04-2.25,4.38-2.6,5.98-2.41,11.3-6.43,20.7-7.8,23.89-1.24,1.29-2.45,2.65-3.63,3.96-.58.65-1.16,1.29-1.76,1.96-.61.75-1.22,1.49-1.84,2.23-.35.42-.71.85-1.07,1.29.65-1.62,1.32-3.37,1.9-5.15,1-2.65,1.91-5.67,2.55-8.5.88-3.9.68-6.42-.62-7.7-.9-.89-2.28-1.11-4.11-.67-1.31.31-2.5.92-3.54,1.8-.82.74-1.5,1.69-2.09,2.92-1.16,2.53-1.28,5.04-1.26,6.31.04,2.51-.06,5.06-.29,7.57-.22,2.71-.48,4.97-.78,6.92-.55,4.37-1.32,7.95-1.83,10.34-1.53,2.32-2.96,4.58-4.25,6.7-.81,1.28-1.59,2.59-2.36,3.89,1.03-4.41,1.95-9.73,2.07-14.06.05-4.02-.61-6.36-2.09-7.36-1.04-.7-2.44-.68-4.18.06-2.31,1.02-3.84,2.86-4.53,5.45-.45,1.75-.47,3.85-.05,6.24,1.79,9.5,1.18,18.52.35,24.44-2.1,3.81-4.13,7.65-5.86,10.98.77-4.44,1.33-9.76,1.06-14.07-.25-3.76-1.18-6.12-2.76-7.01-1.11-.62-2.49-.51-4.1.32-1.55.8-2.56,1.92-3.19,3.16,1.01-5.22,2.44-10.29,4.27-15.21,3.92-5.37,11.26-14.96,16.73-19.35,2.03-1.64,3.53-3.61,4.44-5.84,2.34-5.71,6.85-16.34,10.61-23.38,1.88-2.81,3.42-4.99,4.69-6.67l25.35-15.75c8.56-5.32,12.2-15.66,8.86-25.16l-3.9-11.1c-.73-2.05-.66-4.28.2-6.3.67-1.57,1.77-2.9,3.19-3.85,1.42-.96,3.07-1.47,4.76-1.48h1.04s.04,0,.06,0c3.15,0,5.92,2.11,6.75,5.15,2.07,7.49,6.6,20.46,13.79,23.09,9.77,3.6,18.23,1.52,21.06-5.16,2.18-5.13.69-11.89.11-14.09l13.05,1.22-6.63-11.43,12.11-1.48-9.16-10.17,11.94-3.4-11.67-6.69,10.81-5.87-10.35-5.84,7.33-7.14-10.75-4.56,5.27-7.06-10.72-1.12,4.8-9.97-10.79.56,3.83-11.04-10.04-.21-2.25-19.89.32-1.51c1.73-1.78,7.42-7.54,14.84-14.14,4.31,2.71,8.92,4.63,13.37,5.57,4.71.99,8.83.69,12.24-.91,5.27-2.46,9.04-8.73,11.79-13.32,4.29-7.15,7.4-13.72,9.52-20.08l.18-.53-.55-.11ZM240.76,420.35c-8.38-4.93-20.13-9.55-31.23-6.03l-.19.11c-.06.05-.54.53-.39,1.44.39,2.34,4.52,5.26,12.3,8.67,2.93,1.29,6.08,1.97,9.36,2.03,3.59.06,8.91.33,13.99,1.29l1.03,1.31c15.06,26.14,31.7,49.98,47.44,71.84,3.9,5.43,8.23,11.95,10.85,19.07.5,1.36.93,2.81,1.31,4.43l.12.49.13-.03c5.5,19.83,1.28,29.79-5.76,42.68-2.42,4.44-4.3,7.69-5.82,10.1-.06-.62-.13-1.23-.21-1.84.16-.52.33-1.09.51-1.71,1.32-4.49,3.33-11.27,8.11-17.58,2.97-3.92,3.04-8.8,1.96-9.95l-.18-.16h0c-2.01-1.96-3.74-1.58-4.85-.91-1.26.77-2.48,2.34-3.76,4.82-.22.47-.44.9-.66,1.33-.3.59-.62,1.2-.9,1.87-.48,1.11-.91,2.33-1.3,3.62-.48,1.62-.85,3.16-1.12,4.51-.56-3.32-1.13-6.74-1.59-10.12,2.03-7.15,4.64-14.52,7.55-21.3.52-1.14,1.36-3.42,1.17-5.94-.21-2.59-1.45-4.57-3.58-5.72-1.51-.82-2.84-.96-3.94-.42-1.6.78-2.65,2.88-3.29,6.6-.61,3.73-.91,8.3-1.12,12.65-1.07-3.36-2.37-6.65-3.85-9.82-.04-2.11-.09-5.33.03-9.22.14-4.02.38-8.4,1.12-13.16.66-4.01-.25-9.09-5.03-10.21-1.76-.35-3.13-.02-4.08.97-2.94,3.07-1.01,11.74.79,19.13-1.9-2.79-4-5.56-6.36-8.43-1.4-4.78-2.92-12.34-2.23-21.4.16-1.98.22-8.49-5.57-9.31-1.65-.21-2.92.12-3.8,1.01-1.26,1.27-1.63,3.57-1.15,7.06.54,3.8,1.95,8.27,3.36,11.9-2.53-2.8-4.87-5.29-7.12-7.56-1.79-4.81-4.05-12.4-4.81-21.39-.12-1.52-.5-3.7-1.61-5.48-.58-.95-1.3-1.69-2.15-2.19-.99-.61-2.12-.9-3.26-.82-1.63.07-2.83.64-3.56,1.67-1.04,1.47-1.09,3.83-.14,7.03,1.22,3.96,3.43,8.37,5.08,11.37-2.63-2.26-5.36-4.45-8.14-6.53-2.49-4.45-5.67-11.55-6.81-20.29-.31-2.48-1.6-8.2-7.05-7.78-1.62.13-2.8.73-3.49,1.78-.98,1.5-.94,3.86.13,7.02,1.21,3.6,3.5,7.65,5.67,10.88-5.71-4.03-11.39-7.88-16.92-11.47l-7.75-9.34,13.49-5.1-12.19-7.7,11.25-9.02-13.97-3.56,7.92-12.05-14.39.93,3.81-13.91-13.4,5.33-.68-14.4-11.09,9.21-5.1-13.49-7.7,12.2-9.02-11.25-3.56,13.97-12.05-7.92.93,14.39-13.91-3.8,5.33,13.4-14.4.68,9.21,11.09-13.49,5.1,12.2,7.7-10.46,8.38c.31-1.95.37-3.89.03-5.72-.7-3.69-2.86-7.21-6.41-10.47-3.35-3.06-7.61-5.68-12.33-7.59,1.05-10.19,2.46-18.41,2.8-20.31l4.42-4.89c5.19-5.75,10.56-9.73,16.79-14.33l.84-.62c17.18-12.74,41.64-18.3,65.35-14.92,2.35.62,4.71,1.18,7.01,1.68,9.05,1.94,17.62,5.8,25.47,11.48l18.36,13.28c2.86,10.14,6.81,20.11,11.74,29.66ZM230.63,367.71c-.66,1.33-1.3,2.67-1.94,4.01-1.54-10.87-1.63-21.32-.27-31.28.09,1.21.32,2.28.52,3.04,2.46,9.33,2.28,18.31,1.69,24.23Z"/>
  </g>
  <g id="Layer_2">
    <g id="Black">
      <path d="M158.26,260.69s-7.58-13.01-6.59-32.4c.22-4.34-.5-10.62-6.52-9.84-13.74,1.77-.69,30.85,4.86,35.43l8.26,6.82h0Z"/>
      <path d="M193.25,260.02c-3.74,1.59-7.16,6.25-9.86,11.06-.76-.59-1.55-1.12-2.37-1.6,2.96-3.81,5.56-8.09,6.02-11.85,1.15-9.45-4.41-17.91-12.42-18.88s-15.43,5.9-16.57,15.36c-.49,4.03,1.83,9.32,4.64,14.06-.6.24-1.19.51-1.77.81-.27.14-.52.31-.79.46-1.81-4.47-4.23-8.87-7.25-11.14-7.61-5.72-17.71-5.13-22.56,1.31-4.84,6.45-2.6,16.31,5.01,22.03,3.25,2.44,8.99,3.08,14.51,3.01-.13.94-.21,1.89-.21,2.85-4.78-.66-9.78-.77-13.26.71-8.76,3.73-13.3,12.77-10.14,20.19s12.83,10.41,21.59,6.67c2.61-1.11,5.05-3.72,7.21-6.83l-1.43,2.76c-3.19,4.85-6.23,7.7-12.35,7.91-5.18.18-9.83-1.55-12.77-4.75-3.22-3.51-4.35-8.38-5.44-13.08-.24-1.05-.48-2.09-.74-3.11-1.49-5.83-3.86-10.46-7.15-14.1,1.97-4.66,7.53-19.61,2.97-30.79-5.47-13.41-17.75-29.25-17.75-29.25,0,0-19.28,19.92-10.04,41.04,7.34,16.77,18.26,19.81,22.45,20.35,3.22,3.38,5.51,7.79,6.95,13.42.26,1,.49,2.02.73,3.05,1.17,5.04,2.37,10.26,6.07,14.29,3.46,3.77,8.87,5.81,14.82,5.6,2.81-.1,5.1-.7,7.06-1.71,2.78-1.44,4.88-3.72,6.84-6.54-.62,1.42-1.06,2.81-1.22,4.14-1.15,9.45,4.41,17.91,12.42,18.88s15.43-5.9,16.57-15.36c.49-4.03-1.83-9.32-4.64-14.06.6-.24,1.19-.51,1.77-.81.27-.14.52-.31.79-.46,1.81,4.47,4.23,8.87,7.25,11.14,7.61,5.72,17.71,5.13,22.56-1.31,4.84-6.45,2.6-16.31-5.01-22.03-3.25-2.44-8.99-3.08-14.51-3.01.13-.94.21-1.89.21-2.85,4.78.66,9.78.77,13.26-.71,8.76-3.73,13.3-12.77,10.14-20.19s-12.83-10.41-21.59-6.67h0ZM188.78,280.12c.43-.16.91.07,1.07.5.14.4-.04.84-.4,1.02-.03.02-.07.03-.1.05l-6.8,2.44,7.07-1.51c.45-.1.9.19.99.64.08.38-.11.75-.43.92-.06.03-.13.06-.21.07l-9.03,1.93,9.22-.47c.46-.02.85.33.88.79.02.34-.17.64-.45.79-.1.05-.22.09-.34.09l-9.22.47,9.18,1c.46.05.79.46.74.92-.03.29-.21.53-.45.65-.14.07-.3.11-.47.09l-9.18-1,8.9,2.45c.45.12.71.58.58,1.03-.06.23-.22.42-.42.52-.18.09-.39.12-.61.06l-8.9-2.45,8.4,3.84c.42.19.6.69.41,1.11-.08.18-.22.31-.38.39-.22.11-.49.13-.73.02l-8.4-3.83,7.68,5.12c.38.26.49.78.23,1.16-.08.12-.19.22-.31.28-.26.14-.59.13-.85-.05l-7.68-5.12,6.77,6.28c.34.31.36.84.04,1.18-.07.07-.15.13-.23.17-.3.16-.69.12-.95-.13l-6.77-6.28,5.68,7.27c.28.36.22.89-.14,1.17-.04.03-.09.06-.13.08-.35.18-.79.09-1.04-.23l-5.68-7.27,4.46,8.08c.22.4.08.91-.33,1.14,0,0,0,0-.02.01-.4.21-.9.06-1.12-.34l-4.46-8.09,3.12,8.69c.14.4-.04.83-.4,1.02-.03.02-.07.03-.1.05-.43.16-.91-.07-1.07-.51l-3.11-8.69,1.69,9.08c.07.37-.12.73-.44.9-.07.04-.15.06-.23.08-.45.08-.89-.22-.98-.67l-1.69-9.07.23,9.23c0,.33-.18.62-.45.76-.11.06-.23.09-.36.09-.46.01-.84-.35-.86-.82l-.23-9.23-1.24,9.15c-.04.28-.21.51-.44.63-.15.08-.32.11-.5.09-.46-.06-.78-.48-.72-.94l1.24-9.15-2.68,8.83c-.07.22-.22.4-.42.5s-.41.12-.63.06c-.44-.13-.69-.6-.56-1.04l2.68-8.83-4.05,8.29c-.08.17-.21.3-.37.38-.23.12-.5.13-.75,0-.41-.2-.59-.7-.38-1.12l4.05-8.29-5.32,7.54c-.08.11-.18.2-.3.26-.27.14-.6.13-.87-.06-.38-.27-.47-.79-.2-1.17l5.32-7.55-6.45,6.6c-.06.07-.14.12-.21.16-.31.16-.7.11-.97-.14-.33-.32-.34-.85,0-1.18l6.45-6.61-7.42,5.5s-.08.05-.11.07c-.36.19-.81.09-1.05-.25-.28-.37-.2-.89.17-1.17l7.42-5.49-8.2,4.24c-.41.21-.91.05-1.13-.36s-.05-.91.36-1.13l6.36-3.29-6.74,2.42c-.43.16-.91-.07-1.07-.5-.16-.44.06-.92.5-1.07l6.8-2.44-7.07,1.51c-.45.1-.9-.19-.99-.64-.1-.45.2-.9.64-.99l9.03-1.93-9.22.47c-.46.02-.85-.33-.88-.79s.33-.86.79-.88l9.22-.47-9.18-1c-.46-.05-.79-.46-.74-.92s.46-.79.92-.74l9.18,1-8.9-2.45c-.45-.12-.71-.58-.58-1.03.12-.45.58-.71,1.03-.58l8.9,2.45-8.4-3.84c-.42-.19-.6-.69-.41-1.11.19-.42.69-.61,1.11-.41l8.4,3.83-7.68-5.12c-.38-.26-.49-.78-.23-1.16.25-.38.77-.49,1.16-.23l7.68,5.12-6.77-6.28c-.34-.31-.36-.84-.04-1.18.31-.34.84-.36,1.18-.04l6.77,6.28-5.68-7.27c-.28-.36-.22-.89.14-1.17.37-.29.89-.22,1.17.14l5.68,7.27-4.46-8.08c-.22-.4-.08-.91.33-1.14.37-.24.91-.08,1.14.33l4.46,8.09-3.12-8.69c-.16-.43.08-.92.51-1.07.43-.16.91.07,1.07.51l3.11,8.69-1.69-9.08c-.09-.45.21-.89.67-.98.45-.08.89.22.98.67l1.69,9.07-.23-9.23c0-.46.36-.84.82-.86.46-.01.85.35.86.82l.23,9.22,1.24-9.14c.06-.46.49-.78.94-.72.46.06.78.48.72.94l-1.24,9.15,2.68-8.83c.13-.44.6-.69,1.04-.56.44.13.69.6.56,1.04l-2.68,8.84,4.05-8.3c.2-.42.71-.59,1.12-.38.41.2.59.7.38,1.12l-4.05,8.29,5.32-7.54c.27-.38.79-.47,1.16-.2.38.27.47.79.2,1.16l-5.32,7.54,6.45-6.6c.32-.33.85-.34,1.18-.01.33.32.34.85,0,1.18l-6.45,6.6,7.42-5.49c.36-.27.89-.2,1.17.17.27.37.2.9-.18,1.17l-7.42,5.49,8.2-4.24c.41-.21.91-.05,1.13.36s.05.91-.36,1.13l-6.36,3.29,6.74-2.42v.04Z"/>
      <path d="M289.19,156.26c-2.04,3.24-1.68,8.76,1.55,11.02,2.23,1.56,5.02,2.14,7.71,2.02,3.71-.16,11.83-3.55,12.03-4.01-.19.46,3.01,8.66,5.47,11.43,1.77,2.01,4.13,3.61,6.8,4.14,3.88.75,8.1-2.82,9.01-6.54,5.2-21.26-9.11-37.71-9.11-37.71,0,0-21.77,1.14-33.45,19.65h0ZM328.37,163.25c-.62,2.52-3.48,4.95-6.11,4.44-1.81-.35-3.41-1.44-4.61-2.81-1.67-1.88-3.85-7.45-3.71-7.76-.13.31-5.65,2.61-8.16,2.72-1.82.08-3.71-.32-5.23-1.37-2.19-1.53-2.44-5.28-1.05-7.48,7.93-12.56,22.7-13.33,22.7-13.33,0,0,9.7,11.17,6.18,25.59h-.01Z"/>
      <path d="M377.62,59.44c-5.45.1-12.54.25-17.14,3.48-3.37,2.36-5.45,6.06-6.71,9.9-1.48,4.54-2.03,9.51-1.83,14.32-5.42,4.78-9.97,9.19-12.84,12.05l1.24-5.77c.58-2.72,1.26-5.52,1.92-8.23,1.63-6.72,3.32-13.67,3.88-20.54.11-1.34.16-2.7.19-4.07,3.55-2.58,11.47-10.43,10.14-28.35-1.71-22.98-28.07-31.58-28.07-31.58,0,0-3.45,19.75-2.01,34.16,1.22,12.29,13.64,23.11,17.28,26.03-.03,1.21-.08,2.41-.18,3.59-.55,6.66-2.21,13.51-3.82,20.13-.66,2.73-1.35,5.55-1.94,8.3l-1.25,5.79c-1.44-3.79-3.78-9.69-6.76-16.29,2.16-4.3,3.71-9.06,4.22-13.81.43-4.01.05-8.25-2.05-11.78-2.87-4.84-9.27-7.88-14.2-10.22-6.62-3.13-13.8-5.86-20.96-7.48-.75,7.3-.44,14.84.42,22.11.64,5.42,1.49,12.45,5.16,16.71,2.68,3.12,6.57,4.83,10.51,5.7,4.74,1.04,9.84,1.07,14.67.36,4.36,9.71,7.33,17.82,7.94,19.53v.05l-17.36,13.33-6.96-6.91-5.3,10.48-7.03-8.07-3.78,10.26-8.12-6.83-1.38,8.46-10.65-4.52-.03,10.15-11.17-3.33,3.28,11.85-12.63-3.67,5.65,10.6-13.52.47,7.25,9.58-12.63,3.12,9.76,8.38s-7.94,3.98-10.48,9.96,1.08,13.46,10.69,18.1c6.68,3.24,18.89-2.38,25.72-6.11,2.99-1.63,6.7-1.06,9.06,1.42l.71.75c1.27,1.33,2.09,2.98,2.39,4.71.32,1.74.14,3.55-.58,5.26-.9,2.12-2.56,3.81-4.65,4.77l-10.69,4.91c-8.86,4.07-13.71,13.75-11.66,23.29l6.07,28.17s-15.95,17.95-26.93,35.42c-.44-1.12-.83-2.28-1.2-3.44.72-3.81,3.21-10.38,8.95-16.79,1.92-2.15,4.18-5.76.72-8.14-3.09-2.12-5.78-.06-7.85,3.47-2.08,3.52-3.57,8.5-4.13,12.4-.81-3.65-1.57-7.33-2.34-11.01,1.08-3.79,3.64-10.47,9.1-17.35,1.86-2.29,3.88-6.26.26-8.6-3.28-2.07-5.76.26-7.64,3.96-1.87,3.71-3.15,8.8-3.72,12.72-.82-3.68-1.7-7.35-2.67-11,.87-3.85,3.01-10.73,7.69-18.29.82-1.27,1.58-2.96,1.68-4.62.11-1.65-.48-3.26-2.47-4.26-3.52-1.78-5.71.93-7.09,4.86-.73,1.98-1.27,4.29-1.64,6.58-.44,2.31-.64,4.59-.79,6.58-1.11-3.62-2.37-7.19-3.72-10.73.42-3.93,1.65-11.04,5.05-19.44,1.1-2.77,1.93-7.51-2.45-8.94-3.84-1.24-5.45,1.92-6.1,6.09-.29,2.08-.51,4.51-.48,6.85-.03,2.36.03,4.69.23,6.66-.84-1.7-1.68-3.41-2.56-5.09-.95-1.65-1.81-3.34-2.83-4.96-.23-3.98-.41-11.19.92-20.33.21-1.52.23-3.47-.4-5.15-.58-1.7-2-3-4.28-3.23-4.1-.37-4.83,3.16-4.43,7.42.45,4.27,1.69,9.53,2.83,13.34-2.33-3.02-4.78-5.95-7.5-8.65-1.14-3.85-3.19-10.79-4.44-20.03-.22-1.52-.75-3.41-1.83-4.87-1.06-1.5-2.75-2.39-5.03-1.96-4.07.78-3.79,4.38-2.22,8.33.82,1.95,1.83,4.26,3,6.29,1.16,2.06,2.25,4.2,3.35,5.84-1.92-1.5-3.91-2.89-5.96-4.2-.06-.38-.2-.77-.49-1.11l-5.74-6.9c-.38-.46-.92-.74-1.51-.8l-11.25-2.47c-2.02-.19-3.24,2.18-1.91,3.71l8.97,8.76c.39.45.94.72,1.52.77l8.01.61c.42.03.79-.06,1.12-.22,1.92,1.23,3.79,2.54,5.59,3.94-1.92-.49-4.04-1-6.26-1.04-2.24-.02-4.33.06-6.22.68-3.75,1.14-5.97,3.4-5.33,6.68.35,1.82,1.37,2.3,2.58,2.33,1.23,0,2.75-.61,4-1.2,7.33-3.39,14.52-2.47,18.16-1.27,2.62,2.6,5,5.44,7.26,8.37-3.35-2.06-8.09-3.82-11.97-3.73-3.9.04-6.66,1.6-6.95,4.95-.18,1.88.69,2.59,1.87,2.98,1.2.35,2.84.2,4.21-.02,8.07-1.22,14.75,1.55,18.05,3.56.99,1.57,1.83,3.22,2.76,4.83.86,1.65,1.68,3.31,2.5,4.98-1.44-1.34-3.2-2.74-5.1-3.89-1.95-1.12-3.9-2.08-5.83-2.52-3.84-.93-6.95-.17-7.96,3.1-1.11,3.55,2.57,4.32,5.41,4.57,8.25.78,14.22,4.82,17.17,7.35,1.32,3.48,2.56,7,3.66,10.56-1.19-1.56-2.8-3.18-4.47-4.65-1.73-1.45-3.58-2.71-5.37-3.55-3.64-1.64-6.9-1.56-8.42,1.6-.83,1.74-.36,2.97.67,3.89,1.04.91,2.67,1.48,4.01,1.87,8.14,2.23,13.51,7.02,16.16,9.88.95,3.61,1.82,7.25,2.64,10.91-2.16-3.3-5.64-7.15-9.05-9.25-3.41-2.12-6.72-2.5-8.54.55-2.08,3.41,1.47,5.45,4.12,6.56,7.9,3.21,12.96,8.36,15.46,11.37.77,3.68,1.52,7.36,2.34,11.04-2.18-3.32-5.51-7.36-8.83-9.73-3.31-2.36-6.58-3.08-8.58.02-2.22,3.44,1.28,5.9,3.93,7.17,7.85,3.76,13.03,8.98,15.85,11.8.59,1.82,1.2,3.64,2.04,5.43-4.05,6.76-7.17,13.29-8.14,18.52-5.63,15.15-7.17,31.05-5.79,46.64-3.04-8.11-8.14-16.55-16.7-20.69,0,0-4.12-.06,2.18,14.83,1.23,2.91,3.05,5.54,5.31,7.74,3.27,3.19,8.35,8.56,11.63,14.05.1.49.21.98.32,1.47-9.38-11.59-40.84-44.2-92.67-36.26-3.97-4.97-7.6-10.47-10.27-16.23-4.38-9.42-1.78-20.01-6.59-29.41-4.34-8.52-13.45-14.01-22.93-15.29-9.45-1.26-19.17,1.35-27.53,6-8.78,4.87-15.5,11.87-22.68,18.72-5.78,5.49-13.18,11.59-21.73,9.5,8.55,2.09,12.32,10.9,14.93,18.43,3.23,9.39,5.97,18.7,11.52,27.06,5.29,7.97,12.71,14.77,21.68,18,9.01,3.23,19.63,2.52,27.4-3.03,8.58-6.13,11.13-16.74,19.36-23.11,5-3.86,10.7-7.04,16.47-9.63,4.21,1.98,16.77,7.7,31.59,12.55-20.31-.31-40.39,5.49-55.19,16.46l-.84.62c-6.35,4.71-11.84,8.77-17.25,14.76l-4.51,4.99c-1.75.5-10.07,2.83-20.49,4.97-2.25-4.34-5.25-8.45-8.87-11.69-3.01-2.69-6.67-4.85-10.77-5.2-5.61-.48-11.81,2.94-16.58,5.58-6.4,3.55-12.7,7.7-18.19,12.58,5.5,4.87,11.9,9.09,18.32,12.63,4.77,2.64,10.98,6.05,16.59,5.55,4.09-.36,7.75-2.52,10.76-5.22,3.55-3.19,6.51-7.23,8.74-11.49,7.1-1.44,13.25-2.99,17.17-4.03l-3.97,4.39c-1.89,2.09-3.78,4.29-5.6,6.42-4.43,5.17-9.02,10.52-14.1,14.86-.9.77-1.84,1.52-2.81,2.25-4.5-1.24-20.54-4.99-31.22,1.19-12.53,7.26-26.54,21.6-26.54,21.6,0,0,22.38,16.36,42.03,4.32,15.31-9.39,17.06-20.39,17.08-24.79,1.1-.82,2.16-1.67,3.19-2.55,5.24-4.47,9.89-9.9,14.39-15.15,1.82-2.12,3.69-4.31,5.56-6.37l3.96-4.38c-.65,4-1.56,10.27-2.27,17.47-4.02,2.65-7.74,6-10.55,9.85-2.38,3.26-4.16,7.12-4.11,11.23.07,5.63,4.09,11.46,7.2,15.94,4.17,6.02,9.02,11.97,14.42,16.95,4.3-5.95,7.79-12.64,10.68-19.37,2.15-5.01,4.93-11.53,3.88-17.06-.77-4.04-3.28-7.46-6.26-10.19-3.58-3.27-7.98-5.84-12.53-7.64,1.08-10.57,2.55-19.07,2.87-20.86l4.52-5c5.23-5.79,10.62-9.78,16.86-14.4l.84-.62c17.31-12.83,42.09-18.39,65.78-15,2.32.61,4.66,1.17,6.99,1.67,9.27,1.99,17.98,6.01,25.66,11.56l18.5,13.38c3.11,11.07,7.45,21.65,12.58,31.32-8.48-5.27-20.78-10.58-32.35-6.91,0,0-3.04,2.78,11.77,9.28,2.89,1.27,6.02,1.93,9.17,1.99,3.64.06,9.09.34,14.26,1.33l1.19,1.52c14.95,25.95,31.59,49.82,47.41,71.8,3.91,5.45,8.26,11.97,10.91,19.19.54,1.47.97,2.97,1.33,4.49.42-.11.88-.18,1.38-.18s.94.06,1.36.17c-.41-1.83-.93-3.64-1.57-5.4-2.76-7.53-7.24-14.24-11.25-19.82-15.63-21.72-32.07-45.28-46.85-70.85-.51-.87-1.02-1.75-1.52-2.64.03-.11.08-.22.13-.31,2.2-5.23,5.43-10.34,7.65-13.6.77-1.13,1.43-2.33,2-3.57l5.21,5.04s-.05.1-.08.15c-1.13,2.21-2.56,4.13-2.8,6.67-.4,4.31,1.44,8.53,4.31,11.67,5.56,6.11,18.03,6.63,25.6,5.93.67-7.58.09-20.05-6.04-25.57-1.05-.95-2.21-1.77-3.45-2.45-.63-.34-1.28-.64-1.95-.9-2.07-.79-4.31-1.17-6.52-.9-2.47.3-4.46,1.82-6.62,2.92-.26.13-.52.26-.77.41l-5.83-5.65c.25-.78.46-1.58.62-2.39,3.24-15.84-.79-14.97-.79-14.97-10.56,8.01-12.9,22.91-13.13,33.08-7.02-13.07-12.61-27.88-15.54-43.31,1.4-2.97,2.83-5.94,4.29-8.89,3.8-3.59,11.13-9.49,20.61-12.6,3.2-1.05,7.77-3.39,7.22-8.35-.5-4.47-4.09-4.27-8.53-1.92-4.45,2.34-9.65,6.93-13.3,10.93,2.44-4.71,4.91-9.41,7.47-14.06,3.92-3.43,11.57-8.99,21.15-11.38,1.62-.39,3.58-1.1,5.11-2.27,1.54-1.15,2.63-2.81,2.5-5.25-.16-4.24-3.74-4.64-8.29-2.66-4.57,1.9-10.06,6.13-13.89,9.94,1.34-2.28,2.68-4.57,4.09-6.82,1.37-2.27,2.79-4.5,4.25-6.7,2.07-1.56,5.18-3.5,8.9-5.17,1.9-.79,3.9-1.52,6.09-2.06,2.22-.54,4.55-.93,6.93-1.11,1.6-.12,3.65-.36,5.28-1.2.83-.41,1.54-.99,2.11-1.71.58-.72.98-1.63,1.12-2.8.52-4.22-2.79-5.2-7.63-4.23-2.41.48-5.06,1.58-7.77,2.85-2.6,1.37-5.25,2.96-7.38,4.59,1.6-2.09,3.34-4.08,5-6.13,1.77-1.95,3.5-3.95,5.32-5.85,4.66-2.28,13.58-5.29,23.02-3.79,1.6.26,3.59.42,5.32-.05,1.75-.44,3.3-1.39,4.03-3.64,1.38-3.96-1.62-5.72-6.49-5.77-4.9-.17-11.4,1.79-16.28,4.1,4.02-3.39,8.15-6.68,12.55-9.56,4.98-1.32,14.37-2.15,23.24,1.42,1.5.61,3.39,1.15,5.21,1.11,1.84,0,3.57-.66,4.8-2.7,1.12-1.8,1.08-3.22.1-4.42-.98-1.21-2.82-2.06-5.19-2.6-1.18-.28-2.5-.48-3.9-.62-1.4-.14-2.83-.11-4.31-.08-1.47.06-2.99.13-4.44.32-1.44.22-2.84.48-4.15.77l3.5-1.82c1.17-.6,2.39-1.1,3.58-1.66l3.6-1.62,3.68-1.44c1.31,0,2.82-.04,4.57.17,1.74.19,3.64.48,5.63.9,1.97.39,4.1,1.13,6.19,1.94,2.1.83,4.19,1.83,6.25,3.17,1.38.88,3.19,1.82,5.02,2.08,1.83.25,3.76-.01,5.39-1.8,2.96-3.17.74-5.87-3.81-7.85-2.28-1.04-5.07-1.71-8.01-2.2-2.95-.55-5.97-.66-8.67-.64,4.16-1.2,8.37-2.21,12.61-3.09.23.2.5.37.83.46l7.87,2.2c.57.16,1.18.09,1.7-.2l11.44-4.06c1.77-.98,1.44-3.63-.52-4.14l-12.35-2.16c-.57-.15-1.18-.07-1.69.23l-6.96,4.02c-.46.26-.76.64-.94,1.06-4.28.89-8.52,1.91-12.72,3.12,2.35-1.38,4.96-3.16,7.52-4.85,2.55-1.75,5-3.67,6.93-5.37,3.84-3.49,5.57-6.9,1.1-8.73-2.5-.99-4.84-.63-6.77.5-1.93,1.12-3.47,2.82-4.49,4.25-1.54,2.09-3.12,4.15-4.71,6.01-1.58,1.89-3.19,3.48-4.68,5.1-1.5,1.59-2.93,2.99-4.25,4.19-1.32,1.18-2.47,2.34-3.46,3.2l-3.75,1.47-3.67,1.65c-1.22.57-2.46,1.08-3.65,1.69l-3.57,1.86c1.01-.92,2.07-1.94,3.14-3.03,1.08-1.06,2.21-2.11,3.3-3.24,1.09-1.1,2.13-2.3,3.14-3.38,1.01-1.08,1.94-2.17,2.73-3.22,1.59-2.11,2.68-4.08,2.79-5.6.1-1.53-.81-2.76-3.23-3.24-2.69-.5-4.97.4-6.72,1.81-1.75,1.45-2.95,3.49-3.7,5.09-4.5,9.67-10.02,17.35-13.04,21.75-4.5,2.94-8.71,6.29-12.81,9.76,3.09-4.47,6.86-10.55,9.17-15.28,2.2-4.8,2.64-8.63-2.34-8.53-2.75.11-4.84,1.46-6.23,3.27-1.37,1.85-2.13,4.05-2.51,5.79-2.23,10.45-5.78,19.21-7.87,24.07-1.86,1.93-3.61,3.96-5.42,5.95-1.69,2.08-3.45,4.1-5.09,6.23,1.06-2.53,2.25-5.39,3.23-8.36,1.09-2.88,1.95-5.87,2.53-8.43,1.15-5.09.66-8.93-4.12-7.78-1.34.32-2.43.93-3.32,1.69-.87.78-1.49,1.75-1.97,2.76-.94,2.05-1.25,4.3-1.21,6.09.04,2.66-.07,5.21-.29,7.62-.2,2.44-.45,4.81-.78,6.94-.54,4.32-1.3,7.89-1.86,10.48-1.47,2.23-2.91,4.49-4.29,6.77-1.42,2.26-2.76,4.57-4.12,6.87,1.43-5.24,2.76-12.12,2.9-17.31.07-5.18-1.04-8.76-5.57-6.84-2.44,1.08-3.69,3.03-4.25,5.12-.54,2.09-.34,4.32-.04,6.02,1.91,10.14,1.08,19.47.34,24.69-2.57,4.67-5.05,9.39-7.5,14.12,1.16-5.3,2.04-12.23,1.72-17.34-.34-5.11-1.99-8.43-6.13-6.28-4.64,2.41-4.19,7.81-3.32,11.12,2.6,9.87,2.22,19.26,1.69,24.5-.91,1.84-1.79,3.7-2.68,5.56-2.76-17.88-1.83-36.42,4.72-53.91,3.97-5.44,11.32-15.05,16.86-19.5,1.87-1.51,3.38-3.41,4.29-5.64,2.33-5.67,6.88-16.41,10.66-23.47,1.67-2.49,3.32-4.87,4.76-6.77l25.43-15.8c8.29-5.15,11.89-15.36,8.65-24.57l-3.9-11.1c-.77-2.17-.69-4.54.21-6.66.72-1.7,1.9-3.09,3.37-4.07,1.46-.98,3.2-1.55,5.04-1.56h1.04c3.41-.03,6.4,2.23,7.3,5.52,2.07,7.51,6.51,20.2,13.48,22.75,10.02,3.69,17.89,1.1,20.43-4.89,2.54-5.98-.11-14.46-.11-14.46l12.81,1.2-6.52-11.25,11.91-1.45-9.05-10.05,11.57-3.29-11.42-6.54,10.8-5.87-10.14-5.72,7.27-7.08-10.64-4.51,5.12-6.87-10.55-1.1,4.74-9.85-10.69.55,3.85-11.09-9.79-.2-2.31-20.41.37-1.73c1.31-1.35,7.32-7.49,15.25-14.52,4.11,2.63,8.77,4.7,13.52,5.7,3.95.83,8.2.87,11.93-.87,5.1-2.38,8.76-8.44,11.57-13.12,3.77-6.28,7.16-13.02,9.47-19.98-7.19-1.47-14.86-1.93-22.18-1.8h.06ZM113.67,341.95c-2.37,9.18-8.47,14.39-15.15,17.29-11.29,4.92-24.4,3.04-34.27-4.33l-22.03-16.43,14.37-3.53h.08l-12.01-9.82,15.1-3.22-11.14-9.76,27.13-4.46c12.14-2,24.65,2.36,32.42,11.92,4.59,5.66,7.62,13.08,5.5,22.34h0ZM343.49,187.3c-1.53,6.27-8.66,12.3-15.2,11.03-4.49-.88-8.47-3.58-11.47-6.98-4.15-4.68-9.56-18.52-9.23-19.29-.33.77-14.04,6.49-20.29,6.76-4.53.2-9.23-.78-13-3.41-5.44-3.81-6.05-13.13-2.61-18.59,19.7-31.21,56.43-33.14,56.43-33.14,0,0,24.12,27.76,15.36,63.62h.01Z"/>
      <path d="M303.87,547.01c-1.59-1.63-3.08-1.77-4.38-.98-1.29.79-2.48,2.49-3.57,4.6-.52,1.12-1.08,2.05-1.56,3.19-.48,1.12-.91,2.33-1.28,3.57-.74,2.48-1.28,5.07-1.61,7.34-.73-4.4-1.49-8.74-2.09-13.13,1.24-4.38,3.67-12.3,7.6-21.47.7-1.54,1.28-3.62,1.13-5.69-.17-2.05-1.06-4.1-3.32-5.32-4.03-2.18-5.7,1.16-6.5,5.82-.77,4.72-1.05,10.9-1.24,15.54-1.22-4.35-2.8-8.6-4.72-12.68-.05-2.28-.09-5.5.03-9.36.14-3.88.37-8.35,1.13-13.22.53-3.21.18-8.51-4.63-9.64-8.34-1.65-4.19,13.33-2.02,22.29-2.43-3.8-5.12-7.41-7.98-10.87-1.3-4.4-2.99-12.24-2.28-21.68.25-3.15-.36-8.1-5.14-8.77-4.29-.56-5.02,2.94-4.39,7.5.65,4.57,2.59,10.26,4.45,14.48-2.96-3.33-5.99-6.62-9.13-9.8-1.58-4.24-4.07-12.03-4.88-21.62-.13-1.61-.53-3.64-1.54-5.26-.5-.82-1.15-1.53-1.98-2.03-.83-.51-1.85-.82-2.98-.75-4.12.19-4.56,3.63-3.25,8.05,1.37,4.44,4.14,9.84,6.48,13.83-3.34-2.98-6.82-5.82-10.41-8.5-2.22-3.95-5.71-11.28-6.92-20.56-.39-3.12-1.87-7.7-6.51-7.34-4.15.34-4.38,3.85-2.93,8.15,1.45,4.31,4.54,9.45,7.29,13.14-6.35-4.53-12.8-8.94-19.35-13.19l-8.25-9.94,13.21-4.99-11.94-7.54,11.02-8.83-13.68-3.49,7.75-11.8-14.09.91,3.73-13.62-13.12,5.22-.67-14.1-10.86,9.02-4.99-13.21-7.54,11.94-8.83-11.02-3.49,13.68-11.8-7.75.91,14.09-13.62-3.72,5.22,13.12-14.1.67,9.02,10.86-13.21,4.99,11.94,7.54-11.02,8.83,13.68,3.49-7.75,11.8,14.09-.91-3.72,13.62,13.12-5.22.67,14.1,10.86-9.02,4.99,13.21,7.54-11.94,8.83,11.02,3.49-13.68,11.8,7.75-.91-14.09,13.62,3.73-5.22-13.12,10.17-.48c7.11,4.56,14.09,9.33,20.97,14.24-4.37-1.4-10.22-2.47-14.66-2.15-4.45.32-7.47,1.98-6.38,5.82,1.2,4.29,5.76,3.86,8.75,3.12,8.87-2.26,16.96-1.2,21.31-.22,3.53,2.64,6.94,5.43,10.23,8.36-4.17-1.86-9.87-3.29-14.23-3.09-4.39.16-7.56,1.64-6.59,5.56.29,1.11.69,1.86,1.25,2.4s1.27.86,2.03,1.05c1.54.35,3.36.14,4.83-.16,8.72-1.84,16.59.27,20.73,1.91,3.1,3.14,6.09,6.4,9.04,9.7-3.94-2.34-9.42-4.61-13.78-5.09-4.37-.51-7.56.7-7.33,4.54.22,4.28,4.62,4.68,7.68,4.56,9.04-.42,16.77,2.51,20.74,4.41,2.81,3.38,5.43,6.91,7.79,10.6-7.02-5.99-20.55-10.26-20.54-2.43-.19,4.18,3.89,4.72,6.87,4.83,4.34.12,8.32,1.14,11.54,2.57,3.24,1.42,5.77,3.22,7.45,4.66,1.86,3.95,3.39,8.06,4.57,12.27-2.49-3.8-6.69-7.8-10.57-9.49-3.91-1.74-7.18-1.36-8.33,2.08-.63,1.9-.09,3.14,1.04,4.05,1.1.91,2.76,1.49,4.13,1.9,8.34,2.32,13.66,8.48,15.99,12.23.6,4.42,1.37,8.83,2.1,13.19-1.05-2.04-2.41-4.29-3.92-6.45-.75-1.08-1.53-2.14-2.33-3.16-.79-.99-1.61-2.06-2.41-2.7-3.19-2.85-6.5-3.44-8.57-.5-.61.83-.86,1.58-.84,2.29,0,.09,0,.17.02.26l.05.37c.04.24.1.48.17.71.14.47.33.92.56,1.33.92,1.66,2.46,2.92,3.78,3.77,7.86,5.04,12.86,11.23,15.16,15.08.26,2.08.45,4.17.57,6.24.64-.65,1.51-1.11,2.6-1.27-.13-1.78-.31-3.55-.53-5.3,1.34-4.3,3.19-12.24,8.73-19.55,2.88-3.81,2.86-8.38,1.99-9.3h-.03ZM186.87,418.6l-28.07,15.01h-.02l-.02.03v.02l-.02.02v.05s0,.02,0,.02v.03l8.38,30.71c.17.61-.12,1.24-.65,1.52-.09.05-.18.08-.28.11-.71.19-1.44-.22-1.63-.93l-3.73-13.69,1.63,13.87c.07.56-.23,1.08-.69,1.33-.14.08-.3.13-.47.15-.73.09-1.39-.44-1.48-1.17l-1.65-14.09-.46,13.96c-.02.49-.3.91-.7,1.13-.2.11-.43.16-.67.16-.73-.02-1.31-.64-1.29-1.37l.46-14.18-2.53,13.73c-.08.41-.34.75-.68.93-.26.14-.56.19-.87.13-.72-.13-1.2-.83-1.07-1.55l2.57-13.94-4.55,13.2c-.11.33-.34.59-.63.74-.31.17-.7.21-1.06.08-.69-.24-1.06-1-.82-1.69l4.62-13.41-6.46,12.37c-.13.25-.32.43-.55.56-.37.2-.84.22-1.24,0-.65-.34-.9-1.14-.56-1.79l6.57-12.57-8.24,11.27c-.12.17-.28.3-.45.39-.44.23-.99.21-1.41-.1-.59-.43-.72-1.26-.29-1.86l8.36-11.45-9.82,9.91c-.1.1-.2.18-.32.24-.5.27-1.14.19-1.56-.23-.52-.52-.53-1.36,0-1.88l9.98-10.08-11.19,8.34c-.05.04-.11.08-.17.11-.57.3-1.29.16-1.69-.38-.44-.59-.32-1.42.27-1.86l11.37-8.48-12.31,6.58c-.65.35-1.45.1-1.8-.55-.35-.65-.1-1.45.55-1.8l26.07-13.95-7.78-28.53c-.19-.71.22-1.44.93-1.63.71-.19,1.44.22,1.63.93l3.68,13.47-1.65-14.09c-.09-.73.44-1.39,1.17-1.48s1.39.44,1.48,1.17l1.63,13.87.46-14.18c.02-.73.64-1.31,1.37-1.29s1.31.64,1.29,1.37l-.46,13.95,2.57-13.95c.13-.72.83-1.2,1.55-1.07s1.2.83,1.07,1.55l-2.53,13.73,4.62-13.41c.24-.69.99-1.06,1.69-.82.69.24,1.06,1,.82,1.69l-4.55,13.2,6.57-12.57c.34-.65,1.14-.9,1.79-.56s.9,1.14.56,1.79l-6.46,12.38,8.37-11.45c.43-.59,1.27-.72,1.86-.29s.72,1.26.29,1.86l-8.24,11.27,9.98-10.08c.51-.52,1.36-.53,1.88,0,.52.52.53,1.36,0,1.88l-9.82,9.92,11.37-8.48c.58-.44,1.42-.32,1.86.27s.32,1.42-.27,1.86l-11.19,8.35,12.51-6.69c.65-.35,1.45-.1,1.8.55s.1,1.45-.55,1.8h-.02Z"/>
      <path d="M357.31,378.77l13.27-4.81-11.83-7.7,11.14-8.68-13.64-3.67,7.91-11.7-14.1.72,3.91-13.57-13.19,5.05-.48-14.11-10.98,8.87-4.81-13.27-7.7,11.83-8.68-11.14-3.67,13.64-11.7-7.91.72,14.1-13.57-3.91,5.05,13.19-14.11.48,8.87,10.98-13.27,4.81,11.83,7.7-11.14,8.68,13.64,3.67-7.91,11.7,14.1-.72-3.91,13.57,13.19-5.05.48,14.11,10.98-8.87,3.54,9.76c-3.6,8.07-6.89,16.37-8.86,25.09-.36-4.86-.91-11.28-2.07-15.95-1.2-4.66-3.23-7.67-7.01-5.2-2.1,1.39-2.82,3.46-2.83,5.49.02,2.08.73,4.1,1.5,5.61,2.29,4.52,3.94,8.86,5.36,12.65.67,1.89,1.29,3.63,1.84,5.2.54,1.56.94,2.92,1.36,4.06-.43,4.76-.21,9.58.47,14.32-2.11-4.41-4.76-10.47-7.06-14.88-1.27-2.2-2.41-3.92-3.79-4.69-1.35-.76-2.8-.52-4.34,1.35-1.72,2.09-1.78,4.56-1.26,6.69.65,2.19,1.99,4.07,3.17,5.34,1.83,1.92,3.56,3.8,5.08,5.58,1.68,1.77,3.11,3.45,4.48,4.98,1.45,1.52,2.68,2.92,3.78,4.15,1.19,1.2,2.18,2.26,2.97,3.15.35,1.15.94,2.21,1.4,3.31.52,1.09.92,2.19,1.59,3.27,1.25,2.12,2.62,4.05,4.01,5.95-.97-.73-2.03-1.49-3.14-2.29-.56-.38-1.13-.82-1.71-1.24-.59-.4-1.18-.88-1.79-1.4-.65-.52-1.16-.99-1.7-1.45-.56-.46-1.11-.92-1.65-1.37-1.13-.88-2.21-1.72-3.21-2.5-3.99-3.05-7.72-4.61-8.8.28-.29,1.37-.22,2.66.1,3.84.33,1.17,1.02,2.17,1.76,3.05.76.88,1.64,1.62,2.53,2.21.51.34,1.01.67,1.5,1,.52.33,1.03.61,1.5.85.71.36,1.31.47,1.95.72.63.21,1.25.45,1.84.64,1.17.33,2.31.7,3.39,1.04,2.15.65,4.14,1.34,5.94,2.03,3.6,1.38,6.52,2.87,8.54,4.07,2.76,3.76,5.5,7.55,7.83,11.5-3.49-3.2-8.78-6.29-13.18-7.61-4.41-1.32-7.91-.89-8.02,3.28-.15,4.62,4.26,5.73,7.29,6.04,4.48.44,8.47,1.63,11.47,3.1.69.25,1.39.59,1.98,1.02.3.21.62.42.89.66.25.24.49.49.72.74.89,1,1.43,2.2,1.95,3.27.03,1.15.11,2.31.1,3.46l-.16,3.44-.08,1.72c-.05.57-.15,1.13-.23,1.7l-.49,3.38c-.18-1.18-.43-2.41-.73-3.64-.25-1.21-.74-2.46-1.26-3.66-.52-1.19-1.06-2.33-1.67-3.36-.68-1.06-1.39-2.02-2.11-2.85-.36-.41-.72-.81-1.09-1.12-.36-.21-.72-.39-1.08-.52-.71-.24-1.46-.26-2.19-.21-1.47.13-2.77.54-4.07.9-.73.03-1.05,1.07-1.12,1.75-.07.73.13,1.44.5,2.13.59,1.24,1.85,2.44,2.98,3.37,1.75,1.44,2.96,2.79,4.16,4.4,1.24,1.62,1.92,3.12,2.61,4.78.16.4.33.83.44,1.21.1.38.19.77.27,1.15.17.77.3,1.54.4,2.28.17,1.47,0,2.76-.08,3.92-2.34,3.81-5.73,7.39-9.36,9.26-6.47,3.97-7.46,4.37-10.25,6.04-.36.19-1.18.67-2.23,1.3.61.66,1.01,1.49,1.19,2.37.86-.52,1.66-.98,2.33-1.35,2.33-.25,5.59-.36,9.6-.32,4.03,0,8.92-.04,14.71-.64.96-.14,2.07-.4,3.24-.83,1.17-.43,2.41-.99,3.48-1.91,1.09-.89,2.1-1.98,2.88-3.25.67-1.32,1.11-2.83,1.16-4.45.02-.72-.03-1.33-.15-1.83-.15-.5-.36-.9-.61-1.2-.5-.61-1.17-.85-1.95-.83-1.49.06-3.79,1.11-6.12,2.46-2.45,1.31-5.22,2.85-8.03,4l-1.02.46-1.06.38c-.68.25-1.36.5-2.03.75-1.32.48-2.63.82-3.78,1.23,3.99-2.65,7.7-6.05,10.27-10.25.91-.76,2.19-1.63,3.47-2.76.64-.58,1.32-1.2,2.03-1.84.37-.33.75-.67,1.13-1.02.38-.35.71-.72,1.08-1.1,1.42-1.5,3.24-3.21,4.78-4.95,1.6-1.74,3.56-3.7,5.3-5.51,1.23-1.24,2.63-3.07,3.37-5.22.3-1.02.44-2.11.3-3.21-.14-1.16-.52-1.98-1.32-3.81-.33-.68-.78-1.31-1.16-1.74-.53-.42-.84-.71-1.25-.86-.76-.31-1.44-.11-2.07.43-.3.27-.65.63-.86,1.04-.32.42-.61.92-.95,1.43-.34.51-.67,1.07-1,1.65-.33.49-.67.96-.99,1.49-.65,1.05-1.28,2.21-1.88,3.42-.67,1.24-1.35,2.53-1.98,3.82-1.14,2.57-2.67,5.15-3.65,7.35l.52-3.57c.08-.6.18-1.19.24-1.79l.08-1.79.16-3.59c0-1.19-.07-2.38-.1-3.57.22-.57.46-1.19.72-1.87.24-.71.64-1.52.78-2.4.11-.45.21-.92.33-1.39.09-.48.12-.97.18-1.49.13-1.04.19-2.15.17-3.35.19-4.37.35-9.07,1.19-13.99.58-3.29.47-8.46-4.13-9.78-4.1-1.16-5.46,2.1-5.4,6.81.06,4.72,1.53,10.93,2.69,15.71-2.43-4.13-5.2-7.95-7.99-11.74-.55-2.3-1.21-5.54-1.48-9.35-.13-1.9-.15-3.94.03-6.02.1-1.03.28-2.06.5-3.09.13-.5.31-.97.48-1.45.2-.45.32-1.01.64-1.35.2-.22.41-.46.62-.71.21-.23.42-.4.55-.83.29-.73.51-1.46.57-2.13.07-.68-.08-1.28-.37-1.84-.28-.56-.82-1.04-1.73-1.42-3.26-1.41-5.83.38-7.35,4.43-.42,1.02-.61,2.1-.78,3.29-.08.59-.15,1.21-.2,1.84-.05.63-.09,1.3-.08,1.84.02,2.34.79,5.1,1.56,7.33-1.38-1.88-2.72-3.78-3.85-5.7-.58-.92-.99-2.03-1.48-3.05-.44-1.05-1.01-2.06-1.34-3.16.08-1.16.23-2.53.49-4,.34-1.5.86-3.13,1.51-4.74.72-1.64,1.71-3.3,2.81-4.86,1.25-1.58,2.65-3.06,4.31-4.37,1.17-.9,2.48-2.04,3.12-3.26.79-1.27.78-2.59-.45-4.19-2.21-2.89-5.49-2.09-8.53,1.04-3.11,3.07-5.45,8.55-6.15,13.26-.65-4.53-.87-9.14-.45-13.72.49-1.03,1.26-2.21,2.15-3.47.86-1.26,1.98-2.57,3.28-3.86,2.55-2.58,6.01-5.03,10.11-6.73,1.38-.57,3.07-1.42,4.13-2.58,1.13-1.18,1.66-2.69.93-4.75-1.3-3.72-4.73-3.46-8.56-1.09-3.85,2.33-7.89,6.89-10.25,11.04,1.75-7.75,4.59-15.23,7.79-22.56l7.45-11.45,8.68,11.14,3.67-13.64,11.7,7.91-.72-14.1,13.57,3.91-5.05-13.19,14.11-.48-8.87-10.98.06-.04ZM347.38,354.51l-28.26,14.63-.03.02-.02.02-.02.02v.02l-.02.03v.07l7.97,30.82c.16.61-.14,1.23-.67,1.51-.09.05-.18.08-.28.11-.71.18-1.44-.24-1.62-.95l-3.55-13.74,1.44,13.89c.06.56-.24,1.07-.71,1.32-.14.07-.3.12-.47.14-.73.08-1.38-.45-1.46-1.18l-1.46-14.11-.64,13.95c-.02.49-.31.91-.72,1.12-.2.1-.43.16-.67.15-.73-.03-1.3-.66-1.27-1.39l.65-14.17-2.72,13.7c-.08.41-.35.74-.69.92-.26.13-.56.18-.87.12-.72-.14-1.19-.84-1.04-1.56l2.76-13.91-4.72,13.14c-.12.33-.35.58-.64.73-.32.16-.7.2-1.06.07-.69-.25-1.05-1.01-.8-1.7l4.8-13.35-6.63,12.29c-.13.24-.33.43-.56.55-.38.2-.84.21-1.24,0-.65-.35-.89-1.16-.54-1.8l6.73-12.48-8.38,11.16c-.12.16-.28.29-.45.38-.44.23-.99.2-1.41-.12-.59-.44-.7-1.27-.26-1.86l8.52-11.34-9.95,9.79c-.1.1-.21.17-.32.23-.51.26-1.14.18-1.56-.25-.51-.52-.51-1.37.02-1.88l10.11-9.94-11.29,8.19c-.06.04-.11.07-.17.1-.57.3-1.3.14-1.69-.4-.43-.6-.3-1.43.3-1.86l11.48-8.32-12.39,6.42c-.65.34-1.45.08-1.79-.57s-.08-1.45.57-1.79l26.26-13.6-7.4-28.63c-.19-.71.24-1.44.95-1.62.71-.18,1.44.24,1.62.95l3.49,13.52-1.46-14.11c-.08-.73.46-1.38,1.18-1.46.73-.08,1.38.45,1.46,1.19l1.44,13.88.65-14.17c.03-.73.66-1.3,1.39-1.27s1.3.66,1.27,1.39l-.64,13.95,2.76-13.92c.14-.72.84-1.19,1.56-1.05s1.19.84,1.04,1.56l-2.72,13.7,4.8-13.35c.25-.69,1.01-1.05,1.7-.8s1.05,1.01.8,1.7l-4.72,13.14,6.74-12.48c.35-.64,1.16-.89,1.8-.54.65.35.89,1.16.54,1.8l-6.63,12.29,8.52-11.34c.44-.59,1.27-.7,1.86-.26s.7,1.27.26,1.86l-8.38,11.15,10.11-9.94c.53-.52,1.37-.51,1.88.02.51.52.51,1.37-.02,1.88l-9.95,9.78,11.48-8.32c.61-.43,1.43-.3,1.86.3.43.6.3,1.43-.3,1.86l-11.3,8.19,12.59-6.52c.65-.34,1.45-.08,1.79.57s.08,1.45-.57,1.79l-.02-.03Z"/>
      <path d="M115.79,342.47l-23.68,8.29c-7.79,2.72-16.59,1.16-22.97-4.06l-27.14-22.21,34.28-7.32c8.1-1.74,16.67.95,22.36,7h0l17.15,18.3ZM47.34,325.79l23.31,19.07c5.74,4.7,13.66,6.1,20.67,3.65l20.23-7.08-14.65-15.63c-5.12-5.45-12.83-7.87-20.13-6.3l-29.43,6.29h0Z"/>
      <path d="M289.65,587.58l-5.25,5.07h-3.32s3.51-3.24,6.85-6.71,4.72-4.32,12.23-18.06c7.17-13.11,11.44-23.24,5.64-43.66l2.38-.68c6.05,21.33,1.61,31.87-5.85,45.52-7.77,14.21-10.68,16.35-12.67,18.51h-.01Z"/>
      <path class="st1" d="M331.7,398.75l-14.63-28.26-.02-.03-.02-.02-.02-.02h-.02l-.03-.02h-.07l-30.82,7.97c-.61.16-1.23-.14-1.51-.67-.05-.09-.08-.18-.11-.28-.18-.71.24-1.44.95-1.62l13.74-3.55-13.89,1.44c-.56.06-1.07-.24-1.32-.71-.07-.14-.12-.3-.14-.47-.08-.73.45-1.38,1.18-1.46l14.11-1.46-13.95-.64c-.49-.02-.91-.31-1.12-.72-.1-.2-.16-.43-.15-.67.03-.73.66-1.3,1.39-1.27l14.17.65-13.7-2.72c-.41-.08-.74-.35-.92-.69-.13-.26-.18-.56-.12-.87.14-.72.84-1.19,1.56-1.04l13.91,2.76-13.14-4.72c-.33-.12-.58-.35-.73-.64-.16-.32-.2-.7-.07-1.06.25-.69,1.01-1.05,1.7-.8l13.35,4.8-12.29-6.63c-.24-.13-.43-.33-.55-.56-.2-.38-.21-.84,0-1.24.35-.65,1.16-.89,1.8-.54l12.48,6.73-11.16-8.38c-.16-.12-.29-.28-.38-.45-.23-.44-.2-.99.12-1.41.44-.59,1.27-.7,1.86-.26l11.34,8.52-9.79-9.95c-.1-.1-.17-.21-.23-.32-.26-.51-.18-1.14.25-1.56.52-.51,1.37-.51,1.88.02l9.94,10.11-8.19-11.29c-.04-.06-.07-.11-.1-.17-.3-.57-.14-1.3.4-1.69.6-.43,1.43-.3,1.86.3l8.32,11.48-6.42-12.39c-.34-.65-.08-1.45.57-1.79s1.45-.08,1.79.57l13.6,26.26,28.63-7.4c.71-.19,1.44.24,1.62.95.18.71-.24,1.44-.95,1.62l-13.52,3.49,14.11-1.46c.73-.08,1.38.46,1.46,1.18.08.73-.45,1.38-1.19,1.46l-13.88,1.44,14.17.65c.73.03,1.3.66,1.27,1.39s-.66,1.3-1.39,1.27l-13.95-.64,13.92,2.76c.72.14,1.19.84,1.05,1.56s-.84,1.19-1.56,1.04l-13.7-2.72,13.35,4.8c.69.25,1.05,1.01.8,1.7s-1.01,1.05-1.7.8l-13.14-4.72,12.48,6.74c.64.35.89,1.16.54,1.8-.35.65-1.16.89-1.8.54l-12.29-6.63,11.34,8.52c.59.44.7,1.27.26,1.86s-1.27.7-1.86.26l-11.15-8.38,9.94,10.11c.52.53.51,1.37-.02,1.88-.52.51-1.37.51-1.88-.02l-9.78-9.95,8.32,11.48c.43.61.3,1.43-.3,1.86-.6.43-1.43.3-1.86-.3l-8.19-11.3,6.52,12.59c.34.65.08,1.45-.57,1.79s-1.45.08-1.79-.57l.03-.02Z"/>
      <path class="st1" d="M171.96,463.22l-14.63-28.26-.02-.03-.02-.02-.02-.02h-.02l-.03-.02h-.07l-30.82,7.97c-.61.16-1.23-.14-1.51-.67-.05-.09-.08-.18-.11-.28-.18-.71.24-1.44.95-1.62l13.74-3.55-13.89,1.44c-.56.06-1.07-.24-1.32-.71-.07-.14-.12-.3-.14-.47-.08-.73.45-1.38,1.18-1.46l14.11-1.46-13.95-.64c-.49-.02-.91-.31-1.12-.72-.1-.2-.16-.43-.15-.67.03-.73.66-1.3,1.39-1.27l14.17.65-13.7-2.72c-.41-.08-.74-.35-.92-.69-.13-.26-.18-.56-.12-.87.14-.72.84-1.19,1.56-1.04l13.91,2.76-13.14-4.72c-.33-.12-.58-.35-.73-.64-.16-.32-.2-.7-.07-1.06.25-.69,1.01-1.05,1.7-.8l13.35,4.8-12.29-6.63c-.24-.13-.43-.33-.55-.56-.2-.38-.21-.84,0-1.24.35-.65,1.16-.89,1.8-.54l12.48,6.73-11.16-8.38c-.16-.12-.29-.28-.38-.45-.23-.44-.2-.99.12-1.41.44-.59,1.27-.7,1.86-.26l11.34,8.52-9.79-9.95c-.1-.1-.17-.21-.23-.32-.26-.51-.18-1.14.25-1.56.52-.51,1.37-.51,1.88.02l9.94,10.11-8.19-11.29c-.04-.06-.07-.11-.1-.17-.3-.57-.14-1.3.4-1.69.6-.43,1.43-.3,1.86.3l8.32,11.48-6.42-12.39c-.34-.65-.08-1.45.57-1.79.65-.34,1.45-.08,1.79.57l13.6,26.26,28.63-7.4c.71-.19,1.44.24,1.62.95.18.71-.24,1.44-.95,1.62l-13.52,3.49,14.11-1.46c.73-.08,1.38.46,1.46,1.18.08.73-.45,1.38-1.19,1.46l-13.88,1.44,14.17.65c.73.03,1.3.66,1.27,1.39s-.66,1.3-1.39,1.27l-13.95-.64,13.92,2.76c.72.14,1.19.84,1.05,1.56s-.84,1.19-1.56,1.04l-13.7-2.72,13.35,4.8c.69.25,1.05,1.01.8,1.7s-1.01,1.05-1.7.8l-13.14-4.72,12.48,6.74c.64.35.89,1.16.54,1.8-.35.65-1.16.89-1.8.54l-12.29-6.63,11.34,8.52c.59.44.7,1.27.26,1.86s-1.27.7-1.86.26l-11.15-8.38,9.94,10.11c.52.53.51,1.37-.02,1.88-.52.51-1.37.51-1.88-.02l-9.78-9.95,8.32,11.48c.43.61.3,1.43-.3,1.86s-1.43.3-1.86-.3l-8.19-11.3,6.52,12.59c.34.65.08,1.45-.57,1.79s-1.45.08-1.79-.57l.03-.02Z"/>
    </g>
  </g>
</svg>