<?xml version="1.0" encoding="UTF-8"?>
<svg id="Layer_1" xmlns="http://www.w3.org/2000/svg" version="1.1" viewBox="0 0 239 595.28">
  <!-- Generator: Adobe Illustrator 30.1.0, SVG Export Plug-In . SVG Version: 2.1.1 Build 136)  -->
  <defs>
    <style>
      .st0 {
        fill: #fff;
      }
    </style>
  </defs>
  <g id="b_x5F_1">
    <path class="st0" d="M114.14,241.36c-11.25-4.81-21.95-9.38-30.53-18.25,0,0,2.56,14.9,7.69,14.9-5.13,0-7.69,12.49-7.69,12.49,9.49-5.45,18.39-8.22,26.49-8.22,2.8,0,5.6.34,8.35.93-1.44-.63-2.88-1.24-4.31-1.85h0ZM110.1,286.72c-8.1,0-16.99-2.76-26.49-8.22,0,0,2.56,12.49,7.69,12.49-5.13,0-7.69,14.9-7.69,14.9,8.58-8.86,19.28-13.44,30.53-18.25,1.43-.61,2.87-1.23,4.31-1.85-2.75.59-5.55.93-8.35.93h0ZM165.99,255.07l-11.47,9.43,11.47,9.43c.33-3.1.49-6.26.49-9.43s-.16-6.33-.49-9.43ZM145.98,403.76c5.12,0,7.69-14.9,7.69-14.9-8.58,8.86-19.28,13.44-30.53,18.25-1.43.61-2.87,1.23-4.31,1.85,2.75-.59,5.55-.93,8.35-.93,8.1,0,16.99,2.76,26.49,8.22,0,0-2.56-12.49-7.69-12.49h0ZM145.98,456.74c5.12,0,7.69-12.49,7.69-12.49-9.49,5.45-18.39,8.22-26.49,8.22-2.8,0-5.6-.34-8.35-.93,1.44.63,2.88,1.24,4.31,1.85,11.25,4.81,21.95,9.38,30.53,18.25,0,0-2.56-14.9-7.69-14.9h0ZM71.28,420.82c-.32,3.1-.49,6.26-.49,9.43s.16,6.33.49,9.43l11.47-9.43-11.47-9.43Z"/>
    <path class="st0" d="M169.88,531.07h-.03c-2.56-48.73-115-13.82-85.39-100.81h0s.03.04.05.06c32.32,38.1,84.67,14.84,85.36,100.75h0Z"/>
    <path class="st0" d="M169.9,430.26s-21.36,20.51-42.72,20.51-41.38-19.25-42.66-20.45c-.02-.02-.03-.04-.05-.06.58-.57,21.65-20.51,42.71-20.51s42.72,20.51,42.72,20.51Z"/>
    <path class="st0" d="M169.88,329.43c-.69,85.96-53.1,62.63-85.42,100.82-29.62-87,82.83-52.09,85.39-100.82h.03Z"/>
    <path class="st0" d="M67.42,365.32h-.03c.69-85.91,53.05-62.65,85.36-100.76l.06-.06c29.62,87-82.83,52.09-85.39,100.82Z"/>
    <path class="st0" d="M152.81,264.5l-.06.06c-1.27,1.2-21.97,20.45-42.66,20.45s-42.72-20.5-42.72-20.5c0,0,21.36-20.51,42.72-20.51s41.39,19.24,42.66,20.44c0,0,.03.02.03.03s.02.02.03.03h0Z"/>
    <path class="st0" d="M152.81,264.5l-.03-.03-.03-.03c-32.31-38.12-84.67-14.85-85.36-100.76h.03c2.57,48.74,115.01,13.82,85.39,100.82Z"/>
    <path class="st0" d="M233.08,25.3c-49.2,1.82,2.88,183.19-112.62,117.06,1.21,32.75,13.96,47.63,26.33,62.02,12.21,14.2,24.83,28.9,24.83,60.14,0,42.25-26.39,63.58-51.9,84.2-26.04,21.05-50.63,40.92-50.63,81.55s24.59,60.5,50.63,81.55c25.52,20.62,51.9,41.95,51.9,84.2h-3.42c0-40.63-24.59-60.5-50.63-81.55-25.52-20.62-51.9-41.95-51.9-84.2s26.39-63.58,51.9-84.2c26.04-21.05,50.63-40.93,50.63-81.55,0-29.98-11.66-43.55-24-57.92-12.79-14.88-25.99-30.27-27.17-64.36C1.24,208.71,53.48,26.99,4.16,25.29c55.53,0,65.79,35.83,68.35,64.83,2.52,28.44,17.36,63.44,44.52,51.91-.02-.44-.04-.86-.05-1.3-16.93,9.64-39.34-8.85-39.34-44.66S118.65,25.27,118.65,25.27c0,0,41.01,36.2,41.01,70.8s-22.34,54.24-39.26,44.7c0,.45.03.89.05,1.33,27.04,11.3,41.82-23.61,44.33-51.99,2.56-28.99,12.8-64.81,68.3-64.81h0Z"/>
  </g>
  <g id="b_x5F_1_copy">
    <path d="M170.68,90.97c-2.52,26.86-13.6,53.75-32.98,56.54,8.32,2.95,15.7,4.44,22.04,4.44,13.49,0,22.7-6.42,29-20.21,5.12-11.22,7.64-26.02,9.85-40.78l-13.96,13.94-13.95-13.93h0ZM45.89,90.92l6.75,6.74,6.75-6.74-6.75-6.74-6.75,6.74ZM66.59,90.97l-13.95,13.93-13.96-13.94c2.21,14.75,4.73,29.56,9.85,40.78,6.29,13.79,15.51,20.21,29,20.21,6.34,0,13.73-1.49,22.04-4.44-19.38-2.8-30.45-29.68-32.98-56.54ZM66.59,90.87c-.02-.2-.04-.41-.06-.61-1.53-17.26-5.53-29.8-12.6-39.45-7.72-10.54-19.09-17.55-34.59-21.31,11.9,11,15.18,33.24,18.62,56.57.24,1.61.47,3.22.72,4.83l13.97-13.95s13.94,13.92,13.94,13.92ZM191.38,90.92l-6.75-6.74-6.75,6.74,6.75,6.74,6.75-6.74ZM127.18,409.75c-21.36,0-42.72,20.51-42.72,20.51,0,0,21.36,20.51,42.72,20.51s42.72-20.51,42.72-20.51c0,0-21.36-20.51-42.72-20.51ZM86.17,430.25s20.51-15.38,41.01-15.38,41.01,15.38,41.01,15.38c0,0-20.51,15.38-41.01,15.38s-41.01-15.38-41.01-15.38ZM112.64,203.04l14.3,14.3-14.26,14.26c1.55.68,3.1,1.35,4.64,2.01,12.79,5.48,25.98,11.13,34.9,24.84,1.32-5.35,1.99-10.32,1.99-14.81,0-24.91-20.23-33.55-41.57-40.6h0ZM67.42,163.68h-.03c.69,85.96,53.11,62.62,85.42,100.82,29.62-87-82.82-52.08-85.39-100.82ZM69.08,174.79c9.4,35.03,105.09,15.38,83.73,88-21.36-39.3-74.33-17.08-83.73-88ZM183.35,50.81c-7.07,9.65-11.07,22.19-12.6,39.45-.02.2-.04.41-.06.61l13.94-13.92,13.97,13.95c.24-1.61.48-3.22.72-4.83,3.44-23.33,6.71-45.57,18.62-56.57-15.5,3.75-26.87,10.77-34.59,21.31ZM112.63,210.28l-7.06,7.06,7.06,7.06,7.06-7.06-7.06-7.06ZM112.63,304.6l-7.06,7.06,7.06,7.06,7.06-7.06-7.06-7.06ZM112.63,203.04c-2-.66-4.01-1.31-6.01-1.95-13.71-4.41-26.85-8.64-34.13-16.69,3.02,13.71,8.27,24.23,15.93,31.97,7.04,7.12,15.56,11.41,24.11,15.17l-14.2-14.2,14.3-14.3ZM110.09,285.01c21.36,0,42.72-20.51,42.72-20.51,0,0-21.36-20.5-42.72-20.5s-42.72,20.51-42.72,20.51c0,0,21.36,20.5,42.72,20.5ZM151.1,264.5s-20.51,15.38-41.01,15.38-41.01-15.38-41.01-15.38c0,0,20.51-15.38,41.01-15.38s41.01,15.38,41.01,15.38ZM83.61,250.5c9.49-5.45,18.39-8.22,26.49-8.22,2.8,0,5.6.34,8.35.93-1.44-.63-2.88-1.24-4.31-1.85-11.25-4.81-21.95-9.38-30.53-18.25,0,0,2.56,14.9,7.69,14.9-5.13,0-7.69,12.49-7.69,12.49h0ZM112.68,297.4l14.26,14.26-14.3,14.3c21.34-7.05,41.57-15.69,41.57-40.6,0-4.49-.67-9.46-1.99-14.81-8.92,13.71-22.11,19.36-34.9,24.84-1.55.66-3.1,1.32-4.64,2.01h0ZM83.61,305.89c8.58-8.86,19.28-13.44,30.53-18.25,1.43-.61,2.87-1.23,4.31-1.85-2.75.59-5.55.93-8.35.93-8.1,0-16.99-2.76-26.49-8.22,0,0,2.56,12.49,7.69,12.49-5.13,0-7.69,14.9-7.69,14.9h0ZM166.48,264.5c0-3.17-.16-6.33-.49-9.43l-11.47,9.43,11.47,9.43c.33-3.1.49-6.26.49-9.43ZM67.39,365.32h.03c2.56-48.73,115.01-13.82,85.39-100.82-32.31,38.19-84.73,14.86-85.42,100.82ZM69.08,354.21c9.4-70.91,62.37-48.7,83.73-88,21.36,72.62-74.33,52.97-83.73,88ZM110.09,278.17c16.12,0,32.49-9.96,38.02-13.67-5.54-3.71-21.92-13.67-38.02-13.67s-32.49,9.96-38.02,13.67c5.54,3.71,21.92,13.67,38.02,13.67ZM112.52,297.46c-8.54,3.76-17.06,8.06-24.11,15.17-7.66,7.74-12.91,18.26-15.93,31.97,7.28-8.05,20.42-12.28,34.13-16.69,2-.64,4.01-1.29,6.01-1.95l-14.3-14.3,14.2-14.2ZM124.65,491.71c2,.66,4.01,1.31,6.01,1.95,13.71,4.41,26.85,8.64,34.13,16.69-3.02-13.71-8.27-24.23-15.93-31.97-7.04-7.12-15.56-11.41-24.11-15.17l14.2,14.2s-14.3,14.3-14.3,14.3ZM169.85,531.07h.03c-.69-85.96-53.11-62.62-85.42-100.82-29.62,87,82.83,52.09,85.39,100.82ZM168.19,519.96c-9.4-35.03-105.09-15.38-83.73-88,21.36,39.3,74.33,17.09,83.73,88ZM124.64,491.71l-14.3-14.3,14.26-14.26c-1.55-.68-3.1-1.35-4.64-2.01-12.79-5.48-25.98-11.13-34.9-24.84-1.32,5.35-1.99,10.32-1.99,14.81,0,24.91,20.22,33.55,41.57,40.6ZM124.64,484.47l7.06-7.06-7.06-7.06-7.06,7.06,7.06,7.06ZM153.67,388.86c-8.58,8.86-19.28,13.44-30.53,18.25-1.43.61-2.87,1.23-4.31,1.85,2.75-.59,5.55-.93,8.35-.93,8.1,0,16.99,2.76,26.49,8.22,0,0-2.56-12.49-7.69-12.49,5.12,0,7.69-14.9,7.69-14.9h0ZM153.67,444.25c-9.49,5.45-18.39,8.22-26.49,8.22-2.8,0-5.6-.34-8.35-.93,1.44.63,2.88,1.24,4.31,1.85,11.25,4.81,21.95,9.38,30.53,18.25,0,0-2.56-14.9-7.69-14.9,5.12,0,7.69-12.49,7.69-12.49h0ZM164.78,90.11c-2.51,28.38-17.29,63.29-44.33,51.99-.02-.44-.04-.88-.05-1.33,16.92,9.54,39.26-10.1,39.26-44.7S118.65,25.27,118.65,25.27c0,0-41.01,34.99-41.01,70.8s22.41,54.3,39.34,44.66c.01.44.03.86.05,1.3-27.16,11.53-42-23.47-44.52-51.91-2.56-29-12.82-64.83-68.35-64.83,49.32,1.7-2.92,183.42,112.87,116.95,1.18,34.09,14.38,49.48,27.17,64.36,12.34,14.37,24,27.94,24,57.92,0,40.62-24.59,60.5-50.63,81.55-25.51,20.62-51.9,41.95-51.9,84.2s26.38,63.58,51.9,84.2c26.04,21.05,50.63,40.92,50.63,81.55h3.42c0-42.25-26.38-63.58-51.9-84.2-26.04-21.05-50.63-40.92-50.63-81.55s24.59-60.5,50.63-81.55c25.51-20.62,51.9-41.95,51.9-84.2,0-31.24-12.62-45.94-24.83-60.14-12.37-14.39-25.12-29.27-26.33-62.02,115.54,66.15,63.38-115.36,112.67-117.06-55.54-.02-65.79,35.81-68.35,64.81ZM116.93,139.23c-4.14,2.52-8.64,2.85-12.97,1.27l12.97-8.65v7.38ZM116.93,127.74l-16.52,11.01c-1.45-.9-2.86-2.01-4.22-3.33l20.74-13.83v6.15ZM116.93,117.49l-23.08,15.39c-1.04-1.26-2.02-2.67-2.95-4.18l26.03-17.35v6.14ZM116.93,107.24l-27.71,18.47c-.76-1.49-1.47-3.06-2.12-4.73l29.83-19.88v6.14ZM116.93,96.98l-30.98,20.66c-.53-1.66-1-3.4-1.4-5.21l32.39-21.59v6.14s-.01,0,0,0h0ZM116.93,86.73l-33.1,22.07c-.31-1.82-.55-3.71-.73-5.66l33.83-22.55v6.14ZM116.93,76.48l-34.1,22.73c-.05-1.14-.08-2.3-.08-3.48,0-.89.03-1.77.07-2.66l34.1-22.73v6.14s.01,0,.01,0ZM116.93,66.23l-33.7,22.47c.31-2.37.77-4.72,1.34-7.04l32.35-21.57v6.14s.01,0,.01,0ZM116.93,55.97l-30.89,20.6c.92-2.82,2-5.58,3.2-8.28l27.69-18.46v6.14ZM116.93,45.72l-24.74,16.5c1.86-3.55,3.89-6.94,5.96-10.12l18.79-12.52v6.14h-.01ZM116.93,35.47l-13.4,8.93c5.6-7.49,10.81-13.08,13.4-15.72v6.79ZM10.99,26.13c44.43,6.82,54.68,34.98,57.24,63.98s16.23,63.13,42.72,54.6C10.13,190.77,56.27,44.9,10.99,26.13ZM120.35,28.68c2.59,2.64,7.8,8.23,13.4,15.72l-13.4-8.93v-6.79ZM120.35,39.58l18.79,12.52c2.07,3.17,4.09,6.57,5.96,10.12l-24.74-16.5v-6.14s-.01,0-.01,0ZM120.35,49.83l27.69,18.46c1.2,2.7,2.28,5.46,3.2,8.28l-30.89-20.6v-6.14h0ZM120.35,60.08l32.35,21.57c.58,2.33,1.03,4.68,1.34,7.04l-33.7-22.47v-6.14h.01ZM120.35,70.33l34.1,22.73c.05.89.07,1.77.07,2.66,0,1.18-.03,2.34-.08,3.48l-34.1-22.73v-6.14h0ZM120.35,80.59l33.83,22.55c-.18,1.95-.42,3.84-.73,5.66l-33.1-22.07v-6.14h0ZM120.35,90.84l32.39,21.59c-.41,1.81-.88,3.55-1.4,5.21l-30.98-20.66v-6.14h-.01ZM120.35,101.09l29.83,19.88c-.65,1.67-1.36,3.25-2.12,4.73l-27.71-18.47v-6.14ZM120.35,111.34l26.03,17.35c-.93,1.51-1.91,2.92-2.95,4.18l-23.08-15.39s0-6.14,0-6.14ZM120.35,121.6l20.74,13.83c-1.35,1.32-2.77,2.43-4.22,3.33l-16.52-11.01s0-6.15,0-6.15ZM120.35,131.85l12.97,8.65c-4.33,1.58-8.82,1.25-12.95-1.26-.01-.58-.02-7.39-.02-7.39ZM126.33,144.71c26.48,8.53,40.15-25.59,42.72-54.6,2.56-29,12.82-57.16,57.24-63.98-45.28,18.77.85,164.64-99.96,118.58ZM127.18,416.58c-16.1,0-32.49,9.96-38.02,13.67,5.53,3.71,21.9,13.67,38.02,13.67s32.49-9.96,38.02-13.67c-5.53-3.71-21.9-13.67-38.02-13.67ZM70.79,430.25c0,3.17.16,6.33.49,9.43l11.47-9.43-11.47-9.43c-.32,3.1-.49,6.26-.49,9.43ZM124.75,397.29c8.54-3.76,17.06-8.06,24.11-15.17,7.66-7.74,12.91-18.26,15.93-31.97-7.28,8.05-20.42,12.28-34.13,16.69-2,.64-4.01,1.29-6.01,1.95l14.3,14.3-14.2,14.2ZM169.88,329.43h-.03c-2.56,48.73-115.01,13.82-85.39,100.82,32.32-38.19,84.73-14.86,85.42-100.82ZM168.19,340.54c-9.4,70.91-62.37,48.7-83.73,88-21.36-72.62,74.33-52.97,83.73-88ZM124.64,390.15l7.06-7.06-7.06-7.06-7.06,7.06,7.06,7.06ZM124.6,397.36l-14.26-14.26,14.3-14.3c-21.34,7.05-41.57,15.69-41.57,40.6,0,4.49.67,9.46,1.99,14.81,8.92-13.71,22.11-19.36,34.9-24.84,1.54-.67,3.09-1.33,4.64-2.01Z"/>
  </g>
</svg>