<?xml version="1.0" encoding="UTF-8"?>
<svg id="Layer_4" xmlns="http://www.w3.org/2000/svg" version="1.1" viewBox="0 0 373.01 595.28">
  <!-- Generator: Adobe Illustrator 30.1.0, SVG Export Plug-In . SVG Version: 2.1.1 Build 136)  -->
  <path d="M295.81,310.79c73.31-35.27,69.72-75.78,69.72-75.78-90.59-27.35-141.34,96.94-160.95,160.31v-151.05c7.28-2.96,19.01-8.06,20.46-8.94,8.6-5.2,17.98-12.75,19.49-23.36,2-13.94-4.56-24.92-12.2-35.85-.49-.73-1.02-1.45-1.19-2.32-.46-2.12,1.88-4.26,4.25-6.68,3.64,1.05,7.51,1.72,11.2,3.03,9.97,3.55,17.85,13.48,25.77,20.22,6.99,5.95,15.17,12.61,24.37,14.49,7.45,1.52,5.6-1.91.84-5.73-2.22-1.79-14.59-11.1-11.04-15.18,1.7-1.95,6.36-2.7,8.68-4.14,2.87-1.77,5.85-4.22,6.62-7.68,1.2-5.39-7.66-11.46-11.1-13.52,5.75,2.85,16.22-1.88,16.5-5.92.37-5.3-10.86-9.36-14.45-11.45-.58-.34-1.22-1.12-.7-1.55.17-.14.41-.16.63-.17,5.33-.32,10.81-.18,15.83-2.02.64-.24,1.36-.6,1.5-1.27.11-.51-.16-1.02-.43-1.47-7.64-12.57-22.94-17.59-36.81-13.35-11.47,3.51-21.72,10.69-30.79,18.37-.75.64-13.3,13.07-17.21,17.82-1.8.73-3.77,1.44-5.81,2.11,4.02-12.69,11.35-31.4,20.78-37.89,10.56-7.27,23.65-10.77,36.43-9.74,7.88.64,15.52,2.92,23.25,4.56,2.86.61,5.97,1.1,8.61-.15,2.65-1.24,4.29-4.95,2.43-7.21-.75-.91-1.88-1.4-3-1.77-3.38-1.13-7.03-1.46-10.56-.95,4.14-.83,8.05-2.78,11.21-5.57,1.02-.9,2.02-1.98,2.26-3.32.61-3.27-3.23-5.49-6.46-6.31-9.48-2.41-19.41-2.15-29.18-1.86,7.55-2.24,14.74-5.69,21.21-10.17,2.59-1.8,5.36-4.52,4.6-7.58-.46-1.84-2.1-3.14-3.74-4.1-6.15-3.59-13.61-4.47-20.67-3.54-7.06.93-13.78,3.57-20.2,6.65,4.61-4.27,9.2-8.7,12.44-14.08,3.24-5.38,6.36-14.63,3.65-18.03-2.7-3.4-16.55.13-23.56,4.28-15.81,9.35-22.69,31.4-27.31,48.04-2.8,10.08-4.76,20.39-6.25,30.74-.77,5.32-1.19,10.72-1.75,16.07-.25,2.33-1.88,17.66-1.74,24.19-2.67.74-5.16,1.37-7.24,1.87-1.61-4.35-.09-39.65.1-41.94,0-15.8,4.97-33.41,10.69-47.99,6.25-15.92,15.51-29.46,27.97-41.1.49-.46,1.02-.96,1.39-1.51,1.74-2.64,1.1-9.12-2.5-10.08-2.76-.76-6.1,1.86-8.1,3.37-5.23,3.92-10.75,9.35-14.03,15.11,1.02-1.86,9.99-18.33,7.47-23.68-2.64-5.69-16.65-1.92-24.98,19.7,0,0,4.63-28.03-3.46-28.03s-3.46,28.03-3.46,28.03c-8.34-21.61-22.34-25.39-24.98-19.7-2.53,5.35,6.45,21.82,7.47,23.68-3.28-5.75-8.8-11.18-14.03-15.11-2-1.51-5.35-4.12-8.1-3.37-3.6.96-4.24,7.44-2.5,10.08.38.55.9,1.05,1.39,1.51,12.46,11.65,21.73,25.19,27.97,41.1,5.72,14.58,10.69,32.19,10.69,47.99.19,2.29,1.71,37.59.1,41.94-1.86-.45-4.05-1-6.42-1.64.18-6.38-1.48-22.05-1.73-24.42-.57-5.35-.99-10.74-1.75-16.07-1.49-10.35-3.45-20.66-6.25-30.74-4.62-16.64-11.5-38.69-27.31-48.04-7.01-4.15-20.85-7.68-23.56-4.28-2.7,3.4.41,12.65,3.65,18.03,3.24,5.38,7.83,9.81,12.44,14.08-6.42-3.08-13.14-5.72-20.2-6.65s-14.52-.05-20.67,3.54c-1.64.96-3.28,2.25-3.74,4.1-.76,3.06,2.01,5.78,4.6,7.58,6.47,4.49,13.66,7.94,21.21,10.17-9.78-.28-19.7-.55-29.18,1.86-3.23.82-7.07,3.04-6.46,6.31.25,1.34,1.24,2.42,2.26,3.32,3.16,2.79,7.07,4.74,11.21,5.57-3.53-.5-7.18-.17-10.56.95-1.12.37-2.25.86-3,1.77-1.86,2.26-.22,5.97,2.43,7.21s5.75.75,8.61.15c7.74-1.64,15.37-3.92,23.25-4.56,12.77-1.03,25.87,2.47,36.43,9.74,9.5,6.54,16.88,25.5,20.88,38.19-1.9-.61-3.76-1.25-5.51-1.92-3.37-4.32-16.82-17.66-17.61-18.32-9.07-7.68-19.32-14.86-30.79-18.37-13.87-4.24-29.17.78-36.81,13.35-.27.45-.54.96-.43,1.47.14.67.86,1.03,1.5,1.27,5.01,1.84,10.5,1.7,15.83,2.02.22,0,.46.03.63.17.52.43-.12,1.21-.7,1.55-3.59,2.09-14.82,6.15-14.45,11.45.28,4.04,10.76,8.77,16.5,5.92-3.44,2.07-12.3,8.14-11.1,13.52.77,3.46,3.75,5.91,6.62,7.68,2.32,1.43,6.98,2.18,8.68,4.14,3.55,4.08-8.81,13.39-11.04,15.18-4.76,3.82-6.61,7.25.84,5.73,9.21-1.88,17.38-8.54,24.37-14.49,7.92-6.75,15.81-16.67,25.77-20.22,3.47-1.24,7.09-1.91,10.54-2.85,2.31,2.34,4.53,4.43,4.09,6.5-.17.87-.7,1.6-1.19,2.32-7.64,10.92-14.21,21.9-12.23,35.85,1.51,10.6,10.92,18.16,19.52,23.36,1.45.87,13.16,5.97,20.44,8.93v106.06c-23.51-55.13-92.58-191.53-184.95-150.31,0,0,1.55,40.64,78.72,66.38,56.48,18.83,91.4,76.36,106.28,102v85.44c-12.15-39.51-43.97-118.21-100.99-100.99,0,0-2.25,25.38,43.67,47.47,32.67,15.72,49.76,52.48,57.32,70.24v114.26c0,3.21,2.6,5.81,5.81,5.81s5.81-2.6,5.81-5.81v-86.98c7.56-17.76,24.65-54.52,57.32-70.24,45.92-22.09,43.67-47.47,43.67-47.47-57.03-17.22-88.84,61.48-100.99,100.99v-58.85c12.24-28.64,39.55-86.6,91.23-111.46Z"/>
</svg>