<?xml version="1.0" encoding="UTF-8"?>
<svg id="Layer_4" xmlns="http://www.w3.org/2000/svg" version="1.1" viewBox="0 0 303.9 471.44">
  <!-- Generator: Adobe Illustrator 30.1.0, SVG Export Plug-In . SVG Version: 2.1.1 Build 136)  -->
  <path d="M238.21,253.94c58.64-28.21,55.77-60.62,55.77-60.62-72.46-21.88-113.06,77.54-128.74,128.23v-120.82c5.82-2.37,15.21-6.45,16.37-7.15,6.88-4.16,14.38-10.2,15.59-18.69,1.6-11.15-3.65-19.93-9.76-28.68-.39-.58-.82-1.16-.95-1.86-.37-1.7,1.5-3.41,3.4-5.34,2.91.84,6.01,1.38,8.96,2.42,7.97,2.84,14.28,10.78,20.61,16.17,5.59,4.76,12.13,10.09,19.49,11.59,5.96,1.22,4.48-1.53.67-4.58-1.78-1.43-11.67-8.88-8.83-12.14,1.36-1.56,5.09-2.16,6.94-3.31,2.3-1.42,4.68-3.38,5.3-6.14.96-4.31-6.13-9.17-8.88-10.81,4.6,2.28,12.97-1.5,13.2-4.74.3-4.24-8.69-7.49-11.56-9.16-.46-.27-.98-.9-.56-1.24.14-.11.33-.13.5-.14,4.26-.26,8.65-.14,12.66-1.62.51-.19,1.09-.48,1.2-1.02.09-.41-.13-.82-.34-1.18-6.11-10.05-18.35-14.07-29.44-10.68-9.17,2.81-17.37,8.55-24.63,14.69-.6.51-10.64,10.45-13.77,14.25-1.44.58-3.02,1.15-4.65,1.69,3.22-10.15,9.08-25.12,16.62-30.31,8.45-5.82,18.92-8.61,29.14-7.79,6.3.51,12.41,2.34,18.6,3.65,2.29.49,4.78.88,6.89-.12,2.12-.99,3.43-3.96,1.94-5.77-.6-.73-1.5-1.12-2.4-1.42-2.7-.9-5.62-1.17-8.45-.76,3.31-.66,6.44-2.22,8.97-4.46.82-.72,1.62-1.58,1.81-2.66.49-2.62-2.58-4.39-5.17-5.05-7.58-1.93-15.53-1.72-23.34-1.49,6.04-1.79,11.79-4.55,16.97-8.13,2.07-1.44,4.29-3.62,3.68-6.06-.37-1.47-1.68-2.51-2.99-3.28-4.92-2.87-10.89-3.58-16.53-2.83-5.65.74-11.02,2.86-16.16,5.32,3.69-3.42,7.36-6.96,9.95-11.26s5.09-11.7,2.92-14.42c-2.16-2.72-13.24.1-18.85,3.42-12.65,7.48-18.15,25.12-21.85,38.43-2.24,8.06-3.81,16.31-5,24.59-.62,4.26-.95,8.57-1.4,12.85-.2,1.86-1.5,14.13-1.39,19.35-2.14.59-4.13,1.1-5.79,1.5-1.29-3.48-.07-31.72.08-33.55,0-12.64,3.98-26.72,8.55-38.39,5-12.73,12.41-23.56,22.37-32.88.39-.37.82-.77,1.11-1.21,1.39-2.11.88-7.3-2-8.06-2.21-.61-4.88,1.49-6.48,2.7-4.18,3.14-8.6,7.48-11.22,12.09.82-1.49,7.99-14.66,5.98-18.94-2.11-4.55-13.32-1.54-19.98,15.76,0,0,3.7-22.42-2.77-22.42s-2.77,22.42-2.77,22.42c-6.67-17.29-17.87-20.31-19.98-15.76-2.02,4.28,5.16,17.45,5.98,18.94-2.62-4.6-7.04-8.94-11.22-12.09-1.6-1.21-4.28-3.3-6.48-2.7-2.88.77-3.39,5.95-2,8.06.3.44.72.84,1.11,1.21,9.97,9.32,17.38,20.15,22.37,32.88,4.58,11.66,8.55,25.75,8.55,38.39.15,1.83,1.37,30.07.08,33.55-1.49-.36-3.24-.8-5.14-1.31.14-5.1-1.18-17.64-1.38-19.53-.46-4.28-.79-8.59-1.4-12.85-1.19-8.28-2.76-16.53-5-24.59-3.7-13.31-9.2-30.95-21.85-38.43-5.61-3.32-16.68-6.14-18.85-3.42-2.16,2.72.33,10.12,2.92,14.42,2.59,4.3,6.26,7.85,9.95,11.26-5.14-2.46-10.51-4.58-16.16-5.32s-11.61-.04-16.53,2.83c-1.31.77-2.62,1.8-2.99,3.28-.61,2.45,1.61,4.62,3.68,6.06,5.18,3.59,10.93,6.35,16.97,8.13-7.82-.22-15.76-.44-23.34,1.49-2.58.66-5.66,2.43-5.17,5.05.2,1.07.99,1.94,1.81,2.66,2.53,2.23,5.66,3.79,8.97,4.46-2.82-.4-5.74-.14-8.45.76-.9.3-1.8.69-2.4,1.42-1.49,1.81-.18,4.78,1.94,5.77s4.6.6,6.89.12c6.19-1.31,12.29-3.14,18.6-3.65,10.21-.82,20.69,1.98,29.14,7.79,7.6,5.23,13.5,20.4,16.7,30.55-1.52-.49-3.01-1-4.41-1.54-2.7-3.46-13.45-14.13-14.09-14.65-7.26-6.14-15.45-11.89-24.63-14.69-11.09-3.39-23.33.62-29.44,10.68-.22.36-.43.77-.34,1.18.11.54.69.82,1.2,1.02,4.01,1.47,8.4,1.36,12.66,1.62.18,0,.37.02.5.14.42.34-.1.97-.56,1.24-2.87,1.67-11.85,4.92-11.56,9.16.22,3.23,8.61,7.02,13.2,4.74-2.75,1.66-9.84,6.51-8.88,10.81.62,2.77,3,4.73,5.3,6.14,1.86,1.14,5.58,1.74,6.94,3.31,2.84,3.26-7.05,10.71-8.83,12.14-3.81,3.06-5.29,5.8.67,4.58,7.37-1.5,13.9-6.83,19.49-11.59,6.34-5.4,12.65-13.33,20.61-16.17,2.78-.99,5.67-1.53,8.43-2.28,1.85,1.87,3.62,3.54,3.27,5.2-.14.7-.56,1.28-.95,1.86-6.11,8.73-11.37,17.52-9.78,28.68,1.21,8.48,8.73,14.53,15.61,18.69,1.16.7,10.53,4.78,16.35,7.14v84.84c-18.81-44.1-74.05-153.2-147.94-120.23,0,0,1.24,32.51,62.97,53.1,45.18,15.06,73.11,61.08,85.01,81.59v68.34c-9.72-31.6-35.17-94.56-80.78-80.78,0,0-1.8,20.3,34.93,37.97,26.13,12.57,39.8,41.98,45.85,56.18v91.4h9.29v-69.57c6.05-14.21,19.72-43.61,45.85-56.18,36.73-17.67,34.93-37.97,34.93-37.97-45.62-13.77-71.06,49.18-80.78,80.78v-47.07c9.79-22.91,31.64-69.27,72.97-89.16h0Z"/>
</svg>