<?xml version="1.0" encoding="UTF-8"?>
<svg id="Black" xmlns="http://www.w3.org/2000/svg" version="1.1" viewBox="0 0 253.36 569.19">
  <!-- Generator: Adobe Illustrator 30.5.1, SVG Export Plug-In . SVG Version: 2.1.4 Build 3)  -->
  <path d="M201.4,230.56c-1.54,3.64-3.14,10.6-3.22,10.9l-.11.51,5.77,1.2.12,5.33.57-.08c.38-.05,9.37-1.33,12.62-2.59,3.78-1.46,7.68-3.5,7.92-7.52.14-2.23-1.38-3.41-2.58-3.88,2.52-4.76-1.02-8.42-1.06-8.46-2.86-2.83-6.23-2.19-7.59-1.76-.12-.44-.35-1.01-.81-1.45-.97-.92-2.81-1.53-5.08-.45-3.19,1.52-5.97,6.9-6.55,8.24h0ZM200.59,223.61l-.35,1.48,1.17-.96s3.89-3.18,5.94-4.01h0c1.74-.71,3.69-.91,5.59-1.11.59-.07,1.18-.12,1.77-.2,2.13-.28,5.21-.89,7.19-3.04,1.41-1.53,2.05-3.55,2.6-5.35l1.93-6.17-1.72.1c-4.3.24-10.17.58-13.52,2.62-7.68,4.67-10.48,16.15-10.6,16.64ZM187.63,197.62c-.24,2.46-.29,4.97-.13,7.44.06.88.64,6.45.67,6.69l.34,3.28.66-3.23c.02-.07,1.57-7.46,6.41-11.21,3.14-2.44,6.02-3.25,8.81-4.02,2.59-.73,5.03-1.41,7.27-3.37,2.15-1.89,3.76-4.66,4.52-7.79.65-2.66.72-5.69.24-8.97l-.14-.9-.7.57c-1.42,1.18-3.49,1.74-6.3,1.73-.75,0-1.5-.04-2.25-.07-1.58-.07-3.22-.16-4.83.08-4.11.59-8.1,3.34-10.66,7.34-2.12,3.29-3.4,7.37-3.89,12.43h0ZM227.93,233.36c-.32,1.28-.23,2.59-.14,3.86.1,1.39.19,2.71-.23,3.93-.45,1.33-1.56,2.52-3.12,3.37-1.4.77-3.28,1.24-3.3,1.24l.17,1c.35-.04,8.55-.91,13.29-3.99,6.2-4.03,6.9-11.01,4.87-16.18l-.14-.39-.43.08c-2.18.42-4.43.86-6.48,1.91-2.33,1.2-3.97,3.08-4.49,5.18h0ZM216.22,313.67c-.14,1.37-.26,2.74-.37,4.11-.07.83-.14,1.67-.21,2.5-.07.86-.48,6.46-.48,6.46l-.17,2.37,1.13-2.09s1.74-3.23,2.06-3.78c.41-.74.9-1.47,1.46-2.18,1.04-1.33,2.3-2.59,3.77-3.77,2.66-2.12,5.73-3.79,8.7-5.4.67-.36,1.34-.72,2.01-1.09,3.64-2.02,7.4-4.33,10.2-7.61,3.15-3.68,4.57-8.07,3.88-12.04-.17-1-.59-1.62-1.22-1.84-.34-.12-.68-.09-.95-.07l-7.92.67c-1.33.11-2.71.23-4.08.48-5.88,1.1-11.16,4.85-14.13,10.04-2.47,4.3-3.26,9.33-3.67,13.23h-.02ZM196.22,250.65c-1.36-1.4-3.19-2.18-5.13-2.21-1.95-.03-3.8.71-5.19,2.07-2.12,2.07-2.72,5.12-1.77,7.74.34.94.89,1.83,1.62,2.58,2.81,2.88,7.44,2.95,10.32.14s2.95-7.44.14-10.32h.02ZM230.41,253.8c1,1.11,1.83,2.34,2.47,3.67.16.33.31.67.47,1.02.44,1,.9,2.03,1.62,2.91,1.55,1.85,4.22,2.8,7.14,2.52,2.56-.25,4.89-1.29,7.16-2.3l.38-.17-.08-.41c-.87-4.13-4.4-7.82-9.2-9.61-1.97-.74-4.19-1.21-6.77-1.45-1.03-.09-2.16-.16-3.46-.19-.73-.02-2.73.19-2.81.2l-1.27.13,1.02.78s2.41,1.85,3.34,2.9h0ZM203.75,263.35l.36.46c.24.31,5.84,7.44,8.55,9.64,3.15,2.55,6.86,4.9,10.47,3.1,2-.99,2.27-2.9,2.08-4.18,5.38-.19,6.78-5.09,6.79-5.14,1.03-3.9-1.22-6.48-2.27-7.45.32-.32.71-.81.86-1.42.31-1.31-.08-3.21-2.15-4.62-2.91-2-8.96-1.73-10.41-1.54-3.92.49-10.76,2.58-11.04,2.67l-.5.15,1.84,5.6-4.55,2.76h-.01ZM145.84,132.45l.59,4.7-4.19,2.21.32.47c.16.25,2.25,3.3,5.18,6.62,11.69,16.24,21.6,40.25,21.7,40.49.32.79,1.22,1.15,2.01.83s1.17-1.2.83-2.01c-.08-.21-6.95-16.83-16.04-31.93.44.23.87.45,1.29.63,1.83.76,3.61.73,5.02-.07,1.28-.73,2.13-2.02,2.34-3.53.24-1.71-.54-3.62-1.05-4.63,1.22-.13,3.51-.56,4.84-1.94.92-.95,1.35-2.31,1.18-3.72-.2-1.7-1.23-3.22-2.88-4.28-6.32-4.02-20.01-3.86-20.59-3.85h-.57s0,.02,0,.02ZM189.81,139.83c-.76.2-1.52.36-2.29.52-1.61.34-3.27.7-4.83,1.36-3.95,1.68-7.21,5.5-8.73,10.19-1.25,3.87-1.44,8.28-.59,13.5.41,2.53,1.04,5.05,1.86,7.5l.17.47c.58,1.59,2.2,5.85,2.29,6.05l1.18,3.08-.19-3.29c0-.08-.41-7.91,3.45-12.96,2.51-3.29,5.18-4.86,7.76-6.39,2.4-1.42,4.67-2.75,6.38-5.3,1.66-2.47,2.53-5.66,2.45-9.01-.06-2.84-.79-5.88-2.16-9.06l-.35-.83-.53.74c-1.12,1.57-3.04,2.68-5.86,3.42ZM130.78,94.26c-2.52,7.06.68,20.36.83,20.93l.14.56,4.45-1.62,3.09,3.59.39-.42c.4-.42,9.68-10.47,10.94-17.86.33-1.95-.09-3.68-1.19-4.88-1-1.08-2.44-1.62-3.97-1.49-1.72.15-3.41,1.34-4.29,2.05-.4-1.16-1.33-3.3-2.97-4.29-1.13-.68-2.55-.81-3.89-.33-1.62.58-2.88,1.92-3.54,3.77h0ZM154.81,94.03c-4.73,5.55-3.97,15.1-3.93,15.5l.13,1.51.81-1.28s2.17-3.41,3.51-4.56c1.15-.97,2.52-1.59,3.97-2.24.44-.2.88-.39,1.3-.6,1.58-.75,3.8-2.02,4.79-4.2.7-1.54.67-3.28.65-4.8l-.09-5.35-1.42.57c-3.24,1.28-7.66,3.03-9.73,5.46h0ZM114.12,52.45c-.51.39-1.03.76-1.57,1.12-1.11.78-2.26,1.58-3.23,2.58-2.48,2.56-3.76,6.52-3.41,10.58.14,1.64.52,3.3,1.14,5.01s1.55,3.59,2.72,5.47c1.12,1.79,2.41,3.52,3.81,5.11.51.57,3.79,4.03,3.94,4.17l2.27,2.39-1.45-2.96c-.02-.06-2.81-5.84-1.5-10.88.85-3.28,2.37-5.32,3.85-7.3,1.38-1.85,2.68-3.59,3.17-6.09.47-2.42.12-5.15-1.02-7.68-.96-2.15-2.49-4.23-4.55-6.21l-.65-.62-.2.88c-.35,1.52-1.43,2.97-3.33,4.42h0ZM135.24,68.32c-.59.15-1.19.29-1.8.41-1.26.27-2.58.55-3.81,1.08-3.13,1.34-5.72,4.36-6.93,8.07-.98,3.06-1.14,6.54-.46,10.66.32,2,.82,3.98,1.46,5.91l.13.37c.45,1.25,1.74,4.6,1.8,4.76l1.18,3.08-.19-3.29c0-.06-.32-6.17,2.69-10.12,1.96-2.57,4.04-3.8,6.07-5,1.9-1.12,3.69-2.17,5.05-4.2,1.32-1.96,2-4.5,1.94-7.15-.05-2.25-.62-4.66-1.71-7.16l-.35-.83-.53.74c-.87,1.21-2.35,2.07-4.55,2.65l.02.02ZM142.81,120.7l4.05,2.46-.88,4.66.57.05c.58.04,14.23,1.05,20.78-2.58,1.74-.96,2.82-2.37,3.07-3.97.23-1.46-.25-2.92-1.31-4.04-1.19-1.26-3.17-1.84-4.28-2.07.66-1.04,1.74-3.1,1.5-4.99-.17-1.31-.96-2.49-2.17-3.24-1.46-.91-3.29-1.06-5.14-.42-7.09,2.43-15.49,13.23-15.84,13.69l-.35.46h0ZM195.79,299.28c-.25-.81-1.12-1.25-1.93-1s-1.25,1.12-1,1.92c.1.29,9.39,30.16,6.99,50.31-.03.24,0,.49.09.7.19.53.67.93,1.26,1,.84.1,1.61-.5,1.7-1.34,2.47-20.82-6.72-50.36-7.11-51.6h0ZM139.73,130.81c.29-2.03-.22-4.06-1.46-5.71-1.23-1.65-3.03-2.71-5.06-3.01s-4.06.22-5.71,1.46c-2.78,2.07-3.75,5.69-2.62,8.8.25.7.61,1.35,1.07,1.97,1.23,1.65,3.03,2.71,5.06,3.01,2.03.29,4.06-.22,5.71-1.46,1.65-1.23,2.71-3.03,3.01-5.06h0ZM154,471.36c-.79-.88-1.61-1.79-2.48-2.63-1.97-1.89-3.89-3.02-5.86-3.47-2.51-.57-5.1.15-6.58,1.82-1.69,1.89-1.75,4.66-.94,6.9.17.47.39.92.62,1.34,1.5,2.53,4.02,4.19,6.3,5.47,5.92,3.35,12.62,5.6,19.34,6.54l.36.05.17-.33c1.24-2.45,2.86-3.84,4.59-5.31l.78-.67-1-.22c-4.96-1.11-9.67-3.7-13.26-7.29-.71-.71-1.4-1.47-2.05-2.2h0ZM219.83,463.3h0c-1.66,5.08-7.34,10.6-7.39,10.66l-.71.68.97.18c.34.07,8.49,1.52,14.08-4.01,2.97-2.94,5.95-9.52,5.48-14.27-.22-2.15-1.08-3.74-2.56-4.71-.92-.6-2.23-.53-3.49.22-2.95,1.73-4.96,6.92-6.38,11.25h0ZM197.95,479.19c-.96.46-1.96.93-2.96,1.3-2.49.94-5.2,1.37-7.82,1.79l-1.25.2c-.48.08-.94.15-1.39.22-2.49.38-4.65.71-7.05,2.04-2.84,1.58-3.7,2.63-4.39,5.34l-.1.42.44.12c2.23.58,4.3,1.29,6.3,1.95,4.43,1.5,8.6,2.91,13.9,2.85,3.88-.04,8.95-.33,13.7-2.21,4.86-1.92,8.54-5.25,10.1-9.15.33-.82.95-2.86-.42-3.98-4.04-3.31-10.08-4.28-15.39-2.49-1.27.43-2.49,1-3.66,1.56l-.02.02ZM214.95,443.49c-1.97,3.12-4.8,5.7-7.54,8.18l-.27.25c-3.14,2.86-5.9,5.5-7.8,8.82-2.82,4.94-3.38,10.86-3.86,16.08l-.08.86.79-.34c5.96-2.57,11.34-6.61,15.15-11.35,4.98-6.18,7.69-11.65,8.56-17.21,1.45-9.35-1.83-16.07-1.96-16.36l-.96-1.94v2.16c-.01.08-.05,7.72-2.03,10.85h0ZM172.81,451.79c-2.19,1.85-2.82,4.75-2.95,6.85-.09,1.36-.01,2.74.05,4.07.05,1.06.11,2.14.08,3.21-.05,1.99-.38,4.04-1.01,6.09-.35,1.15-.72,2.7-.31,3.8.07.2.17.38.31.55.41.52,1.05.77,1.9.71,2.39-.13,4.24.47,6.43,1.48,2.45,1.13,5.07,2.17,7.61,1.36,1.58-.5,3.02-1.75,4.05-3.5.89-1.54,1.38-3.23,1.86-4.86l2.69-9.26c.46-1.58.88-3.38-.03-4.85-.71-1.14-2.05-1.7-3.03-2.1l-8.22-3.37c-1.46-.6-2.97-1.22-4.6-1.41-1.88-.22-3.63.23-4.81,1.23l-.02.02ZM201.15,449.17c2.22-.55,4.02-2.5,4.38-4.76l.06-.39-.36-.15c-2.71-1.16-5.86-1.28-8.65-.33-2.79.95-5.22,2.97-6.66,5.54l-.1.19.07.2c0,.08.04.16.06.23.29.81.87,1.43,1.68,1.79,1.1.5,2.53.43,3.74-.15.46-.22.88-.5,1.28-.78.49-.33.94-.64,1.45-.82s1.08-.27,1.69-.34c.45-.06.92-.11,1.38-.22h0ZM176.36,507.66c-2.43,3.81-3.96,8.1-5.44,12.25l-.36,1.02,1.01-.37c1.78-.63,4.12-.36,6.39.77,1.31.64,2.54,1.5,3.72,2.34.72.51,1.43,1,2.17,1.47,7.01,4.4,16.09,5.16,23.73,1.99l2.62-1.09-2.84.11c-2.25.08-4.49-1.12-5.71-3.01,4.76-.54,9.49-1.99,13.71-4.22l1.01-.53-3.51-1.32c1.23-.29,2.38-.94,3.27-1.9,1.63-1.76,2.01-3.61,2.31-5.1.2-1,.39-1.86.87-2.49,1.24-1.58,2.27-2.16,6.35-2.66l1.2-.15-.94-.75c-4.97-3.99-8.86-3.05-12.29-2.22-.48.12-.95.23-1.4.33l5.02-7.49-2.3,1.66c-3.9,2.8-9.12,2.75-13.71,2.34-.59-.05-1.19-.11-1.79-.17-4.29-.43-8.74-.86-12.89.55-4.97,1.69-8.3,5.65-10.23,8.66h.02ZM211.61,355.95c-.44,2.11-.49,2.71-.4,2.96.03.08.08.13.14.17l.47.4.3-.54s3.07-5.19,8.91-7.54c5.14-2.06,9.59-2.59,13.52-3.05,3.41-.4,6.36-.75,8.9-2,5.79-2.86,9-9.16,9.84-19.26l.07-.88-.8.38c-3.36,1.58-7.15,1.31-11.17,1.02-3.44-.25-7-.5-10.27.52-13.64,4.27-18.39,22.37-19.52,27.81h.01ZM164.53,494.67c.13-.84-.43-1.62-1.27-1.76-.84-.13-1.62.43-1.76,1.27-1.42,8.74-3.42,15.33-6.51,21.38-.2.39-.22.83-.08,1.22.13.35.39.66.74.84.76.38,1.68.09,2.07-.67,3.24-6.34,5.34-13.21,6.81-22.28h0ZM161.71,520.23c.12.33.35.62.68.81.74.42,1.67.17,2.09-.57,4-6.98,6.68-14.54,7.96-22.48.13-.84-.43-1.62-1.27-1.76-.84-.13-1.62.43-1.76,1.27-1.22,7.57-3.78,14.78-7.6,21.44-.24.4-.25.88-.11,1.28h0ZM195.77,416.1c.47-3.06-1.5-5.87-4.49-6.4-2.93-.52-5.74,1.44-6.41,4.47-.79,3.61-.22,6.68.59,8.9s1.93,3.7,2.02,3.81l.27.33.37-.2c.27-.14,6.52-3.62,7.64-10.91h0ZM206.52,416.15c-.8-1.44-1.98-2.22-3.13-2.06-.86.11-1.65.75-2.11,1.71-.3.62-.43,1.27-.55,1.9l-.1.44c-.89,4.05-3.58,7.68-7.21,9.7l-.82.46.83.44c3.96,2.09,8.73,1.48,11.62-1.47,2.78-2.85,3.41-7.65,1.47-11.12h.01ZM220.96,364.45l-1.27,1.55c-10.32,12.59-15.53,28.87-14.67,45.85l.02.33.31.12s5.14,1.98,5.59,6.23l.07.59.58-.16c.59-.16,14.44-3.93,19.64-8.92,4.23-4.06,6.48-8.69,6.57-8.89l.41-.84-3.13.38c2.18-2.07,6.76-6.68,8.27-10.17l.38-.88-4.16.77c3.43-3.1,5.45-8.08,5.54-8.32l.37-.94-4.54,1.2,6.09-12.02-4.33,2.2,9.68-13.4-1.14.12c-4.37.45-8.62,2.16-12.09,4.85-.07-1.77.44-3.56,1.45-5.02l.89-1.28-1.48.51c-3.59,1.24-7.23,4.11-9.32,7.21.15-1.72.5-3.66.5-3.69l.17-.97-.88.41c-.18.09-4.54,2.1-7.05,5.22-.46.56-1.71,2.18-2.48,3.85-.33-1.35-.58-2.77-.36-3.92l.37-1.97.02.02ZM199.66,364.67c0,.27.16,27.21-3.9,42.95-.08.31-.06.63.04.91.17.46.55.83,1.06.96.82.21,1.65-.28,1.86-1.1,4.17-16.13,4-42.62,4-43.74,0-.85-.7-1.53-1.54-1.52s-1.53.7-1.52,1.54h0ZM186.97,440.64c4.9.62,9.46-.33,12.5-2.64l.41-.31-.32-.41c-1.52-1.97-3.4-4.41-6.13-5.4-.79-.29-1.69-.23-2.56-.16-.63.05-1.23.09-1.73,0-.86-.17-1.67-.51-2.47-.85-1.16-.49-2.34-1-3.73-.98-2.36.04-6.24,3.24-6.4,3.37l-.43.36.4.4c.25.25,6.2,6.09,10.46,6.63h0ZM202.23,433.49l-.5.27.32.47c1.69,2.51,3.47,3.83,5.3,3.92,1.56.08,3.08-.75,4.5-2.46,2.62-3.16,2.56-9.16.78-12.02l-.49-.78-.4.82c-2.05,4.15-5.34,7.54-9.5,9.78h0ZM41.72,36.11c.16.15.35.26.54.32-.11.83-.14,1.69-.04,2.59.08.73.24,1.41.47,2.05.62,1.71,1.77,3.04,3.29,3.78,1.15.56,2.47.85,3.98.89.01.04,0,.08.03.13.07.2.18.38.33.54,13.1,13.69,24.16,17.43,24.62,17.58.16.06.32.07.49.07.49.98,1.16,1.82,2.06,2.43,1.63,1.13,3.74,1.69,6.46,1.75,1.12.02,2.26-.05,3.36-.1,1.03-.06,2.11-.12,3.15-.11,2.51.03,4.46.52,5.93,1.49l1.06.7-.28-1.24c-.42-1.85-1.56-3.52-3.11-4.62,3.06-.62,6.07-1.78,8.77-3.39l.7-.41-.68-.44c-2.58-1.7-5.5-2.98-8.53-3.72,1.6-1.03,2.85-2.66,3.38-4.48l.36-1.25-1.12.67c-1.53.92-3.5,1.33-6.01,1.25-1.04-.03-2.1-.14-3.14-.23-1.09-.1-2.22-.21-3.34-.24-2.71-.06-4.86.43-6.56,1.48-1.86,1.15-3.1,3.68-3.23,6.57,0,.15,0,.29,0,.44-3.05-1.31-11.41-5.49-21.01-15.17.77-.14,1.53-.29,2.27-.45,1.02-.22,2.06-.44,3.09-.59,2.49-.36,4.48-.17,6.09.56l1.15.53-.46-1.18c-.69-1.76-2.08-3.24-3.77-4.09,2.93-1.09,5.71-2.7,8.14-4.7l.63-.52-.74-.34c-2.81-1.29-5.9-2.09-9-2.36,1.43-1.27,2.41-3.06,2.65-4.94l.17-1.29-1,.83c-1.37,1.14-3.25,1.85-5.76,2.17-1.04.13-2.1.19-3.13.25-1.1.06-2.23.13-3.35.28-2.69.36-4.74,1.17-6.25,2.48-.42.37-.78.81-1.1,1.31-2-2.1-9.23-10.36-11.6-22.14,1.06,1.23,2.61,2.17,4.71,2.86.93.3,1.89.54,2.81.77.87.22,1.77.44,2.63.71,2.06.67,3.53,1.56,4.49,2.73l.8.98.1-1.27c.13-1.6-.36-3.24-1.31-4.54,2.65.25,5.39.05,7.99-.58l.79-.19-.52-.63c-1.67-2.03-3.73-3.81-5.99-5.2,1.55-.47,2.95-1.48,3.83-2.83l.71-1.09-1.26.31c-1.49.36-3.21.2-5.26-.5-.85-.29-1.7-.65-2.53-.99-.88-.37-1.78-.75-2.71-1.06-2.24-.75-4.16-.89-5.85-.45-1.73.46-3.3,2.04-4.2,4.18-.02-.94-.01-1.88.04-2.85.04-.85-.6-1.57-1.44-1.62-.85-.04-1.57.6-1.62,1.44-.36,6.38.79,12.1,2.57,16.97,3.9,10.71,10.8,17.33,11.22,17.72v-.04ZM164.28,442.21c.05.13.1.26.17.38.48.9,1.3,1.52,2.04,2,2.34,1.53,5.09,2.59,7.74,2.98,1.19.18,2.58.2,4.12.04.04,0,4.59-.78,4.88-1.32l.13-.25-.13-.24c-1.03-1.95-2.91-3.44-5.04-4-.75-.19-1.52-.28-2.26-.36-.76-.08-1.48-.17-2.17-.35-.86-.24-1.72-.65-2.54-1.05-1.38-.68-2.81-1.37-4.41-1.33-.63.02-1.51.18-2.12.84s-.76,1.7-.42,2.65h0ZM174.05,419.97c1.04,2.85,3.04,5.34,5.69,6.81l.76.43v-.87c0-3.96.39-7.65.76-11.23.1-1.03.23-2.19-.01-3.31-.28-1.31-1.06-2.37-2.09-2.82-1.26-.56-2.92-.17-4.02.93-.84.85-1.41,2.08-1.69,3.65-.38,2.15-.14,4.37.6,6.41h.01ZM193.7,293.68c2.85,4.57,7.8,3.32,7.86,3.31.54-.14,1.02-.34,1.46-.56,1.43,8.6,5.44,34.52,3.79,45.59-.04.26-.01.52.07.75.18.51.64.91,1.21,1,.84.12,1.62-.45,1.74-1.29,1.89-12.69-3.09-42.6-4.11-48.45.69-1.04,1.01-2.08,1.16-2.73.44.12,1.04.21,1.66.03,1.29-.38,2.73-1.68,2.93-4.17.27-3.52-2.99-8.62-3.87-9.8-2.38-3.15-7.61-8.02-7.84-8.23l-.38-.35-3.92,4.4-4.67-2.56-.22.54c-.15.36-3.52,8.77-4.06,12.23-.41,2.6-.63,5.35.18,7.57.44,1.21,1.18,2.26,2.36,3.05,1.87,1.24,3.65.51,4.66-.3v-.02ZM153.13,274.65c.13-.49.19-1,.26-1.48.05-.34.09-.66.16-.99.37-1.87,1.38-3.6,2.78-4.74,1.45-1.18,6.49-2.88,6.53-2.9l1.04-.35-.94-.57c-.26-.15-6.38-3.76-13.8-1.07-3.7,1.35-6.81,4.33-8.29,7.99-1.31,3.22-1.35,6.95-.16,10.23.16.43.33.86.54,1.27l.18.37.4-.09c2.25-.53,4.58-1.07,6.68-2.23,2.38-1.3,4.06-3.29,4.62-5.45h0ZM180.57,280.93c1.54-3.64,3.14-10.6,3.22-10.9l.11-.51-5.77-1.2-.12-5.33-.57.08c-.38.05-9.37,1.33-12.62,2.59-3.78,1.46-7.68,3.5-7.92,7.52-.14,2.23,1.38,3.41,2.58,3.88-1.24,2.32-1.02,4.39-.47,5.9.57,1.58,1.51,2.54,1.53,2.56,2.86,2.83,6.23,2.19,7.59,1.76.12.44.35,1.01.81,1.45.97.92,2.81,1.53,5.08.45,3.19-1.52,5.97-6.9,6.54-8.25h0ZM182.31,341.05c2.85,1.83,10.8,12.66,10.88,12.77l1.17,1.6-.25-1.97c-.08-.56-1.76-13.74-2.19-15.77-1.71-8.02-7.26-27-21.61-30.24-8.54-1.93-16.44.21-16.77.31l-.52.15.18.51c.04.18.61,1.85,1.42,4.08,1.28,3.51,3.16,8.36,4.62,10.85,2.73,4.64,5.9,8.26,9.43,10.76,1.38.98,3.34,1.85,5.6,2.86,2.52,1.11,5.38,2.38,8.05,4.1h0ZM156.37,232.72c-1.06-1.31-2.27-2.79-3.45-3.66-1.92-1.42-3.95-2.21-5.9-2.28-2.48-.1-4.77.92-7,1.9l-.37.16c-2.12.93-4.58,1.89-6.92,1.46l-.51-.09-.09.51c-.13.75-.03,1.47.21,2.14.49,1.35,1.59,2.46,2.63,3.13,2.78,1.79,6.57,2.14,11.26,1.04,2.98-.7,6.15-1.13,9.22-1.57l2.91-.41-.64-.71c-.42-.46-.88-1.03-1.35-1.61h0ZM175.01,256.65l.5-.15-1.84-5.6,4.55-2.76-.36-.46c-.24-.31-5.84-7.44-8.55-9.64-3.15-2.55-6.86-4.9-10.47-3.1-2,.99-2.27,2.9-2.08,4.18-5.38.19-6.78,5.08-6.79,5.14-1.03,3.9,1.22,6.48,2.27,7.45-.32.32-.71.8-.86,1.42-.15.63-.14,1.39.14,2.17.31.85.93,1.71,2.01,2.45,2.91,2.01,8.96,1.73,10.41,1.54,3.92-.49,10.76-2.57,11.04-2.67h.01ZM175.18,219.82c-.04.13-.07.25-.09.36-.44-.12-1.04-.21-1.66-.03-1.29.38-2.73,1.68-2.93,4.17-.1,1.2.22,2.57.71,3.9.95,2.62,2.58,5.12,3.17,5.89,2.38,3.15,7.61,8.03,7.84,8.23l.38.35,3.92-4.4,4.67,2.56.22-.54c.15-.36,3.52-8.77,4.06-12.23.63-4.01.81-8.39-2.55-10.62-1.87-1.24-3.65-.51-4.66.3-2.85-4.57-7.8-3.32-7.86-3.31-1.28.35-2.26.94-3,1.61-1.54-5.85-5.12-18.02-10.1-26.68-.42-.73-1.36-.98-2.1-.57-.66.38-.93,1.17-.68,1.85.03.08.06.17.11.25,5.93,10.3,9.93,26.35,10.54,28.88l.02.02ZM177.36,405.16c2.58-.18,5.21,1.06,6.7,3.17l.55.79.34-.9c6.03-15.9,6.06-32.98.11-48.14l-.73-1.86-.25,1.98c-.16,1.27-.78,2.66-1.77,4.02-.12-1.7-.62-3.84-.96-4.81l-.02-.07c-1.37-3.76-4.94-6.94-5.1-7.07l-.72-.63-.12.95s-.27,1.97-.66,3.67c-1.03-3.59-3.61-7.44-6.65-9.72l-1.24-.93.45,1.49c.51,1.7.44,3.55-.16,5.22-2.48-3.62-6.01-6.56-10.02-8.33l-1.04-.46,5.1,15.72-3.44-3.43,2.1,13.3-3.95-2.53.07,1.01c.02.26.41,5.62,2.72,9.62l-3.72-2.01.09.96c.37,3.78,3.32,9.58,4.75,12.22l-2.85-1.32.12.92c.02.15.39,2.83,1.63,6.24.49,1.33,1.11,2.79,1.89,4.24,2.45,4.53,6.71,8.77,9.87,10.98l.48.33.27-.52c1.17-2.3,3.6-3.91,6.17-4.09h0ZM170,219.61l-1.85-2.73c-.12-.19-3.03-4.5-3.53-5.17-1.37-1.86-2.91-3.63-4.56-5.24-3.4-3.33-6.75-5.47-10.25-6.55-4.25-1.32-8.75-.88-12.04,1.16-1.29.8-2.42,1.84-3.51,2.85-.52.48-1.03.95-1.56,1.41-1.99,1.68-3.8,2.52-5.52,2.53h-.9s.47.78.47.78c1.62,2.64,3.49,4.76,5.55,6.28,2.43,1.79,5.24,2.81,7.92,2.87,2.77.06,4.93-.92,7.22-1.96,2.45-1.11,4.99-2.26,8.68-2.4,5.69-.22,11.22,4.11,11.28,4.15l2.59,2.05v-.02ZM129.05,555.85c1.25-6.03,5.45-11.13,9.4-15.31.8-.84,1.62-1.7,2.43-2.53,3.63-3.75,7.39-7.63,9.98-12.34.41-.75.13-1.68-.6-2.09-.75-.41-1.68-.13-2.09.6-2.41,4.36-6.01,8.08-9.51,11.68-.83.85-1.65,1.71-2.46,2.57-4.24,4.5-8.77,10.01-10.17,16.79-.06.29-.03.58.06.84.17.48.59.86,1.13.98.83.18,1.64-.36,1.81-1.19h0ZM158.59,531.39c.6-.59.63-1.56.04-2.17-.59-.6-1.56-.63-2.17-.04-6.33,6.12-11.42,13.27-15.12,21.26-.18.38-.19.8-.05,1.17s.41.69.8.87c.77.36,1.68.03,2.04-.74,3.55-7.64,8.41-14.49,14.47-20.36h0ZM162.94,429.12c.35.97.8,1.86,1.35,2.6,1.77,2.41,4.83,3.55,7.43,2.78,1.72-.51,3.15-1.81,3.82-3.48s.54-3.6-.36-5.16c-.62-1.1-1.56-1.93-2.47-2.74-.52-.46-1.05-.93-1.5-1.43-1.9-2.13-2.57-5.19-1.62-7.47l.27-.65-.71-.05c-1.92-.13-6,2.9-6.94,9.17-.3,2.06-.02,4.42.71,6.43h.01ZM137.2,525.75c1.3-2.28,2.52-4.43,4.69-5.51l.55-.27-.37-.49c-3.34-4.44-8.43-6.78-13.61-6.24-4.79.49-9.35,3.33-12.17,7.59-2.59,3.92-3.72,9.06-3.09,14.09l.05.43h.43c3.7.13,7.53.26,11.27-.48,2.97-.59,7.09-2.03,9.9-5.47.9-1.12,1.63-2.39,2.34-3.64h0ZM167.67,569.01c5.41-2.46,9.83-6.74,12.14-11.73,2.51-5.44,2.54-11.7.08-16.78-2.65-5.48-8.1-9.11-14.58-9.7l-.62-.05.05.61c.26,2.85-1.14,5.42-2.62,8.13-.8,1.47-1.64,2.99-2.19,4.57-1.68,4.83-.64,9.73.56,13.04l.06.17c1.56,4.19,4.05,7.93,6.45,11.55l.24.36.39-.18h.02ZM151.62,455.7c.13.39.26.77.4,1.15,1.96,5.38,5.37,10.61,9.71,14.84l.61.61.23-.83c1.41-5.06,3-10.77,2.13-16.4-.59-3.79-2.23-7.23-4.14-11.02l-.16-.33c-1.67-3.3-3.39-6.71-4.12-10.32-.73-3.62,1.95-10.78,1.98-10.85l.76-2.02-1.59,1.47c-.23.21-5.69,5.34-7.68,14.58-1.18,5.5-.6,11.58,1.86,19.14v-.02ZM141.69,509.86c1.33-.03,2.71-.05,4.02.13,2.3.31,4.19,1.28,5.21,2.67l.64.87.27-1.04c.99-3.91,2.04-7.95,2.14-12.08.08-3.28-.42-7.99-3.34-11.83-2.42-3.2-6.02-5.14-9.5-7.02-.48-.26-.97-.52-1.44-.79-3.69-2.03-7.66-4.66-9.17-8.76l-.97-2.67-.03,8.39c-.27-.28-.54-.58-.82-.89-2.19-2.39-4.67-5.1-10.49-4.62l-1.21.1.91.8c2.82,2.46,3.31,3.42,3.44,5.24.05.72-.26,1.46-.6,2.32-.53,1.29-1.19,2.89-.86,5.07.17,1.14.68,2.2,1.42,3.04l-3.29-.79.54,1.01c2.06,3.84,4.88,7.34,8.2,10.19-1.86.76-4.13.52-5.75-.66l-2.29-1.68,1.57,2.38c4.17,6.32,11.48,10.41,19.05,10.66.8.03,1.59.02,2.39,0l-.02-.02ZM149.33,463.58l-.47-.87c-.04-.07-3.77-7.06-3.81-12.4-.04-4.55-.37-10.1-2.66-12.65-.97-1.09-2.18-1.56-3.25-1.27-1.72.49-3.02,1.73-3.88,3.71-1.65,3.83-1.22,9.78.2,13.7.21.57.43,1.1.69,1.57,3.64,6.96,11.85,8.05,12.19,8.1l.98.12h-.01ZM23.82,65.2c-3.17-1.03-5.83-3.48-7.09-6.56-.32-.79-1.22-1.16-2-.84-.77.31-1.14,1.17-.86,1.94l.02.06c1.6,3.91,4.96,7.02,8.99,8.32.81.26,1.67-.18,1.93-.99s-.18-1.67-.99-1.93ZM21.88,93.35c1.14-3.54,3.63-6.65,6.84-8.54.73-.42.98-1.37.54-2.1-.42-.73-1.37-.97-2.1-.54-3.84,2.26-6.83,6-8.2,10.24-.11.34-.09.68.02.99.16.43.5.79.97.94.81.26,1.67-.18,1.93-.99h0ZM37.75,79.59l.65-1.22c.21-.39,1.45-2.59,3.4-4.28-2.16-1.19-4.55-2.86-5.77-4.78-4.36.84-13.42,3.09-12.18,6.95,1.21,3.76,9.65,3.64,13.91,3.33h0ZM75.85,78.78l-.27-.31c-.14-.16-3.56-3.96-6.48-5.64-2.54-1.46-6.82-1.03-8.24-.83-.78-2.61-2.77-4.92-5.39-6.21-2.82-1.39-5.95-1.46-8.8-.21-3.68,1.62-9.14,1.66-9.2,1.65h-.79s.33.72.33.72c1.17,2.57,5.52,4.89,7.88,5.99-2.92,1.15-5.04,4.99-5.14,5.18l-.48.88.99-.12s2.12-.26,4.71.62c1,.34,1.61.83,2.26,1.36,1.06.86,2.15,1.74,4.75,1.83,4.39.15,7.55-2.28,8.7-3.34.67.91,2.39,2.48,6.49,2.71,5.38.31,8.32-3.76,8.44-3.93l.23-.33h0ZM30.77,94.75c.26-3.08,2.35-5.98,5.17-7.22.78-.34,1.12-1.25.79-2.02-.34-.78-1.24-1.13-2.02-.79-3.89,1.7-6.63,5.54-7,9.77-.02.23.02.45.09.66.2.55.7.95,1.31,1,.85.08,1.59-.56,1.66-1.4h0ZM21.42,78.86c-.15-.83-.95-1.39-1.79-1.23-4.84.89-9.88.57-14.58-.9-.8-.25-1.67.19-1.92,1.01-.1.33-.09.68.02.98.16.43.51.79.98.94,5.17,1.62,10.72,1.96,16.05.99.84-.16,1.39-.95,1.23-1.79h0ZM31.57,29.06c-.57-1.56-1.15-3.17-1.93-4.72-1.18-2.36-3.29-5.53-6.67-7.24-2.29-1.16-5.05-1.6-8.69-1.42l-.54.03.07.54c.14,1.18.43,2.35.84,3.49,1.02,2.8,2.8,5.36,5.09,7.18,1.93,1.54,4.15,2.58,6.3,3.57l7.69,3.58-.65-1.31c-.54-1.08-1.01-2.37-1.5-3.72l-.02.02ZM20.65,71.68c.23-.82-.24-1.67-1.06-1.89-6.66-1.89-12.64-5.95-16.85-11.44-.51-.68-1.48-.8-2.15-.28-.54.42-.73,1.13-.51,1.74.05.14.12.28.22.41,4.61,6.01,11.16,10.46,18.45,12.53.82.23,1.67-.24,1.89-1.06h0ZM35.07,53.21c2.55.71,5.19.8,7.74.89.48.02.96.03,1.43.05,1.43.07,3.1.15,4.68.45.92.16,4.85,1.02,4.9,1.03l1.47.32-.97-1.15c-.34-.4-8.36-9.85-14.42-13.1-6.28-3.37-13.74-4.06-19.96-1.85l-.68.25.45.56c4.69,5.84,9.08,10.81,15.35,12.56h0ZM152,184.43c-1.37-1.86-2.91-3.63-4.56-5.24-3.4-3.33-6.75-5.47-10.25-6.55-4.25-1.32-8.75-.88-12.04,1.16-1.29.8-2.42,1.84-3.5,2.84-.52.48-1.04.95-1.56,1.41-1.99,1.68-3.8,2.52-5.52,2.53h-.9s.47.78.47.78c1.62,2.64,3.49,4.76,5.55,6.28,2.43,1.79,5.24,2.81,7.92,2.87,2.77.06,4.93-.92,7.22-1.96,2.45-1.11,4.99-2.26,8.68-2.4,5.69-.22,11.22,4.11,11.28,4.15l2.59,2.05-1.85-2.73c-.12-.19-3.03-4.5-3.53-5.17h0ZM126.28,143.04l.12-.55-4.71-.47-1.23-4.58-.54.19c-.53.23-13.27,5.24-17.6,11.36-1.15,1.62-1.51,3.36-1.05,4.9l.09.23c.47,1.3,1.49,2.32,2.85,2.84,1.62.61,3.65.28,4.75.02-.14,1.22-.23,3.55.81,5.15.72,1.11,1.94,1.83,3.36,1.98,1.71.19,3.42-.48,4.81-1.86,5.33-5.27,8.22-18.64,8.34-19.21v-.02ZM98.1,152.28c1.14-2.83,2.6-5.68,4.02-8.43l1.34-2.63-.96.11c-.62.08-1.35.13-2.11.18-1.68.12-3.59.25-4.99.72-2.27.75-4.08,1.96-5.26,3.51-1.51,1.97-2,4.43-2.47,6.81l-.08.39c-.45,2.27-1.08,4.83-2.78,6.5l-.37.37.37.37c1.65,1.63,4.22,1.4,5.94.71,3.06-1.24,5.53-4.14,7.33-8.6h0ZM143.52,167.4c1.31.13,2.65-.38,3.64-1.39.79-.8,1.28-1.81,1.49-2.95l10.87,17.4c.45.72,1.4.94,2.11.49.72-.45.94-1.4.49-2.11l-17.39-27.85c-2.63-4.48-5.62-8.14-5.83-8.39l-.36-.44-3.31,3.4-4.35-1.89-.18.54c-.17.55-4.19,13.63-2.1,20.83.05.17.1.35.17.51.59,1.64,1.65,2.81,3.02,3.36s2.91.41,4.23-.38c1.49-.88,2.49-2.68,2.97-3.71.87.87,2.64,2.39,4.53,2.58h0ZM99.44,104.11l2.77,1.79-2.1-2.55c-.13-.15-3.11-3.77-3.61-4.33-1.4-1.56-2.92-3-4.54-4.31h0c-3.34-2.69-6.53-4.33-9.76-5-3.93-.82-7.93-.04-10.72,2.08-1.09.83-2.02,1.86-2.9,2.85-.42.47-.84.94-1.28,1.39-1.63,1.68-3.16,2.57-4.69,2.73l-.9.09.54.73c1.69,2.24,3.54,3.97,5.53,5.16,2.34,1.39,4.95,2.07,7.36,1.89,2.5-.18,4.35-1.25,6.32-2.37,2.1-1.2,4.26-2.44,7.56-2.89,5.06-.68,10.36,2.71,10.42,2.74v-.02ZM118.58,133.2l-2.58-3.98,2.82-3.81-.5-.29c-.5-.29-12.36-7.11-19.84-6.69-1.98.11-3.58.91-4.48,2.24-.84,1.21-1.05,2.74-.58,4.2.53,1.65,2.06,3.03,2.95,3.73-1.04.65-2.92,2.03-3.52,3.84-.31.93-.28,1.94.06,2.89.12.33.28.65.48.96.92,1.45,2.5,2.38,4.46,2.61,7.44.89,19.7-5.2,20.22-5.46l.51-.26h0ZM105.95,100.59c-.15.03-.3.06-.44.12-1.24.45-2.22,1.49-2.68,2.84-.41,1.2-.38,2.5.09,3.78.16.45.38.9.66,1.34,3.95,6.37,16.35,12.16,16.88,12.4l.52.24,1.5-4.5,4.73-.18-.09-.56c-.08-.58-2.14-14.11-7.14-19.68-1.32-1.48-2.94-2.22-4.55-2.11-.14,0-.26.03-.38.05-11.87-18.37-27.39-25.24-28.07-25.52-.78-.33-1.68.03-2.02.8-.16.38-.16.78-.04,1.13.14.39.43.71.83.88.15.07,15.23,6.76,26.57,24.15-.19.21-.38.42-.54.68-.96,1.43-1.08,3.5-1.07,4.64-.26-.09-.56-.19-.9-.28-7.63-12.08-23.75-18.22-24.47-18.49-.79-.3-1.67.11-1.97.9-.14.36-.13.73,0,1.07.15.4.46.75.91.91.16.06,14.13,5.38,21.68,15.42h0ZM103.75,117.61l-2.6-2.02c-.12-.09-2.86-2.23-3.32-2.55-1.26-.9-2.62-1.71-4.01-2.39-2.88-1.41-5.47-2.08-7.95-2.04-3.01.05-5.83,1.28-7.52,3.3-.67.8-1.16,1.69-1.65,2.56-.22.41-.45.81-.7,1.21-.89,1.45-1.83,2.33-2.88,2.68l-.85.29.69.59c1.6,1.35,3.24,2.32,4.89,2.86,1.95.64,3.98.7,5.72.16,1.81-.55,2.99-1.63,4.23-2.79,1.32-1.2,2.67-2.45,4.96-3.3,3.5-1.31,7.86.27,7.9.28l3.1,1.14h-.02Z"/>
</svg>