<?xml version="1.0" encoding="UTF-8"?>
<svg id="Vector_01" xmlns="http://www.w3.org/2000/svg" version="1.1" viewBox="0 0 307.28 595.28">
  <!-- Generator: Adobe Illustrator 30.1.0, SVG Export Plug-In . SVG Version: 2.1.1 Build 136)  -->
  <defs>
    <style>
      .st0 {
        fill: #fff;
      }
    </style>
  </defs>
  <path d="M90.55,40.82c0,11-8.95,19.95-19.95,19.95s-19.95-8.95-19.95-19.95,8.95-19.95,19.95-19.95,19.95,8.95,19.95,19.95M94.07,40.82c0-12.96-10.51-23.47-23.47-23.47s-23.47,10.51-23.47,23.47,10.51,23.47,23.47,23.47,23.47-10.51,23.47-23.47h0Z"/>
  <path d="M90.55,40.82c0-11.02-8.93-19.95-19.95-19.95v19.95h19.95Z"/>
  <path class="st0" d="M90.55,40.82c0,11.02-8.93,19.95-19.95,19.95v-19.95h19.95Z"/>
  <path class="st0" d="M50.65,40.82c0-11.02,8.93-19.95,19.95-19.95v19.95h-19.95Z"/>
  <path d="M50.65,40.82c0,11.02,8.93,19.95,19.95,19.95v-19.95h-19.95Z"/>
  <path d="M135.15,404.21c0,11-8.95,19.95-19.95,19.95s-19.95-8.95-19.95-19.95,8.95-19.95,19.95-19.95,19.95,8.95,19.95,19.95M138.67,404.21c0-12.96-10.51-23.47-23.47-23.47s-23.47,10.51-23.47,23.47,10.51,23.47,23.47,23.47,23.47-10.51,23.47-23.47h0Z"/>
  <path d="M65.27,65.56l5.65,12.06,5.65-12.06,10.32,8.41-.14-13.31,12.95,3.1-5.91-11.93,13.01-2.82-10.5-8.19,10.5-8.19-13.01-2.82,5.91-11.93-12.95,3.1.14-13.31-10.32,8.41-5.65-12.06-5.65,12.06-10.32-8.41.14,13.31-12.95-3.1,5.91,11.93-13.01,2.82,10.5,8.19-10.5,8.19,13.01,2.82-5.91,11.93,12.95-3.1-.14,13.31,10.32-8.41ZM46.48,60.31l3.83-7.74c-.55-.95-1.05-1.94-1.46-2.97l-8.41-1.82,6.78-5.29c-.04-.55-.08-1.11-.08-1.67s.05-1.12.08-1.67l-6.78-5.29,8.41-1.82c.42-1.03.91-2.02,1.46-2.97l-3.83-7.74,8.48,2.03c.79-.71,1.61-1.38,2.49-1.98l-.09-8.73,6.87,5.6c.95-.27,1.92-.47,2.91-.62l3.78-8.08,3.83,8.18c.92.16,1.83.37,2.71.64l7.02-5.72-.1,9.2c.69.51,1.36,1.05,1.99,1.62l8.99-2.15-4.12,8.32c.39.72.74,1.47,1.05,2.24l9.1,1.97-7.39,5.77c.02.4.06.79.06,1.19s-.04.79-.06,1.19l7.39,5.77-9.1,1.97c-.32.77-.66,1.52-1.05,2.24l4.12,8.32-8.99-2.15c-.63.58-1.3,1.12-1.99,1.62l.1,9.2-7.02-5.72c-.88.27-1.79.47-2.71.64l-3.83,8.18-3.78-8.08c-.99-.15-1.97-.35-2.91-.62l-6.87,5.6.09-8.73c-.88-.6-1.7-1.27-2.49-1.98l-8.48,2.03Z"/>
  <path d="M61.39,557.2c0,11-8.95,19.95-19.95,19.95s-19.95-8.95-19.95-19.95,8.95-19.95,19.95-19.95,19.95,8.95,19.95,19.95M64.92,557.2c0-12.96-10.51-23.47-23.47-23.47s-23.47,10.51-23.47,23.47,10.51,23.47,23.47,23.47,23.47-10.51,23.47-23.47h0Z"/>
  <path d="M36.12,581.94l5.65,12.06,5.65-12.06,10.32,8.41-.14-13.31,12.95,3.1-5.91-11.93,13.01-2.82-10.5-8.19,10.5-8.19-13.01-2.82,5.91-11.93-12.95,3.1.14-13.31-10.32,8.41-5.65-12.06-5.65,12.06-10.32-8.41.14,13.31-12.95-3.1,5.91,11.93-13.01,2.82,10.5,8.19-10.5,8.19,13.01,2.82-5.91,11.93,12.95-3.1-.14,13.31,10.32-8.41ZM17.32,576.69l3.83-7.74c-.55-.95-1.05-1.94-1.46-2.97l-8.41-1.82,6.78-5.29c-.04-.55-.08-1.11-.08-1.67s.05-1.12.08-1.67l-6.78-5.29,8.41-1.82c.42-1.03.91-2.02,1.46-2.97l-3.83-7.74,8.48,2.03c.79-.71,1.61-1.38,2.49-1.98l-.09-8.73,6.87,5.6c.95-.27,1.92-.47,2.91-.62l3.78-8.08,3.83,8.18c.92.16,1.83.37,2.71.64l7.02-5.72-.1,9.2c.69.51,1.36,1.05,1.99,1.62l8.99-2.15-4.12,8.32c.39.72.74,1.47,1.05,2.24l9.1,1.97-7.39,5.77c.02.4.06.79.06,1.19s-.04.79-.06,1.19l7.39,5.77-9.1,1.97c-.32.77-.66,1.52-1.05,2.24l4.12,8.32-8.99-2.15c-.63.58-1.3,1.12-1.99,1.62l.1,9.2-7.02-5.72c-.88.27-1.79.47-2.71.64l-3.83,8.18-3.78-8.08c-.99-.15-1.97-.35-2.91-.62l-6.87,5.6.09-8.73c-.88-.6-1.7-1.27-2.49-1.98l-8.48,2.03Z"/>
  <path d="M139.39,34.44c2.97-.32,9.3-1.79,11.96-8.33,3.54-8.7-.74-23.11-.74-23.11,0,0-13.12,7.34-16.65,16.03-2.44,6.01.32,11.12,2.27,13.69-1.8,5.7-2.47,11.26-2.47,16.38,0,8.9,2.02,16.46,3.66,21.13,1.59.84,3.19,1.7,4.8,2.58-1.67-3.81-8.17-20.49-2.82-38.38Z"/>
  <path d="M133.76,49.58c-8.94-9.05-17.91-9.99-17.91-9.99,0,0,.71,9.14,9.71,18.39,3.79,3.89,7.63,2.85,9.19,2.17-.57-3.18-.97-6.75-1-10.56Z"/>
  <path d="M138.2,59.07c.27,1.57.58,3.05.92,4.41,3.64-4.58,13.55-15.47,19.47-15.45,5.17.1,5.32,4.75,5.32,5.26-.05,5.16-3.65,5.3-4.1,5.3-.82,0-1.88-.17-2.33-.96-.17-.29-.23-.65-.2-1.01.42.13.87.2,1.35.2,1.94,0,3.52-1.18,3.52-2.64s-1.57-2.63-3.5-2.64h0s0,0-.01,0c0,0,0,0,0,0-.02,0-.04,0-.06,0-.22,0-.43.02-.64.05-.02,0-.03,0-.05,0-1.38.22-2.61,1.05-3.37,2.34-.99,1.67-1.02,3.8-.1,5.43.58,1.02,2.05,2.72,5.32,2.73.12,0,2.9.08,5.16-2.08,1.65-1.57,2.5-3.83,2.53-6.72,0-2.99-1.83-8.67-8.8-8.8-7.07-.02-16.27,9.7-20.42,14.56Z"/>
  <path d="M123.24,122.75c2.6-.74,4.45-2.13,5.5-4.11,1.65-3.11.64-6.46.54-6.78-.93-3.2-2.97-4.14-4.11-4.42-1.82-.44-3.86.18-5.19,1.59-1.02,1.08-1.49,2.48-1.32,3.86,0,.03,0,.05,0,.07.03.2.07.41.12.61,0,.02,0,.05.01.07,0,0,0,0,0,.01s0,0,0,.01h0c.54,1.86,2.1,3.04,3.5,2.64,1.4-.4,2.11-2.24,1.57-4.11-.13-.46-.33-.88-.57-1.24.34-.13.7-.17,1.02-.09.88.21,1.33,1.19,1.58,2.04,0,.02.69,2.27-.28,4.09-.59,1.11-1.72,1.91-3.36,2.38-2.4.69-5.46-.21-6.85-4.76-2.01-6.95,5.58-20.87,13.35-27.83-2.06.44-4.2.97-6.41,1.63-5.6,6.68-10.78,16.28-10.78,23.68,0,1.25.15,2.43.46,3.52,2.02,6.57,7.08,8.32,11.2,7.14Z"/>
  <path d="M117.11,86.35c-.32-1.68-1.82-5.65-8.96-7.23-9.17-2.03-18.46,1.93-18.46,1.93,0,0,6.75,7.5,15.92,9.53.39.09.75.14,1.12.2,3.57-1.78,7.04-3.24,10.37-4.44Z"/>
  <path d="M91.9,114.59c6.38-4.9,5.66-11.21,4.96-13.94,29.99-20.14,55.3-15.3,59.1-14.41-2.57-1.6-5.15-3.14-7.71-4.63-11.1-.7-31.09.97-53.88,16.46-2.81-1.34-8.17-2.78-13.91,1.63-8.38,6.44-11.03,20.32-11.03,20.32,0,0,14.1,1.01,22.47-5.43Z"/>
  <path d="M168.56,88.86c1.72,1.18,3.43,2.38,5.14,3.62,1.67-1.36,4.86-4.63,4.86-9.83,0-11.74-5.87-19.95-5.87-19.95,0,0-5.87,8.22-5.87,19.95,0,2.53.76,4.59,1.73,6.21Z"/>
  <path d="M171.11,96.4c-1.97-1.42-3.94-2.81-5.93-4.16-1.6-.29-3.43-.3-5.42.26-11.29,3.2-17.6,11.08-17.6,11.08,0,0,9.5,3.41,20.8.21,5.03-1.42,7.3-5.42,8.15-7.39Z"/>
  <circle cx="282.43" cy="93.8" r="5.28"/>
  <circle cx="280.09" cy="114.92" r="5.28"/>
  <circle cx="261.31" cy="118.44" r="5.28"/>
  <circle cx="263.66" cy="86.76" r="5.28"/>
  <circle cx="250.75" cy="100.84" r="5.28"/>
  <path d="M233.2,151.13c-.11.97-.2,1.96-.27,2.97,2.02.59,6.43,1.51,10.42-.19,6.48-2.75,15.44-11.67,15.44-11.67,0,0-12.64.27-19.12,3.03-3.09,1.31-5.22,3.89-6.49,5.86Z"/>
  <path d="M238.99,124.53c.59-1.77.98-3.86.69-6.02-.91-6.98-7.09-18.01-7.09-18.01,0,0-3.13,12.25-2.22,19.23.66,5.05,4.71,8.76,5.77,9.65.89-1.7,1.85-3.32,2.85-4.85Z"/>
  <circle cx="144.41" cy="184.9" r="5.28"/>
  <circle cx="164.85" cy="190.74" r="5.28"/>
  <circle cx="175.23" cy="174.7" r="5.28"/>
  <circle cx="145.02" cy="164.85" r="5.28"/>
  <circle cx="162.95" cy="158.25" r="5.28"/>
  <path d="M216.14,161.1c.94.27,1.89.56,2.85.88-.22,2.1-1.04,6.52-4.13,9.57-5.01,4.95-16.65,9.86-16.65,9.86,0,0,5.05-11.59,10.05-16.54,2.39-2.36,5.58-3.36,7.88-3.78Z"/>
  <path d="M189.33,156.37c-1.86-.12-3.94-.56-5.84-1.65-6.11-3.49-13.97-13.4-13.97-13.4,0,0,12.52,1.75,18.63,5.24,4.42,2.53,6.32,7.68,6.74,9-1.91.18-3.77.45-5.57.8Z"/>
  <path d="M260.72,102.6c0,.5.06,1,.16,1.47-10.48,6.05-30.52,21.55-31.58,51.95,1.33,2.73,2.57,5.5,3.72,8.3-2.66-34.04,18.69-50.87,29.44-57.11,1.29,1.48,3.19,2.42,5.31,2.42,3.89,0,7.04-3.15,7.04-7.04s-3.15-7.04-7.04-7.04-7.04,3.15-7.04,7.04Z"/>
  <path d="M164.64,177.34c.8-1.96.65-4.07-.23-5.83,9.9-7.61,33.77-21.08,64.48-5.32-.67-1.66-1.39-3.3-2.13-4.92-.77-.34-1.54-.7-2.29-1.01-29.66-12.16-52.54,1-62.38,8.6-.4-.27-.83-.51-1.3-.7-3.6-1.48-7.71.24-9.19,3.84-1.48,3.6.24,7.71,3.84,9.19,3.6,1.48,7.71-.24,9.19-3.84Z"/>
  <path d="M245.47,223.48c0,1.94-1.58,3.52-3.52,3.52s-3.52-1.58-3.52-3.52,1.58-3.52,3.52-3.52,3.52,1.58,3.52,3.52M247.81,223.48c0-3.24-2.63-5.87-5.87-5.87s-5.87,2.63-5.87,5.87,2.63,5.87,5.87,5.87,5.87-2.63,5.87-5.87h0Z"/>
  <path d="M286.54,243.81c.4-.69.56-1.5.56-2.36,0-3.76-3.06-8.6-3.06-9.64,0-.13.05-.2.16-.2,1.17,0,9.39-1.36,9.39-8.13s-8.22-8.13-9.39-8.13c-.11,0-.16-.07-.16-.2,0-1.03,3.06-5.88,3.06-9.64,0-.86-.16-1.67-.56-2.36-2.07-3.58-28.73,5.46-40.66,16,.58.53,1.05,1.16,1.39,1.89,10.25-9.22,33-17.16,37.39-16.33.06.23.09.49.09.8,0,1.96-1.22,4.67-2.02,6.45-.67,1.5-1.04,2.32-1.04,3.18,0,1.43,1.1,2.55,2.49,2.55.07,0,7.05.71,7.05,5.78s-6.98,5.78-7.04,5.78c-1.4,0-2.5,1.12-2.5,2.55,0,.86.37,1.69,1.05,3.18.8,1.79,2.02,4.49,2.02,6.45,0,.31-.03.58-.09.8-4.4.82-27.15-7.12-37.39-16.33-.26.56-.6,1.06-1,1.51.59.67,1.18,1.38,1.76,2.14,12.71,9.76,36.57,17.63,38.52,14.25Z"/>
  <path d="M233.81,265.73c0,1.17,1.36,9.39,8.13,9.39s8.13-8.22,8.13-9.39c0-.11.07-.16.2-.16,1.03,0,5.88,3.06,9.64,3.06.86,0,1.67-.16,2.36-.56,3.58-2.07-5.46-28.73-16-40.66-.53.58-1.16,1.05-1.89,1.39,9.22,10.25,17.16,32.99,16.33,37.39-.23.06-.49.09-.8.09-1.96,0-4.66-1.21-6.45-2.02-1.5-.67-2.33-1.05-3.18-1.05-1.43,0-2.55,1.1-2.55,2.5,0,.06-.71,7.04-5.78,7.04s-5.78-6.98-5.78-7.05c0-1.39-1.12-2.49-2.55-2.49-.86,0-1.68.37-3.18,1.04-1.79.8-4.49,2.02-6.45,2.02-.31,0-.58-.03-.8-.09-.82-4.4,7.12-27.15,16.33-37.39-.56-.26-1.06-.6-1.51-1-.67.59-1.38,1.18-2.14,1.76-9.76,12.71-17.63,36.57-14.25,38.52.69.4,1.5.56,2.36.56,3.76,0,8.6-3.06,9.64-3.06.13,0,.2.05.2.16Z"/>
  <path d="M238.01,227.8c-.58-.53-1.05-1.16-1.39-1.89-10.25,9.22-32.99,17.16-37.39,16.33-.06-.23-.09-.49-.09-.8,0-1.96,1.21-4.66,2.02-6.45.67-1.5,1.05-2.33,1.05-3.18,0-1.43-1.1-2.55-2.5-2.55-.06,0-7.04-.71-7.04-5.78s6.98-5.78,7.05-5.78c1.39,0,2.49-1.12,2.49-2.55,0-.86-.37-1.68-1.04-3.18-.8-1.79-2.02-4.49-2.02-6.45,0-.31.03-.58.09-.8,4.4-.82,27.15,7.12,37.39,16.33.26-.56.6-1.06,1-1.51-.59-.67-1.18-1.38-1.76-2.14-12.71-9.76-36.57-17.63-38.52-14.25-.4.69-.56,1.5-.56,2.36,0,3.76,3.06,8.6,3.06,9.64,0,.13-.05.2-.16.2-1.17,0-9.39,1.36-9.39,8.13s8.22,8.13,9.39,8.13c.11,0,.16.07.16.2,0,1.03-3.06,5.88-3.06,9.64,0,.86.16,1.67.56,2.36,2.07,3.58,28.73-5.46,40.66-16Z"/>
  <path d="M239.51,218.15c-9.22-10.25-17.16-32.99-16.33-37.39.23-.06.49-.09.8-.09,1.96,0,4.67,1.22,6.45,2.02,1.5.67,2.32,1.04,3.18,1.04,1.43,0,2.55-1.1,2.55-2.49,0-.07.71-7.05,5.78-7.05s5.78,6.98,5.78,7.04c0,1.4,1.12,2.5,2.55,2.5.86,0,1.69-.37,3.18-1.05,1.79-.8,4.49-2.02,6.45-2.02.31,0,.58.03.8.09.82,4.4-7.12,27.15-16.33,37.39.56.26,1.06.6,1.51,1,.67-.59,1.38-1.18,2.14-1.76,9.76-12.71,17.63-36.57,14.25-38.52-.69-.4-1.5-.56-2.36-.56-3.76,0-8.6,3.06-9.64,3.06-.13,0-.2-.05-.2-.16,0-1.17-1.36-9.39-8.13-9.39s-8.13,8.22-8.13,9.39c0,.11-.07.16-.2.16-1.03,0-5.88-3.06-9.64-3.06-.86,0-1.67.16-2.36.56-3.58,2.07,5.46,28.73,16,40.66.53-.58,1.16-1.05,1.89-1.39Z"/>
  <path d="M190.54,133.95c1.18-.07,7.52-6.77,11.04-10.6,15.59,17.2,26.3,36.19,32.29,57.3.18-1.35.89-4.31,2.79-6.43-6.52-19.88-17.18-38.04-31.95-54.34,2.62-2.96,10.95-12.5,10.88-13.9-.09-1.66-13.99-12.53-13.99-12.53,0,0-6.12-5.48-1.88-19.01-17.14,20.89-7.43,31.16-8.21,32.03-.06.06-.11.12-.16.18-27.6-24.71-60.34-40.05-84.43-51.31-3.15-1.47-6.26-2.93-9.23-4.35l-3.91.85,1.57,3.18c3.05,1.46,7.91,3.8,9.58,4.58,23.78,11.12,56.08,26.25,83.14,50.43-2.04-.21-13.03-6.4-30.63,11.62,12.98-5.7,18.23-1,19.1-.22.87.78,12.33,12.62,13.99,12.53Z"/>
  <g>
    <path class="st0" d="M247.81,223.48c0,.87-.2,1.69-.54,2.44,10.25,9.22,33,17.16,37.39,16.33.06-.23.09-.49.09-.8,0-1.96-1.21-4.66-2.02-6.45-.67-1.5-1.05-2.33-1.05-3.18,0-1.43,1.1-2.55,2.5-2.55.06,0,7.04-.71,7.04-5.78s-6.98-5.78-7.05-5.78c-1.39,0-2.49-1.12-2.49-2.55,0-.86.37-1.68,1.04-3.18.8-1.79,2.02-4.49,2.02-6.45,0-.31-.03-.58-.09-.8-4.4-.82-27.15,7.12-37.39,16.33.34.74.54,1.56.54,2.44Z"/>
    <path class="st0" d="M246.98,226.45c.1-.16.19-.33.28-.51-.08.18-.18.34-.28.51Z"/>
  </g>
  <g>
    <path class="st0" d="M241.95,229.35c-.87,0-1.69-.2-2.44-.54-9.22,10.25-17.16,33-16.33,37.39.23.06.49.09.8.09,1.96,0,4.66-1.21,6.45-2.02,1.5-.67,2.33-1.05,3.18-1.05,1.43,0,2.55,1.1,2.55,2.5,0,.06.71,7.04,5.78,7.04s5.78-6.98,5.78-7.05c0-1.39,1.12-2.49,2.55-2.49.86,0,1.68.37,3.18,1.04,1.79.8,4.49,2.02,6.45,2.02.31,0,.58-.03.8-.09.82-4.4-7.12-27.15-16.33-37.39-.74.34-1.56.54-2.44.54Z"/>
    <path class="st0" d="M238.97,228.51c.16.1.33.19.51.28-.18-.08-.34-.18-.51-.28Z"/>
  </g>
  <g>
    <path class="st0" d="M236.08,223.48c0-.87.2-1.69.54-2.44-10.25-9.22-33-17.16-37.39-16.33-.06.23-.09.49-.09.8,0,1.96,1.21,4.66,2.02,6.45.67,1.5,1.05,2.33,1.05,3.18,0,1.43-1.1,2.55-2.5,2.55-.06,0-7.04.71-7.04,5.78s6.98,5.78,7.05,5.78c1.39,0,2.49,1.12,2.49,2.55,0,.86-.37,1.68-1.04,3.18-.8,1.79-2.02,4.49-2.02,6.45,0,.31.03.58.09.8,4.4.82,27.15-7.12,37.39-16.33-.34-.74-.54-1.56-.54-2.44Z"/>
    <path class="st0" d="M236.91,220.51c-.1.16-.19.33-.28.51.08-.18.18-.34.28-.51Z"/>
  </g>
  <circle cx="135.37" cy="312.39" r="5.28"/>
  <circle cx="126.03" cy="331.48" r="5.28"/>
  <circle cx="139.99" cy="344.52" r="5.28"/>
  <circle cx="155" cy="316.52" r="5.28"/>
  <circle cx="158.34" cy="335.33" r="5.28"/>
  <g>
    <path class="st0" d="M241.95,217.61c.87,0,1.69.2,2.44.54,9.22-10.25,17.16-33,16.33-37.39-.23-.06-.49-.09-.8-.09-1.96,0-4.66,1.21-6.45,2.02-1.5.67-2.33,1.05-3.18,1.05-1.43,0-2.55-1.1-2.55-2.5,0-.06-.71-7.04-5.78-7.04s-5.78,6.98-5.78,7.05c0,1.39-1.12,2.49-2.55,2.49-.86,0-1.68-.37-3.18-1.04-1.79-.8-4.49-2.02-6.45-2.02-.31,0-.58.03-.8.09-.82,4.4,7.12,27.15,16.33,37.39.74-.34,1.56-.54,2.44-.54Z"/>
    <path class="st0" d="M244.92,218.45c-.16-.1-.33-.19-.51-.28.18.08.34.18.51.28Z"/>
  </g>
  <path d="M281.7,315.17c.39-.32.83-.57,1.3-.78.1-.33.23-.66.42-1.02,2.2-4.15,5.86-3.54,11.04-.79,6.11,3.24,8.71,10.36,9.66,13.9,3.33-9.2-.51-19.69-9.41-24.4-9.13-4.83-20.32-1.87-25.93,6.55,3.79,1.37,8.05,3.47,12.92,6.53Z"/>
  <path d="M301.5,331.42c-3.46,1.21-10.81,3.07-16.93-.17-5.19-2.75-7.75-5.43-5.55-9.58.18-.34.38-.63.58-.89-.06-.35-.11-.7-.11-1.06,0-.56.1-1.1.25-1.61-4.84-3.03-9.01-5.03-12.68-6.29-4.1,9.46-.3,20.63,8.97,25.53,8.9,4.71,19.73,2,25.47-5.93Z"/>
  <path d="M257.36,306.4c.72-.52,1.43-1.15,2.11-1.97,5.23-6.33,5.95-16.4,5.95-16.4,0,0-9.76,2.59-14.99,8.92-3.9,4.71-2.13,9.51-1.59,10.69,2.57-.74,5.35-1.27,8.53-1.25Z"/>
  <path d="M254.37,318.72c-2.11-4.34-5.24-6.06-7.44-6.75-.76.27-1.51.55-2.25.83-.46.17-.91.34-1.37.51-.92,2.08-1.79,5.83.5,10.55,4.16,8.55,13.59,14.54,13.59,14.54,0,0,1.12-11.12-3.04-19.67Z"/>
  <path d="M185.51,277.43c-.07-.5-.22-.99-.42-1.46.15-.31.28-.64.39-1.03,1.21-4.53-1.88-6.58-7.55-8.1-6.68-1.79-13.43,1.67-16.54,3.61,3.82-9.01,13.77-14.07,23.5-11.47,9.98,2.67,16.16,12.46,14.54,22.44-3.71-1.57-8.26-2.94-13.92-4.01Z"/>
  <path d="M159.94,275.86c1.71,3.24,5.84,9.61,12.52,11.39,5.67,1.52,9.37,1.29,10.59-3.24.1-.37.15-.72.18-1.05.28-.21.55-.44.8-.71.38-.41.67-.87.91-1.35,5.61,1.07,10.03,2.45,13.58,4.02-3.44,9.72-13.82,15.32-23.95,12.61-9.73-2.6-15.82-11.96-14.62-21.68Z"/>
  <path d="M209.31,287.57c-.18-.87-.27-1.82-.21-2.88.47-8.2,6.81-16.06,6.81-16.06,0,0,5.38,8.54,4.91,16.74-.35,6.1-4.91,8.42-6.11,8.92-1.37-2.29-3.05-4.57-5.4-6.72Z"/>
  <path d="M203.11,298.63c4.5-1.75,7.96-.88,10.04.12.37.72.73,1.43,1.08,2.13.22.44.44.87.66,1.31-.74,2.15-2.65,5.49-7.54,7.39-8.87,3.44-19.86,1.4-19.86,1.4,0,0,6.75-8.91,15.62-12.35Z"/>
  <path d="M243.46,309.5c-4.5,1.69-8.45,3.16-13.53,1.93-.46,1.11-.93,2.2-1.4,3.28,6.41,1.74,11.37-.12,16.17-1.92,7.84-2.93,16.65-6.22,35.06,5.31-.15.52-.25,1.05-.25,1.61,0,3.24,2.63,5.87,5.87,5.87s5.87-2.63,5.87-5.87-2.63-5.87-5.87-5.87c-1.4,0-2.66.51-3.67,1.32-19.91-12.52-29.62-8.9-38.24-5.67ZM287.72,319.71c0,1.3-1.05,2.35-2.35,2.35s-2.35-1.05-2.35-2.35,1.05-2.35,2.35-2.35,2.35,1.05,2.35,2.35Z"/>
  <path d="M225.54,309.67c-4.24-2.55-6.07-6.21-8.15-10.37-4.12-8.24-8.77-17.5-31.88-21.87-.18-1.28-.77-2.51-1.79-3.46-2.37-2.21-6.09-2.07-8.29.31-2.21,2.37-2.07,6.09.31,8.29,2.37,2.21,6.09,2.07,8.29-.31.38-.41.67-.87.91-1.35,21.34,4.08,25.56,12.48,29.3,19.97,2.21,4.42,4.5,8.96,9.91,12.05.47-1.07.94-2.16,1.39-3.26ZM178.13,279.99c-.95-.88-1-2.37-.12-3.32.88-.95,2.37-1,3.32-.12.95.88,1,2.37.12,3.32s-2.37,1-3.32.12Z"/>
  <path d="M206.06,349.3c19.2-4.62,30.29.96,35.23,4.78,6.11,4.73,8.28,10.48,8.28,14.26-.12,6.89-6.52,7.1-7.24,7.11-2.57-.02-4.51-.67-5.76-1.94-1.54-1.56-1.57-3.56-1.55-3.61,0-1.12.25-2.61,1.43-3.28.37-.21.81-.31,1.26-.33-.32.63-.52,1.35-.51,2.13,0,2.44,1.82,4.4,4.05,4.4,2.23,0,4.03-1.99,4.02-4.42,0-.02,0-.03,0-.05,0,0,0,0,0,0-.06-5.33-5.07-5.61-7.28-5.59-.04,0-.08,0-.12,0-.15,0-.3,0-.42,0,0,0,0,0,0,.01-.97.06-1.92.31-2.76.79-1.19.68-3.2,2.42-3.2,6.28h0c-.05,1.19.43,3.93,2.49,6.07,1.93,2.01,4.73,3.04,8.33,3.06,3.66-.01,10.62-2.23,10.76-10.6,0-5.93-3.7-12.47-9.65-17.08-5.02-3.88-15.71-9.46-33.52-6.41-1.26,1.51-2.55,2.98-3.87,4.41Z"/>
  <path d="M151.93,365.42c-1.36-1.42-3.15-2.83-5.38-3.59-6.66-2.27-19.29-1.62-19.29-1.62,0,0,9.59,8.23,16.26,10.5,2.78.95,5.64.68,7.83.19.29-1.87.48-3.69.58-5.48Z"/>
  <circle cx="207.34" cy="442.35" r="5.28"/>
  <circle cx="186.17" cy="440.5" r="5.28"/>
  <circle cx="182.21" cy="421.81" r="5.28"/>
  <circle cx="213.94" cy="423.42" r="5.28"/>
  <circle cx="199.56" cy="410.84" r="5.28"/>
  <path d="M147.27,384.79c1.61-.83,3.21-1.67,4.82-2.52,7.76-21.67.77-40.46-4.03-49.65.34-.35.65-.73.92-1.16,2.09-3.28,1.11-7.63-2.17-9.72-3.28-2.09-7.63-1.11-9.72,2.17-2.09,3.28-1.11,7.63,2.17,9.72,1.79,1.14,3.89,1.36,5.78.8,4.75,9.17,11.76,28.44,2.23,50.36Z"/>
  <path d="M153.73,386.72c-1.31.69-2.62,1.37-3.94,2.05,5.46,2.48,28.05,13.61,43.43,34.29-1.08,1.24-1.74,2.85-1.74,4.62,0,3.89,3.15,7.04,7.04,7.04s7.04-3.15,7.04-7.04-3.15-7.04-7.04-7.04c-.84,0-1.64.15-2.39.42-14.25-19.28-34.12-30.33-42.41-34.35Z"/>
  <path d="M169.71,400.45c-1.26-.9-2.49-1.75-3.7-2.55-1.35,1.31-3.87,4.35-3.87,8.66,0,8.22,4.69,15.26,4.69,15.26,0,0,4.69-7.04,4.69-15.26,0-2.49-.85-4.55-1.82-6.11Z"/>
  <path d="M177.75,402.06c1.6.57,3.46.98,5.52.98,9.39,0,17.6-4.69,17.6-4.69,0,0-8.22-4.69-17.6-4.69-5.54,0-9.62,2.9-11.11,4.14,1.83,1.32,3.7,2.74,5.59,4.27Z"/>
  <path d="M119.22,381.11c.17-.46.36-.91.6-1.33,2.26-3.92,7.3-5.27,11.22-3.01,2.53,1.46,4.11,4.19,4.11,7.13,0,1.43-.38,2.85-1.1,4.1-.25.43-.53.82-.84,1.18.77.92,1.45,1.91,2.07,2.94.68-.7,1.3-1.48,1.81-2.36,1.07-1.85,1.57-3.87,1.57-5.86,0-4.06-2.11-8-5.87-10.17-5.61-3.24-12.79-1.32-16.03,4.3-.51.88-.88,1.81-1.14,2.74,1.22.02,2.42.14,3.59.35Z"/>
  <path d="M137.21,396.13c.47-.09.96-.14,1.46-.14,4.53,0,8.22,3.69,8.22,8.22s-3.69,8.22-8.22,8.22c-.5,0-.98-.05-1.46-.14-.42,1.13-.9,2.23-1.48,3.27.94.24,1.92.38,2.93.38,6.48,0,11.74-5.25,11.74-11.74s-5.25-11.74-11.74-11.74c-1.01,0-1.99.14-2.93.38.58,1.04,1.06,2.14,1.48,3.27Z"/>
  <path d="M132.8,434.7c3.77-2.17,5.87-6.12,5.87-10.17,0-1.99-.51-4.01-1.57-5.86-.51-.88-1.13-1.67-1.81-2.36-.62,1.03-1.3,2.02-2.07,2.94.31.36.59.75.84,1.18.72,1.25,1.1,2.67,1.1,4.1,0,2.93-1.57,5.66-4.11,7.12-3.92,2.26-8.96.92-11.22-3.01-.25-.42-.44-.87-.6-1.33-1.17.2-2.37.32-3.59.35.26.94.63,1.86,1.14,2.74,3.24,5.61,10.42,7.54,16.03,4.3Z"/>
  <path d="M113.63,430.41c.51-.88.88-1.81,1.14-2.74-1.22-.02-2.42-.14-3.59-.35-.17.46-.36.91-.6,1.33-2.26,3.92-7.3,5.27-11.22,3.01-2.53-1.46-4.11-4.19-4.11-7.13,0-1.43.38-2.85,1.1-4.1.25-.43.53-.82.84-1.18-.77-.92-1.45-1.91-2.07-2.94-.68.7-1.3,1.48-1.81,2.36-1.07,1.85-1.57,3.87-1.57,5.86,0,4.06,2.11,8,5.87,10.17,5.61,3.24,12.79,1.32,16.03-4.3Z"/>
  <path d="M97.18,389.17c-.31-.36-.59-.75-.84-1.18-.72-1.25-1.1-2.67-1.1-4.1,0-2.93,1.57-5.66,4.11-7.13,3.92-2.26,8.96-.92,11.22,3.01.25.42.44.87.6,1.33,1.17-.2,2.37-.32,3.59-.35-.26-.94-.63-1.86-1.14-2.74-3.24-5.61-10.42-7.54-16.03-4.3-3.77,2.17-5.87,6.12-5.87,10.17,0,1.99.51,4.01,1.57,5.86.51.88,1.13,1.67,1.81,2.36.62-1.03,1.3-2.02,2.07-2.94Z"/>
  <path d="M93.18,412.29c-.47.09-.96.14-1.46.14-4.53,0-8.22-3.69-8.22-8.22s3.69-8.22,8.22-8.22c.5,0,.98.05,1.46.14.42-1.13.9-2.23,1.48-3.27-.94-.24-1.92-.38-2.93-.38-6.48,0-11.74,5.25-11.74,11.74s5.25,11.74,11.74,11.74c1.01,0,1.99-.14,2.93-.38-.58-1.04-1.06-2.14-1.48-3.27Z"/>
  <path d="M136.84,390.13c-.46.72-.98,1.39-1.56,1.98.15.25.31.49.45.75.94-.24,1.92-.38,2.93-.38,1.07,0,2.1.16,3.08.42,10.63-5.42,21.32-10.9,31.58-17.24l8.07,10.92s1.82,3.03,3.98,1.43c0,0,12.27-9.07,16.04-11.87,3.77-2.79,7.03-2.73,13.97-.12-5.09-18.19-19.3-10.26-27.17-9.6-.35,0-.67-.09-.98-.21,24.44-18.34,44.72-44.51,53.02-91.3-1.92-.44-3.3-1.61-4.27-3-4.63,27.58-13.73,49.82-27.45,67.28-7.17,9.13-15.35,16.68-24.1,23.24-.03-.33-.02-.68.08-1.02,2.93-7.34,14.67-18.6-1.23-28.79.46,7.41-.43,10.54-4.2,13.33-3.77,2.79-16.04,11.87-16.04,11.87-2.16,1.6.21,4.23.21,4.23l7.26,9.81c-10.26,6.32-20.95,11.78-31.49,17.16-.73.37-1.46.74-2.19,1.12Z"/>
  <path d="M115.2,380.74h.44c.26-.93.62-1.85,1.13-2.72,1.24-2.15,3.05-3.75,5.14-4.73.2-.95.33-1.98.33-3.11,0-8.22-11.74-10.56-11.74-10.56,0,0,8.22,12.91,4.69,21.12Z"/>
  <path d="M135.63,415.95s-.17.3-.26.46c.65.67,1.24,1.42,1.73,2.27,1.22,2.12,1.71,4.46,1.54,6.73.74.68,1.6,1.34,2.62,1.93,7.11,4.11,15.02-4.88,15.02-4.88,0,0-15.29.66-20.64-6.5Z"/>
  <path d="M115.2,427.68h-.44c-.26.93-.62,1.85-1.13,2.72-1.24,2.15-3.05,3.75-5.14,4.73-.2.95-.33,1.98-.33,3.11,0,8.22,11.74,10.56,11.74,10.56,0,0-8.22-12.91-4.69-21.12Z"/>
  <path d="M95.04,392.23s.05-.07.07-.11c-.68-.7-1.3-1.48-1.81-2.36-1.29-2.24-1.75-4.73-1.49-7.12-.64-.54-1.36-1.06-2.18-1.54-7.11-4.11-15.02,4.88-15.02,4.88,0,0,14.92-.64,20.44,6.25Z"/>
  <path d="M91.87,426.34c-.4-2.55.03-5.26,1.43-7.67.51-.88,1.13-1.67,1.81-2.36-.15-.25-.31-.49-.45-.75-.02,0-.04,0-.06.01-6.95,4.96-20.47,1.9-20.47,1.9,0,0,4.48,7.45,10.6,7.93-1.59,6.23,4.92,12.84,4.92,12.84,0,0,.18-6.17,2.23-11.91Z"/>
  <path d="M83.8,461.82c8.68-2.85,11.36-9.65,11.36-9.65,0,0-6.22-4.22-15.19-1.44-6.96,2.16-10.17,6.84-11.26,8.84,4.29.32,9.5.98,15.08,2.25Z"/>
  <path d="M86.37,486.26c.9-6.52-6.35-16.02-10.79-21.15-1.88-.28-3.67-.49-5.35-.65,4.08,4.26,13.46,15.48,12.65,21.29-.79,5.11-5.42,4.63-5.93,4.56-5.11-.74-4.76-4.33-4.7-4.77.11-.81.42-1.84,1.26-2.18.31-.13.67-.14,1.03-.06-.18.39-.32.84-.38,1.31-.26,1.93.7,3.65,2.15,3.84,1.44.19,2.82-1.2,3.08-3.11h0s0,0,0-.01c0,0,0,0,0-.01,0-.03,0-.05,0-.08.03-.2.04-.41.04-.61,0-.03,0-.06,0-.09-.04-1.39-.7-2.7-1.86-3.62-1.53-1.2-3.63-1.52-5.37-.82-1.08.44-2.97,1.66-3.42,4.91,0,.04-.06.38-.06.9,0,1.04.21,2.81,1.43,4.49,1.34,1.85,3.46,2.99,6.32,3.4,2.96.4,8.83-.66,9.9-7.54Z"/>
  <path d="M102.21,468.35c2.85,1.46,5.64,3.15,8.31,5.1,4.27-3.2,10.33-3.17,14.59.42,4.03,3.4,10.55,13.45,10.58,19.74,5.19-8.72,3.48-20.16-4.53-26.92-8.61-7.26-21.32-6.43-28.95,1.66Z"/>
  <path d="M131.23,498.91c-6.21,1.03-17.21-3.69-21.25-7.09-4.41-3.72-5.39-9.99-2.6-14.82-2.58-1.84-5.29-3.44-8.06-4.8-5.1,8.71-3.37,20.07,4.61,26.8,8.02,6.76,19.58,6.5,27.3-.09Z"/>
  <path d="M51.93,435.86c.71-9.11,6.68-13.32,6.68-13.32,0,0,5.57,5.04,5,14.42-.45,7.28-4.24,11.5-5.92,13.03-1.33-4.09-3.2-9-5.76-14.12Z"/>
  <path d="M27.58,439.16c6.13-2.42,17.07,2.37,23.1,5.47.72,1.76,1.35,3.45,1.9,5.04-5.1-2.95-18.23-9.4-23.68-7.25-4.77,1.98-3.22,6.36-3.03,6.84,1.93,4.78,5.33,3.6,5.75,3.44.76-.3,1.69-.85,1.82-1.74.05-.33-.03-.69-.18-1.01-.34.27-.74.51-1.18.68-1.81.71-3.71.18-4.24-1.17-.53-1.35.5-3.02,2.3-3.73h0s0,0,.01,0c0,0,0,0,.01,0,.03,0,.05-.01.08-.02.19-.07.39-.13.58-.18.03,0,.06,0,.08-.02,1.36-.29,2.79.04,3.96.95,1.53,1.2,2.34,3.17,2.07,5.02-.17,1.16-.91,3.28-3.96,4.49-.04.02-.35.15-.86.27-1.01.25-2.79.46-4.7-.33-2.11-.86-3.72-2.65-4.81-5.33-1.09-2.78-1.46-8.74,4.98-11.4Z"/>
  <path d="M41.22,419.52c-2.09-2.42-4.4-4.73-6.93-6.86,2.1-4.91.63-10.79-3.86-14.08-4.26-3.11-15.57-7.06-21.69-5.6,7.25-7.11,18.76-8.16,27.23-1.98,9.09,6.65,11.3,19.18,5.25,28.52Z"/>
  <path d="M4.66,398.57c.47,6.28,7.67,15.85,11.93,18.96,4.66,3.41,10.99,2.86,15.02-.99,2.4,2.07,4.59,4.32,6.57,6.69-7.25,7.02-18.7,8.03-27.13,1.88-8.46-6.19-10.96-17.48-6.39-26.54Z"/>
  <path d="M55.66,460.41c1.07-2.13,2.17-4.2,3.31-6.2-3.07-11.01-11.23-33.08-29.66-45.31.11-.72.09-1.48-.1-2.24-.77-3.15-3.94-5.08-7.09-4.31-3.15.77-5.08,3.94-4.31,7.09s3.94,5.08,7.09,4.31c.71-.17,1.35-.48,1.92-.88,20.47,13.68,27.52,41.46,28.84,47.52ZM21.23,408.62c-.31-1.26.46-2.53,1.72-2.84,1.26-.31,2.53.46,2.84,1.72.31,1.26-.46,2.53-1.72,2.84-1.26.31-2.53-.46-2.84-1.72Z"/>
  <path d="M61.46,459.28c-.83,1.55-1.63,3.13-2.4,4.73,6.17-.15,34.86.1,53.02,16.75-.25.65-.4,1.34-.4,2.07,0,3.24,2.63,5.87,5.87,5.87s5.87-2.63,5.87-5.87-2.63-5.87-5.87-5.87c-.78,0-1.52.16-2.2.43-17.75-16.39-44-18.1-53.89-18.13ZM119.89,482.84c0,1.3-1.05,2.35-2.35,2.35s-2.35-1.05-2.35-2.35,1.05-2.35,2.35-2.35,2.35,1.05,2.35,2.35Z"/>
  <path d="M41.76,520.4l1.91,4.07c3.23-34.67,12.75-61.72,28.8-82.14,3.78-4.81,7.86-9.15,12.16-13.16-.22-1.23-.24-2.5.08-3.76-.81-.06-1.59-.26-2.33-.53-22.32,20.55-39.37,50.52-43.62,101.93l3-6.41Z"/>
  <circle cx="68.83" cy="520.4" r="4.69"/>
  <circle cx="78.77" cy="502.98" r="4.69"/>
  <circle cx="16.19" cy="503.28" r="4.69"/>
  <circle cx="13.48" cy="483.41" r="4.69"/>
  <path d="M56.03,507.64c-3.34.25-6.79.51-10.2.11-.19,1.15-.38,2.3-.56,3.48,3.79.46,7.47.19,11.03-.08,7.39-.56,13.91-1.06,20.55,4.66-.14.34-.26.7-.32,1.08-.41,2.56,1.33,4.97,3.89,5.38,2.56.41,4.97-1.33,5.38-3.89.41-2.56-1.33-4.97-3.89-5.38-.9-.15-1.78-.01-2.56.32-7.83-6.85-15.69-6.26-23.31-5.68Z"/>
  <path d="M10.36,497.14c.09-.38.11-.75.1-1.12,8.3-2.82,14.16.07,20.8,3.36,3.29,1.63,6.69,3.3,10.51,4.27.21-1.17.43-2.33.66-3.47-3.38-.9-6.54-2.45-9.6-3.96-6.86-3.39-13.92-6.87-23.75-3.45-.6-.6-1.37-1.05-2.26-1.25-2.53-.57-5.04,1.01-5.62,3.54-.57,2.53,1.01,5.04,3.54,5.62,2.53.57,5.04-1.01,5.62-3.54Z"/>
  <circle class="st0" cx="241.95" cy="223.48" r="3.52"/>
  <path d="M135.15,404.21c0-11.02-8.93-19.95-19.95-19.95v19.95h19.95Z"/>
  <path class="st0" d="M135.15,404.21c0,11.02-8.93,19.95-19.95,19.95v-19.95h19.95Z"/>
  <path class="st0" d="M95.25,404.21c0-11.02,8.93-19.95,19.95-19.95v19.95h-19.95Z"/>
  <path d="M95.25,404.21c0,11.02,8.93,19.95,19.95,19.95v-19.95h-19.95Z"/>
  <path class="st0" d="M138.67,404.21c0,2.84-.53,5.56-1.46,8.08.47.08.96.14,1.46.14,4.54,0,8.22-3.68,8.22-8.22s-3.68-8.22-8.22-8.22c-.5,0-.98.05-1.46.14.93,2.52,1.46,5.24,1.46,8.08Z"/>
  <path class="st0" d="M131.04,431.65c3.93-2.27,5.28-7.29,3.01-11.22-.25-.43-.53-.82-.84-1.18-3.49,4.18-8.41,7.1-14,8.07.16.45.36.9.61,1.33,2.27,3.93,7.29,5.28,11.22,3.01Z"/>
  <path class="st0" d="M110.58,428.65c.25-.43.45-.88.61-1.33-5.59-.97-10.51-3.89-14-8.07-.31.36-.59.75-.84,1.18-2.27,3.93-.92,8.95,3.01,11.22,3.93,2.27,8.95.92,11.22-3.01Z"/>
  <path class="st0" d="M91.73,404.21c0-2.84.53-5.56,1.46-8.08-.47-.08-.96-.14-1.46-.14-4.54,0-8.22,3.68-8.22,8.22s3.68,8.22,8.22,8.22c.5,0,.98-.05,1.46-.14-.93-2.52-1.46-5.24-1.46-8.08Z"/>
  <path class="st0" d="M111.19,381.11c-.16-.45-.36-.9-.61-1.33-2.27-3.93-7.29-5.28-11.22-3.01-3.93,2.27-5.28,7.29-3.01,11.22.25.43.53.82.84,1.18,3.49-4.18,8.41-7.1,14-8.07Z"/>
  <path class="st0" d="M133.21,389.17c.31-.36.59-.75.84-1.18,2.27-3.93.92-8.95-3.01-11.22-3.93-2.27-8.95-.92-11.22,3.01-.25.43-.45.88-.61,1.33,5.59.97,10.51,3.89,14,8.07Z"/>
  <path d="M61.39,557.2c0-11.02-8.93-19.95-19.95-19.95v19.95h19.95Z"/>
  <path class="st0" d="M61.39,557.2c0,11.02-8.93,19.95-19.95,19.95v-19.95h19.95Z"/>
  <path class="st0" d="M21.49,557.2c0-11.02,8.93-19.95,19.95-19.95v19.95h-19.95Z"/>
  <path d="M21.49,557.2c0,11.02,8.93,19.95,19.95,19.95v-19.95h-19.95Z"/>
</svg>