<?xml version="1.0" encoding="UTF-8"?>
<svg xmlns="http://www.w3.org/2000/svg" version="1.1" viewBox="0 0 595.28 595.28">
  <!-- Generator: Adobe Illustrator 30.1.0, SVG Export Plug-In . SVG Version: 2.1.1 Build 136)  -->
  <defs>
    <style>
      .st0 {
        fill: #020202;
      }

      .st1 {
        fill: #fff;
      }
    </style>
  </defs>
  <g id="background">
    <path class="st1" d="M520.97,452.3c-2.04,19.31-14.96,32.26-33.93,36.35-14.58,3.14-26.86,1.64-36.18-11.09-4.96-6.76-7.97-14.72-11.12-22.49-5.21-12.85-12.68-21.41-26.63-26.18-4.91-1.68-13.88-6.41-20.18-7.23-.61.23-1.22.45-1.83.67-3.34,1.18-6.62,2.26-9.83,3.24,11.09,1.42,22.39,5.92,31.49,11.21,30.17,17.58,36.94,55.57,16.04,83.59-11.61,15.56-29.34,20.11-47.74,13.95-14.14-4.74-23.92-12.31-25.44-28.02-.81-8.34.66-16.72,1.91-25.01,2.08-13.72,3.33-28.35-6.22-39.57-2.98-3.48-6.75-6.72-10.85-9.12-.25.01-.49.01-.73.01-1.69,0-3.33-.04-4.92-.14l.34.14c30.73,37.06,16.96,84.49,7.02,107.84-3.2,7.5-10.55,12.23-18.5,12.23-1.04,0-2.08-.07-3.13-.24-11.5-1.8-19.12-12.94-16.51-24.26,12.57-54.6-5.96-108.78-6.38-110.05h-.01s0-.01-.02,0c-.42,1.27-18.95,55.45-6.37,110.05,2.61,11.32-5.02,22.46-16.51,24.26-1.05.17-2.09.24-3.13.24-7.96,0-15.31-4.73-18.5-12.23-9.94-23.35-23.71-70.78,7.02-107.84l.34-.14c-1.58.09-3.22.14-4.92.14-.24,0-.47,0-.71-.02-4.11,2.4-7.89,5.64-10.88,9.13-9.55,11.22-8.3,25.85-6.22,39.57,1.25,8.29,2.73,16.67,1.92,25.01-1.53,15.71-11.3,23.28-25.45,28.02-18.39,6.16-36.12,1.61-47.74-13.95-20.89-28.02-14.13-66.01,16.05-83.59,9.09-5.29,20.41-9.79,31.5-11.21-3.23-.98-6.51-2.05-9.86-3.24-.61-.21-1.22-.43-1.82-.67-6.3.82-15.26,5.55-20.17,7.23-13.95,4.77-21.42,13.33-26.63,26.18-3.15,7.77-6.17,15.73-11.12,22.49-9.33,12.73-21.6,14.23-36.19,11.09-18.96-4.09-31.89-17.04-33.92-36.35-3.68-34.77,21.54-64,56.46-63.7,9.26.08,19.69,1.56,29.04,4.93-1.37-1.43-2.72-2.91-4.03-4.43-.15-.16-.29-.33-.44-.51-5.98-1.69-18.02-3.21-20.92-3.77-8.74-1.67-14.57-.74-22.41,3.83-4.73,2.76-9.46,5.65-14.65,7.43-9.78,3.36-16.36.61-22.16-4.96-7.53-7.23-8.47-16.95-1.51-26.57,12.55-17.33,36.83-23.97,53.69-14.03,2.37,1.4,4.75,3.09,6.91,5-2.04-4.34-3.94-8.84-5.69-13.51-11.31-30.11-14.82-62.92-14.34-83.58.72-30.64-26.18-76.25-26.45-76.7-1.6-2.69-1.37-6.08.55-8.52,1.46-1.85,3.65-2.87,5.92-2.87.74,0,1.5.1,2.23.33,24.14,7.48,44.76,18.35,62.16,30.61l-21.45-38.61c-.33-.59-.58-1.22-.74-1.88-.8-3.27-7.35-32.44,6.19-49.64,4.19-5.33,12.17-11.69,26.41-11.69,9.04,0,19.49,2.45,31.74,7.46.75-6.71,2.14-15.72,4.65-24.8,9.06-32.66,25.39-39.53,37.48-39.53,15.72,0,33.66,11.46,54.69,34.97,21.03-23.51,38.95-34.97,54.67-34.97,12.09,0,28.42,6.87,37.48,39.53,2.51,9.08,3.9,18.09,4.67,24.8,12.23-5.01,22.68-7.46,31.74-7.46,14.23,0,22.22,6.36,26.4,11.69,13.55,17.22,6.98,46.37,6.18,49.64-.16.66-.41,1.29-.74,1.88l-21.45,38.62c17.4-12.26,38.02-23.14,62.16-30.62.74-.23,1.49-.33,2.23-.33,2.26,0,4.46,1.02,5.92,2.87,1.93,2.44,2.14,5.83.55,8.52-.27.45-27.17,46.06-26.45,76.7.48,20.66-3.03,53.47-14.34,83.58-1.75,4.67-3.65,9.17-5.68,13.51,2.17-1.91,4.55-3.6,6.92-5,16.85-9.94,41.14-3.3,53.68,14.03,6.96,9.62,6.03,19.34-1.5,26.57-5.8,5.57-12.38,8.32-22.16,4.96-5.2-1.78-9.93-4.67-14.66-7.43-7.83-4.57-13.66-5.5-22.4-3.83-2.91.56-14.94,2.08-20.92,3.77,5.39-6.3,10.32-13.3,14.72-20.96-4.54,7.87-9.61,15.04-15.18,21.47-1.67,1.92-3.39,3.78-5.15,5.58.39-.38.76-.76,1.13-1.15,9.36-3.37,19.78-4.85,29.05-4.93,34.91-.3,60.13,28.93,56.46,63.7Z"/>
  </g>
  <g id="Layer_1">
    <g>
      <path class="st0" d="M426.2,106.99c-9.39,0-21.87,3.19-38.4,11.15,0,0-2.21-68.02-35.49-68.02-12.96,0-30.61,10.32-54.67,38.94-24.07-28.64-41.73-38.94-54.68-38.94-33.28,0-35.49,68.02-35.49,68.02-16.54-7.95-29.01-11.15-38.38-11.15-37.89,0-25.28,52.02-25.28,52.02l29.89,53.81c5.44,4.5,10.48,9.13,15.15,13.77-1.02-1.14-1.9-2.43-2.58-3.78-1.01-2.02-1.58-4.25-1.58-6.58,0-9.29,9.04-16.81,18.32-16.81,0-9.29,7.53-18.32,16.83-18.32,5.62,0,10.59,3.33,13.63,8l.02-.02c15.43,7.79,32.48-6.28,29.62-20.01-.11-.36-.2-.74-.27-1.1-.03-.11-.05-.2-.08-.29l.02-.02c-.17-.86-.27-1.75-.27-2.65,0-9.29,9.04-16.81,18.32-16.81,0-9.29,7.53-18.32,16.83-18.32s16.81,9.02,16.81,18.32c9.28,0,18.32,7.52,18.32,16.81,0,.9-.11,1.79-.27,2.65v.02c-.02.09-.03.18-.06.29-.08.36-.17.74-.27,1.1-2.86,13.72,14.19,27.79,29.62,20.01l.02.02c3.06-4.67,8.01-8,13.65-8,9.29,0,16.83,9.02,16.83,18.32,9.28,0,18.32,7.52,18.32,16.81,0,3.9-1.6,7.49-4.13,10.33,4.65-4.62,9.69-9.22,15.09-13.72l29.9-53.83s12.64-52.02-25.26-52.02Z"/>
      <path class="st0" d="M294.25,525.18c2.61,11.33-8.02,25.46-19.51,27.27-1.05.17-2.09.24-3.13.24-7.95,0-15.31-4.73-18.5-12.23-9.94-23.35-23.71-70.79,7.02-107.85l.35-.14c19.37-1.04,30.79-8.16,37.15-14.34-.42,1.27-15.95,52.45-3.37,107.05Z"/>
      <path class="st0" d="M254.84,432.59c-4.11,2.4-7.89,5.63-10.88,9.13-9.55,11.22-8.3,25.85-6.22,39.57,1.25,8.29,1.73,16.66.91,25.01-1.52,15.71-10.3,23.27-24.44,28.02-18.39,6.16-36.12,1.61-47.74-13.95-20.89-28.02-14.13-66.01,16.04-83.59,9.1-5.29,20.41-9.79,31.5-11.21,15.05,4.59,28.74,6.94,40.82,7.02Z"/>
      <path class="st0" d="M202.34,421.66c-6.3.83-15.26,5.56-20.17,7.23-13.95,4.78-21.42,13.33-26.63,26.18-3.15,7.77-6.16,15.73-11.12,22.49-9.32,12.73-21.6,14.24-36.18,11.09-18.97-4.08-31.89-17.04-33.92-36.35-3.68-34.77,21.54-63.99,56.46-63.69,9.26.08,19.69,1.55,29.04,4.93,12.1,12.67,26.36,22.11,42.53,28.13Z"/>
      <path class="st0" d="M155.34,388.59c-5.98-1.69-18.02-3.21-20.92-3.77-8.74-1.67-14.57-.74-22.4,3.83-4.73,2.76-9.46,5.65-14.66,7.43-9.78,3.36-16.36.62-22.16-4.96-7.53-7.23-8.47-16.95-1.51-26.57,12.55-17.32,36.83-23.97,53.69-14.02,2.37,1.4,4.75,3.09,6.91,5,5.88,12.52,12.93,23.59,21.04,33.07Z"/>
      <path class="st0" d="M301.03,525.18c-2.61,11.33,8.02,25.46,19.51,27.27,1.05.17,2.09.24,3.13.24,7.95,0,15.31-4.73,18.5-12.23,9.94-23.35,23.71-70.79-7.02-107.85l-.35-.14c-19.37-1.04-30.79-8.16-37.15-14.34.42,1.27,15.95,52.45,3.37,107.05Z"/>
      <path class="st0" d="M340.44,432.59c4.11,2.4,7.89,5.63,10.88,9.13,9.55,11.22,8.3,25.85,6.22,39.57-1.25,8.29-1.73,16.66-.91,25.01,1.52,15.71,10.3,23.27,24.44,28.02,18.39,6.16,36.12,1.61,47.74-13.95,20.89-28.02,14.13-66.01-16.04-83.59-9.1-5.29-20.41-9.79-31.5-11.21-15.05,4.59-28.74,6.94-40.82,7.02Z"/>
      <path class="st0" d="M392.93,421.66c6.3.83,15.26,5.56,20.17,7.23,13.95,4.78,21.42,13.33,26.63,26.18,3.15,7.77,6.16,15.73,11.12,22.49,9.32,12.73,21.6,14.24,36.18,11.09,18.97-4.08,31.89-17.04,33.92-36.35,3.68-34.77-21.54-63.99-56.46-63.69-9.26.08-19.69,1.55-29.04,4.93-12.1,12.67-26.36,22.11-42.53,28.13Z"/>
      <path class="st0" d="M439.94,388.59c5.98-1.69,18.02-3.21,20.92-3.77,8.74-1.67,14.57-.74,22.4,3.83,4.73,2.76,9.46,5.65,14.66,7.43,9.78,3.36,16.36.62,22.16-4.96,7.53-7.23,8.47-16.95,1.51-26.57-12.55-17.32-36.83-23.97-53.69-14.02-2.37,1.4-4.75,3.09-6.91,5-5.88,12.52-12.93,23.59-21.04,33.07Z"/>
      <path class="st0" d="M500.98,177.87c-29.57,9.16-53.78,23.52-73.41,39.66-6.31,5.18-12.14,10.56-17.5,16.01-7.61,7.67-14.3,15.47-20.14,23.11-25.97,33.79-35.91,64.26-35.91,64.26-15.73-64.45-56.37-97.45-56.37-97.45,0,0-40.66,33.01-56.37,97.45,0,0-9.94-30.51-35.94-64.31-5.86-7.64-12.53-15.44-20.13-23.09-5.36-5.44-11.19-10.82-17.5-16-19.63-16.15-43.84-30.49-73.41-39.65,0,0,28.29,47.51,27.51,80.75-.78,33.23,9.43,129.9,84.89,156.62,20.37,7.22,36.35,9.84,48.87,9.84,33.82,0,42.09-19.27,42.09-19.27,0,0,8.26,19.27,42.09,19.27,12.5,0,28.5-2.62,48.85-9.84,75.46-26.72,85.67-123.39,84.89-156.62-.78-33.23,27.51-80.75,27.51-80.75ZM469.74,246.21l-29.05,19.71c-2.91,8.21-7.14,18.7-12.35,30.21l28.98-19.66c1.38-.93,3.25-.58,4.19.8.93,1.38.58,3.25-.8,4.19l-37.32,25.32c-3.26,6.8-6.8,13.81-10.55,20.8l27.32-11.22c1.54-.63,3.3.1,3.93,1.64.63,1.54-.1,3.3-1.64,3.93l-34.24,14.06c-4.14,7.34-8.5,14.57-13.01,21.41l36.09-7.53c1.64-.33,3.23.7,3.57,2.33.34,1.63-.7,3.23-2.33,3.57l-42.2,8.81c-.37.53-.74,1.04-1.11,1.56-.18.43-.45.81-.79,1.11-6.72,9.3-13.66,17.51-20.6,23.84l27.12.1c1.66,0,3.01,1.36,3,3.02,0,1.66-1.35,3-3.01,3h-.01l-33.57-.13c-.27,0-.53-.05-.78-.12-1.7,1.2-3.39,2.28-5.07,3.21-6.34,3.5-12.22,5.82-17.62,7.27l18.75,5.54c1.59.47,2.51,2.15,2.03,3.74-.39,1.31-1.59,2.16-2.89,2.16-.28,0-.57-.04-.86-.13l-31.54-9.32s-.02,0-.04,0c-13.15,0-21.91-5.19-25.7-8.01-3.78,2.82-12.55,8.01-25.7,8.01-.03,0-.06,0-.09,0l-31.54,9.33c-.28.08-.57.13-.86.13-1.3,0-2.5-.85-2.89-2.16-.47-1.6.44-3.27,2.04-3.74l18.78-5.55c-5.39-1.45-11.26-3.77-17.59-7.26-1.69-.93-3.39-2.01-5.09-3.22-.26.08-.53.13-.82.13l-33.57.13h-.01c-1.66,0-3.01-1.34-3.01-3,0-1.66,1.34-3.02,3-3.02l27.18-.1c-6.92-6.3-13.83-14.48-20.53-23.73-.45-.35-.8-.83-.99-1.39-.33-.46-.65-.91-.97-1.37l-42.27-8.82c-1.63-.34-2.67-1.94-2.33-3.57.34-1.63,1.94-2.67,3.57-2.33l36.16,7.55c-4.5-6.84-8.86-14.06-13-21.4l-34.32-14.1c-1.54-.63-2.27-2.39-1.64-3.93s2.39-2.28,3.93-1.64l27.4,11.25c-3.75-6.98-7.29-13.98-10.54-20.77l-37.41-25.38c-1.38-.93-1.74-2.81-.8-4.19s2.81-1.74,4.19-.8l29.07,19.72c-5.2-11.51-9.44-21.99-12.35-30.21l-29.13-19.76c-1.38-.93-1.74-2.81-.8-4.19.93-1.38,2.81-1.74,4.19-.8l22.56,15.3c-10.2-27.9-41.09-58.86-41.41-59.18-1.18-1.17-1.18-3.08-.01-4.26,1.18-1.18,3.08-1.18,4.26-.01,1.15,1.15,23.68,23.72,36.91,48.39l-1.65-25.04c-.11-1.66,1.15-3.09,2.81-3.2,1.65-.11,3.09,1.15,3.2,2.81l2.77,42.02c.47,1.49,1.02,3.12,1.63,4.87,0,0,0,0,0,.01,2.3,6.55,5.55,14.79,9.56,23.97l1.43-40.24c.06-1.66,1.44-2.98,3.12-2.9,1.66.06,2.96,1.45,2.9,3.12l-1.86,52.4c.62,1.32,1.24,2.64,1.88,3.98.14.21.23.43.31.66,3.11,6.48,6.47,13.16,10.03,19.84l-2.91-40.11c-.12-1.66,1.13-3.1,2.79-3.22,1.66-.11,3.1,1.13,3.22,2.79l3.86,53.11c3.44,5.99,7.02,11.86,10.68,17.47l-3.07-42.28c-.12-1.66,1.13-3.1,2.79-3.22,1.67-.11,3.1,1.13,3.22,2.79l3.82,52.59c5.77,8.03,11.69,15.19,17.58,20.91l-3.36-46.2c-.12-1.66,1.13-3.1,2.79-3.22,1.66-.11,3.1,1.13,3.22,2.79l3.8,52.31c2.34,1.83,4.66,3.41,6.96,4.68,8.91,4.92,16.77,7.29,23.52,8.12l-14.01-24.2c-.83-1.44-.34-3.28,1.1-4.12,1.44-.83,3.28-.34,4.12,1.1l15.95,27.56c11.56-.38,18.79-5.25,21.24-7.21v-17.61s-32.52-32.71-32.52-32.71c-1.17-1.18-1.17-3.09.01-4.26,1.18-1.18,3.09-1.17,4.26.01l28.24,28.41v-21.41c-.56-.26-1.06-.67-1.38-1.25l-24.57-44.4c-.81-1.45-.28-3.29,1.18-4.09,1.46-.81,3.29-.28,4.09,1.18l20.66,37.34v-26.41s-22.39-43.71-22.39-43.71c-.76-1.48-.17-3.3,1.31-4.05,1.48-.76,3.3-.17,4.06,1.31l17.01,33.23v-21.65s-14.88-28.24-14.88-28.24c-.78-1.47-.21-3.29,1.26-4.07,1.47-.78,3.29-.21,4.07,1.26l12.56,23.83,12.56-23.83c.78-1.47,2.6-2.04,4.07-1.26,1.47.78,2.04,2.6,1.26,4.07l-14.88,28.24v21.62s17.01-33.21,17.01-33.21c.76-1.48,2.57-2.07,4.05-1.31,1.48.76,2.07,2.57,1.31,4.05l-22.36,43.68v26.39s20.64-37.29,20.64-37.29c.81-1.46,2.64-1.98,4.09-1.18,1.46.81,1.98,2.64,1.18,4.09l-24.57,44.4c-.31.57-.79.98-1.34,1.24v21.38s28.2-28.37,28.2-28.37c1.17-1.18,3.08-1.19,4.26-.01,1.18,1.17,1.19,3.08.01,4.26l-32.47,32.66v17.66c2.44,1.95,9.64,6.81,21.18,7.2l15.95-27.56c.83-1.44,2.68-1.93,4.12-1.1,1.44.83,1.93,2.68,1.1,4.12l-14.01,24.21c6.77-.83,14.65-3.19,23.59-8.13,2.28-1.26,4.58-2.82,6.9-4.63l3.8-52.36c.12-1.66,1.58-2.88,3.22-2.79,1.66.12,2.91,1.56,2.79,3.22l-3.36,46.27c5.89-5.71,11.8-12.86,17.57-20.88l3.83-52.68c.12-1.66,1.59-2.88,3.22-2.79,1.66.12,2.91,1.56,2.79,3.22l-3.08,42.38c3.66-5.6,7.24-11.46,10.68-17.45l3.86-53.23c.12-1.66,1.58-2.88,3.22-2.79,1.66.12,2.91,1.56,2.79,3.22l-2.92,40.24c3.53-6.61,6.87-13.22,9.95-19.65.1-.42.29-.81.56-1.16.59-1.23,1.17-2.46,1.74-3.68l-1.86-52.52c-.06-1.66,1.24-3.06,2.9-3.12,1.71-.08,3.06,1.24,3.12,2.9l1.43,40.37c3.9-8.93,7.09-16.97,9.38-23.44.06-.36.18-.71.36-1.03.53-1.52,1-2.94,1.42-4.27l2.78-42.26c.11-1.66,1.54-2.91,3.21-2.81,1.66.11,2.92,1.54,2.81,3.2l-1.66,25.17c13.23-24.72,35.82-47.37,36.98-48.52,1.18-1.17,3.09-1.17,4.26.01,1.17,1.18,1.17,3.09-.01,4.26-.32.32-31.17,31.24-41.39,59.12l22.47-15.25c1.38-.93,3.25-.58,4.19.8s.58,3.25-.8,4.19Z"/>
    </g>
    <path d="M507.68,172.59c-1.63-2.07-4.08-3.26-6.7-3.26-.86,0-1.71.13-2.53.38-20.91,6.49-40.71,16.01-58.91,28.33l19.37-34.88c.36-.64.64-1.36.84-2.14.81-3.31,7.5-32.86-6.36-50.49-4.33-5.51-12.55-12.07-27.19-12.07-8.92,0-19.03,2.3-30.9,7.04-1.03-8.53-2.56-16.48-4.55-23.65-9.22-33.28-26-40.26-38.44-40.26-15.84,0-33.74,11.28-54.67,34.47-20.93-23.19-38.83-34.47-54.68-34.47-12.45,0-29.22,6.98-38.44,40.26-2.44,8.8-3.8,17.51-4.53,23.65-11.88-4.73-22-7.04-30.9-7.04-14.64,0-22.87,6.56-27.19,12.07-13.88,17.63-7.19,47.18-6.38,50.5.19.77.48,1.49.83,2.13l19.37,34.87c-18.18-12.3-37.98-21.82-58.91-28.31-.81-.25-1.66-.38-2.52-.38-2.63,0-5.07,1.19-6.71,3.26-2.17,2.75-2.43,6.63-.63,9.65.27.45,27.03,45.86,26.31,76.17-.48,20.76,3.05,53.72,14.4,83.95,1.75,4.67,3.68,9.25,5.73,13.59,5.9,12.56,13.02,23.76,21.18,33.28l.08.1c.13.16.25.3.37.43,1.25,1.45,2.58,2.91,4.07,4.47,12.2,12.78,26.63,22.32,42.88,28.36.62.25,1.24.48,1.86.69,3.19,1.14,6.43,2.2,9.9,3.25,15.11,4.61,28.94,6.99,41.05,7.06.26.02.51.02.77.02,1.7,0,3.38-.05,4.98-.14,19.18-1.03,30.69-8.01,37.11-13.98,7.07,6.59,19.99,14.11,42.09,14.11,14.97,0,32.36-3.48,51.7-10.33,18.91-6.7,35.33-17.98,48.81-33.52,11.22-12.97,20.42-28.91,27.36-47.39,11.36-30.24,14.89-63.19,14.4-83.95-.71-30.31,26.04-75.72,26.31-76.18,1.79-3.03,1.53-6.9-.63-9.64ZM138.09,162.18c-.27-.49-.49-1.04-.64-1.63-.79-3.21-7.29-31.9,6.01-48.78,4.05-5.16,11.78-11.31,25.62-11.31,8.94,0,19.2,2.42,31.36,7.38l1.22.5.15-1.31c.68-6.1,2.04-15.32,4.62-24.64,8.89-32.06,24.76-38.8,36.52-38.8,15.44,0,33.08,11.33,53.94,34.63l.75.83.75-.83c20.85-23.3,38.49-34.63,53.92-34.63,11.75,0,27.63,6.73,36.52,38.8,2.06,7.43,3.62,15.72,4.64,24.64l.15,1.31,1.22-.5c12.15-4.97,22.41-7.38,31.36-7.38,13.84,0,21.57,6.15,25.62,11.31h0c13.28,16.89,6.78,45.57,5.99,48.78-.15.6-.37,1.15-.64,1.64l-21.34,38.42c-.1.07-.19.14-.29.21-1.52,1.08-3.04,2.18-4.54,3.3-.45.34-.9.68-1.36,1.02-1.37,1.04-2.73,2.09-4.08,3.16-.2.16-.4.3-.59.46l27.37-49.26.1-.25c.29-1.18,6.87-29.02-4.96-44.06-4.79-6.1-11.95-9.19-21.28-9.19-9.96,0-22.56,3.56-37.47,10.6-.26-4.56-1.35-18.72-5.23-32.73-6.3-22.73-17.08-34.74-31.19-34.74s-33.08,12.92-54.67,38.39c-21.59-25.48-39.98-38.39-54.68-38.39s-24.89,12.01-31.19,34.74c-3.88,14-4.97,28.16-5.23,32.73-14.92-7.03-27.52-10.6-37.46-10.6-9.32,0-16.48,3.09-21.27,9.19-11.83,15.04-5.26,42.89-4.98,44.07l.03.13,27.41,49.36c-1-.79-2.01-1.58-3.03-2.37-.26-.2-.53-.4-.79-.6-.9-.69-1.82-1.38-2.74-2.06-.3-.23-.61-.45-.91-.67-1.12-.82-2.24-1.63-3.38-2.43l-21.34-38.42ZM393.22,198.46c-.5-9.89-8.58-18.37-17.78-18.37s-17.27,8.48-17.76,18.37c-9.89.5-18.37,8.57-18.37,17.76s8.48,17.27,18.37,17.76c.5,9.89,8.57,18.37,17.76,18.37,3.43,0,6.69-1.19,9.48-3.17-2.12,2.69-4.18,5.42-6.19,8.18-8.96,12.35-16.81,25.34-23.37,38.66-18.74-51.36-50.97-78.06-52.35-79.19-1.53-1.25-3.39-1.91-5.38-1.91s-3.84.66-5.37,1.91c-1.38,1.11-33.47,27.4-52.36,79.19-6.55-13.31-14.41-26.31-23.36-38.66-2.01-2.77-4.08-5.5-6.2-8.19,2.79,1.99,6.06,3.18,9.48,3.18,9.19,0,17.27-8.48,17.76-18.37,9.89-.5,18.37-8.57,18.37-17.76s-8.48-17.27-18.37-17.76c-.5-9.89-8.57-18.37-17.76-18.37s-17.28,8.48-17.78,18.37c-9.89.5-18.37,8.57-18.37,17.76,0,1.64.29,3.24.79,4.78-3.28-3.06-6.62-6.02-9.99-8.83l-29.73-53.53c-.47-2.07-6.21-28.45,4.64-42.23,4.4-5.59,11.02-8.42,19.7-8.42,9.94,0,22.7,3.72,37.95,11.05l1.38.66.05-1.53c.02-.67,2.56-67.05,34.49-67.05,14.26,0,32.4,12.98,53.92,38.58l.77.91.77-.91c21.52-25.6,39.66-38.58,53.9-38.58,31.93,0,34.47,66.38,34.49,67.05l.05,1.53,1.38-.67c15.23-7.33,28.01-11.05,37.97-11.05,8.68,0,15.31,2.83,19.7,8.42,10.84,13.78,5.09,40.16,4.62,42.23l-29.75,53.55c-3.42,2.85-6.74,5.8-9.97,8.82.5-1.54.79-3.14.79-4.79,0-9.19-8.48-17.27-18.37-17.76ZM392.27,232.04c-.2,0-.4-.01-.61-.02-.04,0-.09-.01-.14-.02l-.09,1v-1.01c-.22-.02-.43-.06-.67-.12-.25-.05-.5-.12-.77-.21-.22-.06-.45-.14-.66-.23-.31-.13-.63-.29-1.03-.51-.19-.09-.37-.2-.55-.31l-.17-.11c-.18-.11-.36-.23-.53-.34-.13-.09-.27-.19-.4-.29l-.25-.19c-.12-.08-.23-.17-.37-.29-.3-.24-.58-.48-.89-.77-.36-.31-.7-.66-1.04-1.02-.52-.53-1.01-1.11-1.42-1.6-.28-.34-.57-.7-.86-1.08-.07-.09-.13-.17-.2-.26-.29-.38-.58-.78-.87-1.2-.01-.02-.03-.04-.04-.06,2.27-1.65,3.64-4.31,3.64-7.17s-1.37-5.51-3.63-7.18c.04-.06.08-.12.13-.18.38-.54.77-1.07,1.17-1.57.21-.29.43-.56.66-.83.39-.46.91-1.07,1.45-1.63.24-.26.48-.5.74-.74.61-.58,1.15-1.04,1.68-1.44.17-.13.34-.25.5-.36.24-.17.48-.32.74-.48.13-.08.28-.16.42-.24l.27-.06.18-.19c.19-.09.39-.18.59-.27l.16-.06h0s0,0,0,0h0c.19-.08.38-.14.59-.2.24-.08.48-.14.77-.2.2-.05.41-.09.72-.12.05,0,.09,0,.14-.02.2-.01.41-.02.61-.02,9.23,0,17.32,7.39,17.32,15.81s-8.25,15.81-17.32,15.81ZM398.99,232.81c-2.58,2.76-5.11,5.58-7.57,8.46,1.04-2.25,1.68-4.72,1.8-7.28,2-.1,3.94-.51,5.77-1.18ZM379.56,207.24c-.08.12-.17.24-.25.35-.11.15-.21.29-.32.44-1.12-.49-2.33-.74-3.55-.74s-2.42.25-3.54.74c-.02-.03-.05-.07-.07-.1-.06-.08-.11-.16-.17-.24-.15-.21-.29-.41-.44-.62-.07-.1-.14-.19-.22-.29-.14-.19-.29-.38-.44-.57-.08-.1-.16-.21-.24-.31-.15-.19-.3-.37-.45-.55-.09-.11-.17-.21-.26-.31-.15-.18-.31-.36-.47-.55-.09-.1-.17-.2-.26-.3-.17-.19-.35-.38-.52-.56-.08-.08-.16-.17-.24-.25-.23-.23-.46-.46-.69-.68-.03-.03-.07-.07-.1-.1-.27-.26-.55-.5-.83-.74-.07-.06-.14-.11-.21-.17-.21-.18-.42-.35-.64-.51-.1-.08-.21-.15-.31-.23-.18-.14-.37-.27-.56-.4-.12-.08-.24-.15-.35-.23-.18-.12-.36-.23-.54-.33-.12-.07-.25-.14-.38-.21-.18-.1-.37-.19-.55-.28-.13-.06-.25-.12-.38-.18-.19-.08-.38-.16-.57-.23-.13-.05-.25-.1-.38-.14-.21-.07-.42-.13-.63-.18-.11-.03-.23-.07-.34-.09-.27-.06-.54-.11-.82-.15-.06,0-.11-.02-.17-.03,0,0-.01,0-.02,0,.48-8.83,7.65-16.38,15.79-16.38s15.32,7.55,15.8,16.38c-.03,0-.05,0-.06,0-.15.02-.3.04-.44.06-.14.03-.28.05-.4.09-.04,0-.07.02-.1.02-.31.06-.6.15-.82.22-.29.08-.58.19-.87.31l-.21.09h0c-.19.09-.37.17-.54.26l-.23.12c-.28.15-.54.3-.76.44-.01,0-.03.02-.04.02,0,0,0,0-.01,0-.3.17-.58.35-.81.53-.74.5-1.51,1.13-2.41,1.98-.29.27-.56.54-.81.81-.58.6-1.13,1.24-1.54,1.73-.25.3-.49.6-.71.9-.3.38-.59.77-.89,1.18ZM382.37,216.22c0,2.5-1.35,4.8-3.53,6.01h-.02s0,.01,0,.01c-2.02,1.17-4.62,1.19-6.74,0h-.01c-2.17-1.22-3.52-3.52-3.52-6.02s1.35-4.8,3.53-6.03h0c2.09-1.18,4.69-1.17,6.76,0h0c2.18,1.23,3.53,3.54,3.53,6.03ZM359.79,200.52c.19.03.38.06.57.11.11.03.23.07.34.1.17.05.34.1.51.16.12.04.24.09.35.14.16.07.32.13.48.21.12.06.24.12.36.18.16.08.31.16.46.25.12.07.24.14.35.21.15.09.3.19.45.29.12.08.23.16.35.24.15.11.3.22.45.33.11.09.22.17.33.26.15.12.29.24.44.37.11.09.21.19.32.28.15.13.29.26.43.4.1.1.2.19.31.29.14.14.29.29.43.43.1.1.19.2.29.3.14.15.29.31.43.47.09.1.18.2.26.29.15.17.29.34.43.51.08.09.15.18.23.27.15.18.29.37.44.55.07.08.13.17.2.25.16.21.32.42.48.64.04.06.09.11.13.17.19.27.38.53.57.8-2.27,1.67-3.63,4.33-3.63,7.18s1.37,5.52,3.63,7.17c-.18.26-.37.52-.56.79-.07.1-.15.19-.22.29-.13.17-.25.34-.39.52-.09.11-.17.22-.26.33-.12.16-.25.31-.37.47-.09.11-.19.23-.28.34-.13.15-.25.3-.38.45-.1.11-.2.23-.3.34-.13.14-.26.29-.39.43-.11.11-.21.22-.32.33-.13.13-.26.27-.39.4-.11.11-.22.22-.33.32-.13.13-.27.25-.4.38-.11.1-.23.2-.34.3-.14.12-.28.24-.42.35-.12.09-.23.19-.35.28-.14.11-.29.22-.43.32-.12.09-.24.17-.36.25-.15.1-.29.19-.44.28-.12.08-.24.15-.36.22-.15.09-.31.17-.46.25-.12.06-.24.13-.36.18-.16.07-.32.14-.48.21-.12.05-.24.1-.36.14-.17.06-.34.11-.51.16-.11.03-.23.07-.34.1-.19.05-.38.08-.57.11-.1.02-.19.04-.29.05-.29.04-.58.06-.87.06-9.06,0-17.32-7.54-17.32-15.81s8.09-15.81,17.32-15.81c.29,0,.58.02.87.06.1.01.19.04.29.05ZM359.68,233.97c.06,0,.12-.02.18-.03.27-.04.55-.08.81-.15.11-.03.23-.06.34-.09.21-.06.42-.12.63-.19.13-.04.25-.09.38-.14.19-.07.38-.15.57-.23.13-.06.26-.12.38-.18.18-.09.37-.18.55-.28.13-.07.25-.14.38-.21.18-.11.36-.22.54-.33.12-.08.24-.15.36-.24.18-.12.36-.25.54-.39.11-.08.22-.16.33-.24.2-.16.4-.32.6-.48.08-.07.16-.13.25-.2.28-.24.55-.48.81-.73.06-.06.13-.13.19-.19.2-.19.4-.39.6-.59.1-.1.19-.21.29-.31.16-.17.32-.33.47-.51.1-.11.2-.23.31-.35.14-.16.29-.33.43-.49.1-.12.2-.24.3-.36.14-.17.27-.33.4-.5.1-.12.19-.24.28-.36.13-.17.26-.35.39-.52.09-.12.17-.23.26-.34.14-.19.27-.37.4-.56.07-.1.14-.2.21-.3.02-.03.04-.06.06-.09,2.25.99,4.89.97,7.08,0,.02.03.04.05.06.08.33.48.66.92.97,1.35.06.08.12.16.18.24.32.43.64.83.96,1.21.44.52.96,1.13,1.52,1.71.38.4.76.78,1.13,1.1.32.3.64.58.94.82.15.13.29.25.45.36.08.07.16.13.25.19.15.12.3.23.46.33.18.13.37.25.56.37l.13.08c.27.17.54.34.77.44.4.23.79.42,1.16.57.28.12.59.23.85.3.31.1.63.19.92.25.28.07.58.12.83.15.03,0,.07.01.1.01-.48,8.83-7.66,16.38-15.8,16.38s-15.29-7.69-15.78-16.38c0,0,.01,0,.02,0ZM203.85,231.98h-.1s-.09.02-.14.03c-.2.01-.41.02-.61.02-9.06,0-17.32-7.54-17.32-15.81s8.09-15.81,17.32-15.81c.2,0,.41.01.61.02.05,0,.12.02.24.03.21.02.43.06.67.12.25.05.5.12.77.21.2.06.39.13.54.18l.18.08c.22.09.43.18.63.29l.2.19h.15l.07.04c.14.08.29.16.43.25.25.15.49.31.74.49.66.44,1.34,1.01,2.17,1.78.26.24.5.49.75.75.53.55,1.05,1.15,1.44,1.62.23.27.44.54.67.85.39.49.77,1.01,1.15,1.55.04.06.09.13.13.19-2.26,1.67-3.63,4.33-3.63,7.18s1.37,5.52,3.64,7.17c0,.01-.02.02-.03.04-.31.44-.6.84-.89,1.23-.06.09-.13.17-.19.25-.29.38-.57.74-.85,1.08-.44.52-.92,1.08-1.43,1.61-.34.36-.68.7-1.07,1.04-.28.27-.56.51-.89.78-.11.09-.21.18-.33.26l-.25.19c-.13.11-.27.2-.4.29-.17.12-.34.24-.53.35l-.18.11c-.18.11-.36.22-.6.34-.33.19-.65.35-.98.48-.2.09-.43.16-.68.24-.24.08-.48.14-.77.2-.2.05-.41.09-.63.11ZM203.85,241.27c-2.47-2.88-4.99-5.7-7.57-8.46,1.83.67,3.76,1.07,5.77,1.17.13,2.57.77,5.03,1.81,7.29ZM228.74,216.22c0-2.85-1.37-5.51-3.63-7.18.18-.27.38-.53.57-.8.03-.05.07-.09.1-.14.16-.22.33-.44.5-.66.07-.09.14-.18.21-.27.14-.18.28-.36.43-.53.08-.1.17-.2.25-.3.14-.16.27-.32.41-.48.09-.11.19-.21.28-.32.13-.15.27-.3.41-.45.1-.11.2-.21.3-.32.13-.14.27-.28.41-.41.11-.1.21-.21.32-.31.14-.13.28-.26.42-.39.11-.1.22-.2.33-.29.14-.12.28-.24.43-.36.11-.09.23-.18.34-.27.14-.11.29-.22.44-.32.12-.08.23-.17.35-.25.15-.1.3-.19.45-.29.12-.07.24-.15.36-.22.15-.09.31-.17.46-.25.12-.06.24-.13.36-.18.16-.07.32-.14.48-.21.12-.05.24-.1.36-.14.17-.06.34-.11.51-.16.11-.03.23-.07.34-.1.19-.05.38-.08.57-.11.1-.02.19-.04.29-.05.29-.04.58-.06.87-.06,9.23,0,17.32,7.39,17.32,15.81s-8.25,15.81-17.32,15.81c-.29,0-.58-.02-.87-.06-.1-.01-.19-.04-.28-.05-.19-.03-.39-.06-.58-.11-.11-.03-.22-.07-.34-.1-.17-.05-.34-.1-.51-.16-.12-.04-.24-.09-.35-.14-.16-.07-.32-.13-.48-.21-.12-.06-.24-.12-.36-.18-.16-.08-.31-.16-.46-.25-.12-.07-.24-.14-.36-.22-.15-.09-.3-.19-.45-.29-.12-.08-.24-.16-.35-.25-.15-.11-.29-.21-.44-.32-.12-.09-.23-.18-.34-.27-.14-.12-.28-.23-.42-.36-.11-.1-.22-.19-.33-.29-.14-.13-.28-.25-.41-.39-.11-.1-.22-.21-.32-.31-.14-.13-.27-.27-.4-.41-.1-.11-.21-.22-.31-.33-.13-.14-.26-.29-.39-.43-.1-.11-.2-.22-.29-.33-.13-.15-.26-.31-.39-.46-.09-.11-.18-.22-.27-.33-.13-.16-.26-.33-.39-.49-.08-.1-.16-.21-.24-.31-.14-.18-.27-.36-.41-.54-.07-.09-.13-.18-.2-.26-.19-.26-.38-.53-.56-.79,2.26-1.65,3.63-4.31,3.63-7.17ZM223.21,222.23h0c-2.12,1.2-4.72,1.18-6.74.01h-.02s0-.01,0-.01c-2.18-1.21-3.53-3.51-3.53-6.01s1.35-4.8,3.53-6.03h0c2.07-1.17,4.68-1.18,6.77,0h0c2.18,1.23,3.53,3.54,3.53,6.03s-1.35,4.8-3.52,6.01ZM235.6,198.48c-.06,0-.11.02-.17.03-.28.04-.55.08-.82.15-.11.03-.23.06-.34.09-.21.06-.42.11-.63.19-.13.04-.25.09-.38.14-.19.07-.39.15-.58.23-.13.06-.25.12-.38.18-.19.09-.37.18-.55.28-.12.07-.25.14-.37.21-.18.11-.37.22-.55.34-.12.07-.23.15-.35.23-.19.13-.38.26-.56.4-.1.08-.21.15-.31.23-.21.16-.43.34-.63.51-.07.06-.14.11-.21.17-.28.24-.55.49-.82.74-.04.04-.08.08-.12.12-.23.22-.45.44-.67.66-.09.09-.17.18-.26.27-.17.18-.34.36-.51.54-.09.1-.19.21-.28.32-.15.17-.3.35-.45.52-.09.11-.19.22-.28.34-.14.17-.28.35-.42.52-.09.12-.18.23-.27.35-.14.18-.27.35-.4.53-.08.11-.17.22-.25.33-.14.19-.27.37-.4.56-.07.1-.15.2-.22.31-.02.03-.04.06-.06.09-1.12-.49-2.3-.74-3.54-.74s-2.43.25-3.55.74c-.1-.15-.21-.29-.32-.44-.08-.11-.16-.23-.24-.34-.29-.4-.59-.8-.88-1.17-.24-.32-.47-.62-.73-.92-.41-.49-.96-1.13-1.53-1.71-.27-.29-.54-.55-.83-.83-.68-.64-1.28-1.15-1.84-1.57-.19-.14-.38-.28-.56-.4,0,0,0,0-.01,0-.27-.2-.55-.39-.8-.53,0,0,0,0,0,0,0,0,0,0,0,0-.16-.1-.33-.19-.5-.29l-.52-.3h-.04c-.18-.09-.38-.18-.59-.27l-.19-.08c-.29-.12-.58-.22-.83-.3-.29-.1-.64-.21-.92-.25-.28-.07-.58-.12-.83-.15-.03,0-.07-.01-.1-.01.48-8.83,7.66-16.38,15.8-16.38s15.31,7.55,15.79,16.38c0,0-.01,0-.02,0ZM204.08,233.97c.3-.03.6-.09.84-.15.32-.07.65-.15.92-.25.3-.09.61-.19.87-.31.38-.16.78-.35,1.11-.55.29-.14.57-.31.84-.48l.14-.09c.19-.11.37-.24.55-.36.15-.11.3-.21.46-.33.09-.06.18-.12.25-.19.16-.11.3-.23.42-.33.34-.27.66-.55.95-.83.35-.31.71-.66,1.16-1.12.55-.57,1.06-1.16,1.53-1.72.31-.38.63-.78.95-1.2.06-.08.12-.16.19-.25.31-.42.63-.86.96-1.33.02-.03.05-.06.07-.1,2.19.97,4.83.99,7.08,0,.02.03.04.06.06.09.07.1.14.2.21.29.13.19.27.38.41.57.08.11.16.22.24.33.13.18.27.36.4.53.09.12.18.23.27.35.14.17.27.34.41.51.1.12.19.23.29.35.14.17.29.34.44.51.1.11.19.22.29.33.16.18.33.35.49.53.09.1.18.19.27.29.21.22.42.43.64.63.05.05.1.1.15.15.27.25.54.5.82.74.07.06.15.12.22.18.21.17.41.34.62.5.1.08.21.15.31.23.18.14.37.27.56.4.12.08.24.15.35.23.18.12.36.23.54.33.12.07.25.14.37.21.18.1.37.19.55.28.13.06.25.12.38.18.19.08.38.16.57.23.13.05.25.1.38.14.21.07.42.13.63.18.11.03.23.07.34.09.27.06.54.11.81.15.06,0,.12.02.18.03,0,0,.01,0,.02,0-.5,8.69-7.8,16.38-15.78,16.38s-15.32-7.55-15.8-16.38c.03,0,.05,0,.05,0ZM506.6,181.21c-.27.46-27.32,46.36-26.6,77.25.48,20.57-3.02,53.23-14.28,83.2-6.85,18.26-15.93,34-27,46.79-13.25,15.28-29.38,26.36-47.96,32.94-19.13,6.78-36.3,10.22-51.04,10.22-22.18,0-34.75-7.73-41.39-14.21l-.71-.67-.7.68c-6.01,5.84-17.23,13.03-36.51,14.06-1.57.09-3.21.13-4.87.13-.21,0-.42,0-.7-.02-11.98-.07-25.62-2.42-40.54-6.98-3.44-1.04-6.65-2.1-9.82-3.23-.6-.21-1.19-.42-1.8-.67-15.98-5.94-30.16-15.32-42.15-27.88-1.47-1.53-2.78-2.97-4.02-4.41-.11-.12-.22-.25-.33-.38l-.09-.11c-8.05-9.39-15.08-20.44-20.9-32.84-2.03-4.29-3.93-8.81-5.66-13.44-11.26-29.97-14.76-62.63-14.28-83.2.73-30.89-26.32-76.79-26.59-77.24-1.38-2.31-1.18-5.27.48-7.38,1.25-1.59,3.12-2.5,5.14-2.5.66,0,1.31.1,1.93.29,22.09,6.85,42.91,17.11,61.88,30.47,3.93,2.77,7.75,5.64,11.38,8.56,1.21.97,2.4,1.95,3.57,2.93l.02.02c5.13,4.25,10.18,8.84,14.98,13.6.56.64,1.17,1.23,1.81,1.8,8.98,9.06,17.41,18.99,25.07,29.53,9.37,12.91,17.52,26.54,24.22,40.49l1.04,2.17.8-2.27c18.58-52.74,51.15-79.43,52.53-80.54,1.17-.96,2.6-1.46,4.11-1.46s2.94.51,4.11,1.46c1.38,1.13,34.11,28.25,52.53,80.54l.8,2.27,1.04-2.17c6.71-13.95,14.86-27.57,24.22-40.49,7.6-10.5,16.05-20.45,25.07-29.54.29-.25.56-.52.84-.78.09-.09.18-.18.26-.27.22-.23.45-.45.66-.69,4.73-4.7,9.78-9.29,15.02-13.65,1.2-1,2.41-2,3.64-2.98,3.68-2.95,7.48-5.8,11.33-8.51h.02c18.99-13.39,39.8-23.65,61.85-30.49.62-.19,1.27-.29,1.94-.29,2.01,0,3.88.91,5.13,2.5h0c1.66,2.1,1.85,5.06.48,7.38ZM315.4,147.25c-.5-9.89-8.57-18.37-17.76-18.37s-17.28,8.48-17.78,18.37c-9.89.5-18.37,8.57-18.37,17.76s8.48,17.27,18.37,17.76c.5,9.89,8.58,18.37,17.78,18.37s17.27-8.48,17.76-18.37c9.89-.5,18.37-8.57,18.37-17.76s-8.48-17.27-18.37-17.76ZM297.64,130.89c8.14,0,15.31,7.55,15.79,16.38,0,0-.01,0-.02,0-.06,0-.11.02-.16.03-.28.04-.55.09-.82.15-.11.03-.23.06-.34.09-.21.06-.42.11-.63.18-.13.04-.25.09-.38.14-.19.07-.38.15-.57.23-.13.06-.26.12-.39.18-.18.09-.37.18-.55.28-.13.07-.25.14-.38.21-.18.11-.36.22-.54.33-.12.08-.24.15-.36.23-.19.13-.37.26-.55.39-.11.08-.21.15-.32.23-.21.16-.41.33-.62.5-.07.06-.15.12-.22.18-.28.24-.55.48-.82.74-.05.04-.09.09-.13.13-.22.21-.44.43-.66.65-.09.09-.17.18-.25.27-.17.18-.34.36-.51.55-.09.1-.18.21-.28.31-.15.18-.31.35-.46.53-.09.11-.18.22-.27.33-.15.18-.29.36-.44.54-.08.11-.17.21-.25.32-.15.19-.29.38-.43.57-.07.1-.15.2-.22.3-.15.21-.3.41-.44.61-.06.08-.12.16-.17.24-.02.03-.05.07-.07.1-1.12-.49-2.3-.74-3.54-.74s-2.43.25-3.55.74c-.1-.15-.21-.29-.31-.44-.08-.12-.16-.23-.24-.34-.29-.4-.59-.8-.88-1.17-.24-.32-.47-.62-.73-.92-.41-.49-.96-1.13-1.53-1.71-.27-.29-.54-.56-.83-.83-.68-.64-1.28-1.15-1.84-1.57-.19-.14-.38-.28-.56-.4,0,0,0,0-.01,0-.27-.21-.55-.39-.81-.53,0,0,0,0,0,0,0,0,0,0,0,0-.16-.1-.33-.19-.49-.29l-.52-.3h-.04c-.18-.09-.37-.18-.58-.26l-.19-.08c-.29-.12-.58-.22-.83-.29-.29-.1-.64-.21-.92-.25-.28-.07-.58-.12-.83-.15-.03,0-.07-.01-.1-.01.48-8.83,7.66-16.38,15.8-16.38ZM304.55,165.02c0,2.5-1.35,4.8-3.52,6.01h0c-2.12,1.2-4.72,1.18-6.74.01h-.02s0-.01,0-.01c-2.18-1.21-3.53-3.51-3.53-6.01s1.35-4.8,3.53-6.03h0c2.08-1.18,4.68-1.19,6.77,0h0c2.17,1.23,3.53,3.54,3.53,6.03ZM281.42,180.81c-.2.01-.41.02-.61.02-9.06,0-17.32-7.54-17.32-15.81s8.09-15.81,17.32-15.81c.2,0,.41.01.61.02.05,0,.12.02.24.03.21.02.43.06.67.12.25.05.5.12.77.21.19.06.38.12.53.18l.19.08c.22.09.43.18.63.28l.2.19h.15l.07.04c.14.08.28.16.43.25.25.15.49.31.74.49.66.45,1.35,1.01,2.17,1.78.26.24.5.49.75.75.53.55,1.05,1.15,1.44,1.62.23.27.44.54.67.85.39.49.77,1.02,1.15,1.55.04.06.08.12.13.18-2.26,1.67-3.63,4.33-3.63,7.18s1.37,5.52,3.64,7.17c0,.01-.02.03-.03.04-.3.43-.6.84-.89,1.22-.07.09-.13.17-.2.26-.28.37-.55.72-.82,1.04,0,.01-.02.02-.03.04-.44.52-.92,1.08-1.43,1.61-.34.36-.68.7-1.07,1.04-.28.27-.56.51-.9.78-.11.09-.21.18-.33.26l-.25.19c-.13.1-.26.2-.4.29-.17.12-.34.24-.53.35l-.18.11c-.18.11-.36.22-.6.34-.33.19-.65.35-.98.48-.2.09-.43.16-.68.24-.24.08-.48.14-.77.2-.2.05-.42.09-.72.12-.05,0-.1,0-.14.02ZM297.64,199.15c-8.14,0-15.32-7.55-15.8-16.38.02,0,.04,0,.06,0,.3-.04.6-.09.84-.15.32-.07.65-.15.92-.25.3-.09.61-.19.87-.31.38-.16.78-.36,1.11-.55.29-.14.57-.31.84-.48l.13-.08c.19-.12.38-.24.57-.38.15-.1.3-.21.44-.32.09-.06.18-.12.26-.19.16-.11.3-.23.42-.33.34-.27.66-.55.95-.82.35-.31.71-.65,1.16-1.12.56-.57,1.08-1.19,1.53-1.72.31-.38.63-.78.95-1.21.06-.08.12-.16.18-.24.32-.42.64-.87.97-1.34.02-.03.04-.05.06-.08,2.19.97,4.82.99,7.08,0,.02.03.04.06.06.08.07.11.15.21.23.32.13.18.25.36.38.54.09.12.18.24.26.36.13.17.25.34.38.51.1.12.19.25.29.37.13.17.26.33.4.49.1.12.2.25.3.37.14.16.28.33.42.49.1.12.2.23.31.35.15.17.31.34.47.5.1.1.19.21.29.31.2.2.4.4.6.59.06.06.13.13.19.19.27.25.54.5.81.73.08.07.16.13.24.2.2.17.4.33.6.49.11.08.22.16.33.24.18.13.36.26.54.39.12.08.24.16.36.23.18.11.36.23.54.33.13.07.25.14.38.21.18.1.37.19.55.28.13.06.26.12.38.18.19.08.38.16.57.23.13.05.25.1.38.14.21.07.42.13.63.19.11.03.23.07.34.09.27.06.54.11.81.15.06,0,.12.02.18.03,0,0,.01,0,.02,0-.5,8.69-7.8,16.38-15.78,16.38ZM314.45,180.83c-.29,0-.58-.02-.87-.06-.1-.01-.19-.04-.29-.05-.19-.03-.38-.06-.57-.11-.11-.03-.23-.07-.34-.1-.17-.05-.34-.1-.51-.16-.12-.04-.24-.1-.36-.14-.16-.07-.32-.13-.48-.21-.12-.06-.24-.12-.36-.18-.15-.08-.31-.16-.46-.25-.12-.07-.24-.15-.36-.22-.15-.09-.3-.19-.44-.28-.12-.08-.24-.17-.36-.25-.14-.1-.29-.21-.43-.32-.12-.09-.23-.18-.35-.28-.14-.11-.28-.23-.42-.35-.11-.1-.23-.2-.34-.3-.14-.12-.27-.25-.41-.38-.11-.1-.22-.21-.33-.31-.14-.14-.27-.27-.41-.41-.1-.11-.2-.21-.31-.32-.14-.15-.27-.3-.41-.45-.09-.1-.19-.21-.28-.31-.14-.16-.28-.33-.41-.49-.08-.1-.16-.19-.24-.29-.15-.19-.3-.37-.44-.56-.06-.08-.13-.16-.19-.24-.19-.25-.38-.5-.56-.75-.01-.02-.02-.03-.04-.05-.2-.27-.39-.54-.57-.81,2.27-1.65,3.63-4.31,3.63-7.17s-1.37-5.51-3.63-7.18c.18-.26.37-.53.57-.79.05-.06.09-.12.14-.19.15-.21.31-.41.47-.62.06-.08.13-.17.2-.25.14-.18.29-.37.44-.55.08-.09.16-.19.24-.28.14-.17.28-.34.42-.5.09-.1.18-.2.27-.3.14-.16.28-.31.42-.46.1-.1.19-.2.29-.3.14-.15.28-.29.42-.43.1-.1.2-.2.31-.3.14-.14.29-.27.43-.4.11-.1.21-.19.32-.28.14-.12.29-.25.44-.37.11-.09.22-.18.33-.26.15-.11.3-.22.45-.33.11-.08.23-.16.34-.24.15-.1.3-.2.45-.29.12-.07.23-.15.35-.21.15-.09.31-.17.47-.25.12-.06.24-.12.36-.18.16-.08.32-.14.48-.21.12-.05.24-.1.35-.14.17-.06.34-.11.51-.16.11-.03.22-.07.34-.1.19-.05.38-.08.57-.11.1-.02.19-.04.29-.05.29-.04.58-.06.87-.06,9.23,0,17.32,7.39,17.32,15.81s-8.25,15.81-17.32,15.81ZM426.93,216.76c-6.08,4.99-12,10.4-17.58,16.08-7.16,7.22-13.97,15.03-20.22,23.2-21.02,27.35-31.68,52.83-34.95,61.46-16.17-61.97-55.51-94.49-55.91-94.82l-.63-.51-.63.51c-.4.33-39.76,32.85-55.91,94.81-3.27-8.64-13.94-34.14-34.98-61.5-6.33-8.25-13.13-16.05-20.21-23.19-5.62-5.69-11.53-11.1-17.58-16.07-21.98-18.08-46.79-31.48-73.75-39.83l-2.49-.77,1.33,2.24c.28.47,28.13,47.65,27.37,80.21-.47,20.04,2.94,51.88,13.92,81.13,14.68,39.1,38.78,64.83,71.64,76.46,18.53,6.57,35.09,9.9,49.2,9.9,28.47,0,39.14-13.3,42.09-18.15,2.94,4.86,13.61,18.15,42.09,18.15,14.12,0,30.67-3.33,49.19-9.9,32.85-11.63,56.96-37.36,71.64-76.46,10.98-29.25,14.39-61.08,13.92-81.13-.77-32.56,27.09-79.74,27.37-80.21l1.33-2.24-2.49.77c-26.94,8.34-51.75,21.75-73.75,39.85ZM486.01,205.38c-6.4,14.72-13.95,35.91-13.54,53.26.47,19.86-2.91,51.4-13.79,80.38-14.46,38.52-38.16,63.85-70.43,75.28-18.3,6.49-34.63,9.78-48.52,9.78-17.12,0-27.4-5.08-33.01-9.34-6.07-4.61-8.14-9.27-8.16-9.32l-.91-2.13-.92,2.13s-2.1,4.71-8.16,9.32c-5.62,4.26-15.9,9.34-33.01,9.34-13.89,0-30.22-3.29-48.53-9.78-32.27-11.43-55.97-36.76-70.43-75.28-10.88-28.98-14.26-60.52-13.79-80.38.41-17.35-7.14-38.54-13.54-53.26-5.17-11.88-10.45-21.59-12.82-25.78,25.77,8.32,49.52,21.33,70.63,38.69,6,4.92,11.86,10.28,17.43,15.93,7.02,7.08,13.76,14.81,20.04,23,25.58,33.26,35.69,63.71,35.79,64.01l1.09,3.34.83-3.41c14.38-58.98,50.2-91.86,55.4-96.38,5.2,4.52,41.01,37.4,55.4,96.38l.83,3.41,1.09-3.34c.1-.3,10.2-30.72,35.76-63.97,6.21-8.11,12.96-15.85,20.06-23.02,5.54-5.63,11.4-10.99,17.43-15.94,21.13-17.38,44.88-30.4,70.63-38.71-2.37,4.2-7.65,13.9-12.82,25.78Z"/>
  </g>
</svg>