<?xml version="1.0" encoding="UTF-8"?>
<svg xmlns="http://www.w3.org/2000/svg" version="1.1" viewBox="0 0 393.67 585.37">
  <!-- Generator: Adobe Illustrator 30.5.1, SVG Export Plug-In . SVG Version: 2.1.4 Build 3)  -->
  <defs>
    <style>
      .st0 {
        fill: #fff;
      }
    </style>
  </defs>
  <g id="bk">
    <g>
      <circle class="st0" cx="79.39" cy="552.96" r="7.45" transform="translate(-367.75 218.1) rotate(-45)"/>
      <path class="st0" d="M176.44,9.66c2.49-1.3,5.62-1.27,8.33-.89,2.16.3,4.01,1.6,5.58,3.41.29-6.83,3.07-12.18,6.49-12.18s6.19,5.35,6.48,12.18c1.57-1.81,3.41-3.12,5.58-3.41,2.72-.38,5.84-.41,8.34.89,2.63,1.37,5.96,6.21,2.46,8.49-.68.43-1.47.67-2.26.84-3.01.67-5.33.65-8.19,1.89-2.99,1.28-4.98,4-7.1,6.34-.24.28-1.1,1.34-1.87,2.28-.84,1.05-2.1,1.65-3.43,1.65s-2.61-.6-3.45-1.65c-.76-.94-1.62-2-1.87-2.28-2.11-2.34-4.11-5.06-7.1-6.34-2.86-1.24-5.18-1.22-8.19-1.89-.78-.17-1.58-.4-2.26-.84-3.5-2.28-.17-7.12,2.47-8.49Z"/>
      <path class="st0" d="M314.29,545.51c4.11,0,7.45,3.34,7.45,7.45s-3.34,7.45-7.45,7.45-7.45-3.34-7.45-7.45,3.33-7.45,7.45-7.45Z"/>
      <path class="st0" d="M333.97,577.92c0,4.12-3.34,7.45-7.45,7.45s-7.45-3.33-7.45-7.45,3.34-7.45,7.45-7.45,7.45,3.34,7.45,7.45Z"/>
      <circle class="st0" cx="345.98" cy="547.57" r="7.45" transform="translate(-285.85 405.02) rotate(-45)"/>
      <path class="st0" d="M378.59,458.07c1.83,1.54,3.16,3.37,3.49,5.52.42,2.71.5,5.83-.75,8.34-1.27,2.52-5.64,5.69-8.09,3.07.23,2.57.13,5.16-.33,7.66-.17.98-.43,1.99-1.07,2.77-.83.98-2.14,1.39-3.42,1.44-1.34.07-2.73-.22-3.72-1.12-1.05-.94-1.46-2.39-1.65-3.76-.69-4.88-1.73-9.74-3.16-14.46-.7-2.33-1.49-4.69-2.61-6.85-.06-.11-.15-.25-.29-.45.03.23.04.46.04.68,0,2.69-1.55,5.37-4.43,6.49,1.18,1.35,1.72,2.95,1.72,4.53,0,3.16-2.17,6.19-5.7,6.83,2.7,4.63-.65,10.41-5.97,10.41h-.1c1.63,4.59-1.89,9.21-6.48,9.21-.48,0-.95-.04-1.44-.15.66,4.37-2.81,7.94-6.83,7.94-.87,0-1.77-.17-2.66-.54-.17,3.94-3.43,6.65-6.94,6.65-1.27,0-2.59-.37-3.79-1.17-.78,3.35-3.73,5.32-6.75,5.32-1.7,0-3.42-.61-4.8-1.97-1.21,2.67-3.76,4.08-6.32,4.08-2.14,0-4.29-.99-5.68-2.98-1.39,1.97-3.52,2.93-5.64,2.93-2.58,0-5.15-1.42-6.34-4.12-1.39,1.34-3.08,1.94-4.77,1.94-3.04,0-5.99-1.99-6.77-5.37-1.2.77-2.48,1.12-3.74,1.12-3.52,0-6.79-2.73-6.93-6.69-4.98,2.02-10.27-2.17-9.43-7.47-4.45.88-8.27-2.63-8.27-6.77,0-.77.14-1.57.42-2.36-4.07.02-6.96-3.31-6.96-6.93,0-1.19.3-2.39.98-3.53-3.51-.65-5.65-3.69-5.65-6.83,0-1.58.55-3.2,1.76-4.56-2.85-1.12-4.38-3.78-4.38-6.46,0-2.02.87-4.06,2.7-5.47-.85-.54-1.54-1.23-2.06-2-3.81,1.86-11.97,7.01-16.7,18.53,2.57,1.14,4.11,2.65,4.11,4.31,0,2.19-2.69,4.12-6.84,5.31-.02.1-.03.2-.04.3h0c1.24,4.92,18.96,72.59,50.92,77.82-4.3-5.19-6.15-11.74-4.95-18.6,1.92-10.85,9.04-17.51,18.54-17.31,3.74.06,7.27,1.46,9.67,3.85,2.72,2.69,3.75,6.29,4.13,8.8,1.27,8.53-.63,16.62-5.09,21.6-1.79,2.01-3.74,3.31-5.78,4.12-2.04.83-4.18,1.18-6.33,1.31,24.12,12.04,41.14,14.89,62.51-5.02.7-.66,1.79-.6,2.44.1.65.69.61,1.78-.08,2.43-12.21,11.38-23.35,15.44-33.94,15.44s-21.42-4.39-31.84-9.54c-1.98-.99-3.79-2.13-5.4-3.4h-.63c-30.25-.75-48.5-50.25-54.97-71.55t-.01-.02c-.07,21.4,7.99,41.89,18.07,60.45,3.17,5.87,11.67,15.84,5.32,22.47-2.23,2.33-5.54,2.62-8.54,1.91-7.44-1.76-11.77-6.97-13.37-14.32-1.77-8.13-3.03-16.53-4.2-24.89,1.45,17.89,2.67,34.1,2.75,38.11.19,9.89-8.69,8.62-8.69,8.62,0,0-8.89,1.27-8.7-8.62.07-3.98,1.28-20.06,2.71-37.85-1.14,8.28-2.42,16.58-4.17,24.63-1.6,7.35-5.94,12.56-13.37,14.32-2.99.71-6.31.42-8.54-1.91-6.35-6.64,2.14-16.6,5.32-22.47,10.07-18.55,18.14-39.05,18.06-60.43-6.47,21.3-24.71,70.8-54.97,71.54h-.61c-1.61,1.28-3.41,2.43-5.41,3.41-10.42,5.15-20.84,9.54-31.83,9.54s-21.73-4.06-33.95-15.44c-.7-.65-.73-1.74-.07-2.43.65-.7,1.74-.75,2.44-.1,11.06,10.3,20.94,14.51,31.24,14.51,9.62,0,19.62-3.67,31.27-9.49-4.32-.27-8.53-1.42-12.12-5.44-4.45-4.98-6.35-13.07-5.08-21.6.38-2.51,1.4-6.11,4.12-8.8,2.41-2.39,5.94-3.78,9.68-3.85,9.49-.2,16.61,6.46,18.53,17.31,1.2,6.86-.64,13.41-4.95,18.6,31.97-5.23,49.68-72.9,50.93-77.8-.02-.1-.04-.2-.06-.31-4.13-1.19-6.83-3.12-6.83-5.31,0-1.65,1.54-3.16,4.1-4.3-4.72-11.52-12.88-16.67-16.68-18.54-.52.77-1.21,1.46-2.06,2,1.84,1.41,2.71,3.45,2.71,5.47,0,2.67-1.53,5.33-4.38,6.46,1.21,1.36,1.76,2.98,1.76,4.56,0,3.14-2.15,6.18-5.65,6.83.68,1.14.98,2.34.98,3.53,0,3.63-2.89,6.95-6.96,6.93.29.8.42,1.59.42,2.36,0,4.14-3.82,7.65-8.28,6.77.85,5.3-4.44,9.5-9.43,7.47-.14,3.95-3.41,6.69-6.92,6.69-1.26,0-2.55-.35-3.75-1.12-.77,3.38-3.73,5.37-6.76,5.37-1.69,0-3.39-.6-4.77-1.94-1.2,2.7-3.77,4.12-6.34,4.12-2.13,0-4.25-.95-5.65-2.93-1.39,1.99-3.53,2.98-5.67,2.98-2.57,0-5.11-1.41-6.32-4.08-1.38,1.36-3.11,1.97-4.8,1.97-3.02,0-5.97-1.97-6.76-5.32-1.21.8-2.51,1.17-3.79,1.17-3.5,0-6.76-2.7-6.93-6.65-.9.37-1.79.54-2.67.54-4.01,0-7.47-3.57-6.83-7.94-.48.11-.96.15-1.43.15-4.6,0-8.11-4.62-6.49-9.21h-.08c-5.32,0-8.68-5.78-5.98-10.41-3.53-.64-5.7-3.67-5.7-6.83,0-1.58.54-3.18,1.73-4.53-2.88-1.11-4.43-3.79-4.43-6.49,0-.22.01-.45.04-.68-.14.19-.23.34-.29.45-1.11,2.16-1.91,4.52-2.61,6.85-1.44,4.72-2.47,9.58-3.16,14.46-.2,1.38-.61,2.82-1.65,3.76-1,.9-2.4,1.2-3.73,1.12-1.27-.05-2.6-.47-3.42-1.44-.63-.77-.89-1.79-1.06-2.77-.47-2.5-.57-5.1-.34-7.66-2.45,2.62-6.82-.55-8.08-3.07-1.25-2.51-1.19-5.63-.76-8.34.34-2.15,1.66-3.99,3.5-5.52-6.83-.38-12.14-3.25-12.08-6.67.04-3.4,5.44-6.12,12.26-6.31.14.12.28.23.42.34-.15-.12-.29-.23-.42-.35-1.79-1.59-3.06-3.46-3.33-5.62-.34-2.71-.33-5.84,1-8.32,1.34-2.48,5.8-5.53,8.16-2.84-.16-2.57.02-5.16.55-7.65.19-.96.5-1.98,1.14-2.72.86-.95,2.18-1.34,3.47-1.36,1.33-.02,2.73.31,3.7,1.24,1.01.96,1.39,2.42,1.54,3.81.55,4.9,1.45,9.81,2.75,14.54.64,2.36,1.36,4.73,2.42,6.92.15.32.7,1.03,1.28,1.79.52-.55,1.17-1.04,1.9-1.41-1.51-1.41-2.22-3.24-2.22-5.05,0-2.92,1.82-5.75,5-6.67-.91-1.26-1.34-2.68-1.34-4.06,0-3.37,2.5-6.57,6.31-6.91-.47-.98-.68-1.99-.68-2.97,0-3.87,3.34-7.3,7.61-6.87-.15-.59-.21-1.19-.21-1.75,0-4.44,4.32-7.96,8.89-6.59-.01-.15-.01-.29-.01-.43,0-5.14,5.48-8.54,10.12-6.12.47-3.69,3.59-6.03,6.88-6.03,1.47,0,2.97.47,4.27,1.51,1.02-3.04,3.77-4.74,6.58-4.74,1.9,0,3.82.77,5.24,2.42,1.31-2.35,3.68-3.54,6.03-3.54s4.67,1.17,6.01,3.5c1.41-1.69,3.34-2.46,5.26-2.46,2.8,0,5.54,1.66,6.57,4.69,1.31-1.06,2.83-1.54,4.32-1.54,3.25,0,6.36,2.31,6.87,5.97,1.06-.56,2.17-.83,3.24-.83,3.74,0,7.13,3.13,6.91,7.3.7-.22,1.4-.33,2.07-.33,4.29,0,7.81,4.08,6.68,8.6.27-.03.53-.04.78-.04,4.95,0,8.38,5.18,6.24,9.83,3.83.31,6.35,3.51,6.35,6.9,0,1.37-.4,2.77-1.3,4.02,3.21.9,5.05,3.76,5.05,6.69,0,1.79-.69,3.61-2.16,5.01,4.97-.99,21.85,7.7,28.24,26.5.48-.05.98-.08,1.47-.11-.01-.33-.01-.66-.02-.99-3.6-7.27-6.61-14.87-10.66-21.88-3.64-6.26-10.73-10.27-13.44-16.98-.55-1.36-.84-2.97-.15-4.27,1.37-2.55,5.67-3.31,8.29-2.85,2.57.45,4.73,2.02,6.44,3.91,3.68,4.03,5.81,9.43,7.38,14.59.76,2.5,1.52,5.14,2.17,7.85.03-1.75.08-3.48.15-5.19-.13-3.5-.31-6.88-.53-10.15-3.18-4.44-6.72-8.63-10.09-12.92-4.05-5.18-9.21-9.43-15.15-12.31-2.4-1.16-4.93-2.11-6.9-3.87-1.9-1.69-3.5-4.8-2.12-7.23,1.23-2.15,4.17-3.39,6.52-3.66,2.59-.29,5.12.64,7.29,1.97,4.64,2.85,8.19,7.46,11.13,11.97,2.64,4.05,5.69,8.24,8.12,12.64-.27-2.41-.55-4.73-.86-6.99h0c-3.61-8.08-11.73-15.14-17.99-20.47-4.3-3.66-8.91-7.24-14-9.74-5.69-2.79-11.96-4.37-17.39-7.72-2.06-1.28-5.64-3.35-5.28-6.28.37-2.93,4.49-4.47,6.79-5.35,16.14-6.18,37.58,24.07,45.8,36.93-1.16-6.04-2.48-11.53-3.92-16.51h0c-4.53-4.76-10.05-10.95-14.41-14.58-5.06-4.21-12.43-9.31-18.85-10.87-2.58-.63-5.25-1.03-7.55-2.33-2.2-1.25-4.43-3.95-3.59-6.63.74-2.36,3.36-4.2,5.62-4.95,2.47-.83,5.12-.45,7.54.4,5.13,1.8,11.17,5.6,14.98,9.39,3.37,3.34,6.52,6.7,9.32,10.39-2.31-5.07-4.7-9.28-7.01-12.78-10.43-15.82-21.37-20.13-24.71-21.13-.7.73-1.67,1.24-2.81,1.36l-2.85.29.45,2.83c.51,3.26-2.53,5.98-5.72,5.11l-2.78-.77-.6,2.81c-.7,3.23-4.52,4.67-7.19,2.7l-2.29-1.72-1.59,2.39c-1.82,2.78-5.9,2.72-7.67-.07l-1.53-2.43-2.33,1.65c-2.71,1.92-6.5.4-7.12-2.85l-.55-2.81-2.79.7c-3.21.82-6.19-1.96-5.62-5.23l.51-2.82-2.84-.35c-3.3-.4-5.07-4.07-3.35-6.91l1.49-2.45-2.53-1.36c-2.92-1.56-3.25-5.63-.61-7.64l2.27-1.74-1.88-2.18c-.7-.81-1.04-1.77-1.09-2.72-1.25.45-3.33,1.21-3.77,1.4-2.89,1.24-6.12,2.25-8.3,4.66-2.1,2.31-2.82,4.52-4.43,7.14-.41.69-.89,1.37-1.52,1.88-3.29,2.57-6.81-2.14-7.24-5.08-.42-2.78.61-5.73,1.84-8.17,1-1.95,2.81-3.29,5.04-4.18-6.37-2.48-10.54-6.85-9.43-10.08,1.1-3.21,7.07-4.12,13.62-2.19.12.19.23.38.36.57-.12-.19-.23-.38-.35-.57-1.22-2.07-1.86-4.24-1.44-6.38.53-2.69,1.49-5.65,3.54-7.6,2.14-2.05,7.8-3.64,8.83.41.19.77.16,1.6.06,2.41-.34,3.07-1.11,5.26-.87,8.36.25,3.24,2.18,6,3.71,8.78.34.59,2.69,4.28,2.69,4.28l-.05.15c.3-.17.64-.32.99-.42l2.76-.81-.95-2.71c-1.11-3.13,1.39-6.34,4.69-6.06l2.86.24.07-2.86c.11-3.33,3.59-5.43,6.57-3.98l2.58,1.26,1.11-2.64c1.29-3.06,5.31-3.76,7.57-1.34l1.94,2.1,1.99-2.06c2.31-2.37,6.3-1.58,7.53,1.49l1.06,2.67,2.61-1.21c3.01-1.39,6.44.8,6.48,4.11l.02,2.86,2.87-.18c3.31-.2,5.72,3.07,4.55,6.18l-1.01,2.67,2.73.88c3.16,1,4.22,4.93,2,7.4l-1.91,2.13,2.24,1.79c2.59,2.09,2.17,6.13-.78,7.63l-2.57,1.3,1.44,2.48c.42.73.61,1.51.61,2.27,4.26,1.31,15.35,6.07,26.03,22.05,9.49,14.19,16.14,33.19,19.92,56.78v-28.28c-3.72-9.59-10.24-26.53-12.73-31.45-2.98-5.87-7.75-13.48-13.02-17.45-2.12-1.58-4.41-3.02-6.01-5.12-2.54-3.36-2.1-7.91,2.22-9.47,2.33-.84,4.96-.39,7.21.67,8.09,3.84,13.02,12.87,16.54,20.67,1.84,4.12,3.98,8.51,5.5,13.02-.22-5.59-.55-10.94-1-16.05-3.81-5.53-8.58-13.12-12.5-17.68-4.3-4.97-10.75-11.21-16.83-13.78-2.44-1.04-5-1.88-7.06-3.53-1.98-1.61-3.74-4.63-2.47-7.12,1.12-2.2,4.01-3.6,6.35-3.96,2.58-.41,5.12.39,7.37,1.62,4.78,2.62,10.11,7.34,13.26,11.69,4.07,5.63,7.69,11.24,10.2,17.68-.72-5.19-1.55-10.09-2.46-14.74-4.47-4.73-9.9-10.76-14.17-14.33-5.06-4.21-12.44-9.31-18.85-10.87-2.58-.63-5.26-1.03-7.56-2.34-2.2-1.25-4.43-3.95-3.58-6.6.74-2.37,3.36-4.22,5.61-4.96,2.48-.82,5.13-.46,7.54.4,5.13,1.81,11.17,5.61,14.99,9.38,4.93,4.9,9.41,9.83,12.94,15.78-.68-2.6-1.38-5.1-2.11-7.48-3.74-3.99-7.91-8.49-11.3-11.32-4.72-3.93-11.6-8.68-17.57-10.13-2.39-.57-4.89-.95-7.04-2.17-2.06-1.17-4.12-3.69-3.35-6.17.69-2.2,3.14-3.92,5.24-4.62,2.31-.76,4.78-.41,7.03.37,4.79,1.69,10.42,5.23,13.97,8.76,2.2,2.18,4.32,4.39,6.28,6.7-6.48-15-13.27-24.04-17.37-28.64-9.29,12-26.11,16.06-40.07,8.84-15.59-8.06-21.77-27.14-13.94-42.79l-.77,1.51s-4.29.86-4.96,1.03c-3.05.81-6.38,1.34-8.9,3.4-2.41,1.96-3.46,4.04-5.44,6.41-.51.61-1.07,1.22-1.78,1.61-3.61,2.06-6.4-3.11-6.4-6.08-.02-2.82,1.45-5.58,3.04-7.8,1.25-1.78,3.25-2.84,5.59-3.39-5.94-3.38-9.4-8.32-7.84-11.35,1.57-3.02,7.6-3.05,13.8-.17-.9-2.23-1.2-4.46-.48-6.52.91-2.59,2.31-5.37,4.62-7.01,2.42-1.71,8.26-2.43,8.67,1.72.07.81-.08,1.61-.3,2.4-.78,2.98-1.88,5.04-2.09,8.14-.22,3.25,1.27,6.26,2.37,9.22.25.65,2.04,4.63,2.04,4.63l-.55,1.05h.01s-.22.43-.22.43c8.24-15.42,27.37-21.4,42.95-13.35,15.72,8.13,21.88,27.45,13.76,43.17-.35.67-.7,1.3-1.08,1.94,3.93,4.25,10.41,12.54,16.83,26.3,5.73,12.29,12.08,30.59,15.9,56.2v-27.86c-2.53-10.56-5.91-22.56-8.76-28.13-2.11-4.16-4.48-8.32-7.57-11.84-3.45-3.94-7.73-7.11-10.79-11.38-1.18-1.61-3.24-4.32-2.04-6.43,1.21-2.1,4.83-1.99,6.86-1.93,12.69.37,19.43,24.07,22.29,37.99v-20.7c-2.94-5.68-5.94-11.35-9.21-16.85-9.93-16.66-24.76-31.42-26.45-51.69-.28-3.33-.16-6.76.9-9.97,0,0,24.21,33.8,27.13,40.47,1.55,3.54,4.87,16.46,7.63,27.84v-9.43c-2.27-10.08-5.78-23.24-8.65-28.89-1.87-3.64-3.95-7.31-6.67-10.41-3.03-3.46-6.78-6.24-9.49-10.01-1.03-1.42-2.85-3.81-1.78-5.66,1.06-1.86,4.25-1.75,6.03-1.7,12.91.37,18.84,28.31,20.55,38.48v-40.67c-1.36-.19-3.25-.95-4.77-3.45,0,0-7.82,4.92-9.12-1.66,0,0-10,3.3-10-3.91,0,0-8.15,1.21-8.87-5.09,0,0-6.42-.3-7.03-6.89,0,0-8.38-1.2-5.68-7.79,0,0-6.3-2.41-3.3-10.2,0,0-6.78-5.1-1.3-11.09,0,0-6.99-6,0-12.89,0,0-4.99-7.54,1.6-12.02,0,0-4.21-7.72,2.39-9.23,0,0-2.09-8.53,3-9.08,0,0-.95-6.54,5.53-7.13,0,0-1.38-6.89,4.79-6.89,0,0,.1-7.49,7.03-6.3l1.76,4.4c.78-5.87.59-13.09-2.82-19.51-1.04-1.95-1.91-3.76-2.63-5.42-1.97-4.55-2.88-7.98-3.28-10.41-.6-3.61,3.03-6.55,6.37-5.04,3,1.37,6.42,5.48,8.88,15.96,4.83,20.73-.59,31.06-1.75,32.96,2.24-1.67,5.05-2.65,8.42-2.9,2.18-.17,4.3.04,6.39.71.15.05.41.14.76.27,1.41.51,2.87.81,4.34.9.67.04,1.34.04,2,0,1.47-.1,2.94-.39,4.35-.9.34-.13.6-.21.75-.27,2.1-.67,4.21-.88,6.39-.71,3.37.25,6.16,1.23,8.41,2.89-1.18-1.92-6.56-12.24-1.74-32.94,2.46-10.48,5.88-14.6,8.88-15.96,3.33-1.52,6.97,1.42,6.37,5.04-.4,2.43-1.31,5.9-3.31,10.46-.72,1.64-1.58,3.43-2.61,5.36-3.41,6.42-3.58,13.63-2.8,19.51l1.75-4.4c6.93-1.2,7.04,6.3,7.04,6.3,6.17,0,4.79,6.89,4.79,6.89,6.48.59,5.52,7.13,5.52,7.13,5.1.55,3,9.08,3,9.08,6.59,1.52,2.4,9.23,2.4,9.23,6.59,4.48,1.59,12.02,1.59,12.02,6.99,6.89,0,12.89,0,12.89,5.48,5.99-1.29,11.09-1.29,11.09,3,7.79-3.3,10.2-3.3,10.2,2.7,6.59-5.69,7.79-5.69,7.79-.59,6.59-7.02,6.89-7.02,6.89-.72,6.3-8.87,5.09-8.87,5.09,0,7.21-10,3.91-10,3.91-1.3,6.58-9.13,1.66-9.13,1.66-1.52,2.49-3.41,3.25-4.77,3.45v40.67c1.73-10.17,7.64-38.11,20.56-38.48,1.78-.05,4.97-.16,6.03,1.7,1.07,1.86-.76,4.24-1.78,5.66-2.7,3.76-6.46,6.55-9.5,10.01-2.7,3.1-4.8,6.77-6.66,10.41-2.87,5.65-6.38,18.8-8.66,28.89v9.43c2.78-11.37,6.1-24.3,7.63-27.84,2.92-6.67,27.14-40.47,27.14-40.47,1.05,3.21,1.17,6.65.89,9.97-1.67,20.27-16.51,35.02-26.44,51.69-3.28,5.5-6.28,11.17-9.22,16.85v20.7c2.86-13.92,9.61-37.62,22.29-37.99,2.02-.06,5.66-.17,6.87,1.93,1.2,2.11-.87,4.82-2.04,6.43-3.07,4.27-7.35,7.44-10.79,11.38-3.1,3.52-5.46,7.69-7.58,11.84-2.83,5.58-6.21,17.57-8.76,28.13v27.86c3.82-25.61,10.18-43.92,15.91-56.2,6.42-13.76,12.9-22.05,16.83-26.3-.38-.64-.74-1.27-1.08-1.94-8.13-15.72-1.97-35.04,13.75-43.17,15.58-8.06,34.72-2.08,42.95,13.35l-.21-.42s.02-.01.06-.03c-.04.01-.06.02-.06.02l-.54-1.05s1.78-3.99,2.02-4.63c1.11-2.96,2.61-5.97,2.37-9.22-.21-3.11-1.29-5.16-2.09-8.14-.2-.78-.37-1.59-.29-2.4.41-4.14,6.24-3.42,8.67-1.72,2.3,1.63,3.7,4.42,4.61,7.01.73,2.06.42,4.29-.47,6.52,6.19-2.88,12.23-2.85,13.79.17,1.57,3.03-1.91,7.97-7.83,11.35,2.33.55,4.34,1.61,5.59,3.39,1.58,2.23,3.05,4.98,3.04,7.8,0,2.98-2.79,8.14-6.41,6.08-.7-.39-1.26-1-1.78-1.61-1.97-2.37-3.02-4.45-5.44-6.41-2.51-2.07-5.84-2.6-8.9-3.4-.67-.17-4.95-1.03-4.95-1.03l-.78-1.51c7.84,15.66,1.65,34.74-13.94,42.79-13.96,7.22-30.78,3.16-40.06-8.84-4.1,4.6-10.9,13.64-17.38,28.64,1.96-2.31,4.07-4.52,6.28-6.7,3.55-3.53,9.18-7.07,13.98-8.76,2.25-.78,4.72-1.13,7.03-.37,2.09.7,4.54,2.42,5.23,4.62.78,2.48-1.28,5-3.34,6.17-2.15,1.22-4.65,1.6-7.05,2.17-5.97,1.45-12.86,6.2-17.56,10.13-3.39,2.83-7.57,7.34-11.31,11.32-.72,2.39-1.42,4.89-2.1,7.48,3.53-5.96,8-10.89,12.93-15.78,3.82-3.77,9.86-7.57,15-9.38,2.4-.86,5.06-1.22,7.54-.4,2.24.74,4.87,2.59,5.61,4.96.84,2.65-1.38,5.35-3.58,6.6-2.3,1.31-4.99,1.72-7.56,2.34-6.4,1.56-13.79,6.66-18.85,10.87-4.27,3.57-9.7,9.6-14.18,14.33-.91,4.65-1.74,9.55-2.46,14.74,2.52-6.44,6.14-12.05,10.21-17.68,3.15-4.36,8.48-9.07,13.26-11.69,2.24-1.23,4.79-2.04,7.37-1.62,2.34.36,5.23,1.76,6.35,3.96,1.26,2.49-.5,5.51-2.47,7.12-2.06,1.65-4.63,2.49-7.07,3.53-6.07,2.57-12.52,8.81-16.83,13.78-3.91,4.56-8.68,12.15-12.49,17.68-.45,5.11-.78,10.46-1,16.05,1.53-4.51,3.65-8.89,5.5-13.02,3.52-7.8,8.45-16.83,16.54-20.67,2.24-1.06,4.87-1.51,7.2-.67,4.32,1.56,4.76,6.11,2.23,9.47-1.6,2.1-3.9,3.54-6.01,5.12-5.28,3.96-10.05,11.58-13.03,17.45-2.49,4.92-9,21.86-12.73,31.45v28.28c3.78-23.6,10.44-42.59,19.93-56.78,10.67-15.97,21.76-20.73,26.02-22.05,0-.76.2-1.54.63-2.27l1.43-2.48-2.55-1.3c-2.96-1.51-3.37-5.54-.78-7.63l2.23-1.79-1.91-2.13c-2.22-2.47-1.14-6.4,2.01-7.4l2.73-.88-1.01-2.67c-1.18-3.11,1.24-6.38,4.55-6.18l2.87.18.02-2.86c.02-3.32,3.46-5.5,6.47-4.11l2.61,1.21,1.06-2.67c1.23-3.07,5.22-3.87,7.53-1.49l2,2.06,1.94-2.1c2.25-2.43,6.28-1.73,7.56,1.34l1.11,2.64,2.58-1.26c2.99-1.45,6.47.65,6.57,3.98l.08,2.86,2.86-.24c3.3-.28,5.79,2.94,4.69,6.06l-.95,2.71,2.75.81c.36.11.69.25.99.42l-.04-.15s2.34-3.69,2.69-4.28c1.53-2.78,3.46-5.53,3.71-8.78.24-3.11-.53-5.29-.88-8.36-.08-.81-.12-1.63.07-2.41,1.02-4.05,6.69-2.46,8.82-.41,2.05,1.95,3.01,4.91,3.54,7.6.41,2.14-.21,4.31-1.43,6.38,6.55-1.93,12.52-1.02,13.62,2.19,1.1,3.23-3.06,7.6-9.42,10.08,2.24.89,4.04,2.23,5.02,4.18,1.23,2.44,2.28,5.4,1.86,8.17-.43,2.94-3.95,7.64-7.24,5.08-.64-.51-1.1-1.19-1.52-1.88-1.61-2.63-2.33-4.83-4.44-7.14-2.18-2.42-5.4-3.42-8.29-4.66-.46-.19-2.53-.95-3.78-1.4-.04.95-.39,1.92-1.09,2.72l-1.88,2.18,2.28,1.74c2.63,2.01,2.3,6.08-.63,7.64l-2.52,1.36,1.49,2.45c1.71,2.84-.05,6.51-3.36,6.91l-2.83.35.5,2.82c.58,3.26-2.4,6.04-5.62,5.23l-2.78-.7-.55,2.81c-.64,3.25-4.41,4.77-7.12,2.85l-2.33-1.65-1.53,2.43c-1.77,2.8-5.85,2.85-7.69.07l-1.58-2.39-2.3,1.72c-2.66,1.97-6.48.53-7.18-2.7l-.61-2.81-2.77.77c-3.19.87-6.24-1.84-5.72-5.11l.43-2.83-2.85-.29c-1.13-.12-2.1-.63-2.8-1.36-3.35,1-14.29,5.31-24.72,21.13-2.31,3.51-4.69,7.72-7,12.78,2.79-3.69,5.94-7.05,9.31-10.39,3.82-3.79,9.85-7.59,14.99-9.39,2.41-.85,5.07-1.23,7.54-.4,2.25.75,4.87,2.59,5.62,4.95.84,2.67-1.39,5.37-3.59,6.63-2.3,1.3-4.98,1.71-7.56,2.33-6.41,1.56-13.78,6.66-18.84,10.87-4.36,3.63-9.89,9.82-14.42,14.56h0c-1.43,4.99-2.76,10.48-3.91,16.53,8.23-12.86,29.65-43.11,45.79-36.93,2.3.88,6.42,2.43,6.79,5.35.37,2.93-3.21,4.99-5.27,6.28-5.44,3.35-11.7,4.93-17.41,7.72-5.09,2.5-9.7,6.08-13.99,9.74-6.26,5.33-14.37,12.39-18,20.46h0c-.31,2.27-.59,4.59-.86,7,2.44-4.4,5.48-8.59,8.13-12.64,2.94-4.51,6.49-9.12,11.13-11.97,2.17-1.34,4.7-2.26,7.28-1.97,2.35.27,5.3,1.51,6.53,3.66,1.38,2.43-.23,5.54-2.13,7.23-1.96,1.76-4.51,2.71-6.89,3.87-5.94,2.87-11.1,7.12-15.16,12.31-3.36,4.29-6.9,8.48-10.09,12.92-.21,3.28-.39,6.66-.53,10.15.06,1.71.12,3.43.16,5.17.66-2.7,1.4-5.34,2.17-7.83,1.57-5.15,3.7-10.56,7.37-14.59,1.73-1.89,3.89-3.47,6.46-3.91,2.62-.46,6.91.3,8.28,2.85.69,1.3.4,2.92-.15,4.27-2.71,6.71-9.81,10.72-13.43,16.98-4.04,7-7.07,14.59-10.66,21.86-.01.33-.01.67-.02,1.01.49.02.99.05,1.46.11,6.38-18.8,23.28-27.49,28.24-26.5h.01c-1.48-1.4-2.17-3.22-2.17-5.01,0-2.93,1.84-5.79,5.06-6.69-.91-1.25-1.31-2.65-1.31-4.02,0-3.39,2.53-6.59,6.36-6.9-2.15-4.64,1.28-9.83,6.24-9.83.24,0,.51.01.77.04-1.12-4.52,2.4-8.6,6.68-8.6.68,0,1.37.11,2.07.33-.21-4.18,3.17-7.3,6.92-7.3,1.07,0,2.18.27,3.23.83.51-3.66,3.63-5.97,6.88-5.97,1.49,0,3.01.48,4.31,1.54,1.04-3.02,3.78-4.69,6.57-4.69,1.92,0,3.85.77,5.27,2.46,1.34-2.33,3.67-3.5,6.01-3.5s4.71,1.19,6.03,3.54c1.41-1.64,3.33-2.42,5.23-2.42,2.82,0,5.58,1.7,6.58,4.74,1.31-1.04,2.81-1.51,4.27-1.51,3.29,0,6.41,2.34,6.89,6.03,4.64-2.43,10.12.98,10.12,6.12,0,.15,0,.29-.01.43,4.56-1.37,8.89,2.15,8.89,6.59,0,.56-.07,1.16-.22,1.75,4.27-.43,7.62,3,7.62,6.87,0,.98-.22,1.99-.68,2.97,3.81.34,6.31,3.54,6.31,6.91,0,1.38-.42,2.8-1.35,4.06,3.18.92,5.01,3.75,5.01,6.67,0,1.8-.71,3.64-2.22,5.05.73.37,1.38.86,1.89,1.41.59-.76,1.14-1.47,1.29-1.79,1.06-2.19,1.78-4.56,2.41-6.92,1.3-4.74,2.2-9.65,2.76-14.54.15-1.39.52-2.84,1.54-3.81.96-.93,2.36-1.26,3.7-1.24,1.27.02,2.61.4,3.46,1.36.66.74.95,1.76,1.16,2.72.52,2.49.71,5.09.55,7.65,2.36-2.69,6.82.36,8.15,2.84,1.34,2.48,1.35,5.61,1.01,8.32-.28,2.16-1.55,4.03-3.34,5.62-.04.04-.1.08-.14.13.04-.03.1-.07.14-.12,6.84.19,12.22,2.9,12.27,6.31.05,3.41-5.27,6.29-12.08,6.67Z"/>
      <path class="st0" d="M55.14,547.57c0,4.11-3.33,7.45-7.45,7.45s-7.45-3.34-7.45-7.45,3.34-7.45,7.45-7.45,7.45,3.34,7.45,7.45Z"/>
      <path class="st0" d="M74.6,577.92c0,4.12-3.33,7.45-7.45,7.45s-7.45-3.33-7.45-7.45,3.34-7.45,7.45-7.45,7.45,3.34,7.45,7.45Z"/>
    </g>
  </g>
  <g id="Layer_2">
    <g>
      <path d="M205.53,575.18c.18,9.89-8.7,8.62-8.7,8.62,0,0-8.89,1.28-8.7-8.62.07-3.98,1.28-20.05,2.71-37.85v-.03c.69-4.98,1.34-9.95,2.03-14.87,1.84-12.97,4.07-26.83,3.04-40.08.3.01.6.01.91.01s.61,0,.91-.01c-1.03,13.25,1.19,27.11,3.03,40.08.69,4.84,1.33,9.74,2.01,14.65,1.45,17.89,2.67,34.1,2.75,38.1Z"/>
      <path d="M223.3,73.32c-1.13-3.68-2.98-6.48-5.57-8.38-2.24-1.67-5.03-2.64-8.4-2.9-2.18-.17-4.3.05-6.39.71-.15.05-.41.14-.76.26-1.41.51-2.87.8-4.34.9-.67.05-1.33.05-2,0-1.47-.09-2.93-.39-4.34-.9-.34-.13-.61-.22-.76-.26-2.09-.67-4.21-.88-6.39-.71-3.38.25-6.18,1.23-8.42,2.91-.29.21-.56.44-.84.68-.59.51-1.14,1.07-1.63,1.69-.13.15-.25.32-.37.48-.14.17-.26.34-.38.53-.09.11-.17.24-.24.37-.15.22-.3.46-.41.7-.08.11-.15.23-.2.34-.14.22-.25.45-.34.68-.08.15-.15.3-.22.46-.17.36-.32.72-.46,1.1-.17.43-.32.87-.46,1.33-2.36,7.65-2.94,15.86-.54,23.59.03.13.08.25.13.38,0,.02,0,.03.01.06.03.1.07.21.1.31.11.34.23.69.36,1.02.11.3.23.61.34.91,1.82,4.52,4.55,8.73,8.05,12.11.28.26.56.52.84.76,1.13,1.02,2.31,1.94,3.57,2.77,3.3,2.16,6.97,3.54,10.9,3.95.4.05.82.08,1.22.09.32.02.64.03.97.03,1.68.03,3.33-.1,4.95-.4,1.17-.22,2.32-.52,3.45-.9.57-.2,1.14-.4,1.69-.64,1.39-.59,2.72-1.3,4.01-2.14,1.26-.83,2.45-1.75,3.57-2.77.28-.24.56-.49.84-.76,3.06-2.95,5.53-6.54,7.32-10.4.37-.8.7-1.62,1.01-2.45.09-.23.17-.46.25-.7.09-.26.18-.54.28-.8.05-.15.09-.29.14-.44,2.4-7.73,1.82-15.94-.54-23.59ZM204.45,79.09c.05.76.07,1.52.07,2.31,0,9.57-3.45,17.33-7.7,17.33s-7.7-7.76-7.7-17.33c0-.79.03-1.55.08-2.31-5.75-1.29-9.71-3.99-9.71-7.1,0-4.17,7.04-7.57,15.97-7.88.45-.02.9-.03,1.36-.03s.93.01,1.38.03c8.93.31,15.95,3.71,15.95,7.88,0,3.11-3.95,5.81-9.7,7.1Z"/>
      <path d="M202.06,73.48c0,4.78-2.34,8.66-5.23,8.66s-5.23-3.88-5.23-8.66,3.04-8.66,5.23-8.66,5.23,3.88,5.23,8.66Z"/>
      <path d="M198.56,475.83v.06h-.01s0-.03.01-.06Z"/>
      <path d="M244.51,327.58c-4.26,1.31-15.35,6.07-26.03,22.04-9.49,14.2-16.14,33.2-19.92,56.79v-37.7h.03c-.08-6.88.01-13.44.26-19.71.22-5.58.55-10.94,1-16.05.46-5.26,1.02-10.27,1.68-15.06h0c.72-5.21,1.55-10.11,2.46-14.77.94-4.79,1.98-9.3,3.09-13.54.68-2.6,1.38-5.09,2.1-7.48,2.11-7.02,4.41-13.18,6.76-18.58h0c6.48-15.01,13.27-24.05,17.37-28.66-.71-.94-1.39-1.92-2.02-2.95-3.93,4.25-10.41,12.54-16.83,26.3-5.73,12.28-12.09,30.59-15.9,56.2v-148.78c-1.01.15-1.72-.02-1.72-.02,0,0-.71.17-1.72.02v148.78c-3.81-25.61-10.17-43.92-15.9-56.2-6.42-13.77-12.9-22.05-16.83-26.3-.63,1.03-1.31,2.01-2.02,2.95,4.1,4.61,10.89,13.65,17.37,28.65h0c2.34,5.41,4.64,11.57,6.76,18.59.72,2.39,1.42,4.88,2.1,7.48,1.11,4.24,2.15,8.74,3.09,13.54.91,4.65,1.74,9.56,2.46,14.75h0c.65,4.8,1.22,9.81,1.68,15.08.45,5.11.78,10.47,1,16.05.25,6.26.34,12.82.26,19.71h.03v37.7c-3.78-23.59-10.43-42.58-19.92-56.79-10.67-15.97-21.76-20.73-26.03-22.04,0,1.2-.47,2.36-1.31,3.21,3.34,1,14.28,5.31,24.72,21.13,2.31,3.5,4.69,7.71,7,12.78h0c2.45,5.39,4.83,11.72,6.95,19.15h0c1.44,5,2.76,10.49,3.92,16.52.76,3.96,1.46,8.16,2.07,12.62h0c.31,2.28.6,4.6.86,7h0c.48,4.26.88,8.72,1.19,13.41.22,3.27.4,6.66.53,10.16-.3,8.22-.37,16.82-.17,25.81.63-.03,1.26-.05,1.91-.05s1.28.01,1.91.05c.2-8.99.14-17.59-.17-25.81.14-3.5.31-6.88.53-10.16.31-4.69.71-9.15,1.19-13.4h0c.26-2.41.55-4.73.86-7h0c.61-4.47,1.31-8.66,2.07-12.63,1.16-6.03,2.48-11.53,3.92-16.51h0c2.13-7.45,4.5-13.78,6.95-19.15h0c2.31-5.08,4.69-9.28,7-12.79,10.43-15.82,21.37-20.13,24.72-21.13-.84-.85-1.31-2.01-1.31-3.21Z"/>
      <g>
        <path d="M192.5,412.99c-3.62-8.07-11.73-15.12-17.99-20.45-4.3-3.67-8.91-7.24-14-9.74-5.7-2.79-11.96-4.37-17.4-7.72-2.06-1.28-5.64-3.34-5.27-6.27.37-2.92,4.49-4.47,6.79-5.35,16.14-6.17,37.57,24.07,45.8,36.93.76,3.96,1.46,8.16,2.07,12.62Z"/>
        <path d="M195.11,264.82v21.74c-2.54-10.56-5.92-22.57-8.76-28.14-2.11-4.15-4.48-8.32-7.57-11.84-3.45-3.94-7.72-7.11-10.79-11.39-1.17-1.61-3.24-4.32-2.03-6.43,1.21-2.1,4.84-1.99,6.86-1.93,12.69.37,19.43,24.07,22.29,37.99Z"/>
        <path d="M195.11,206.3v18.18c-2.28-10.08-5.78-23.23-8.65-28.88-1.86-3.64-3.95-7.32-6.66-10.41-3.03-3.46-6.79-6.25-9.49-10.01-1.02-1.42-2.85-3.8-1.78-5.66,1.06-1.85,4.25-1.75,6.03-1.69,12.92.37,18.83,28.31,20.56,38.47Z"/>
        <path d="M195.11,449.44v19.35c-3.69-7.4-6.74-15.16-10.87-22.29-3.63-6.26-10.72-10.27-13.43-16.98-.55-1.36-.84-2.96-.15-4.26,1.37-2.56,5.66-3.31,8.28-2.86,2.56.45,4.72,2.03,6.45,3.92,3.68,4.02,5.8,9.43,7.38,14.58.83,2.71,1.64,5.6,2.34,8.55Z"/>
        <path d="M194.56,433.39c-3.18-4.45-6.72-8.63-10.09-12.93-4.06-5.18-9.22-9.43-15.16-12.31-2.39-1.15-4.93-2.1-6.89-3.86-1.9-1.69-3.5-4.8-2.13-7.23,1.23-2.16,4.17-3.4,6.53-3.67,2.59-.29,5.11.64,7.28,1.98,4.64,2.85,8.19,7.46,11.13,11.96,2.64,4.06,5.69,8.24,8.12,12.64h0c.48,4.26.88,8.72,1.19,13.41Z"/>
        <path d="M186.52,383.85c-4.53-4.75-10.05-10.94-14.41-14.56-5.06-4.22-12.43-9.31-18.84-10.87-2.57-.62-5.25-1.02-7.55-2.33-2.21-1.25-4.44-3.95-3.6-6.62.75-2.37,3.37-4.21,5.62-4.95,2.47-.83,5.12-.45,7.54.4,5.14,1.8,11.17,5.6,14.98,9.39,3.37,3.34,6.52,6.7,9.31,10.39h0c2.45,5.39,4.83,11.72,6.95,19.15Z"/>
        <path d="M189.68,303.11c-4.48-4.72-9.9-10.76-14.18-14.33-5.06-4.21-12.44-9.31-18.84-10.86-2.57-.63-5.26-1.03-7.56-2.34-2.21-1.25-4.42-3.95-3.59-6.61.75-2.38,3.37-4.22,5.61-4.96,2.48-.82,5.14-.45,7.54.4,5.14,1.82,11.18,5.61,15,9.39,4.93,4.89,9.41,9.82,12.94,15.78,1.11,4.24,2.15,8.74,3.09,13.54Z"/>
        <path d="M184.48,282.1c-3.75-3.99-7.92-8.49-11.31-11.32-4.71-3.93-11.59-8.69-17.57-10.13-2.39-.57-4.89-.95-7.04-2.17-2.06-1.17-4.13-3.69-3.34-6.17.69-2.21,3.14-3.92,5.23-4.62,2.31-.77,4.78-.41,7.03.37,4.79,1.69,10.42,5.23,13.97,8.76,2.21,2.18,4.32,4.39,6.27,6.7h0c2.34,5.41,4.64,11.57,6.76,18.59Z"/>
        <path d="M193.81,332.94c-3.8-5.53-8.57-13.12-12.49-17.67-4.31-4.98-10.76-11.21-16.83-13.79-2.44-1.03-5.01-1.87-7.07-3.53-1.98-1.61-3.73-4.63-2.47-7.12,1.13-2.21,4.01-3.6,6.35-3.96,2.57-.41,5.12.39,7.37,1.62,4.78,2.62,10.11,7.34,13.26,11.7,4.07,5.63,7.69,11.24,10.2,17.68h0c.65,4.8,1.22,9.81,1.68,15.08Z"/>
        <path d="M195.11,368.7v9.42c-3.72-9.59-10.24-26.53-12.73-31.45-2.98-5.87-7.74-13.48-13.02-17.44-2.11-1.59-4.41-3.02-6.01-5.12-2.54-3.36-2.1-7.91,2.22-9.47,2.33-.84,4.96-.39,7.2.67,8.09,3.84,13.02,12.87,16.53,20.67,1.85,4.13,3.98,8.51,5.5,13.02.25,6.26.34,12.82.26,19.71h.03Z"/>
        <path d="M195.11,233.91v10.22c-2.94-5.69-5.94-11.35-9.22-16.86-9.93-16.66-24.76-31.42-26.44-51.68-.28-3.33-.16-6.77.9-9.97,0,0,24.21,33.81,27.13,40.47,1.54,3.54,4.86,16.47,7.63,27.83Z"/>
      </g>
      <g>
        <path d="M201.17,412.99c3.62-8.07,11.73-15.12,17.99-20.45,4.3-3.67,8.91-7.24,14-9.74,5.7-2.79,11.96-4.37,17.4-7.72,2.06-1.28,5.64-3.34,5.27-6.27-.37-2.92-4.49-4.47-6.79-5.35-16.14-6.17-37.57,24.07-45.8,36.93-.76,3.96-1.46,8.16-2.07,12.62Z"/>
        <path d="M198.56,264.82v21.74c2.54-10.56,5.92-22.57,8.76-28.14,2.11-4.15,4.48-8.32,7.57-11.84,3.45-3.94,7.72-7.11,10.79-11.39,1.17-1.61,3.24-4.32,2.03-6.43-1.21-2.1-4.84-1.99-6.86-1.93-12.69.37-19.43,24.07-22.29,37.99Z"/>
        <path d="M198.56,206.3v18.18c2.28-10.08,5.78-23.23,8.65-28.88,1.86-3.64,3.95-7.32,6.66-10.41,3.03-3.46,6.79-6.25,9.49-10.01,1.02-1.42,2.85-3.8,1.78-5.66-1.06-1.85-4.25-1.75-6.03-1.69-12.92.37-18.83,28.31-20.56,38.47Z"/>
        <path d="M198.56,449.44v19.35c3.69-7.4,6.74-15.16,10.87-22.29,3.63-6.26,10.72-10.27,13.43-16.98.55-1.36.84-2.96.15-4.26-1.37-2.56-5.66-3.31-8.28-2.86-2.56.45-4.72,2.03-6.45,3.92-3.68,4.02-5.8,9.43-7.38,14.58-.83,2.71-1.64,5.6-2.34,8.55Z"/>
        <path d="M199.11,433.39c3.18-4.45,6.72-8.63,10.09-12.93,4.06-5.18,9.22-9.43,15.16-12.31,2.39-1.15,4.93-2.1,6.89-3.86,1.9-1.69,3.5-4.8,2.13-7.23-1.23-2.16-4.17-3.4-6.53-3.67-2.59-.29-5.11.64-7.28,1.98-4.64,2.85-8.19,7.46-11.13,11.96-2.64,4.06-5.69,8.24-8.12,12.64h0c-.48,4.26-.88,8.72-1.19,13.41Z"/>
        <path d="M207.15,383.85c4.53-4.75,10.05-10.94,14.41-14.56,5.06-4.22,12.43-9.31,18.84-10.87,2.57-.62,5.25-1.02,7.55-2.33,2.21-1.25,4.44-3.95,3.6-6.62-.75-2.37-3.37-4.21-5.62-4.95-2.47-.83-5.12-.45-7.54.4-5.14,1.8-11.17,5.6-14.98,9.39-3.37,3.34-6.52,6.7-9.31,10.39h0c-2.45,5.39-4.83,11.72-6.95,19.15Z"/>
        <path d="M203.99,303.11c4.48-4.72,9.9-10.76,14.18-14.33,5.06-4.21,12.44-9.31,18.84-10.86,2.57-.63,5.26-1.03,7.56-2.34,2.21-1.25,4.42-3.95,3.59-6.61-.75-2.38-3.37-4.22-5.61-4.96-2.48-.82-5.14-.45-7.54.4-5.14,1.82-11.18,5.61-15,9.39-4.93,4.89-9.41,9.82-12.94,15.78-1.11,4.24-2.15,8.74-3.09,13.54Z"/>
        <path d="M209.19,282.1c3.75-3.99,7.92-8.49,11.31-11.32,4.71-3.93,11.59-8.69,17.57-10.13,2.39-.57,4.89-.95,7.04-2.17,2.06-1.17,4.13-3.69,3.34-6.17-.69-2.21-3.14-3.92-5.23-4.62-2.31-.77-4.78-.41-7.03.37-4.79,1.69-10.42,5.23-13.97,8.76-2.21,2.18-4.32,4.39-6.27,6.7h0c-2.34,5.41-4.64,11.57-6.76,18.59Z"/>
        <path d="M199.86,332.94c3.8-5.53,8.57-13.12,12.49-17.67,4.31-4.98,10.76-11.21,16.83-13.79,2.44-1.03,5.01-1.87,7.07-3.53,1.98-1.61,3.73-4.63,2.47-7.12-1.13-2.21-4.01-3.6-6.35-3.96-2.57-.41-5.12.39-7.37,1.62-4.78,2.62-10.11,7.34-13.26,11.7-4.07,5.63-7.69,11.24-10.2,17.68h0c-.65,4.8-1.22,9.81-1.68,15.08Z"/>
        <path d="M198.56,368.7v9.42c3.72-9.59,10.24-26.53,12.73-31.45,2.98-5.87,7.74-13.48,13.02-17.44,2.11-1.59,4.41-3.02,6.01-5.12,2.54-3.36,2.1-7.91-2.22-9.47-2.33-.84-4.96-.39-7.2.67-8.09,3.84-13.02,12.87-16.53,20.67-1.85,4.13-3.98,8.51-5.5,13.02-.25,6.26-.34,12.82-.26,19.71h-.03Z"/>
        <path d="M198.56,233.91v10.22c2.94-5.69,5.94-11.35,9.22-16.86,9.93-16.66,24.76-31.42,26.44-51.68.28-3.33.16-6.77-.9-9.97,0,0-24.21,33.81-27.13,40.47-1.54,3.54-4.86,16.47-7.63,27.83Z"/>
      </g>
      <g>
        <path d="M203.32,12.18c-3.37,3.93-5.42,10.32-6.48,14.58h-.01c-1.06-4.27-3.11-10.66-6.48-14.58C190.63,5.36,193.43,0,196.84,0s6.19,5.35,6.48,12.18Z"/>
        <path d="M217.23,9.65c-2.5-1.3-5.62-1.26-8.34-.88-2.16.3-4.01,1.6-5.57,3.41-3.37,3.93-5.42,10.32-6.48,14.58h-.01c-1.06-4.27-3.11-10.66-6.48-14.58-1.56-1.82-3.41-3.11-5.57-3.41-2.71-.38-5.84-.41-8.33.88-2.64,1.37-5.96,6.22-2.47,8.49.68.44,1.47.67,2.26.84,3.01.67,5.33.64,8.19,1.88,2.99,1.29,4.99,4,7.1,6.34.24.27,1.1,1.33,1.86,2.28.84,1.04,2.1,1.65,3.44,1.65h0c1.34,0,2.6-.61,3.44-1.65.76-.95,1.62-2.01,1.86-2.28,2.13-2.34,4.11-5.06,7.1-6.34,2.86-1.24,5.18-1.22,8.19-1.88.79-.17,1.59-.4,2.26-.84,3.49-2.28.17-7.12-2.46-8.49Z"/>
      </g>
      <g>
        <path d="M193.46,469.46c-3.5.29-6.6,1.02-8.87,2.06-6.3-15.39-18.75-19.42-18.75-19.42,0,0-6.31-8.02-.62-9.13,4.98-.99,21.86,7.7,28.24,26.5Z"/>
        <path d="M187.37,481.45c-.01-.1-.03-.21-.06-.31.03.01.08.02.13.03,0,.02-.02.11-.07.28Z"/>
        <path d="M192.88,522.42c-.69,4.92-1.34,9.89-2.03,14.87v.03c-1.15,8.28-2.41,16.58-4.17,24.64-1.6,7.34-5.93,12.56-13.36,14.32-2.99.71-6.31.43-8.54-1.91-6.35-6.63,2.14-16.59,5.32-22.46,10.07-18.56,18.13-39.06,18.06-60.44,1.6-5.29,2.47-8.84,2.63-9.48.01-.03.01-.06.01-.09,1.13.18,2.31.31,3.54.38.36.02.71.05,1.07.06.17,0,.34.01.52.01,1.02,13.25-1.21,27.11-3.04,40.08Z"/>
      </g>
      <g>
        <path d="M198.56,475.83v.06h-.01s0-.03.01-.06Z"/>
        <path d="M227.83,452.1s-12.44,4.02-18.75,19.41c-2.28-1.02-5.37-1.76-8.86-2.05,6.38-18.8,23.27-27.49,28.23-26.5,5.69,1.11-.62,9.13-.62,9.13Z"/>
        <path d="M228.89,574.37c-2.23,2.33-5.55,2.62-8.55,1.91-7.43-1.76-11.77-6.97-13.36-14.32-1.77-8.14-3.03-16.52-4.19-24.89-.68-4.91-1.32-9.81-2.01-14.65-1.84-12.97-4.07-26.83-3.03-40.08.17,0,.34-.01.52-.01.36-.01.71-.03,1.07-.06,2.59-.15,4.98-.55,7.02-1.14-.46,2.61-.74,5.44-.82,8.5-.56,22.05,7.68,43.18,18.04,62.27,3.17,5.87,11.66,15.83,5.32,22.46Z"/>
      </g>
      <path d="M247.33,126.64c3,7.79-3.3,10.19-3.3,10.19,2.7,6.6-5.69,7.79-5.69,7.79-.6,6.6-7.02,6.89-7.02,6.89-.72,6.3-8.87,5.09-8.87,5.09,0,7.2-10,3.91-10,3.91-1.3,6.58-9.12,1.67-9.12,1.67-1.52,2.49-3.41,3.25-4.77,3.45-1.01.15-1.72-.02-1.72-.02,0,0-.71.17-1.72.02-1.36-.2-3.25-.95-4.77-3.45,0,0-7.83,4.92-9.12-1.67,0,0-10,3.3-10-3.91,0,0-8.15,1.21-8.87-5.09,0,0-6.42-.3-7.02-6.89,0,0-8.39-1.2-5.69-7.79,0,0-6.3-2.4-3.3-10.19,0,0-6.78-5.1-1.3-11.09,0,0-6.99-6,0-12.89,0,0-5-7.54,1.6-12.02,0,0-4.21-7.72,2.39-9.24,0,0-2.09-8.53,3-9.08,0,0-.95-6.54,5.53-7.14,0,0-1.38-6.89,4.79-6.89,0,0,.1-7.49,7.03-6.3l1.76,4.4c-.88,6.71-3.02,11.65-3.02,11.65-7.39,16.85-2.24,40.13,12.64,50.79,4.84,3.46,10.46,5.19,16.08,5.19s11.24-1.74,16.08-5.19c1.61-1.15,3.11-2.46,4.49-3.9,11.35-11.73,14.73-31.87,8.15-46.89h-.01s-.01-.06-.03-.09c0-.02-.02-.07-.05-.11-.01-.05-.03-.09-.06-.14-.09-.24-.22-.59-.39-1.03-.09-.25-.18-.54-.3-.85-.07-.22-.15-.45-.23-.7,0-.02-.01-.03-.02-.06-.08-.31-.18-.64-.3-1-.01-.05-.02-.09-.03-.14-.25-.86-.52-1.83-.76-2.87-.05-.23-.1-.45-.15-.68-.09-.46-.2-.93-.29-1.41,0-.05-.01-.09-.02-.14-.07-.39-.14-.78-.21-1.18-.06-.41-.11-.82-.17-1.24l1.76-4.4c6.93-1.2,7.03,6.3,7.03,6.3,6.17,0,4.79,6.89,4.79,6.89,6.48.6,5.53,7.14,5.53,7.14,5.09.55,3,9.08,3,9.08,6.6,1.52,2.39,9.24,2.39,9.24,6.6,4.48,1.6,12.02,1.6,12.02,6.99,6.89,0,12.89,0,12.89,5.48,5.99-1.3,11.09-1.3,11.09Z"/>
      <g>
        <g>
          <g>
            <g>
              <path d="M106.53,200.54c-.05.09-.09.18-.14.28l.32-.62c-.07.11-.13.23-.18.34Z"/>
              <path d="M149.7,186.8c-15.58-8.05-34.71-2.08-42.95,13.34l-.03.06-.32.62-.05.1c-7.84,15.65-1.65,34.74,13.94,42.79,13.96,7.22,30.78,3.16,40.07-8.85.71-.94,1.39-1.92,2.02-2.95.38-.63.74-1.28,1.08-1.94,8.12-15.72,1.96-35.05-13.75-43.17ZM141.99,218.87c-2,3.86-6.74,5.37-10.61,3.38-3.86-2-5.38-6.74-3.38-10.61,2-3.86,6.74-5.38,10.61-3.38,3.86,2,5.37,6.74,3.38,10.61Z"/>
            </g>
            <path d="M92.67,186.07c1.95,4.8,6.68,9.56,9.98,12.45h-.02c-4.27-1.01-10.89-2.12-15.92-.93-5.93-3.39-9.41-8.33-7.84-11.36s7.6-3.04,13.8-.16Z"/>
            <path d="M106.97,199.71l-.22.43-.03.06-.32.62-.05.1-.78,1.51s-4.29.85-4.95,1.02c-3.06.8-6.39,1.33-8.91,3.4-2.41,1.96-3.46,4.04-5.44,6.41-.52.62-1.08,1.22-1.78,1.62-3.62,2.06-6.41-3.11-6.41-6.09-.01-2.82,1.46-5.57,3.05-7.8,1.25-1.78,3.25-2.84,5.58-3.39,5.03-1.19,11.65-.08,15.93.93h.01c2.6.61,4.32,1.18,4.32,1.18Z"/>
            <path d="M105.49,174.27c.08.8-.08,1.61-.29,2.4-.79,2.98-1.88,5.03-2.09,8.14-.23,3.24,1.27,6.26,2.37,9.22.25.65,2.03,4.63,2.03,4.63l-.54,1.05s-1.72-.57-4.32-1.18c-3.3-2.9-8.03-7.66-9.98-12.45-.9-2.22-1.2-4.46-.47-6.52.91-2.59,2.31-5.38,4.62-7,2.42-1.71,8.26-2.43,8.67,1.71Z"/>
          </g>
          <path d="M72.63,291.95c2.63,4.46,8.01,8.47,11.71,10.84h-.01c-4.38-.37-11.09-.49-15.88,1.43-6.37-2.48-10.53-6.85-9.43-10.08s7.07-4.13,13.62-2.2Z"/>
          <path d="M88.04,303.21c-.85.91-1.29,2.13-1.22,3.36-1.25.45-3.33,1.21-3.78,1.4-2.9,1.24-6.11,2.25-8.3,4.67-2.1,2.31-2.83,4.52-4.44,7.15-.41.69-.88,1.37-1.52,1.87-3.29,2.56-6.8-2.14-7.24-5.08-.43-2.78.62-5.73,1.85-8.17.99-1.95,2.8-3.29,5.03-4.18,4.79-1.92,11.5-1.79,15.88-1.42h.01c1.64.14,2.95.31,3.71.41Z"/>
          <path d="M89.16,302.21l-.05.15h-.01c-.4.23-.76.52-1.06.85-.76-.1-2.07-.28-3.71-.41h-.01c-.69-.45-1.45-.95-2.22-1.51-.52-.37-1.06-.76-1.59-1.16-2.96-2.26-6.07-5.11-7.88-8.18-1.22-2.07-1.85-4.24-1.44-6.38.53-2.7,1.49-5.65,3.54-7.61,2.14-2.05,7.8-3.63,8.82.41.2.78.16,1.61.07,2.41-.34,3.07-1.11,5.25-.87,8.37.25,3.24,2.18,6,3.71,8.77.34.6,2.69,4.29,2.69,4.29Z"/>
          <path d="M150.45,313.89l-2.23-1.79,1.91-2.14c2.22-2.47,1.15-6.4-2.01-7.4l-2.73-.87,1.01-2.68c1.17-3.1-1.24-6.38-4.55-6.17l-2.87.17-.02-2.86c-.02-3.32-3.46-5.5-6.47-4.11l-2.61,1.21-1.06-2.67c-1.23-3.08-5.22-3.87-7.53-1.49l-2,2.06-1.94-2.1c-2.25-2.42-6.27-1.72-7.56,1.33l-1.11,2.64-2.57-1.26c-2.99-1.45-6.47.65-6.57,3.98l-.08,2.86-2.86-.24c-3.3-.28-5.79,2.94-4.69,6.07l.95,2.71-2.75.8c-.36.1-.69.25-.99.43h-.01c-.4.23-.76.52-1.06.85-.85.91-1.29,2.13-1.22,3.36.05.95.39,1.92,1.09,2.72l1.87,2.18-2.28,1.75c-2.63,2.01-2.3,6.08.62,7.64l2.53,1.36-1.49,2.45c-1.71,2.84.06,6.5,3.36,6.91l2.84.36-.51,2.82c-.57,3.26,2.4,6.04,5.62,5.23l2.78-.7.55,2.82c.63,3.25,4.41,4.77,7.12,2.85l2.33-1.65,1.53,2.42c1.77,2.8,5.85,2.85,7.68.08l1.59-2.39,2.3,1.71c2.67,1.98,6.48.54,7.18-2.7l.61-2.8,2.77.77c3.19.87,6.24-1.84,5.72-5.11l-.44-2.83,2.85-.29c1.14-.11,2.1-.62,2.8-1.36.84-.85,1.31-2.01,1.31-3.21,0-.77-.2-1.54-.62-2.28l-1.44-2.48,2.56-1.3c2.95-1.51,3.37-5.55.78-7.63ZM126.25,317.1c-1.41,4.11-5.88,6.31-10,4.91-4.11-1.4-6.31-5.87-4.91-9.99,1.41-4.11,5.88-6.31,10-4.91,4.11,1.4,6.31,5.87,4.91,9.99Z"/>
        </g>
        <g>
          <path d="M95.53,442.01c-7.24-15.31-24.95,4.72-24.95,11.24s17.71,26.54,24.95,11.24c0,0,23.37,5.66,25.55-11.24-2.18-16.9-25.55-11.24-25.55-11.24ZM91.79,460.99c-5,10.54-17.19-3.25-17.19-7.74s12.19-18.28,17.19-7.74c0,0,16.1-3.9,17.6,7.74-1.51,11.64-17.6,7.74-17.6,7.74Z"/>
          <path d="M165.85,454.99c.85-.54,1.54-1.23,2.06-2,.77-1.15,1.15-2.48,1.15-3.81,0-2.48-1.3-4.94-3.84-6.2,1.48-1.4,2.17-3.22,2.17-5.01,0-2.93-1.84-5.79-5.06-6.69.91-1.25,1.31-2.65,1.31-4.02,0-3.39-2.53-6.6-6.35-6.91,2.15-4.64-1.29-9.82-6.24-9.82-.25,0-.52.01-.78.05,1.13-4.52-2.39-8.59-6.68-8.59-.68,0-1.37.1-2.07.32.22-4.17-3.17-7.3-6.92-7.3-1.07,0-2.18.26-3.24.83-.51-3.67-3.62-5.98-6.87-5.98-1.49,0-3.01.48-4.32,1.54-1.03-3.02-3.78-4.69-6.57-4.69-1.92,0-3.85.78-5.26,2.46-1.33-2.33-3.67-3.49-6.01-3.49s-4.71,1.18-6.03,3.54c-1.41-1.64-3.33-2.41-5.23-2.41-2.82,0-5.57,1.69-6.58,4.73-1.31-1.03-2.8-1.51-4.27-1.51-3.29,0-6.41,2.34-6.88,6.03-4.64-2.42-10.12.98-10.12,6.11,0,.15,0,.29.01.44-4.56-1.37-8.89,2.15-8.89,6.6,0,.56.07,1.15.22,1.75-4.27-.44-7.62,3-7.62,6.87,0,.98.22,1.99.68,2.96-3.8.34-6.31,3.54-6.31,6.92,0,1.38.43,2.79,1.34,4.06-3.18.92-5.01,3.76-5.01,6.66,0,1.8.71,3.64,2.22,5.04-.74.38-1.38.86-1.9,1.41-1.25,1.31-1.88,3.03-1.88,4.76,0,.33.02.68.07,1.01.11.77.34,1.52.71,2.22.55,1.02,1.37,1.94,2.47,2.63-1.6,1.24-2.46,2.98-2.62,4.76-.03.23-.05.45-.05.68,0,2.69,1.55,5.37,4.44,6.48-1.18,1.34-1.72,2.95-1.72,4.53,0,3.16,2.17,6.19,5.7,6.83-2.7,4.63.65,10.41,5.98,10.41h.09c-1.63,4.6,1.88,9.22,6.48,9.22.47,0,.95-.05,1.44-.15-.65,4.37,2.82,7.94,6.83,7.94.87,0,1.77-.17,2.67-.54.17,3.94,3.44,6.64,6.94,6.64,1.28,0,2.59-.37,3.79-1.16.79,3.34,3.73,5.32,6.76,5.32,1.7,0,3.42-.62,4.8-1.98,1.21,2.68,3.76,4.08,6.32,4.08,2.14,0,4.29-.98,5.68-2.98,1.39,1.98,3.52,2.93,5.64,2.93,2.57,0,5.15-1.42,6.34-4.13,1.38,1.33,3.08,1.94,4.77,1.94,3.03,0,5.99-2,6.77-5.38,1.2.77,2.48,1.13,3.75,1.13,3.52,0,6.79-2.73,6.93-6.69,4.99,2.02,10.27-2.17,9.43-7.48,4.46.88,8.27-2.62,8.27-6.77,0-.77-.14-1.57-.43-2.37,4.07.02,6.96-3.31,6.96-6.93,0-1.18-.3-2.39-.98-3.53,3.5-.65,5.65-3.69,5.65-6.83,0-1.59-.55-3.21-1.76-4.56,2.85-1.13,4.38-3.78,4.38-6.46,0-2.02-.87-4.06-2.71-5.47ZM103.65,482.75c-19.94,0-35.52-15.32-35.52-30.65s13.78-31.39,33.7-31.39,36.09,12.92,36.09,31.39-14.35,30.65-34.28,30.65Z"/>
          <path d="M95.53,442.01c-7.24-15.31-24.95,4.72-24.95,11.24s17.71,26.54,24.95,11.24c0,0,23.37,5.66,25.55-11.24-2.18-16.9-25.55-11.24-25.55-11.24ZM91.79,460.99c-5,10.54-17.19-3.25-17.19-7.74s12.19-18.28,17.19-7.74c0,0,16.1-3.9,17.6,7.74-1.51,11.64-17.6,7.74-17.6,7.74Z"/>
          <path d="M95.53,442.01c-7.24-15.31-24.95,4.72-24.95,11.24s17.71,26.54,24.95,11.24c0,0,23.37,5.66,25.55-11.24-2.18-16.9-25.55-11.24-25.55-11.24ZM91.79,460.99c-5,10.54-17.19-3.25-17.19-7.74s12.19-18.28,17.19-7.74c0,0,16.1-3.9,17.6,7.74-1.51,11.64-17.6,7.74-17.6,7.74Z"/>
          <g>
            <path d="M36.84,452.86c-.32.1-.55.18-.6.21-.21.09-.41.17-.62.28h-.01c-2.55,1.14-4.95,2.68-7.03,4.53-4.85,4.35-7.6,10.67-8.15,17.14-2.45,2.62-6.81-.55-8.08-3.08-1.25-2.5-1.18-5.63-.76-8.34.33-2.15,1.65-3.99,3.49-5.52.28-.24.56-.47.87-.68.3-.23.61-.45.93-.64.25-.16.51-.32.76-.46.2-.13.39-.25.6-.36.11-.06.25-.13.38-.2.23-.14.48-.25.72-.38,1.28-.64,2.62-1.19,3.94-1.67.67-.23,1.31-.47,1.95-.67.64-.21,1.29-.39,1.9-.57.62-.17,1.21-.32,1.77-.46.29-.07.57-.14.84-.2h.01c1.3-.32,3.75-.91,5.88-1.4.16.09.32.17.48.24.11.77.34,1.52.71,2.22Z"/>
            <path d="M21.1,428.3c.37,6.49,2.93,12.88,7.66,17.37,2.03,1.91,4.39,3.52,6.9,4.73-2.14.5-4.59,1.08-5.89,1.39-.53-.15-1.09-.29-1.68-.47-.29-.08-.6-.17-.89-.27-.31-.1-.62-.19-.93-.3-.97-.31-1.98-.67-2.98-1.08-.3-.12-.58-.24-.88-.37-.66-.27-1.31-.57-1.96-.89-.26-.12-.51-.26-.76-.39-.26-.13-.51-.27-.76-.42-.22-.11-.43-.24-.65-.38-.36-.2-.73-.44-1.08-.68-.15-.09-.31-.2-.44-.31-.19-.13-.39-.27-.57-.42-.16-.13-.32-.25-.47-.37-.15-.12-.28-.23-.42-.35-1.79-1.59-3.06-3.46-3.33-5.62-.34-2.72-.33-5.84,1-8.32,1.33-2.49,5.79-5.54,8.15-2.85Z"/>
          </g>
          <path d="M187.44,481.17s-.02.11-.07.28c-1.24,4.91-18.96,72.57-50.93,77.8,4.31-5.19,6.15-11.74,4.95-18.6-1.92-10.86-9.04-17.51-18.53-17.32-3.75.07-7.27,1.47-9.68,3.85-2.72,2.7-3.75,6.29-4.13,8.8-1.28,8.54.62,16.62,5.08,21.6,3.59,4.02,7.79,5.17,12.11,5.44,0,0,0,0,0,0-24.12,12.03-41.14,14.89-62.51-5.03-.7-.65-1.79-.61-2.44.09-.65.69-.62,1.78.08,2.44,12.21,11.38,23.35,15.44,33.94,15.44s21.42-4.39,31.84-9.55c1.99-.98,3.79-2.13,5.4-3.4h.62c30.25-.75,48.5-50.25,54.97-71.55,1.6-5.29,2.47-8.84,2.63-9.48l-.07-.1c-1.17-.18-2.28-.43-3.29-.71ZM137.3,550.77c-2.29,6.73-9.79,10.45-16.32,7.64-1.52-.66-2.95-1.64-4.27-3.12-3.79-4.24-5.38-11.27-4.24-18.8.3-2.01,1.09-4.84,3.14-6.87,1.78-1.76,4.45-2.79,7.31-2.85h.32c7.65,0,13.16,5.39,14.75,14.47.58,3.31.32,6.54-.69,9.53Z"/>
          <circle cx="79.39" cy="552.96" r="7.45"/>
          <circle cx="47.69" cy="547.57" r="7.45"/>
          <circle cx="67.15" cy="577.92" r="7.45"/>
          <circle cx="84.85" cy="453.25" r="5.77"/>
        </g>
      </g>
      <g>
        <g>
          <g>
            <path d="M286.96,200.19l.32.62c-.05-.09-.09-.18-.14-.28-.06-.11-.11-.23-.18-.34Z"/>
            <path d="M230.22,229.97c.34.67.7,1.31,1.08,1.94.63,1.03,1.31,2.01,2.02,2.95,9.28,12.01,26.11,16.06,40.07,8.85,15.59-8.05,21.77-27.14,13.94-42.79l-.05-.1-.32-.62-.03-.06c-8.24-15.42-27.37-21.4-42.95-13.34-15.72,8.12-21.88,27.45-13.75,43.17ZM255.06,208.26c3.86-2,8.61-.48,10.61,3.38,2,3.86.48,8.61-3.38,10.61-3.86,1.99-8.61.48-10.61-3.38-1.99-3.86-.48-8.61,3.38-10.61Z"/>
          </g>
          <path d="M301,186.07c-1.95,4.8-6.68,9.56-9.98,12.45h.02c4.27-1.01,10.89-2.12,15.92-.93,5.93-3.39,9.41-8.33,7.84-11.36s-7.6-3.04-13.8-.16Z"/>
          <path d="M286.7,199.71l.22.43.03.06.32.62.05.1.78,1.51s4.29.85,4.95,1.02c3.06.8,6.39,1.33,8.91,3.4,2.41,1.96,3.46,4.04,5.44,6.41.52.62,1.08,1.22,1.78,1.62,3.62,2.06,6.41-3.11,6.41-6.09.01-2.82-1.46-5.57-3.05-7.8-1.25-1.78-3.25-2.84-5.58-3.39-5.03-1.19-11.65-.08-15.93.93h-.01c-2.6.61-4.32,1.18-4.32,1.18Z"/>
          <path d="M288.19,174.27c-.08.8.08,1.61.29,2.4.79,2.98,1.88,5.03,2.09,8.14.23,3.24-1.27,6.26-2.37,9.22-.25.65-2.03,4.63-2.03,4.63l.54,1.05s1.72-.57,4.32-1.18c3.3-2.9,8.03-7.66,9.98-12.45.9-2.22,1.2-4.46.47-6.52-.91-2.59-2.31-5.38-4.62-7-2.42-1.71-8.26-2.43-8.67,1.71Z"/>
          <path d="M321.04,291.95c-2.63,4.46-8.01,8.47-11.71,10.84h.01c4.38-.37,11.09-.49,15.88,1.43,6.37-2.48,10.53-6.85,9.43-10.08s-7.07-4.13-13.62-2.2Z"/>
          <path d="M305.63,303.21c.85.91,1.29,2.13,1.22,3.36,1.25.45,3.33,1.21,3.78,1.4,2.9,1.24,6.11,2.25,8.3,4.67,2.1,2.31,2.83,4.52,4.44,7.15.41.69.88,1.37,1.52,1.87,3.29,2.56,6.8-2.14,7.24-5.08.43-2.78-.62-5.73-1.85-8.17-.99-1.95-2.8-3.29-5.03-4.18-4.79-1.92-11.5-1.79-15.88-1.42h-.01c-1.64.14-2.95.31-3.71.41Z"/>
          <path d="M304.51,302.21l.05.15h.01c.4.23.76.52,1.06.85.76-.1,2.07-.28,3.71-.41h.01c.69-.45,1.45-.95,2.22-1.51.52-.37,1.06-.76,1.59-1.16,2.96-2.26,6.07-5.11,7.88-8.18,1.22-2.07,1.85-4.24,1.44-6.38-.53-2.7-1.49-5.65-3.54-7.61-2.14-2.05-7.8-3.63-8.82.41-.2.78-.16,1.61-.07,2.41.34,3.07,1.11,5.25.87,8.37-.25,3.24-2.18,6-3.71,8.77-.34.6-2.69,4.29-2.69,4.29Z"/>
          <path d="M244,321.52l2.56,1.3-1.44,2.48c-.43.74-.62,1.51-.62,2.28,0,1.2.47,2.36,1.31,3.21.7.74,1.67,1.24,2.8,1.36l2.85.29-.44,2.83c-.52,3.27,2.53,5.99,5.72,5.11l2.77-.77.61,2.8c.7,3.24,4.52,4.68,7.18,2.7l2.3-1.71,1.59,2.39c1.83,2.77,5.91,2.72,7.68-.08l1.53-2.42,2.33,1.65c2.71,1.92,6.49.4,7.12-2.85l.55-2.82,2.78.7c3.22.82,6.19-1.96,5.62-5.23l-.51-2.82,2.84-.36c3.3-.4,5.07-4.07,3.36-6.91l-1.49-2.45,2.53-1.36c2.92-1.56,3.25-5.63.62-7.64l-2.28-1.75,1.87-2.18c.7-.8,1.05-1.77,1.09-2.72.07-1.23-.37-2.45-1.22-3.36-.3-.33-.65-.62-1.06-.85h-.01c-.3-.17-.63-.32-.99-.43l-2.75-.8.95-2.71c1.1-3.13-1.39-6.34-4.69-6.07l-2.86.24-.08-2.86c-.1-3.32-3.59-5.42-6.57-3.98l-2.57,1.26-1.11-2.64c-1.29-3.06-5.31-3.76-7.56-1.33l-1.94,2.1-2-2.06c-2.31-2.38-6.3-1.59-7.53,1.49l-1.06,2.67-2.61-1.21c-3.01-1.39-6.45.79-6.47,4.11l-.02,2.86-2.87-.17c-3.31-.21-5.72,3.07-4.55,6.17l1.01,2.68-2.73.87c-3.16,1-4.23,4.93-2.01,7.4l1.91,2.14-2.23,1.79c-2.59,2.08-2.17,6.12.78,7.63ZM272.33,307.11c4.11-1.4,8.58.79,10,4.91,1.4,4.11-.79,8.58-4.91,9.99-4.11,1.4-8.58-.79-10-4.91-1.4-4.11.79-8.58,4.91-9.99Z"/>
        </g>
        <g>
          <path d="M272.58,453.25c2.18,16.9,25.55,11.24,25.55,11.24,7.24,15.31,24.95-4.72,24.95-11.24s-17.71-26.54-24.95-11.24c0,0-23.37-5.66-25.55,11.24ZM284.28,453.25c1.51-11.64,17.6-7.74,17.6-7.74,5-10.54,17.19,3.25,17.19,7.74s-12.19,18.28-17.19,7.74c0,0-16.1,3.9-17.6-7.74Z"/>
          <path d="M356.83,452.86c.32.1.55.18.6.21.21.09.41.17.62.28h.01c2.55,1.14,4.95,2.68,7.03,4.53,4.85,4.35,7.6,10.67,8.15,17.14,2.45,2.62,6.81-.55,8.08-3.08,1.25-2.5,1.18-5.63.76-8.34-.33-2.15-1.65-3.99-3.49-5.52-.28-.24-.56-.47-.87-.68-.3-.23-.61-.45-.93-.64-.25-.16-.51-.32-.76-.46-.2-.13-.39-.25-.6-.36-.11-.06-.25-.13-.38-.2-.23-.14-.48-.25-.72-.38-1.28-.64-2.62-1.19-3.94-1.67-.67-.23-1.31-.47-1.95-.67-.64-.21-1.29-.39-1.9-.57-.62-.17-1.21-.32-1.77-.46-.29-.07-.57-.14-.84-.2h-.01c-1.3-.32-3.75-.91-5.88-1.4-.16.09-.32.17-.48.24-.11.77-.34,1.52-.71,2.22Z"/>
          <path d="M225.11,460.45c0,2.68,1.53,5.33,4.38,6.46-1.21,1.36-1.76,2.98-1.76,4.56,0,3.14,2.15,6.17,5.65,6.83-.68,1.14-.98,2.34-.98,3.53,0,3.62,2.9,6.95,6.96,6.93-.29.79-.43,1.6-.43,2.37,0,4.15,3.81,7.65,8.27,6.77-.84,5.31,4.45,9.5,9.43,7.48.14,3.95,3.41,6.69,6.93,6.69,1.26,0,2.55-.36,3.75-1.13.78,3.38,3.73,5.38,6.77,5.38,1.69,0,3.39-.61,4.77-1.94,1.19,2.7,3.77,4.13,6.34,4.13,2.13,0,4.25-.95,5.64-2.93,1.39,2,3.54,2.98,5.68,2.98,2.56,0,5.11-1.4,6.32-4.08,1.38,1.36,3.1,1.98,4.8,1.98,3.02,0,5.96-1.98,6.76-5.32,1.21.79,2.52,1.16,3.79,1.16,3.5,0,6.77-2.7,6.94-6.64.9.37,1.79.54,2.67.54,4.01,0,7.48-3.57,6.83-7.94.48.1.97.15,1.44.15,4.6,0,8.11-4.62,6.48-9.22h.09c5.32,0,8.68-5.78,5.98-10.41,3.53-.63,5.7-3.67,5.7-6.83,0-1.57-.54-3.18-1.72-4.53,2.88-1.11,4.44-3.79,4.44-6.48,0-.23-.01-.45-.05-.68-.16-1.78-1.02-3.52-2.62-4.76,1.1-.69,1.92-1.61,2.47-2.63.37-.7.6-1.45.71-2.22.05-.33.07-.68.07-1.01,0-1.72-.63-3.45-1.88-4.76-.52-.55-1.16-1.03-1.9-1.41,1.51-1.4,2.22-3.24,2.22-5.04,0-2.91-1.83-5.75-5.01-6.66.92-1.26,1.34-2.68,1.34-4.06,0-3.38-2.5-6.57-6.31-6.92.46-.98.68-1.99.68-2.96,0-3.87-3.34-7.31-7.62-6.87.15-.6.22-1.18.22-1.75,0-4.45-4.33-7.96-8.89-6.6.01-.15.01-.29.01-.44,0-5.14-5.48-8.54-10.12-6.11-.47-3.69-3.6-6.03-6.88-6.03-1.47,0-2.96.47-4.27,1.51-1.01-3.05-3.77-4.73-6.58-4.73-1.9,0-3.81.77-5.23,2.41-1.32-2.36-3.68-3.54-6.03-3.54s-4.68,1.16-6.01,3.49c-1.41-1.68-3.34-2.46-5.26-2.46-2.79,0-5.54,1.67-6.57,4.69-1.31-1.06-2.83-1.54-4.32-1.54-3.25,0-6.37,2.31-6.87,5.98-1.06-.56-2.17-.83-3.24-.83-3.75,0-7.14,3.13-6.92,7.3-.7-.22-1.39-.32-2.07-.32-4.29,0-7.8,4.08-6.68,8.59-.26-.03-.53-.05-.78-.05-4.95,0-8.39,5.18-6.24,9.82-3.83.31-6.35,3.52-6.35,6.91,0,1.37.4,2.77,1.31,4.02-3.22.9-5.06,3.76-5.06,6.69,0,1.79.69,3.61,2.17,5.01-2.54,1.26-3.84,3.72-3.84,6.2,0,1.33.38,2.67,1.15,3.81.52.77,1.21,1.46,2.06,2-1.84,1.41-2.71,3.45-2.71,5.47ZM255.75,452.1c0-18.48,16.16-31.39,36.09-31.39,19.92,0,33.7,16.06,33.7,31.39s-15.58,30.65-35.52,30.65c-19.92,0-34.28-12.17-34.28-30.65Z"/>
          <path d="M372.57,428.3c-.37,6.49-2.93,12.88-7.66,17.37-2.03,1.91-4.39,3.52-6.9,4.73,2.14.5,4.59,1.08,5.89,1.39.53-.15,1.09-.29,1.68-.47.29-.08.6-.17.89-.27.31-.1.62-.19.93-.3.97-.31,1.98-.67,2.98-1.08.3-.12.58-.24.88-.37.66-.27,1.31-.57,1.96-.89.26-.12.51-.26.76-.39.26-.13.51-.27.76-.42.22-.11.43-.24.65-.38.36-.2.73-.44,1.08-.68.15-.09.31-.2.44-.31.19-.13.39-.27.57-.42.16-.13.32-.25.47-.37.15-.12.28-.23.42-.35,1.79-1.59,3.06-3.46,3.33-5.62.34-2.72.33-5.84-1-8.32-1.33-2.49-5.79-5.54-8.15-2.85Z"/>
          <path d="M272.58,453.25c2.18,16.9,25.55,11.24,25.55,11.24,7.24,15.31,24.95-4.72,24.95-11.24s-17.71-26.54-24.95-11.24c0,0-23.37-5.66-25.55,11.24ZM284.28,453.25c1.51-11.64,17.6-7.74,17.6-7.74,5-10.54,17.19,3.25,17.19,7.74s-12.19,18.28-17.19,7.74c0,0-16.1,3.9-17.6-7.74Z"/>
          <path d="M272.58,453.25c2.18,16.9,25.55,11.24,25.55,11.24,7.24,15.31,24.95-4.72,24.95-11.24s-17.71-26.54-24.95-11.24c0,0-23.37-5.66-25.55,11.24ZM284.28,453.25c1.51-11.64,17.6-7.74,17.6-7.74,5-10.54,17.19,3.25,17.19,7.74s-12.19,18.28-17.19,7.74c0,0-16.1,3.9-17.6-7.74Z"/>
          <path d="M202.95,481.88l-.07.1c.16.64,1.03,4.19,2.63,9.48,6.47,21.3,24.72,70.8,54.97,71.54h.62c1.61,1.29,3.41,2.44,5.4,3.41,10.42,5.16,20.84,9.55,31.84,9.55,10.59,0,21.73-4.07,33.94-15.44.7-.65.74-1.75.08-2.44-.64-.7-1.74-.75-2.44-.09-21.37,19.92-38.39,17.06-62.51,5.03,0,0,0,0,0,0,4.32-.26,8.53-1.41,12.11-5.44,4.46-4.99,6.35-13.06,5.08-21.6-.38-2.52-1.4-6.1-4.13-8.8-2.4-2.38-5.93-3.78-9.68-3.85-9.49-.2-16.62,6.46-18.53,17.32-1.19,6.86.64,13.41,4.95,18.6-31.97-5.23-49.69-72.9-50.93-77.8-.05-.16-.07-.25-.07-.28-1.01.28-2.12.53-3.29.71ZM255.68,541.25c1.6-9.08,7.1-14.47,14.75-14.47h.32c2.86.06,5.53,1.09,7.31,2.85,2.05,2.03,2.84,4.86,3.14,6.87,1.14,7.53-.45,14.56-4.24,18.8-1.32,1.47-2.74,2.46-4.27,3.12-6.53,2.81-14.03-.91-16.32-7.64-1.01-2.99-1.28-6.22-.69-9.53Z"/>
          <circle cx="314.28" cy="552.96" r="7.45"/>
          <circle cx="345.98" cy="547.57" r="7.45"/>
          <circle cx="326.52" cy="577.92" r="7.45"/>
          <circle cx="308.82" cy="453.25" r="5.77"/>
        </g>
      </g>
    </g>
    <g>
      <path d="M226.72,15.62c2.68,0,5.02,2.5,4.53,5.45-.4,2.42-1.32,5.89-3.31,10.46-.72,1.64-1.59,3.44-2.61,5.37-3.65,6.88-3.6,14.67-2.63,20.75.06.4.13.79.21,1.18.01.05.02.09.02.14.09.48.18.95.29,1.41.05.23.1.45.15.68.24,1.06.49,2.02.76,2.87.01.05.02.09.03.14.1.36.21.69.3,1,.01.02.02.03.02.06.08.25.16.48.23.7.1.32.21.6.3.85.17.45.3.79.39,1.03.02.06.03.1.06.14.02.05.05.09.05.11.01.05.02.08.03.08h0c6.58,15.03,3.21,35.15-8.14,46.9-1.38,1.44-2.88,2.75-4.49,3.9-4.84,3.46-10.46,5.19-16.08,5.19s-11.24-1.74-16.08-5.19c-14.88-10.66-20.03-33.94-12.64-50.79,0,0,2.14-4.94,3.02-11.65.78-5.87.6-13.09-2.82-19.51-1.05-1.95-1.91-3.77-2.63-5.42-1.98-4.54-2.88-7.97-3.27-10.4-.5-2.95,1.83-5.45,4.52-5.45.61,0,1.23.13,1.85.41,3,1.37,6.42,5.48,8.88,15.97,4.84,20.73-.59,31.06-1.75,32.95-.29.21-.56.44-.84.68-.59.51-1.14,1.07-1.63,1.69-.13.15-.25.32-.37.48-.14.17-.26.34-.38.53-.09.11-.17.24-.24.37-.15.22-.3.46-.41.7-.01.02-.02.03-.03.06-.06.08-.11.17-.15.26,0,.01-.01.01-.01.02-.14.22-.25.45-.34.68-.08.15-.15.3-.22.46-.07.13-.11.25-.17.39-.1.23-.2.47-.29.71-.05.11-.09.23-.13.34-.11.32-.23.65-.33.99-2.36,7.65-2.94,15.86-.54,23.59.03.13.08.25.13.38,0,.02,0,.03.01.06.03.1.07.21.1.31.11.34.23.69.36,1.02.11.3.23.61.34.91.46,1.21,1,2.38,1.61,3.54.24.47.51.94.78,1.41,1.71,2.94,3.65,5.29,5.66,7.16.28.26.56.52.84.76,1.13,1.02,2.31,1.94,3.57,2.77,3.3,2.16,6.97,3.54,10.9,3.95.26.03.54.06.8.07.14.01.28.02.41.02.32.02.64.03.97.03h.54c.33,0,.67-.01,1-.02.28,0,.54-.02.82-.06.22-.01.45-.02.67-.06.65-.06,1.3-.15,1.93-.26,1.17-.22,2.32-.52,3.45-.9.21-.07.41-.14.62-.22.37-.14.72-.28,1.07-.43.37-.15.72-.31,1.08-.48.32-.15.64-.32.97-.49.33-.17.67-.36.99-.55.33-.2.65-.4.98-.61,1.26-.83,2.45-1.75,3.57-2.77.28-.24.56-.49.84-.76,2.01-1.87,3.94-4.22,5.65-7.16.28-.47.54-.94.78-1.41.32-.6.62-1.21.88-1.83.38-.8.71-1.62,1.01-2.45.09-.23.17-.46.25-.7.09-.26.18-.54.28-.8.05-.15.09-.29.14-.44,2.4-7.73,1.82-15.94-.54-23.59-1.13-3.68-2.98-6.48-5.57-8.38-1.17-1.92-6.56-12.25-1.74-32.94,2.46-10.49,5.88-14.6,8.88-15.97.61-.28,1.24-.41,1.85-.41M226.72,12.62h0c-1.06,0-2.1.23-3.09.68-4.77,2.18-8.23,8.07-10.56,18.02-4.97,21.33.35,32.33,2.1,35.19l.31.51.48.35c2.06,1.51,3.53,3.74,4.47,6.83,2.38,7.75,2.57,15.29.54,21.82l-.06.19-.06.19-.13.38-.13.38c-.07.22-.13.4-.2.57l-.02.05-.02.05c-.28.78-.58,1.5-.9,2.19l-.02.05-.02.05c-.22.51-.47,1.02-.77,1.58v.03s-.03.03-.03.03c-.19.37-.42.79-.7,1.27-1.45,2.5-3.17,4.67-5.11,6.48-.27.26-.53.48-.77.7l-.02.02-.02.02c-1.02.93-2.07,1.74-3.2,2.48-.27.17-.55.36-.85.53-.28.17-.55.32-.85.47-.31.17-.58.31-.85.44-.36.18-.66.31-.95.42h-.03s-.03.03-.03.03c-.3.13-.61.25-.93.37-.19.08-.36.13-.52.18-1,.34-2.02.6-3.05.79-.57.1-1.12.18-1.64.23h-.1s-.1.03-.1.03c-.06,0-.23.02-.34.02h-.11s-.12.02-.12.02c-.19.02-.33.03-.44.03h-.1c-.3.01-.6.02-.9.02h-.54c-.25,0-.5,0-.75-.03h-.11s-.11,0-.11,0c-.05,0-.11,0-.16-.01h-.06s-.06,0-.06,0c-.19,0-.38-.02-.55-.05h-.04s-.04,0-.04,0c-3.37-.35-6.59-1.53-9.57-3.48-1.13-.74-2.18-1.55-3.2-2.48l-.02-.02-.02-.02c-.24-.21-.5-.43-.74-.67-1.99-1.85-3.71-4.03-5.15-6.5-.28-.49-.51-.9-.7-1.27-.6-1.14-1.08-2.19-1.48-3.24l-.17-.45-.18-.47c-.09-.25-.18-.51-.27-.78v-.06s-.18-.5-.18-.5c-.02-.05-.04-.1-.05-.15v-.05s-.03-.04-.03-.04c-2.03-6.53-1.84-14.08.54-21.82.09-.29.19-.58.29-.86l.03-.07.02-.07s.02-.05.04-.09v-.02s.02-.02.02-.02c.07-.19.14-.37.22-.55l.02-.04.02-.04.05-.12.02-.04.04-.07.06-.13c.03-.08.06-.15.1-.22l.08-.15.06-.16.57-.57v-.46s.05-.07.08-.12l.09-.12.06-.11.07-.09.09-.15c.04-.07.1-.15.18-.24l.05-.06.05-.07c.07-.1.14-.2.22-.29l.03-.03.03-.03c.36-.45.78-.88,1.24-1.29.27-.24.46-.39.63-.51l.49-.35.32-.52c1.75-2.86,7.09-13.87,2.11-35.2-2.33-9.95-5.79-15.84-10.56-18.02-.99-.45-2.03-.68-3.09-.68-2.21,0-4.31.99-5.77,2.71-1.46,1.73-2.08,4-1.71,6.24.53,3.26,1.7,7,3.48,11.1.85,1.95,1.75,3.79,2.74,5.64,2.57,4.83,3.41,10.79,2.49,17.7-.81,6.18-2.78,10.81-2.8,10.86-3.87,8.83-4.65,19.35-2.19,29.6,2.52,10.49,8.14,19.3,15.84,24.81,5.27,3.77,11.43,5.76,17.82,5.76s12.56-1.99,17.82-5.75c1.74-1.24,3.39-2.68,4.91-4.26,11.89-12.33,15.7-33.53,8.97-49.59v-2.38h-.92c-.02-.05-.03-.1-.05-.15-.03-.08-.05-.17-.09-.26v-.32l-.25-.43-.02-.06c-.05-.17-.11-.35-.16-.54h0s-.02-.08-.02-.08l-.02-.08-.02-.08c-.23-.74-.46-1.62-.69-2.62-.03-.13-.06-.25-.08-.38-.02-.08-.04-.17-.06-.25v-.04s-.01-.03-.01-.03c-.09-.39-.16-.78-.24-1.18-.02-.14-.04-.26-.07-.36-.07-.33-.12-.64-.17-.96-.82-5.14-1.07-12.55,2.31-18.92,1-1.88,1.91-3.75,2.7-5.56,1.79-4.11,2.97-7.87,3.52-11.17.37-2.24-.26-4.51-1.72-6.23-1.46-1.72-3.56-2.71-5.77-2.71h0Z"/>
      <path d="M196.84,469.31c.64,0,1.28.01,1.91.05.49.02.99.06,1.47.1,3.49.29,6.58,1.02,8.86,2.05,2.56,1.15,4.11,2.65,4.11,4.32,0,2.19-2.7,4.13-6.84,5.31-2.05.59-4.44.99-7.02,1.14-.36.02-.71.05-1.07.06-.17,0-.34.01-.52.01-.3.01-.6.01-.91.01s-.61,0-.91-.01c-.17,0-.34-.01-.52-.01-.36-.01-.71-.03-1.07-.06-1.23-.07-2.41-.2-3.54-.38-1.2-.18-2.33-.44-3.37-.72-.05-.01-.09-.02-.13-.03-4.14-1.18-6.83-3.11-6.83-5.31,0-1.65,1.54-3.16,4.1-4.31,2.28-1.03,5.37-1.77,8.87-2.06.54-.06,1.1-.09,1.65-.11h.18c.51-.02,1.02-.03,1.54-.03M196.84,466.31c-.54,0-1.08.01-1.61.03h-.24c-.69.03-1.28.07-1.81.13-3.79.31-7.19,1.11-9.83,2.31-5.1,2.29-5.86,5.39-5.86,7.04,0,2.1,1.17,5.95,8.98,8.19.06.02.13.04.2.05,1.21.33,2.44.6,3.68.79,1.2.2,2.49.33,3.83.41.36.02.75.05,1.14.06h.05s.05,0,.05,0c.05,0,.11,0,.16,0,.1,0,.2,0,.3,0,.32.01.64.01.97.01s.65,0,.97-.01c.1,0,.2,0,.3,0,.05,0,.11,0,.16,0h.1c.39-.01.78-.04,1.17-.06,2.7-.16,5.35-.59,7.65-1.25,7.84-2.24,9.01-6.1,9.01-8.19,0-1.65-.76-4.76-5.89-7.06-2.65-1.19-6.05-1.99-9.84-2.3-.49-.05-1.03-.08-1.58-.11-.61-.03-1.26-.05-2.05-.05h0Z"/>
      <path d="M15.27,445.1c.14.12.27.23.42.34.15.13.31.25.47.37.18.15.38.29.57.42.14.11.3.21.44.31.35.25.72.48,1.08.68.22.14.43.27.65.38.25.15.51.29.76.42.25.13.5.27.76.39.65.32,1.3.62,1.96.89.3.13.58.25.88.37,1.01.41,2.01.76,2.98,1.08.31.11.62.2.93.3.3.1.61.18.89.27.6.18,1.16.33,1.68.47h-.01c-.27.08-.54.14-.83.21-.57.14-1.15.29-1.78.47-.61.16-1.25.36-1.89.57-.65.2-1.3.42-1.95.66-1.33.48-2.67,1.03-3.94,1.67-.24.12-.5.25-.73.38-.13.07-.25.13-.37.2-.21.1-.41.22-.6.35-.25.15-.51.3-.75.46-.32.2-.64.42-.94.64-.3.21-.59.44-.87.68-6.82-.38-12.13-3.25-12.09-6.67.05-3.4,5.44-6.12,12.27-6.31M16.35,442.07l-1.16.03c-8.87.25-15.11,4.06-15.19,9.26-.07,5.21,6.06,9.2,14.92,9.7l1.2.07.91-.78c.21-.18.43-.35.66-.52l.03-.02.03-.02c.23-.17.48-.34.73-.5.24-.15.45-.28.66-.4l.05-.03.05-.03c.11-.07.25-.16.31-.19l.1-.05.1-.06c.08-.05.17-.09.26-.14l.05-.03.05-.03c.13-.08.28-.15.42-.22l.16-.08c1.08-.54,2.29-1.05,3.6-1.52.6-.22,1.19-.43,1.82-.62.58-.19,1.2-.38,1.79-.54.62-.17,1.17-.32,1.69-.45.3-.07.58-.13.85-.2l.8-.2.59-.57,3.73-3.65-5.01-1.4-.42-.12c-.38-.1-.77-.21-1.18-.33l-.3-.09c-.18-.05-.36-.1-.54-.16-.31-.1-.58-.18-.86-.28h-.04s-.04-.02-.04-.02c-.95-.31-1.89-.64-2.78-1-.27-.11-.53-.21-.79-.33h-.03s-.03-.03-.03-.03c-.58-.24-1.17-.51-1.79-.81l-.04-.02-.04-.02c-.13-.06-.25-.13-.38-.19l-.24-.13c-.19-.1-.39-.21-.58-.32l-.12-.07-.12-.06c-.08-.04-.2-.11-.33-.2l-.09-.06-.1-.05c-.24-.13-.51-.3-.81-.51l-.05-.04-.06-.03c-.07-.05-.15-.1-.22-.15l-.08-.06-.09-.06c-.12-.08-.23-.16-.31-.23l-.25-.2c-.06-.05-.12-.09-.17-.14l-.11-.1-.12-.08c-.07-.05-.14-.12-.21-.17l-.88-.75h0Z"/>
      <path d="M26.39,416.57c1.29,0,2.64.34,3.57,1.24,1.01.97,1.39,2.41,1.54,3.8.55,4.89,1.45,9.8,2.75,14.55.63,2.36,1.36,4.72,2.41,6.92.15.32.7,1.03,1.29,1.79-1.25,1.31-1.88,3.03-1.88,4.76,0,.33.02.68.07,1.01-.16-.07-.32-.15-.48-.24-2.5-1.21-4.86-2.82-6.89-4.73-4.72-4.48-7.28-10.88-7.65-17.36-.16-2.56.02-5.16.55-7.65.2-.97.49-1.98,1.15-2.72.85-.95,2.18-1.33,3.46-1.36.04,0,.09,0,.13,0M26.39,413.57h-.18c-2.32.04-4.33.88-5.65,2.36-1.17,1.34-1.6,2.91-1.85,4.12-.58,2.73-.78,5.58-.61,8.44.43,7.52,3.55,14.58,8.58,19.35,2.24,2.11,4.78,3.87,7.57,5.22.23.13.46.24.69.34l4.88,2.09-.73-5.26c-.03-.19-.04-.4-.04-.6,0-1.02.37-1.97,1.05-2.68l1.78-1.87-1.58-2.04c-.34-.44-.83-1.07-.98-1.31-.99-2.09-1.66-4.37-2.19-6.34-1.21-4.43-2.11-9.17-2.66-14.11-.27-2.47-1.07-4.32-2.45-5.64-1.38-1.33-3.39-2.07-5.64-2.07h0Z"/>
      <path d="M36.84,452.86c.55,1.02,1.37,1.94,2.47,2.63-1.6,1.24-2.46,2.98-2.62,4.76-.14.18-.23.33-.29.44-1.11,2.17-1.91,4.52-2.61,6.85-1.44,4.72-2.47,9.58-3.16,14.47-.2,1.38-.61,2.82-1.65,3.76-.9.82-2.13,1.14-3.35,1.14-.13,0-.25,0-.38,0-1.28-.06-2.6-.47-3.42-1.45-.63-.77-.9-1.78-1.07-2.76-.46-2.5-.56-5.1-.33-7.66.55-6.47,3.3-12.79,8.15-17.14,2.08-1.85,4.48-3.39,7.03-4.53h.01c.21-.1.41-.18.62-.28.05-.02.28-.1.6-.21M38.3,449.24l-2.37.76c-.55.18-.77.26-.92.33h-.01s0,0,0,0l-.06.03-.06.03c-.12.05-.23.1-.35.15l-.12.05c-2.87,1.28-5.49,2.97-7.8,5.03-5.17,4.65-8.5,11.62-9.14,19.13-.26,2.86-.13,5.71.37,8.46.21,1.2.6,2.78,1.7,4.12,1.31,1.55,3.29,2.44,5.61,2.54.16,0,.33.01.51.01,2.15,0,4.01-.67,5.38-1.93,1.39-1.25,2.25-3.07,2.6-5.55.69-4.9,1.72-9.61,3.06-14.01.59-1.96,1.33-4.24,2.37-6.28.01-.02.03-.05.05-.07l.51-.68.08-.85c.09-1.05.62-1.99,1.47-2.66l3.39-2.64-3.64-2.28c-.61-.38-1.08-.89-1.42-1.51l-1.18-2.19h0Z"/>
      <path d="M367.29,416.57s.09,0,.13,0c1.28.02,2.61.4,3.46,1.36.65.75.95,1.76,1.15,2.72.53,2.49.71,5.09.55,7.65-.37,6.48-2.93,12.88-7.65,17.36-2.03,1.92-4.39,3.53-6.89,4.73-.16.09-.32.17-.48.24.05-.33.07-.68.07-1.01,0-1.72-.63-3.45-1.88-4.76.59-.76,1.14-1.47,1.29-1.79,1.06-2.19,1.78-4.56,2.41-6.92,1.3-4.75,2.19-9.65,2.75-14.55.15-1.39.53-2.84,1.54-3.8.93-.9,2.28-1.24,3.57-1.24M367.29,413.57c-2.25,0-4.26.74-5.65,2.08-1.37,1.31-2.17,3.16-2.44,5.64-.55,4.92-1.45,9.66-2.66,14.08-.53,1.99-1.21,4.29-2.2,6.35-.15.24-.64.87-.97,1.29l-1.58,2.04,1.77,1.89c.68.71,1.05,1.66,1.05,2.68,0,.2-.01.41-.04.6l-.73,5.26,4.88-2.09c.23-.1.46-.21.69-.34,2.79-1.35,5.33-3.11,7.57-5.21,5.03-4.78,8.16-11.84,8.59-19.37.18-2.84-.03-5.69-.61-8.44-.24-1.19-.67-2.76-1.83-4.08-1.34-1.5-3.34-2.34-5.66-2.38h-.18Z"/>
      <path d="M356.83,452.86c.32.1.55.18.6.21.21.09.41.17.62.28h.01c2.55,1.14,4.95,2.68,7.03,4.53,4.85,4.35,7.6,10.67,8.15,17.14.23,2.56.13,5.16-.33,7.66-.17.98-.44,1.99-1.07,2.76-.83.98-2.15,1.39-3.42,1.45-.12,0-.25,0-.38,0-1.22,0-2.45-.31-3.35-1.14-1.05-.94-1.46-2.38-1.65-3.76-.69-4.88-1.72-9.74-3.16-14.47-.7-2.33-1.49-4.68-2.61-6.85-.06-.1-.15-.25-.29-.44-.16-1.78-1.02-3.52-2.62-4.76,1.1-.69,1.92-1.61,2.47-2.63M355.37,449.24l-1.18,2.19c-.34.62-.81,1.13-1.42,1.51l-3.64,2.28,3.39,2.64c.85.66,1.38,1.61,1.47,2.66l.08.85.51.68s.04.05.05.08c1.04,2.05,1.78,4.32,2.37,6.27,1.34,4.41,2.37,9.13,3.06,14.02.35,2.48,1.21,4.3,2.62,5.57,1.35,1.24,3.21,1.91,5.36,1.91.18,0,.35,0,.53-.01,2.3-.1,4.28-.99,5.56-2.5,1.13-1.37,1.52-2.95,1.73-4.18.5-2.73.62-5.58.37-8.45-.64-7.5-3.97-14.47-9.13-19.11-2.32-2.07-4.95-3.76-7.81-5.04l-.58-.26h-.03c-.15-.08-.37-.16-.92-.34l-2.37-.76h0Z"/>
      <path d="M378.4,445.1c6.83.19,12.22,2.91,12.27,6.31.05,3.41-5.27,6.28-12.09,6.67-.28-.24-.57-.46-.87-.68-.3-.23-.62-.44-.94-.64-.24-.16-.5-.31-.75-.46-.2-.12-.39-.25-.6-.35-.12-.07-.24-.13-.37-.2-.23-.13-.49-.26-.73-.38-1.27-.64-2.61-1.19-3.94-1.67-.65-.24-1.31-.46-1.95-.66-.65-.21-1.28-.41-1.89-.57-.62-.17-1.21-.33-1.78-.47-.29-.06-.56-.13-.83-.19h-.01c.53-.16,1.09-.3,1.68-.48.29-.08.6-.17.89-.27.31-.1.62-.19.93-.3.97-.31,1.98-.67,2.98-1.08.3-.12.58-.24.88-.37.66-.27,1.31-.57,1.96-.89.26-.12.51-.26.76-.39.25-.13.51-.27.76-.42.22-.11.43-.24.65-.38.36-.2.73-.44,1.08-.68.15-.09.31-.2.44-.31.19-.13.39-.27.57-.42.16-.13.32-.25.47-.37.15-.11.28-.22.42-.34M377.33,442.07l-.88.75c-.07.06-.14.12-.21.17l-.12.08-.11.1c-.05.05-.11.09-.17.14l-.21.17c-.12.1-.23.18-.35.26l-.09.06-.08.06c-.07.05-.15.1-.22.15l-.05.03-.05.04c-.3.21-.57.38-.81.51l-.1.05-.09.06c-.14.09-.25.16-.33.2l-.12.06-.12.07c-.19.12-.39.22-.58.32l-.24.13c-.12.07-.25.13-.38.19l-.04.02-.04.02c-.62.3-1.2.57-1.79.81h-.03s-.03.03-.03.03c-.27.12-.52.22-.79.33-.9.36-1.83.7-2.79,1.01h-.04s-.04.02-.04.02c-.28.1-.55.18-.83.27-.21.07-.39.12-.57.17l-.28.08c-.44.13-.83.24-1.21.34l-.42.12-5.02,1.39,3.72,3.65.59.57.81.21c.27.07.56.13.85.2.53.13,1.08.27,1.66.44.63.17,1.25.37,1.78.54.67.21,1.27.41,1.82.61,1.35.48,2.57,1,3.66,1.54l.15.07c.14.07.28.14.42.22l.05.03.05.03c.09.05.18.09.26.14l.1.06.1.05c.06.03.2.12.31.19l.05.03.05.03c.21.12.42.25.62.38.29.18.54.35.77.53l.03.02.03.02c.23.16.45.34.66.52l.91.78,1.2-.07c8.86-.5,14.99-4.49,14.92-9.7-.07-5.21-6.32-9.02-15.19-9.26l-1.16-.03h0Z"/>
    </g>
  </g>
</svg>