<?xml version="1.0" encoding="UTF-8"?>
<svg id="Layer_2" xmlns="http://www.w3.org/2000/svg" version="1.1" viewBox="0 0 102.19 450.56">
  <!-- Generator: Adobe Illustrator 30.5.1, SVG Export Plug-In . SVG Version: 2.1.4 Build 3)  -->
  <path d="M51.4,73.22c-.04,1.27-.13,2.57-.29,3.88-.72,6.19-2.78,12.56-7.2,16.91-4.34,4.26-10.93,6.94-17.15,6.49-2.34-.17-4.6-.78-6.68-1.91-5.23-2.84-8.44-8.63-9.17-14.52-.64-5.2.39-10.75,2.46-15.55,1.91-4.42,5.41-7.97,7.17-12.49,4.34-11.18-3.76-21.09-11.73-27.94-1.74-1.48-8.82-4.47-8.82-4.47,0,0,15.53-2.45,25.71.66,10.18,3.11,13.86,6.41,17.62,12.92.02.04.05.1.07.12,4.21,7.35,6.64,16.15,7.57,24.86.04.39.08.78.11,1.16.32,3.34.42,6.66.3,9.87h0Z"/>
  <path d="M41.51,21.03c.07,1.78-1.4,3.25-3.18,3.18-6.59-.27-20.89-1.26-21.04-4.72-.18-4.49,11.76-3.07,11.76-3.07-9.8-8.94-6.3-10.96-6.3-10.96,0,0,2.02-3.49,10.96,6.3,0,0-1.42-11.95,3.07-11.76,3.46.13,4.44,14.43,4.72,21.04h0s.01-.01.01-.01h0Z"/>
  <path d="M81.65,56.02c1.76,4.52,5.28,8.06,7.19,12.49,2.07,4.8,3.09,10.35,2.46,15.55-.72,5.9-3.94,11.68-9.18,14.52-2.08,1.13-4.35,1.74-6.68,1.91-6.21.45-12.8-2.22-17.14-6.49-4.42-4.35-6.48-10.71-7.2-16.91.16-1.31.26-2.6.29-3.88.11-3.21.01-6.54-.3-9.87.02-.28.06-.56.1-.84.91-8.89,3.37-17.86,7.68-25.32.21-.35.42-.7.64-1.05,3.78-6.16,9.07-9.25,16.98-11.85s25.71-.66,25.71-.66c0,0-7.1,2.98-8.82,4.47-7.97,6.85-16.07,16.76-11.73,27.94h.01Z"/>
  <path d="M60.7,21.03c-.07,1.78,1.4,3.25,3.18,3.18,6.59-.27,20.89-1.26,21.04-4.72.18-4.49-11.76-3.07-11.76-3.07,9.8-8.94,6.3-10.96,6.3-10.96,0,0-2.02-3.49-10.96,6.3,0,0,1.42-11.95-3.07-11.76-3.46.13-4.44,14.43-4.72,21.04h0s-.01-.01-.01-.01Z"/>
  <path d="M59.52,35.73v.39c-.22.35-.43.7-.64,1.05-4.31,7.47-6.77,16.44-7.68,25.32-.06-.1-.12-.21-.2-.33-.93-8.72-3.36-17.51-7.57-24.86-.02-.53-.04-1.05-.04-1.59,0-15.02,3.6-27.2,8.06-27.2s8.06,12.18,8.06,27.2h0s0,.01,0,.01Z"/>
  <path d="M67.35,111.61c-2.39,4.27-5.7,7.27-9.12,10.67-.93.91-2.21,2.14-3.42,3.48-1.93,2.15-3.72,4.65-3.72,6.93,0-2.28-1.78-4.78-3.72-6.93-1.21-1.36-2.49-2.57-3.42-3.48-3.41-3.4-6.73-6.39-9.12-10.67-1.15-2.05-3.35-6.84.96-6.39,7.33.75,15.29,16.91,15.29,16.91,0,0,7.96-16.16,15.29-16.91,4.31-.45,2.1,4.33.96,6.39h.01Z"/>
  <path d="M11.48,136.83c-.32,3.85,2.08,6.58,3.52,7.87,3.13,2.77,7.54,4.09,11.21,3.34,2.65-.55,4.67-2.46,5.41-5.14s0-5.38-2-7.21c-1.62-1.48-4.64-2.25-6.88-1.76-1.83.4-2.28,1.48-2.43,1.83-.42,1.02-.1,2.43.73,3.16.9.79,2.25.86,3.05.15,1.54-1.35,3.89-1.19,5.24.36s1.19,3.89-.35,5.24c-3.61,3.16-9.13,3.09-12.84-.16-3.24-2.84-4.35-7.6-2.7-11.59,1.34-3.23,4.07-5.45,7.69-6.25,4.58-1.02,10.14.45,13.51,3.54,4.03,3.71,5.62,9.32,4.15,14.67-1.48,5.34-5.73,9.35-11.1,10.43-5.97,1.22-12.72-.71-17.62-5.05-4.24-3.75-6.42-8.88-6.01-14.03.93-11.38,10.82-19.78,22.49-19.17,6.91.38,12.8,3.24,17.48,8.56,1.24,1.4,2.34,2.94,3.35,4.55v26.26c-.5-8.11-2.96-19.15-8.91-25.89-3.37-3.81-7.39-5.79-12.31-6.05-7.62-.4-14.08,5.02-14.69,12.35h0s0-.01,0-.01Z"/>
  <path d="M47.39,156.44v.13-.14h0Z"/>
  <path d="M54.84,156.56h0s0-.09,0-.09v.08h0Z"/>
  <path d="M92.13,150.27c-4.89,4.35-11.65,6.29-17.62,5.05-5.35-1.09-9.61-5.09-11.08-10.43-1.48-5.34.11-10.96,4.15-14.67,3.38-3.1,8.92-4.55,13.5-3.54,3.63.8,6.36,3.02,7.7,6.25,1.65,3.98.53,8.74-2.71,11.59-3.71,3.24-9.23,3.31-12.83.16-1.54-1.36-1.7-3.7-.35-5.24s3.7-1.7,5.24-.36c.8.71,2.14.64,3.05-.15.83-.73,1.15-2.14.73-3.16-.13-.35-.59-1.42-2.43-1.83-2.25-.5-5.27.28-6.87,1.76-2,1.83-2.76,4.52-2.02,7.21.74,2.68,2.77,4.59,5.42,5.14,3.67.75,8.07-.56,11.19-3.34,1.45-1.29,3.85-4.02,3.53-7.87-.62-7.33-7.06-12.75-14.69-12.35-4.93.27-8.95,2.23-12.32,6.05-5.95,6.73-8.4,17.74-8.9,25.84v-26.21c.99-1.63,2.11-3.16,3.34-4.55,4.7-5.31,10.57-8.18,17.49-8.56,11.67-.62,21.55,7.8,22.48,19.17.43,5.15-1.76,10.27-6.01,14.03h0s0,.01,0,.01h0Z"/>
  <path d="M47.39,170v10.85c-1.62-2.56-3.38-5.18-4.47-6.26-3.41-3.4-5.68-4.41-8.07-8.69-1.15-2.05-3.35-6.82.96-6.39,4.18.43,8.57,5.88,11.57,10.48h0Z"/>
  <path d="M67.35,165.91c-2.39,4.29-4.67,5.29-8.07,8.69-1.09,1.08-2.85,3.7-4.47,6.26v-10.85c3-4.6,7.39-10.05,11.57-10.48,4.31-.45,2.1,4.33.96,6.39h0Z"/>
  <path d="M47.4,162.06v2.36c-.76-.9-1.52-1.79-2.28-2.69-.99-1.16-1.92-2.39-2.91-3.53-1.02-1.16-2.32-2.06-3.14-3.39-.33-.52-.57-1.1-.59-1.71-.02-.79.36-1.58.96-2.11.67-.61,1.62-.89,2.51-.76,2.79.39,4.12,4.24,5.44,6.33h0c.12,2.07.11,3.94,0,5.5h0Z"/>
  <path d="M63.75,153.1c-.01.62-.27,1.19-.59,1.71-.84,1.32-2.14,2.23-3.14,3.39-1,1.15-1.93,2.37-2.91,3.53-.76.9-1.52,1.79-2.28,2.69v-2.36c-.11-1.55-.12-3.41,0-5.47h0c1.32-2.12,2.66-5.97,5.44-6.35.9-.13,1.83.16,2.51.76.61.53.99,1.31.96,2.11h0Z"/>
  <path d="M47.39,183.79v32.26c-.12-1.71-.13-3.7-.01-5.87v-.08c-.49-8.11-2.94-19.17-8.9-25.93-3.37-3.81-7.39-5.79-12.31-6.05-7.62-.39-14.08,5.01-14.69,12.35-.32,3.84,2.08,6.58,3.52,7.87,3.14,2.77,7.54,4.08,11.21,3.33,2.65-.53,4.67-2.46,5.41-5.14s0-5.37-2-7.2c-1.62-1.48-4.64-2.25-6.88-1.77-1.83.41-2.28,1.48-2.43,1.84-.42,1.02-.1,2.43.73,3.14.9.79,2.25.86,3.05.16,1.54-1.36,3.89-1.19,5.24.35,1.36,1.54,1.19,3.9-.35,5.24-3.61,3.17-9.13,3.1-12.84-.15-3.24-2.84-4.35-7.6-2.7-11.59,1.34-3.23,4.07-5.44,7.69-6.25,4.58-1.02,10.14.45,13.5,3.53,4.03,3.71,5.63,9.34,4.15,14.68-1.48,5.33-5.73,9.34-11.1,10.43-5.97,1.22-12.72-.71-17.62-5.05-4.24-3.75-6.42-8.88-6.01-14.04.93-11.36,10.82-19.78,22.49-19.16,6.91.36,12.8,3.24,17.48,8.55,1.24,1.4,2.34,2.94,3.35,4.55h.01Z"/>
  <path d="M92.13,203.89c-4.89,4.35-11.65,6.28-17.62,5.05-5.35-1.1-9.61-5.1-11.08-10.43-1.48-5.34.11-10.96,4.15-14.68,3.38-3.1,8.92-4.55,13.5-3.53,3.63.8,6.36,3.01,7.7,6.25,1.65,3.98.53,8.75-2.71,11.59-3.71,3.24-9.23,3.31-12.83.15-1.54-1.35-1.7-3.7-.35-5.24,1.35-1.54,3.7-1.7,5.24-.35.8.7,2.14.64,3.05-.16.83-.72,1.15-2.14.73-3.14-.13-.36-.59-1.42-2.43-1.84-2.25-.49-5.27.28-6.87,1.77-2,1.83-2.76,4.52-2.02,7.2s2.77,4.6,5.42,5.14c3.67.75,8.07-.56,11.19-3.33,1.45-1.29,3.85-4.03,3.53-7.87-.62-7.33-7.06-12.76-14.69-12.35-4.93.26-8.95,2.23-12.32,6.05-5.96,6.76-8.41,17.82-8.89,25.93v.08c.11,2.18.1,4.18-.01,5.88v-32.26c.99-1.63,2.11-3.16,3.34-4.55,4.7-5.3,10.57-8.18,17.49-8.55,11.7-.62,21.55,7.8,22.48,19.16.43,5.16-1.76,10.28-6.01,14.04h.01Z"/>
  <path d="M47.39,223.62v10.85c-1.62-2.55-3.38-5.18-4.47-6.25-3.41-3.4-5.68-4.41-8.07-8.69-1.15-2.05-3.35-6.82.96-6.39,4.18.44,8.57,5.89,11.57,10.48h0Z"/>
  <path d="M67.35,219.53c-2.39,4.29-4.67,5.29-8.07,8.69-1.09,1.08-2.85,3.7-4.47,6.25v-10.85c3-4.59,7.39-10.04,11.57-10.48,4.31-.44,2.1,4.35.96,6.39h0Z"/>
  <path d="M47.39,210.21v7.83c-.76-.9-1.52-1.78-2.28-2.68-.99-1.16-1.92-2.39-2.91-3.53-1.02-1.16-2.32-2.06-3.14-3.4-.33-.51-.57-1.09-.59-1.7-.02-.8.36-1.58.96-2.11.67-.61,1.62-.89,2.51-.76,2.78.39,4.12,4.22,5.44,6.31,0,0,0,.01.01.02h0Z"/>
  <path d="M63.75,206.72c-.01.62-.27,1.19-.59,1.7-.84,1.33-2.14,2.23-3.14,3.4-1,1.15-1.93,2.37-2.91,3.53-.76.9-1.52,1.78-2.28,2.68v-7.83s.01-.01.01-.02c1.32-2.1,2.66-5.94,5.44-6.31.9-.13,1.83.16,2.51.76.61.53.99,1.31.96,2.11h0Z"/>
  <path d="M44.04,232.87c1.24,1.4,2.34,2.94,3.35,4.55v32.26c-.12-1.71-.13-3.7,0-5.87v-.08c-.49-8.11-2.94-19.17-8.9-25.93-3.37-3.81-7.39-5.79-12.31-6.05-7.64-.39-14.08,5.02-14.69,12.36-.32,3.84,2.08,6.57,3.52,7.86,3.13,2.78,7.54,4.09,11.21,3.34,2.65-.53,4.67-2.46,5.41-5.14s0-5.37-2-7.21c-1.62-1.48-4.64-2.25-6.88-1.76-1.83.4-2.28,1.48-2.43,1.84-.42,1.02-.1,2.43.73,3.14.9.79,2.25.86,3.05.16,1.54-1.36,3.89-1.19,5.24.35,1.36,1.54,1.19,3.89-.35,5.24-3.61,3.16-9.13,3.09-12.84-.16-3.24-2.84-4.35-7.6-2.7-11.59,1.34-3.23,4.07-5.45,7.69-6.25,4.58-1.01,10.14.45,13.51,3.54,4.03,3.71,5.62,9.32,4.15,14.67-1.48,5.34-5.73,9.35-11.1,10.44-5.97,1.22-12.72-.72-17.62-5.05-4.24-3.76-6.42-8.88-6.01-14.04.93-11.36,10.82-19.78,22.49-19.16,6.91.36,12.8,3.23,17.48,8.55h0Z"/>
  <path d="M92.13,257.52c-4.89,4.33-11.65,6.28-17.62,5.05-5.35-1.1-9.61-5.1-11.08-10.44s.11-10.96,4.15-14.67c3.38-3.1,8.92-4.55,13.5-3.54,3.63.8,6.36,3.02,7.7,6.25,1.65,3.98.53,8.74-2.71,11.59-3.71,3.24-9.23,3.31-12.83.16-1.54-1.36-1.7-3.7-.35-5.24,1.35-1.54,3.7-1.7,5.24-.35.8.7,2.14.64,3.05-.16.83-.72,1.15-2.14.73-3.14-.13-.36-.59-1.43-2.43-1.84-2.23-.5-5.27.28-6.87,1.76-2,1.84-2.76,4.53-2.02,7.21s2.77,4.6,5.42,5.14c3.68.75,8.07-.56,11.19-3.34,1.45-1.29,3.85-4.02,3.53-7.86-.62-7.33-7.06-12.74-14.69-12.36-4.93.27-8.95,2.25-12.32,6.05-5.96,6.76-8.41,17.82-8.89,25.93v.08c.12,2.17.11,4.18,0,5.88v-32.26c.99-1.63,2.11-3.16,3.34-4.55,4.7-5.31,10.57-8.18,17.49-8.55,11.7-.62,21.55,7.8,22.48,19.16.43,5.16-1.76,10.27-6.01,14.04h0Z"/>
  <path d="M47.39,277.25v10.85c-1.62-2.56-3.38-5.17-4.47-6.25-3.41-3.4-5.68-4.41-8.07-8.69-1.15-2.05-3.35-6.84.96-6.39,4.18.43,8.57,5.88,11.57,10.48h0Z"/>
  <path d="M67.35,273.16c-2.39,4.27-4.67,5.28-8.07,8.69-1.09,1.08-2.85,3.69-4.47,6.25v-10.85c3-4.6,7.39-10.05,11.57-10.48,4.31-.45,2.1,4.33.96,6.39h0Z"/>
  <path d="M47.38,263.8v7.85c-.76-.9-1.52-1.78-2.28-2.68-.99-1.16-1.92-2.39-2.91-3.53-1.02-1.16-2.32-2.06-3.14-3.4-.33-.51-.57-1.1-.59-1.7-.02-.8.36-1.59.96-2.11.67-.59,1.62-.89,2.51-.76,2.79.39,4.12,4.24,5.44,6.33h0Z"/>
  <path d="M63.75,260.35c-.01.61-.27,1.19-.59,1.7-.84,1.33-2.14,2.23-3.14,3.4-1,1.15-1.93,2.37-2.91,3.53-.76.9-1.52,1.78-2.28,2.68v-7.85c1.32-2.1,2.66-5.94,5.44-6.33.9-.13,1.83.16,2.51.76.61.53.99,1.31.96,2.11h0Z"/>
  <path d="M44.04,286.49c1.24,1.4,2.34,2.94,3.35,4.55v32.26c-.12-1.71-.13-3.7-.01-5.87v-.08c-.49-8.11-2.94-19.17-8.9-25.93-3.37-3.81-7.39-5.79-12.31-6.05-7.62-.39-14.08,5.02-14.69,12.36-.32,3.84,2.08,6.57,3.52,7.86,3.14,2.77,7.54,4.09,11.21,3.34,2.65-.55,4.67-2.46,5.41-5.14s0-5.38-2-7.21c-1.62-1.48-4.64-2.25-6.88-1.76-1.83.4-2.28,1.48-2.43,1.84-.42,1.01-.1,2.43.73,3.14.9.79,2.25.86,3.05.16,1.54-1.36,3.89-1.19,5.24.35,1.36,1.54,1.19,3.89-.35,5.24-3.61,3.16-9.13,3.09-12.84-.16-3.24-2.84-4.35-7.6-2.7-11.59,1.34-3.23,4.07-5.45,7.69-6.25,4.58-1.01,10.14.45,13.5,3.54,4.03,3.71,5.63,9.32,4.15,14.67-1.48,5.34-5.73,9.35-11.1,10.44-5.97,1.22-12.72-.72-17.62-5.05-4.24-3.76-6.42-8.88-6.01-14.04.93-11.38,10.82-19.79,22.49-19.17,6.91.38,12.8,3.24,17.48,8.56h.01Z"/>
  <path d="M92.13,311.14c-4.89,4.33-11.64,6.27-17.62,5.05-5.35-1.1-9.61-5.1-11.08-10.44-1.48-5.34.11-10.96,4.15-14.67,3.38-3.1,8.92-4.55,13.5-3.54,3.63.8,6.36,3.02,7.7,6.25,1.65,3.98.53,8.74-2.71,11.59-3.71,3.24-9.23,3.31-12.83.16-1.54-1.36-1.7-3.7-.35-5.24,1.35-1.54,3.7-1.7,5.24-.35.8.7,2.14.64,3.04-.16.84-.73,1.16-2.14.73-3.14-.13-.36-.59-1.43-2.43-1.84-2.23-.5-5.27.28-6.87,1.76-2,1.83-2.76,4.52-2.02,7.21.74,2.68,2.77,4.59,5.42,5.14,3.67.75,8.07-.56,11.19-3.34,1.45-1.29,3.85-4.02,3.53-7.86-.62-7.33-7.06-12.74-14.69-12.36-4.93.27-8.95,2.23-12.32,6.05-5.96,6.76-8.41,17.82-8.89,25.93v.08c.11,2.17.1,4.18-.01,5.88v-32.26c.99-1.63,2.11-3.16,3.34-4.55,4.7-5.31,10.57-8.18,17.49-8.56,11.67-.63,21.55,7.8,22.48,19.17.43,5.16-1.76,10.27-6.01,14.04h.01Z"/>
  <path d="M47.39,330.87v10.85c-1.62-2.56-3.38-5.18-4.47-6.26-3.41-3.4-5.68-4.41-8.07-8.69-1.15-2.05-3.35-6.82.96-6.39,4.18.43,8.57,5.88,11.57,10.48h0Z"/>
  <path d="M67.35,326.77c-2.39,4.29-4.67,5.29-8.07,8.69-1.09,1.08-2.85,3.7-4.47,6.26v-10.85c3-4.6,7.39-10.05,11.57-10.48,4.31-.45,2.1,4.33.96,6.39h0Z"/>
  <path d="M47.37,317.43s0,.01.01.01v7.84c-.76-.9-1.52-1.79-2.28-2.69-.99-1.16-1.92-2.39-2.91-3.52-1.02-1.16-2.32-2.08-3.14-3.4-.33-.52-.57-1.1-.59-1.71-.02-.79.36-1.58.96-2.11.67-.59,1.62-.89,2.51-.76,2.79.39,4.12,4.24,5.44,6.33h0Z"/>
  <path d="M63.75,313.96c-.01.62-.27,1.19-.59,1.71-.84,1.32-2.14,2.23-3.14,3.4-1,1.14-1.93,2.37-2.91,3.52-.76.9-1.52,1.79-2.28,2.69v-7.84h.01c1.31-2.11,2.65-5.96,5.44-6.34.9-.13,1.83.16,2.51.76.61.53.99,1.31.96,2.11h0Z"/>
  <path d="M44.04,340.1c1.24,1.4,2.34,2.94,3.35,4.55v32.26c-.12-1.71-.13-3.7-.01-5.88v-.08c-.49-8.11-2.94-19.17-8.9-25.93-3.37-3.81-7.39-5.79-12.31-6.05-7.64-.39-14.08,5.01-14.69,12.35-.32,3.84,2.08,6.58,3.52,7.87,3.13,2.77,7.54,4.09,11.21,3.34,2.65-.55,4.67-2.47,5.41-5.15.74-2.68,0-5.37-2-7.2-1.62-1.48-4.64-2.25-6.88-1.76-1.83.4-2.28,1.48-2.43,1.83-.42,1.02-.1,2.43.73,3.16.9.79,2.25.85,3.05.15,1.54-1.36,3.89-1.19,5.24.36,1.36,1.54,1.19,3.89-.35,5.24-3.61,3.16-9.13,3.09-12.84-.16-3.24-2.84-4.35-7.6-2.7-11.59,1.34-3.23,4.07-5.44,7.69-6.25,4.58-1.02,10.14.45,13.51,3.54,4.03,3.7,5.62,9.32,4.15,14.67-1.48,5.33-5.73,9.35-11.1,10.43-5.97,1.22-12.72-.71-17.62-5.05-4.24-3.75-6.42-8.88-6.01-14.04.93-11.36,10.82-19.77,22.49-19.16,6.91.38,12.8,3.24,17.48,8.55h.01Z"/>
  <path d="M92.13,364.76c-4.89,4.35-11.64,6.28-17.62,5.05-5.35-1.09-9.61-5.1-11.08-10.43-1.48-5.34.11-10.96,4.15-14.67,3.38-3.1,8.92-4.55,13.5-3.54,3.63.8,6.36,3.01,7.7,6.25,1.65,3.98.53,8.75-2.71,11.59-3.71,3.24-9.23,3.31-12.83.16-1.54-1.36-1.7-3.7-.35-5.24,1.35-1.55,3.7-1.7,5.24-.36.8.7,2.14.64,3.05-.15.83-.73,1.15-2.14.73-3.16-.13-.36-.59-1.42-2.43-1.83-2.25-.5-5.27.27-6.87,1.76-2,1.83-2.76,4.52-2.02,7.2s2.77,4.6,5.42,5.15c3.68.75,8.07-.56,11.19-3.34,1.45-1.29,3.85-4.03,3.53-7.87-.62-7.33-7.06-12.74-14.69-12.35-4.93.26-8.95,2.23-12.32,6.05-5.96,6.76-8.41,17.82-8.89,25.94v.08c.12,2.17.11,4.18,0,5.88v-32.27c.99-1.63,2.11-3.16,3.34-4.55,4.7-5.3,10.57-8.17,17.49-8.55,11.7-.59,21.55,7.8,22.48,19.16.43,5.16-1.76,10.28-6.01,14.04h0Z"/>
  <path d="M47.39,384.49v10.86c-1.62-2.56-3.38-5.18-4.47-6.26-3.41-3.4-5.68-4.41-8.07-8.69-1.15-2.05-3.35-6.82.96-6.39,4.18.44,8.57,5.89,11.57,10.48h0Z"/>
  <path d="M67.35,380.4c-2.39,4.29-4.67,5.29-8.07,8.69-1.09,1.08-2.85,3.7-4.47,6.26v-10.86c3-4.59,7.39-10.04,11.57-10.48,4.31-.44,2.1,4.35.96,6.39h0Z"/>
  <path d="M47.37,371.04s0,.01.01.02v7.84c-.76-.9-1.52-1.79-2.28-2.69-.99-1.16-1.92-2.39-2.91-3.53-1.02-1.16-2.32-2.06-3.14-3.39-.33-.52-.57-1.1-.59-1.71-.02-.79.36-1.58.96-2.11.67-.61,1.62-.89,2.51-.76,2.78.39,4.12,4.22,5.44,6.31h0Z"/>
  <path d="M63.75,367.59c-.01.62-.27,1.19-.59,1.71-.84,1.32-2.14,2.23-3.14,3.39-1,1.15-1.93,2.37-2.91,3.53-.76.9-1.52,1.79-2.28,2.69v-7.85c1.32-2.1,2.66-5.95,5.44-6.33.9-.13,1.83.16,2.51.76.61.53.99,1.31.96,2.11h0Z"/>
  <path d="M54.82,125.76v30.81h0c-.12,2.06-.11,3.92,0,5.48v255.46h-7.43v-255.45c.11-1.55.12-3.42,0-5.48h0v-30.81c1.93,2.15,3.72,4.65,3.72,6.93,0-2.28,1.78-4.78,3.72-6.93h-.01Z"/>
  <circle cx="24.73" cy="110.07" r="4.73"/>
  <circle cx="44.78" cy="102.61" r="4.73"/>
  <circle cx="57.42" cy="102.61" r="4.73"/>
  <circle cx="51.1" cy="111.68" r="4.73"/>
  <circle cx="51.1" cy="94.34" r="4.73"/>
  <circle cx="12.47" cy="105.33" r="4.73"/>
  <circle cx="77.48" cy="110.07" r="4.73"/>
  <circle cx="89.74" cy="105.34" r="4.73"/>
  <path d="M98.12,404.33c-.93-11.37-10.78-19.79-22.48-19.16-6.92.37-12.79,3.25-17.49,8.55-1.23,1.39-2.35,2.92-3.34,4.55v19.23h-7.43v-19.23c-1-1.62-2.11-3.16-3.35-4.55-4.68-5.3-10.57-8.19-17.48-8.55-11.67-.62-21.56,7.8-22.49,19.16-.42,5.16,1.77,10.28,6.01,14.04,4.9,4.33,11.66,6.28,17.62,5.05,5.36-1.1,9.61-5.1,11.1-10.44,1.48-5.33-.12-10.96-4.15-14.67-3.37-3.09-8.92-4.55-13.5-3.53-3.62.8-6.35,3.01-7.69,6.25-1.65,3.98-.54,8.75,2.7,11.59,3.71,3.26,9.23,3.32,12.84.16,1.54-1.34,1.69-3.7.35-5.24s-3.7-1.7-5.24-.35c-.8.7-2.15.64-3.05-.16-.83-.71-1.16-2.13-.73-3.14.15-.36.6-1.42,2.43-1.84,2.23-.5,5.26.28,6.88,1.76,2,1.84,2.74,4.52,2,7.21s-2.76,4.61-5.41,5.14c-3.68.75-8.08-.56-11.21-3.33-1.45-1.3-3.84-4.03-3.52-7.87.61-7.33,7.05-12.74,14.69-12.36,4.93.27,8.95,2.25,12.31,6.05,5.97,6.76,8.41,17.82,8.9,25.93-.08,1.45-.1,21.75-.07,25.99h7.6c.02-4.24,0-24.54-.07-25.98.48-8.11,2.94-19.17,8.89-25.93,3.37-3.81,7.39-5.79,12.32-6.05,7.62-.39,14.07,5.02,14.69,12.36.32,3.84-2.08,6.58-3.53,7.87-3.13,2.77-7.52,4.09-11.19,3.33-2.66-.54-4.68-2.46-5.42-5.14s.01-5.37,2.02-7.21c1.61-1.48,4.64-2.25,6.87-1.76,1.85.41,2.29,1.48,2.43,1.84.42,1.01.1,2.43-.73,3.14-.9.79-2.25.86-3.05.16-1.54-1.36-3.89-1.19-5.24.35-1.36,1.54-1.19,3.89.35,5.24,3.6,3.15,9.12,3.09,12.83-.16,3.24-2.83,4.36-7.6,2.71-11.59-1.34-3.23-4.07-5.45-7.7-6.25-4.58-1.02-10.12.43-13.5,3.53-4.03,3.72-5.62,9.34-4.15,14.67,1.48,5.34,5.73,9.35,11.08,10.44,5.99,1.22,12.74-.7,17.62-5.05h-.01c4.24-3.78,6.44-8.89,6.01-14.05h0Z"/>
</svg>