<?xml version="1.0" encoding="UTF-8"?>
<svg xmlns="http://www.w3.org/2000/svg" version="1.1" viewBox="0 0 595.28 595.28">
  <!-- Generator: Adobe Illustrator 30.1.0, SVG Export Plug-In . SVG Version: 2.1.1 Build 136)  -->
  <defs>
    <style>
      .st0 {
        fill: #fff;
      }
    </style>
  </defs>
  <g id="bk">
    <g>
      <path class="st0" d="M183.32,487.54c2.44,2.05,2.76,5.7.71,8.14-2.05,2.45-5.7,2.77-8.15.72-2.44-2.06-2.76-5.7-.71-8.15s5.7-2.77,8.15-.71Z"/>
      <path class="st0" d="M171.41,229.72c-2.77-1.6-3.71-5.14-2.12-7.9,1.6-2.77,5.14-3.71,7.9-2.12,2.77,1.6,3.71,5.14,2.12,7.9-1.6,2.77-5.14,3.71-7.9,2.12Z"/>
      <path class="st0" d="M173.61,103.56c-1.09-3,.46-6.32,3.46-7.41,3-1.09,6.32.45,7.41,3.45,1.09,3.01-.45,6.32-3.45,7.42-3,1.09-6.32-.46-7.42-3.46Z"/>
      <path class="st0" d="M176.91,140.7c2.37,2.15,2.54,5.81.4,8.17-2.15,2.36-5.81,2.54-8.17.39-2.37-2.15-2.54-5.8-.39-8.17,2.14-2.36,5.8-2.54,8.16-.39Z"/>
      <path class="st0" d="M169.35,454.69c-2.7-1.71-3.51-5.28-1.81-7.98,1.71-2.7,5.28-3.51,7.98-1.8,2.7,1.7,3.51,5.27,1.8,7.97-1.7,2.7-5.27,3.51-7.97,1.81Z"/>
      <path class="st0" d="M169.29,373.46c-1.59-2.77-.65-6.31,2.12-7.9,2.76-1.6,6.3-.65,7.9,2.11,1.59,2.77.65,6.31-2.12,7.9-2.76,1.6-6.3.65-7.9-2.11Z"/>
      <path class="st0" d="M195.33,496.51c2.44,2.06,2.76,5.7.71,8.15-2.05,2.45-5.7,2.77-8.15.71-2.45-2.05-2.76-5.7-.71-8.14,2.05-2.45,5.7-2.77,8.15-.72Z"/>
      <path class="st0" d="M187.39,97.65c-1.09-3,.46-6.32,3.46-7.41,3-1.1,6.32.45,7.41,3.45,1.09,3-.45,6.32-3.45,7.41-3.01,1.1-6.32-.45-7.42-3.45Z"/>
      <path class="st0" d="M203.14,413.8c-2.44-2.05-2.76-5.7-.71-8.15,2.05-2.44,5.7-2.76,8.15-.71,2.44,2.05,2.76,5.7.71,8.15-2.05,2.44-5.7,2.76-8.15.71Z"/>
      <path class="st0" d="M202.11,97.11c-1.09-3,.46-6.32,3.46-7.42,3-1.09,6.32.46,7.41,3.46,1.09,3-.45,6.32-3.45,7.41-3.01,1.09-6.32-.45-7.42-3.45Z"/>
      <path class="st0" d="M213.01,501.39c-.68,3.12-3.75,5.1-6.88,4.43-3.12-.68-5.1-3.76-4.42-6.88s3.76-5.1,6.88-4.43c3.12.68,5.1,3.76,4.42,6.88Z"/>
      <path class="st0" d="M202.43,189.62c-2.05-2.44-1.73-6.09.71-8.14,2.45-2.06,6.1-1.74,8.15.71,2.05,2.45,1.73,6.09-.71,8.15-2.45,2.05-6.1,1.73-8.15-.72Z"/>
      <path class="st0" d="M226.41,495.37c-.68,3.12-3.76,5.1-6.88,4.42-3.12-.68-5.1-3.76-4.42-6.88s3.76-5.1,6.88-4.42,5.1,3.76,4.42,6.88Z"/>
      <path class="st0" d="M230.98,490.11c-3.12-.68-5.11-3.76-4.43-6.88s3.76-5.1,6.88-4.42,5.1,3.76,4.42,6.88c-.67,3.12-3.75,5.1-6.87,4.42Z"/>
      <path class="st0" d="M230.36,98.47c-1.49-2.83-.4-6.32,2.42-7.81,2.83-1.49,6.33-.4,7.81,2.43,1.49,2.82.4,6.32-2.42,7.81-2.83,1.48-6.33.4-7.81-2.43Z"/>
      <path class="st0" d="M233.31,504.21c-3-1.09-4.55-4.41-3.46-7.41,1.1-3,4.41-4.55,7.42-3.45,3,1.09,4.54,4.41,3.45,7.41-1.09,3-4.41,4.55-7.41,3.45Z"/>
      <path class="st0" d="M215.93,103.54c-1.09-3,.46-6.32,3.46-7.41,3-1.09,6.32.45,7.41,3.45,1.09,3.01-.46,6.32-3.46,7.42-3,1.09-6.32-.46-7.41-3.46Z"/>
      <path class="st0" d="M236.75,85.24c-1.49-2.82-.4-6.32,2.43-7.81,2.82-1.48,6.32-.4,7.81,2.43,1.48,2.83.4,6.32-2.43,7.81s-6.32.4-7.81-2.43Z"/>
      <path class="st0" d="M227.81,113.24c-1.48-2.82-.4-6.32,2.43-7.81,2.83-1.48,6.32-.4,7.81,2.43,1.49,2.82.4,6.32-2.43,7.81-2.82,1.48-6.32.4-7.81-2.43Z"/>
      <path class="st0" d="M247.17,514.57c-1.09,3-4.41,4.55-7.41,3.45-3-1.09-4.55-4.41-3.46-7.41,1.09-3,4.41-4.55,7.41-3.45,3.01,1.09,4.55,4.41,3.46,7.41Z"/>
      <path class="st0" d="M258.8,523.62c-1.1,3-4.42,4.54-7.42,3.45-3-1.09-4.54-4.41-3.45-7.41,1.09-3,4.41-4.55,7.41-3.46,3,1.1,4.55,4.41,3.46,7.42Z"/>
      <path class="st0" d="M262.62,70.99c0-3.2,2.59-5.79,5.78-5.79s5.79,2.59,5.79,5.79-2.59,5.78-5.79,5.78-5.78-2.59-5.78-5.78Z"/>
      <path class="st0" d="M248.75,440.13c-3-1.09-4.55-4.41-3.46-7.41,1.1-3,4.42-4.55,7.42-3.46,3,1.1,4.54,4.41,3.45,7.41-1.09,3.01-4.41,4.55-7.41,3.46Z"/>
      <path class="st0" d="M245.29,162.56c-1.09-3,.46-6.32,3.46-7.42,3-1.09,6.32.46,7.41,3.46,1.09,3-.45,6.32-3.45,7.41-3,1.09-6.32-.45-7.42-3.45Z"/>
      <path class="st0" d="M247.65,71.83c0-3.2,2.59-5.78,5.78-5.78s5.79,2.58,5.79,5.78-2.59,5.78-5.79,5.78-5.78-2.59-5.78-5.78Z"/>
      <path class="st0" d="M273.15,527.94c-1.09,3-4.41,4.55-7.41,3.46-3-1.09-4.55-4.41-3.46-7.41,1.1-3,4.41-4.55,7.41-3.46,3.01,1.09,4.55,4.41,3.46,7.41Z"/>
      <path class="st0" d="M276.64,75.51c0-3.19,2.59-5.78,5.78-5.78s5.79,2.59,5.79,5.78-2.59,5.78-5.79,5.78-5.78-2.59-5.78-5.78Z"/>
      <path class="st0" d="M287.98,519.07c.43,3.16-1.78,6.07-4.95,6.5-3.16.44-6.08-1.78-6.51-4.95-.43-3.16,1.79-6.07,4.95-6.51,3.17-.43,6.08,1.79,6.51,4.96Z"/>
      <path class="st0" d="M287.42,86.28c0-3.19,2.59-5.78,5.79-5.78s5.78,2.59,5.78,5.78-2.59,5.79-5.78,5.79-5.79-2.59-5.79-5.79Z"/>
      <path class="st0" d="M298.51,508.82c.43,3.17-1.78,6.08-4.95,6.51-3.16.43-6.07-1.78-6.51-4.95-.43-3.16,1.79-6.08,4.96-6.51,3.16-.43,6.07,1.79,6.5,4.95Z"/>
      <path class="st0" d="M300.61,449.28c-3.19,0-5.78-2.59-5.78-5.79s2.59-5.78,5.78-5.78,5.79,2.59,5.79,5.78-2.59,5.79-5.79,5.79Z"/>
      <path class="st0" d="M300.61,146c3.2,0,5.79,2.59,5.79,5.78s-2.59,5.79-5.79,5.79-5.78-2.59-5.78-5.79,2.59-5.78,5.78-5.78Z"/>
      <path class="st0" d="M300.61,94.34c3.2,0,5.79,2.59,5.79,5.78s-2.59,5.78-5.79,5.78-5.78-2.59-5.78-5.78,2.59-5.78,5.78-5.78Z"/>
      <path class="st0" d="M313.24,76.21c-.43-3.16,1.79-6.08,4.96-6.51,3.16-.43,6.07,1.79,6.5,4.95.44,3.17-1.78,6.08-4.95,6.51-3.16.43-6.07-1.79-6.51-4.95Z"/>
      <path class="st0" d="M301.01,502.32c-3.17.43-6.08-1.79-6.51-4.95-.43-3.16,1.78-6.08,4.95-6.51,3.16-.43,6.08,1.79,6.51,4.95.43,3.17-1.79,6.08-4.95,6.51Z"/>
      <path class="st0" d="M313.81,508.99c0,3.2-2.59,5.79-5.79,5.79s-5.78-2.59-5.78-5.79,2.59-5.78,5.78-5.78,5.79,2.59,5.79,5.78Z"/>
      <path class="st0" d="M302.71,86.45c-.43-3.16,1.79-6.08,4.95-6.51,3.17-.43,6.08,1.79,6.51,4.95.43,3.17-1.78,6.08-4.95,6.51-3.16.43-6.08-1.78-6.51-4.95Z"/>
      <path class="st0" d="M324.59,519.76c0,3.2-2.59,5.79-5.78,5.79s-5.79-2.59-5.79-5.79,2.59-5.78,5.79-5.78,5.78,2.59,5.78,5.78Z"/>
      <path class="st0" d="M338.61,524.29c0,3.19-2.59,5.78-5.79,5.78s-5.78-2.59-5.78-5.78,2.59-5.78,5.78-5.78,5.79,2.59,5.79,5.78Z"/>
      <path class="st0" d="M328.08,67.33c1.09-3,4.41-4.55,7.41-3.45,3,1.09,4.55,4.41,3.46,7.41-1.1,3-4.42,4.55-7.42,3.45-3-1.09-4.54-4.41-3.45-7.41Z"/>
      <path class="st0" d="M353.58,523.45c0,3.19-2.59,5.78-5.79,5.78s-5.78-2.59-5.78-5.78,2.59-5.79,5.78-5.79,5.79,2.59,5.79,5.79Z"/>
      <path class="st0" d="M342.43,71.66c1.1-3,4.41-4.55,7.41-3.46,3.01,1.1,4.55,4.41,3.46,7.42-1.09,3-4.41,4.54-7.41,3.45-3-1.09-4.55-4.41-3.46-7.41Z"/>
      <path class="st0" d="M355.93,432.72c1.1,3-.45,6.32-3.45,7.41-3,1.09-6.32-.45-7.41-3.46-1.1-3,.45-6.31,3.45-7.41,3-1.09,6.32.46,7.41,3.46Z"/>
      <path class="st0" d="M92.19,262.54c3.14.55,5.24,3.55,4.69,6.7-.56,3.14-3.56,5.24-6.7,4.69-3.15-.56-5.25-3.56-4.69-6.7.55-3.15,3.55-5.25,6.7-4.69Z"/>
      <path class="st0" d="M83.21,209.31c1.6-2.76,5.14-3.71,7.9-2.11,2.77,1.59,3.72,5.13,2.12,7.9-1.6,2.76-5.13,3.71-7.9,2.11-2.76-1.59-3.71-5.13-2.12-7.9Z"/>
      <path class="st0" d="M108.86,195.48c1.6-2.76,5.14-3.71,7.9-2.11,2.77,1.6,3.72,5.13,2.12,7.9-1.6,2.76-5.13,3.71-7.9,2.11-2.77-1.59-3.71-5.13-2.12-7.9Z"/>
      <path class="st0" d="M73.01,275.98c.55-3.15,3.55-5.25,6.7-4.69,3.14.55,5.24,3.55,4.69,6.69-.56,3.15-3.56,5.25-6.7,4.7-3.15-.56-5.25-3.56-4.69-6.7Z"/>
      <path class="st0" d="M90.75,241.2c-.13,3.19-2.82,5.67-6.01,5.55-3.19-.13-5.67-2.82-5.55-6.01.13-3.19,2.82-5.67,6.01-5.55,3.19.13,5.68,2.82,5.55,6.01Z"/>
      <path class="st0" d="M66.12,289c.55-3.15,3.55-5.25,6.7-4.69,3.14.55,5.24,3.55,4.69,6.69-.56,3.15-3.56,5.25-6.7,4.69-3.15-.55-5.25-3.55-4.69-6.69Z"/>
      <path class="st0" d="M94.14,199.44c1.6-2.77,5.14-3.72,7.9-2.12,2.77,1.6,3.72,5.13,2.12,7.9-1.6,2.77-5.13,3.71-7.9,2.12-2.77-1.6-3.71-5.14-2.12-7.9Z"/>
      <path class="st0" d="M99.11,333.57c-.97-3.05.7-6.3,3.74-7.27,3.05-.98,6.3.7,7.27,3.74.98,3.04-.7,6.3-3.74,7.27-3.04.97-6.3-.7-7.27-3.74Z"/>
      <path class="st0" d="M126.31,187.07c-1.21,2.95-4.58,4.37-7.54,3.16-2.95-1.21-4.37-4.59-3.16-7.54,1.21-2.96,4.59-4.38,7.54-3.17,2.96,1.21,4.37,4.59,3.16,7.55Z"/>
      <path class="st0" d="M133.66,448.51c1.59,2.77.64,6.3-2.12,7.9-2.77,1.6-6.3.65-7.9-2.12-1.6-2.76-.65-6.3,2.12-7.9,2.76-1.59,6.3-.65,7.9,2.12Z"/>
      <path class="st0" d="M99.01,253.35c-.13,3.19-2.82,5.67-6.01,5.55-3.19-.13-5.67-2.82-5.55-6.01.13-3.19,2.82-5.67,6.01-5.55,3.19.13,5.67,2.82,5.55,6.01Z"/>
      <path class="st0" d="M112.01,168.44c1.21-2.95,4.58-4.37,7.54-3.16,2.95,1.21,4.37,4.59,3.16,7.54-1.21,2.96-4.59,4.37-7.54,3.17-2.96-1.21-4.37-4.59-3.16-7.55Z"/>
      <path class="st0" d="M116.27,412.62c-1.6-2.76-.65-6.3,2.12-7.9,2.76-1.59,6.3-.65,7.9,2.12,1.59,2.77.65,6.3-2.12,7.9-2.77,1.6-6.3.65-7.9-2.12Z"/>
      <path class="st0" d="M125.82,148.43c-2.05-2.44-1.73-6.09.71-8.14,2.45-2.06,6.1-1.74,8.15.71s1.73,6.09-.71,8.15c-2.45,2.05-6.1,1.73-8.15-.72Z"/>
      <path class="st0" d="M76.83,312.63c3.04-.97,6.3.71,7.27,3.75.98,3.04-.7,6.3-3.74,7.27-3.04.97-6.3-.7-7.27-3.75-.98-3.04.7-6.29,3.74-7.27Z"/>
      <path class="st0" d="M123.32,443.87c-2.76,1.59-6.3.65-7.9-2.12-1.59-2.77-.64-6.3,2.12-7.9,2.77-1.6,6.3-.65,7.9,2.12,1.6,2.76.65,6.3-2.12,7.9Z"/>
      <path class="st0" d="M139.47,142.89c-2.05-2.45-1.73-6.09.71-8.15,2.45-2.05,6.1-1.73,8.15.71,2.05,2.45,1.73,6.1-.71,8.15-2.45,2.05-6.1,1.74-8.15-.71Z"/>
      <path class="st0" d="M151.28,323.97c-.55-3.15,1.55-6.14,4.69-6.7,3.15-.55,6.14,1.55,6.7,4.69.55,3.15-1.55,6.15-4.69,6.7-3.15.55-6.15-1.55-6.7-4.69Z"/>
      <path class="st0" d="M155.97,278.01c-3.14-.56-5.24-3.56-4.69-6.7.55-3.15,3.55-5.25,6.7-4.69,3.14.55,5.24,3.55,4.69,6.69-.56,3.15-3.55,5.25-6.7,4.7Z"/>
      <path class="st0" d="M163.26,458.07c-1.71,2.7-5.28,3.5-7.98,1.8-2.7-1.7-3.51-5.28-1.8-7.98,1.7-2.7,5.27-3.51,7.97-1.8,2.71,1.7,3.51,5.27,1.81,7.98Z"/>
      <path class="st0" d="M130.7,192.47c2.96,1.21,4.37,4.59,3.16,7.55-1.21,2.95-4.58,4.37-7.54,3.16s-4.37-4.59-3.16-7.54c1.21-2.96,4.58-4.38,7.54-3.17Z"/>
      <path class="st0" d="M166.48,134.51c-2.37-2.15-2.54-5.8-.4-8.17,2.15-2.36,5.81-2.54,8.17-.39,2.37,2.15,2.54,5.81.39,8.17-2.14,2.36-5.8,2.54-8.16.39Z"/>
      <path class="st0" d="M85,328.5c-.97-3.04.71-6.3,3.75-7.27,3.04-.98,6.29.7,7.27,3.74.97,3.04-.71,6.3-3.75,7.27-3.04.98-6.29-.7-7.27-3.74Z"/>
      <path class="st0" d="M114.9,158.7c-2.06-2.45-1.74-6.09.71-8.15,2.44-2.05,6.09-1.73,8.14.72,2.06,2.44,1.74,6.09-.71,8.14-2.44,2.06-6.09,1.74-8.14-.71Z"/>
      <path class="st0" d="M148.61,459.14c-1.71,2.7-5.28,3.51-7.98,1.81-2.7-1.71-3.51-5.28-1.8-7.98,1.7-2.7,5.27-3.51,7.97-1.8,2.7,1.7,3.51,5.27,1.81,7.97Z"/>
      <path class="st0" d="M166,460.59c2.06-2.45,5.7-2.77,8.15-.71,2.45,2.05,2.77,5.7.71,8.14-2.05,2.45-5.7,2.77-8.14.72-2.45-2.06-2.77-5.7-.72-8.15Z"/>
      <path class="st0" d="M112.33,427.35c-1.59-2.77-.64-6.31,2.12-7.9,2.77-1.6,6.3-.65,7.9,2.11,1.6,2.77.65,6.31-2.12,7.9-2.76,1.6-6.3.65-7.9-2.11Z"/>
      <path class="st0" d="M76.46,222.7c1.6-2.77,5.13-3.71,7.9-2.12,2.76,1.6,3.71,5.14,2.12,7.9-1.6,2.77-5.14,3.72-7.9,2.12-2.77-1.6-3.72-5.13-2.12-7.9Z"/>
      <path class="st0" d="M64.35,303.89c.55-3.15,3.55-5.25,6.7-4.7,3.14.56,5.24,3.56,4.69,6.7-.56,3.15-3.56,5.25-6.7,4.69-3.15-.55-5.25-3.55-4.69-6.69Z"/>
      <path class="st0" d="M98.97,262.48c.13-3.19,2.82-5.68,6.01-5.55s5.67,2.81,5.55,6.01c-.13,3.19-2.82,5.67-6.01,5.55-3.19-.13-5.67-2.82-5.55-6.01Z"/>
      <path class="st0" d="M167.96,119.9c-2.36-2.15-2.54-5.81-.39-8.17,2.14-2.37,5.8-2.54,8.17-.39,2.36,2.14,2.53,5.8.39,8.16-2.15,2.37-5.81,2.54-8.17.4Z"/>
      <path class="st0" d="M154.65,144.21c-2.05-2.45-1.73-6.09.72-8.15,2.44-2.05,6.09-1.73,8.14.72,2.05,2.44,1.74,6.09-.71,8.14-2.45,2.06-6.09,1.74-8.15-.71Z"/>
      <path class="st0" d="M176.2,483.21c-2.05,2.44-5.7,2.76-8.15.71-2.44-2.05-2.76-5.7-.71-8.15,2.05-2.44,5.7-2.76,8.15-.71,2.44,2.05,2.76,5.7.71,8.15Z"/>
      <path class="st0" d="M354.06,80.71c1.09-3,4.41-4.55,7.41-3.46,3,1.09,4.55,4.41,3.46,7.41-1.1,3-4.41,4.55-7.42,3.46-3-1.09-4.54-4.41-3.45-7.41Z"/>
      <path class="st0" d="M398.09,181.48c2.44,2.05,2.76,5.7.71,8.14-2.06,2.45-5.7,2.77-8.15.72-2.45-2.06-2.76-5.7-.71-8.15s5.7-2.77,8.15-.71Z"/>
      <path class="st0" d="M385.3,491.74c1.09,3-.46,6.31-3.46,7.41-3,1.09-6.32-.46-7.41-3.46-1.09-3,.45-6.32,3.46-7.41,3-1.09,6.32.45,7.41,3.46Z"/>
      <path class="st0" d="M399.11,498.17c1.1,3-.45,6.32-3.45,7.41-3,1.09-6.32-.45-7.41-3.46-1.1-3,.45-6.31,3.45-7.41,3-1.09,6.32.46,7.41,3.46Z"/>
      <path class="st0" d="M370.25,105.16c3.12.68,5.1,3.76,4.43,6.88-.68,3.12-3.76,5.1-6.88,4.43-3.12-.68-5.1-3.76-4.43-6.88.68-3.12,3.76-5.1,6.88-4.43Z"/>
      <path class="st0" d="M398.8,405.65c2.05,2.45,1.73,6.1-.71,8.15-2.45,2.05-6.1,1.73-8.15-.71-2.05-2.45-1.74-6.1.71-8.15,2.45-2.05,6.09-1.73,8.15.71Z"/>
      <path class="st0" d="M431.94,221.82c1.59,2.76.65,6.3-2.12,7.9-2.77,1.59-6.3.65-7.9-2.12-1.6-2.76-.65-6.3,2.12-7.9,2.76-1.59,6.3-.65,7.9,2.12Z"/>
      <path class="st0" d="M364.48,510.03c1.48,2.83.4,6.32-2.43,7.81-2.82,1.49-6.32.4-7.81-2.42-1.48-2.83-.4-6.33,2.43-7.81,2.82-1.49,6.32-.4,7.81,2.42Z"/>
      <path class="st0" d="M433.27,475.38c2.36,2.15,2.54,5.8.39,8.17-2.15,2.36-5.8,2.54-8.17.39-2.36-2.15-2.54-5.8-.39-8.17,2.15-2.36,5.81-2.54,8.17-.39Z"/>
      <path class="st0" d="M446.58,451.07c2.05,2.44,1.73,6.09-.72,8.14-2.44,2.06-6.09,1.74-8.14-.71-2.06-2.45-1.74-6.09.71-8.15,2.45-2.05,6.09-1.73,8.15.72Z"/>
      <path class="st0" d="M445.26,317.27c3.14.56,5.24,3.55,4.69,6.7-.56,3.14-3.56,5.24-6.7,4.69-3.15-.55-5.25-3.55-4.69-6.7.55-3.14,3.55-5.24,6.7-4.69Z"/>
      <path class="st0" d="M405.9,98.76c-2.44-2.05-2.76-5.7-.71-8.15,2.05-2.44,5.7-2.76,8.15-.71,2.44,2.05,2.76,5.7.71,8.15-2.05,2.44-5.7,2.76-8.15.71Z"/>
      <path class="st0" d="M370.87,496.8c1.49,2.83.4,6.33-2.42,7.81-2.83,1.49-6.33.41-7.81-2.42-1.49-2.83-.41-6.32,2.42-7.81s6.32-.4,7.81,2.42Z"/>
      <path class="st0" d="M374.82,99.91c.67-3.12,3.75-5.1,6.87-4.43,3.13.68,5.11,3.76,4.43,6.88s-3.76,5.1-6.88,4.43c-3.12-.68-5.1-3.76-4.42-6.88Z"/>
      <path class="st0" d="M352.48,155.14c3,1.1,4.55,4.42,3.45,7.42-1.09,3-4.41,4.54-7.41,3.45-3-1.09-4.55-4.41-3.45-7.41,1.09-3,4.41-4.55,7.41-3.46Z"/>
      <path class="st0" d="M388.22,93.88c.67-3.12,3.75-5.1,6.87-4.42,3.12.68,5.11,3.76,4.43,6.88s-3.76,5.1-6.88,4.42c-3.12-.68-5.1-3.76-4.42-6.88Z"/>
      <path class="st0" d="M449.95,271.31c.55,3.14-1.55,6.14-4.69,6.7-3.15.55-6.15-1.55-6.7-4.7-.56-3.14,1.54-6.14,4.69-6.69,3.14-.56,6.14,1.54,6.7,4.69Z"/>
      <path class="st0" d="M373.41,482.03c1.49,2.83.4,6.33-2.42,7.81-2.83,1.49-6.33.4-7.81-2.42-1.49-2.83-.4-6.33,2.42-7.81,2.83-1.49,6.33-.4,7.81,2.42Z"/>
      <path class="st0" d="M429.82,365.56c2.77,1.59,3.71,5.13,2.12,7.9-1.6,2.76-5.14,3.71-7.9,2.11-2.77-1.59-3.72-5.13-2.12-7.9,1.6-2.76,5.13-3.71,7.9-2.11Z"/>
      <path class="st0" d="M367.92,91.06c3,1.09,4.55,4.41,3.45,7.41-1.09,3-4.41,4.55-7.41,3.46-3-1.09-4.55-4.41-3.45-7.41,1.09-3,4.41-4.55,7.41-3.46Z"/>
      <path class="st0" d="M425.03,112.07c2.05-2.45,5.7-2.77,8.15-.71,2.44,2.05,2.76,5.7.71,8.14-2.05,2.45-5.7,2.77-8.15.72-2.44-2.06-2.76-5.7-.71-8.15Z"/>
      <path class="st0" d="M427.61,491.72c1.1,3-.45,6.31-3.45,7.41-3,1.09-6.32-.46-7.41-3.46-1.1-3,.45-6.32,3.45-7.41,3-1.09,6.32.45,7.41,3.46Z"/>
      <path class="st0" d="M417.91,107.74c-2.44-2.05-2.76-5.7-.71-8.15,2.05-2.45,5.7-2.76,8.15-.71,2.44,2.05,2.76,5.7.71,8.15-2.05,2.44-5.7,2.76-8.15.71Z"/>
      <path class="st0" d="M434.75,460.76c2.37,2.15,2.54,5.81.39,8.17-2.14,2.37-5.8,2.54-8.16.39-2.37-2.14-2.54-5.8-.4-8.16,2.15-2.37,5.81-2.54,8.17-.4Z"/>
      <path class="st0" d="M434.51,126.54c2.45,2.05,2.77,5.7.72,8.15-2.06,2.44-5.71,2.76-8.15.71-2.45-2.05-2.77-5.7-.71-8.15,2.05-2.45,5.7-2.76,8.14-.71Z"/>
      <path class="st0" d="M432.09,446.01c2.36,2.15,2.54,5.81.39,8.17-2.15,2.37-5.8,2.54-8.17.39-2.36-2.14-2.54-5.8-.39-8.16,2.15-2.37,5.81-2.54,8.17-.4Z"/>
      <path class="st0" d="M413.83,497.63c1.1,3-.45,6.32-3.45,7.41-3,1.09-6.32-.46-7.41-3.46-1.1-3,.45-6.32,3.45-7.41s6.32.46,7.41,3.46Z"/>
      <path class="st0" d="M489.22,426.83c-1.21,2.96-4.58,4.37-7.54,3.16s-4.37-4.58-3.16-7.54c1.21-2.95,4.58-4.37,7.54-3.16s4.37,4.59,3.16,7.54Z"/>
      <path class="st0" d="M501.78,254.64c-.56-3.14,1.54-6.14,4.69-6.69,3.14-.56,6.14,1.54,6.7,4.69.55,3.14-1.55,6.14-4.69,6.7-3.15.55-6.15-1.55-6.7-4.7Z"/>
      <path class="st0" d="M528.14,275.37c.97,3.04-.7,6.3-3.74,7.27-3.05.97-6.3-.7-7.27-3.74-.98-3.05.7-6.3,3.74-7.27,3.04-.98,6.3.7,7.27,3.74Z"/>
      <path class="st0" d="M509.04,332.74c-3.14-.56-5.24-3.56-4.69-6.7.55-3.15,3.55-5.25,6.7-4.69,3.14.55,5.24,3.55,4.69,6.7-.56,3.14-3.55,5.24-6.7,4.69Z"/>
      <path class="st0" d="M492.37,399.79c-1.6,2.77-5.14,3.71-7.9,2.12-2.77-1.6-3.72-5.14-2.12-7.9,1.6-2.77,5.13-3.72,7.9-2.12,2.76,1.6,3.71,5.13,2.12,7.9Z"/>
      <path class="st0" d="M517.21,246.85c-3.14.55-6.14-1.55-6.7-4.69-.55-3.15,1.55-6.15,4.69-6.7,3.15-.56,6.15,1.54,6.7,4.69.56,3.14-1.54,6.14-4.69,6.7Z"/>
      <path class="st0" d="M502.22,341.93c.13-3.19,2.81-5.68,6.01-5.55,3.19.12,5.67,2.81,5.55,6-.13,3.19-2.82,5.68-6.01,5.55-3.19-.12-5.68-2.81-5.55-6Z"/>
      <path class="st0" d="M523.92,225.56c.56,3.14-1.54,6.14-4.69,6.69-3.14.56-6.14-1.54-6.69-4.69-.56-3.14,1.54-6.14,4.69-6.69,3.14-.56,6.14,1.54,6.69,4.69Z"/>
      <path class="st0" d="M528.22,319.3c-.55,3.14-3.55,5.24-6.7,4.69-3.14-.55-5.24-3.55-4.69-6.7.55-3.14,3.55-5.24,6.7-4.69,3.14.55,5.24,3.55,4.69,6.7Z"/>
      <path class="st0" d="M477.68,194.96c1.95,2.52,1.49,6.15-1.03,8.11-2.53,1.95-6.16,1.49-8.12-1.03-1.95-2.53-1.49-6.16,1.04-8.12,2.52-1.95,6.15-1.49,8.11,1.04Z"/>
      <path class="st0" d="M505.21,270.3c-.97-3.04.7-6.29,3.75-7.27,3.04-.97,6.29.71,7.27,3.75.97,3.04-.71,6.3-3.75,7.27-3.04.97-6.3-.7-7.27-3.75Z"/>
      <path class="st0" d="M536.88,291.39c-.55,3.15-3.55,5.25-6.7,4.69-3.14-.55-5.24-3.55-4.69-6.7.56-3.14,3.55-5.24,6.7-4.69,3.14.56,5.24,3.56,4.69,6.7Z"/>
      <path class="st0" d="M492.67,194.9c1.95,2.52,1.49,6.15-1.03,8.11-2.53,1.95-6.16,1.49-8.12-1.03-1.95-2.53-1.49-6.16,1.04-8.12,2.52-1.95,6.15-1.49,8.11,1.04Z"/>
      <path class="st0" d="M470.53,402.8c-2.96-1.21-4.37-4.58-3.16-7.54,1.21-2.96,4.58-4.37,7.54-3.16,2.95,1.21,4.37,4.58,3.16,7.54-1.21,2.96-4.59,4.37-7.54,3.16Z"/>
      <path class="st0" d="M486.33,436.57c2.06,2.45,1.74,6.1-.71,8.15s-6.09,1.73-8.15-.71c-2.05-2.45-1.73-6.1.72-8.15,2.44-2.05,6.09-1.73,8.14.71Z"/>
      <path class="st0" d="M510.48,354.08c.12-3.19,2.81-5.68,6-5.55,3.2.12,5.68,2.81,5.56,6-.13,3.19-2.82,5.68-6.01,5.55-3.19-.12-5.68-2.81-5.55-6Z"/>
      <path class="st0" d="M461.76,452.39c2.05,2.44,1.73,6.09-.71,8.14-2.45,2.06-6.1,1.74-8.15-.71-2.05-2.45-1.73-6.09.71-8.15,2.45-2.05,6.1-1.73,8.15.72Z"/>
      <path class="st0" d="M475.41,446.84c2.05,2.45,1.73,6.1-.72,8.15-2.44,2.05-6.09,1.73-8.14-.71-2.06-2.45-1.74-6.1.71-8.15,2.45-2.05,6.09-1.73,8.15.71Z"/>
      <path class="st0" d="M474.91,408.21c1.21-2.96,4.59-4.37,7.55-3.16,2.95,1.21,4.37,4.58,3.16,7.54-1.21,2.96-4.59,4.37-7.54,3.16-2.96-1.21-4.38-4.58-3.17-7.54Z"/>
      <path class="st0" d="M502.26,332.8c-.13,3.19-2.82,5.67-6.01,5.55-3.19-.13-5.68-2.82-5.55-6.01.12-3.19,2.81-5.68,6-5.55,3.2.13,5.68,2.81,5.56,6.01Z"/>
      <path class="st0" d="M509.11,212.97c-.56-3.15,1.54-6.15,4.69-6.7,3.14-.56,6.14,1.54,6.7,4.69.55,3.14-1.55,6.14-4.7,6.7-3.14.55-6.14-1.55-6.69-4.69Z"/>
      <path class="st0" d="M502.12,261.71c.97,3.04-.7,6.3-3.75,7.27-3.04.97-6.29-.7-7.27-3.75-.97-3.04.71-6.29,3.75-7.27,3.04-.97,6.3.71,7.27,3.75Z"/>
      <path class="st0" d="M507.08,395.84c-1.59,2.76-5.13,3.71-7.89,2.11-2.77-1.59-3.72-5.13-2.12-7.89,1.6-2.77,5.13-3.72,7.9-2.12,2.76,1.6,3.71,5.13,2.11,7.9Z"/>
      <path class="st0" d="M506.8,198.9c1.96,2.52,1.5,6.15-1.03,8.11-2.52,1.95-6.16,1.49-8.11-1.04-1.96-2.52-1.49-6.15,1.03-8.11,2.53-1.95,6.16-1.49,8.11,1.04Z"/>
      <path class="st0" d="M339.56,517.37c-15.06,2.67-30.49-13.33-34.47-35.75-3.06-17.28,2.74-38.08,10.97-47.66-5.07.58-10.22.87-15.44.87s-10.21-.28-15.21-.84c8.25,9.57,14.08,30.36,11.04,47.64-3.93,22.42-19.33,38.45-34.4,35.81-15.06-2.64-24.08-22.96-20.15-45.38,3.03-17.28,15.58-34.83,26.58-41.03-10.07-2.43-19.71-5.97-28.79-10.49,4.48,11.8,2.86,33.35-5.91,48.57-11.37,19.72-31.33,29.52-44.58,21.88-13.25-7.63-14.78-29.81-3.41-49.53,8.78-15.24,26.65-27.48,39.11-29.47-8.59-5.71-16.5-12.35-23.58-19.79.23,12.62-8.68,32.38-22.16,43.71-17.42,14.64-39.53,17.03-49.37,5.32-9.84-11.71-3.69-33.08,13.73-47.72,13.47-11.32,34.46-16.7,46.85-14.32-4.02-5.42-7.65-11.14-10.84-17.13-6.86,1.99-12.36,3.69-17.55,5.41-28.52,9.45-61.94,19.78-97.76,22.67l-.65-7.97c.9-.07,1.8-.15,2.7-.24-4.72-2.41-7.96-7.33-7.96-13,0-4.16,1.74-7.92,4.54-10.58-.59.05-1.17.1-1.75.15l-.65-7.98c29.37-2.38,69.26-10.21,106.74-20.94-1.81-7.53-2.99-15.29-3.49-23.24-7.98,9.78-27.44,19.13-45,19.15-22.76.02-41.23-12.37-41.24-27.66-.01-15.3,18.43-27.71,41.19-27.73,17.56-.02,37.05,9.31,45.04,19.08.63-10.42,2.44-20.53,5.29-30.2-10.84,6.46-32.33,8.59-48.83,2.61-21.4-7.77-34.52-25.72-29.3-40.1,5.22-14.38,26.8-19.73,48.19-11.97,16.51,5.99,31.64,21.43,35.81,33.34,4.14-9.47,9.31-18.38,15.38-26.59-12.39,2.41-33.38-2.94-46.87-14.23-17.45-14.62-23.64-35.98-13.81-47.7,9.82-11.73,31.93-9.38,49.38,5.24,13.5,11.3,22.44,31.06,22.23,43.67,7.07-7.46,14.97-14.11,23.55-19.83-12.46-1.97-30.36-14.17-39.17-29.4-11.4-19.71-9.91-41.89,3.33-49.55,13.24-7.66,33.22,2.11,44.61,21.81,8.8,15.21,10.46,36.77,5.99,48.57,9.08-4.54,18.72-8.1,28.8-10.55-11.02-6.16-23.6-23.7-26.67-40.98-3.97-22.42,5.02-42.75,20.08-45.42,15.06-2.67,30.49,13.34,34.46,35.75,3.06,17.29-2.73,38.1-10.97,47.67,5.07-.58,10.23-.87,15.45-.87s10.21.28,15.21.84c-8.25-9.56-14.08-30.35-11.05-47.64,3.94-22.42,19.34-38.46,34.4-35.81,15.07,2.64,24.09,22.96,20.16,45.38-3.03,17.28-15.59,34.84-26.59,41.03,10.07,2.43,19.71,5.97,28.79,10.48-4.48-11.8-2.85-33.35,5.92-48.56,11.36-19.73,31.32-29.52,44.57-21.89,13.26,7.64,14.79,29.82,3.42,49.54-8.78,15.24-26.66,27.47-39.12,29.47,5.73,3.8,11.16,8.03,16.24,12.63,11.64-10.02,21.59-18.2,31.1-25.58,3.35-2.6,6.6-5.19,9.74-7.69,19.31-15.38,35.99-28.65,62.36-34.32l1.69,7.82c-1.78.38-3.52.8-5.21,1.26,6.81,1.23,11.98,7.2,11.98,14.37,0,4.57-2.09,8.64-5.38,11.32,1.5-.39,3.01-.75,4.54-1.08l1.69,7.82c-27.89,6-51.15,22.77-76.5,42.45-4.44,3.44-8.82,6.86-13.18,10.28,4.17,6.34,7.82,13.06,10.9,20.07,4.15-11.92,19.25-27.37,35.74-33.39,21.38-7.8,42.97-2.48,48.21,11.88,5.25,14.37-7.84,32.35-29.22,40.15-16.49,6.01-37.97,3.92-48.83-2.51,2.86,9.66,4.68,19.76,5.34,30.16,7.98-9.78,27.44-19.12,45-19.14,22.76-.02,41.22,12.36,41.24,27.66,0,15.29-18.43,27.71-41.2,27.73-17.55.02-37.03-9.31-45.03-19.08-.63,10.41-2.44,20.51-5.28,30.18,10.86-6.45,32.33-8.58,48.82-2.59,21.4,7.77,34.51,25.72,29.29,40.09-5.21,14.38-26.79,19.74-48.19,11.97-16.5-5.99-31.62-21.4-35.8-33.32-4.14,9.46-9.31,18.36-15.37,26.57,12.39-2.4,33.37,2.94,46.86,14.24,17.45,14.62,23.63,35.97,13.81,47.7-9.82,11.72-31.93,9.38-49.38-5.24-13.5-11.31-22.44-31.05-22.23-43.67-7.07,7.46-14.98,14.12-23.56,19.83,12.46,1.97,30.36,14.17,39.17,29.4,11.4,19.7,9.91,41.89-3.33,49.54-13.24,7.66-33.21-2.1-44.61-21.81-8.8-15.2-10.46-36.75-5.99-48.55-9.07,4.53-18.71,8.09-28.78,10.54,11.01,6.17,23.59,23.7,26.65,40.98,3.97,22.41-5.01,42.75-20.07,45.41Z"/>
      <path class="st0" d="M524.77,372.58c-1.6,2.76-5.13,3.71-7.9,2.11-2.77-1.6-3.71-5.13-2.12-7.9,1.6-2.76,5.14-3.71,7.9-2.11,2.77,1.59,3.72,5.13,2.12,7.9Z"/>
      <path class="st0" d="M535.11,306.28c-.55,3.14-3.55,5.24-6.7,4.69-3.14-.55-5.24-3.55-4.69-6.7.56-3.14,3.56-5.24,6.7-4.69,3.15.56,5.25,3.55,4.69,6.7Z"/>
      <path class="st0" d="M518.01,385.96c-1.59,2.77-5.13,3.71-7.9,2.12-2.76-1.6-3.71-5.14-2.11-7.9,1.59-2.77,5.13-3.71,7.9-2.12,2.76,1.6,3.71,5.14,2.11,7.9Z"/>
    </g>
  </g>
  <g id="Layer_2">
    <g>
      <g>
        <path d="M318.88,256.57c0,1.42-.23,2.93-.65,4.49-2.67,3.59-4.8,8.5-6.43,13.36-.08.13-.17.27-.26.4-3.3-1.58-7.01-2.47-10.92-2.47s-7.62.89-10.92,2.47c-.09-.13-.18-.27-.26-.4-2.79-4.31-5.3-9.04-6.43-13.36-.42-1.56-.65-3.07-.65-4.49,0-12.6,8.17-22.82,18.26-22.82s18.26,10.22,18.26,22.82Z"/>
        <path d="M289.59,274.87c-6.79,3.3-11.89,9.55-13.61,17.08-.17-.01-.32-.03-.48-.04h-.01c-5.11-.52-10.36-1.5-14.45-3.3h-.01c-1.48-.65-2.8-1.41-3.91-2.3-9.85-7.86-12.74-20.62-6.45-28.5,6.29-7.89,19.37-7.91,29.22-.06,1.11.89,2.15,2.01,3.12,3.31,1.13,4.32,3.64,9.05,6.43,13.36.05.15.1.3.15.45Z"/>
        <path d="M280.81,313.35c-.11.12-.21.22-.32.34h-.01c-3.59,3.69-7.64,7.19-11.61,9.27h-.01c-1.43.74-2.84,1.3-4.22,1.62-12.28,2.8-24.06-2.89-26.3-12.73-2.25-9.83,5.89-20.07,18.17-22.88,1.38-.32,2.91-.43,4.52-.36h.01c4.09,1.8,9.34,2.78,14.45,3.3h.01c.15.05.3.11.45.17-.41,1.79-.62,3.65-.62,5.56,0,5.93,2.05,11.4,5.48,15.71Z"/>
        <path d="M300.62,338.24c-.31,1.59-.75,3.05-1.37,4.33-5.47,11.35-17.26,17-26.35,12.63-9.09-4.38-12.02-17.13-6.56-28.48.62-1.28,1.48-2.54,2.52-3.76h.01c3.97-2.08,8.02-5.58,11.61-9.26h.01c.13-.09.26-.17.4-.25,4.61,5.77,11.71,9.46,19.67,9.48.02.15.04.31.06.46.64,5.1.85,10.46,0,14.85Z"/>
        <path d="M328.34,355.2c-9.09,4.37-20.89-1.28-26.35-12.63-.62-1.28-1.06-2.74-1.37-4.33.85-4.39.64-9.75,0-14.85.02-.15.04-.31.06-.46,7.96-.02,15.06-3.71,19.67-9.48.14.09.27.17.4.25h.01c4.37,2.68,8.69,5.84,11.58,9.24h.01c1.06,1.24,1.92,2.5,2.54,3.78,5.47,11.35,2.53,24.1-6.55,28.48Z"/>
        <path d="M362.9,311.85c-2.24,9.84-14.02,15.53-26.3,12.73-1.39-.32-2.81-.88-4.25-1.63h-.01c-2.89-3.41-7.21-6.57-11.58-9.24h-.01c-.11-.12-.22-.24-.33-.35,3.44-4.31,5.49-9.78,5.49-15.72,0-1.91-.21-3.78-.62-5.57.15-.05.29-.11.44-.16h.01c4.82-1.76,9.99-3.16,14.46-3.3h.01c1.61-.06,3.13.05,4.51.36,12.29,2.81,20.42,13.05,18.18,22.88Z"/>
        <path d="M344.12,286.31c-1.11.89-2.43,1.65-3.91,2.3h-.01c-4.47.14-9.64,1.54-14.46,3.3h-.01c-.16.01-.31.03-.47.04-1.72-7.53-6.82-13.78-13.61-17.08.05-.15.1-.3.15-.45,1.63-4.86,3.76-9.77,6.43-13.36.96-1.3,2-2.42,3.11-3.31,9.85-7.85,22.94-7.83,29.22.06,6.29,7.88,3.41,20.64-6.44,28.5Z"/>
      </g>
      <path d="M300.61,369.87c-39.83,0-72.23-32.4-72.23-72.23s32.4-72.23,72.23-72.23,72.23,32.4,72.23,72.23-32.4,72.23-72.23,72.23ZM300.61,233.41c-35.42,0-64.23,28.81-64.23,64.23s28.81,64.23,64.23,64.23,64.23-28.81,64.23-64.23-28.81-64.23-64.23-64.23Z"/>
      <path d="M241.69,388.38c.46.31.93.61,1.4.9h0c-.47-.3-.94-.6-1.4-.9ZM315.9,404.78h0c.55-.06,1.1-.15,1.65-.24-.55.08-1.1.16-1.65.24ZM358.14,389.27h.01c.47-.28.93-.58,1.39-.89-.46.3-.93.6-1.4.89ZM367.4,382.75h0c.44-.33.87-.68,1.3-1.04-.43.35-.86.7-1.3,1.04ZM369.98,380.65c-.42.35-.85.71-1.28,1.06.43-.34.86-.69,1.29-1.05h-.01ZM375.92,375.29h.01c.39-.37.79-.77,1.18-1.16-.39.39-.79.77-1.19,1.16ZM378.27,372.94c-.39.4-.77.8-1.16,1.19.39-.39.79-.79,1.17-1.18h-.01ZM383.63,367h0c.36-.42.71-.85,1.05-1.28-.35.43-.71.86-1.06,1.28ZM385.73,364.42c-.34.44-.69.87-1.04,1.3.36-.43.71-.86,1.05-1.3h-.01ZM392.25,355.16c-.29.47-.59.94-.89,1.4.31-.46.61-.92.9-1.39h-.01ZM391.36,238.71c.3.46.6.93.89,1.4h.01c-.29-.47-.59-.94-.9-1.4ZM407.76,312.92c-.08.55-.16,1.1-.24,1.65.09-.55.18-1.1.25-1.65h0Z"/>
      <path d="M400.7,303.04l-13.34-11.34,11.68-13.05c-.18-.94-.37-1.88-.58-2.81l-15.92-7.32,7.71-15.7c-.42-.87-.87-1.72-1.33-2.57l-17.27-2.75,3.19-17.16c-.67-.73-1.34-1.44-2.03-2.15l-17.32,2-1.57-17.39c-.83-.53-1.66-1.04-2.5-1.53l-16.16,6.62-6.22-16.37c-.91-.28-1.83-.54-2.76-.78l-13.82,10.76-10.39-14.07c-.48-.02-.96-.02-1.45-.02s-.97,0-1.45.02l-10.39,14.07-13.82-10.76h-.01c-.93.24-1.84.5-2.76.78l-6.21,16.37-16.17-6.62c-.84.49-1.67,1-2.5,1.53l-1.56,17.39-17.32-2c-.69.71-1.36,1.42-2.03,2.15l3.18,17.16-17.26,2.74h0c-.46.86-.91,1.72-1.34,2.59l7.71,15.69-15.91,7.32c-.21.93-.41,1.87-.58,2.82l11.67,13.04-13.33,11.34c.04.96.11,1.92.19,2.87l14.76,9.42-9.79,14.52c.31.91.63,1.81.96,2.7l16.76,5.09-5.49,16.57c.54.81,1.11,1.61,1.7,2.4l17.44.37-.81,17.43c.75.64,1.51,1.26,2.28,1.86l16.9-4.34,3.92,17.05c.87.4,1.76.78,2.65,1.15l15.15-8.77,8.39,15.38c.95.14,1.9.27,2.85.38l12.22-12.54,12.22,12.54c.95-.11,1.9-.24,2.85-.38l8.39-15.38,15.14,8.78h.01c.89-.37,1.76-.75,2.63-1.16h.01l3.92-17.05,16.91,4.34c.77-.6,1.53-1.22,2.28-1.86l-.82-17.43,17.45-.37c.59-.79,1.16-1.59,1.7-2.4l-5.49-16.57,16.76-5.09c.33-.89.65-1.79.96-2.7l-9.79-14.52,14.76-9.42c.08-.95.15-1.91.19-2.87ZM374.52,313l9.68,14.34-16.56,5.03,5.45,16.42-17.31.37.82,17.29-16.76-4.32-3.88,16.87-14.98-8.68-8.28,15.19-12.08-12.39-12.08,12.39-8.29-15.19-14.97,8.68-3.88-16.87-16.76,4.32.81-17.29-17.3-.37,5.45-16.42-16.56-5.03,9.67-14.34-14.59-9.31,13.19-11.2-11.54-12.9,15.72-7.23-7.63-15.53,17.09-2.72-3.16-17.02,17.19,1.99,1.55-17.23,16.01,6.55,6.15-16.18,13.65,10.64,10.28-13.92,10.28,13.92,13.65-10.64,6.14,16.18,16.02-6.55,1.55,17.23,17.19-1.99-3.16,17.02,17.09,2.72-7.64,15.53,15.73,7.23-11.54,12.9,13.18,11.2-14.59,9.31Z"/>
      <g>
        <path d="M285.17,161.32c-5.75.64-11.39,1.65-16.9,2.98-11.02-6.16-23.6-23.7-26.67-40.98-3.97-22.42,5.02-42.75,20.08-45.42,15.06-2.67,30.49,13.34,34.46,35.75,3.06,17.29-2.73,38.1-10.97,47.67Z"/>
        <path d="M239.47,174.85c-5.11,2.55-10.04,5.42-14.76,8.57-12.46-1.97-30.36-14.17-39.17-29.4-11.4-19.71-9.91-41.89,3.33-49.55,13.24-7.66,33.22,2.11,44.61,21.81,8.8,15.21,10.46,36.77,5.99,48.57Z"/>
        <path d="M201.16,203.25c-3.9,4.1-7.55,8.45-10.93,13.02-12.39,2.41-33.38-2.94-46.87-14.23-17.45-14.62-23.64-35.98-13.81-47.7,9.82-11.73,31.93-9.38,49.38,5.24,13.5,11.3,22.44,31.06,22.23,43.67Z"/>
        <path d="M174.85,242.86c-2.28,5.21-4.25,10.6-5.87,16.12-10.84,6.46-32.33,8.59-48.83,2.61-21.4-7.77-34.52-25.72-29.3-40.1,5.22-14.38,26.8-19.73,48.19-11.97,16.51,5.99,31.64,21.43,35.81,33.34Z"/>
        <path d="M163.7,306.34c-7.98,9.78-27.44,19.13-45,19.15-22.76.02-41.23-12.37-41.24-27.66-.01-15.3,18.43-27.71,41.19-27.73,17.56-.02,37.05,9.31,45.04,19.08-.17,2.8-.26,5.62-.26,8.46s.09,5.82.27,8.7Z"/>
        <path d="M201.32,392.2c.23,12.62-8.68,32.38-22.16,43.71-17.42,14.64-39.53,17.03-49.37,5.32s-3.69-33.08,13.73-47.72c13.47-11.32,34.46-16.7,46.85-14.32,3.38,4.56,7.04,8.91,10.95,13.01Z"/>
        <path d="M233.78,469.11c-11.37,19.72-31.33,29.52-44.58,21.88-13.25-7.63-14.78-29.81-3.41-49.53,8.78-15.24,26.65-27.48,39.11-29.47,4.73,3.14,9.67,6,14.79,8.55,4.48,11.8,2.86,33.35-5.91,48.57Z"/>
        <path d="M296.45,481.63c-3.93,22.42-19.33,38.45-34.4,35.81-15.06-2.64-24.08-22.96-20.15-45.38,3.03-17.28,15.58-34.83,26.58-41.03,5.52,1.33,11.17,2.32,16.93,2.96,8.25,9.57,14.08,30.36,11.04,47.64Z"/>
        <g>
          <path d="M437.54,288.93c-.66-10.4-2.48-20.5-5.34-30.16-1.63-5.53-3.61-10.91-5.9-16.13-3.08-7.01-6.73-13.73-10.9-20.07-1.46-2.24-2.99-4.43-4.59-6.57-3.81-5.13-7.97-9.99-12.44-14.53-1.88-1.91-3.81-3.76-5.8-5.55-5.08-4.6-10.51-8.83-16.24-12.63-4.73-3.15-9.67-6.01-14.79-8.56-9.08-4.51-18.72-8.05-28.79-10.48-5.52-1.33-11.17-2.32-16.92-2.96-5-.56-10.07-.84-15.21-.84s-10.38.29-15.45.87c-5.75.64-11.39,1.65-16.9,2.98-10.08,2.45-19.72,6.01-28.8,10.55-5.11,2.55-10.04,5.42-14.76,8.57-8.58,5.72-16.48,12.37-23.55,19.83-3.9,4.1-7.55,8.45-10.93,13.02-6.07,8.21-11.24,17.12-15.38,26.59-2.28,5.21-4.25,10.6-5.87,16.12-2.85,9.67-4.66,19.78-5.29,30.2-.17,2.8-.26,5.62-.26,8.46s.09,5.82.27,8.7c.5,7.95,1.68,15.71,3.49,23.24.62,2.6,1.32,5.18,2.09,7.72,1.81,6.01,4.04,11.85,6.63,17.49,1.13,2.47,2.34,4.89,3.62,7.27,3.19,5.99,6.82,11.71,10.84,17.13,3.38,4.56,7.04,8.91,10.95,13.01,7.08,7.44,14.99,14.08,23.58,19.79,4.73,3.14,9.67,6,14.79,8.55,9.08,4.52,18.72,8.06,28.79,10.49,5.52,1.33,11.17,2.32,16.93,2.96,5,.56,10.07.84,15.21.84s10.37-.29,15.44-.87c5.75-.64,11.4-1.65,16.92-2.98,10.07-2.45,19.71-6.01,28.78-10.54,5.11-2.56,10.04-5.42,14.76-8.58,8.58-5.71,16.49-12.37,23.56-19.83,3.9-4.11,7.56-8.46,10.94-13.03,6.06-8.21,11.23-17.11,15.37-26.57,2.28-5.22,4.25-10.62,5.88-16.15,2.84-9.67,4.65-19.77,5.28-30.18.17-2.8.26-5.62.26-8.46s-.09-5.83-.27-8.71ZM408.85,297.64c0,1.34-.02,2.67-.08,4h20.97c-.06,1.85-.15,3.69-.29,5.52l-20.85-2.2c-.17,2.68-.45,5.34-.83,7.96l20.85,2.19c-.25,1.84-.53,3.66-.85,5.46l-20.52-4.36c-.45,2.64-1.01,5.26-1.66,7.83l20.51,4.36c-.44,1.79-.92,3.57-1.43,5.34l-19.94-6.48c-.73,2.57-1.56,5.11-2.48,7.61l19.94,6.47c-.63,1.74-1.29,3.46-1.99,5.16l-19.15-8.53c-.99,2.48-2.08,4.92-3.27,7.31l19.16,8.53c-.8,1.66-1.64,3.3-2.52,4.92l-18.15-10.49c-1.25,2.37-2.59,4.68-4.01,6.93l18.15,10.47c-.97,1.57-1.98,3.11-3.01,4.63l-16.96-12.32c-1.48,2.22-3.05,4.38-4.7,6.47l16.94,12.32c-1.12,1.45-2.29,2.88-3.47,4.28l-15.57-14.01c-1.71,2.05-3.49,4.03-5.36,5.94l15.57,14.02c-1.27,1.33-2.57,2.63-3.9,3.9l-14.02-15.57c-1.91,1.87-3.89,3.65-5.94,5.36l14.01,15.57c-1.4,1.18-2.83,2.35-4.28,3.47l-12.32-16.94c-2.09,1.65-4.25,3.22-6.47,4.7l12.32,16.96c-1.52,1.03-3.06,2.04-4.63,3.01l-10.47-18.15c-2.25,1.42-4.56,2.76-6.93,4.01l10.49,18.15c-1.62.88-3.26,1.72-4.92,2.52l-8.53-19.16c-2.39,1.19-4.83,2.28-7.31,3.27l8.53,19.15c-1.7.7-3.42,1.36-5.16,1.99l-6.47-19.94c-2.5.92-5.04,1.75-7.61,2.48l6.48,19.94c-1.77.51-3.55.99-5.34,1.43l-4.36-20.51c-2.57.65-5.19,1.21-7.83,1.66l4.36,20.52c-1.8.32-3.62.6-5.46.85l-2.19-20.85c-2.62.38-5.28.66-7.96.83l2.2,20.85c-1.83.14-3.67.23-5.52.29v-20.97c-1.33.06-2.66.08-4,.08s-2.67-.02-4-.08v20.97c-1.85-.06-3.69-.15-5.52-.29l2.19-20.85c-2.68-.17-5.34-.45-7.96-.83l-2.19,20.85c-1.83-.25-3.65-.53-5.46-.85l4.36-20.52c-2.64-.45-5.25-1.01-7.82-1.66l-4.36,20.51c-1.8-.44-3.58-.92-5.34-1.43l6.48-19.94c-2.57-.73-5.11-1.56-7.61-2.48l-6.48,19.94c-1.74-.63-3.45-1.29-5.16-1.99l8.53-19.15c-2.48-1-4.92-2.08-7.3-3.27l-8.53,19.16c-1.66-.8-3.3-1.64-4.92-2.52l10.48-18.15c-2.36-1.25-4.67-2.59-6.92-4.01l-10.48,18.15c-1.56-.97-3.11-1.98-4.63-3.01l12.32-16.96c-2.22-1.49-4.38-3.06-6.47-4.71l-12.31,16.95c-1.46-1.12-2.88-2.29-4.29-3.47l14.02-15.58c-2.05-1.7-4.03-3.48-5.94-5.36l-14.02,15.58c-1.33-1.27-2.63-2.57-3.91-3.9l15.58-14.03c-1.87-1.91-3.66-3.89-5.36-5.94l-15.57,14.02c-1.19-1.4-2.35-2.83-3.48-4.28l16.95-12.32c-1.65-2.09-3.22-4.25-4.71-6.47l-16.95,12.32c-1.04-1.52-2.04-3.06-3.01-4.63l18.15-10.48c-1.43-2.25-2.76-4.56-4.01-6.92l-18.16,10.49c-.87-1.62-1.71-3.26-2.52-4.92l19.16-8.53c.16.31.31.63.48.94-1.37-2.69-2.62-5.44-3.74-8.25l-19.15,8.53c-.7-1.7-1.37-3.42-1.99-5.16l19.93-6.47c.25.67.51,1.34.77,2.01-1.23-3.14-2.31-6.35-3.24-9.62l-19.94,6.48c-.51-1.77-.99-3.55-1.43-5.34l20.51-4.36c-.65-2.57-1.21-5.19-1.66-7.83l-20.52,4.36c-.33-1.8-.6-3.62-.85-5.46l20.85-2.19c-.38-2.62-.66-5.28-.83-7.96l-20.86,2.2c-.13-1.83-.23-3.67-.28-5.52h20.97c-.06-1.33-.08-2.66-.08-4s.02-2.67.08-4h-20.97c.05-1.85.15-3.69.28-5.52l20.86,2.19c.17-2.68.45-5.34.83-7.96l-20.85-2.19c.25-1.83.52-3.65.85-5.46l20.52,4.36c.45-2.64,1.01-5.25,1.66-7.82l-20.51-4.36c.44-1.8.92-3.58,1.43-5.34l19.94,6.48c.73-2.57,1.56-5.11,2.47-7.61l-19.93-6.48c.62-1.74,1.29-3.45,1.99-5.16l19.15,8.53c.99-2.48,2.08-4.92,3.26-7.3l-19.16-8.53c.81-1.66,1.65-3.3,2.52-4.92l18.16,10.48c1.25-2.36,2.59-4.67,4.01-6.92l-18.15-10.48c.97-1.56,1.97-3.11,3.01-4.63l16.95,12.32c-.31.46-.61.92-.92,1.39,1.77-2.71,3.65-5.33,5.63-7.86l-16.95-12.31c1.13-1.46,2.29-2.88,3.48-4.29l15.57,14.02c1.71-2.05,3.49-4.03,5.36-5.94l-15.58-14.02c1.28-1.33,2.58-2.63,3.91-3.91l14.02,15.58c1.91-1.87,3.89-3.65,5.94-5.36l-14.02-15.57c1.41-1.19,2.83-2.35,4.29-3.48l12.31,16.95c2.53-1.98,5.15-3.86,7.86-5.63-.47.31-.93.61-1.39.92l-12.32-16.95c1.52-1.04,3.07-2.04,4.63-3.01l10.48,18.15c2.25-1.42,4.56-2.76,6.92-4.01l-10.48-18.16c1.62-.87,3.26-1.71,4.92-2.52l8.53,19.16c2.38-1.18,4.82-2.27,7.3-3.26l-8.53-19.15c1.71-.7,3.42-1.37,5.16-1.99l6.48,19.93c2.5-.91,5.04-1.74,7.61-2.47l-6.48-19.94c1.76-.51,3.54-.99,5.34-1.43l4.36,20.51c2.57-.65,5.18-1.21,7.82-1.66l-4.36-20.52c1.81-.33,3.63-.6,5.46-.85l2.19,20.85c2.62-.38,5.28-.66,7.96-.83l-2.19-20.86c1.83-.13,3.67-.23,5.52-.28v20.97c1.33-.06,2.66-.08,4-.08s2.67.02,4,.08v-20.97c1.85.05,3.69.15,5.52.28l-2.2,20.86c2.68.17,5.34.45,7.96.83l2.19-20.85c1.84.25,3.66.52,5.46.85l-4.36,20.52c2.64.45,5.26,1.01,7.83,1.66l4.36-20.51c1.79.44,3.57.92,5.34,1.43l-6.48,19.94c3.27.93,6.48,2.01,9.62,3.24-.67-.26-1.34-.52-2.01-.77l6.47-19.93c1.74.62,3.46,1.29,5.16,1.99l-8.53,19.15c2.81,1.12,5.56,2.37,8.25,3.74-.31-.17-.63-.32-.94-.48l8.53-19.16c1.66.81,3.3,1.65,4.92,2.52l-10.49,18.16c2.36,1.25,4.67,2.58,6.92,4.01l10.48-18.15c1.57.97,3.11,1.97,4.63,3.01l-12.32,16.95c2.22,1.49,4.38,3.06,6.47,4.71l12.32-16.95c1.45,1.13,2.88,2.29,4.28,3.48l-14.02,15.57c2.05,1.7,4.03,3.49,5.94,5.36l14.03-15.58c1.33,1.28,2.63,2.58,3.9,3.91l-15.58,14.02c1.88,1.91,3.66,3.89,5.36,5.94l15.58-14.02c1.18,1.41,2.35,2.83,3.47,4.29l-16.95,12.31c1.65,2.09,3.22,4.25,4.71,6.47l16.96-12.32c1.03,1.52,2.04,3.07,3.01,4.63l-18.15,10.48c1.42,2.25,2.76,4.56,4.01,6.92l18.15-10.48c.88,1.62,1.72,3.26,2.52,4.92l-19.16,8.53c1.19,2.38,2.27,4.82,3.27,7.3l19.15-8.53c.7,1.71,1.36,3.42,1.99,5.16l-19.94,6.48c.92,2.5,1.75,5.04,2.48,7.61l19.94-6.48c.51,1.76.99,3.54,1.43,5.34l-20.51,4.36c.65,2.57,1.21,5.18,1.66,7.82l20.52-4.36c.32,1.81.6,3.63.85,5.46l-20.85,2.19c.38,2.62.66,5.28.83,7.96l20.85-2.19c.14,1.83.23,3.67.29,5.52h-20.97c.06,1.33.08,2.66.08,4Z"/>
          <path d="M408.77,293.64c0-.21-.02-.42-.03-.63-.01-.35-.03-.69-.04-1.04,0-.19-.02-.38-.03-.57-.03-.36-.05-.73-.07-1.09-.17-2.68-.45-5.34-.83-7.96h0l-.24-1.65c-.08-.55-.18-1.1-.27-1.64-.45-2.64-1.01-5.25-1.66-7.82v-.02c-.13-.5-.26-.99-.39-1.49-.16-.57-.31-1.14-.47-1.71-.73-2.57-1.56-5.11-2.48-7.61-.22-.59-.44-1.18-.67-1.77-.15-.39-.31-.78-.46-1.17-.03-.06-.05-.11-.07-.17-1-2.48-2.08-4.92-3.27-7.3-.49-1-.99-1.99-1.51-2.97-1.25-2.36-2.59-4.67-4.01-6.92h-.01c-.29-.47-.59-.94-.89-1.4-.3-.47-.61-.93-.92-1.39-1.49-2.22-3.06-4.38-4.71-6.47-.36-.46-.73-.91-1.1-1.37-.33-.4-.66-.81-1-1.21-1.7-2.05-3.48-4.03-5.36-5.94-.39-.39-.77-.79-1.16-1.18-.39-.39-.79-.79-1.19-1.17-1.91-1.87-3.89-3.66-5.94-5.36-.85-.71-1.71-1.41-2.58-2.1-2.09-1.65-4.25-3.22-6.47-4.71-.48-.32-.96-.64-1.44-.95-.45-.29-.9-.58-1.35-.86-2.25-1.43-4.56-2.76-6.92-4.01-.67-.35-1.34-.71-2.02-1.04-2.69-1.37-5.44-2.62-8.25-3.74-.36-.15-.72-.29-1.09-.44-3.14-1.23-6.35-2.31-9.62-3.24-.19-.05-.37-.11-.56-.16-.52-.14-1.05-.29-1.57-.42-.35-.09-.7-.18-1.06-.27-.01,0-.02-.01-.03-.01-2.57-.65-5.19-1.21-7.83-1.66-.55-.09-1.09-.19-1.64-.27-.44-.07-.89-.14-1.33-.2-.11-.02-.21-.03-.32-.05-2.62-.38-5.28-.66-7.96-.83-.55-.04-1.1-.07-1.66-.1-.35-.01-.7-.03-1.05-.04-.2,0-.41-.02-.61-.03-1.33-.06-2.66-.08-4-.08s-2.67.02-4,.08c-.21.01-.42.02-.63.03-.35.01-.69.03-1.04.04-.19.01-.38.02-.57.03-.36.02-.73.04-1.09.07-2.68.17-5.34.45-7.96.83-.15.02-.31.04-.46.07-.4.06-.79.12-1.19.18-.55.08-1.1.18-1.64.27-2.64.45-5.25,1.01-7.82,1.66-.01,0-.02.01-.03.01-.32.08-.65.16-.97.24-.59.16-1.17.32-1.76.48-.15.04-.31.09-.46.13-2.57.73-5.11,1.56-7.61,2.47-.74.28-1.48.56-2.21.85-.3.12-.6.24-.9.36-2.48.99-4.92,2.08-7.3,3.26-.5.25-1,.5-1.49.75-.5.25-.99.51-1.48.77-2.36,1.25-4.67,2.59-6.92,4.01-.03.02-.07.04-.1.06-.34.22-.68.43-1.01.65-.1.06-.2.12-.29.18-2.71,1.77-5.33,3.65-7.86,5.63-.24.19-.49.39-.73.59-.57.45-1.14.92-1.7,1.39-.05.04-.1.08-.15.12-2.05,1.71-4.03,3.49-5.94,5.36-.04.04-.07.07-.11.11-.72.7-1.43,1.41-2.13,2.13-.04.04-.07.07-.11.11-1.87,1.91-3.65,3.89-5.36,5.94-.04.05-.08.1-.12.15-.47.56-.94,1.13-1.39,1.7-.2.24-.4.49-.59.73-1.98,2.53-3.86,5.15-5.63,7.86-.06.09-.12.19-.18.29-.22.33-.43.67-.65,1.01-.02.03-.04.07-.06.1-1.42,2.25-2.76,4.56-4.01,6.92-.26.49-.52.98-.77,1.48-.25.49-.5.99-.75,1.49-1.18,2.38-2.27,4.82-3.26,7.3-.12.3-.24.6-.36.9-.29.73-.57,1.47-.85,2.21-.91,2.5-1.74,5.04-2.47,7.61-.04.15-.09.31-.13.46-.16.59-.32,1.17-.48,1.76-.08.32-.16.65-.24.97,0,.01-.01.02-.01.03-.65,2.57-1.21,5.18-1.66,7.82-.09.54-.19,1.09-.27,1.64-.06.4-.12.79-.18,1.19-.03.15-.05.31-.07.46-.38,2.62-.66,5.28-.83,7.96-.03.36-.05.73-.07,1.09l-.03.57c-.01.35-.03.69-.04,1.04-.01.21-.02.42-.03.63-.06,1.33-.08,2.66-.08,4s.02,2.67.08,4c.01.2.02.41.03.61.01.35.03.7.04,1.05.03.56.06,1.11.1,1.66.17,2.68.45,5.34.83,7.96.02.11.03.21.05.32.06.44.13.89.2,1.33.08.55.18,1.09.27,1.64.45,2.64,1.01,5.26,1.66,7.83,0,.01.01.02.01.03.09.36.18.71.27,1.06.13.52.28,1.05.42,1.57.05.19.11.37.16.56.93,3.27,2.01,6.48,3.24,9.62.15.37.29.73.44,1.09,1.12,2.81,2.37,5.56,3.74,8.25.33.68.69,1.35,1.04,2.02,1.25,2.36,2.58,4.67,4.01,6.92.28.45.57.9.86,1.35.31.48.63.96.95,1.44,1.49,2.22,3.06,4.38,4.71,6.47.69.87,1.39,1.73,2.1,2.58,1.7,2.05,3.49,4.03,5.36,5.94.38.4.78.8,1.17,1.19s.79.77,1.18,1.16c1.91,1.88,3.89,3.66,5.94,5.36.4.34.81.67,1.21,1,.46.37.91.74,1.37,1.1,2.09,1.65,4.25,3.22,6.47,4.71.46.31.92.62,1.39.92.46.3.93.6,1.4.89h0c2.25,1.43,4.56,2.77,6.92,4.02.98.52,1.97,1.02,2.97,1.51,2.38,1.19,4.82,2.27,7.3,3.27.06.02.11.04.17.07.39.15.78.31,1.17.46.59.23,1.18.45,1.77.67,2.5.92,5.04,1.75,7.61,2.48.57.16,1.14.31,1.71.47.5.13.99.26,1.49.39h.02c2.57.65,5.18,1.21,7.82,1.66.54.09,1.09.19,1.64.27s1.1.16,1.65.24h0c2.62.39,5.28.67,7.96.84.36.02.73.04,1.09.07.19.01.38.02.57.03.35.01.69.03,1.04.04.21,0,.42.02.63.03,1.33.06,2.66.08,4,.08s2.67-.02,4-.08c.2-.01.41-.02.61-.03.35-.01.7-.03,1.05-.04.56-.03,1.11-.06,1.66-.1,2.68-.17,5.34-.45,7.96-.83h0c.55-.09,1.1-.17,1.65-.25s1.09-.18,1.64-.27c2.64-.45,5.26-1.01,7.83-1.66h.02c.53-.14,1.06-.28,1.59-.42.54-.15,1.07-.29,1.61-.44,2.57-.73,5.11-1.56,7.61-2.48.52-.19,1.04-.39,1.55-.59.52-.2,1.04-.4,1.55-.61,2.48-.99,4.92-2.08,7.31-3.27.99-.49,1.98-.99,2.96-1.51,2.37-1.25,4.68-2.59,6.93-4.01h-.01c.47-.3.94-.6,1.4-.9.47-.3.93-.61,1.39-.92,2.22-1.48,4.38-3.05,6.47-4.7h0c.44-.35.87-.7,1.3-1.05.43-.35.86-.71,1.28-1.06h.01c2.05-1.7,4.03-3.48,5.94-5.35h-.01c.4-.4.8-.78,1.19-1.17.39-.39.77-.79,1.16-1.19h.01c1.87-1.9,3.65-3.88,5.36-5.93h0c.35-.43.71-.86,1.06-1.29.35-.43.7-.86,1.04-1.3h.01c1.65-2.09,3.22-4.25,4.7-6.47.31-.46.62-.92.92-1.39.3-.46.6-.93.89-1.4h.01c1.42-2.24,2.76-4.55,4.01-6.92.52-.98,1.02-1.97,1.51-2.96,1.19-2.39,2.28-4.83,3.27-7.31.21-.51.41-1.03.61-1.55.2-.51.4-1.03.59-1.55.92-2.5,1.75-5.04,2.48-7.61.15-.54.29-1.07.44-1.61.14-.53.28-1.06.42-1.59v-.02c.65-2.57,1.21-5.19,1.66-7.83.09-.55.19-1.09.27-1.64.08-.55.16-1.1.24-1.65h0c.38-2.62.66-5.28.83-7.96.04-.55.07-1.1.1-1.66.01-.35.03-.7.04-1.05.01-.2.02-.41.03-.61.06-1.33.08-2.66.08-4s-.02-2.67-.08-4ZM400.7,303.04c-.04.96-.11,1.92-.19,2.87-.68,8.31-2.38,16.33-4.97,23.94-.31.91-.63,1.81-.96,2.7-2.87,7.71-6.67,14.98-11.27,21.66-.54.81-1.11,1.61-1.7,2.4-4.8,6.59-10.39,12.57-16.63,17.8-.75.64-1.51,1.26-2.28,1.86-6.36,5.04-13.35,9.33-20.83,12.71h-.01c-.87.41-1.74.79-2.63,1.16h-.01c-7.43,3.11-15.32,5.36-23.53,6.6-.95.14-1.9.27-2.85.38-4.01.5-8.08.75-12.22.75s-8.21-.25-12.22-.75c-.95-.11-1.9-.24-2.85-.38-8.21-1.24-16.1-3.49-23.54-6.61-.89-.37-1.78-.75-2.65-1.15-7.48-3.39-14.46-7.67-20.82-12.71-.77-.6-1.53-1.22-2.28-1.86-6.24-5.23-11.83-11.21-16.63-17.8-.59-.79-1.16-1.59-1.7-2.4-4.6-6.68-8.4-13.95-11.27-21.66-.33-.89-.65-1.79-.96-2.7-2.59-7.61-4.29-15.63-4.97-23.94-.08-.95-.15-1.91-.19-2.87-.1-1.79-.15-3.59-.15-5.4,0-6.49.62-12.83,1.81-18.98.17-.95.37-1.89.58-2.82,1.8-8.08,4.57-15.8,8.2-23.01.43-.87.88-1.73,1.34-2.58h0c3.88-7.22,8.62-13.89,14.08-19.91.67-.73,1.34-1.44,2.03-2.15,5.63-5.86,11.97-11.04,18.88-15.39.83-.53,1.66-1.04,2.5-1.53,6.97-4.12,14.47-7.41,22.38-9.75.92-.28,1.83-.54,2.76-.78h.01c7.74-2.05,15.85-3.2,24.21-3.31.48-.02.96-.02,1.45-.02s.97,0,1.45.02c8.36.11,16.47,1.26,24.21,3.31.93.24,1.85.5,2.76.78,7.91,2.33,15.41,5.63,22.38,9.75.84.49,1.67,1,2.5,1.53,6.91,4.34,13.26,9.52,18.89,15.39.69.71,1.36,1.42,2.03,2.15,5.46,6.02,10.2,12.7,14.08,19.91.46.85.91,1.7,1.33,2.57,3.63,7.22,6.41,14.94,8.21,23.02.21.93.4,1.87.58,2.81,1.19,6.15,1.81,12.5,1.81,18.99,0,1.81-.05,3.61-.15,5.4Z"/>
          <path d="M339.56,517.37c-15.06,2.67-30.49-13.33-34.47-35.75-3.06-17.28,2.74-38.08,10.97-47.66,5.75-.64,11.4-1.65,16.92-2.98,11.01,6.17,23.59,23.7,26.65,40.98,3.97,22.41-5.01,42.75-20.07,45.41Z"/>
        </g>
        <path d="M412.36,490.8c-13.24,7.66-33.21-2.1-44.61-21.81-8.8-15.2-10.46-36.75-5.99-48.55,5.11-2.56,10.04-5.42,14.76-8.58,12.46,1.97,30.36,14.17,39.17,29.4,11.4,19.7,9.91,41.89-3.33,49.54Z"/>
        <path d="M471.69,440.94c-9.82,11.72-31.93,9.38-49.38-5.24-13.5-11.31-22.44-31.05-22.23-43.67,3.9-4.11,7.56-8.46,10.94-13.03,12.39-2.4,33.37,2.94,46.86,14.24,17.45,14.62,23.63,35.97,13.81,47.7Z"/>
        <path d="M510.38,373.78c-5.21,14.38-26.79,19.74-48.19,11.97-16.5-5.99-31.62-21.4-35.8-33.32,2.28-5.22,4.25-10.62,5.88-16.15,10.86-6.45,32.33-8.58,48.82-2.59,21.4,7.77,34.51,25.72,29.29,40.09Z"/>
        <path d="M523.78,297.45c.01,15.29-18.43,27.71-41.2,27.73-17.55.02-37.03-9.31-45.03-19.08.17-2.8.26-5.62.26-8.46s-.09-5.83-.27-8.71c7.98-9.78,27.44-19.12,45-19.14,22.76-.02,41.22,12.36,41.24,27.66Z"/>
        <path d="M481.03,261.28c-16.49,6.01-37.97,3.92-48.83-2.51-1.63-5.53-3.61-10.91-5.9-16.13,4.15-11.92,19.25-27.37,35.74-33.39,21.38-7.8,42.97-2.48,48.21,11.88,5.25,14.37-7.84,32.35-29.22,40.15Z"/>
        <path d="M415.45,153.82c-8.78,15.24-26.66,27.47-39.12,29.47-4.73-3.15-9.67-6.01-14.79-8.56-4.48-11.8-2.85-33.35,5.92-48.56,11.36-19.73,31.32-29.52,44.57-21.89,13.26,7.64,14.79,29.82,3.42,49.54Z"/>
        <path d="M359.34,123.22c-3.03,17.28-15.59,34.84-26.59,41.03-5.52-1.33-11.17-2.32-16.92-2.96-8.25-9.56-14.08-30.35-11.05-47.64,3.94-22.42,19.34-38.46,34.4-35.81,15.07,2.64,24.09,22.96,20.16,45.38Z"/>
      </g>
      <path d="M169.28,337.3l-3.38.96h-.01c-7.54,2.12-15.15,4.11-22.75,5.97-1.72.42-3.42.83-5.13,1.24h-.01c-7.59,1.79-15.15,3.45-22.55,4.94-2.4.48-4.78.95-7.15,1.39-6.52,1.24-12.9,2.34-19.06,3.29-3,.47-5.96.89-8.85,1.29-6.14.82-12,1.49-17.53,1.97h-.01c-.59.05-1.17.1-1.75.15l-.65-7.98c29.37-2.38,69.26-10.21,106.74-20.94.62,2.6,1.32,5.18,2.09,7.72Z"/>
      <path d="M497.46,136.15c-1.78.38-3.52.8-5.21,1.26-4.86,1.31-9.37,2.93-13.65,4.81h-.01c-5.04,2.21-9.76,4.77-14.31,7.62-4.68,2.91-9.18,6.11-13.68,9.52-2.72,2.05-5.44,4.19-8.2,6.38-1.32,1.04-2.66,2.1-4,3.17-3.16,2.51-6.43,5.12-9.82,7.75-1.09.84-2.19,1.7-3.29,2.57-1.99,1.56-4,3.16-6.05,4.82-5.38,4.34-11,9.01-17.1,14.2h0c-1.23,1.06-2.49,2.13-3.76,3.22-1.88-1.91-3.81-3.76-5.8-5.55,11.64-10.02,21.59-18.2,31.1-25.58,3.35-2.6,6.6-5.19,9.74-7.69,19.31-15.38,35.99-28.65,62.36-34.32l1.69,7.82Z"/>
      <path d="M179.53,362.06c-6.86,1.99-12.36,3.69-17.55,5.41-28.52,9.45-61.94,19.78-97.76,22.67l-.65-7.97c.9-.07,1.8-.15,2.7-.24,5.47-.49,10.89-1.17,16.25-2,4.22-.64,8.4-1.38,12.53-2.2,5.53-1.08,10.97-2.29,16.32-3.61h.01c4.45-1.08,8.82-2.23,13.13-3.43,5.17-1.43,10.23-2.93,15.18-4.46h0c3.65-1.12,7.24-2.26,10.76-3.4h.01c3.05-.99,6.04-1.97,8.99-2.95,3.16-1.05,6.44-2.09,10.05-3.19,2.01-.61,4.13-1.24,6.4-1.9,1.13,2.47,2.34,4.89,3.62,7.27Z"/>
      <path d="M505.08,169.84c-27.89,6-51.15,22.77-76.5,42.45-4.44,3.44-8.82,6.86-13.18,10.28-1.46-2.24-2.99-4.43-4.59-6.57,1.31-1.03,2.63-2.06,3.95-3.1,2.95-2.3,5.92-4.61,8.91-6.93,2.54-1.97,5.06-3.91,7.56-5.82,2.45-1.87,4.88-3.69,7.31-5.49h.01c5.15-3.78,10.26-7.39,15.41-10.73h.01c2.68-1.76,5.38-3.44,8.09-5.04,5.05-2.99,10.16-5.72,15.39-8.12h.01c3.57-1.64,7.19-3.13,10.9-4.44h.01c3.42-1.24,6.9-2.31,10.47-3.23t.01,0c1.5-.39,3.01-.75,4.54-1.08l1.69,7.82Z"/>
      <g>
        <path d="M115.24,364.23c0,3.81-1.47,7.29-3.86,9.89h-.01c-5.35,1.32-10.79,2.53-16.32,3.61-3.34-1.38-6.06-3.96-7.61-7.22.06-.52.09-1.05.09-1.58,0-2.25-.51-4.38-1.42-6.28.3-2.84,1.43-5.45,3.13-7.56,6.16-.95,12.54-2.05,19.06-3.29,2.65,1.63,4.74,4.09,5.9,7.02.42,1.04.72,2.13.88,3.27.11.7.16,1.41.16,2.14Z"/>
        <path d="M87.53,368.93c0,.53-.03,1.06-.09,1.58-.4,3.76-2.22,7.08-4.92,9.42-5.36.83-10.78,1.51-16.25,2-4.72-2.41-7.96-7.33-7.96-13,0-4.16,1.74-7.92,4.54-10.58h.01c5.53-.48,11.39-1.15,17.53-1.97,2.47,1.46,4.48,3.65,5.72,6.27.91,1.9,1.42,4.03,1.42,6.28Z"/>
        <path d="M143.26,356.68c0,3.66-1.34,6.99-3.56,9.55h0c-4.95,1.53-10.01,3.03-15.18,4.46-4.31-1.27-7.79-4.47-9.43-8.6-.16-1.14-.46-2.23-.88-3.27-.11-.7-.16-1.41-.16-2.14,0-2.25.51-4.37,1.41-6.27,7.4-1.49,14.96-3.15,22.55-4.94h.01c1.84,1.53,3.29,3.51,4.19,5.76.5,1.21.83,2.51.97,3.86.06.52.09,1.05.09,1.59Z"/>
        <path d="M171.33,349.62c0,2.57-.66,4.98-1.82,7.07-3.61,1.1-6.89,2.14-10.05,3.19-2.95.98-5.94,1.96-8.99,2.95h-.01c-3.3-1.57-5.92-4.34-7.29-7.74-.14-1.35-.47-2.65-.97-3.86-.06-.53-.09-1.07-.09-1.61,0-1.9.36-3.72,1.03-5.39,7.6-1.86,15.21-3.85,22.75-5.97h.01c3.31,2.68,5.43,6.77,5.43,11.36Z"/>
        <path d="M431.34,198.44c0,.58-.03,1.15-.11,1.71-2.5,1.91-5.02,3.85-7.56,5.82-2.99,2.32-5.96,4.63-8.91,6.93-7.13-.96-12.63-7.07-12.63-14.46v-.19h0c6.1-5.19,11.72-9.86,17.1-14.2,6.88,1.19,12.1,7.18,12.1,14.39Z"/>
        <path d="M454.47,180.12c0,1.32-.17,2.6-.5,3.81h-.01c-5.15,3.34-10.26,6.95-15.41,10.73h-.01c-7.44-.66-13.28-6.92-13.28-14.54,0-.3,0-.6.03-.89,1.1-.87,2.2-1.73,3.29-2.57,3.39-2.63,6.66-5.24,9.82-7.75,1.34-1.07,2.68-2.13,4-3.17,3.52.61,6.61,2.49,8.78,5.15.7.86,1.31,1.8,1.8,2.8.96,1.94,1.49,4.12,1.49,6.43Z"/>
        <g>
          <path d="M478.89,164.45c0,2.26-.51,4.41-1.43,6.32h-.01c-5.23,2.4-10.34,5.13-15.39,8.12-3.65-.56-6.85-2.46-9.08-5.2-.49-1-1.1-1.94-1.8-2.8-.96-1.94-1.5-4.13-1.5-6.44,0-1.79.32-3.51.92-5.09,4.5-3.41,9-6.61,13.68-9.52,4.44,0,8.42,1.98,11.09,5.11,1.54,1.78,2.65,3.94,3.17,6.32.23,1.02.35,2.09.35,3.18Z"/>
          <path d="M452.98,173.69c-.7-.85-1.31-1.79-1.8-2.8.7.86,1.31,1.8,1.8,2.8Z"/>
        </g>
        <path d="M504.23,151.78c0,4.57-2.09,8.64-5.38,11.32t-.01,0c-3.57.92-7.05,1.99-10.47,3.23h-.01c-3.93-.33-7.42-2.23-9.82-5.06-.52-2.38-1.63-4.54-3.17-6.32-.23-1.02-.35-2.08-.35-3.17,0-3.66,1.35-7,3.57-9.56h.01c4.28-1.88,8.79-3.5,13.65-4.81,6.81,1.23,11.98,7.2,11.98,14.37Z"/>
        <circle cx="300.61" cy="151.78" r="5.78"/>
        <circle cx="300.61" cy="100.12" r="5.78"/>
        <g>
          <circle cx="293.21" cy="86.28" r="5.78"/>
          <circle cx="282.42" cy="75.51" r="5.78"/>
          <circle cx="268.4" cy="70.99" r="5.78"/>
          <circle cx="232.93" cy="110.55" r="5.78"/>
          <circle cx="235.48" cy="95.78" r="5.78"/>
          <circle cx="241.87" cy="82.55" r="5.78"/>
          <circle cx="253.43" cy="71.83" r="5.78"/>
        </g>
        <circle cx="250.73" cy="160.58" r="5.78"/>
        <circle cx="276.6" cy="246.93" r="5.78"/>
        <circle cx="245.6" cy="284.78" r="5.78"/>
        <circle cx="255.86" cy="332.61" r="5.78"/>
        <circle cx="299.65" cy="354.41" r="5.78"/>
        <circle cx="344" cy="333.77" r="5.78"/>
        <circle cx="355.51" cy="286.22" r="5.78"/>
        <circle cx="325.52" cy="247.58" r="5.78"/>
        <g>
          <circle cx="221.36" cy="101.56" r="5.78"/>
          <circle cx="207.55" cy="95.13" r="5.78"/>
          <circle cx="192.83" cy="95.67" r="5.78"/>
          <circle cx="173.03" cy="144.98" r="5.78"/>
          <circle cx="170.36" cy="130.23" r="5.78"/>
          <circle cx="171.85" cy="115.62" r="5.78"/>
          <circle cx="179.05" cy="101.58" r="5.78"/>
        </g>
        <circle cx="206.86" cy="185.91" r="5.78"/>
        <g>
          <circle cx="159.08" cy="140.49" r="5.78"/>
          <circle cx="143.9" cy="139.17" r="5.78"/>
          <circle cx="130.25" cy="144.72" r="5.78"/>
          <circle cx="128.51" cy="197.83" r="5.78"/>
          <circle cx="120.96" cy="184.88" r="5.78"/>
          <circle cx="117.36" cy="170.63" r="5.78"/>
          <circle cx="119.32" cy="154.98" r="5.78"/>
        </g>
        <circle cx="174.3" cy="224.71" r="5.78"/>
        <g>
          <circle cx="113.87" cy="198.38" r="5.78"/>
          <circle cx="99.15" cy="202.33" r="5.78"/>
          <circle cx="88.22" cy="212.21" r="5.78"/>
          <circle cx="104.75" cy="262.71" r="5.78"/>
          <circle cx="93.23" cy="253.12" r="5.78"/>
          <circle cx="84.97" cy="240.97" r="5.78"/>
          <circle cx="81.47" cy="225.59" r="5.78"/>
        </g>
        <circle cx="156.97" cy="272.31" r="5.78"/>
        <g>
          <g>
            <circle cx="91.18" cy="268.23" r="5.78"/>
            <circle cx="78.7" cy="276.98" r="5.78"/>
            <circle cx="71.81" cy="290" r="5.78"/>
            <circle cx="104.62" cy="331.8" r="5.78"/>
            <circle cx="90.51" cy="326.73" r="5.78"/>
            <circle cx="78.59" cy="318.14" r="5.78"/>
            <circle cx="70.04" cy="304.89" r="5.78"/>
          </g>
          <circle cx="156.97" cy="322.97" r="5.78"/>
          <circle cx="174.3" cy="370.57" r="5.78"/>
          <g>
            <circle cx="121.28" cy="409.73" r="5.78"/>
            <circle cx="117.34" cy="424.46" r="5.78"/>
            <circle cx="120.43" cy="438.86" r="5.78"/>
            <circle cx="172.43" cy="449.8" r="5.78"/>
            <circle cx="158.37" cy="454.98" r="5.78"/>
            <circle cx="143.72" cy="456.06" r="5.78"/>
            <circle cx="128.65" cy="451.4" r="5.78"/>
          </g>
          <circle cx="206.86" cy="409.37" r="5.78"/>
          <g>
            <circle cx="170.43" cy="464.31" r="5.78"/>
            <circle cx="171.77" cy="479.49" r="5.78"/>
            <circle cx="179.6" cy="491.97" r="5.78"/>
            <circle cx="232.2" cy="484.46" r="5.78"/>
            <circle cx="220.76" cy="494.14" r="5.78"/>
            <circle cx="207.36" cy="500.16" r="5.78"/>
            <circle cx="191.61" cy="500.94" r="5.78"/>
          </g>
          <circle cx="250.73" cy="434.7" r="5.78"/>
          <g>
            <circle cx="235.29" cy="498.78" r="5.78"/>
            <circle cx="241.74" cy="512.59" r="5.78"/>
            <circle cx="253.36" cy="521.64" r="5.78"/>
            <circle cx="300.23" cy="496.59" r="5.78"/>
            <circle cx="292.78" cy="509.6" r="5.78"/>
            <circle cx="282.25" cy="519.84" r="5.78"/>
            <circle cx="267.72" cy="525.97" r="5.78"/>
          </g>
          <circle cx="300.61" cy="443.49" r="5.78"/>
          <g>
            <circle cx="308.02" cy="508.99" r="5.78"/>
            <circle cx="318.81" cy="519.76" r="5.78"/>
            <circle cx="332.82" cy="524.29" r="5.78"/>
            <circle cx="368.3" cy="484.73" r="5.78"/>
            <circle cx="365.75" cy="499.5" r="5.78"/>
            <circle cx="359.36" cy="512.72" r="5.78"/>
            <circle cx="347.79" cy="523.45" r="5.78"/>
          </g>
          <circle cx="350.5" cy="434.7" r="5.78"/>
          <g>
            <circle cx="379.86" cy="493.71" r="5.78"/>
            <circle cx="393.68" cy="500.15" r="5.78"/>
            <circle cx="408.4" cy="499.61" r="5.78"/>
            <circle cx="428.2" cy="450.29" r="5.78"/>
            <circle cx="430.86" cy="465.04" r="5.78"/>
            <circle cx="429.38" cy="479.66" r="5.78"/>
            <circle cx="422.18" cy="493.69" r="5.78"/>
          </g>
          <g>
            <circle cx="394.37" cy="409.37" r="5.78"/>
            <g>
              <circle cx="442.15" cy="454.78" r="5.78"/>
              <circle cx="457.33" cy="456.1" r="5.78"/>
              <circle cx="470.98" cy="450.56" r="5.78"/>
              <circle cx="472.72" cy="397.45" r="5.78"/>
              <circle cx="480.27" cy="410.4" r="5.78"/>
              <circle cx="483.87" cy="424.64" r="5.78"/>
              <circle cx="481.9" cy="440.29" r="5.78"/>
            </g>
            <circle cx="426.93" cy="370.57" r="5.78"/>
            <g>
              <circle cx="487.36" cy="396.9" r="5.78"/>
              <circle cx="502.08" cy="392.95" r="5.78"/>
              <circle cx="513.01" cy="383.07" r="5.78"/>
              <circle cx="496.48" cy="332.57" r="5.78"/>
              <circle cx="508" cy="342.16" r="5.78"/>
              <circle cx="516.26" cy="354.31" r="5.78"/>
              <circle cx="519.76" cy="369.68" r="5.78"/>
            </g>
            <circle cx="444.25" cy="322.97" r="5.78"/>
            <g>
              <circle cx="510.04" cy="327.04" r="5.78"/>
              <circle cx="522.53" cy="318.29" r="5.78"/>
              <circle cx="529.42" cy="305.28" r="5.78"/>
              <circle cx="496.61" cy="263.47" r="5.78"/>
              <circle cx="510.72" cy="268.54" r="5.78"/>
              <circle cx="522.63" cy="277.13" r="5.78"/>
              <circle cx="531.19" cy="290.39" r="5.78"/>
            </g>
            <circle cx="444.25" cy="272.31" r="5.78"/>
            <g>
              <circle cx="507.47" cy="253.64" r="5.78"/>
              <circle cx="516.21" cy="241.15" r="5.78"/>
              <circle cx="518.23" cy="226.56" r="5.78"/>
              <circle cx="473.11" cy="198.5" r="5.78"/>
              <circle cx="488.1" cy="198.44" r="5.78"/>
              <circle cx="502.23" cy="202.44" r="5.78"/>
              <circle cx="514.8" cy="211.96" r="5.78"/>
            </g>
            <circle cx="426.93" cy="224.71" r="5.78"/>
            <circle cx="394.37" cy="185.91" r="5.78"/>
            <g>
              <circle cx="430.8" cy="130.97" r="5.78"/>
              <circle cx="429.46" cy="115.79" r="5.78"/>
              <circle cx="421.63" cy="103.31" r="5.78"/>
              <circle cx="369.02" cy="110.82" r="5.78"/>
              <circle cx="380.47" cy="101.13" r="5.78"/>
              <circle cx="393.87" cy="95.11" r="5.78"/>
              <circle cx="409.62" cy="94.33" r="5.78"/>
            </g>
            <circle cx="350.5" cy="160.58" r="5.78"/>
            <circle cx="365.94" cy="96.5" r="5.78"/>
            <circle cx="359.49" cy="82.69" r="5.78"/>
            <circle cx="347.87" cy="73.64" r="5.78"/>
            <circle cx="308.44" cy="85.67" r="5.78"/>
            <circle cx="318.97" cy="75.43" r="5.78"/>
            <circle cx="333.51" cy="69.31" r="5.78"/>
          </g>
        </g>
      </g>
    </g>
  </g>
</svg>