<?xml version="1.0" encoding="UTF-8"?>
<svg id="Layer_1" xmlns="http://www.w3.org/2000/svg" version="1.1" viewBox="0 0 213.17 595.28">
  <!-- Generator: Adobe Illustrator 30.1.0, SVG Export Plug-In . SVG Version: 2.1.1 Build 136)  -->
  <defs>
    <style>
      .st0 {
        fill: #fff;
      }
    </style>
  </defs>
  <g id="black">
    <path d="M117.66,314.8c-.53-.27-77.65,3.03-72.31-68.91.91-12.28-4.14-34.97-35.06-27.64-4.05.96-4.6,6.51-.78,8.26,8.93,4.09,16.5,11.88,15.23,24.29-1.43,13.98-8.43,31.16,10.08,55.53,21.51,28.34,44.33,26.56,80.73,15.88,15.86-4.65,4.27-6.32,2.12-7.42h0Z"/>
    <path d="M112.73,562.57c2.47-3.58,4.3-10.16,3.6-15.83-.51-4.06-2.89-4.88-3.5-3.77-1.63,2.97-1.99,7.06-5.23,13.61-3.41,6.91-7.46,11.61-11.48,14.92,6.27-11.74,14.05-27.25,21.42-44.56,3.43-4.28,7.85-8.25,13.68-10.81,5.38-2.38,8.4-1.9,10.91-3.06,0,.09-.02.18-.03.26.02-.02.04-.05.05-.07.02-.04.04-.09.06-.12.22-.61,2.22-3.22-1.61-5.7-1.32-.59-7.1-3.2-12.33.47-1.7,1.19-3.28,2.68-4.75,4.33,2.23-5.77,4.35-11.66,6.33-17.63,3.7-4.82,8.16-9.07,13.57-11.92,6.56-3.46,10.03-2.32,13.06-4.21,2.59-1.55,2.59-5.92-1.73-8.68-1.49-1-8.64-2.28-12.5,1.02-3.49,1.75-6.99,7.19-8.52,9.17,1.24-4.8,4.27-14.61,5.19-19.37,4.72-9.36,11.38-18.99,21.09-24.12,6.56-3.46,10.03-2.32,13.06-4.21,1.14-.71,1.52-6.49-1.74-8.68-3.1-2.6-10.39-3.33-14.25-.04-7.11,6.09-12.85,17.91-16.51,27.12.91-6.47,1.44-12.82,1.51-18.96.02-1.34,0-2.65,0-3.96,3-12.02,8.18-26.52,18.72-35.81,5.89-5.19,9.46-5.02,12.14-7.72,1.01-1.01,2.28-6.26-3.02-8.02-4.74-1.3-10.68-.4-13.95,3.88-8.62,11.3-12.69,33.3-13.96,41.55-.33-14.62-1.66-27.99-3.53-39.91,3.46-9.53,8.48-19,16.07-25.98,6.52-5.99,10.51-5.86,13.47-8.96,1.11-1.16,2.4-7.04-3.49-9.07-4.16-1.25-11.94-.29-15.54,4.63-5.75,7.87-9.58,20.19-12,30.78-6.36-33.85-14.63-54.79-14.63-54.79l-5.9.87s7.17,22.98,11.22,56.74c-1.25-1.86-2.36-3.45-2.36-3.45,0,0-13.55-24.85-31.18-31.16-5.36-1.92-15.69.37-18.71,4.43-4.09,3.07-3.04,8.41-1.49,8.73,4.16.85,8.62-1.29,17.55-.05,16.27,2.26,27.1,12.37,34.37,21.34.8.99,1.49,1.82,2.09,2.54,1.07,9.72,1.69,20.25,1.52,31.33-2.54-5.77-11.39-24.17-23.61-31.21-4.43-2.55-12.55-1.8-16.27,1.17-3.49,3.58-3.2,7.16-1.89,7.68,3.49,1.4,7.44.14,14.97,2.62,12.87,4.24,21.16,14.03,26.73,22.84-.19,6.71-.67,13.59-1.53,20.59-.12.99-.27,1.98-.41,2.97-3.3-7.47-8.85-17.83-16.05-23.06-3.66-2.65-9.36-2.54-13.81-.16-3.41,2.86-2.96,6.26-1.87,6.84,2.9,1.54,6.29.69,12.57,3.51,8.37,3.76,14.26,10.36,18.54,17.08-2.04,12.86-5.3,25.72-9.27,38.2-.02-8.62-.89-20.52-4.83-29.52-2.11-4.82-7.41-8.36-11.75-9.73-3.4-.78-4.95,3.3-4.24,4.55,1.89,3.33,5.11,4.95,9.4,11.73,6.04,9.55,8.48,19.91,9.44,29-1.74,5.13-3.6,10.17-5.51,15.12.49-4.38.74-8.87.09-13-1.12-7.16-6.69-11.81-7.98-12.64-2.82-1.8-5.23,1.45-4.92,2.82.83,3.65,3.29,6.16,5.38,13.73,2.19,7.92,2.49,15.6,1.92,22.58-12.99,30.31-40.98,82.13-40.98,82.13h19.13s4.87-8.3,10.9-19.37c5.12-1.78,13.7-5.74,19.11-13.58v-.02Z"/>
    <path d="M120.75,315.26c.46-.37,76.62-12.21,55.33-81.52-3.63-11.83-3.76-35,28.12-33.87,4.18.15,5.95,5.47,2.61,7.93-7.82,5.74-13.48,14.84-9.47,26.72,4.52,13.39,15.2,28.82,2.54,56.27-11.27,24.45-41.75,34.26-75.4,31.31-16.55-1.45-5.59-5.34-3.73-6.84Z"/>
  </g>
  <g id="white">
    <path class="st0" d="M53.42,307.3c-33.04-33.04-8.81-120.83-4.77-134.53-1.41-.73-3.98-1.63-7.36-.88-5.24,1.15-13.36,6.51-22.32,25.47l-3.13,6.63-1.24-7.23c-.13-.74-11.9-74.01,48.28-90.42L83.32,13.55l38.03,85.91c5.5-1.09,21.07-2.3,36.98,13.61,13.33,13.33,23.55,35.45,30.39,65.74l1.48,6.55-5.2-4.25c-.21-.17-19.23-15.59-34.68-16.86,11.01,17.56,55.85,93.49,32.85,130.76-10.22,16.57-32.32,23-65.69,19.12-28.82,9.13-50.36,6.83-64.05-6.84h0Z"/>
  </g>
  <g id="black1">
    <path d="M84.51,20.01l35.93,80.56s47.29-13.27,68.57,81.07c0,0-24-20.71-41.45-18.99,0,0,111.7,166.54-29.68,149.75C84.79,14.69,84.51,20.01,84.51,20.01Z"/>
    <path d="M84.05,20.95l35.96,81.23s18.08-6.06,36.67,12.53c10.94,10.94,22.05,30.39,29.77,64.62,0,0-23.26-19.05-40.35-17.36,0,0,109.68,166.27-28.86,149.81-30.93,9.91-50.38,5.68-62.19-6.12-34.53-34.53-3.69-133.89-3.69-133.89,0,0-16.23-14.03-34.48,24.59,0,0-12.44-72.85,47.96-88.16l19.21-87.26M82.58,6.17l-3.03,13.78-18.61,84.53c-24.93,7.28-41.24,25.39-47.23,52.55-4.58,20.77-1.51,39.33-1.37,40.11l2.47,14.46,6.27-13.26c8.95-18.95,16.76-23.28,20.61-24.17,1.65-.39,3.06-.27,4.16,0-5.4,18.98-26.62,102.19,5.95,134.76,14.26,14.26,36.43,16.8,65.9,7.56,34.06,3.87,56.75-2.95,67.43-20.26,22.09-35.8-15.9-105.18-30.17-128.82,11.21,2.85,23.77,11.57,28.57,15.49l10.4,8.52-2.96-13.11c-6.93-30.73-17.36-53.23-31.01-66.87-15.12-15.12-30.13-15.47-37.22-14.53L88.28,19.07l-5.71-12.9h0Z"/>
    <path d="M137.57,88.27c-5.27,9.16-15.91,12.86-15.91,12.86,0,0-2.09-11.16,3.18-20.32,5.27-9.16,10.82-12.18,14.33-10.12s3.66,8.43-1.61,17.59h0Z"/>
    <path d="M45.09,97.4c7.2,7.93,18.43,9.47,18.43,9.47,0,0-.45-11.32-7.65-19.25-7.2-7.93-13.3-9.8-16.28-7.1-2.97,2.7-1.7,8.95,5.5,16.88h0Z"/>
    <path d="M115.86,294.24s-.04,0-.06-.01c-.37-.11-.77-.07-1.12.1-7.95,3.95-16.34,4.12-23.03.48-6.47-3.52-10.55-10.09-11.5-18.48-1.43-12.7,3.71-29.97,11.96-40.18,4.61-5.7,9.95-9,15.43-9.55.26-.02.51-.03.77-.04-.19-1.68-.37-3.34-.56-4.98-.04,0-.07-.01-.11-.03-.4-.13-.84-.1-1.22.11-6.19,3.35-12.6,3.62-18.03.78-5.89-3.08-9.8-9.52-10.72-17.67-1.4-12.38,3.27-29.22,10.63-38.32,3.57-4.42,7.48-6.86,11.62-7.27.27-.03.55,0,.82-.01-.16-1.47-.33-2.92-.49-4.36-.05-.01-.1-.02-.15-.04-.4-.13-.84-.1-1.22.11-4.11,2.22-8.34,2.4-11.93.53-3.9-2.04-6.49-6.32-7.1-11.76-.95-8.39,2.21-19.79,7.19-25.95,2.37-2.93,4.94-4.54,7.65-4.81.27-.02.53,0,.8-.01-.16-1.4-.31-2.77-.47-4.12-.04-.01-.09-.02-.13-.03-.4-.13-.84-.1-1.22.11-3.31,1.79-6.72,1.95-9.59.44-3.14-1.64-5.23-5.1-5.72-9.5-.78-6.86,1.81-16.18,5.88-21.22,1.9-2.36,3.97-3.66,6.13-3.87.25-.02.49-.01.73,0-.12-1.04-.24-2.05-.35-3.06-.23,0-.45-.02-.69,0-2.97.29-5.82,2.02-8.23,5-4.6,5.69-7.42,15.8-6.55,23.5.44,3.94,1.98,7.3,4.34,9.66.89.89,1.9,1.64,3.02,2.23,1.36.71,2.82,1.14,4.34,1.29-.82.72-1.6,1.54-2.35,2.47-5.53,6.83-8.91,18.97-7.86,28.24.53,4.7,2.36,8.7,5.16,11.51,1.06,1.06,2.25,1.95,3.57,2.64,1.67.87,3.48,1.38,5.34,1.55-1.74,1.28-3.4,2.9-4.96,4.82-7.94,9.83-12.8,27.28-11.3,40.6.75,6.68,3.34,12.37,7.31,16.34,1.49,1.49,3.18,2.74,5.04,3.71,3.1,1.62,6.53,2.36,10.05,2.25-2.57,1.73-5.03,3.98-7.3,6.79-8.86,10.96-14.17,28.81-12.63,42.46.77,6.8,3.4,12.56,7.59,16.74,1.61,1.61,3.45,2.99,5.5,4.11,7.43,4.05,16.63,3.98,25.33-.16.24.06.47.12.71.18-.13-1.1-.24-2.19-.36-3.28h.02Z"/>
    <g>
      <path d="M65.64,111.09c-1.42.14-2.79-.77-3.18-2.21-.31-1.15.09-2.31.94-3.02.68-.87,1.83-1.31,2.97-1.04,1.59.38,2.6,1.97,2.25,3.55l-.08.36c-.24,1.08-1.07,1.94-2.14,2.2l-.32.08c-.15.03-.3.07-.45.08h0Z"/>
      <path d="M16.87,177.94c-.17.01-.34.02-.51,0-1.63-.12-2.87-1.54-2.77-3.17l.05-.77c.11-1.63,1.52-2.85,3.14-2.71,1.63.13,2.86,1.55,2.75,3.19l-.05.72c-.09,1.46-1.21,2.58-2.61,2.73h0ZM15.1,189.15c-.17.01-.34.02-.51,0-1.63-.12-2.87-1.54-2.77-3.17l.05-.77c.11-1.63,1.52-2.85,3.14-2.71,1.63.13,2.86,1.55,2.75,3.19l-.05.72c-.09,1.46-1.21,2.58-2.61,2.73h0ZM18.09,166.81c-.27.02-.54.01-.82-.03-1.61-.29-2.7-1.83-2.43-3.44l.13-.75c.28-1.61,1.8-2.67,3.41-2.37,1.61.29,2.69,1.84,2.41,3.45l-.12.72c-.22,1.33-1.3,2.29-2.58,2.42ZM20.53,155.9c-.38.04-.76,0-1.15-.12-1.57-.48-2.47-2.12-2.02-3.69l.22-.74c.46-1.56,2.11-2.42,3.67-1.94,1.56.49,2.45,2.14,1.99,3.71l-.2.7c-.34,1.18-1.35,1.97-2.51,2.08ZM24.35,145.42c-.51.05-1.04-.03-1.54-.27-1.49-.7-2.15-2.45-1.48-3.93l.32-.7c.68-1.47,2.43-2.1,3.92-1.4,1.48.7,2.13,2.47,1.45,3.94l-.3.66c-.44.98-1.37,1.59-2.36,1.69h0ZM29.76,135.69c-.67.07-1.37-.09-1.97-.51-1.35-.93-1.72-2.77-.82-4.11l.43-.64c.92-1.33,2.76-1.66,4.1-.71s1.69,2.79.77,4.12l-.41.59c-.5.74-1.29,1.18-2.12,1.26h.01ZM36.8,127.1c-.85.09-1.74-.2-2.39-.86-1.16-1.16-1.19-3.03-.05-4.18l.56-.56c1.16-1.13,3.03-1.1,4.18.08s1.14,3.05-.02,4.18l-.49.49c-.5.5-1.13.78-1.78.84h0ZM45.35,120.03c-1.05.1-2.13-.36-2.77-1.3-.92-1.36-.58-3.19.76-4.1l.66-.43c1.36-.88,3.19-.49,4.09.88s.54,3.2-.82,4.09l-.58.39c-.42.28-.87.44-1.34.48h0ZM55.1,114.7c-1.25.13-2.49-.56-3.03-1.78-.66-1.5,0-3.24,1.49-3.89l.7-.3c1.49-.63,3.23.08,3.89,1.58s-.03,3.23-1.53,3.87l-.66.28c-.28.12-.57.2-.87.23h0Z"/>
      <path d="M17.63,199.98c-.24.02-.49.01-.73-.02-1.28-.2-2.3-1.2-2.51-2.48l-.07-.42c-.23-1.62.89-3.1,2.5-3.31.28-.03.56-.03.84,0,.36.03.71.13,1.05.29,1.48.71,2.11,2.49,1.41,3.95l-.16.33c-.44.94-1.34,1.55-2.34,1.64h0Z"/>
      <path d="M23.18,189.68c-.63.06-1.29-.08-1.87-.44-1.4-.87-1.83-2.7-.98-4.08l.45-.72c.87-1.37,2.7-1.74,4.07-.85,1.38.89,1.78,2.73.91,4.09l-.41.65c-.49.8-1.31,1.27-2.19,1.36h0ZM30.5,180.02c-.84.08-1.71-.19-2.37-.83-1.18-1.14-1.23-3.02-.11-4.18.21-.21.41-.42.61-.62,1.15-1.15,3.02-1.12,4.18.04,1.16,1.17,1.16,3.04.02,4.18l-.53.53c-.5.52-1.14.81-1.81.88h0ZM40.41,173.23c-1.34.13-2.65-.67-3.11-2-.54-1.55.27-3.22,1.81-3.75.3-.1.6-.2.9-.28,1.57-.44,3.21.46,3.68,2.03.47,1.57-.42,3.21-1.97,3.65-.21.06-.43.13-.65.2-.22.07-.43.12-.65.14h0Z"/>
      <path d="M52.41,174.92c-.39.04-.78,0-1.18-.13-1.04-.33-1.79-1.18-2.02-2.17-.42-.9-.37-1.97.2-2.85.89-1.36,2.72-1.71,4.08-.81.32.22.49.35.49.35.96.77,1.38,2.07,1.02,3.23l-.1.32c-.35,1.16-1.36,1.94-2.5,2.05h0Z"/>
      <path d="M95.05,319.69l-.77.07c-1.62.14-3.08-1.05-3.25-2.68-.17-1.62.99-3.05,2.6-3.21h.02s.72-.07.72-.07c1.62-.16,3.09,1.03,3.27,2.65s-.98,3.08-2.6,3.23h0ZM106.21,318.59l-.77.07c-1.62.14-3.08-1.05-3.25-2.68-.17-1.62.99-3.05,2.6-3.21h.02s.72-.07.72-.07c1.62-.16,3.09,1.03,3.27,2.65s-.98,3.08-2.6,3.23h0ZM83.82,319.96c-.16.01-.32.02-.48,0l-.77-.05c-1.63-.12-2.87-1.53-2.78-3.16.09-1.63,1.49-2.86,3.11-2.74l.72.05c1.63.1,2.89,1.51,2.81,3.14-.07,1.47-1.2,2.62-2.61,2.76h0ZM72.73,318.1c-.37.03-.75,0-1.13-.11l-.75-.23c-1.56-.48-2.46-2.14-2-3.7.46-1.56,2.1-2.44,3.67-1.95l.69.21c1.57.47,2.48,2.11,2.04,3.68-.34,1.19-1.36,1.98-2.51,2.1h0ZM62.47,313.46c-.64.06-1.31-.08-1.9-.46-.23-.15-.46-.3-.69-.45-1.36-.92-1.74-2.76-.84-4.1.9-1.35,2.73-1.7,4.09-.78.19.13.38.26.57.38,1.38.89,1.8,2.72.93,4.09-.5.79-1.31,1.25-2.17,1.33h0ZM54,306c-.93.09-1.91-.27-2.57-1.04-.18-.21-.36-.42-.53-.64-1.04-1.28-.86-3.14.4-4.16,1.26-1.02,3.12-.81,4.16.46.14.17.29.36.44.53,1.07,1.25.93,3.11-.3,4.17-.47.4-1.03.62-1.6.68h0ZM47.84,296.51c-1.2.12-2.41-.52-2.97-1.67l-.34-.71c-.71-1.48-.09-3.24,1.37-3.93,1.47-.69,3.23-.05,3.94,1.43l.31.65c.72,1.48.13,3.24-1.34,3.94-.31.15-.65.24-.98.28h0ZM43.79,285.95c-1.4.14-2.75-.74-3.16-2.15l-.22-.76c-.44-1.58.47-3.2,2.04-3.62,1.57-.43,3.2.52,3.65,2.1l.2.69c.46,1.57-.43,3.21-2,3.64-.17.04-.34.08-.51.09h0ZM41.37,274.91c-1.55.15-2.99-.95-3.25-2.52l-.12-.77c-.25-1.62.87-3.11,2.48-3.33,1.59-.21,3.11.91,3.36,2.53l.11.72c.26,1.62-.84,3.12-2.45,3.36-.04,0-.09.01-.14.01h0ZM40.16,263.7s-.1,0-.14,0c-1.63.08-3.03-1.18-3.14-2.81l-.04-.77c-.1-1.63,1.14-3,2.78-3.09,1.63-.07,3.02,1.2,3.12,2.83l.05.73c.1,1.58-1.06,2.93-2.61,3.09h0ZM39.86,252.42c-.12,0-.24.01-.36.01-1.63-.04-2.94-1.4-2.93-3.02v-.76c.03-1.63,1.37-2.93,2.99-2.88,1.63.04,2.94,1.4,2.92,3.03v.74c-.02,1.51-1.16,2.73-2.63,2.88ZM40.28,241.15c-.17.01-.34.02-.52,0-1.63-.13-2.87-1.55-2.77-3.17l.05-.76c.11-1.63,1.52-2.82,3.15-2.7,1.63.13,2.86,1.56,2.75,3.19l-.05.73c-.09,1.45-1.22,2.58-2.61,2.72h0ZM41.27,229.95c-.21.02-.43.02-.66,0-1.62-.2-2.79-1.68-2.61-3.3l.08-.76c.18-1.62,1.65-2.75,3.27-2.55,1.62.21,2.79,1.69,2.6,3.31l-.08.73c-.15,1.4-1.26,2.44-2.6,2.57h0ZM42.74,218.79c-.26.02-.51.02-.78-.02-1.61-.27-2.72-1.79-2.48-3.4l.11-.75c.25-1.61,1.75-2.69,3.37-2.42,1.61.27,2.72,1.8,2.47,3.41l-.11.73c-.21,1.35-1.29,2.33-2.58,2.46h0ZM44.61,207.7c-.28.03-.57.01-.87-.04-1.61-.32-2.66-1.88-2.36-3.48l.14-.75c.3-1.6,1.84-2.63,3.45-2.3,1.6.33,2.66,1.89,2.35,3.49l-.14.72c-.25,1.31-1.31,2.24-2.57,2.36h0ZM46.85,196.68c-.31.03-.64.01-.97-.06-1.59-.38-2.6-1.97-2.25-3.56l.16-.73c.35-1.59,1.93-2.57,3.52-2.2s2.6,1.97,2.25,3.56l-.16.73c-.28,1.26-1.33,2.14-2.55,2.26h0ZM49.45,185.74c-.34.03-.7,0-1.05-.09-1.58-.42-2.54-2.04-2.14-3.62l.19-.74c.41-1.57,2.02-2.5,3.59-2.08,1.58.43,2.53,2.06,2.12,3.63l-.18.71c-.31,1.23-1.34,2.07-2.53,2.18h0Z"/>
      <path d="M116.29,315.21c-1.38.14-2.72-.72-3.15-2.11-.3-.98-.08-1.99.52-2.72.44-.84,1.27-1.44,2.29-1.54h.02c1.62-.15,3.08,1.05,3.25,2.67l.04.37c.15,1.4-.7,2.69-2.03,3.1l-.39.12c-.18.05-.37.09-.55.11h0Z"/>
      <path d="M85.25,24.11c-.15,0-.38.02-.56,0-.17,0-.35-.03-.52-.08-1.59-.38-2.6-1.97-2.25-3.55l.08-.36c.31-1.41,1.6-2.38,3.04-2.28,1.44.1,2.62,1.23,2.78,2.67l.04.37c.17,1.62-.98,3.06-2.6,3.22h0Z"/>
      <path d="M68.32,100.47c-.31.03-.64,0-.97-.07-1.59-.38-2.6-1.97-2.25-3.55l.16-.73c.35-1.59,1.92-2.58,3.51-2.2s2.6,1.97,2.25,3.55l-.16.73c-.28,1.26-1.33,2.14-2.55,2.27ZM70.72,89.55c-.31.03-.64,0-.97-.07-1.59-.38-2.6-1.97-2.25-3.55l.16-.73c.35-1.59,1.92-2.58,3.51-2.2s2.6,1.97,2.25,3.55l-.16.73c-.28,1.26-1.33,2.14-2.55,2.27ZM73.12,78.65c-.31.03-.64,0-.97-.07-1.59-.38-2.6-1.97-2.25-3.55l.16-.73c.35-1.59,1.92-2.58,3.51-2.2s2.6,1.97,2.25,3.55l-.16.73c-.28,1.26-1.33,2.14-2.55,2.27ZM75.52,67.74c-.31.03-.64,0-.97-.07-1.59-.38-2.6-1.97-2.25-3.55l.16-.73c.35-1.59,1.92-2.58,3.51-2.2,1.59.38,2.6,1.97,2.25,3.55l-.16.73c-.28,1.26-1.33,2.14-2.55,2.27ZM77.92,56.83c-.31.03-.64,0-.97-.07-1.59-.38-2.6-1.97-2.25-3.55l.16-.73c.35-1.59,1.93-2.57,3.51-2.2,1.59.38,2.6,1.97,2.25,3.55l-.16.73c-.28,1.26-1.33,2.15-2.55,2.27ZM80.32,45.92c-.31.03-.64,0-.97-.07-1.59-.38-2.6-1.97-2.25-3.55l.16-.73c.35-1.59,1.92-2.58,3.51-2.2,1.59.38,2.6,1.97,2.25,3.55l-.16.73c-.28,1.26-1.33,2.15-2.55,2.27ZM82.73,35.01c-.31.03-.64,0-.97-.07-1.59-.38-2.6-1.97-2.25-3.55l.16-.73c.35-1.59,1.92-2.58,3.51-2.2,1.59.38,2.6,1.97,2.25,3.55l-.16.73c-.28,1.26-1.33,2.15-2.55,2.27Z"/>
    </g>
  </g>
  <g id="white1">
    <path class="st0" d="M148.54,269.57c-1.12-9.88-6.43-21.75-13.87-30.97-5.13-6.35-10.67-10.81-16.26-13.18,3.24-.59,6.24-1.91,8.79-3.99,6-4.88,8.83-13.01,7.78-22.33h0c-1.03-9.14-5.61-20.16-11.94-28.75-4.39-5.96-9.13-10.15-13.91-12.4,1.66-.52,3.19-1.32,4.55-2.43,4.24-3.45,6.26-9.19,5.52-15.76-1.1-9.72-8.07-22.92-16.74-27.94,1.36-.44,2.62-1.11,3.74-2.01,3.58-2.91,5.27-7.73,4.65-13.25h0c-1.19-10.51-10.64-25.96-20.77-24.96-2.97.29-5.82,2.02-8.23,5-4.6,5.69-7.42,15.8-6.55,23.5.44,3.94,1.98,7.3,4.34,9.66.89.89,1.9,1.64,3.02,2.23,1.36.71,2.82,1.14,4.34,1.29-.82.72-1.6,1.54-2.35,2.47-5.53,6.83-8.91,18.97-7.86,28.24.53,4.7,2.36,8.7,5.16,11.51,1.06,1.06,2.25,1.95,3.57,2.64,1.67.87,3.48,1.38,5.34,1.55-1.74,1.28-3.4,2.9-4.96,4.82-7.94,9.83-12.8,27.28-11.3,40.6.75,6.68,3.34,12.37,7.31,16.34,1.49,1.49,3.18,2.74,5.04,3.71,3.1,1.62,6.53,2.36,10.05,2.25-2.57,1.73-5.03,3.98-7.3,6.79-8.86,10.96-14.17,28.81-12.63,42.46.77,6.8,3.4,12.56,7.59,16.74,1.61,1.61,3.45,2.99,5.5,4.11,7.43,4.05,16.63,3.98,25.33-.16,9.29,2.53,18.26.9,24.68-4.5,6.37-5.36,9.41-13.85,8.35-23.28h0ZM93.69,108.84c-3.31,1.79-6.72,1.95-9.59.44-3.14-1.64-5.23-5.1-5.72-9.5-.78-6.86,1.81-16.18,5.88-21.22,1.9-2.36,3.97-3.66,6.13-3.87,2.88-.28,5.81,1.34,8.43,3.96,4.64,4.64,8.31,12.43,8.98,18.27h0c.5,4.45-.79,8.28-3.53,10.51-2.48,2.01-5.8,2.48-9.36,1.3-.4-.13-.84-.1-1.22.11h0ZM98.89,154.88c-4.11,2.22-8.34,2.4-11.93.53-3.9-2.04-6.49-6.32-7.1-11.76-.95-8.39,2.21-19.79,7.19-25.95,2.37-2.93,4.94-4.54,7.65-4.81,3.58-.35,7.21,1.66,10.45,4.9,5.7,5.7,10.18,15.18,10.98,22.32.62,5.5-.98,10.25-4.39,13.03-3.09,2.51-7.22,3.09-11.65,1.63-.4-.13-.84-.1-1.22.11h0ZM88.4,222.44c-5.89-3.08-9.8-9.52-10.72-17.67-1.4-12.38,3.27-29.22,10.63-38.32,3.57-4.41,7.48-6.86,11.62-7.27,5.39-.53,10.87,2.5,15.75,7.38,8.44,8.44,15.06,22.39,16.25,32.89.93,8.26-1.49,15.4-6.66,19.6-4.69,3.81-10.95,4.7-17.62,2.5-.4-.13-.84-.1-1.22.11-6.19,3.35-12.6,3.62-18.03.78h0ZM138.21,290.48c-5.75,4.84-13.92,6.2-22.41,3.74-.37-.11-.77-.07-1.12.1-7.95,3.95-16.34,4.12-23.03.48-6.47-3.52-10.55-10.09-11.5-18.48-1.43-12.7,3.71-29.97,11.96-40.18,4.61-5.7,9.95-9,15.43-9.55,8.32-.82,15.71,4.45,20.77,9.51,1.55,1.55,2.89,3.09,3.96,4.42,7.09,8.79,12.15,20.05,13.2,29.37.95,8.38-1.7,15.88-7.28,20.57h0Z"/>
    <g>
      <path class="st0" d="M84.98,24.18c-.05,0-.1,0-.15.01-.33.04-.69.02-1.04-.06-1.59-.38-2.6-1.97-2.25-3.55l.08-.36c.27-1.24,1.29-2.14,2.55-2.26h.03c1.27-.12,2.48.6,3,1.78l.15.34c.67,1.5,0,3.24-1.49,3.89-.28.12-.58.19-.87.23h0Z"/>
      <path class="st0" d="M116.44,95.26c-1.25.13-2.49-.56-3.03-1.78l-.3-.68c-.66-1.5,0-3.24,1.5-3.88,1.49-.64,3.23.05,3.9,1.55l.3.68c.66,1.5,0,3.24-1.5,3.88-.28.12-.57.2-.87.23ZM111.95,85.11c-1.25.13-2.49-.56-3.03-1.78l-.3-.68c-.66-1.5,0-3.24,1.5-3.88,1.49-.65,3.23.05,3.9,1.55l.3.68c.66,1.5,0,3.24-1.5,3.88-.28.12-.57.2-.87.23ZM107.45,74.95c-1.25.13-2.49-.56-3.03-1.78l-.3-.68c-.66-1.5,0-3.24,1.5-3.88s3.24.05,3.9,1.55l.3.68c.66,1.5,0,3.24-1.5,3.88-.28.12-.57.2-.87.23ZM102.96,64.8c-1.25.13-2.49-.56-3.03-1.78l-.3-.68c-.66-1.5,0-3.24,1.5-3.88,1.49-.65,3.23.05,3.9,1.55l.3.68c.66,1.5,0,3.24-1.5,3.88-.28.12-.57.2-.87.23ZM98.46,54.65c-1.25.13-2.49-.56-3.03-1.78l-.3-.68c-.66-1.5,0-3.24,1.5-3.88,1.49-.65,3.23.05,3.9,1.55l.3.68c.66,1.5,0,3.24-1.5,3.88-.28.12-.57.2-.87.23ZM93.97,44.49c-1.25.13-2.49-.56-3.03-1.78l-.3-.68c-.66-1.5,0-3.24,1.5-3.88,1.49-.64,3.23.05,3.9,1.55l.3.68c.66,1.5,0,3.24-1.5,3.88-.28.12-.57.2-.87.23ZM89.47,34.34c-1.25.13-2.49-.56-3.03-1.78l-.3-.68c-.66-1.5,0-3.24,1.5-3.88,1.49-.65,3.23.05,3.9,1.55l.3.68c.66,1.5,0,3.24-1.5,3.88-.28.12-.57.2-.87.23Z"/>
      <path class="st0" d="M120.8,105.07c-1.26.13-2.51-.56-3.04-1.77l-.15-.34c-.67-1.5,0-3.24,1.49-3.89.9-.39,1.89-.29,2.68.18.87.32,1.57,1.03,1.85,1.99.45,1.57-.44,3.2-2.01,3.64l-.21.06c-.2.07-.42.11-.62.13h0Z"/>
      <path class="st0" d="M184.59,171.59c-1.42.14-2.79-.78-3.18-2.21l-.19-.71c-.43-1.58.48-3.2,2.06-3.61,1.57-.42,3.2.53,3.63,2.11l.2.73c.43,1.58-.5,3.19-2.07,3.6-.14.04-.3.07-.45.08h0ZM181.38,160.81c-1.36.14-2.69-.7-3.13-2.06l-.23-.7c-.52-1.55.31-3.22,1.86-3.72,1.55-.5,3.22.36,3.74,1.92l.24.72c.51,1.55-.33,3.22-1.87,3.71-.2.06-.4.1-.6.13h-.02ZM177.54,150.23c-1.28.13-2.56-.61-3.07-1.87l-.28-.68c-.62-1.52.1-3.24,1.61-3.83s3.23.15,3.85,1.67l.28.71c.61,1.52-.12,3.23-1.63,3.82-.26.1-.52.16-.78.19h0ZM172.95,139.96c-1.19.12-2.39-.5-2.97-1.65l-.33-.66c-.74-1.47-.17-3.24,1.28-3.96s3.23-.12,3.98,1.34l.35.69c.73,1.47.15,3.24-1.3,3.95-.32.16-.66.25-1,.28h0ZM167.4,130.15c-1.08.11-2.18-.39-2.81-1.37l-.4-.61c-.9-1.38-.53-3.2.83-4.08,1.36-.88,3.19-.48,4.09.89l.42.66c.89,1.38.5,3.21-.87,4.07-.4.25-.83.4-1.27.44h0ZM160.69,121.1c-.93.09-1.89-.26-2.55-1.03l-.48-.55c-1.09-1.23-.98-3.1.24-4.17,1.22-1.07,3.09-.93,4.17.3l.51.59c1.08,1.24.96,3.11-.28,4.17-.47.41-1.03.64-1.61.69h0ZM152.6,113.27c-.74.07-1.51-.14-2.14-.63l-.56-.43c-1.31-1-1.57-2.85-.59-4.15.98-1.29,2.83-1.53,4.13-.53l.63.49c1.29,1.02,1.53,2.88.53,4.16-.51.65-1.24,1.02-2,1.1h0ZM143.01,107.4c-.49.05-1-.03-1.49-.25l-.64-.28c-1.51-.64-2.23-2.38-1.62-3.88.61-1.5,2.34-2.2,3.85-1.56l.73.32c1.5.67,2.19,2.41,1.55,3.91-.43,1-1.37,1.64-2.39,1.74h0ZM132.24,104.38c-.21.02-.42.02-.64,0l-.69-.07c-1.62-.16-2.83-1.61-2.69-3.24s1.57-2.81,3.2-2.65l.79.09c1.62.19,2.8,1.66,2.64,3.28-.15,1.4-1.26,2.46-2.6,2.6h0Z"/>
      <path class="st0" d="M187.23,182.23c-.76.08-1.55-.15-2.18-.67l-.25-.2c-1.28-1.02-1.52-2.88-.52-4.16.22-.28.48-.51.78-.69.32-.23.69-.4,1.1-.49,1.59-.34,3.17.68,3.53,2.28l.08.36c.28,1.23-.25,2.49-1.31,3.15-.38.24-.81.37-1.24.42h0Z"/>
      <path class="st0" d="M178.4,175.93c-.64.06-1.31-.08-1.9-.46l-.62-.4c-1.39-.88-1.81-2.71-.95-4.08.86-1.37,2.68-1.77,4.07-.89l.64.41c1.38.89,1.8,2.72.93,4.09-.5.79-1.31,1.25-2.17,1.33h0ZM168.67,170.35c-.54.05-1.09-.04-1.61-.29l-.65-.32c-1.48-.71-2.11-2.49-1.41-3.95s2.45-2.08,3.93-1.36l.69.34c1.47.73,2.09,2.51,1.39,3.96-.45.95-1.36,1.53-2.33,1.63h0ZM158.27,166.21c-.36.03-.74,0-1.11-.11l-.66-.19c-1.58-.42-2.54-2.05-2.14-3.63s2-2.52,3.59-2.09c.26.07.52.14.78.22,1.57.45,2.5,2.1,2.07,3.66-.33,1.2-1.35,2.01-2.52,2.12h0Z"/>
      <path class="st0" d="M147.08,165.18c-1.07.11-2.17-.38-2.8-1.35l-.19-.29c-.57-.87-.66-1.96-.22-2.89s1.32-1.55,2.34-1.66l.42-.04c1.62-.14,3.06,1.08,3.22,2.71.06.63-.08,1.24-.38,1.75-.22.53-.59.99-1.11,1.33-.4.26-.84.41-1.29.45h0Z"/>
      <path class="st0" d="M143.77,315.56s-.05,0-.08,0l-.74.05c-1.62.11-3.05-1.13-3.18-2.76s1.11-3.02,2.71-3.14l.71-.05c1.62-.12,3.05,1.11,3.2,2.74.14,1.6-1.03,3-2.61,3.15h0ZM153.87,314.22c-1.49.15-2.9-.86-3.22-2.37-.34-1.6.68-3.16,2.27-3.48l.68-.14c1.58-.34,3.17.68,3.53,2.28s-.64,3.17-2.23,3.51l-.75.15c-.1.02-.19.03-.28.04h0ZM132.84,315.79c-.12.01-.24.02-.36.01l-.75-.02c-1.63-.05-2.93-1.41-2.9-3.05s1.37-2.91,3-2.86l.7.02c1.63.04,2.94,1.4,2.92,3.03-.01,1.51-1.15,2.73-2.62,2.87h0ZM110.59,316.85c-1.42.14-2.79-.78-3.18-2.2-.43-1.58.49-3.2,2.07-3.6l.68-.18c1.57-.42,3.2.52,3.65,2.09s-.47,3.2-2.04,3.62l-.72.19c-.15.04-.3.07-.45.08h0ZM164.3,311.14c-1.26.13-2.53-.59-3.05-1.83-.63-1.51.07-3.23,1.57-3.85l.63-.26c1.5-.64,3.23.07,3.9,1.57.66,1.51-.01,3.24-1.51,3.88l-.71.3c-.27.11-.55.18-.82.2h0ZM121.91,315.1c-.19.01-.38.02-.58,0l-.74-.07c-1.62-.16-2.83-1.61-2.69-3.24.14-1.63,1.57-2.81,3.2-2.65l.71.07c1.63.16,2.84,1.6,2.7,3.23-.12,1.43-1.24,2.52-2.61,2.66h0ZM173.73,305.8c-.98.1-2-.3-2.66-1.15-1-1.3-.78-3.15.51-4.15l.53-.41c1.26-1.01,3.12-.8,4.15.48,1.03,1.28.84,3.14-.42,4.16-.2.16-.41.32-.62.48-.45.34-.96.54-1.49.59h0ZM181.16,297.94c-.67.07-1.37-.09-1.97-.51-1.35-.93-1.72-2.77-.81-4.11l.37-.56c.88-1.36,2.71-1.73,4.08-.83s1.77,2.74.88,4.1l-.42.65c-.5.74-1.29,1.18-2.12,1.26h0ZM185.82,288.15c-.4.04-.81,0-1.22-.14-1.55-.51-2.42-2.18-1.94-3.73l.19-.65c.46-1.56,2.1-2.44,3.67-1.95,1.56.48,2.46,2.14,2,3.7l-.22.74c-.36,1.15-1.36,1.91-2.49,2.02h0ZM187.86,277.43c-.19.02-.39.02-.59,0-1.62-.16-2.82-1.62-2.68-3.24l.05-.68c.12-1.63,1.54-2.83,3.16-2.69,1.63.14,2.85,1.57,2.74,3.2l-.06.77c-.13,1.42-1.24,2.51-2.61,2.65h0ZM187.88,266.48s-.09,0-.14,0c-1.63.09-3.04-1.16-3.14-2.8l-.05-.7c-.13-1.63,1.11-3.07,2.71-3.14,1.63-.1,3.05,1.13,3.17,2.77l.05.76c.11,1.58-1.05,2.95-2.61,3.1h0ZM186.5,255.59c-1.53.15-2.96-.91-3.23-2.46l-.13-.7c-.3-1.61.76-3.14,2.36-3.41,1.62-.28,3.14.81,3.44,2.42l.14.73c.29,1.61-.78,3.13-2.39,3.4-.07,0-.13.02-.19.03ZM184.11,244.86c-1.43.14-2.81-.79-3.19-2.23l-.18-.7c-.42-1.58.51-3.19,2.08-3.6s3.2.55,3.62,2.13l.19.72c.42,1.58-.53,3.19-2.1,3.59-.14.03-.28.06-.42.08h0ZM180.97,234.31c-1.36.13-2.68-.7-3.13-2.05l-.23-.69c-.52-1.55.31-3.22,1.86-3.71s3.22.36,3.74,1.92l.24.71c.52,1.56-.32,3.22-1.87,3.71-.2.06-.4.1-.6.13h0ZM177.24,223.94c-1.3.13-2.59-.63-3.08-1.91l-.26-.68c-.59-1.53.15-3.23,1.67-3.81s3.23.2,3.83,1.72l.27.7c.59,1.53-.16,3.23-1.69,3.8-.25.09-.49.14-.74.17h0ZM173.05,213.76c-1.25.12-2.5-.57-3.04-1.79l-.29-.67c-.66-1.5.01-3.24,1.5-3.88s3.23.06,3.89,1.56l.29.68c.66,1.51-.02,3.24-1.52,3.87-.28.12-.57.19-.85.22h0ZM168.47,203.73c-1.21.12-2.43-.53-2.99-1.7l-.31-.65c-.71-1.48-.1-3.24,1.37-3.93,1.47-.7,3.23-.05,3.94,1.42l.32.67c.71,1.48.09,3.23-1.39,3.93-.31.14-.62.23-.95.26h0ZM163.56,193.86c-1.18.12-2.38-.49-2.95-1.62l-.33-.64c-.76-1.45-.2-3.23,1.24-3.97s3.23-.15,3.99,1.3l.35.67c.75,1.46.18,3.23-1.26,3.97-.33.17-.68.27-1.02.3ZM158.35,184.13c-1.14.11-2.31-.45-2.91-1.54l-.36-.65c-.8-1.43-.29-3.23,1.13-4.01,1.42-.78,3.22-.25,4.02,1.19l.36.64c.8,1.43.29,3.23-1.13,4.01-.36.19-.73.31-1.12.34h0ZM152.86,174.56c-1.12.11-2.25-.42-2.87-1.46l-.37-.63c-.84-1.41-.39-3.23,1.01-4.05,1.4-.82,3.22-.34,4.05,1.08l.38.64c.84,1.41.39,3.23-1.02,4.04-.37.22-.78.34-1.19.39h0Z"/>
    </g>
    <g>
      <path class="st0" d="M122.92,288.12c-.46-.46-.78-1.07-.87-1.76l-.11-.76c-.23-1.69.95-3.24,2.63-3.47,1.69-.24,3.24.95,3.47,2.63l.11.76c.23,1.69-.95,3.24-2.63,3.47-.99.14-1.95-.22-2.6-.87ZM119.86,265.99c-.46-.46-.78-1.07-.87-1.76l-.11-.76c-.23-1.69.95-3.24,2.63-3.47,1.69-.23,3.24.95,3.47,2.63l.11.76c.23,1.69-.95,3.24-2.63,3.47-.99.14-1.95-.22-2.6-.87ZM116.8,243.85c-.46-.46-.78-1.07-.87-1.76l-.11-.76c-.23-1.69.95-3.24,2.63-3.47,1.69-.24,3.24.95,3.47,2.63l.11.76c.23,1.69-.95,3.24-2.63,3.47-.99.14-1.95-.22-2.6-.87Z"/>
      <path class="st0" d="M114.13,217.06c-.46-.46-.78-1.07-.87-1.76l-.11-.76c-.23-1.69.95-3.24,2.63-3.47,1.69-.24,3.24.94,3.47,2.63l.11.76c.23,1.69-.95,3.24-2.63,3.47-.99.14-1.95-.22-2.6-.87ZM111.07,194.92c-.46-.46-.78-1.07-.87-1.76l-.11-.76c-.23-1.69.95-3.24,2.63-3.47,1.69-.24,3.24.95,3.47,2.63l.11.76c.23,1.69-.95,3.24-2.63,3.47-.99.14-1.95-.22-2.6-.87ZM108.01,172.79c-.46-.46-.78-1.07-.87-1.76l-.11-.76c-.23-1.69.95-3.24,2.63-3.47,1.69-.24,3.24.95,3.47,2.63l.11.76c.23,1.69-.95,3.24-2.63,3.47-.99.14-1.95-.22-2.6-.87Z"/>
      <path class="st0" d="M105.14,145.78c-.46-.46-.78-1.07-.87-1.76l-.11-.76c-.23-1.69.95-3.24,2.63-3.47,1.69-.24,3.24.94,3.47,2.63l.11.76c.23,1.69-.95,3.24-2.63,3.47-.99.14-1.95-.22-2.6-.87ZM102.07,123.64c-.46-.46-.78-1.07-.87-1.76l-.11-.76c-.23-1.69.95-3.24,2.63-3.47,1.69-.23,3.24.95,3.47,2.63l.11.76c.23,1.69-.95,3.24-2.63,3.47-.99.14-1.95-.22-2.6-.87Z"/>
      <path class="st0" d="M98.85,94.64c-.45-.45-.76-1.03-.87-1.71l-.12-.76c-.26-1.69.9-3.25,2.58-3.51s3.25.9,3.51,2.58l.12.76c.26,1.69-.9,3.25-2.58,3.51-1.01.16-1.97-.2-2.65-.87Z"/>
      <g>
        <path class="st0" d="M155.12,257.29c-.48-.48-.8-1.12-.88-1.84l-.08-.77c-.18-1.69,1.04-3.21,2.73-3.4,1.69-.18,3.21,1.04,3.4,2.73l.08.77c.18,1.69-1.04,3.21-2.73,3.4-.97.11-1.88-.25-2.52-.88h0ZM152.69,235.08c-.48-.48-.8-1.12-.88-1.84l-.08-.77c-.18-1.69,1.04-3.21,2.73-3.4,1.69-.18,3.21,1.04,3.4,2.73l.08.77c.18,1.69-1.04,3.21-2.73,3.4-.97.11-1.88-.25-2.52-.88h0ZM150.26,212.87c-.48-.48-.8-1.12-.88-1.84l-.08-.77c-.18-1.69,1.04-3.21,2.73-3.4,1.69-.18,3.21,1.04,3.4,2.73l.08.77c.18,1.69-1.04,3.21-2.73,3.4-.97.11-1.88-.25-2.52-.88h0Z"/>
        <path class="st0" d="M134.27,167.74c-.48-.48-.8-1.12-.88-1.84l-.08-.77c-.18-1.69,1.04-3.21,2.73-3.4,1.69-.18,3.21,1.04,3.4,2.73l.08.77c.18,1.69-1.04,3.21-2.73,3.4-.97.11-1.88-.25-2.52-.88h0ZM131.84,145.52c-.48-.48-.8-1.12-.88-1.84l-.08-.77c-.18-1.69,1.04-3.21,2.73-3.4,1.69-.18,3.21,1.04,3.4,2.73l.08.77c.18,1.69-1.04,3.21-2.73,3.4-.97.11-1.88-.25-2.52-.88h0Z"/>
        <path class="st0" d="M120.9,114.08c-.49-.49-.82-1.14-.89-1.89l-.07-.77c-.16-1.69,1.08-3.2,2.78-3.36,1.69-.16,3.2,1.08,3.36,2.78l.07.77c.16,1.69-1.08,3.2-2.78,3.36-.95.09-1.84-.26-2.47-.89Z"/>
      </g>
    </g>
  </g>
  <g id="black2">
    <path d="M115.86,294.24s-.04,0-.06-.01c-.37-.11-.77-.07-1.12.1-7.95,3.95-16.34,4.12-23.03.48-6.47-3.52-10.55-10.09-11.5-18.48-1.43-12.7,3.71-29.97,11.96-40.18,4.61-5.7,9.95-9,15.43-9.55.26-.02.51-.03.77-.04-.19-1.68-.37-3.34-.56-4.98-.04,0-.07-.01-.11-.03-.4-.13-.84-.1-1.22.11-6.19,3.35-12.6,3.62-18.03.78-5.89-3.08-9.8-9.52-10.72-17.67-1.4-12.38,3.27-29.22,10.63-38.32,3.57-4.42,7.48-6.86,11.62-7.27.27-.03.55,0,.82-.01-.16-1.47-.33-2.92-.49-4.36-.05-.01-.1-.02-.15-.04-.4-.13-.84-.1-1.22.11-4.11,2.22-8.34,2.4-11.93.53-3.9-2.04-6.49-6.32-7.1-11.76-.95-8.39,2.21-19.79,7.19-25.95,2.37-2.93,4.94-4.54,7.65-4.81.27-.02.53,0,.8-.01-.16-1.4-.31-2.77-.47-4.12-.04-.01-.09-.02-.13-.03-.4-.13-.84-.1-1.22.11-3.31,1.79-6.72,1.95-9.59.44-3.14-1.64-5.23-5.1-5.72-9.5-.78-6.86,1.81-16.18,5.88-21.22,1.9-2.36,3.97-3.66,6.13-3.87.25-.02.49-.01.73,0-.12-1.04-.24-2.05-.35-3.06-.23,0-.45-.02-.69,0-2.97.29-5.82,2.02-8.23,5-4.6,5.69-7.42,15.8-6.55,23.5.44,3.94,1.98,7.3,4.34,9.66.89.89,1.9,1.64,3.02,2.23,1.36.71,2.82,1.14,4.34,1.29-.82.72-1.6,1.54-2.35,2.47-5.53,6.83-8.91,18.97-7.86,28.24.53,4.7,2.36,8.7,5.16,11.51,1.06,1.06,2.25,1.95,3.57,2.64,1.67.87,3.48,1.38,5.34,1.55-1.74,1.28-3.4,2.9-4.96,4.82-7.94,9.83-12.8,27.28-11.3,40.6.75,6.68,3.34,12.37,7.31,16.34,1.49,1.49,3.18,2.74,5.04,3.71,3.1,1.62,6.53,2.36,10.05,2.25-2.57,1.73-5.03,3.98-7.3,6.79-8.86,10.96-14.17,28.81-12.63,42.46.77,6.8,3.4,12.56,7.59,16.74,1.61,1.61,3.45,2.99,5.5,4.11,7.43,4.05,16.63,3.98,25.33-.16.24.06.47.12.71.18-.13-1.1-.24-2.19-.36-3.28h.02Z"/>
    <path d="M92.46,148.54c1.69-.23,2.86-1.79,2.63-3.47l-.11-.76c-.23-1.69-1.79-2.87-3.47-2.63-1.69.23-2.86,1.79-2.63,3.47l.11.76c.1.7.41,1.3.87,1.76.66.66,1.61,1.01,2.6.87ZM66.85,221.23l-.11-.76c-.24-1.69-1.79-2.87-3.47-2.63-1.69.23-2.86,1.79-2.63,3.47l.11.76c.1.7.41,1.3.87,1.76.66.66,1.61,1.01,2.6.87,1.69-.23,2.86-1.79,2.63-3.47ZM68.3,151.43l-.11-.76c-.23-1.69-1.79-2.87-3.47-2.63-1.69.23-2.86,1.79-2.63,3.47l.11.76c.1.7.41,1.3.87,1.76.66.66,1.61,1.01,2.6.87,1.69-.23,2.86-1.79,2.63-3.47ZM97.97,172.08l-.11-.76c-.24-1.69-1.79-2.87-3.47-2.63-1.69.23-2.86,1.79-2.63,3.47l.11.76c.1.7.41,1.3.87,1.76.66.66,1.61,1.01,2.6.87,1.69-.23,2.86-1.79,2.63-3.47ZM89.4,126.41c1.69-.23,2.86-1.79,2.63-3.47l-.11-.76c-.23-1.69-1.79-2.87-3.47-2.63-1.69.23-2.86,1.79-2.63,3.47l.11.76c.1.7.41,1.3.87,1.76.66.66,1.61,1.01,2.6.87ZM86.22,97.4c1.68-.26,2.83-1.83,2.58-3.51l-.12-.76c-.26-1.68-1.83-2.83-3.51-2.58-1.68.26-2.83,1.83-2.58,3.51l.12.76c.1.67.42,1.26.87,1.71.67.67,1.64,1.02,2.65.87ZM71.25,118.22l-.12-.76c-.26-1.68-1.83-2.84-3.51-2.58s-2.83,1.83-2.58,3.51l.12.76c.1.67.42,1.26.87,1.71.67.67,1.64,1.02,2.65.87,1.68-.26,2.83-1.83,2.58-3.51ZM71.36,173.56l-.11-.76c-.23-1.69-1.79-2.87-3.47-2.63-1.69.23-2.86,1.79-2.63,3.47l.11.76c.1.7.41,1.3.87,1.76.66.66,1.61,1.01,2.6.87,1.69-.23,2.86-1.79,2.63-3.47ZM109.82,265.27l-.11-.76c-.23-1.69-1.79-2.87-3.47-2.63-1.69.23-2.86,1.79-2.63,3.47l.11.76c.1.7.41,1.3.87,1.76.66.66,1.61,1.01,2.6.87,1.69-.23,2.86-1.79,2.63-3.47ZM101.03,194.21l-.11-.76c-.24-1.69-1.79-2.87-3.47-2.63-1.69.23-2.86,1.79-2.63,3.47l.11.76c.1.7.41,1.3.87,1.76.66.66,1.61,1.01,2.6.87,1.69-.23,2.86-1.79,2.63-3.47ZM106.76,243.14l-.11-.76c-.24-1.69-1.79-2.86-3.47-2.63-1.69.23-2.86,1.79-2.63,3.47l.11.76c.1.7.41,1.3.87,1.76.66.66,1.61,1.01,2.6.87,1.69-.23,2.86-1.79,2.63-3.47ZM112.87,287.41l-.11-.76c-.24-1.69-1.79-2.87-3.47-2.63-1.69.23-2.86,1.79-2.63,3.47l.11.76c.1.7.41,1.3.87,1.76.66.66,1.61,1.01,2.6.87,1.69-.23,2.86-1.79,2.63-3.47ZM69.91,243.37l-.11-.76c-.24-1.69-1.79-2.87-3.47-2.63-1.69.23-2.86,1.79-2.63,3.47l.11.76c.1.7.41,1.3.87,1.76.66.66,1.61,1.01,2.6.87,1.69-.23,2.86-1.79,2.63-3.47ZM104.08,216.35l-.11-.76c-.24-1.69-1.79-2.87-3.47-2.63-1.69.23-2.86,1.79-2.63,3.47l.11.76c.1.7.41,1.3.87,1.76.66.66,1.61,1.01,2.6.87,1.69-.23,2.86-1.79,2.63-3.47ZM72.97,265.5l-.11-.76c-.23-1.69-1.79-2.87-3.47-2.63-1.69.23-2.86,1.79-2.63,3.47l.11.76c.1.7.41,1.3.87,1.76.66.66,1.61,1.01,2.6.87,1.69-.23,2.86-1.79,2.63-3.47Z"/>
  </g>
</svg>