<?xml version="1.0" encoding="UTF-8"?>
<svg xmlns="http://www.w3.org/2000/svg" version="1.1" viewBox="0 0 595.28 595.28">
  <!-- Generator: Adobe Illustrator 30.1.0, SVG Export Plug-In . SVG Version: 2.1.1 Build 136)  -->
  <defs>
    <style>
      .st0 {
        fill: #fff;
      }
    </style>
  </defs>
  <g id="Vector_01">
    <g>
      <path class="st0" d="M115.13,106.76c3.16-1.82,4.24-5.87,2.42-9.03s-5.87-4.24-9.03-2.42-4.24,5.87-2.42,9.03c1.83,3.16,5.87,4.24,9.03,2.42Z"/>
      <path class="st0" d="M158.36,57.39c3.16-1.82,4.24-5.87,2.42-9.03-1.83-3.16-5.87-4.24-9.03-2.42s-4.24,5.87-2.42,9.03c1.83,3.16,5.87,4.24,9.03,2.42Z"/>
      <path class="st0" d="M222.74,44.64c3.16-1.82,4.24-5.87,2.42-9.03-1.83-3.16-5.87-4.24-9.03-2.42-3.16,1.82-4.24,5.87-2.42,9.03s5.87,4.24,9.03,2.42Z"/>
      <circle class="st0" cx="129.08" cy="72.76" r="6.61" transform="translate(-.88 1.59) rotate(-.7)"/>
      <path class="st0" d="M253.62,55.82c3.16-1.82,4.24-5.87,2.42-9.03-1.83-3.16-5.87-4.24-9.03-2.42s-4.24,5.87-2.42,9.03,5.87,4.24,9.03,2.42Z"/>
      <circle class="st0" cx="186.32" cy="39.72" r="6.61"/>
      <circle class="st0" cx="13.61" cy="296.6" r="6.61"/>
      <circle class="st0" cx="18.9" cy="263.56" r="6.61" transform="translate(-244.76 281.1) rotate(-89.7)"/>
      <path class="st0" d="M280.27,75.53c3.16-1.82,4.24-5.87,2.42-9.03s-5.87-4.24-9.03-2.42-4.24,5.87-2.42,9.03c1.83,3.16,5.87,4.24,9.03,2.42Z"/>
      <path class="st0" d="M107.47,296.6c-25.12,0-85.92-11.89-85.92-11.89l10.58,11.89-10.58,11.89s60.81-11.89,85.92-11.89Z"/>
      <circle class="st0" cx="34.76" cy="234.48" r="6.61" transform="translate(-1.15 .17) rotate(-.28)"/>
      <circle class="st0" cx="90.28" cy="200.12" r="6.61" transform="translate(-110.3 289.38) rotate(-89.71)"/>
      <path class="st0" d="M106.51,160.56c-3.16,1.82-4.24,5.87-2.42,9.03,1.83,3.16,5.87,4.24,9.03,2.42s4.24-5.87,2.42-9.03c-1.83-3.16-5.87-4.24-9.03-2.42Z"/>
      <circle class="st0" cx="59.88" cy="213.34" r="6.61" transform="translate(-1.08 .31) rotate(-.29)"/>
      <path class="st0" d="M109.37,139.08c3.16-1.82,4.24-5.87,2.42-9.03s-5.87-4.24-9.03-2.42c-3.16,1.82-4.24,5.87-2.42,9.03,1.83,3.16,5.87,4.24,9.03,2.42Z"/>
      <path class="st0" d="M201.98,132.93c-12.56-21.75-32.66-80.34-32.66-80.34l-5.02,15.1-15.59-3.21s40.71,46.7,53.27,68.45Z"/>
      <circle class="st0" cx="533.12" cy="213.34" r="6.61" transform="translate(317.04 745.35) rotate(-89.7)"/>
      <circle class="st0" cx="502.72" cy="200.12" r="6.61" transform="translate(-.99 2.52) rotate(-.29)"/>
      <path class="st0" d="M481.21,130.05c-1.83,3.16-.74,7.2,2.42,9.03,3.16,1.82,7.2.74,9.03-2.42,1.83-3.16.74-7.2-2.42-9.03-3.16-1.82-7.2-.74-9.03,2.42Z"/>
      <circle class="st0" cx="558.24" cy="234.48" r="6.61" transform="translate(320.97 791.54) rotate(-89.71)"/>
      <path class="st0" d="M477.46,162.98c-1.83,3.16-.74,7.2,2.42,9.03s7.2.74,9.03-2.42c1.83-3.16.74-7.2-2.42-9.03s-7.2-.74-9.03,2.42Z"/>
      <circle class="st0" cx="574.1" cy="263.56" r="6.61" transform="translate(-1.32 2.9) rotate(-.29)"/>
      <path class="st0" d="M485.53,296.6c25.12,0,85.92,11.89,85.92,11.89l-10.58-11.89,10.58-11.89s-60.81,11.89-85.92,11.89Z"/>
      <circle class="st0" cx="406.68" cy="39.72" r="6.61" transform="translate(365.13 446.22) rotate(-89.74)"/>
      <path class="st0" d="M370.26,44.64c3.16,1.82,7.2.74,9.03-2.42s.74-7.2-2.42-9.03c-3.16-1.82-7.2-.74-9.03,2.42-1.83,3.16-.74,7.2,2.42,9.03Z"/>
      <path class="st0" d="M312.73,75.53c3.16,1.82,7.2.74,9.03-2.42,1.83-3.16.74-7.2-2.42-9.03s-7.2-.74-9.03,2.42-.74,7.2,2.42,9.03Z"/>
      <path class="st0" d="M339.38,55.82c3.16,1.82,7.2.74,9.03-2.42s.74-7.2-2.42-9.03-7.2-.74-9.03,2.42c-1.83,3.16-.74,7.2,2.42,9.03Z"/>
      <circle class="st0" cx="463.92" cy="72.76" r="6.61" transform="translate(385.49 535.76) rotate(-89.3)"/>
      <path class="st0" d="M477.87,106.76c3.16,1.82,7.2.74,9.03-2.42,1.83-3.16.74-7.2-2.42-9.03s-7.2-.74-9.03,2.42-.74,7.2,2.42,9.03Z"/>
      <path class="st0" d="M434.64,57.39c3.16,1.82,7.2.74,9.03-2.42,1.83-3.16.74-7.2-2.42-9.03s-7.2-.74-9.03,2.42c-1.83,3.16-.74,7.2,2.42,9.03Z"/>
      <path class="st0" d="M444.28,64.48l-15.59,3.21-5.02-15.1s-20.1,58.6-32.66,80.34c12.56-21.75,53.27-68.45,53.27-68.45Z"/>
      <circle class="st0" cx="481.18" cy="492.16" r="6.61" transform="translate(-11.83 972.48) rotate(-89.9)"/>
      <path class="st0" d="M483.63,454.12c-3.16,1.82-4.24,5.87-2.42,9.03,1.83,3.16,5.87,4.24,9.03,2.42s4.24-5.87,2.42-9.03c-1.83-3.16-5.87-4.24-9.03-2.42Z"/>
      <circle class="st0" cx="463.92" cy="520.44" r="6.61"/>
      <path class="st0" d="M486.49,432.63c3.16-1.82,4.24-5.87,2.42-9.03s-5.87-4.24-9.03-2.42c-3.16,1.82-4.24,5.87-2.42,9.03s5.87,4.24,9.03,2.42Z"/>
      <path class="st0" d="M370.26,548.56c-3.16,1.82-4.24,5.87-2.42,9.03,1.83,3.16,5.87,4.24,9.03,2.42s4.24-5.87,2.42-9.03c-1.83-3.16-5.87-4.24-9.03-2.42Z"/>
      <path class="st0" d="M403.38,547.75c-3.16,1.82-4.24,5.87-2.42,9.03,1.83,3.16,5.87,4.24,9.03,2.42s4.24-5.87,2.42-9.03-5.87-4.24-9.03-2.42Z"/>
      <path class="st0" d="M391.02,460.27c12.56,21.75,32.66,80.34,32.66,80.34l5.02-15.1,15.59,3.21s-40.71-46.7-53.27-68.45Z"/>
      <path class="st0" d="M434.64,535.81c-3.16,1.82-4.24,5.87-2.42,9.03s5.87,4.24,9.03,2.42,4.24-5.87,2.42-9.03c-1.83-3.16-5.87-4.24-9.03-2.42Z"/>
      <circle class="st0" cx="502.72" cy="393.08" r="6.61" transform="translate(107.06 893.76) rotate(-89.7)"/>
      <circle class="st0" cx="579.39" cy="296.6" r="6.61" transform="translate(279.81 874.45) rotate(-89.7)"/>
      <circle class="st0" cx="558.24" cy="358.72" r="6.61" transform="translate(-1.8 2.82) rotate(-.29)"/>
      <circle class="st0" cx="574.1" cy="329.64" r="6.61" transform="translate(241.6 902.09) rotate(-89.71)"/>
      <circle class="st0" cx="533.12" cy="379.86" r="6.61" transform="translate(-1.91 2.7) rotate(-.29)"/>
      <path class="st0" d="M204.67,144.27c-26.53-40.14-59.87-76.01-59.87-76.01l-.26,15.41-15.24,2.7s32.71,18.78,72.3,60.39c.5.07,1.01.14,1.51.21l1.56-2.7Z"/>
      <path class="st0" d="M473.24,307.99c-.53-.7-1.07-1.39-1.62-2.08l1.3-2.26c56.34,13.48,89.28,32.6,89.28,32.6l-5.28-14.54,13.22-7.93s-47.3-10.83-95.1-13.8l1.72-2.98-2.17-3.76c47.96-2.92,95.55-13.82,95.55-13.82l-13.22-7.93,5.28-14.54s-33.1,19.21-89.69,32.69l-.56-.97c1-1.26,1.96-2.54,2.89-3.85,50.57-12.3,86.04-31.84,86.04-31.84l-15.86-3.96v-17.18s-22.24,18.03-61.04,36.66c1.03-2.42,1.96-4.91,2.78-7.44,34.56-16.31,55.62-31.86,55.62-31.86l-18.51-1.32-3.97-14.54s-9.23,11.86-29.17,27.53c.17-2.17.25-4.36.26-6.57,16.76-12.85,24.94-22.28,24.94-22.28l-22.47,5.29-7.33-12.22c-3.66-10.53-9.26-20.14-16.38-28.42l-6.08-10.95,15.82-16.81s-11.78,2.27-30.63,9.98c-1.82-1.11-3.67-2.16-5.57-3.14,22.73-8.96,37.04-10.94,37.04-10.94l-10.61-10.7,8.11-16.68s-23.19,10.1-53.81,31.12c-2.47-.6-4.98-1.11-7.52-1.5,34.58-23.35,60.36-33.23,60.36-33.23l-14.88-8.59,4.5-15.72s-33.48,20.23-68.76,56.67c-2.13.13-4.23.33-6.31.6,39.59-41.62,72.3-60.39,72.3-60.39l-15.24-2.7-.26-15.41s-33.23,35.75-59.74,75.8l-1.77-3.07h-4.2c21.52-43.06,35.94-89.91,35.94-89.91l-13.47,7.48-9.95-11.85s.09,38.39-16.61,94.28h-.4c-.71-1.83-1.49-3.63-2.32-5.4,14.44-49.62,15.24-89.72,15.24-89.72l-11.37,11.75-14.88-8.59s4.45,28,1.28,70.56c-1.6-2.09-3.28-4.11-5.06-6.04,3.08-37.78.17-63.55.17-63.55l-10.4,15.36-14.58-3.84s5.59,13.75,9.19,38.54c-1.8-1.22-3.65-2.37-5.55-3.46-2.75-20.67-6.77-32.3-6.77-32.3l-6.66,22.1-13.35.22c-5.48-1.07-11.15-1.64-16.95-1.64s-11.41.56-16.86,1.62l-12.43-.21-6.66-22.1s-3.95,11.41-6.69,31.7c-1.88,1.04-3.72,2.16-5.52,3.33,3.6-24.33,9.08-37.8,9.08-37.8l-14.58,3.84-10.4-15.36s-2.87,25.32.09,62.56c-1.77,1.87-3.46,3.82-5.06,5.85-3-41.89,1.36-69.38,1.36-69.38l-14.88,8.59-11.37-11.75s.79,39.4,14.86,88.42c-.94,1.91-1.81,3.86-2.61,5.85-16.44-55.43-16.35-93.43-16.35-93.43l-9.95,11.85-13.47-7.48s14.41,46.86,35.94,89.91h-3.94l-1.89,3.27c.74,1.11,1.47,2.23,2.19,3.35-1.24-.24-2.49-.46-3.75-.65l-.5.86c-.34-.36-.68-.72-1.01-1.07-2.08-.27-4.19-.47-6.31-.6-35.28-36.43-68.76-56.67-68.76-56.67l4.5,15.72-14.88,8.59s25.78,9.88,60.36,33.23c-2.55.39-5.05.9-7.52,1.5-30.62-21.02-53.81-31.12-53.81-31.12l8.11,16.68-10.61,10.7s14.31,1.98,37.04,10.94c-1.9.98-3.76,2.03-5.57,3.14-18.85-7.71-30.63-9.98-30.63-9.98l15.82,16.81-6.08,10.95c-7.12,8.28-12.72,17.89-16.38,28.42l-7.33,12.22-22.47-5.29s8.18,9.43,24.94,22.28c0,2.21.09,4.4.26,6.57-19.94-15.66-29.17-27.53-29.17-27.53l-3.97,14.54-18.51,1.32s21.06,15.56,55.62,31.86c.82,2.53,1.74,5.01,2.78,7.44-38.8-18.63-61.04-36.66-61.04-36.66v17.18l-15.86,3.96s35.46,19.53,86.04,31.84c.98,1.38,1.99,2.72,3.04,4.04l-.49.84c-56.73-13.49-89.92-32.75-89.92-32.75l5.28,14.54-13.22,7.93s47.75,10.94,95.79,13.84l-2.16,3.74,1.71,2.97c-47.89,2.94-95.35,13.81-95.35,13.81l13.22,7.93-5.28,14.54s32.8-19.04,88.92-32.51c-1.32,1.68-2.57,3.41-3.77,5.18-49.4,12.33-83.83,31.29-83.83,31.29l15.86,3.96v17.18s21.53-17.45,59.18-35.75c-.94,2.38-1.78,4.82-2.52,7.29-33.61,16.03-54.02,31.1-54.02,31.1l18.51,1.32,3.97,14.54s8.88-11.41,28.03-26.63c-.08,1.58-.13,3.17-.13,4.77,0,.55.01,1.11.02,1.66-16.1,12.46-23.96,21.53-23.96,21.53l22.47-5.29,5.96,9.93c3.8,11.4,9.86,21.76,17.66,30.55l6.17,11.11-15.82,16.81s12.03-2.32,31.23-10.23c1.88,1.09,3.79,2.12,5.75,3.08-23.18,9.22-37.82,11.25-37.82,11.25l10.61,10.7-8.11,16.68s23.72-10.33,54.85-31.84c2.55.56,5.14,1.02,7.77,1.35-35.23,23.98-61.66,34.1-61.66,34.1l14.88,8.59-4.5,15.72s34.32-20.74,70.08-58.03c1.8-.15,3.59-.36,5.36-.62l.36.62c-39.91,42.15-73.03,61.16-73.03,61.16l15.24,2.7.26,15.41s33.14-35.65,59.63-75.63l2.14,3.7h3.54c-21.3,42.84-35.54,89.11-35.54,89.11l13.47-7.48,9.95,11.85s-.09-38.02,16.37-93.48h1.04c.61,1.51,1.27,3,1.96,4.47-14.47,49.68-15.27,89.84-15.27,89.84l11.37-11.75,14.88,8.59s-4.47-28.07-1.27-70.74c1.6,2.09,3.28,4.1,5.06,6.04-3.11,37.88-.18,63.73-.18,63.73l10.4-15.36,14.58,3.84s-5.62-13.83-9.22-38.76c1.8,1.22,3.65,2.38,5.55,3.47,2.75,20.8,6.8,32.52,6.8,32.52l6.66-22.1,14.3-.24c5.19.95,10.53,1.45,15.99,1.45s10.75-.5,15.91-1.44l13.38.23,6.66,22.1s3.97-11.49,6.72-31.91c1.88-1.05,3.72-2.16,5.52-3.34-3.6,24.46-9.11,38.02-9.11,38.02l14.58-3.84,10.4,15.36s2.88-25.4-.1-62.74c1.77-1.87,3.46-3.82,5.06-5.85,3.03,42-1.35,69.56-1.35,69.56l14.88-8.59,11.37,11.75s-.79-39.47-14.9-88.54c.93-1.89,1.79-3.81,2.58-5.77h.04c16.46,55.46,16.37,93.48,16.37,93.48l9.95-11.85,13.47,7.48s-14.23-46.28-35.54-89.11h3.79l2.02-3.49c26.47,39.9,59.49,75.43,59.49,75.43l.26-15.41,15.24-2.7s-31.64-18.16-70.35-58.36c2.05.22,4.12.38,6.21.46,34.59,35.24,66.92,54.78,66.92,54.78l-4.5-15.72,14.88-8.59s-24.72-9.47-58.21-31.78c2.47-.44,4.9-.99,7.29-1.64,29.66,20.13,51.89,29.81,51.89,29.81l-8.11-16.68,10.61-10.7s-13.49-1.87-35.09-10.18c1.83-1,3.62-2.07,5.36-3.19,17.83,7.14,28.89,9.28,28.89,9.28l-15.82-16.81,3.47-6.25c9.27-9.87,16.29-21.88,20.24-35.21l6.09-10.14,22.47,5.29s-8.19-9.44-24.97-22.3c-.05-2.25-.19-4.48-.41-6.69,20.06,15.73,29.34,27.66,29.34,27.66l3.97-14.54,18.51-1.32s-21.35-15.78-56.35-32.21c-.91-2.58-1.93-5.11-3.07-7.58,39.43,18.8,62.06,37.14,62.06,37.14v-17.18l15.86-3.96s-36.21-19.95-87.64-32.22Z"/>
      <circle class="st0" cx="109.82" cy="426.91" r="6.61" transform="translate(-.76 .2) rotate(-.1)"/>
      <path class="st0" d="M111.79,463.15c1.83-3.16.74-7.2-2.42-9.03-3.16-1.82-7.2-.74-9.03,2.42-1.83,3.16-.74,7.2,2.42,9.03s7.2.74,9.03-2.42Z"/>
      <circle class="st0" cx="18.9" cy="329.64" r="6.61" transform="translate(-1.62 .1) rotate(-.28)"/>
      <circle class="st0" cx="129.08" cy="520.44" r="6.61" transform="translate(-391.93 647.18) rotate(-89.74)"/>
      <circle class="st0" cx="111.82" cy="492.16" r="6.61" transform="translate(-3.03 .7) rotate(-.35)"/>
      <circle class="st0" cx="34.76" cy="358.72" r="6.61" transform="translate(-324.13 391.63) rotate(-89.7)"/>
      <circle class="st0" cx="90.28" cy="393.08" r="6.61" transform="translate(-1.98 .46) rotate(-.29)"/>
      <circle class="st0" cx="59.88" cy="379.86" r="6.61" transform="translate(-320.29 437.78) rotate(-89.7)"/>
      <path class="st0" d="M222.74,548.56c-3.16-1.82-7.2-.74-9.03,2.42-1.83,3.16-.74,7.2,2.42,9.03s7.2.74,9.03-2.42c1.83-3.16.74-7.2-2.42-9.03Z"/>
      <circle class="st0" cx="276.96" cy="523.39" r="6.61" transform="translate(-7.03 3.78) rotate(-.77)"/>
      <path class="st0" d="M158.36,535.81c-3.16-1.82-7.2-.74-9.03,2.42-1.83,3.16-.74,7.2,2.42,9.03s7.2.74,9.03-2.42.74-7.2-2.42-9.03Z"/>
      <circle class="st0" cx="250.31" cy="543.11" r="6.61"/>
      <circle class="st0" cx="316.04" cy="523.39" r="6.61" transform="translate(-211.56 832.34) rotate(-89.23)"/>
      <circle class="st0" cx="342.69" cy="543.11" r="6.61" transform="translate(-204.28 879.59) rotate(-89.35)"/>
      <path class="st0" d="M148.72,528.72l15.59-3.21,5.02,15.1s20.1-58.6,32.66-80.34c-12.56,21.75-53.27,68.45-53.27,68.45Z"/>
      <path class="st0" d="M189.62,547.75c-3.16-1.82-7.2-.74-9.03,2.42s-.74,7.2,2.42,9.03,7.2.74,9.03-2.42c1.83-3.16.74-7.2-2.42-9.03Z"/>
    </g>
  </g>
  <g id="Vector_01_copy">
    <path d="M144.8,68.27l-.26,15.41-15.24,2.7s41.1,23.59,86.91,76.5c-27.1-46.93-71.42-94.6-71.42-94.6Z"/>
    <path d="M126.53,89.49s63.3,38.24,107.53,104.27c-59.12-57.44-117.92-79.96-117.92-79.96l14.88-8.59-4.5-15.72Z"/>
    <path d="M115.18,117.41s69.33,30.18,126.51,94.84c-69.29-59.2-129.01-67.46-129.01-67.46l10.61-10.7-8.11-16.68Z"/>
    <path d="M113.51,148.89s77.29,14.9,152.76,98c-84.88-62.41-144.43-67.72-144.43-67.72l7.48-13.48-15.82-16.81Z"/>
    <path d="M164.31,67.69l-15.59-3.21s40.71,46.7,53.27,68.45c-12.56-21.75-32.66-80.34-32.66-80.34l-5.02,15.1Z"/>
    <path d="M174.56,51.09l13.47,7.48,9.95-11.85s-.12,47.38,22.8,113.5c-27.1-46.93-46.23-109.13-46.23-109.13Z"/>
    <path d="M202.09,45.88s1.48,73.92,36.56,145.24c-20.2-79.91-10.31-142.08-10.31-142.08l-14.88,8.59-11.37-11.75Z"/>
    <path d="M231.95,50.01s-8.52,75.12,18.9,156.96c-16.63-89.59,6.07-145.43,6.07-145.43l-14.58,3.84-10.4-15.36Z"/>
    <path d="M260.05,64.31s-25.74,74.37,8.51,181.27c-11.62-104.7,13.56-158.91,13.56-158.91l-15.41-.26-6.66-22.1Z"/>
    <circle cx="155.05" cy="51.66" r="6.61"/>
    <circle cx="129.08" cy="72.76" r="6.61"/>
    <circle cx="111.82" cy="101.04" r="6.61"/>
    <circle cx="106.07" cy="133.35" r="6.61"/>
    <circle cx="109.82" cy="166.29" r="6.61"/>
    <circle cx="186.32" cy="39.72" r="6.61"/>
    <circle cx="219.44" cy="38.92" r="6.61"/>
    <circle cx="250.31" cy="50.09" r="6.61"/>
    <circle cx="276.96" cy="69.81" r="6.61"/>
    <path d="M418.44,542.11l-13.47-7.48-9.95,11.85s.12-47.38-22.8-113.5c27.1,46.93,46.23,109.13,46.23,109.13Z"/>
    <path d="M390.91,547.32s-1.48-73.92-36.56-145.24c20.2,79.91,10.31,142.08,10.31,142.08l14.88-8.59,11.37,11.75Z"/>
    <path d="M361.05,543.19s8.52-75.12-18.9-156.96c16.63,89.59-6.07,145.43-6.07,145.43l14.58-3.84,10.4,15.36Z"/>
    <path d="M332.95,528.89s25.74-74.37-8.51-181.27c11.62,104.7-13.56,158.91-13.56,158.91l15.41.26,6.66,22.1Z"/>
    <path d="M428.69,525.51l-5.02,15.1s-20.1-58.6-32.66-80.34c12.56,21.75,53.27,68.45,53.27,68.45l-15.59-3.21Z"/>
    <path d="M448.2,524.93l.26-15.41,15.24-2.7s-41.1-23.59-86.91-76.5c27.1,46.93,71.42,94.6,71.42,94.6Z"/>
    <path d="M466.47,503.7s-63.3-38.24-107.53-104.27c59.12,57.44,117.92,79.96,117.92,79.96l-14.88,8.59,4.5,15.72Z"/>
    <path d="M477.82,475.78s-69.33-30.18-126.51-94.84c69.29,59.2,129.01,67.46,129.01,67.46l-10.61,10.7,8.11,16.68Z"/>
    <path d="M479.49,444.3s-77.29-14.9-152.76-98c84.88,62.41,144.43,67.72,144.43,67.72l-7.48,13.48,15.82,16.81Z"/>
    <circle cx="437.95" cy="541.53" r="6.61"/>
    <circle cx="406.68" cy="553.48" r="6.61"/>
    <circle cx="373.56" cy="554.28" r="6.61"/>
    <circle cx="342.69" cy="543.11" r="6.61"/>
    <circle cx="316.04" cy="523.39" r="6.61"/>
    <circle cx="463.92" cy="520.44" r="6.61"/>
    <circle cx="481.18" cy="492.16" r="6.61"/>
    <circle cx="486.93" cy="459.84" r="6.61"/>
    <circle cx="483.18" cy="426.91" r="6.61"/>
    <path d="M22.86,313.78l13.22,7.93-5.28,14.54s40.98-23.79,109.72-37.01c-54.2,0-117.65,14.54-117.65,14.54Z"/>
    <path d="M32.12,340.21s64.77-35.68,144.09-40.97c-79.32,22.47-128.23,62.12-128.23,62.12v-17.18s-15.86-3.96-15.86-3.96Z"/>
    <path d="M50.62,364s60.81-44.93,145.41-62.12c-85.92,30.4-122.94,77.98-122.94,77.98l-3.97-14.54-18.51-1.32Z"/>
    <path d="M77.06,381.18s51.55-59.47,161.27-83.26c-96.5,42.29-130.87,91.19-130.87,91.19l-7.93-13.22-22.47,5.29Z"/>
    <path d="M32.12,296.6l-10.58,11.89s60.81-11.89,85.92-11.89c-25.12,0-85.92-11.89-85.92-11.89l10.58,11.89Z"/>
    <path d="M22.86,279.42l13.22-7.93-5.28-14.54s40.98,23.79,109.72,37.01c-54.2,0-117.65-14.54-117.65-14.54Z"/>
    <path d="M32.12,252.99s64.77,35.68,144.09,40.97c-79.32-22.47-128.23-62.12-128.23-62.12v17.18s-15.86,3.96-15.86,3.96Z"/>
    <path d="M50.62,229.2s60.81,44.93,145.41,62.12c-85.92-30.4-122.94-77.98-122.94-77.98l-3.97,14.54-18.51,1.32Z"/>
    <path d="M77.06,212.02s51.55,59.47,161.27,83.26c-96.5-42.29-130.87-91.19-130.87-91.19l-7.93,13.22-22.47-5.29Z"/>
    <circle cx="13.61" cy="296.6" r="6.61"/>
    <circle cx="18.9" cy="329.64" r="6.61"/>
    <circle cx="34.76" cy="358.72" r="6.61"/>
    <circle cx="59.88" cy="379.86" r="6.61"/>
    <circle cx="90.28" cy="393.08" r="6.61"/>
    <circle cx="18.9" cy="263.56" r="6.61"/>
    <circle cx="34.76" cy="234.48" r="6.61"/>
    <circle cx="59.88" cy="213.34" r="6.61"/>
    <circle cx="90.28" cy="200.12" r="6.61"/>
    <path d="M570.14,313.78l-13.22,7.93,5.28,14.54s-40.98-23.79-109.72-37.01c54.2,0,117.65,14.54,117.65,14.54Z"/>
    <path d="M560.88,340.21s-64.77-35.68-144.09-40.97c79.32,22.47,128.23,62.12,128.23,62.12v-17.18s15.86-3.96,15.86-3.96Z"/>
    <path d="M542.38,364s-60.81-44.93-145.41-62.12c85.92,30.4,122.94,77.98,122.94,77.98l3.97-14.54,18.51-1.32Z"/>
    <path d="M515.94,381.18s-51.55-59.47-161.27-83.26c96.5,42.29,130.87,91.19,130.87,91.19l7.93-13.22,22.47,5.29Z"/>
    <path d="M560.88,296.6l10.58,11.89s-60.81-11.89-85.92-11.89c25.12,0,85.92-11.89,85.92-11.89l-10.58,11.89Z"/>
    <path d="M570.14,279.42l-13.22-7.93,5.28-14.54s-40.98,23.79-109.72,37.01c54.2,0,117.65-14.54,117.65-14.54Z"/>
    <path d="M560.88,252.99s-64.77,35.68-144.09,40.97c79.32-22.47,128.23-62.12,128.23-62.12v17.18l15.86,3.96Z"/>
    <path d="M542.38,229.2s-60.81,44.93-145.41,62.12c85.92-30.4,122.94-77.98,122.94-77.98l3.97,14.54,18.51,1.32Z"/>
    <path d="M515.94,212.02s-51.55,59.47-161.27,83.26c96.5-42.29,130.87-91.19,130.87-91.19l7.93,13.22,22.47-5.29Z"/>
    <circle cx="579.39" cy="296.6" r="6.61"/>
    <circle cx="574.1" cy="329.64" r="6.61"/>
    <circle cx="558.24" cy="358.72" r="6.61"/>
    <circle cx="533.12" cy="379.86" r="6.61"/>
    <circle cx="502.72" cy="393.08" r="6.61"/>
    <path d="M574.1,270.17c-3.65,0-6.61-2.96-6.61-6.61,0-3.65,2.96-6.61,6.61-6.61s6.61,2.96,6.61,6.61-2.96,6.61-6.61,6.61Z"/>
    <path d="M558.24,241.09c-3.65,0-6.61-2.96-6.61-6.61,0-3.65,2.96-6.61,6.61-6.61s6.61,2.96,6.61,6.61-2.96,6.61-6.61,6.61Z"/>
    <circle cx="533.12" cy="213.34" r="6.61"/>
    <circle cx="502.72" cy="200.12" r="6.61"/>
    <path d="M174.56,542.11l13.47-7.48,9.95,11.85s-.12-47.38,22.8-113.5c-27.1,46.93-46.23,109.13-46.23,109.13Z"/>
    <path d="M202.09,547.32s1.48-73.92,36.56-145.24c-20.2,79.91-10.31,142.08-10.31,142.08l-14.88-8.59-11.37,11.75Z"/>
    <path d="M231.95,543.19s-8.52-75.12,18.9-156.96c-16.63,89.59,6.07,145.43,6.07,145.43l-14.58-3.84-10.4,15.36Z"/>
    <path d="M260.05,528.89s-25.74-74.37,8.51-181.27c-11.62,104.7,13.56,158.91,13.56,158.91l-15.41.26-6.66,22.1Z"/>
    <path d="M164.31,525.51l5.02,15.1s20.1-58.6,32.66-80.34c-12.56,21.75-53.27,68.45-53.27,68.45l15.59-3.21Z"/>
    <path d="M144.8,524.93l-.26-15.41-15.24-2.7s41.1-23.59,86.91-76.5c-27.1,46.93-71.42,94.6-71.42,94.6Z"/>
    <path d="M126.53,503.7s63.3-38.24,107.53-104.27c-59.12,57.44-117.92,79.96-117.92,79.96l14.88,8.59-4.5,15.72Z"/>
    <path d="M115.18,475.78s69.33-30.18,126.51-94.84c-69.29,59.2-129.01,67.46-129.01,67.46l10.61,10.7-8.11,16.68Z"/>
    <path d="M113.51,444.3s77.29-14.9,152.76-98c-84.88,62.41-144.43,67.72-144.43,67.72l7.48,13.48-15.82,16.81Z"/>
    <circle cx="155.05" cy="541.53" r="6.61"/>
    <circle cx="186.32" cy="553.48" r="6.61"/>
    <circle cx="219.44" cy="554.28" r="6.61"/>
    <circle cx="250.31" cy="543.11" r="6.61"/>
    <circle cx="276.96" cy="523.39" r="6.61"/>
    <circle cx="129.08" cy="520.44" r="6.61"/>
    <circle cx="111.82" cy="492.16" r="6.61"/>
    <circle cx="106.07" cy="459.84" r="6.61"/>
    <circle cx="109.82" cy="426.91" r="6.61"/>
    <path d="M448.2,68.27l.26,15.41,15.24,2.7s-41.1,23.59-86.91,76.5c27.1-46.93,71.42-94.6,71.42-94.6Z"/>
    <path d="M466.47,89.49s-63.3,38.24-107.53,104.27c59.12-57.44,117.92-79.96,117.92-79.96l-14.88-8.59,4.5-15.72Z"/>
    <path d="M477.82,117.41s-69.33,30.18-126.51,94.84c69.29-59.2,129.01-67.46,129.01-67.46l-10.61-10.7,8.11-16.68Z"/>
    <path d="M479.49,148.89s-77.29,14.9-152.76,98c84.88-62.41,144.43-67.72,144.43-67.72l-7.48-13.48,15.82-16.81Z"/>
    <path d="M428.69,67.69l15.59-3.21s-40.71,46.7-53.27,68.45c12.56-21.75,32.66-80.34,32.66-80.34l5.02,15.1Z"/>
    <path d="M418.44,51.09l-13.47,7.48-9.95-11.85s.12,47.38-22.8,113.5c27.1-46.93,46.23-109.13,46.23-109.13Z"/>
    <path d="M390.91,45.88s-1.48,73.92-36.56,145.24c20.2-79.91,10.31-142.08,10.31-142.08l14.88,8.59,11.37-11.75Z"/>
    <path d="M361.05,50.01s8.52,75.12-18.9,156.96c16.63-89.59-6.07-145.43-6.07-145.43l14.58,3.84,10.4-15.36Z"/>
    <path d="M332.95,64.31s25.74,74.37-8.51,181.27c11.62-104.7-13.56-158.91-13.56-158.91l15.41-.26,6.66-22.1Z"/>
    <circle cx="437.95" cy="51.66" r="6.61"/>
    <circle cx="463.92" cy="72.76" r="6.61"/>
    <circle cx="481.18" cy="101.04" r="6.61"/>
    <circle cx="486.93" cy="133.35" r="6.61"/>
    <circle cx="483.18" cy="166.29" r="6.61"/>
    <circle cx="406.68" cy="39.72" r="6.61"/>
    <circle cx="373.56" cy="38.92" r="6.61"/>
    <circle cx="342.69" cy="50.09" r="6.61"/>
    <circle cx="316.04" cy="69.81" r="6.61"/>
    <path d="M225.52,255.63l-21.67,5.8c45.79,26.43,88.07,32.52,88.07,32.52,0,0-26.41-33.56-72.21-59.99l5.81,21.66Z"/>
    <path d="M219.72,233.96c-45.79-26.43-88.07-32.52-88.07-32.52,0,0,26.41,33.56,72.21,59.99l-5.81-21.66,21.67-5.8Z"/>
    <path d="M394.95,353.43l-21.67,5.8c45.79,26.43,88.07,32.52,88.07,32.52,0,0-26.41-33.56-72.21-59.99l5.81,21.66Z"/>
    <path d="M389.15,331.76c-45.79-26.43-88.07-32.52-88.07-32.52,0,0,26.41,33.56,72.21,59.99l-5.81-21.66,21.67-5.8Z"/>
    <path d="M225.52,337.57l-5.81,21.66c45.79-26.43,72.21-59.99,72.21-59.99,0,0-42.28,6.09-88.07,32.52l21.67,5.8Z"/>
    <path d="M203.85,331.76c-45.79,26.43-72.21,59.99-72.21,59.99,0,0,42.28-6.09,88.07-32.52l-21.67-5.8,5.81-21.66Z"/>
    <path d="M394.95,239.77l-5.81,21.66c45.79-26.43,72.21-59.99,72.21-59.99,0,0-42.28,6.09-88.07,32.52l21.67,5.8Z"/>
    <path d="M373.28,233.96c-45.79,26.43-72.21,59.99-72.21,59.99,0,0,42.28-6.09,88.07-32.52l-21.67-5.8,5.81-21.66Z"/>
    <path d="M296.5,378.54l15.86,15.86c0-52.86-15.86-92.51-15.86-92.51,0,0-15.86,39.65-15.86,92.51l15.86-15.86Z"/>
    <path d="M280.64,394.4c0,52.86,15.86,92.51,15.86,92.51,0,0,15.86-39.65,15.86-92.51l-15.86,15.86-15.86-15.86Z"/>
    <path d="M296.5,182.94l15.86,15.86c0-52.86-15.86-92.51-15.86-92.51,0,0-15.86,39.65-15.86,92.51l15.86-15.86Z"/>
    <path d="M280.64,198.8c0,52.86,15.86,92.51,15.86,92.51,0,0,15.86-39.65,15.86-92.51l-15.86,15.86-15.86-15.86Z"/>
  </g>
</svg>