<?xml version="1.0" encoding="UTF-8"?>
<svg id="black" xmlns="http://www.w3.org/2000/svg" version="1.1" viewBox="0 0 595.28 595.28">
  <!-- Generator: Adobe Illustrator 30.1.0, SVG Export Plug-In . SVG Version: 2.1.1 Build 136)  -->
  <defs>
    <style>
      .st0 {
        fill: none;
      }
    </style>
  </defs>
  <g>
    <path class="st0" d="M288.39,562.25c2.79-5.41,5.73-11.29,8.43-17.02-1.78-20.38-8.41-32.24-10.46-33.7-1.27-.9-3.75-.49-6.31-.87,2.37,3.37,4.79,7.3,7.27,11.88,0,0,7.02,21.2,1.08,39.71Z"/>
    <path class="st0" d="M326.79,50.87l-.1.02s.05.1.08.14c0-.06.02-.11.02-.17Z"/>
    <path d="M359.71,243.97c-1.98.39-5.52-46.24-6.87-48.59-5.49-9.56-18.68-11.15-23.03-7.69-10.04,7.97-4.52,35.1-.28,45.4,7.62,18.5,14.13,26.53,23.83,29.65,1.9.61,3.41,2.05,3.93,4.05l4.03,15.45s1.84,5.7,4.82,2.34c1.09-1.23,1.53-2.93,1.39-4.56-.42-4.64-1.23-15.63.24-17.31,1.88-2.13,16.32-8.16,21.59-29.62,3.36-13.67,8.62-48.89-14.68-47.44-6.02.38-6.02,3.39-8.28,8.66-1.22,2.85-4.7,49.26-6.68,49.65Z"/>
    <path d="M359.6,181.71l-1.94,11.19c-4.34-6.42-8.64-12.88-13.05-19.26-4.78-6.95-9.6-13.89-14.55-20.73,4.4,7.2,8.94,14.31,13.51,21.4,4.55,7.1,9.25,14.11,13.87,21.17l1.15,1.76.34-2.07,2.18-13.22c.71-4.41,1.47-8.81,2.13-13.22l2-13.24c.61-4.42,1.27-8.84,1.82-13.27-.94,4.37-1.76,8.76-2.65,13.14l-2.47,13.17c-.83,4.39-1.56,8.79-2.34,13.19Z"/>
    <path d="M356.3,166.94l-1.92,11.16c-4.34-6.33-8.63-12.7-13.05-18.98-4.78-6.86-9.6-13.69-14.54-20.44,4.4,7.1,8.94,14.11,13.51,21.11,4.55,7.01,9.25,13.92,13.86,20.88l1.15,1.74.34-2.05,2.15-13.17c.69-4.39,1.45-8.78,2.1-13.18l1.97-13.2c.6-4.41,1.25-8.81,1.79-13.22-.93,4.36-1.74,8.73-2.61,13.09l-2.44,13.12c-.82,4.37-1.54,8.76-2.31,13.14Z"/>
    <path d="M353,152.17l-1.89,11.12c-4.34-6.24-8.62-12.52-13.04-18.71-4.78-6.76-9.59-13.49-14.54-20.14,4.4,7,8.94,13.92,13.51,20.82,4.54,6.91,9.24,13.72,13.86,20.59l1.16,1.72.33-2.04,2.12-13.12c.68-4.38,1.42-8.74,2.06-13.13l1.94-13.15c.59-4.39,1.23-8.77,1.76-13.17-.91,4.34-1.72,8.7-2.58,13.04l-2.4,13.07c-.81,4.36-1.51,8.73-2.28,13.09Z"/>
    <path d="M349.7,137.4l-1.86,11.09c-4.34-6.15-8.62-12.34-13.03-18.44-4.78-6.66-9.59-13.3-14.53-19.85,4.4,6.91,8.94,13.73,13.51,20.52,4.54,6.82,9.24,13.53,13.85,20.3l1.16,1.7.32-2.02,2.08-13.07c.67-4.36,1.4-8.71,2.03-13.08l1.9-13.1c.58-4.37,1.2-8.74,1.72-13.12-.9,4.32-1.7,8.66-2.55,13l-2.37,13.02c-.8,4.34-1.49,8.7-2.24,13.04Z"/>
    <path d="M346.39,122.62c-.61,3.68-1.24,7.36-1.84,11.05-4.33-6.06-8.61-12.15-13.02-18.16-4.77-6.56-9.58-13.1-14.52-19.55,4.4,6.81,8.94,13.53,13.51,20.23,4.54,6.72,9.24,13.33,13.85,20l1.14,1.65.33-1.98c.73-4.33,1.37-8.68,2.05-13.02.66-4.34,1.38-8.68,2-13.03l1.87-13.05c.56-4.36,1.18-8.71,1.69-13.08-.89,4.31-1.68,8.63-2.52,12.95l-2.34,12.97c-.78,4.32-1.47,8.66-2.21,12.99Z"/>
    <path d="M343.09,107.85c-.6,3.67-1.23,7.34-1.81,11.02-4.33-5.97-8.6-11.97-13.01-17.88-4.77-6.46-9.58-12.9-14.51-19.25,4.4,6.71,8.94,13.34,13.5,19.94,4.54,6.62,9.23,13.14,13.84,19.71l1.14,1.63.33-1.96c.72-4.32,1.34-8.65,2.02-12.97l1.97-12.98,1.83-13c.55-4.34,1.16-8.68,1.66-13.03-.88,4.29-1.66,8.6-2.49,12.9l-2.31,12.93-2.18,12.95Z"/>
    <path d="M339.79,93.08c-.59,3.66-1.21,7.32-1.78,10.98-4.33-5.88-8.6-11.79-13-17.61-4.77-6.36-9.57-12.71-14.5-18.96,4.4,6.62,8.94,13.15,13.5,19.65,4.53,6.53,9.23,12.94,13.84,19.42l1.14,1.61.32-1.95c.72-4.3,1.32-8.61,1.99-12.92l1.93-12.93,1.8-12.95c.54-4.32,1.14-8.64,1.62-12.98-.87,4.28-1.64,8.57-2.45,12.85l-2.27,12.88-2.14,12.9Z"/>
    <path d="M336.49,78.3c-.58,3.65-1.19,7.3-1.75,10.95-4.32-5.78-8.59-11.61-13-17.33-4.77-6.27-9.57-12.51-14.49-18.66,4.41,6.52,8.94,12.95,13.5,19.36,4.53,6.43,9.23,12.75,13.83,19.13l1.14,1.58.32-1.93c.71-4.28,1.3-8.58,1.96-12.87l1.9-12.88,1.77-12.9c.53-4.31,1.11-8.61,1.59-12.93-.86,4.26-1.62,8.53-2.42,12.8l-2.24,12.83-2.11,12.85Z"/>
    <path d="M333.18,63.53c-.57,3.64-1.17,7.27-1.72,10.92-4.32-5.69-8.59-11.43-12.99-17.06-4.76-6.17-9.56-12.31-14.48-18.37,4.41,6.42,8.94,12.76,13.5,19.07,4.53,6.34,9.22,12.55,13.83,18.84l1.14,1.56.31-1.91c.7-4.27,1.28-8.55,1.93-12.82l1.87-12.83,1.73-12.85c.52-4.29,1.09-8.58,1.55-12.88-.85,4.24-1.6,8.5-2.39,12.75l-2.21,12.78-2.07,12.8Z"/>
    <path d="M328.05,62.11l1.14,1.54.31-1.89c.69-4.25,1.26-8.52,1.9-12.77l1.84-12.78,1.7-12.8c.51-4.27,1.07-8.54,1.52-12.83-.84,4.23-1.58,8.47-2.36,12.7l-2.18,12.73-2.04,12.75c-.56,3.63-1.16,7.25-1.7,10.88-4.32-5.6-8.58-11.24-12.98-16.79-4.76-6.07-9.56-12.11-14.47-18.07,4.41,6.33,8.93,12.57,13.5,18.78,4.53,6.24,9.22,12.36,13.82,18.54Z"/>
    <path d="M327.3,373.5c1.93,2.53,3.97,4.98,5.95,7.48l5.99,7.45,1.27,1.58.19-2.01c.35-3.68.77-7.36,1.23-11.04.46-3.68,1.01-7.34,1.52-11.01.52-3.67,1.17-7.31,1.9-10.94.7-3.64,1.55-7.25,2.86-10.73-1.66,3.35-2.67,6.97-3.64,10.56-.91,3.61-1.69,7.26-2.36,10.92-.71,3.65-1.25,7.33-1.77,11.02-.42,3.05-.81,6.09-1.16,9.15l-4.85-5.87c-2.05-2.44-4.04-4.93-6.13-7.34l-6.22-7.27c-2.12-2.38-4.2-4.81-6.36-7.16,1.86,2.59,3.81,5.11,5.72,7.66l5.86,7.55Z"/>
    <path d="M334.83,373.33l1.23,1.54.21-1.96,1.08-10.29c.39-3.43.86-6.85,1.33-10.27.45-3.42,1-6.83,1.65-10.21.62-3.39,1.36-6.77,2.55-10.03-1.56,3.12-2.5,6.5-3.38,9.85-.82,3.38-1.53,6.78-2.14,10.19-.6,3.42-1.08,6.85-1.54,10.29-.35,2.8-.7,5.6-.96,8.41-3.42-4.11-6.79-8.26-10.29-12.3-3.89-4.57-7.81-9.11-11.85-13.56,3.55,4.83,7.21,9.58,10.91,14.29,3.65,4.75,7.48,9.36,11.22,14.05Z"/>
    <path d="M330.41,358.24l1.28,1.58.17-2.02c.54-6.36,1.2-12.74,2-19.08.37-3.18.84-6.34,1.41-9.48.53-3.15,1.18-6.29,2.26-9.32-1.44,2.89-2.3,6.04-3.09,9.15-.73,3.14-1.37,6.3-1.91,9.47-.94,5.7-1.63,11.42-2.13,17.17-3.15-3.81-6.32-7.62-9.57-11.36-3.65-4.27-7.34-8.51-11.15-12.66,3.31,4.54,6.74,8.98,10.21,13.4,3.43,4.44,6.97,8.81,10.51,13.16Z"/>
    <path d="M325.99,343.15l1.31,1.61.15-2.06c.42-5.87.94-11.75,1.59-17.6.3-2.93.69-5.85,1.18-8.75.45-2.91,1.01-5.81,1.97-8.61-1.33,2.67-2.09,5.58-2.8,8.45-.65,2.9-1.2,5.82-1.67,8.74-.46,2.93-.83,5.87-1.15,8.81-.23,2.28-.44,4.55-.61,6.84-2.91-3.51-5.84-7.01-8.84-10.44-3.42-3.97-6.88-7.91-10.45-11.77,3.08,4.24,6.28,8.39,9.51,12.51,3.2,4.14,6.5,8.21,9.81,12.27Z"/>
    <path d="M321.57,328.06l1.34,1.64.12-2.11c.29-5.37.69-10.76,1.19-16.12.23-2.68.54-5.36.94-8.02.36-2.67.83-5.32,1.68-7.9-1.21,2.45-1.89,5.12-2.51,7.75-.56,2.66-1.04,5.34-1.43,8.02-.66,4.69-1.1,9.4-1.38,14.13-2.67-3.2-5.35-6.39-8.11-9.52-3.19-3.67-6.41-7.32-9.75-10.87,2.85,3.94,5.81,7.79,8.8,11.62,2.97,3.85,6.04,7.61,9.11,11.37Z"/>
    <path d="M317.15,312.97l1.38,1.69.08-2.17c.17-4.87.44-9.76.78-14.64.16-2.44.39-4.87.7-7.29.27-2.43.66-4.84,1.39-7.19-1.1,2.22-1.68,4.66-2.22,7.06-.48,2.42-.87,4.86-1.19,7.3-.53,4.19-.85,8.39-1.02,12.61-2.42-2.89-4.86-5.77-7.37-8.59-2.96-3.37-5.95-6.72-9.06-9.97,2.61,3.65,5.34,7.2,8.1,10.73,2.74,3.55,5.58,7.01,8.42,10.48Z"/>
    <path d="M312.74,297.88l1.44,1.74.02-2.25c.05-4.38.18-8.77.38-13.15.09-2.19.24-4.38.47-6.56.18-2.19.48-4.36,1.1-6.48-.98,2-1.47,4.2-1.93,6.37-.39,2.18-.7,4.38-.95,6.58-.39,3.68-.6,7.37-.68,11.06-2.18-2.58-4.36-5.14-6.62-7.65-2.73-3.07-5.48-6.12-8.36-9.07,2.37,3.35,4.87,6.61,7.4,9.84,2.51,3.25,5.11,6.42,7.72,9.58Z"/>
    <path d="M294.59,265.15c2.14,3.06,4.41,6.01,6.7,8.95,2.27,2.95,4.65,5.82,7.03,8.69l1.51,1.82-.05-2.35c-.08-3.88-.06-7.78-.02-11.66.02-1.94.09-3.89.23-5.82.1-1.94.3-3.87.8-5.77-.87,1.78-1.25,3.75-1.63,5.68-.3,1.95-.53,3.9-.71,5.86-.27,3.16-.36,6.33-.35,9.5-1.92-2.26-3.85-4.51-5.86-6.7-2.49-2.77-5.01-5.53-7.66-8.17Z"/>
    <path d="M297.55,259.93c2,2.56,4.07,5.06,6.16,7.55l.02.06h.03s.1.11.14.16l1.61,1.91-.15-2.47c-.21-3.38-.33-6.78-.42-10.17-.03-1.7-.05-3.39-.01-5.09.02-1.7.13-3.39.52-5.06-.75,1.56-1.03,3.3-1.31,4.99-.23,1.71-.39,3.42-.47,5.14-.09,1.74-.12,3.48-.1,5.22l-5.85-16.31,4.97,17.91c-1.36-1.57-2.72-3.13-4.12-4.66-1.12-1.24-2.27-2.47-3.43-3.68-1.19-1.19-2.33-2.42-3.56-3.58.93,1.4,1.95,2.73,2.92,4.09,1.01,1.34,2.02,2.67,3.06,3.98Z"/>
    <path d="M325.91,521.93c2.12-1.23,4.36-2.26,6.79-2.84-.74.07-1.47.21-2.19.38-1.71.41-3.37,1.05-4.97,1.77-2.26,1.07-4.4,2.36-6.49,3.73-3.33,2.21-6.42,4.69-9.38,7.36,1.05-3.62,2.07-7.24,3.02-10.88l1.78-6.89c.53-2.31,1.12-4.61,1.61-6.93-.85,2.22-1.6,4.48-2.4,6.71l-2.23,6.76c-1.48,4.51-2.84,9.05-4.18,13.6l-.89,3,2.27-2.2c1.42-1.38,2.89-2.71,4.39-4.03,2.18-1.9,4.43-3.74,6.73-5.49,1.96-1.46,3.99-2.83,6.12-4.03Z"/>
    <path d="M323.91,495.51c-1.59,4.36-3.01,8.76-4.41,13.17-1.41,4.41-2.7,8.85-3.99,13.29l-.85,2.95,2.24-2.16c3.35-3.23,6.92-6.31,10.64-9.14,1.86-1.43,3.79-2.77,5.83-3.93,2.01-1.2,4.14-2.25,6.45-2.83-2.4.22-4.66,1.14-6.84,2.13-2.16,1.04-4.21,2.29-6.19,3.62-2,1.31-3.88,2.78-5.73,4.27-1.08.9-2.14,1.82-3.18,2.75.98-3.53,1.95-7.06,2.84-10.61,1.14-4.48,2.25-8.97,3.19-13.51Z"/>
    <path d="M346.95,494.62c-2.27.33-4.4,1.26-6.43,2.28-2.04,1.03-3.98,2.23-5.86,3.52-3.03,2.07-5.91,4.32-8.69,6.72l5.75-23.74-7.97,25.86-.88,2.86,2.27-2.08h0c3.12-3.18,6.46-6.22,10.01-8.97,1.77-1.38,3.62-2.68,5.57-3.81,1.95-1.12,3.99-2.17,6.23-2.63Z"/>
    <path d="M342.27,487.88c-2.82,1.94-5.45,4.09-7.98,6.37.87-3.35,1.72-6.7,2.5-10.08l1.46-6.42c.43-2.16.91-4.3,1.29-6.46-.75,2.07-1.39,4.18-2.08,6.26l-1.91,6.31c-1.27,4.21-2.42,8.44-3.55,12.68l-.77,2.86,2.16-2.09c3.06-2.96,6.31-5.79,9.65-8.45,1.67-1.34,3.42-2.59,5.24-3.71,1.8-1.15,3.7-2.2,5.81-2.77-2.19.22-4.24,1.15-6.21,2.09-1.95,1.01-3.81,2.17-5.6,3.41Z"/>
    <path d="M350.01,475.52c-2.65,1.85-5.13,3.89-7.52,6.04.81-3.26,1.61-6.53,2.33-9.81l1.36-6.27c.39-2.1.84-4.19,1.18-6.31-.71,2.02-1.32,4.08-1.98,6.11l-1.81,6.16c-1.2,4.11-2.28,8.24-3.34,12.38l-.72,2.8,2.1-2.04c2.91-2.82,6-5.52,9.16-8.1,1.58-1.3,3.23-2.5,4.94-3.61,1.7-1.13,3.48-2.16,5.48-2.74-2.09.24-4.03,1.15-5.89,2.07-1.84.99-3.6,2.11-5.3,3.3Z"/>
    <path d="M357.76,463.16c-2.48,1.76-4.81,3.68-7.07,5.71.76-3.17,1.5-6.35,2.16-9.55l1.25-6.11c.36-2.05.77-4.09,1.07-6.15-.68,1.98-1.25,3.98-1.88,5.96l-1.7,6c-1.12,4.01-2.14,8.04-3.12,12.08l-.67,2.75,2.05-1.99c2.77-2.68,5.7-5.26,8.67-7.75,1.49-1.25,3.05-2.41,4.65-3.5,1.59-1.11,3.27-2.12,5.15-2.72-1.98.26-3.82,1.15-5.57,2.06-1.73.96-3.4,2.05-5,3.19Z"/>
    <path d="M365.5,450.8c-2.33,1.68-4.5,3.53-6.63,5.45.71-3.11,1.4-6.22,2.01-9.35l1.14-5.96c.32-2,.69-3.98.96-5.99-.65,1.93-1.19,3.88-1.78,5.81l-1.6,5.85c-1.05,3.91-1.99,7.83-2.9,11.77l-.62,2.69,2-1.94c2.63-2.55,5.39-5,8.18-7.4,1.4-1.2,2.86-2.32,4.36-3.39,1.49-1.09,3.05-2.07,4.82-2.69-1.87.28-3.6,1.16-5.24,2.05-1.63.94-3.19,1.99-4.7,3.08Z"/>
    <path d="M373.25,438.45c-2.16,1.59-4.19,3.32-6.18,5.11.65-3.02,1.28-6.04,1.85-9.08l1.03-5.8c.29-1.95.62-3.88.85-5.84-.61,1.88-1.12,3.77-1.68,5.66l-1.5,5.7c-.97,3.81-1.85,7.63-2.68,11.47l-.57,2.62,1.95-1.88c2.49-2.41,5.09-4.74,7.7-7.04,1.31-1.14,2.67-2.23,4.07-3.27,1.39-1.05,2.83-2.03,4.49-2.67-1.76.31-3.37,1.19-4.91,2.05-1.53.91-2.98,1.93-4.41,2.97Z"/>
    <path d="M380.99,426.08c-2,1.49-3.87,3.11-5.71,4.78.59-2.93,1.16-5.86,1.66-8.8l.93-5.64c.25-1.89.55-3.77.75-5.68-.57,1.83-1.04,3.68-1.56,5.52l-1.39,5.55c-.91,3.7-1.72,7.43-2.49,11.16l-.54,2.6,1.93-1.86c2.35-2.27,4.79-4.48,7.23-6.68,1.22-1.1,2.48-2.15,3.77-3.16,1.28-1.02,2.6-2.01,4.13-2.66-1.67.31-3.14,1.21-4.59,2.03-1.42.89-2.78,1.86-4.12,2.85Z"/>
    <path d="M361.47,305.3c.04-1.52-.02-3.06.17-4.57-.49,1.47-.59,3.01-.84,4.52-.23,1.52-.35,3.04-.52,4.56-.33,3.04-.57,6.09-.75,9.14l-.11,1.79,1.43-1.15c3.48-2.81,6.99-5.61,10.51-8.38,1.76-1.39,3.52-2.78,5.33-4.1,1.8-1.33,3.61-2.65,5.6-3.73-2.16.72-4.17,1.85-6.11,3-1.92,1.2-3.82,2.43-5.68,3.72-3.21,2.28-6.3,4.69-9.33,7.19.09-2.47.17-4.94.21-7.41.02-1.53.1-3.05.09-4.58Z"/>
    <path d="M368.02,296.23c.18-1.37.23-2.78.69-4.08-.43.57-.6,1.28-.82,1.94-.2.67-.38,1.35-.56,2.02-.35,1.35-.64,2.72-.92,4.08-.54,2.73-1,5.47-1.39,8.23l-.32,2.34,1.71-1.69c2.7-2.67,5.4-5.36,8.15-7.99,1.37-1.32,2.76-2.62,4.17-3.89,1.42-1.26,2.85-2.52,4.52-3.49-1.85.61-3.48,1.73-5.08,2.81-1.58,1.12-3.08,2.33-4.56,3.56-2.33,2.01-4.56,4.11-6.72,6.28l.69-5.98.44-4.13Z"/>
    <path d="M374.64,287.15c.31-1.22.53-2.48,1.14-3.59-.91.95-1.31,2.22-1.84,3.37-.49,1.18-.92,2.38-1.31,3.59-.8,2.42-1.49,4.86-2.1,7.33l-.93,3.78,2.38-3.14c1.91-2.52,3.83-5.06,5.79-7.54.98-1.24,1.97-2.48,3-3.68,1.04-1.2,2.07-2.4,3.42-3.28-1.55.54-2.81,1.66-4.05,2.69-1.22,1.07-2.33,2.24-3.43,3.42-1.32,1.46-2.57,2.97-3.78,4.5l.86-3.76.84-3.69Z"/>
    <path d="M384.93,267.62c.13-.53.28-1.05.44-1.57.2-.5.31-1.07.73-1.43-.48.32-.67.88-.93,1.36-.23.5-.44,1.01-.64,1.53-.39,1.03-.76,2.07-1.1,3.11-.61,1.85-1.16,3.71-1.71,5.58-.38.51-.72,1.06-1.08,1.58-.62,1.01-1.19,2.04-1.72,3.09-1.07,2.09-2.01,4.24-2.88,6.41l1.51.63,1.96-3.93-.04.14,3.54-6.6c.45-.83.93-1.65,1.39-2.48.22-.26.46-.51.73-.73-.15.05-.3.12-.44.2.51-.9.99-1.81,1.52-2.7.56-.94,1.13-1.87,1.72-2.79.61-.91,1.21-1.82,1.97-2.62-.86.7-1.58,1.55-2.3,2.38-.71.84-1.4,1.71-2.08,2.57-.63.81-1.22,1.64-1.82,2.46.17-1,.32-2.01.52-3.01.21-1.07.44-2.14.7-3.19Z"/>
    <path d="M388.09,260.73c-.25-1.94-.55-3.88-1.03-5.81-.23,1.97-.28,3.93-.28,5.89,0,1.96.08,3.91.21,5.86l.12,1.81,1.3-1.3c2.99-2.99,5.86-6.08,8.59-9.36-1.82,1.15-3.48,2.51-5.09,3.9-1.17,1-2.29,2.04-3.4,3.1-.11-1.37-.23-2.73-.41-4.1Z"/>
    <path d="M313.19,25.94c2.12,4.6,4.32,9.16,6.56,13.7,2.2,4.56,4.55,9.05,6.82,13.58l.85,1.7.28-1.88c.9-6.08,1.66-12.18,2.48-18.27.74-6.1,1.48-12.2,2.06-18.32-1.13,6.05-2.1,12.12-3.07,18.19-.66,4.47-1.33,8.94-1.96,13.41l-10.85-41.03,9.54,42.33c-1.76-3.38-3.51-6.75-5.35-10.09-2.4-4.46-4.83-8.91-7.35-13.31ZM326.79,50.87c0,.06-.02.11-.02.17-.03-.05-.05-.1-.08-.14l.1-.02Z"/>
    <path d="M353.68,364.31c-.14,1.59,1.85,2.39,2.67,1.07,3.3-5.29,10.39-21.94,22.11-29.04,18.76-11.37,13.71-16.17,7.51-17.22-5.37-1.01-29.18,9.77-32.29,45.2Z"/>
    <path d="M355.65,329.89c4.13-2.89,8.31-5.74,12.49-8.59,2.14-1.46,4.31-2.89,6.5-4.28,2.17-1.43,4.38-2.77,6.71-3.96-2.48.84-4.81,2.07-7.13,3.27-2.29,1.26-4.54,2.57-6.78,3.92-4.03,2.43-7.94,5.03-11.8,7.69-.06-2.86-.13-5.71-.3-8.57-.17-3.36-.38-6.72-.76-10.07-.29,3.36-.41,6.73-.5,10.09-.11,3.35-.09,6.7-.07,10.05h0c-.02.63-1.57,48.72-21.92,119.07-2.86,9.89-6.09,20.22-9.74,30.92-3.99,11.69-8.48,23.83-13.54,36.32,1.75-18.16-2.58-54.74-19.08-93.03-1.17-2.71-2.41-5.43-3.7-8.15-3.75-7.9-8.03-15.83-12.9-23.63.48-.42.81-1.05.68-1.7-1.17-5.79-2.93-10.53-5.04-14.39-.03-.23-.08-.46-.1-.7-.4-2.76-.41-5.56-.16-8.32.21-2.77.79-5.5,1.61-8.18.84-2.67,1.88-5.3,3.27-7.82-1.92,2.16-3.41,4.71-4.49,7.4-1.1,2.69-1.79,5.55-2.04,8.45-.16,2.06-.15,4.15.1,6.2-4.59-6.8-10.34-10.28-15.47-11.8-13.4-17.17-24.19-27.52-31.01-33.24l-.24-.82c-.92-3.19-1.7-6.46-2.39-9.71-.34-1.63-.61-3.28-.74-4.93-.13-1.63-.27-3.37.58-4.85-.6.62-.9,1.48-1.08,2.31-.18.84-.26,1.7-.3,2.55-.04,1.71.1,3.41.29,5.1.27,2.3,1.29,7.15,1.82,9.4-1.56-1.7-13-6.09-18.81-7.01,6.27,3.23,11.71,3.96,17.89,8.3s16.94,13.96,31.41,32.28c-4.28-.79-7.83-.25-9.39.68-5.4,3.14-9.4,9.04,8.28,12.45,11.48,2.21,19.75,14.75,23.45,18.48,19.48,30.92,29.12,62.47,33.33,87.06-7.4-31.03-24.74-45.15-31.08-45.99-3.9-1.87-23.08,11.42,2.57,38.25,19.2,20.09,28.02,41.59,30.6,48.77-.05.33-.11.68-.17.98-.18.89-.43,1.88-.73,2.93-.15.36-.3.71-.45,1.07l.11.05c-1.39,4.49-3.69,10.15-6.43,16.21,2.64-11.48,6.06-32.74-2.22-41.01-9.51-9.49-17.58-9.17-19.64-5.82-1.31,2.13-3.45,5.48-3.79,8.86-.19,1.92.19,3.85,1.65,5.57,1.46,1.72,3.26,2.36,5.03,2.62,2.56.38,5.04-.04,6.31.87,2.05,1.47,8.68,13.33,10.46,33.7-2.7,5.73-5.64,11.61-8.43,17.02-2.24,4.35-4.38,8.39-6.22,11.81-3.33,6.2-5.66,10.36-5.74,10.5-.22.39-.08.89.33,1.1.13.07.26.1.4.1.29,0,.58-.15.73-.42.34-.6,3.07-5.46,6.76-12.36,2.6-4.86,5.68-10.74,8.75-16.87,5.82-11.64,11.59-24.18,13.97-32.47,9.65-23.1,17.38-45.08,23.56-65.4,4.46-14.64,8.11-28.41,11.12-41.1,11.8-49.93,13.45-83.24,13.6-87.23Z"/>
    <path d="M252.5,325.54c.19,1.2.61,2.35.94,3.52.34,1.16.71,2.32,1.08,3.47-.89-4.76-1.77-9.48-1.81-14.27-.2-4.77.21-9.54,1.08-14.22.81-4.7,2.2-9.29,3.99-13.74.89-2.23,1.91-4.41,3.03-6.54,1.1-2.15,2.34-4.22,3.71-6.24-3.27,3.64-5.83,7.86-7.9,12.28-2.1,4.42-3.58,9.12-4.45,13.93l-.34,1.8-.2,1.82c-.11,1.22-.32,2.42-.34,3.65-.03,2.44-.16,4.88.16,7.31.12,2.44.62,4.83,1.06,7.22Z"/>
    <path d="M264.09,395.47c-1.04-.55-2.04-1.19-3.12-1.66l-3.25-1.42c-1.09-.45-2.25-.73-3.37-1.1l-1.69-.52-1.75-.32c-4.62-1.09-9.41-.94-14.03-.43,1.17.06,2.34.11,3.5.13l1.74.05c.58.02,1.15.15,1.72.22l3.43.44c1.13.22,2.24.54,3.35.8,4.42,1.17,8.72,2.85,12.63,5.21,3.95,2.27,7.61,5.04,10.98,8.12,1.68,1.55,3.3,3.17,4.81,4.89,1.57,1.67,2.99,3.48,4.36,5.33-2.15-4.07-5.04-7.75-8.27-11.1-3.23-3.35-6.98-6.25-11.04-8.63Z"/>
    <path d="M352.51,311.6c-.28-4.22-1.24-8.39-2.74-12.37-.7-2.01-1.74-3.89-2.69-5.79-1.2-1.77-2.21-3.66-3.68-5.23-.71-.8-1.32-1.67-2.1-2.41l-2.31-2.21c-.75-.75-1.64-1.35-2.5-1.98-.86-.63-1.72-1.25-2.59-1.85,3.08,2.9,6.16,5.75,8.49,9.2,1.28,1.63,2.24,3.46,3.32,5.22.87,1.86,1.87,3.67,2.51,5.62,1.48,3.83,2.45,7.85,3.03,11.93l.34,3.08c.05,1.03.15,2.06.15,3.1.11,2.07.03,4.15-.13,6.23,1-4.08,1.19-8.33.91-12.54Z"/>
    <path d="M355.83,297.02c-.49-4.64-1.66-9.22-3.36-13.59-.79-2.21-1.93-4.28-2.98-6.39-1.3-1.97-2.39-4.06-3.97-5.84-.76-.91-1.43-1.87-2.25-2.72l-2.47-2.52c-.8-.86-1.75-1.57-2.67-2.3-.92-.74-1.84-1.46-2.77-2.17,3.31,3.31,6.61,6.58,9.13,10.44,1.39,1.84,2.44,3.88,3.62,5.84.97,2.07,2.07,4.08,2.81,6.24,1.69,4.24,2.87,8.67,3.65,13.18l.49,3.4c.1,1.14.24,2.28.3,3.43.2,2.29.22,4.59.14,6.9.83-4.57.82-9.27.33-13.9Z"/>
    <path d="M269.2,405.25c-.87-.46-1.69-.99-2.6-1.38l-2.7-1.19c-.91-.37-1.87-.62-2.8-.93l-1.4-.45-1.45-.28c-3.83-.94-7.82-.89-11.67-.53.97.09,1.94.17,2.9.23.96.05,1.92.12,2.86.33l2.83.45c.93.21,1.84.49,2.76.73,3.65,1.05,7.18,2.47,10.42,4.42,3.28,1.87,6.33,4.14,9.18,6.63,1.42,1.26,2.79,2.58,4.07,3.97,1.35,1.35,2.55,2.82,3.75,4.32-1.8-3.38-4.23-6.42-6.94-9.19-2.71-2.77-5.84-5.16-9.22-7.14Z"/>
    <path d="M275.57,414.8c-3.13-1.8-6.73-2.83-10.33-3.02-.9,0-1.81-.11-2.7-.04l-2.68.3c-.89.07-1.75.36-2.6.61-.86.24-1.7.5-2.54.77.89-.1,1.76-.21,2.62-.35.87-.12,1.72-.29,2.6-.24l2.6-.07c.86,0,1.72.18,2.57.26,3.38.47,6.71,1.46,9.64,3.19,2.98,1.64,5.66,3.8,8.09,6.22,1.22,1.21,2.37,2.5,3.42,3.86,1.12,1.32,2.1,2.74,3.05,4.2-1.29-3.24-3.24-6.2-5.53-8.9-2.29-2.7-5.08-5.02-8.22-6.8Z"/>
    <path d="M255.36,308.61l-.33,1.81-.2,1.83c-.11,1.22-.32,2.43-.34,3.65-.03,2.45-.17,4.89.15,7.33.12,2.44.61,4.84,1.04,7.23.19,1.2.6,2.36.93,3.53.34,1.17.7,2.33,1.07,3.48-.87-4.77-1.74-9.51-1.76-14.31-.19-4.78.23-9.57,1.09-14.26.8-4.71,2.2-9.31,3.97-13.77.88-2.23,1.9-4.42,3.01-6.56,1.09-2.15,2.33-4.24,3.69-6.26-3.26,3.66-5.81,7.9-7.87,12.34-2.09,4.43-3.57,9.15-4.43,13.97Z"/>
    <path d="M260.12,317.28c-1.08,3.43-1.9,6.96-2.1,10.54-.19,1.78-.14,3.58-.13,5.36.06,1.42.24,2.82.42,4.23-.09.8-.16,1.6-.25,2.39-.11,1.77-.05,3.55,0,5.3.53-3.5.99-6.96,1.94-10.32.85-3.37,2.06-6.64,3.48-9.81,1.38-3.19,3.15-6.2,5.07-9.13,1.95-2.91,4.14-5.67,6.63-8.22-1.49,1-2.81,2.23-4.12,3.46-1.25,1.29-2.44,2.63-3.55,4.04-2.22,2.82-4.09,5.92-5.55,9.19-1.43,3.28-2.63,6.68-3.21,10.2-.07.32-.12.65-.18.97.11-2.53.28-5.04.71-7.53.5-3.46,1.33-6.87,2.41-10.19,1.03-3.34,2.46-6.55,4.04-9.69,1.61-3.13,3.47-6.14,5.64-8.98-1.37,1.18-2.53,2.56-3.69,3.94-1.09,1.43-2.12,2.91-3.07,4.44-1.89,3.07-3.4,6.37-4.51,9.79Z"/>
    <path d="M272.47,319.56c-1.25,1.29-2.45,2.63-3.56,4.04-2.23,2.82-4.1,5.92-5.57,9.19-1.43,3.28-2.63,6.68-3.21,10.21-.38,1.74-.51,3.52-.69,5.29-.11,1.77-.05,3.55,0,5.31.53-3.5.99-6.96,1.94-10.32.85-3.38,2.06-6.65,3.48-9.82,1.38-3.19,3.16-6.2,5.09-9.12,1.95-2.91,4.15-5.67,6.66-8.21-1.5.99-2.82,2.22-4.13,3.45Z"/>
    <path d="M268.22,339.19c-1.93,2.1-3.55,4.5-4.73,7.1-1.14,2.6-2.04,5.34-2.31,8.16-.25,1.39-.18,2.81-.22,4.21.06,1.4.24,2.8.44,4.17.22-2.79.45-5.52,1.06-8.17.51-2.67,1.44-5.24,2.54-7.7,1.09-2.48,2.56-4.79,4.21-6.97,1.68-2.16,3.55-4.21,5.73-6-2.54,1.27-4.81,3.09-6.72,5.2Z"/>
    <path d="M136.79,320.85c-.25-.18-3.86,2.78-4.66,3.36-1.52,1.17-3,2.36-4.39,3.67-2.74,2.59-5.56,5.31-7.2,8.73,1.08-1.54,2.39-2.88,3.78-4.14,1.36-1.28,2.79-2.5,4.26-3.66,1.35-1.04,2.69-2.1,4.08-3.08-1.77,2.98-3.4,6-4.94,9.07-1.68,3.35-3.3,6.73-4.74,10.19,2.05-3.16,3.96-6.39,5.86-9.61,1.93-3.2,3.38-6.56,5.33-9.71,0,0,2.75-4.74,2.61-4.85Z"/>
    <path d="M355.86,202.19c1.4,5.99,1.95,12.2,2.14,18.32v.03c.01.37.3.7.69.75.43.06.84-.24.89-.67.91-6.56,1.91-13.1,2.71-19.68.86-6.57,1.66-13.14,2.34-19.73-1.27,6.51-2.41,13.03-3.49,19.56-.71,4.06-1.35,8.14-1.98,12.22-.07-.63-.14-1.25-.22-1.88-.4-3.11-.95-6.2-1.74-9.25-.84-3.03-1.89-6.02-3.35-8.83-1.48-2.78-3.41-5.43-6.02-7.25,2.35,2.12,4,4.79,5.23,7.61,1.26,2.81,2.13,5.78,2.79,8.79Z"/>
  </g>
  <g>
    <path d="M138.52,332.13c2.03-3.29,3.89-6.65,5.72-10.03,1.86-3.37,3.59-6.8,5.32-10.24l1.1-2.18-2.3,1c-3.79,1.66-7.64,3.24-11.49,4.78-1.93.78-3.87,1.5-5.85,2.16-1.96.7-3.96,1.29-6.06,1.59,2.16.1,4.28-.34,6.35-.76,2.06-.51,4.09-1.09,6.1-1.72,3.24-1.04,6.41-2.24,9.53-3.54-1.34,2.75-2.66,5.51-3.9,8.31-1.58,3.51-3.13,7.03-4.52,10.63Z"/>
    <path d="M146.27,324.45c2.21-3.23,4.27-6.55,6.29-9.88,2.05-3.32,3.97-6.7,5.89-10.09l1.22-2.15-2.36.96c-3.9,1.59-7.86,3.09-11.81,4.57-1.98.74-3.98,1.43-6,2.05-2.01.67-4.05,1.22-6.18,1.48,2.16.14,4.32-.27,6.43-.66,2.1-.47,4.17-1.01,6.23-1.61,3.32-.98,6.56-2.12,9.77-3.37-1.49,2.71-2.97,5.43-4.36,8.2-1.78,3.46-3.52,6.94-5.11,10.5Z"/>
    <path d="M152.82,316.34c3.21-2.38,6.3-4.89,9.36-7.42,3.08-2.51,6.07-5.13,9.05-7.74l1.89-1.66-2.57.19c-4.23.31-8.5.52-12.75.71-2.13.1-4.25.14-6.38.1-2.13.02-4.25-.08-6.36-.49,2,.79,4.18,1.07,6.31,1.34,2.15.2,4.3.32,6.45.38,3.48.09,6.94,0,10.41-.2-2.35,2.11-4.68,4.23-6.96,6.42-2.88,2.73-5.73,5.48-8.45,8.37Z"/>
    <path d="M161.82,310.68c3.86-1.27,7.64-2.7,11.41-4.16,3.78-1.44,7.51-2.99,11.23-4.55l2.36-.99-2.49-.61c-4.11-1-8.22-2.1-12.3-3.23-2.04-.56-4.07-1.17-6.07-1.85-2.02-.64-3.99-1.38-5.85-2.4,1.62,1.36,3.58,2.29,5.5,3.2,1.96.84,3.95,1.61,5.96,2.33,3.26,1.14,6.56,2.12,9.91,2.99-2.95,1.28-5.89,2.57-8.79,3.95-3.66,1.7-7.31,3.44-10.88,5.33Z"/>
    <path d="M172.36,307.7c3.91-.02,7.81-.21,11.7-.43,3.9-.19,7.78-.51,11.67-.84l2.47-.21-2.05-1.28c-3.39-2.11-6.74-4.3-10.07-6.52-1.67-1.1-3.3-2.25-4.88-3.45-1.62-1.17-3.16-2.41-4.5-3.88,1.02,1.7,2.49,3.12,3.92,4.5,1.5,1.34,3.05,2.61,4.63,3.85,2.57,1.99,5.24,3.84,7.98,5.6-3.09.3-6.18.6-9.26,1-3.87.47-7.75.97-11.61,1.64Z"/>
    <path d="M183.38,308.33c3.63,1.15,7.3,2.14,10.98,3.11,3.67.99,7.38,1.85,11.09,2.72l2.35.55-1.47-1.8c-2.43-2.97-4.79-6-7.12-9.05-1.17-1.52-2.29-3.07-3.36-4.66-1.1-1.56-2.11-3.18-2.85-4.94.37,1.88,1.25,3.63,2.11,5.34.93,1.68,1.94,3.33,2.98,4.95,1.71,2.61,3.56,5.12,5.5,7.58-2.96-.65-5.92-1.29-8.91-1.85-3.75-.72-7.5-1.42-11.3-1.95Z"/>
  </g>
  <path d="M191.48,312.89c3.85,1.56,7.68,3.12,11.5,4.67,3.86,1.59,7.76,3.15,11.68,4.69l2.48.98-1.49-2.22c-2.45-3.66-4.84-7.39-7.28-11.11-1.23-1.85-2.41-3.74-3.57-5.64-1.19-1.9-2.33-3.82-3.2-5.88.46,2.15,1.47,4.2,2.4,6.23,1.02,1.99,2.07,3.97,3.17,5.91,1.77,3.14,3.65,6.19,5.61,9.21-3.12-1.19-6.26-2.35-9.41-3.39-3.96-1.32-7.91-2.54-11.89-3.45Z"/>
  <path d="M135.26,334.83c-.03-2.64.47-5.53,1.67-8.47,1.21-2.93,3-5.88,5.23-8.66.48-.57.95-1.19,1.47-1.75-.75.17-1.47.4-2.23.61-3.67,1.09-7.38,2.6-10.91,4.91-.87.59-1.72,1.24-2.61,1.87-.84.71-1.68,1.43-2.52,2.14-.8.81-1.59,1.62-2.39,2.42-.75.85-1.53,1.69-2.35,2.53.9-.65,1.75-1.39,2.57-2.13.83-.74,1.73-1.44,2.55-2.12.83-.71,1.75-1.31,2.58-1.94.86-.61,1.78-1.13,2.64-1.67,2.88-1.66,5.78-2.91,8.69-3.91-1.61,2.37-2.97,4.79-3.74,7.3-1.02,3.11-1.26,6.19-.66,8.88Z"/>
  <g id="black1" data-name="black">
    <path d="M287.32,522.53c-2.48-4.58-4.9-8.51-7.27-11.88-1.76-.26-3.56-.9-5.03-2.62-1.46-1.72-1.84-3.65-1.65-5.57-13.04-13.4-24.02-9.42-31.95.76-10.48,13.46,11.55,33.64,27.05,44.61,15.89,11.24,10.7,29.54,10.7,29.54,1.1-1.06,2.08-2.17,3-3.32,1.84-3.42,3.97-7.46,6.22-11.81,5.95-18.51-1.08-39.71-1.08-39.71Z"/>
    <path d="M339.82,539.5c5.37-7.79,13.87-21.87,12.69-23.86-.72-1.22-8.62.89-16.29,3.83.81-.17,1.63-.31,2.46-.38-2.72.58-5.25,1.61-7.63,2.84-2.4,1.2-4.69,2.57-6.89,4.03-2.6,1.74-5.12,3.58-7.57,5.49-6.18,5.72-14.44,14.46-22.11,24.64-3.45,6.14-6.91,12.01-9.84,16.87,9.26-5.48,46.35-20.66,55.17-33.47Z"/>
    <path d="M404.35,331.98c-2.77-2.25-19.91,5.83-28.06,17.22-5.56,7.77-21.63,36.9-33.42,67.93-3.22,12.7-7.15,26.47-11.94,41.1-.02.13-.05.26-.07.39,0,0,69.9-83.22,75.11-97.55,5.81-15.97,1.16-26.84-1.62-29.1Z"/>
    <path d="M318.19,381.01c-3.38-3.16-23.39,4.02-5.7,38.38,13.8,26.82,10.92,53.22,9.86,60.05,3.65-10.7,6.88-21.03,9.74-30.92,6.59-38.06-7.11-64.19-13.9-67.51Z"/>
    <path d="M290.13,420.81c.18-7.02,2.8-21.89,12.79-42.7,12.51-26.05-5.49-26.72-11.34-21.98-11.9,10.18-15.62,27.2-5.55,58.45,1.29,2.72,2.53,5.44,3.7,8.15.22-.43.38-1.15.4-1.92Z"/>
    <path d="M248.64,351.57c1.02.9.97-.57.36-1.88-2.42-5.18-6-17.19-6.63-36.83-.78-24.18-13.2-16.22-15.52-10.14-4.93,13.91-.48,29.09,21.78,48.85Z"/>
  </g>
</svg>