<?xml version="1.0" encoding="UTF-8"?>
<svg id="Vector_01" xmlns="http://www.w3.org/2000/svg" version="1.1" viewBox="0 0 405.28 568.28">
  <!-- Generator: Adobe Illustrator 30.1.0, SVG Export Plug-In . SVG Version: 2.1.1 Build 136)  -->
  <defs>
    <style>
      .st0 {
        display: none;
        fill: #7d7d7d;
      }
    </style>
  </defs>
  <circle class="st0" cx="174.02" cy="265.47" r="16.44"/>
  <path d="M163.43,250.51c13.64,5.32,29-1.42,34.32-15.06s-1.42-29-15.06-34.32c-3.21-1.25-6.52-1.82-9.78-1.8,2.84-1.58,5.45-3.69,7.64-6.36,9.27-11.32,7.61-28.02-3.71-37.29-11.32-9.27-28.02-7.61-37.29,3.71-2.19,2.67-3.74,5.64-4.73,8.74-.62-3.19-1.83-6.33-3.69-9.23-7.9-12.32-24.3-15.9-36.62-7.99-12.32,7.9-15.9,24.3-7.99,36.62,1.86,2.9,4.21,5.3,6.85,7.2-3.23-.39-6.58-.22-9.92.66-14.16,3.71-22.63,18.2-18.92,32.36,3.71,14.16,18.2,22.63,32.36,18.92,3.34-.87,6.34-2.37,8.96-4.29-1.37,2.95-2.24,6.19-2.44,9.64-.85,14.61,10.31,27.14,24.93,27.99,14.61.85,27.14-10.31,27.99-24.93.2-3.44-.29-6.76-1.31-9.85,2.38,2.22,5.2,4.04,8.41,5.3ZM119.56,225.63c-8.66-7.09-9.93-19.86-2.84-28.52,7.09-8.66,19.86-9.93,28.52-2.84,8.66,7.09,9.93,19.86,2.84,28.52-7.09,8.66-19.86,9.93-28.52,2.84Z"/>
  <circle class="st0" cx="70.75" cy="208.99" r="16.44"/>
  <circle class="st0" cx="260.84" cy="336.75" r="16.44"/>
  <path d="M190.57,386.26c13.64,5.32,29-1.42,34.32-15.06,5.32-13.64-1.42-29-15.06-34.32-3.21-1.25-6.52-1.82-9.78-1.8,2.84-1.58,5.45-3.69,7.64-6.36,9.27-11.32,7.61-28.02-3.71-37.29-11.32-9.27-28.02-7.61-37.29,3.71-2.19,2.67-3.74,5.64-4.73,8.74-.62-3.19-1.83-6.33-3.69-9.23-7.9-12.32-24.3-15.9-36.62-7.99-12.32,7.9-15.9,24.3-7.99,36.62,1.86,2.9,4.21,5.3,6.85,7.2-3.23-.39-6.58-.22-9.92.66-14.16,3.71-22.63,18.2-18.92,32.36,3.71,14.16,18.2,22.63,32.36,18.92,3.34-.87,6.34-2.37,8.96-4.29-1.37,2.95-2.24,6.19-2.44,9.64-.85,14.61,10.31,27.14,24.93,27.99,14.61.85,27.14-10.31,27.99-24.93.2-3.44-.29-6.76-1.31-9.85,2.38,2.22,5.2,4.04,8.41,5.3ZM146.69,361.38c-8.66-7.09-9.93-19.86-2.84-28.52s19.86-9.93,28.52-2.84,9.93,19.86,2.84,28.52-19.86,9.93-28.52,2.84Z"/>
  <path d="M350.06,303.38s-37.07-16.25-72.61,5.02c-35.55,21.27-22.29,54.29-16.04,61.42,21.95-24.34,54.64-51.97,88.65-66.44Z"/>
  <path d="M350.42,307.88c-34.01,14.47-66.71,42.09-88.65,66.44,6.25,7.13,33.12,21.07,57.48-1.29,24.36-22.37,25.47-55.71,31.18-65.14Z"/>
  <path d="M109.07,116.02c13.64,5.32,29-1.42,34.32-15.06,5.32-13.64-1.42-29-15.06-34.32-3.21-1.25-6.52-1.82-9.78-1.8,2.84-1.58,5.45-3.69,7.64-6.36,9.27-11.32,7.61-28.02-3.71-37.29s-28.02-7.61-37.29,3.71c-2.19,2.67-3.74,5.64-4.73,8.74-.62-3.19-1.83-6.33-3.69-9.23-7.9-12.32-24.3-15.9-36.62-7.99s-15.9,24.3-7.99,36.62c1.86,2.9,4.21,5.3,6.85,7.2-3.23-.39-6.58-.22-9.92.66-14.16,3.71-22.63,18.2-18.92,32.36,3.71,14.16,18.2,22.63,32.36,18.92,3.34-.87,6.34-2.37,8.96-4.29-1.37,2.95-2.24,6.19-2.44,9.64-.85,14.61,10.31,27.14,24.93,27.99,14.61.85,27.14-10.31,27.99-24.93.2-3.44-.29-6.76-1.31-9.85,2.38,2.22,5.2,4.04,8.41,5.3ZM65.2,91.15c-8.66-7.09-9.93-19.86-2.84-28.52s19.86-9.93,28.52-2.84c8.66,7.09,9.93,19.86,2.84,28.52-7.09,8.66-19.86,9.93-28.52,2.84Z"/>
  <circle class="st0" cx="277.28" cy="174.39" r="16.44"/>
  <circle class="st0" cx="165.97" cy="135.62" r="16.44"/>
  <path d="M257.14,120.4c13.64,5.32,29-1.42,34.32-15.06,5.32-13.64-1.42-29-15.06-34.32-3.21-1.25-6.52-1.82-9.78-1.8,2.84-1.58,5.45-3.69,7.64-6.36,9.27-11.32,7.61-28.02-3.71-37.29-11.32-9.27-28.02-7.61-37.29,3.71-2.19,2.67-3.74,5.64-4.73,8.74-.62-3.19-1.83-6.33-3.69-9.23-7.9-12.32-24.3-15.9-36.62-7.99-12.32,7.9-15.9,24.3-7.99,36.62,1.86,2.9,4.21,5.3,6.85,7.2-3.23-.39-6.58-.22-9.92.66-14.16,3.71-22.63,18.2-18.92,32.36,3.71,14.16,18.2,22.63,32.36,18.92,3.34-.87,6.34-2.37,8.96-4.29-1.37,2.95-2.24,6.19-2.44,9.64-.85,14.61,10.31,27.14,24.93,27.99,14.61.85,27.14-10.31,27.99-24.93.2-3.44-.29-6.76-1.31-9.85,2.38,2.22,5.2,4.04,8.41,5.3ZM213.27,95.53c-8.66-7.09-9.93-19.86-2.84-28.52,7.09-8.66,19.86-9.93,28.52-2.84,8.66,7.09,9.93,19.86,2.84,28.52-7.09,8.66-19.86,9.93-28.52,2.84Z"/>
  <path d="M151.3,544.87c21.04-26.63,39.09-56.52,56.67-85.66,19.16-31.77,37.35-61.89,56.7-82.27-1.21-.92-2.2-1.82-2.91-2.63-.44-.5-.91-1.14-1.4-1.88-3.97,4.17-7.88,8.74-11.75,13.61.47-6.19.65-13.78.85-22.75.79-35.34,1.91-84.58,23.69-118.95.33-2.91,1.11-5.66,2.29-8.19-1.97,1.45-4.17,2.65-6.56,3.53-23.71,36.5-24.88,89.01-25.65,123.47-.32,14.49-.61,27.28-2.47,33.24-2.39,3.3-4.77,6.69-7.15,10.18,9.66-53.02,10.06-102.24,1.09-146.48-2.97-14.68-6.97-28.82-11.97-42.38-3.06-15.49.67-39.69,4.29-63.2.25-1.64.51-3.29.76-4.94-1.86.3-3.78.41-5.73.3-.21-.01-.41-.05-.61-.07-.19,1.25-.39,2.5-.58,3.76-2.55,16.57-5.01,32.59-5.44,46.32-7.04-15.58-15.49-30.3-25.32-44.05-16.38-22.88-33.94-39.52-48.6-51.05-1.09,1.85-2.36,3.55-3.82,5.04,14.32,11.26,31.5,27.49,47.34,49.64,21.22,29.66,35.88,63.93,43.57,101.87,1.11,5.47,2.05,11.02,2.87,16.65-7.48-14.14-19.29-27.41-35.2-39.41-1.04,1.89-2.28,3.61-3.69,5.15,20.45,15.43,39.03,36.74,41.85,64.23,1.86,35.03-1.42,72.63-9.84,112.31h0c-7.27,11.37-14.55,23.42-21.97,35.72-5.09,8.44-10.23,16.95-15.46,25.42,12.67-34.4,13.16-66.8,1.64-95.94-2.49-1.19-4.72-2.71-6.65-4.51.79,2.38,1.25,4.89,1.33,7.49,12.13,30.9,9.75,65.43-7.21,103.17-9.96,22.16-23.22,41.05-33.49,53.92-5.13,6.3-13.31,16.8-18.83,22.61h4.01l3.54-.29c1.58-1.58,9.73-9.86,19.8-23Z"/>
  <path d="M333.01,244.29c13.64,5.32,29-1.42,34.32-15.06s-1.42-29-15.06-34.32c-3.21-1.25-6.52-1.82-9.78-1.8,2.84-1.58,5.45-3.69,7.64-6.36,9.27-11.32,7.61-28.02-3.71-37.29-11.32-9.27-28.02-7.61-37.29,3.71-2.19,2.67-3.74,5.64-4.73,8.74-.62-3.19-1.83-6.33-3.69-9.23-7.9-12.32-24.3-15.9-36.62-7.99-12.32,7.9-15.9,24.3-7.99,36.62,1.86,2.9,4.21,5.3,6.85,7.2-3.23-.39-6.58-.22-9.92.66-14.16,3.71-22.63,18.2-18.92,32.36,3.71,14.16,18.2,22.63,32.36,18.92,3.34-.87,6.34-2.37,8.96-4.29-1.37,2.95-2.24,6.19-2.44,9.64-.85,14.61,10.31,27.14,24.93,27.99,14.61.85,27.14-10.31,27.99-24.93.2-3.44-.29-6.76-1.31-9.85,2.38,2.22,5.2,4.04,8.41,5.3ZM289.13,219.41c-8.66-7.09-9.93-19.86-2.84-28.52s19.86-9.93,28.52-2.84,9.93,19.86,2.84,28.52-19.86,9.93-28.52,2.84Z"/>
  <path d="M310.86,146.42c6.22-6.02,14.82-8.47,22.97-7.05,16.92-22.05,38.77-44.54,62.63-59.59,0,0-39.19-10.11-70.88,16.57-21.14,17.8-19.99,37.27-14.72,50.07Z"/>
  <path d="M348.48,146.94c6.02,4.93,9.28,11.95,9.65,19.15,7.01-2.41,14.1-7.04,20.4-15.04,20.47-25.98,16.23-59.07,20.35-69.29-23.85,15.05-45.71,37.54-62.63,59.59,4.35.76,8.57,2.59,12.23,5.59Z"/>
</svg>