<?xml version="1.0" encoding="UTF-8"?>
<svg id="Layer_1" xmlns="http://www.w3.org/2000/svg" version="1.1" viewBox="0 0 432.91 600">
  <!-- Generator: Adobe Illustrator 30.1.0, SVG Export Plug-In . SVG Version: 2.1.1 Build 136)  -->
  <defs>
    <style>
      .st0 {
        fill: #fff;
      }
    </style>
  </defs>
  <g id="background">
    <path class="st0" d="M202.38,62.26c-8.25-5.42-17.85-5.38-21.43.09-3.59,5.46.2,14.29,8.45,19.71,8.25,5.41,17.85,5.38,21.43-.09,3.59-5.46-.2-14.29-8.45-19.71ZM180.23,50.23c.04.15.16.26.32.28l.21.02s.33.05.93.09c.61.03,1.51.12,2.62.12,2.23.03,5.35-.08,8.97-.49,1.82-.21,3.77-.5,5.8-.87s4.16-.8,6.32-1.36c1.1-.24,2.18-.55,3.29-.87,1.1-.29,2.22-.62,3.32-.99,1.37-.41,2.73-.88,4.1-1.37,3.88,9.95-1.84,17.27-2.1,17.6-.89,1.08-.72,2.68.36,3.56.48.39,1.04.59,1.61.59.66,0,1.33-.27,1.81-.78.35-.11.74-.23,1.16-.38,1.86-.64,4.42-1.65,7.39-3.05,2.95-1.39,6.3-3.14,9.76-5.21,3.48-2.05,7.02-4.44,10.47-6.96,3.44-2.54,6.79-5.21,9.79-7.9,3.01-2.68,5.69-5.33,7.9-7.75,2.22-2.41,3.95-4.57,5.11-6.15.6-.77,1.02-1.44,1.33-1.88.29-.43.45-.68.45-.68,0,0-.28.07-.79.22-.5.16-1.26.36-2.18.68-1.86.64-4.42,1.65-7.39,3.04s-6.3,3.15-9.76,5.23c-3.48,2.05-7.02,4.44-10.47,6.97-3.43,2.54-6.78,5.21-9.78,7.91-3.01,2.68-5.69,5.33-7.9,7.75-.59.63-1.12,1.25-1.64,1.85,1.42-4.04,2.23-9.79-.35-16.44,1.47-.59,2.92-1.17,4.35-1.84.54-.23,1.07-.47,1.6-.7.52-.25,1.04-.51,1.55-.76,1.03-.5,2.05-.98,3.03-1.51,1.99-1.03,3.87-2.11,5.64-3.17,1.77-1.07,3.41-2.15,4.91-3.19,1.49-1.04,2.85-2.06,4.03-3.02,1.18-.94,2.19-1.81,3.02-2.57.83-.73,1.44-1.4,1.88-1.81.42-.43.64-.7.64-.7l.14-.16c.09-.1.12-.24.07-.39,0,0,0,0,0-.02.3-.62.37-1.35.11-2.03-.5-1.31-1.97-1.98-3.28-1.48l-19.89,7.53,6.01-13.32c1.15-2.56.02-5.58-2.55-6.74-2.56-1.15-5.58,0-6.74,2.55l-7.69,17.06-8.17-21.58c-1-2.63-3.94-3.96-6.56-2.95-2.64,1-3.96,3.93-2.97,6.56l8.19,21.64-17.15-7.72c-2.56-1.15-5.58-.02-6.74,2.55-1.16,2.56-.02,5.58,2.54,6.74l13.33,6.01-19.89,7.53c-1.31.5-1.98,1.97-1.48,3.28.26.7.79,1.2,1.43,1.46v-.02h0ZM151.27,154.44c-1.26,0-2.53.4-3.6,1.22-2.62,1.99-3.12,5.71-1.12,8.33.37.49,5.57,7.07,17.44,12.08-.92.71-1.65,1.69-2.03,2.89-1,3.13.73,6.46,3.86,7.46.46.14,6.48,1.99,15.48,1.99,1.07,0,2.18-.02,3.34-.09-1.28,1.48-1.84,3.59-1.25,5.63.72,2.6,3.02,4.29,5.5,4.29.53,0,1.07-.08,1.61-.24.81-.24,4.83-1.51,9.37-3.96.77.45,1.55.85,2.28,1.21.36.18.72.36,1.08.55,2.75,1.42,5.3,2.49,7.74,3.25.22.38.51.84.78,1.42.16.33.32.66.5,1.03.15.39.3.79.48,1.21.2.42.33.88.49,1.37.14.48.33.98.47,1.49.23,1.04.58,2.18.72,3.39.09.6.22,1.22.27,1.86s.1,1.28.15,1.92c.02.33.07.66.07,1v1.01c-.02.68-.03,1.37-.03,2.05-.11,1.37-.26,2.74-.42,4.14-.28,1.38-.56,2.73-.83,4.04-.39,1.31-.77,2.59-1.14,3.78-.38,1.22-.9,2.29-1.3,3.36-.42,1.04-.8,2.02-1.26,2.81-.43.83-.8,1.53-1.11,2.13-.55,1.04-.89,1.71-.97,1.86,0,0,0,0,0,0h0c.13-.11.71-.58,1.63-1.3.53-.42,1.17-.94,1.91-1.53.77-.58,1.52-1.34,2.38-2.15.84-.84,1.82-1.69,2.74-2.72.9-1.05,1.87-2.17,2.85-3.32.91-1.23,1.82-2.53,2.77-3.89.84-1.4,1.69-2.86,2.5-4.37.36-.77.73-1.55,1.09-2.33l.53-1.17c.17-.39.3-.79.46-1.2.29-.81.6-1.62.88-2.41.27-.8.47-1.62.7-2.42.49-1.61.74-3.22,1.04-4.76.15-.77.21-1.53.3-2.28.1-.73.18-1.46.21-2.15.03-.71.08-1.38.11-2.02v-.53c1.97-.74,3.85-1.63,5.65-2.55.3-.16.62-.3.92-.47,1.15-.56,2.42-1.2,3.63-2,5.02,2.9,9.73,4.39,10.64,4.66.54.17,1.07.24,1.6.24,2.49,0,4.78-1.69,5.51-4.29.56-2.01.05-4.08-1.18-5.56h1.49c9,0,15.04-1.86,15.48-1.99,3.13-1,4.85-4.35,3.86-7.46-.41-1.34-1.27-2.4-2.35-3.13,11.49-4.98,16.55-11.37,16.9-11.85,1.99-2.62,1.49-6.34-1.12-8.33-1.07-.81-2.34-1.22-3.6-1.22-1.77,0-3.53.79-4.69,2.29-.21.26-1.93,2.3-5.57,4.71.63-.61,1.26-1.22,1.87-1.86,15.68-16.5,14.84-37.95,14.81-38.85-.17-3.51-3.14-6.19-6.64-6.05-3.51.16-6.21,3.13-6.07,6.63,0,.1.15,4.86-1.47,11.17,2.67-18.37-4.4-35.79-4.8-36.74-1.35-3.25-5.07-4.79-8.32-3.44-3.24,1.36-4.79,5.08-3.43,8.32.05.14,3.04,7.47,4.1,16.94-4.2-15.73-20.12-28.04-40.09-30.81-2.17-2.64-5.2-4.28-8.54-4.28s-6.38,1.64-8.55,4.28c-11.88,1.65-22.31,6.66-29.72,13.78l-.16.04s0,.03.03.09c-4.95,4.8-8.52,10.54-10.21,16.83,1.05-9.4,3.99-16.7,4.05-16.86,1.35-3.25-.2-6.96-3.44-8.32-3.24-1.35-6.96.2-8.32,3.44-.39.96-7.47,18.37-4.8,36.73-1.6-6.26-1.47-11-1.46-11.16.16-3.5-2.55-6.47-6.05-6.64-3.52-.16-6.49,2.54-6.66,6.05-.04.83-.74,18.84,11.14,34.54-.92-.55-1.98-.85-3.04-.85h-.07ZM234.71,62.26c-8.25,5.42-12.04,14.24-8.45,19.71,3.59,5.46,13.18,5.5,21.44.09,8.26-5.42,12.04-14.24,8.45-19.71-3.59-5.46-13.18-5.51-21.44-.09h0ZM174.13,226.86s22.38,21.66,28.72,31.92c6.11,9.91,10.89,29.42,11.73,32.98-2.12.17-4.15.6-6.08,1.26-2.5-7.72-11.69-32.07-29.95-38.57-20.18-7.16-29.16-.28-30.24,3.25-1.1,3.54-.22,7.85,4.38,11.19,4.61,3.34,24.41,10.81,24.41,10.81,0,0,8.01,2.93,13.26,7.65,4.24,3.8,8.32,8.73,9.76,10.52-5.26,4.6-8.59,11.35-8.59,18.87,0,12.37,9.02,22.68,20.83,24.7v43.99h8.5v-43.99c11.81-2.02,20.83-12.32,20.83-24.7,0-7.37-3.21-14-8.28-18.59,1.16-1.47,5.49-6.77,9.97-10.79,5.25-4.71,13.25-7.65,13.25-7.65,0,0,19.82-7.47,24.41-10.81,4.6-3.34,5.48-7.66,4.38-11.19-1.1-3.54-10.08-10.41-30.26-3.25-18.39,6.53-27.58,31.17-30.01,38.72-1.72-.63-3.52-1.05-5.39-1.3.74-3.16,5.56-23.05,11.77-33.1,6.33-10.26,28.71-31.92,28.71-31.92l36.75-31.53s6.54-6.44.35-12.49c-4.8-4.71-8.52-5.15-14.5-1.33-5.37,3.42-27,21.52-36.14,32.46-7.85,9.39-20.56,23.23-25.77,43-1.62,6.13-2.82,12.24-3.72,17.63-.89-5.39-2.1-11.49-3.72-17.63-5.21-19.77-17.93-33.6-25.77-43-9.15-10.94-30.78-29.04-36.14-32.46-6-3.82-9.7-3.39-14.51,1.33-6.19,6.05.35,12.49.35,12.49l36.75,31.53h0ZM204.42,295.22c-.12-.46-.21-1.14-.45-1.98-.28-.84-.53-1.88-1.05-2.98-.24-.55-.48-1.15-.83-1.75-.34-.59-.62-1.25-1.04-1.87-.78-1.27-1.73-2.59-2.85-3.88-.58-.63-1.13-1.31-1.79-1.92-.63-.63-1.27-1.29-1.98-1.89-.35-.3-.71-.63-1.05-.94-.37-.29-.74-.6-1.11-.9-.74-.62-1.53-1.16-2.33-1.75-.78-.6-1.63-1.11-2.44-1.67-.85-.52-1.69-1.04-2.55-1.55-1.73-1.01-3.47-1.99-5.23-2.86-1.75-.89-3.52-1.69-5.23-2.44-1.73-.73-3.4-1.44-5.01-2.05-1.6-.63-3.13-1.18-4.55-1.67-2.84-.98-5.23-1.74-6.91-2.23-1.47-.42-2.4-.67-2.62-.73.21.04,1.15.22,2.66.58,1.71.41,4.15,1.02,7.02,1.92,1.44.45,3,.98,4.63,1.54,1.62.59,3.34,1.23,5.07,1.96,1.74.74,3.53,1.53,5.29,2.41,1.79.87,3.55,1.84,5.31,2.84.86.52,1.72,1.05,2.56,1.6.83.59,1.67,1.11,2.47,1.72.79.6,1.6,1.16,2.34,1.8.38.3.75.63,1.12.92.36.33.71.64,1.05.97,1.42,1.26,2.66,2.63,3.76,3.98,1.1,1.35,2.02,2.71,2.78,4.02.42.63.68,1.31,1.01,1.92.33.62.53,1.24.75,1.81.48,1.14.67,2.21.92,3.05.21.86.24,1.55.33,2.01.04.28.08.5.09.62-.02-.12-.07-.32-.13-.61h0ZM229.68,295.2c.09-.46.13-1.15.34-2.01.23-.85.45-1.9.92-3.05.21-.58.42-1.2.74-1.81.33-.62.6-1.29,1.01-1.92.76-1.31,1.69-2.68,2.78-4.02,1.1-1.36,2.34-2.72,3.76-3.98.35-.32.71-.63,1.05-.97.38-.29.75-.62,1.12-.92.74-.63,1.55-1.21,2.35-1.8.79-.61,1.64-1.13,2.47-1.72.85-.54,1.69-1.08,2.56-1.6,1.75-1.01,3.52-1.97,5.3-2.84,1.78-.88,3.56-1.67,5.29-2.41,1.75-.73,3.45-1.38,5.08-1.96,1.63-.58,3.17-1.1,4.62-1.54,2.88-.91,5.31-1.51,7.03-1.92,1.49-.35,2.43-.53,2.66-.58-.21.05-1.14.3-2.62.73-1.69.49-4.08,1.25-6.92,2.23-1.42.49-2.94,1.04-4.55,1.67-1.6.62-3.27,1.33-5,2.05-1.72.75-3.49,1.55-5.24,2.44-1.76.87-3.51,1.86-5.21,2.86-.87.51-1.71,1.04-2.55,1.55-.83.56-1.66,1.08-2.46,1.67-.78.59-1.59,1.13-2.31,1.75-.38.3-.75.61-1.12.9-.35.32-.7.63-1.04.94-.71.61-1.36,1.26-1.99,1.89-.65.62-1.21,1.29-1.79,1.92-1.11,1.29-2.06,2.61-2.85,3.88-.43.62-.71,1.28-1.04,1.87-.35.6-.59,1.2-.83,1.75-.52,1.1-.77,2.14-1.04,2.98-.24.84-.34,1.52-.46,1.98-.07.28-.11.49-.13.61,0-.12.04-.33.09-.62h0ZM174.96,451.44c.21-.62,3.13-8.92,3.13-21.31,0-1.47-.04-3.01-.14-4.58,2.31,1.77,5.63,2.51,8.83,1.72,4.06-1,6.71-4.15,6.71-7.57,0-.73-.13-1.47-.37-2.22-.34-.98-1.88-5.27-4.78-10.45.93.07,1.6.09,1.92.09h.15c4.29,0,7.85-3.49,7.94-7.77.1-4.38-3.4-8.02-7.77-8.1,0,0-.2,0-.5-.03,3.43-1.52,5.67-2.84,6.24-3.18,3.75-2.26,4.95-7.15,2.7-10.9-1.18-1.97-3.19-3.3-5.43-3.7,2.74-2.6,4.45-4.63,4.94-5.21,2.77-3.39,2.28-8.4-1.1-11.17-.76-.63-1.64-1.1-2.57-1.41.35-.45.6-.78.73-.99,2.39-3.66,1.36-8.58-2.3-10.98-1.13-.75-2.44-1.17-3.8-1.26,1.4-3.01,1.81-3.02,2.53-6.63,1.49-7.49-1.17-10.1-5.24-11.1-3.16-.77-6.38.13-8.88,5.37.02-.7.18-5.12.18-5.78,0-12.4-2.91-20.71-3.13-21.33-1.56-4.3-6.8-6.68-11.7-5.31-2.08.59-3.75,1.76-4.88,3.24-7.8-15.84-17.82-22.78-18.57-23.29-4.08-2.73-9.93-2.04-13.05,1.54-1.29,1.48-1.9,3.23-1.9,4.96,0,2.43,1.24,4.85,3.59,6.46.38.27,3.08,2.27,6.4,6.41-.33-.18-.65-.35-.99-.51-.3-.26-.62-.54-.92-.79-25.87-21.6-59.45-20.45-60.87-20.38-5.49.23-9.71,4.32-9.46,9.14.24,4.82,4.89,8.57,10.37,8.38.15,0,7.62-.21,17.5,2.02-28.77-3.67-56.07,6.06-57.57,6.62-5.08,1.87-7.49,7-5.38,11.47,2.12,4.47,7.95,6.58,13.05,4.74.21-.08,11.7-4.19,26.53-5.64-21.64,5.07-39.13,22.6-46.03,45.41-7.65,4.16-12.82,12.26-12.82,21.56s5.19,17.41,12.84,21.58c3.7,12.28,10.46,23.01,19.32,31.1l.07.21s.07,0,.14-.03c7.51,6.82,16.5,11.72,26.36,14.06-14.73-1.46-26.15-5.5-26.42-5.59-5.08-1.86-10.91.26-13.03,4.74-2.12,4.47.29,9.6,5.38,11.47,1.5.54,28.79,10.29,57.54,6.62-9.8,2.21-17.23,2.02-17.47,2.02-5.49-.22-10.15,3.51-10.41,8.33-.25,4.83,3.98,8.95,9.48,9.18,1.29.05,29.51,1.02,54.1-15.34-.87,1.27-1.31,2.72-1.31,4.18,0,1.74.62,3.49,1.9,4.96,3.12,3.59,8.96,4.28,13.05,1.54.76-.52,11.07-7.68,18.94-24.02,1.11,1.27,2.65,2.28,4.52,2.8,4.9,1.37,10.14-1.02,11.7-5.32l.02-.04h0ZM411.04,357.38c-6.89-22.81-24.4-40.34-46.04-45.41,14.83,1.46,26.33,5.57,26.54,5.64,5.08,1.86,10.93-.26,13.05-4.74,2.11-4.47-.29-9.6-5.39-11.47-1.49-.55-28.79-10.29-57.56-6.62,9.89-2.23,17.35-2.02,17.49-2.02,5.5.21,10.15-3.55,10.39-8.38.24-4.81-3.98-8.91-9.46-9.14-1.42-.07-35-1.22-60.87,20.38-.32.25-.62.53-.92.79-.34.16-.66.33-.99.51,3.31-4.14,6.02-6.13,6.4-6.41,2.35-1.61,3.59-4.02,3.59-6.46,0-1.74-.63-3.49-1.9-4.96-3.12-3.59-8.96-4.28-13.05-1.54-.76.51-10.77,7.45-18.57,23.29-1.13-1.48-2.8-2.66-4.88-3.24-4.9-1.37-10.15,1.02-11.7,5.31-.22.62-3.13,8.93-3.13,21.33,0,.66.17,5.08.2,5.78-2.5-5.24-5.71-6.14-8.88-5.37-4.06,1.01-6.74,3.62-5.24,11.1.72,3.61,1.12,3.62,2.53,6.63-1.36.09-2.67.51-3.81,1.26-3.65,2.39-4.69,7.31-2.29,10.98.13.21.38.54.73.99-.93.3-1.81.77-2.59,1.41-3.38,2.77-3.87,7.78-1.09,11.17.48.59,2.21,2.62,4.94,5.21-2.24.4-4.25,1.74-5.43,3.7-2.26,3.75-1.04,8.64,2.69,10.9.58.35,2.81,1.66,6.25,3.18-.3.02-.49.03-.5.03-4.38.09-7.87,3.73-7.77,8.1.09,4.29,3.64,7.77,7.93,7.77h.16c.33,0,.99-.02,1.92-.09-2.89,5.18-4.43,9.47-4.78,10.45-.25.74-.37,1.48-.37,2.22,0,3.42,2.65,6.57,6.71,7.57,3.21.79,6.51.05,8.82-1.72-.09,1.58-.14,3.12-.14,4.58,0,12.4,2.91,20.7,3.13,21.31,1.55,4.31,6.8,6.69,11.7,5.32,1.88-.53,3.41-1.53,4.52-2.8,7.85,16.35,18.15,23.51,18.94,24.02,4.08,2.73,9.93,2.04,13.05-1.54,1.28-1.48,1.9-3.23,1.9-4.96,0-1.46-.46-2.91-1.31-4.18,24.6,16.36,52.8,15.39,54.1,15.34,5.5-.23,9.74-4.35,9.48-9.18-.26-4.82-4.92-8.55-10.41-8.33-.25,0-7.67.18-17.48-2.02,28.77,3.67,56.06-6.07,57.54-6.62,5.09-1.87,7.5-7,5.39-11.47-2.12-4.47-7.94-6.58-13.04-4.74-.26.1-11.68,4.13-26.41,5.59,9.84-2.34,18.84-7.25,26.36-14.06.08.02.13.03.14.03l.07-.21c8.84-8.1,15.61-18.84,19.32-31.1,7.66-4.16,12.84-12.26,12.84-21.58s-5.19-17.4-12.82-21.56v.04h0ZM231.84,462.4c-4.93,1.27-8.93,4.4-11.71,7.97v-9.63c11.81-2.02,20.81-12.32,20.81-24.7,0-5.39-1.73-10.37-4.63-14.46h.12c-3.29-4.7-8.2-8.31-14.19-9.86-1.05-.27-2.13-.46-3.18-.6.65-2.77,6.17-26.21,6.17-26.21,0,0-8.28,11.46-8.75,14.29-.48-2.82-8.76-14.29-8.76-14.29,0,0,5.43,23.1,6.15,26.11-6,.51-11.58,3.16-15.75,7.38h-.02s-.1.12-.15.17c-.09.09-.16.17-.24.25-4.27,4.49-6.9,10.55-6.9,17.23,0,12.36,9.02,22.67,20.83,24.69v10.93c-2.79-4.08-7.15-7.84-12.67-9.27-11.03-2.85-19.28-7.75-20.71-2.21-1.43,5.54,4.5,19.42,15.51,22.28,7.47,1.92,13.88,3.98,17.69,3.38,4.93.03,6.06.31,8.46.07,3.86.34,9.99-1.61,17.11-3.44,11.02-2.85,16.95-16.74,15.51-22.28-1.43-5.55-9.69-.64-20.7,2.21h.02,0Z"/>
  </g>
  <g id="black">
    <path d="M231.5,258.78c6.34-10.26,28.72-31.93,28.72-31.93l36.75-31.52s6.54-6.45.35-12.5c-4.81-4.71-8.53-5.15-14.51-1.33-5.36,3.42-27,21.53-36.14,32.47-7.85,9.38-20.56,23.23-25.77,43-1.61,6.12-2.82,12.24-3.71,17.63-.89-5.38-2.1-11.5-3.71-17.63-5.21-19.77-17.92-33.61-25.77-43-9.14-10.94-30.78-29.04-36.14-32.47-6-3.82-9.7-3.38-14.51,1.33-6.19,6.05.35,12.5.35,12.5l36.75,31.52s22.38,21.67,28.72,31.93c6.11,9.9,10.89,29.41,11.73,32.98-2.11.17-4.15.6-6.08,1.26-2.5-7.72-11.69-32.07-29.95-38.56-20.18-7.16-29.16-.29-30.25,3.24s-.21,7.85,4.38,11.19c4.6,3.34,24.41,10.81,24.41,10.81,0,0,8.01,2.93,13.26,7.65,4.24,3.8,8.32,8.73,9.76,10.52-5.26,4.6-8.59,11.35-8.59,18.87,0,12.37,9.01,22.68,20.82,24.7v43.98h8.49v-43.98c11.81-2.02,20.82-12.32,20.82-24.7,0-7.37-3.2-14-8.28-18.59,1.17-1.47,5.49-6.77,9.97-10.78,5.25-4.72,13.26-7.65,13.26-7.65,0,0,19.81-7.47,24.41-10.81s5.48-7.66,4.38-11.19-10.08-10.41-30.25-3.24c-18.39,6.52-27.59,31.16-30.01,38.71-1.72-.63-3.53-1.06-5.39-1.3.74-3.17,5.56-23.06,11.76-33.1h0ZM216.57,333.32c-9.14,0-17.64-7.44-17.64-16.58s8.5-14.46,17.64-14.46,17.64,5.32,17.64,14.46-8.5,16.58-17.64,16.58ZM203.96,293.22c-.28-.83-.53-1.87-1.05-2.97-.24-.56-.48-1.16-.82-1.75s-.62-1.26-1.04-1.87c-.78-1.27-1.74-2.58-2.85-3.88-.58-.63-1.13-1.32-1.79-1.92-.63-.63-1.28-1.29-1.98-1.89-.35-.31-.7-.63-1.05-.94-.37-.29-.74-.6-1.11-.9-.73-.62-1.53-1.17-2.32-1.76-.79-.59-1.63-1.1-2.45-1.66-.84-.53-1.69-1.05-2.55-1.56-1.72-1.02-3.47-1.98-5.22-2.86-1.75-.9-3.52-1.69-5.23-2.45-1.73-.73-3.4-1.44-5-2.06-1.6-.63-3.13-1.18-4.55-1.67-2.84-.98-5.23-1.74-6.91-2.22-1.69-.49-2.66-.74-2.66-.74,0,0,.99.18,2.7.59s4.15,1.02,7.02,1.92c1.45.45,2.99.97,4.62,1.54s3.34,1.22,5.08,1.96,3.53,1.53,5.29,2.41c1.79.86,3.55,1.83,5.3,2.83.87.52,1.72,1.06,2.57,1.6.82.58,1.67,1.11,2.47,1.71.79.6,1.6,1.17,2.34,1.81.38.31.75.62,1.12.93.35.32.71.64,1.06.97,1.42,1.26,2.66,2.63,3.75,3.97s2.02,2.71,2.78,4.02c.42.63.68,1.32,1.01,1.93s.54,1.23.75,1.82c.48,1.13.68,2.2.92,3.05.21.86.24,1.55.33,2.01.07.47.11.71.11.71,0,0-.05-.24-.15-.7-.11-.46-.21-1.14-.45-1.98h-.02,0ZM229.69,295.21c.09-.46.13-1.16.33-2.01.23-.85.44-1.9.92-3.05.21-.58.43-1.2.75-1.82.32-.62.59-1.3,1.01-1.93.76-1.31,1.69-2.68,2.78-4.02,1.1-1.35,2.33-2.71,3.75-3.97.35-.32.7-.64,1.06-.97.37-.3.74-.62,1.12-.93.74-.63,1.54-1.2,2.34-1.81.79-.6,1.64-1.13,2.47-1.71.85-.54,1.7-1.08,2.57-1.6,1.75-1.01,3.53-1.97,5.3-2.83,1.78-.89,3.56-1.67,5.29-2.41,1.74-.74,3.45-1.38,5.08-1.96,1.63-.58,3.18-1.1,4.62-1.54,2.87-.91,5.31-1.51,7.02-1.92,1.71-.4,2.7-.59,2.7-.59,0,0-.98.25-2.66.74-1.69.48-4.07,1.24-6.91,2.22-1.43.49-2.95,1.04-4.55,1.67-1.6.62-3.28,1.33-5,2.06-1.72.75-3.49,1.55-5.23,2.45-1.77.87-3.51,1.85-5.22,2.86-.86.51-1.71,1.04-2.55,1.56-.82.56-1.66,1.08-2.45,1.66-.79.59-1.59,1.13-2.32,1.76-.37.3-.74.61-1.11.9-.35.31-.7.63-1.05.94-.71.61-1.35,1.26-1.98,1.89-.65.62-1.21,1.3-1.79,1.92-1.11,1.3-2.06,2.61-2.85,3.88-.43.62-.7,1.28-1.04,1.87-.35.59-.59,1.19-.82,1.75-.53,1.1-.77,2.14-1.05,2.97-.24.84-.34,1.52-.45,1.98-.1.46-.15.7-.15.7,0,0,.04-.24.11-.71h-.02Z"/>
    <path d="M216.57,430.08c-4.06,0-7.35,3.29-7.35,7.35s3.29,7.35,7.35,7.35,7.35-3.29,7.35-7.35-3.29-7.35-7.35-7.35Z"/>
    <path d="M151.27,154.45c-1.26,0-2.52.4-3.59,1.22-2.61,1.99-3.12,5.72-1.12,8.33.37.49,5.57,7.07,17.44,12.08-.93.71-1.65,1.7-2.03,2.89-1,3.13.73,6.46,3.86,7.46.45.15,6.47,2,15.48,2,1.06,0,2.18-.03,3.33-.09-1.28,1.47-1.83,3.58-1.25,5.63.73,2.6,3.02,4.29,5.5,4.29.53,0,1.06-.08,1.6-.23.82-.24,4.84-1.52,9.38-3.96.78.45,1.56.84,2.29,1.21.36.18.71.36,1.07.55,2.75,1.43,5.3,2.49,7.73,3.25.22.38.51.84.78,1.43.16.32.32.66.5,1.03.16.38.31.78.48,1.2.19.42.33.88.48,1.36s.33.98.47,1.49c.24,1.04.58,2.18.72,3.39.09.6.22,1.22.27,1.86s.1,1.28.15,1.93c.02.33.06.66.07,1v1.01c-.02.68-.03,1.37-.04,2.05-.1,1.37-.26,2.74-.42,4.14-.28,1.38-.56,2.73-.82,4.05-.4,1.31-.78,2.58-1.14,3.78-.39,1.21-.9,2.29-1.31,3.35-.43,1.04-.81,2.02-1.26,2.82-.43.82-.8,1.54-1.1,2.13-.63,1.2-.99,1.88-.99,1.88,0,0,.41-.51,1.13-1.41.36-.44.8-.99,1.31-1.6.53-.6,1.02-1.36,1.59-2.16.56-.81,1.22-1.64,1.8-2.61s1.17-1.98,1.83-3.02c.56-1.09,1.13-2.22,1.71-3.36.5-1.18,1.01-2.38,1.47-3.59.21-.62.42-1.23.63-1.85.21-.61.42-1.22.57-1.85.17-.62.32-1.23.49-1.85.16-.61.24-1.22.37-1.82.25-1.19.39-2.36.55-3.48.11-1.11.21-2.17.23-3.14s.04-1.88,0-2.68c0-.8-.08-1.49-.12-2.06-.07-.57-.11-1.02-.16-1.32-.04-.3-.08-.47-.08-.47,0,0,.2.63.39,1.77.08.57.21,1.26.27,2.06.04.4.07.83.11,1.28,0,.45.03.93.04,1.43.02.99-.03,2.07-.1,3.2-.12,1.13-.19,2.33-.44,3.55-.12.61-.2,1.24-.35,1.86-.16.62-.31,1.25-.47,1.88-.14.63-.34,1.26-.56,1.88-.21.63-.41,1.26-.62,1.88-.49,1.23-1.04,2.44-1.55,3.63-.61,1.15-1.21,2.29-1.79,3.38-.66,1.05-1.32,2.05-1.94,3s-1.34,1.76-1.93,2.55c-.61.78-1.15,1.5-1.73,2.07-.56.59-1.04,1.09-1.43,1.51-.8.83-1.25,1.3-1.25,1.3,0,0,.61-.48,1.65-1.32.53-.43,1.18-.95,1.92-1.54.77-.58,1.53-1.33,2.38-2.15.83-.83,1.83-1.7,2.73-2.72.91-1.05,1.87-2.17,2.85-3.32.91-1.23,1.82-2.54,2.76-3.89.84-1.4,1.7-2.86,2.5-4.37.36-.77.72-1.55,1.08-2.32l.54-1.17c.17-.4.3-.8.46-1.2.29-.81.59-1.62.87-2.41.28-.81.47-1.62.7-2.43.49-1.61.74-3.21,1.04-4.76.14-.77.21-1.53.3-2.27.09-.74.18-1.46.21-2.16.04-.7.07-1.38.11-2.01v-.53c1.96-.75,3.85-1.64,5.65-2.56.31-.16.62-.31.93-.47,1.14-.57,2.42-1.2,3.63-2.01,5.01,2.9,9.73,4.39,10.63,4.67.54.16,1.07.23,1.6.23,2.48,0,4.78-1.69,5.5-4.29.57-2.01.05-4.08-1.19-5.56.51,0,1.01.02,1.49.02,9,0,15.03-1.86,15.48-2,3.13-1,4.85-4.34,3.86-7.46-.42-1.33-1.28-2.39-2.35-3.12,11.49-4.98,16.54-11.37,16.9-11.86,1.99-2.61,1.48-6.34-1.12-8.33-1.07-.82-2.34-1.22-3.59-1.22-1.78,0-3.53.79-4.7,2.29-.21.26-1.93,2.31-5.57,4.72.63-.61,1.26-1.21,1.87-1.85,15.68-16.5,14.84-37.95,14.8-38.85-.17-3.51-3.14-6.19-6.64-6.05-3.51.16-6.22,3.13-6.08,6.63,0,.09.16,4.85-1.46,11.17,2.67-18.36-4.41-35.78-4.8-36.74-1.35-3.24-5.08-4.79-8.32-3.44-3.25,1.35-4.79,5.08-3.44,8.32.06.14,3.04,7.47,4.1,16.94-4.2-15.73-20.11-28.04-40.08-30.81-2.18-2.64-5.21-4.28-8.55-4.28s-6.37,1.64-8.55,4.28c-11.88,1.65-22.31,6.66-29.72,13.77l-.16.04s0,.04.03.09c-4.95,4.8-8.51,10.54-10.21,16.83,1.06-9.39,3.99-16.69,4.06-16.86,1.35-3.24-.2-6.96-3.44-8.31-3.24-1.35-6.97.19-8.32,3.44-.4.96-7.47,18.37-4.81,36.73-1.6-6.26-1.46-11-1.46-11.15.16-3.51-2.55-6.47-6.05-6.64-3.52-.17-6.49,2.54-6.66,6.05-.04.83-.73,18.84,11.14,34.53-.93-.56-1.98-.84-3.05-.84l.02-.03h0ZM182.72,106.42c4.12,6.94,13.88,17.61,34.89,17.61h.9c22.58-.32,31.36-11.93,34.57-18.78,5.73,5.7,9.16,12.86,9.16,20.63,0,3.24-.61,6.38-1.72,9.36-.12,0-.24-.02-.36-.02-2.45,0-4.62,1.47-5.53,3.76-.04.1-.21.51-.52,1.13-.75-2.11-2.66-3.71-5.03-3.95-.2-.02-.38-.03-.57-.03-1.75,0-3.33.75-4.42,1.96-.83-.93-1.92-1.57-3.16-1.84-.41-.09-.83-.14-1.25-.14-1.96,0-3.74,1-4.82,2.53-.75-.73-1.7-1.28-2.79-1.52-.43-.1-.88-.16-1.33-.16-2.74,0-5.09,1.85-5.75,4.5-1.33-1.6-3.33-2.63-5.57-2.63-2.7,0-5.05,1.48-6.29,3.68-.09-.32-.17-.64-.23-.95-.63-2.71-3-4.61-5.78-4.61-.45,0-.9.05-1.34.16-1.09.25-2.04.79-2.78,1.52-1.08-1.52-2.87-2.52-4.83-2.52-.42,0-.84.05-1.25.14-1.23.26-2.32.91-3.15,1.83-1.09-1.21-2.67-1.96-4.42-1.96-.19,0-.37,0-.56.03-2.38.22-4.29,1.83-5.04,3.95-.31-.63-.49-1.04-.53-1.15-.9-2.27-3.07-3.74-5.52-3.74h0c-.41,0-.81.05-1.21.13-1.14-3.01-1.77-6.18-1.77-9.46,0-7.24,2.98-13.95,8.04-19.44h-.03ZM218.46,111.34c6.64,0,12.02-6.46,12.02-14.41,0-1.24-.15-2.43-.39-3.57,6.92,1.47,13.17,4.23,18.27,7.92-1.74,4.73-8.24,16.51-29.95,16.82h-.82c-19.74,0-27.66-10.3-30.46-15.76,5.34-4.22,12.11-7.37,19.69-8.98-.24,1.14-.39,2.33-.39,3.57,0,7.96,5.38,14.41,12.02,14.41h0,0ZM285.94,159.4l.02-.03.02-.03c.32-.42.81-.65,1.35-.65.26,0,.64.06,1.03.35.49.37.62.86.65,1.12.04.26.04.77-.33,1.26-.03.04-3.15,4.08-10.21,8.06-4.6,2.6-11.61,5.54-21.29,7.03-2.51-.05-5.3-.27-8.27-.79,3.36-.74,6.55-1.68,9.57-2.81,18.68-3.3,26.47-12.28,27.45-13.51h0ZM258.17,180.76c7.69,0,12.89-1.54,13.11-1.6h.02l.02-.02c.17-.05.34-.08.51-.08.62,0,1.36.37,1.62,1.18.28.89-.21,1.85-1.1,2.13-.23.07-5.76,1.8-14.19,1.8-4.29,0-8.51-.44-12.64-1.32-.44-.26-.88-.53-1.3-.81-.44-1.31-1.11-2.5-1.98-3.54,5.14,1.47,10.47,2.24,15.93,2.24v.02h0ZM253.77,192.82c-.22.81-.9,1.18-1.42,1.18-.13,0-.25-.02-.38-.06-.54-.16-12.03-3.69-17.77-10.8.79-.78,1.47-1.62,2.03-2.52,3.99,5.13,12.29,8.75,16.49,10.04.82.24,1.3,1.23,1.04,2.16h0,0ZM232.5,189.76c-5.48,2.77-9.25,3.91-13.01,3.91s-8.04-1.24-13.15-3.89h0c1.19-.97,2.31-2.03,3.34-3.18,2.83,1.31,6.16,2.06,9.74,2.06,4.31,0,8.27-1.1,11.42-2.94.96,1.19,2.03,2.29,3.17,3.3-.17.09-.34.17-.52.26-.32.17-.65.32-.98.49h0ZM189.25,193.95c-.13.04-.25.06-.38.06-.52,0-1.18-.37-1.42-1.19-.25-.92.21-1.9,1.04-2.16,3.78-1.15,10.87-4.19,15.17-8.52.66.79,1.44,1.53,2.29,2.2-5.99,6.31-16.21,9.45-16.72,9.6h0,0ZM166,180.25c.26-.82,1-1.18,1.62-1.18.17,0,.34.03.51.08h.02l.02.02c.21.07,5.42,1.6,13.11,1.6,6.88,0,13.53-1.19,19.85-3.53.09.36.19.71.31,1.06-1.14,1.4-2.77,2.71-4.6,3.87-5.04,1.33-10.24,2.01-15.55,2.01-8.43,0-13.97-1.73-14.19-1.8-.89-.28-1.39-1.24-1.1-2.13h0ZM149.93,161.42c-.37-.49-.37-1-.33-1.26s.17-.75.65-1.12c.38-.28.76-.35,1.03-.35.53,0,1.02.23,1.35.65l.02.03.02.03c.92,1.14,7.79,9.05,23.91,12.77,3.87,1.59,8.02,2.86,12.47,3.78-2.71.39-5.26.55-7.56.56-9.71-1.49-16.74-4.44-21.35-7.04-7.04-3.97-10.17-8.02-10.21-8.06h0ZM176.72,138.78c.3-.12.63-.18.94-.18,1.02,0,1.97.62,2.36,1.61.15.35,1.55,3.75,4.8,7.77.94,2.35,2.48,5.21,5,8.05-3.9-1.68-7.24-3.75-10.01-6.21-3.04-4.09-4.38-7.37-4.52-7.73-.52-1.31.13-2.78,1.44-3.3h0ZM186.76,142.31c-.14-1.4.89-2.65,2.29-2.77h.24c1.3,0,2.4.98,2.53,2.29.02.19.2,1.54,1.02,3.45.99,3.13,3.51,9.4,8.88,14.35-1.11-.21-2.19-.46-3.24-.71-10.6-6.58-11.67-16.04-11.72-16.57h0v-.02ZM195.64,142.61c-.29-1.38.59-2.72,1.95-3.03.18-.04.36-.06.54-.06,1.17,0,2.23.82,2.48,2.01,0,.05.18.74.55,1.83.02.29.06.6.13.89.46,1.99,2.75,11.02,7.97,16.46h0c-10.75-5.34-13.5-17.52-13.62-18.1h0ZM204.6,143.48c-.31-1.37.55-2.73,1.91-3.05.2-.05.38-.07.58-.07,1.16,0,2.21.8,2.48,1.98.36,1.56,1.27,4.62,2.62,7.5v8.98c-5.03-4.76-7.31-14.18-7.58-15.34h0ZM223.22,161.18c-1.23-.2-2.51-.29-3.82-.29s-2.59.11-3.82.29v-15.12c0-2.11,1.71-3.82,3.82-3.82s3.82,1.71,3.82,3.82v15.12ZM228.24,142.35c.27-1.18,1.32-1.98,2.48-1.98.19,0,.38.02.58.07,1.37.31,2.23,1.68,1.91,3.05-.24,1.07-2.25,9.33-6.58,14.3v-10.28c.8-2.08,1.36-4.01,1.62-5.16h0ZM237.18,141.53c.25-1.19,1.31-2.01,2.48-2.01.18,0,.36.02.54.06,1.38.29,2.26,1.65,1.95,3.03-.13.58-2.82,12.59-13.39,17.99-.05,0-.1,0-.15.02,5.15-5.45,7.42-14.39,7.88-16.36.07-.29.11-.6.13-.89.37-1.08.54-1.78.55-1.83h0ZM245.97,141.81c.14-1.31,1.23-2.29,2.53-2.29h.24c1.4.14,2.42,1.38,2.29,2.77-.05.53-1.07,9.61-11.07,16.17-1.17.32-2.38.61-3.63.87,5.2-4.89,7.65-11.01,8.62-14.09.82-1.9,1-3.27,1.02-3.45h0ZM230.33,174.76c0,2.95-4.68,6.24-10.93,6.24s-10.93-3.3-10.93-6.24,4.68-6.24,10.93-6.24,10.93,3.29,10.93,6.24ZM262.52,142.09c-.11.26-.87,2.14-2.5,4.76-2.95,3.48-6.79,6.34-11.51,8.56,2.2-2.63,3.59-5.24,4.46-7.42,3.25-4.02,4.66-7.42,4.8-7.77.39-1,1.36-1.61,2.36-1.61.31,0,.63.06.94.18,1.31.52,1.95,1.99,1.44,3.3h0Z"/>
    <path d="M216.57,309.39c-4.06,0-7.35,3.29-7.35,7.35s3.29,7.35,7.35,7.35,7.35-3.29,7.35-7.35-3.29-7.35-7.35-7.35Z"/>
    <path d="M180.23,50.23c.05.15.17.25.32.28l.21.03s.33.05.94.09c.61.02,1.5.11,2.61.12,2.23.03,5.35-.07,8.98-.49,1.82-.21,3.77-.5,5.8-.86,2.03-.37,4.16-.81,6.32-1.36,1.09-.24,2.18-.56,3.28-.87,1.1-.3,2.23-.62,3.33-.99,1.37-.41,2.73-.88,4.1-1.37,3.88,9.94-1.84,17.26-2.1,17.59-.88,1.08-.72,2.69.36,3.57.47.39,1.04.58,1.61.58.66,0,1.32-.27,1.81-.78.35-.11.73-.23,1.16-.39,1.85-.64,4.42-1.65,7.38-3.05,2.96-1.39,6.31-3.15,9.76-5.22,3.47-2.05,7.02-4.44,10.47-6.96,3.45-2.54,6.79-5.21,9.79-7.9,3.01-2.68,5.69-5.34,7.9-7.75,2.21-2.41,3.94-4.57,5.11-6.14.59-.78,1.02-1.45,1.32-1.88.3-.44.45-.69.45-.69,0,0-.28.07-.79.21-.5.17-1.26.37-2.19.69-1.86.63-4.42,1.65-7.39,3.04-2.96,1.39-6.31,3.15-9.76,5.22-3.47,2.05-7.01,4.44-10.46,6.97-3.44,2.54-6.78,5.21-9.78,7.91-3.01,2.68-5.69,5.34-7.9,7.75-.58.63-1.12,1.24-1.64,1.84,1.42-4.03,2.23-9.78-.35-16.43,1.46-.59,2.92-1.17,4.34-1.83.54-.23,1.06-.47,1.59-.7.52-.25,1.04-.51,1.55-.75,1.04-.5,2.05-.99,3.04-1.52,1.98-1.03,3.87-2.1,5.63-3.16,1.77-1.07,3.42-2.16,4.91-3.19,1.49-1.05,2.85-2.07,4.03-3.02s2.2-1.82,3.02-2.58c.83-.73,1.45-1.41,1.88-1.82.43-.43.64-.69.64-.69l.14-.16c.09-.11.12-.25.07-.39,0,0,0-.02-.02-.03.3-.62.37-1.34.11-2.03-.5-1.32-1.96-1.97-3.28-1.48l-19.89,7.53,6.01-13.32c1.15-2.57.02-5.58-2.55-6.74-2.57-1.15-5.58,0-6.74,2.55l-7.7,17.06-8.16-21.58c-1-2.63-3.94-3.96-6.56-2.96-2.63,1-3.96,3.94-2.96,6.56l8.19,21.65-17.16-7.73c-2.57-1.15-5.58,0-6.74,2.55-1.15,2.57,0,5.58,2.55,6.74l13.32,6.01-19.89,7.53c-1.32.5-1.98,1.97-1.48,3.28.26.69.79,1.19,1.43,1.45l.04.02h0Z"/>
    <path d="M234.72,62.26c-8.25,5.42-12.04,14.24-8.45,19.7,3.58,5.46,13.18,5.5,21.44.08,8.25-5.42,12.04-14.24,8.45-19.7-3.58-5.46-13.18-5.5-21.44-.08Z"/>
    <path d="M202.39,62.26c-8.25-5.42-17.85-5.38-21.44.08s.2,14.29,8.45,19.7c8.25,5.42,17.85,5.38,21.44-.08s-.2-14.29-8.45-19.7h0Z"/>
    <circle cx="250.33" cy="121.94" r="2.97" transform="translate(83.25 344.69) rotate(-79.1)"/>
    <circle cx="239.29" cy="128.42" r="2.97"/>
    <circle cx="225.29" cy="131.49" r="2.97"/>
    <circle cx="188.47" cy="121.09" r="2.97"/>
    <circle cx="199.51" cy="128.42" r="2.97"/>
    <circle cx="213.51" cy="131.49" r="2.97"/>
    <circle cx="182.91" cy="130.18" r="2.97"/>
    <path d="M214.94,482.9c-1.44,5.55-10.15,2.41-21.16-.43-11.02-2.85-16.94-16.74-15.52-22.28,1.44-5.55,9.69-.64,20.7,2.21,11.02,2.85,17.4,14.96,15.97,20.51h0Z"/>
    <path d="M215.86,482.9c1.44,5.55,10.15,2.41,21.16-.43,11.02-2.85,16.94-16.74,15.52-22.28-1.44-5.55-9.69-.64-20.7,2.21-11.02,2.85-17.4,14.96-15.97,20.51h0Z"/>
    <path d="M210.48,561c-.21,4.56,7.18,4.22,16.24,4.62s16.84-8.8,17.04-13.36-7.24-2.75-16.3-3.16c-9.06-.4-16.77,7.34-16.97,11.9h0Z"/>
    <g>
      <path d="M199.02,377.12c-1.18-1.97-3.19-3.3-5.43-3.7,2.74-2.6,4.46-4.63,4.94-5.21,2.77-3.38,2.29-8.39-1.09-11.17-.76-.63-1.64-1.1-2.58-1.41.35-.44.6-.78.72-.98,2.39-3.66,1.36-8.59-2.29-10.99-1.14-.75-2.45-1.16-3.81-1.26,1.41-3,1.81-3.02,2.53-6.62,1.49-7.49-1.17-10.11-5.24-11.1-3.15-.78-6.37.12-8.87,5.36.02-.69.19-5.11.19-5.78,0-12.4-2.91-20.7-3.13-21.32-1.56-4.31-6.8-6.69-11.69-5.32-2.08.59-3.75,1.76-4.88,3.23-7.8-15.83-17.81-22.78-18.56-23.28-4.09-2.74-9.93-2.05-13.05,1.54-1.29,1.48-1.9,3.22-1.9,4.95,0,2.44,1.24,4.85,3.59,6.46.38.27,3.08,2.27,6.4,6.4-.33-.18-.65-.35-.99-.51-.3-.26-.61-.54-.92-.8-25.86-21.6-59.45-20.44-60.87-20.38-5.49.23-9.71,4.33-9.46,9.14.24,4.82,4.89,8.56,10.38,8.38.14,0,7.61-.21,17.5,2.01-28.77-3.67-56.07,6.07-57.56,6.62-5.09,1.86-7.49,6.99-5.38,11.47,2.12,4.47,7.95,6.59,13.04,4.74.21-.08,11.71-4.19,26.54-5.64-21.64,5.08-39.14,22.6-46.03,45.41-7.64,4.16-12.82,12.26-12.82,21.57s5.2,17.42,12.84,21.58c3.71,12.27,10.47,23.01,19.32,31.1l.07.21s.06,0,.14-.03c7.52,6.82,16.5,11.72,26.36,14.05-14.73-1.46-26.14-5.5-26.41-5.6-5.09-1.85-10.91.27-13.03,4.74-2.11,4.47.29,9.6,5.38,11.47,1.5.55,28.78,10.29,57.54,6.62-9.8,2.21-17.23,2.02-17.47,2.01-5.49-.21-10.15,3.52-10.4,8.34-.25,4.84,3.98,8.95,9.48,9.18,1.3.06,29.51,1.02,54.1-15.35-.87,1.28-1.32,2.72-1.32,4.19,0,1.73.63,3.48,1.9,4.95,3.12,3.59,8.96,4.29,13.05,1.54.76-.52,11.07-7.67,18.93-24.02,1.11,1.27,2.66,2.28,4.53,2.8,4.9,1.37,10.14-1.02,11.69-5.32.22-.62,3.13-8.92,3.13-21.32,0-1.47-.05-3.01-.14-4.58,2.31,1.77,5.62,2.51,8.82,1.72,4.07-1.01,6.72-4.16,6.72-7.58,0-.73-.12-1.47-.37-2.21-.33-.98-1.88-5.27-4.78-10.45.94.06,1.6.08,1.92.09h.16c4.29,0,7.85-3.49,7.94-7.78.09-4.38-3.4-8.01-7.77-8.1-.02,0-.19,0-.5-.03,3.43-1.52,5.67-2.84,6.24-3.18,3.74-2.27,4.95-7.15,2.7-10.9l-.04.04h0ZM194.08,361.13c1.13.93,1.29,2.6.37,3.72-.55.66-13.3,15.99-30.95,19.13.06-1.79.1-3.59.1-5.42,15.2-3.23,26.64-16.93,26.76-17.08.53-.63,1.28-.97,2.05-.97.6,0,1.18.2,1.68.61h0ZM134.5,364.93c-8.53-7.09-22.53-10.22-25.64-10.85-.47-.1-.93-.15-1.4-.18-1.69-.52-2.78-.74-2.86-.75-1.87-.35-3.14-1.81-3.14-3.43,0-.24.03-.49.09-.74.46-1.89,2.58-3.11,4.74-2.7.9.17,19.72,3.89,28.17,18.45,0,.07.02.13.03.2h0ZM102.9,361.26c.49-1.88,2.64-3.07,4.78-2.64,1.69.34,14.62,3.1,22.4,9.07h-16.11c-3.26-1.1-6.29-1.88-8.08-2.24-1.85-.37-3.1-1.82-3.1-3.41,0-.26.03-.53.11-.79ZM111.71,372.38h23.69c-.3,1.7-.46,3.46-.46,5.26s.16,3.56.46,5.26h-23.69c-3.3,0-5.99-2.35-5.99-5.26s2.68-5.26,5.99-5.26ZM117.65,387.57h14.07c-7.45,6.93-22.22,10.08-24.03,10.44-2.15.43-4.29-.74-4.78-2.64-.07-.26-.11-.53-.11-.79,0-1.6,1.25-3.04,3.1-3.41,2.45-.5,7.24-1.75,11.75-3.6ZM104.62,403.51c.07,0,1.16-.23,2.85-.75.47-.03.93-.08,1.4-.18,3.12-.63,17.27-3.8,25.78-10.98h0c-8.37,14.81-27.44,18.59-28.35,18.76-2.16.41-4.28-.8-4.74-2.7-.06-.24-.09-.5-.09-.74,0-1.61,1.28-3.07,3.14-3.43h0ZM190.39,348.09c1.22.8,1.56,2.44.77,3.66-.28.44-4.44,6.7-11.49,12.7-4.08,3.35-9.76,7.07-16.14,8.67-.04-1.64-.11-3.26-.2-4.87,14-5.28,23.29-19.24,23.4-19.39.51-.77,1.36-1.2,2.22-1.2.5,0,1,.14,1.45.43h0ZM166.08,324.23c0-10.59-2.41-17.75-2.51-18.06v-.03l-.02-.03c-.08-.23-.13-.47-.13-.7,0-.85.58-1.88,1.86-2.23,1.4-.39,2.9.29,3.34,1.52.12.32,2.82,7.94,2.82,19.55,0,5.91-.69,11.72-2.06,17.4-.41.62-3.09,4.11-6.8,4.52,2.31-7.07,3.51-14.41,3.51-21.94h0ZM182.03,332.16c.75-2,2.38-2.71,3.75-2.12,2,.87,2.12,2.12,1.75,4.37-1.49,4.62-2.5,6.99-7.22,14.2-3.03,3.76-9.3,10.54-17.33,14.07-.14-1.61-.29-3.19-.47-4.77.05-1.27.09-2.55.09-3.6,8.04-5.5,17.29-16.41,19.44-22.16h0ZM132.57,285.95l-.04-.03c-.65-.45-1.03-1.12-1.03-1.85,0-.36.1-.89.55-1.42.59-.67,1.35-.85,1.76-.9.41-.05,1.2-.06,1.97.46.06.04,6.4,4.35,12.62,14.05,4.06,6.34,8.67,16,11.02,29.33-.07,3.1-.38,6.51-1.02,10.13-1.56-5.86-3.44-11.25-5.58-16.08-5.75-22.73-18.4-32.37-20.21-33.65l-.04-.03h0ZM131.17,349.31c.5,1.61.96,3.29,1.37,5-7.68-7.16-17.25-10.54-22.08-11.88-2.98-1.13-5.12-1.38-5.41-1.41-2.05-.19-3.58-1.7-3.58-3.49,0-.11,0-.22.02-.33.21-1.92,2.16-3.34,4.36-3.15.82.07,15.06,1.47,25.33,15.25h0ZM100.3,320.23c.81-1.8,3.13-2.69,5.18-1.97.41.15,3.36,1.2,7.45,3.44,5.45,4.05,9.93,9.35,13.42,15.85-4.12-3.03-8.21-4.95-11.62-6.15-6.3-4.47-11.62-6.42-12.18-6.62-1.56-.55-2.52-1.87-2.52-3.26,0-.43.09-.87.28-1.29h0,0ZM31.95,403.46c.28,0,.57.02.85.02,13.56,0,24.54-10.99,24.54-24.54s-10.99-24.54-24.54-24.54c-.33,0-.65,0-.98.03,2.42-6.17,5.7-11.82,9.71-16.68,7.4,2.39,25.87,11.36,26.36,41.25v1.13c0,27.19-14.65,39.88-23.19,43.74-4.83-5.37-9.55-12.74-12.73-20.4h0ZM94.9,436.79c-4.71,1.57-9.68,2.43-14.82,2.43-11.34,0-22.03-3.59-33.8-14,10.88-5.68,30.91-20.83,30.91-46.35-.51-31.1-18.7-43.18-29.41-47.62,8.95-7.9,20.15-12.62,32.31-12.62,5.09,0,10,.84,14.65,2.37,0,.17-.03.33-.03.5,0,3.38,2.31,6.37,5.89,7.61.16.06.8.29,1.78.72-3.31,1.03-5.82,3.66-6.17,6.93-.03.27-.04.53-.04.78,0,2.41,1.18,4.58,3.08,6.08-1.45,1.14-2.46,2.65-2.87,4.36-.14.57-.21,1.14-.21,1.72,0,2.7,1.55,5.15,3.96,6.65-1.14,1.04-2,2.34-2.39,3.86-.16.6-.23,1.22-.23,1.84,0,3.78,2.89,7,7.05,7.92-2.51,1.83-4.12,4.58-4.12,7.67,0,3.71,2.33,6.95,5.77,8.66-.51.12-1.01.23-1.47.33-4.25.86-7.23,4.13-7.23,7.97,0,.62.08,1.24.24,1.85.39,1.5,1.24,2.8,2.38,3.84-2.39,1.5-3.96,3.96-3.96,6.65,0,.58.07,1.16.21,1.73.41,1.7,1.42,3.2,2.87,4.35-1.89,1.5-3.08,3.67-3.08,6.09,0,.25,0,.51.04.77.36,3.27,2.87,5.91,6.17,6.94-.99.43-1.64.67-1.8.72-3.55,1.24-5.86,4.22-5.86,7.6h0c0,.57.07,1.11.2,1.66h0ZM117.6,432.16c-6.41,4.18-11.55,6.04-12.12,6.23-2.05.71-4.37-.18-5.18-1.97-.19-.42-.28-.86-.28-1.29,0-1.4.96-2.71,2.52-3.26.56-.2,5.88-2.15,12.18-6.61,3.68-1.3,8.16-3.42,12.61-6.88-2.63,5.36-5.87,9.97-9.74,13.79h0ZM105.84,422.58c-2.2.19-4.14-1.23-4.36-3.15,0-.12-.02-.22-.02-.33,0-1.79,1.53-3.3,3.58-3.49.28-.03,2.42-.27,5.4-1.41,4.91-1.36,14.74-4.82,22.47-12.23-.34,1.53-.71,3.02-1.12,4.46-10.31,14.6-25.13,16.07-25.97,16.14,0,0,0,0,0,0ZM148.39,459.27c-6.22,9.71-12.56,14.01-12.62,14.05-.76.51-1.56.51-1.96.46-.41-.05-1.18-.23-1.76-.9-.45-.52-.55-1.05-.55-1.41,0-.73.37-1.41,1.03-1.86l.05-.03.04-.03c1.78-1.26,13.9-10.53,19.81-32.2,2.39-5.24,4.46-11.19,6.15-17.69.59,3.66.83,7.09.85,10.2-2.34,13.37-6.96,23.05-11.04,29.4h0ZM168.62,449.67c-.44,1.23-1.94,1.91-3.34,1.52-1.28-.36-1.86-1.38-1.86-2.23,0-.23.04-.47.13-.7v-.03l.02-.03c.11-.3,2.51-7.46,2.51-18.06,0-7.66-1.88-17-4.53-24.9.21-1.34.4-2.7.59-4.06,1.62.72,3.36,1.39,5.28,2.11,3.05,8.09,4.02,19.53,4.02,26.84,0,11.61-2.71,19.23-2.82,19.55h0ZM184.97,421.63c-1.44.35-2.98-.3-3.38-1.45-1.14-3.28-3.99-10.06-9.25-16.16,2.89.9,5.64,1.53,8.09,1.98,5.77,7.87,6.15,12.72,6.31,13.14.06.18.09.35.09.52,0,.71-.59,1.63-1.87,1.95h0ZM190.47,396.52c1.46.03,2.63,1.24,2.59,2.7-.03,1.45-1.21,2.6-2.65,2.6h-.05c-.63,0-11.17-.29-22.04-4.92,4-.29,7.79-1.02,11.23-1.94,6.14,1.44,10.82,1.57,10.91,1.57h0ZM193.59,383.49c-.64.39-13.85,8.25-28.99,8.25-.5,0-1.01,0-1.5-.03.06-.77.12-1.54.17-2.32,5.78-.87,11.06-2.87,15.68-5.32,6.96-2.17,11.83-5.05,11.91-5.11.43-.25.9-.38,1.37-.38.9,0,1.77.46,2.27,1.28.75,1.25.35,2.87-.9,3.63h0Z"/>
      <circle cx="74.14" cy="334.47" r="5.9"/>
      <circle cx="81.21" cy="355.3" r="4.76"/>
      <circle cx="87.17" cy="376.55" r="4.57"/>
      <circle cx="84.66" cy="401.09" r="3.99"/>
      <circle cx="78.16" cy="411.61" r="4.38"/>
      <circle cx="83.66" cy="421.63" r="3.58"/>
      <circle cx="64.63" cy="428.14" r="3.43" transform="translate(-23.58 4.23) rotate(-3.17)"/>
    </g>
    <g>
      <path d="M233.11,377.12c1.18-1.97,3.19-3.3,5.43-3.7-2.74-2.6-4.46-4.63-4.94-5.21-2.77-3.38-2.29-8.39,1.09-11.17.76-.63,1.64-1.1,2.58-1.41-.35-.44-.6-.78-.72-.98-2.39-3.66-1.36-8.59,2.29-10.99,1.14-.75,2.45-1.16,3.81-1.26-1.41-3-1.81-3.02-2.53-6.62-1.49-7.49,1.17-10.11,5.24-11.1,3.15-.78,6.37.12,8.87,5.36-.02-.69-.19-5.11-.19-5.78,0-12.4,2.91-20.7,3.13-21.32,1.56-4.31,6.8-6.69,11.69-5.32,2.08.59,3.75,1.76,4.88,3.23,7.8-15.83,17.81-22.78,18.56-23.28,4.09-2.74,9.93-2.05,13.05,1.54,1.29,1.48,1.9,3.22,1.9,4.95,0,2.44-1.24,4.85-3.59,6.46-.38.27-3.08,2.27-6.4,6.4.33-.18.65-.35.99-.51.3-.26.61-.54.92-.8,25.86-21.6,59.45-20.44,60.87-20.38,5.49.23,9.71,4.33,9.46,9.14-.24,4.82-4.89,8.56-10.38,8.38-.14,0-7.61-.21-17.5,2.01,28.77-3.67,56.07,6.07,57.56,6.62,5.09,1.86,7.49,6.99,5.38,11.47-2.12,4.47-7.95,6.59-13.04,4.74-.21-.08-11.71-4.19-26.54-5.64,21.64,5.08,39.14,22.6,46.03,45.41,7.64,4.16,12.82,12.26,12.82,21.57s-5.2,17.42-12.84,21.58c-3.71,12.27-10.47,23.01-19.32,31.1l-.07.21s-.06,0-.14-.03c-7.52,6.82-16.5,11.72-26.36,14.05,14.73-1.46,26.14-5.5,26.41-5.6,5.09-1.85,10.91.27,13.03,4.74,2.11,4.47-.29,9.6-5.38,11.47-1.5.55-28.78,10.29-57.54,6.62,9.8,2.21,17.23,2.02,17.47,2.01,5.49-.21,10.15,3.52,10.4,8.34.25,4.84-3.98,8.95-9.48,9.18-1.3.06-29.51,1.02-54.1-15.35.87,1.28,1.32,2.72,1.32,4.19,0,1.73-.63,3.48-1.9,4.95-3.12,3.59-8.96,4.29-13.05,1.54-.76-.52-11.07-7.67-18.93-24.02-1.11,1.27-2.66,2.28-4.53,2.8-4.9,1.37-10.14-1.02-11.69-5.32-.22-.62-3.13-8.92-3.13-21.32,0-1.47.05-3.01.14-4.58-2.31,1.77-5.62,2.51-8.82,1.72-4.07-1.01-6.72-4.16-6.72-7.58,0-.73.12-1.47.37-2.21.33-.98,1.88-5.27,4.78-10.45-.94.06-1.6.08-1.92.09h-.16c-4.29,0-7.85-3.49-7.94-7.78-.09-4.38,3.4-8.01,7.77-8.1.02,0,.19,0,.5-.03-3.43-1.52-5.67-2.84-6.24-3.18-3.74-2.27-4.95-7.15-2.7-10.9l.04.04h0ZM238.05,361.13c-1.13.93-1.29,2.6-.37,3.72.55.66,13.3,15.99,30.95,19.13-.06-1.79-.1-3.59-.1-5.42-15.2-3.23-26.64-16.93-26.76-17.08-.53-.63-1.28-.97-2.05-.97-.6,0-1.18.2-1.68.61h0ZM297.63,364.93c8.53-7.09,22.53-10.22,25.64-10.85.47-.1.93-.15,1.4-.18,1.69-.52,2.78-.74,2.86-.75,1.87-.35,3.14-1.81,3.14-3.43,0-.24-.03-.49-.09-.74-.46-1.89-2.58-3.11-4.74-2.7-.9.17-19.72,3.89-28.17,18.45,0,.07-.02.13-.03.2h0ZM329.23,361.26c-.49-1.88-2.64-3.07-4.78-2.64-1.69.34-14.62,3.1-22.4,9.07h16.11c3.26-1.1,6.29-1.88,8.08-2.24,1.85-.37,3.1-1.82,3.1-3.41,0-.26-.03-.53-.11-.79ZM320.42,372.38h-23.69c.3,1.7.46,3.46.46,5.26s-.16,3.56-.46,5.26h23.69c3.3,0,5.99-2.35,5.99-5.26s-2.68-5.26-5.99-5.26ZM314.48,387.57h-14.07c7.45,6.93,22.22,10.08,24.03,10.44,2.15.43,4.29-.74,4.78-2.64.07-.26.11-.53.11-.79,0-1.6-1.25-3.04-3.1-3.41-2.45-.5-7.24-1.75-11.75-3.6h0ZM327.51,403.51c-.07,0-1.16-.23-2.85-.75-.47-.03-.93-.08-1.4-.18-3.12-.63-17.27-3.8-25.78-10.98h0c8.37,14.81,27.44,18.59,28.35,18.76,2.16.41,4.28-.8,4.74-2.7.06-.24.09-.5.09-.74,0-1.61-1.28-3.07-3.14-3.43h0ZM241.73,348.09c-1.22.8-1.56,2.44-.77,3.66.28.44,4.44,6.7,11.49,12.7,4.08,3.35,9.76,7.07,16.14,8.67.04-1.64.11-3.26.2-4.87-14-5.28-23.29-19.24-23.4-19.39-.51-.77-1.36-1.2-2.22-1.2-.5,0-1,.14-1.45.43h0ZM266.05,324.23c0-10.59,2.41-17.75,2.51-18.06v-.03l.02-.03c.08-.23.13-.47.13-.7,0-.85-.58-1.88-1.86-2.23-1.4-.39-2.9.29-3.34,1.52-.12.32-2.82,7.94-2.82,19.55,0,5.91.69,11.72,2.06,17.4.41.62,3.09,4.11,6.8,4.52-2.31-7.07-3.51-14.41-3.51-21.94h0ZM250.1,332.16c-.75-2-2.38-2.71-3.75-2.12-2,.87-2.12,2.12-1.75,4.37,1.49,4.62,2.5,6.99,7.22,14.2,3.03,3.76,9.3,10.54,17.33,14.07.14-1.61.29-3.19.47-4.77-.05-1.27-.09-2.55-.09-3.6-8.04-5.5-17.29-16.41-19.44-22.16h0ZM299.56,285.95l.04-.03c.65-.45,1.03-1.12,1.03-1.85,0-.36-.1-.89-.55-1.42-.59-.67-1.35-.85-1.76-.9-.41-.05-1.2-.06-1.97.46-.06.04-6.4,4.35-12.62,14.05-4.06,6.34-8.67,16-11.02,29.33.07,3.1.38,6.51,1.02,10.13,1.56-5.86,3.44-11.25,5.58-16.08,5.75-22.73,18.4-32.37,20.21-33.65l.04-.03h0ZM300.95,349.31c-.5,1.61-.96,3.29-1.37,5,7.68-7.16,17.25-10.54,22.08-11.88,2.98-1.13,5.12-1.38,5.41-1.41,2.05-.19,3.58-1.7,3.58-3.49,0-.11,0-.22-.02-.33-.21-1.92-2.16-3.34-4.36-3.15-.82.07-15.06,1.47-25.33,15.25h0ZM331.82,320.23c-.81-1.8-3.13-2.69-5.18-1.97-.41.15-3.36,1.2-7.45,3.44-5.45,4.05-9.93,9.35-13.42,15.85,4.12-3.03,8.21-4.95,11.62-6.15,6.3-4.47,11.62-6.42,12.18-6.62,1.56-.55,2.52-1.87,2.52-3.26,0-.43-.09-.87-.28-1.29h0ZM400.18,403.46c-.28,0-.57.02-.85.02-13.56,0-24.54-10.99-24.54-24.54s10.99-24.54,24.54-24.54c.33,0,.65,0,.98.03-2.42-6.17-5.7-11.82-9.71-16.68-7.4,2.39-25.87,11.36-26.36,41.25v1.13c0,27.19,14.65,39.88,23.19,43.74,4.83-5.37,9.55-12.74,12.73-20.4h0ZM337.22,436.79c4.71,1.57,9.68,2.43,14.82,2.43,11.34,0,22.03-3.59,33.8-14-10.88-5.68-30.91-20.83-30.91-46.35.51-31.1,18.7-43.18,29.41-47.62-8.95-7.9-20.15-12.62-32.31-12.62-5.09,0-10,.84-14.65,2.37,0,.17.03.33.03.5,0,3.38-2.31,6.37-5.89,7.61-.16.06-.8.29-1.78.72,3.31,1.03,5.82,3.66,6.17,6.93.03.27.04.53.04.78,0,2.41-1.18,4.58-3.08,6.08,1.45,1.14,2.46,2.65,2.87,4.36.14.57.21,1.14.21,1.72,0,2.7-1.55,5.15-3.96,6.65,1.14,1.04,2,2.34,2.39,3.86.16.6.23,1.22.23,1.84,0,3.78-2.89,7-7.05,7.92,2.51,1.83,4.12,4.58,4.12,7.67,0,3.71-2.33,6.95-5.77,8.66.51.12,1.01.23,1.47.33,4.25.86,7.23,4.13,7.23,7.97,0,.62-.08,1.24-.24,1.85-.39,1.5-1.24,2.8-2.38,3.84,2.39,1.5,3.96,3.96,3.96,6.65,0,.58-.07,1.16-.21,1.73-.41,1.7-1.42,3.2-2.87,4.35,1.89,1.5,3.08,3.67,3.08,6.09,0,.25,0,.51-.04.77-.36,3.27-2.87,5.91-6.17,6.94.99.43,1.64.67,1.8.72,3.55,1.24,5.86,4.22,5.86,7.6h0c0,.57-.07,1.11-.2,1.66h0ZM314.53,432.16c6.41,4.18,11.55,6.04,12.12,6.23,2.05.71,4.37-.18,5.18-1.97.19-.42.28-.86.28-1.29,0-1.4-.96-2.71-2.52-3.26-.56-.2-5.88-2.15-12.18-6.61-3.68-1.3-8.16-3.42-12.61-6.88,2.63,5.36,5.87,9.97,9.74,13.79h0ZM326.29,422.58c2.2.19,4.14-1.23,4.36-3.15,0-.12.02-.22.02-.33,0-1.79-1.53-3.3-3.58-3.49-.28-.03-2.42-.27-5.4-1.41-4.91-1.36-14.74-4.82-22.47-12.23.34,1.53.71,3.02,1.12,4.46,10.31,14.6,25.13,16.07,25.97,16.14h0ZM283.74,459.27c6.22,9.71,12.56,14.01,12.62,14.05.76.51,1.56.51,1.96.46.41-.05,1.18-.23,1.76-.9.45-.52.55-1.05.55-1.41,0-.73-.37-1.41-1.03-1.86l-.05-.03-.04-.03c-1.78-1.26-13.9-10.53-19.81-32.2-2.39-5.24-4.46-11.19-6.15-17.69-.59,3.66-.83,7.09-.85,10.2,2.34,13.37,6.96,23.05,11.04,29.4h0ZM263.51,449.67c.44,1.23,1.94,1.91,3.34,1.52,1.28-.36,1.86-1.38,1.86-2.23,0-.23-.04-.47-.13-.7v-.03l-.02-.03c-.11-.3-2.51-7.46-2.51-18.06,0-7.66,1.88-17,4.53-24.9-.21-1.34-.4-2.7-.59-4.06-1.62.72-3.36,1.39-5.28,2.11-3.05,8.09-4.02,19.53-4.02,26.84,0,11.61,2.71,19.23,2.82,19.55h0ZM247.15,421.63c1.44.35,2.98-.3,3.38-1.45,1.14-3.28,3.99-10.06,9.25-16.16-2.89.9-5.64,1.53-8.09,1.98-5.77,7.87-6.15,12.72-6.31,13.14-.06.18-.09.35-.09.52,0,.71.59,1.63,1.87,1.95h0ZM241.66,396.52c-1.46.03-2.63,1.24-2.59,2.7.03,1.45,1.21,2.6,2.65,2.6h.05c.63,0,11.17-.29,22.04-4.92-4-.29-7.79-1.02-11.23-1.94-6.14,1.44-10.82,1.57-10.91,1.57h0ZM238.54,383.49c.64.39,13.85,8.25,28.99,8.25.5,0,1.01,0,1.5-.03-.06-.77-.12-1.54-.17-2.32-5.78-.87-11.06-2.87-15.68-5.32-6.96-2.17-11.83-5.05-11.91-5.11-.43-.25-.9-.38-1.37-.38-.9,0-1.77.46-2.27,1.28-.75,1.25-.35,2.87.9,3.63h0Z"/>
      <circle cx="360.25" cy="331.22" r="4.86"/>
      <circle cx="349.78" cy="345.87" r="4.76"/>
      <circle cx="343.46" cy="366.24" r="4.57"/>
      <circle cx="343.67" cy="386.27" r="3.99"/>
      <circle cx="346.11" cy="404.64" r="4.38"/>
      <circle cx="348.56" cy="419.95" r="3.58"/>
      <circle cx="354.65" cy="431.2" r="3.43"/>
    </g>
    <circle cx="360.08" cy="422.47" r="2.68"/>
    <circle cx="356.5" cy="413.24" r="2.79"/>
  </g>
  <path d="M211.65,460.74v12.22c0,2.92-.05,6.11-.18,9.49h8.55c.08-3.41.09-6.6.1-9.48h0v-12.21c11.81-2.02,20.82-12.32,20.82-24.7,0-5.39-1.73-10.37-4.64-14.46v-.02h.14c-3.3-4.71-8.21-8.31-14.19-9.86-1.06-.27-2.13-.46-3.18-.6.65-2.78,6.17-26.21,6.17-26.21,0,0-8.28,11.46-8.75,14.29-.47-2.83-8.75-14.29-8.75-14.29,0,0,5.44,23.1,6.14,26.1-6,.51-11.58,3.16-15.75,7.38h0s-.1.11-.16.17c-.08.09-.16.17-.23.25-4.27,4.49-6.9,10.56-6.9,17.23,0,12.37,9.01,22.68,20.82,24.7ZM215.88,421.57c9.14,0,17.64,5.32,17.64,14.46s-8.5,16.58-17.64,16.58-17.64-7.44-17.64-16.58,8.5-14.46,17.64-14.46Z"/>
  <path d="M202.57,597.39l-4.41,2.3c14.15-63.11,14-116.99,14-117.53l7.81-.05c0,.55.91,55.93-17.4,115.28Z"/>
</svg>