<?xml version="1.0" encoding="UTF-8"?>
<svg id="Layer_1" xmlns="http://www.w3.org/2000/svg" version="1.1" viewBox="0 0 432.91 600">
  <!-- Generator: Adobe Illustrator 30.1.0, SVG Export Plug-In . SVG Version: 2.1.1 Build 136)  -->
  <defs>
    <style>
      .st0 {
        fill: #fff;
      }
    </style>
  </defs>
  <g id="background">
    <path class="st0" d="M204.05,69.71c-8.45-5.55-18.28-5.51-21.94.09-3.68,5.59.2,14.63,8.65,20.18,8.45,5.54,18.28,5.51,21.94-.09,3.68-5.59-.2-14.63-8.65-20.18ZM181.37,57.39c.04.15.16.27.33.29l.22.02s.34.05.95.09c.62.03,1.55.12,2.68.12,2.28.03,5.48-.08,9.19-.5,1.86-.22,3.86-.51,5.94-.89,2.08-.38,4.26-.82,6.47-1.39,1.13-.25,2.23-.56,3.37-.89,1.13-.3,2.27-.63,3.4-1.01,1.4-.42,2.8-.9,4.2-1.4,3.97,10.19-1.88,17.68-2.15,18.02-.91,1.11-.74,2.74.37,3.65.49.4,1.07.6,1.65.6.68,0,1.36-.28,1.85-.8.36-.11.76-.24,1.19-.39,1.9-.66,4.53-1.69,7.57-3.12,3.02-1.42,6.45-3.22,9.99-5.34,3.56-2.1,7.19-4.55,10.72-7.13,3.52-2.6,6.95-5.33,10.02-8.09,3.08-2.74,5.83-5.46,8.09-7.94,2.27-2.47,4.04-4.68,5.23-6.3.61-.79,1.04-1.47,1.36-1.92.3-.44.46-.7.46-.7,0,0-.29.07-.81.23-.51.16-1.29.37-2.23.7-1.9.66-4.53,1.69-7.57,3.11s-6.45,3.23-9.99,5.36c-3.56,2.1-7.19,4.55-10.72,7.14-3.51,2.6-6.94,5.33-10.01,8.1-3.08,2.74-5.83,5.46-8.09,7.94-.6.65-1.15,1.28-1.68,1.89,1.45-4.14,2.28-10.02-.36-16.83,1.51-.6,2.99-1.2,4.45-1.88.55-.24,1.1-.48,1.64-.72.53-.26,1.06-.52,1.59-.78,1.05-.51,2.1-1,3.1-1.55,2.04-1.05,3.96-2.16,5.78-3.25,1.81-1.1,3.49-2.2,5.03-3.27,1.53-1.07,2.92-2.11,4.13-3.09,1.21-.96,2.24-1.85,3.09-2.63.85-.75,1.47-1.43,1.93-1.85.43-.44.66-.72.66-.72l.14-.16c.09-.1.12-.25.07-.4,0-.01-.01-.01-.01-.02.31-.63.38-1.38.11-2.08-.51-1.34-2.02-2.03-3.36-1.52l-20.37,7.71,6.15-13.64c1.18-2.62.02-5.71-2.61-6.9-2.62-1.18-5.71-.01-6.9,2.61l-7.87,17.47-8.37-22.1c-1.02-2.69-4.03-4.05-6.72-3.02-2.7,1.02-4.05,4.02-3.04,6.72l8.39,22.16-17.56-7.91c-2.62-1.18-5.71-.02-6.9,2.61-1.19,2.62-.02,5.71,2.6,6.9l13.65,6.15-20.37,7.71c-1.34.51-2.03,2.02-1.52,3.36.27.72.81,1.23,1.46,1.49v-.02ZM151.72,164.1c-1.29,0-2.59.41-3.69,1.25-2.68,2.04-3.19,5.85-1.15,8.53.38.5,5.7,7.24,17.86,12.37-.94.73-1.69,1.73-2.08,2.96-1.02,3.2.75,6.62,3.95,7.64.47.14,6.64,2.04,15.85,2.04,1.1,0,2.23-.02,3.42-.09-1.31,1.52-1.88,3.68-1.28,5.77.74,2.66,3.09,4.39,5.63,4.39.54,0,1.1-.08,1.65-.25.83-.25,4.95-1.55,9.59-4.05.79.46,1.59.87,2.33,1.24.37.18.74.37,1.11.56,2.82,1.45,5.43,2.55,7.93,3.33.23.39.52.86.8,1.45.16.34.33.68.51,1.05.15.4.31.81.49,1.24.2.43.34.9.5,1.4.14.49.34,1,.48,1.53.24,1.07.59,2.23.74,3.47.09.61.23,1.25.28,1.9s.1,1.31.15,1.97c.02.34.07.68.07,1.02v1.03c-.02.7-.03,1.4-.03,2.1-.11,1.4-.27,2.81-.43,4.24-.29,1.41-.57,2.8-.85,4.14-.4,1.34-.79,2.65-1.17,3.87-.39,1.25-.92,2.35-1.33,3.44-.43,1.06-.82,2.07-1.29,2.88-.44.85-.82,1.57-1.14,2.18-.56,1.07-.91,1.75-.99,1.9-.01,0,0,0,0,0h.01c.13-.11.73-.59,1.67-1.33.54-.43,1.2-.96,1.96-1.57.79-.59,1.56-1.37,2.44-2.2.86-.86,1.86-1.73,2.81-2.79.92-1.08,1.91-2.22,2.92-3.4.93-1.26,1.86-2.59,2.84-3.98.86-1.43,1.73-2.93,2.56-4.47.37-.79.75-1.59,1.12-2.39l.54-1.2c.17-.4.31-.81.47-1.23.3-.83.61-1.66.9-2.47.28-.82.48-1.66.72-2.48.5-1.65.76-3.3,1.06-4.87.15-.79.22-1.57.31-2.33.1-.75.18-1.49.21-2.2.03-.73.08-1.41.11-2.07v-.54c2.02-.76,3.94-1.67,5.79-2.61.31-.16.63-.31.94-.48,1.18-.57,2.48-1.23,3.72-2.05,5.14,2.97,9.96,4.5,10.89,4.77.55.17,1.1.25,1.64.25,2.55,0,4.89-1.73,5.64-4.39.57-2.06.05-4.18-1.21-5.69.52,0,1.03,0,1.53,0,9.22,0,15.4-1.9,15.85-2.04,3.2-1.02,4.97-4.45,3.95-7.64-.42-1.37-1.3-2.46-2.41-3.2,11.77-5.1,16.95-11.64,17.31-12.13,2.04-2.68,1.53-6.49-1.15-8.53-1.1-.83-2.4-1.25-3.69-1.25-1.81,0-3.61.81-4.8,2.35-.22.27-1.98,2.36-5.7,4.82.65-.62,1.29-1.25,1.91-1.9,16.06-16.9,15.2-38.86,15.16-39.78-.17-3.59-3.22-6.34-6.8-6.19-3.59.16-6.36,3.2-6.22,6.79,0,.1.15,4.98-1.51,11.44,2.73-18.81-4.51-36.65-4.92-37.62-1.38-3.33-5.19-4.9-8.52-3.52-3.32,1.39-4.9,5.2-3.51,8.52.05.14,3.11,7.65,4.2,17.35-4.3-16.11-20.6-28.71-41.05-31.55-2.22-2.7-5.32-4.38-8.74-4.38s-6.53,1.68-8.75,4.38c-12.16,1.69-22.85,6.82-30.43,14.11l-.16.04s0,.03.03.09c-5.07,4.91-8.72,10.79-10.45,17.23,1.08-9.63,4.09-17.1,4.15-17.26,1.38-3.33-.2-7.13-3.52-8.52-3.32-1.38-7.13.2-8.52,3.52-.4.98-7.65,18.81-4.92,37.61-1.64-6.41-1.51-11.26-1.5-11.43.16-3.58-2.61-6.62-6.2-6.8-3.6-.16-6.65,2.6-6.82,6.2-.04.85-.76,19.29,11.41,35.37-.94-.56-2.03-.87-3.11-.87h-.07ZM237.16,69.71c-8.45,5.55-12.33,14.58-8.65,20.18,3.68,5.59,13.5,5.63,21.95.09,8.46-5.55,12.33-14.58,8.65-20.18-3.68-5.59-13.5-5.64-21.95-.09ZM175.12,238.25s22.92,22.18,29.41,32.69c6.26,10.15,11.15,30.13,12.01,33.77-2.17.17-4.25.61-6.23,1.29-2.56-7.91-11.97-32.84-30.67-39.49-20.66-7.33-29.86-.29-30.97,3.33-1.13,3.62-.23,8.04,4.48,11.46,4.72,3.42,25,11.07,25,11.07,0,0,8.2,3,13.58,7.83,4.34,3.89,8.52,8.94,9.99,10.77-5.39,4.71-8.8,11.62-8.8,19.32,0,12.67,9.24,23.22,21.33,25.29v45.04h8.7v-45.04c12.09-2.07,21.33-12.62,21.33-25.29,0-7.55-3.29-14.34-8.48-19.04,1.19-1.51,5.62-6.93,10.21-11.05,5.38-4.82,13.57-7.83,13.57-7.83,0,0,20.3-7.65,25-11.07,4.71-3.42,5.61-7.84,4.49-11.46-1.13-3.62-10.32-10.66-30.99-3.33-18.83,6.69-28.24,31.92-30.73,39.65-1.76-.64-3.6-1.08-5.52-1.33.76-3.24,5.69-23.6,12.05-33.89,6.48-10.51,29.4-32.69,29.4-32.69l37.63-32.29s6.7-6.59.36-12.79c-4.92-4.82-8.72-5.27-14.85-1.36-5.5,3.5-27.65,22.04-37.01,33.24-8.04,9.62-21.05,23.79-26.39,44.03-1.66,6.28-2.89,12.53-3.81,18.05-.91-5.52-2.15-11.77-3.81-18.05-5.33-20.24-18.36-34.41-26.39-44.03-9.37-11.2-31.52-29.74-37.01-33.24-6.14-3.91-9.93-3.47-14.86,1.36-6.34,6.2.36,12.79.36,12.79l37.63,32.29h0ZM206.14,308.25c-.12-.47-.22-1.17-.46-2.03-.29-.86-.54-1.92-1.08-3.05-.25-.56-.49-1.18-.85-1.79-.35-.6-.63-1.28-1.07-1.91-.8-1.3-1.77-2.65-2.92-3.97-.59-.65-1.16-1.34-1.83-1.97-.65-.65-1.3-1.32-2.03-1.94-.36-.31-.73-.64-1.08-.96-.38-.3-.76-.61-1.14-.92-.76-.63-1.57-1.19-2.39-1.79-.8-.61-1.67-1.14-2.5-1.71-.87-.53-1.73-1.07-2.61-1.59-1.77-1.03-3.55-2.04-5.36-2.93-1.79-.91-3.6-1.73-5.36-2.5-1.77-.75-3.48-1.47-5.13-2.1-1.64-.64-3.2-1.21-4.66-1.71-2.91-1-5.36-1.78-7.08-2.28-1.51-.43-2.46-.69-2.68-.75.22.04,1.18.23,2.72.59,1.75.42,4.25,1.04,7.19,1.97,1.47.46,3.07,1,4.74,1.58,1.66.6,3.42,1.26,5.19,2.01,1.78.76,3.61,1.57,5.42,2.47,1.83.89,3.64,1.88,5.44,2.91.88.53,1.76,1.08,2.62,1.64.85.6,1.71,1.14,2.53,1.76.81.61,1.64,1.19,2.4,1.84.39.31.77.64,1.15.94.37.34.73.66,1.08.99,1.45,1.29,2.72,2.69,3.85,4.08,1.13,1.38,2.07,2.78,2.85,4.12.43.65.7,1.34,1.03,1.97.34.63.54,1.27.77,1.85.49,1.17.69,2.26.94,3.12.21.88.25,1.59.34,2.06.04.29.08.51.09.63-.02-.12-.07-.33-.13-.62h.01ZM232.01,308.23c.09-.47.13-1.18.35-2.06.24-.87.46-1.95.94-3.12.22-.59.43-1.23.76-1.85.34-.63.61-1.32,1.03-1.97.78-1.34,1.73-2.74,2.85-4.12,1.13-1.39,2.4-2.79,3.85-4.08.36-.33.73-.65,1.08-.99.39-.3.77-.63,1.15-.94.76-.65,1.59-1.24,2.41-1.84.81-.62,1.68-1.16,2.53-1.76.87-.55,1.73-1.11,2.62-1.64,1.79-1.03,3.6-2.02,5.43-2.91,1.82-.9,3.65-1.71,5.42-2.47,1.79-.75,3.53-1.41,5.2-2.01,1.67-.59,3.25-1.13,4.73-1.58,2.95-.93,5.44-1.55,7.2-1.97,1.53-.36,2.49-.54,2.72-.59-.22.05-1.17.31-2.68.75-1.73.5-4.18,1.28-7.09,2.28-1.45.5-3.01,1.07-4.66,1.71-1.64.63-3.35,1.36-5.12,2.1-1.76.77-3.57,1.59-5.37,2.5-1.8.89-3.59,1.9-5.34,2.93-.89.52-1.75,1.06-2.61,1.59-.85.57-1.7,1.11-2.52,1.71-.8.6-1.63,1.16-2.37,1.79-.39.31-.77.62-1.15.92-.36.33-.72.65-1.07.96-.73.62-1.39,1.29-2.04,1.94-.67.63-1.24,1.32-1.83,1.97-1.14,1.32-2.11,2.67-2.92,3.97-.44.63-.73,1.31-1.07,1.91-.36.61-.6,1.23-.85,1.79-.53,1.13-.79,2.19-1.07,3.05-.25.86-.35,1.56-.47,2.03-.07.29-.11.5-.13.62.01-.12.04-.34.09-.63h0ZM175.97,468.22c.22-.63,3.2-9.13,3.2-21.82,0-1.51-.04-3.08-.14-4.69,2.37,1.81,5.76,2.57,9.04,1.76,4.16-1.02,6.87-4.25,6.87-7.75,0-.75-.13-1.51-.38-2.27-.35-1-1.93-5.4-4.89-10.7.95.07,1.64.09,1.97.09h.15c4.39,0,8.04-3.57,8.13-7.96.1-4.48-3.48-8.21-7.96-8.29-.01,0-.2-.01-.51-.03,3.51-1.56,5.81-2.91,6.39-3.26,3.84-2.31,5.07-7.32,2.76-11.16-1.21-2.02-3.27-3.38-5.56-3.79,2.81-2.66,4.56-4.74,5.06-5.33,2.84-3.47,2.33-8.6-1.13-11.44-.78-.65-1.68-1.13-2.63-1.44.36-.46.61-.8.75-1.01,2.45-3.75,1.39-8.79-2.36-11.24-1.16-.77-2.5-1.2-3.89-1.29,1.43-3.08,1.85-3.09,2.59-6.79,1.53-7.67-1.2-10.34-5.37-11.37-3.24-.79-6.53.13-9.09,5.5.02-.72.18-5.24.18-5.92,0-12.7-2.98-21.21-3.2-21.84-1.6-4.4-6.96-6.84-11.98-5.44-2.13.6-3.84,1.8-5,3.32-7.99-16.22-18.25-23.33-19.02-23.85-4.18-2.8-10.17-2.09-13.36,1.58-1.32,1.52-1.95,3.31-1.95,5.08,0,2.49,1.27,4.97,3.68,6.61.39.28,3.15,2.32,6.55,6.56-.34-.18-.67-.36-1.01-.52-.31-.27-.63-.55-.94-.81-26.49-22.12-60.88-20.94-62.33-20.87-5.62.24-9.94,4.42-9.69,9.36.25,4.94,5.01,8.78,10.62,8.58.15,0,7.8-.21,17.92,2.07-29.46-3.76-57.41,6.21-58.95,6.78-5.2,1.91-7.67,7.17-5.51,11.74,2.17,4.58,8.14,6.74,13.36,4.85.22-.08,11.98-4.29,27.17-5.78-22.16,5.19-40.07,23.14-47.13,46.5-7.83,4.26-13.13,12.55-13.13,22.08s5.31,17.83,13.15,22.1c3.79,12.57,10.71,23.56,19.78,31.85l.07.22s.07-.01.14-.03c7.69,6.98,16.9,12,26.99,14.4-15.08-1.5-26.78-5.63-27.05-5.72-5.2-1.9-11.17.27-13.34,4.85-2.17,4.58.3,9.83,5.51,11.74,1.54.55,29.48,10.54,58.92,6.78-10.04,2.26-17.64,2.07-17.89,2.07-5.62-.23-10.39,3.59-10.66,8.53-.26,4.95,4.08,9.16,9.71,9.4,1.32.05,30.22,1.04,55.4-15.71-.89,1.3-1.34,2.79-1.34,4.28,0,1.78.63,3.57,1.95,5.08,3.19,3.68,9.17,4.38,13.36,1.58.78-.53,11.34-7.86,19.39-24.6,1.14,1.3,2.71,2.33,4.63,2.87,5.02,1.4,10.38-1.04,11.98-5.45l.02-.04ZM417.72,371.9c-7.06-23.36-24.98-41.31-47.14-46.5,15.19,1.49,26.96,5.7,27.18,5.78,5.2,1.9,11.19-.27,13.36-4.85,2.16-4.58-.3-9.83-5.52-11.74-1.53-.56-29.48-10.54-58.94-6.78,10.13-2.28,17.77-2.07,17.91-2.07,5.63.21,10.39-3.63,10.64-8.58.25-4.93-4.08-9.12-9.69-9.36-1.45-.07-35.84-1.25-62.33,20.87-.33.26-.63.54-.94.81-.35.16-.68.34-1.01.52,3.39-4.24,6.16-6.28,6.55-6.56,2.41-1.65,3.68-4.12,3.68-6.61,0-1.78-.64-3.57-1.95-5.08-3.19-3.68-9.17-4.38-13.36-1.58-.78.52-11.03,7.63-19.02,23.85-1.16-1.52-2.87-2.72-5-3.32-5.02-1.4-10.39,1.04-11.98,5.44-.23.63-3.21,9.14-3.21,21.84,0,.68.17,5.2.2,5.92-2.56-5.37-5.85-6.29-9.09-5.5-4.16,1.03-6.9,3.71-5.37,11.37.74,3.7,1.15,3.71,2.59,6.79-1.39.09-2.73.52-3.9,1.29-3.74,2.45-4.8,7.49-2.35,11.24.13.21.39.55.75,1.01-.95.31-1.85.79-2.65,1.44-3.46,2.84-3.96,7.97-1.12,11.44.49.6,2.26,2.68,5.06,5.33-2.29.41-4.35,1.78-5.56,3.79-2.31,3.84-1.07,8.85,2.75,11.16.59.36,2.88,1.7,6.4,3.26-.31.02-.5.03-.51.03-4.49.09-8.06,3.82-7.96,8.29.09,4.39,3.73,7.96,8.12,7.96h.16c.34,0,1.01-.02,1.97-.09-2.96,5.3-4.54,9.7-4.89,10.7-.26.76-.38,1.52-.38,2.27,0,3.5,2.71,6.73,6.87,7.75,3.29.81,6.67.05,9.03-1.76-.09,1.62-.14,3.19-.14,4.69,0,12.7,2.98,21.2,3.21,21.82,1.59,4.41,6.96,6.85,11.98,5.45,1.92-.54,3.49-1.57,4.63-2.87,8.04,16.74,18.59,24.07,19.39,24.6,4.18,2.8,10.17,2.09,13.36-1.58,1.31-1.52,1.95-3.31,1.95-5.08,0-1.5-.47-2.98-1.34-4.28,25.19,16.75,54.07,15.76,55.4,15.71,5.63-.24,9.97-4.45,9.71-9.4-.27-4.94-5.04-8.76-10.66-8.53-.26,0-7.85.18-17.9-2.07,29.46,3.76,57.4-6.22,58.92-6.78,5.21-1.91,7.68-7.17,5.52-11.74-2.17-4.58-8.13-6.74-13.35-4.85-.27.1-11.96,4.23-27.04,5.72,10.08-2.4,19.29-7.42,26.99-14.4.08.02.13.03.14.03l.07-.22c9.05-8.29,15.98-19.29,19.78-31.85,7.84-4.26,13.15-12.55,13.15-22.1s-5.31-17.82-13.13-22.08v.04ZM234.22,479.44c-5.05,1.3-9.14,4.51-11.99,8.16v-9.86c12.09-2.07,21.31-12.62,21.31-25.29,0-5.52-1.77-10.62-4.74-14.81h.12c-3.37-4.81-8.4-8.51-14.53-10.1-1.08-.28-2.18-.47-3.26-.61.67-2.84,6.32-26.84,6.32-26.84,0,0-8.48,11.73-8.96,14.63-.49-2.89-8.97-14.63-8.97-14.63,0,0,5.56,23.65,6.3,26.74-6.14.52-11.86,3.24-16.13,7.56h-.02s-.1.12-.15.17c-.09.09-.16.17-.25.26-4.37,4.6-7.07,10.8-7.07,17.64,0,12.66,9.24,23.21,21.33,25.28v11.19c-2.86-4.18-7.32-8.03-12.97-9.49-11.29-2.92-19.74-7.94-21.21-2.26-1.46,5.67,4.61,19.89,15.88,22.81,7.65,1.97,14.21,4.08,18.11,3.46-1.04,28.87-7.56,68.98-48.57,89.49l3.88,7.75c12.23-6.11,21.67-13.84,28.95-22.46,1.88,2.6,8.38,2.43,16.08,2.76,9.28.41,17.24-9.01,17.44-13.68s-7.4-2.82-16.7-3.23c-2.86-.13-5.61.54-8.02,1.67,12.08-20.69,14.93-44.1,15.6-62.23,3.95.35,10.23-1.65,17.52-3.52,11.28-2.92,17.36-17.14,15.88-22.81-1.46-5.68-9.92-.66-21.2,2.26h.02Z"/>
  </g>
  <g id="black">
    <path d="M233.87,270.94c6.49-10.51,29.41-32.7,29.41-32.7l37.63-32.28s6.7-6.6.36-12.8c-4.93-4.82-8.73-5.27-14.86-1.36-5.49,3.5-27.65,22.05-37.01,33.25-8.04,9.61-21.05,23.79-26.39,44.03-1.65,6.27-2.89,12.53-3.8,18.05-.91-5.51-2.15-11.78-3.8-18.05-5.34-20.24-18.35-34.42-26.39-44.03-9.36-11.2-31.52-29.74-37.01-33.25-6.14-3.91-9.93-3.46-14.86,1.36-6.34,6.2.36,12.8.36,12.8l37.63,32.28s22.92,22.19,29.41,32.7c6.26,10.14,11.15,30.12,12.01,33.77-2.16.17-4.25.61-6.23,1.29-2.56-7.91-11.97-32.84-30.67-39.48-20.66-7.33-29.86-.3-30.98,3.32s-.22,8.04,4.49,11.46c4.71,3.42,25,11.07,25,11.07,0,0,8.2,3,13.58,7.83,4.34,3.89,8.52,8.94,9.99,10.77-5.39,4.71-8.8,11.62-8.8,19.32,0,12.67,9.23,23.22,21.32,25.29v45.03h8.69v-45.03c12.09-2.07,21.32-12.62,21.32-25.29,0-7.55-3.28-14.34-8.48-19.04,1.2-1.51,5.62-6.93,10.21-11.04,5.38-4.83,13.58-7.83,13.58-7.83,0,0,20.29-7.65,25-11.07s5.61-7.84,4.49-11.46-10.32-10.66-30.98-3.32c-18.83,6.68-28.25,31.91-30.73,39.64-1.76-.64-3.61-1.09-5.52-1.33.76-3.25,5.69-23.61,12.04-33.89h-.01ZM218.58,347.27c-9.36,0-18.06-7.62-18.06-16.98s8.7-14.81,18.06-14.81,18.06,5.45,18.06,14.81-8.7,16.98-18.06,16.98ZM205.67,306.21c-.29-.85-.54-1.91-1.08-3.04-.25-.57-.49-1.19-.84-1.79s-.63-1.29-1.07-1.91c-.8-1.3-1.78-2.64-2.92-3.97-.59-.65-1.16-1.35-1.83-1.97-.65-.65-1.31-1.32-2.03-1.94-.36-.32-.72-.64-1.08-.96-.38-.3-.76-.61-1.14-.92-.75-.63-1.57-1.2-2.38-1.8-.81-.6-1.67-1.13-2.51-1.7-.86-.54-1.73-1.08-2.61-1.6-1.76-1.04-3.55-2.03-5.35-2.93-1.79-.92-3.6-1.73-5.36-2.51-1.77-.75-3.48-1.47-5.12-2.11-1.64-.64-3.21-1.21-4.66-1.71-2.91-1-5.36-1.78-7.08-2.27-1.73-.5-2.72-.76-2.72-.76,0,0,1.01.18,2.76.6s4.25,1.04,7.19,1.97c1.48.46,3.06.99,4.73,1.58s3.42,1.25,5.2,2.01,3.61,1.57,5.42,2.47c1.83.88,3.64,1.87,5.43,2.9.89.53,1.76,1.09,2.63,1.64.84.59,1.71,1.14,2.53,1.75.81.61,1.64,1.2,2.4,1.85.39.32.77.63,1.15.95.36.33.73.66,1.09.99,1.45,1.29,2.72,2.69,3.84,4.07s2.07,2.78,2.85,4.12c.43.65.7,1.35,1.03,1.98s.55,1.26.77,1.86c.49,1.16.7,2.25.94,3.12.21.88.25,1.59.34,2.06.07.48.11.73.11.73,0,0-.05-.25-.15-.72-.11-.47-.21-1.17-.46-2.03h-.02ZM232.02,308.24c.09-.47.13-1.19.34-2.06.24-.87.45-1.95.94-3.12.22-.59.44-1.23.77-1.86.33-.63.6-1.33,1.03-1.98.78-1.34,1.73-2.74,2.85-4.12,1.13-1.38,2.39-2.78,3.84-4.07.36-.33.72-.66,1.09-.99.38-.31.76-.63,1.15-.95.76-.65,1.58-1.23,2.4-1.85.81-.61,1.68-1.16,2.53-1.75.87-.55,1.74-1.11,2.63-1.64,1.79-1.03,3.61-2.02,5.43-2.9,1.82-.91,3.65-1.71,5.42-2.47,1.78-.76,3.53-1.41,5.2-2.01,1.67-.59,3.26-1.13,4.73-1.58,2.94-.93,5.44-1.55,7.19-1.97,1.75-.41,2.76-.6,2.76-.6,0,0-1,.26-2.72.76-1.73.49-4.17,1.27-7.08,2.27-1.46.5-3.02,1.07-4.66,1.71-1.64.63-3.36,1.36-5.12,2.11-1.76.77-3.57,1.59-5.36,2.51-1.81.89-3.59,1.89-5.35,2.93-.88.52-1.75,1.06-2.61,1.6-.84.57-1.7,1.11-2.51,1.7-.81.6-1.63,1.16-2.38,1.8-.38.31-.76.62-1.14.92-.36.32-.72.64-1.08.96-.73.62-1.38,1.29-2.03,1.94-.67.63-1.24,1.33-1.83,1.97-1.14,1.33-2.11,2.67-2.92,3.97-.44.63-.72,1.31-1.07,1.91-.36.6-.6,1.22-.84,1.79-.54,1.13-.79,2.19-1.08,3.04-.25.86-.35,1.56-.46,2.03-.1.47-.15.72-.15.72,0,0,.04-.25.11-.73h-.02Z"/>
    <path d="M218.58,446.35c-4.16,0-7.53,3.37-7.53,7.53s3.37,7.53,7.53,7.53,7.53-3.37,7.53-7.53-3.37-7.53-7.53-7.53Z"/>
    <path d="M151.72,164.11c-1.29,0-2.58.41-3.68,1.25-2.67,2.04-3.19,5.86-1.15,8.53.38.5,5.7,7.24,17.86,12.37-.95.73-1.69,1.74-2.08,2.96-1.02,3.2.75,6.62,3.95,7.64.46.15,6.63,2.05,15.85,2.05,1.09,0,2.23-.03,3.41-.09-1.31,1.51-1.87,3.67-1.28,5.77.75,2.66,3.09,4.39,5.63,4.39.54,0,1.09-.08,1.64-.24.84-.25,4.96-1.56,9.6-4.06.8.46,1.6.86,2.34,1.24.37.18.73.37,1.1.56,2.82,1.46,5.43,2.55,7.92,3.33.23.39.52.86.8,1.46.16.33.33.68.51,1.05.16.39.32.8.49,1.23.19.43.34.9.49,1.39s.34,1,.48,1.53c.25,1.07.59,2.23.74,3.47.09.61.23,1.25.28,1.9s.1,1.31.15,1.98c.02.34.06.68.07,1.02v1.03c-.02.7-.03,1.4-.04,2.1-.1,1.4-.27,2.81-.43,4.24-.29,1.41-.57,2.8-.84,4.15-.41,1.34-.8,2.64-1.17,3.87-.4,1.24-.92,2.35-1.34,3.43-.44,1.07-.83,2.07-1.29,2.89-.44.84-.82,1.58-1.13,2.18-.64,1.23-1.01,1.93-1.01,1.93,0,0,.42-.52,1.16-1.44.37-.45.82-1.01,1.34-1.64.54-.61,1.04-1.39,1.63-2.21.57-.83,1.25-1.68,1.84-2.67s1.2-2.03,1.87-3.09c.57-1.12,1.16-2.27,1.75-3.44.51-1.21,1.03-2.44,1.51-3.68.22-.63.43-1.26.65-1.89.22-.62.43-1.25.58-1.89.17-.63.33-1.26.5-1.89.16-.62.25-1.25.38-1.86.26-1.22.4-2.42.56-3.56.11-1.14.21-2.22.24-3.22s.04-1.92.01-2.74c0-.82-.08-1.53-.12-2.11-.07-.58-.11-1.04-.16-1.35-.04-.31-.08-.48-.08-.48,0,0,.2.65.4,1.81.08.58.21,1.29.28,2.11.04.41.07.85.11,1.31.01.46.03.95.04,1.46.02,1.01-.03,2.12-.1,3.28-.12,1.16-.19,2.39-.45,3.63-.12.62-.2,1.27-.36,1.9-.16.63-.32,1.28-.48,1.93-.14.65-.35,1.29-.57,1.93-.21.64-.42,1.29-.63,1.93-.5,1.26-1.06,2.5-1.59,3.72-.62,1.18-1.24,2.34-1.83,3.46-.68,1.08-1.35,2.1-1.99,3.07-.64.97-1.37,1.8-1.98,2.61-.62.8-1.18,1.54-1.77,2.12-.57.6-1.06,1.12-1.46,1.55-.82.85-1.28,1.33-1.28,1.33,0,0,.62-.49,1.69-1.35.54-.44,1.21-.97,1.97-1.58.79-.59,1.57-1.36,2.44-2.2.85-.85,1.87-1.74,2.8-2.79.93-1.08,1.91-2.22,2.92-3.4.93-1.26,1.86-2.6,2.83-3.98.86-1.43,1.74-2.93,2.56-4.47.37-.79.74-1.59,1.11-2.38l.55-1.2c.17-.41.31-.82.47-1.23.3-.83.6-1.66.89-2.47.29-.83.48-1.66.72-2.49.5-1.65.76-3.29,1.07-4.87.14-.79.21-1.57.31-2.32.09-.76.18-1.49.21-2.21.04-.72.07-1.41.11-2.06v-.54c2.01-.77,3.94-1.68,5.79-2.62.32-.16.63-.32.95-.48,1.17-.58,2.48-1.23,3.72-2.06,5.13,2.97,9.96,4.5,10.88,4.78.55.16,1.1.24,1.64.24,2.54,0,4.89-1.73,5.63-4.39.58-2.06.05-4.18-1.22-5.69.52,0,1.03.02,1.53.02,9.22,0,15.39-1.9,15.85-2.05,3.2-1.02,4.97-4.44,3.95-7.64-.43-1.36-1.31-2.45-2.41-3.19,11.77-5.1,16.94-11.64,17.31-12.14,2.04-2.67,1.52-6.49-1.15-8.53-1.1-.84-2.4-1.25-3.68-1.25-1.82,0-3.61.81-4.81,2.35-.22.27-1.98,2.37-5.7,4.83.65-.62,1.29-1.24,1.91-1.89,16.06-16.9,15.2-38.86,15.15-39.78-.17-3.59-3.22-6.34-6.8-6.19-3.59.16-6.37,3.2-6.23,6.79,0,.09.16,4.97-1.5,11.44,2.73-18.8-4.52-36.64-4.92-37.62-1.38-3.32-5.2-4.9-8.52-3.52-3.33,1.38-4.9,5.2-3.52,8.52.06.14,3.11,7.65,4.2,17.35-4.3-16.11-20.59-28.71-41.04-31.55-2.23-2.7-5.33-4.38-8.75-4.38s-6.52,1.68-8.75,4.38c-12.16,1.69-22.85,6.82-30.43,14.1l-.16.04s0,.04.03.09c-5.07,4.91-8.71,10.79-10.45,17.23,1.09-9.62,4.09-17.09,4.16-17.26,1.38-3.32-.2-7.13-3.52-8.51-3.32-1.38-7.14.19-8.52,3.52-.41.98-7.65,18.81-4.93,37.61-1.64-6.41-1.5-11.26-1.5-11.42.16-3.59-2.61-6.63-6.2-6.8-3.6-.17-6.65,2.6-6.82,6.2-.04.85-.75,19.29,11.41,35.36-.95-.57-2.03-.86-3.12-.86l.02-.03ZM183.92,114.93c4.22,7.11,14.21,18.03,35.73,18.03h.92c23.12-.33,32.11-12.22,35.4-19.23,5.87,5.84,9.38,13.17,9.38,21.12,0,3.32-.62,6.53-1.76,9.58-.12,0-.25-.02-.37-.02-2.51,0-4.73,1.51-5.66,3.85-.04.1-.22.52-.53,1.16-.77-2.16-2.72-3.8-5.15-4.04-.2-.02-.39-.03-.58-.03-1.79,0-3.41.77-4.53,2.01-.85-.95-1.97-1.61-3.24-1.88-.42-.09-.85-.14-1.28-.14-2.01,0-3.83,1.02-4.94,2.59-.77-.75-1.74-1.31-2.86-1.56-.44-.1-.9-.16-1.36-.16-2.81,0-5.21,1.89-5.89,4.61-1.36-1.64-3.41-2.69-5.7-2.69-2.76,0-5.17,1.52-6.44,3.77-.09-.33-.17-.66-.24-.97-.64-2.78-3.07-4.72-5.92-4.72-.46,0-.92.05-1.37.16-1.12.26-2.09.81-2.85,1.56-1.11-1.56-2.94-2.58-4.95-2.58-.43,0-.86.05-1.28.14-1.26.27-2.38.93-3.23,1.87-1.12-1.24-2.73-2.01-4.53-2.01-.19,0-.38,0-.57.03-2.44.23-4.39,1.87-5.16,4.04-.32-.65-.5-1.07-.54-1.18-.92-2.32-3.14-3.83-5.65-3.83h0c-.42,0-.83.05-1.24.13-1.17-3.08-1.81-6.33-1.81-9.69,0-7.41,3.05-14.28,8.23-19.91h-.03ZM220.52,119.96c6.8,0,12.31-6.61,12.31-14.76,0-1.27-.15-2.49-.4-3.66,7.09,1.51,13.49,4.33,18.71,8.11-1.78,4.84-8.44,16.91-30.67,17.22h-.84c-20.21,0-28.32-10.55-31.19-16.14,5.47-4.32,12.4-7.55,20.16-9.2-.25,1.17-.4,2.39-.4,3.66,0,8.15,5.51,14.76,12.31,14.76h.01ZM289.62,169.18l.02-.03.02-.03c.33-.43.83-.67,1.38-.67.27,0,.66.06,1.05.36.5.38.63.88.67,1.15.04.27.04.79-.34,1.29-.03.04-3.23,4.18-10.45,8.25-4.71,2.66-11.89,5.67-21.8,7.2-2.57-.05-5.43-.28-8.47-.81,3.44-.76,6.71-1.72,9.8-2.88,19.13-3.38,27.1-12.57,28.11-13.83h.01ZM261.18,191.05c7.87,0,13.2-1.58,13.42-1.64h.02l.02-.02c.17-.05.35-.08.52-.08.63,0,1.39.38,1.66,1.21.29.91-.22,1.89-1.13,2.18-.24.07-5.9,1.84-14.53,1.84-4.39,0-8.71-.45-12.94-1.35-.45-.27-.9-.54-1.33-.83-.45-1.34-1.14-2.56-2.03-3.62,5.26,1.51,10.72,2.29,16.31,2.29v.02ZM256.67,203.4c-.23.83-.92,1.21-1.45,1.21-.13,0-.26-.02-.39-.06-.55-.16-12.32-3.78-18.2-11.06.81-.8,1.51-1.66,2.08-2.58,4.09,5.25,12.58,8.96,16.89,10.28.84.25,1.33,1.26,1.06,2.21h.01ZM234.89,200.27c-5.61,2.84-9.47,4-13.32,4s-8.23-1.27-13.47-3.98h0c1.22-.99,2.37-2.08,3.42-3.26,2.9,1.34,6.31,2.11,9.97,2.11,4.41,0,8.47-1.13,11.69-3.01.98,1.22,2.08,2.35,3.25,3.38-.17.09-.35.17-.53.27-.33.17-.67.33-1,.5h-.01ZM190.61,204.56c-.13.04-.26.06-.39.06-.53,0-1.21-.38-1.45-1.22-.26-.94.22-1.95,1.07-2.21,3.87-1.18,11.13-4.29,15.53-8.72.68.81,1.47,1.57,2.35,2.25-6.13,6.46-16.6,9.68-17.12,9.83h.01ZM166.8,190.53c.27-.84,1.02-1.21,1.66-1.21.17,0,.35.03.52.08h.02l.02.02c.22.07,5.55,1.64,13.42,1.64,7.04,0,13.85-1.22,20.33-3.61.09.37.19.73.32,1.09-1.17,1.43-2.84,2.77-4.71,3.96-5.16,1.36-10.49,2.06-15.92,2.06-8.63,0-14.3-1.77-14.53-1.84-.91-.29-1.42-1.27-1.13-2.18h0ZM150.34,171.25c-.38-.5-.38-1.02-.34-1.29s.17-.77.67-1.15c.39-.29.78-.36,1.05-.36.54,0,1.04.24,1.38.67l.02.03.02.03c.94,1.17,7.98,9.27,24.48,13.08,3.96,1.63,8.21,2.93,12.77,3.87-2.78.4-5.39.56-7.74.57-9.94-1.53-17.14-4.55-21.86-7.21-7.21-4.07-10.41-8.21-10.45-8.25h0ZM177.78,148.06c.31-.12.64-.18.96-.18,1.04,0,2.02.63,2.42,1.65.15.36,1.59,3.84,4.92,7.96.96,2.41,2.54,5.33,5.12,8.24-3.99-1.72-7.41-3.84-10.25-6.36-3.11-4.19-4.49-7.55-4.63-7.92-.53-1.34.13-2.85,1.47-3.38h-.01ZM188.06,151.68c-.14-1.43.91-2.71,2.35-2.84.08,0,.17,0,.25,0,1.33,0,2.46,1,2.59,2.34.02.19.2,1.58,1.04,3.53,1.01,3.21,3.59,9.63,9.09,14.69-1.14-.22-2.24-.47-3.32-.73-10.85-6.74-11.95-16.42-12-16.97h0ZM197.15,151.98c-.3-1.41.6-2.79,2-3.1.18-.04.37-.06.55-.06,1.2,0,2.28.84,2.54,2.06.01.05.18.76.56,1.87.02.3.06.61.13.91.47,2.04,2.82,11.28,8.16,16.85h0c-11.01-5.47-13.82-17.94-13.95-18.53h.01ZM206.33,152.88c-.32-1.4.56-2.8,1.96-3.12.2-.05.39-.07.59-.07,1.19,0,2.26.82,2.54,2.03.37,1.6,1.3,4.73,2.68,7.68v9.2c-5.15-4.87-7.49-14.52-7.76-15.71h0ZM225.39,171c-1.26-.2-2.57-.3-3.91-.3s-2.65.11-3.91.3v-15.48c0-2.16,1.75-3.91,3.91-3.91s3.91,1.75,3.91,3.91v15.48ZM230.53,151.72c.28-1.21,1.35-2.03,2.54-2.03.19,0,.39.02.59.07,1.4.32,2.28,1.72,1.96,3.12-.25,1.1-2.3,9.55-6.74,14.64v-10.53c.82-2.13,1.39-4.11,1.66-5.28h-.01ZM239.69,150.88c.26-1.22,1.34-2.06,2.54-2.06.18,0,.37.02.55.06,1.41.3,2.31,1.69,2,3.1-.13.59-2.89,12.89-13.71,18.42-.05,0-.1,0-.15.02,5.27-5.58,7.6-14.73,8.07-16.75.07-.3.11-.61.13-.91.38-1.11.55-1.82.56-1.87h0ZM248.69,151.17c.14-1.34,1.26-2.34,2.59-2.34.08,0,.17,0,.25,0,1.43.14,2.48,1.41,2.35,2.84-.05.54-1.1,9.84-11.34,16.56-1.2.33-2.44.62-3.72.89,5.32-5.01,7.83-11.27,8.83-14.43.84-1.95,1.02-3.35,1.04-3.53h0ZM232.67,184.91c0,3.02-4.79,6.39-11.19,6.39s-11.19-3.38-11.19-6.39,4.79-6.39,11.19-6.39,11.19,3.37,11.19,6.39ZM265.63,151.45c-.11.27-.89,2.19-2.56,4.87-3.02,3.56-6.95,6.49-11.79,8.77,2.25-2.69,3.68-5.37,4.57-7.6,3.33-4.12,4.77-7.6,4.92-7.96.4-1.02,1.39-1.65,2.42-1.65.32,0,.64.06.96.18,1.34.53,2,2.04,1.47,3.38h0Z"/>
    <path d="M218.58,322.76c-4.16,0-7.53,3.37-7.53,7.53s3.37,7.53,7.53,7.53,7.53-3.37,7.53-7.53-3.37-7.53-7.53-7.53Z"/>
    <path d="M181.37,57.39c.05.15.17.26.33.29l.21.03s.34.05.96.09c.62.02,1.54.11,2.67.12,2.28.03,5.48-.07,9.2-.5,1.86-.22,3.86-.51,5.94-.88,2.08-.38,4.26-.83,6.47-1.39,1.12-.25,2.23-.57,3.36-.89,1.13-.31,2.28-.63,3.41-1.01,1.4-.42,2.8-.9,4.2-1.4,3.97,10.18-1.88,17.67-2.15,18.01-.9,1.11-.74,2.75.37,3.66.48.4,1.07.59,1.65.59.68,0,1.35-.28,1.85-.8.36-.11.75-.24,1.19-.4,1.89-.66,4.53-1.69,7.56-3.12,3.03-1.42,6.46-3.23,9.99-5.35,3.55-2.1,7.19-4.55,10.72-7.13,3.53-2.6,6.95-5.33,10.02-8.09,3.08-2.74,5.83-5.47,8.09-7.94,2.26-2.47,4.03-4.68,5.23-6.29.6-.8,1.04-1.48,1.35-1.92.31-.45.46-.71.46-.71,0,0-.29.07-.81.22-.51.17-1.29.38-2.24.71-1.9.65-4.53,1.69-7.57,3.11-3.03,1.42-6.46,3.23-9.99,5.35-3.55,2.1-7.18,4.55-10.71,7.14-3.52,2.6-6.94,5.34-10.01,8.1-3.08,2.74-5.83,5.47-8.09,7.94-.59.65-1.15,1.27-1.68,1.88,1.45-4.13,2.28-10.01-.36-16.82,1.5-.6,2.99-1.2,4.44-1.87.55-.24,1.09-.48,1.63-.72.53-.26,1.06-.52,1.59-.77,1.06-.51,2.1-1.01,3.11-1.56,2.03-1.05,3.96-2.15,5.77-3.24,1.81-1.1,3.5-2.21,5.03-3.27,1.53-1.08,2.92-2.12,4.13-3.09,1.21-.97,2.25-1.86,3.09-2.64.85-.75,1.48-1.44,1.93-1.86.44-.44.66-.71.66-.71l.14-.16c.09-.11.12-.26.07-.4,0-.01-.01-.02-.02-.03.31-.63.38-1.37.11-2.08-.51-1.35-2.01-2.02-3.36-1.52l-20.37,7.71,6.15-13.64c1.18-2.63.02-5.71-2.61-6.9-2.63-1.18-5.71-.01-6.9,2.61l-7.88,17.47-8.36-22.1c-1.02-2.69-4.03-4.05-6.72-3.03-2.69,1.02-4.05,4.03-3.03,6.72l8.39,22.17-17.57-7.92c-2.63-1.18-5.71-.01-6.9,2.61-1.18,2.63,0,5.71,2.61,6.9l13.64,6.15-20.37,7.71c-1.35.51-2.03,2.02-1.52,3.36.27.71.81,1.22,1.46,1.48l.04.02Z"/>
    <path d="M237.17,69.71c-8.45,5.55-12.33,14.58-8.65,20.17,3.67,5.59,13.5,5.63,21.95.08,8.45-5.55,12.33-14.58,8.65-20.17-3.67-5.59-13.5-5.63-21.95-.08Z"/>
    <path d="M204.06,69.71c-8.45-5.55-18.28-5.51-21.95.08s.2,14.63,8.65,20.17c8.45,5.55,18.28,5.51,21.95-.08s-.2-14.63-8.65-20.17h0Z"/>
    <circle cx="253.15" cy="130.82" r="3.04"/>
    <circle cx="241.85" cy="137.45" r="3.04"/>
    <circle cx="227.51" cy="140.6" r="3.04"/>
    <circle cx="189.81" cy="129.95" r="3.04"/>
    <circle cx="201.11" cy="137.45" r="3.04"/>
    <circle cx="215.45" cy="140.6" r="3.04"/>
    <circle cx="184.12" cy="139.26" r="3.04"/>
    <path d="M238.8,437.64h.13c-3.38-4.82-8.41-8.51-14.53-10.1-1.09-.28-2.18-.47-3.26-.61.67-2.85,6.32-26.84,6.32-26.84,0,0-8.48,11.73-8.96,14.63-.48-2.9-8.96-14.63-8.96-14.63,0,0,5.57,23.65,6.29,26.73-6.14.52-11.86,3.24-16.13,7.56h-.01s-.1.11-.16.17c-.08.09-.16.17-.24.26-4.37,4.6-7.07,10.81-7.07,17.64,0,12.67,9.23,23.22,21.32,25.29v12.51h0c-.02,28.35-3.8,80.79-51.56,104.68,0,0-6.74,3.77-12.29,5.95,9.71,0,18.97-.17,18.97-.17,52.46-26.24,53.53-82.12,53.55-110.45h.01v-12.5c12.09-2.07,21.32-12.62,21.32-25.29,0-5.52-1.77-10.62-4.75-14.81h0ZM217.88,469.42c-9.36,0-18.06-7.62-18.06-16.98s8.7-14.81,18.06-14.81,18.06,5.45,18.06,14.81-8.7,16.98-18.06,16.98Z"/>
    <path d="M216.91,500.43c-1.47,5.68-10.39,2.47-21.67-.44-11.28-2.92-17.35-17.14-15.89-22.81,1.47-5.68,9.92-.66,21.2,2.26s17.82,15.32,16.35,21h.01Z"/>
    <path d="M217.86,500.43c1.47,5.68,10.39,2.47,21.67-.44,11.28-2.92,17.35-17.14,15.89-22.81-1.47-5.68-9.92-.66-21.2,2.26s-17.82,15.32-16.35,21h-.01Z"/>
    <path d="M197.05,576.26c-.21,4.67,7.35,4.32,16.63,4.73s17.24-9.01,17.45-13.68-7.41-2.82-16.69-3.24c-9.28-.41-17.17,7.52-17.38,12.19h-.01Z"/>
    <g>
      <path d="M200.61,392.12c-1.21-2.02-3.27-3.38-5.56-3.79,2.81-2.66,4.57-4.74,5.06-5.34,2.84-3.46,2.34-8.59-1.12-11.44-.78-.65-1.68-1.13-2.64-1.44.36-.45.61-.8.74-1,2.45-3.75,1.39-8.8-2.35-11.25-1.17-.77-2.51-1.19-3.9-1.29,1.44-3.07,1.85-3.09,2.59-6.78,1.53-7.67-1.2-10.35-5.37-11.37-3.23-.8-6.52.12-9.08,5.49.02-.71.19-5.23.19-5.92,0-12.7-2.98-21.2-3.21-21.83-1.6-4.41-6.96-6.85-11.97-5.45-2.13.6-3.84,1.8-5,3.31-7.99-16.21-18.24-23.33-19.01-23.84-4.19-2.81-10.17-2.1-13.36,1.58-1.32,1.52-1.95,3.3-1.95,5.07,0,2.5,1.27,4.97,3.68,6.62.39.28,3.15,2.32,6.55,6.55-.34-.18-.67-.36-1.01-.52-.31-.27-.62-.55-.94-.82-26.48-22.12-60.88-20.93-62.33-20.87-5.62.24-9.94,4.43-9.69,9.36.25,4.94,5.01,8.77,10.63,8.58.14,0,7.79-.21,17.92,2.06-29.46-3.76-57.41,6.22-58.94,6.78-5.21,1.9-7.67,7.16-5.51,11.74,2.17,4.58,8.14,6.75,13.35,4.85.22-.08,11.99-4.29,27.18-5.78-22.16,5.2-40.08,23.14-47.13,46.5-7.82,4.26-13.13,12.55-13.13,22.09s5.32,17.84,13.15,22.1c3.8,12.56,10.72,23.56,19.78,31.85l.07.22s.06-.01.14-.03c7.7,6.98,16.9,12,26.99,14.39-15.08-1.5-26.77-5.63-27.04-5.73-5.21-1.89-11.17.28-13.34,4.85-2.16,4.58.3,9.83,5.51,11.74,1.54.56,29.47,10.54,58.92,6.78-10.04,2.26-17.64,2.07-17.89,2.06-5.62-.22-10.39,3.6-10.65,8.54-.26,4.96,4.08,9.16,9.71,9.4,1.33.06,30.22,1.04,55.4-15.72-.89,1.31-1.35,2.79-1.35,4.29,0,1.77.64,3.56,1.95,5.07,3.19,3.68,9.17,4.39,13.36,1.58.78-.53,11.34-7.85,19.38-24.6,1.14,1.3,2.72,2.33,4.64,2.87,5.02,1.4,10.38-1.04,11.97-5.45.23-.63,3.21-9.13,3.21-21.83,0-1.51-.05-3.08-.14-4.69,2.37,1.81,5.75,2.57,9.03,1.76,4.17-1.03,6.88-4.26,6.88-7.76,0-.75-.12-1.51-.38-2.26-.34-1-1.93-5.4-4.89-10.7.96.06,1.64.08,1.97.09h.16c4.39,0,8.04-3.57,8.13-7.97.09-4.48-3.48-8.2-7.96-8.29-.02,0-.19,0-.51-.03,3.51-1.56,5.81-2.91,6.39-3.26,3.83-2.32,5.07-7.32,2.76-11.16l-.04.04ZM195.55,375.74c1.16.95,1.32,2.66.38,3.81-.56.68-13.62,16.37-31.69,19.59.06-1.83.1-3.68.1-5.55,15.56-3.31,27.28-17.34,27.4-17.49.54-.65,1.31-.99,2.1-.99.61,0,1.21.2,1.72.62h-.01ZM134.55,379.63c-8.73-7.26-23.07-10.47-26.25-11.11-.48-.1-.95-.15-1.43-.18-1.73-.53-2.85-.76-2.93-.77-1.91-.36-3.22-1.85-3.22-3.51,0-.25.03-.5.09-.76.47-1.94,2.64-3.18,4.85-2.76.92.17,20.19,3.98,28.85,18.89,0,.07.02.13.03.2h0ZM102.19,375.88c.5-1.93,2.7-3.14,4.89-2.7,1.73.35,14.97,3.17,22.94,9.29h-16.5c-3.34-1.13-6.44-1.92-8.27-2.29-1.89-.38-3.17-1.86-3.17-3.49,0-.27.03-.54.11-.81ZM111.21,387.26h24.26c-.31,1.74-.47,3.54-.47,5.39s.16,3.65.47,5.39h-24.26c-3.38,0-6.13-2.41-6.13-5.39s2.74-5.39,6.13-5.39ZM117.29,402.82h14.41c-7.63,7.1-22.75,10.32-24.61,10.69-2.2.44-4.39-.76-4.89-2.7-.07-.27-.11-.54-.11-.81,0-1.64,1.28-3.11,3.17-3.49,2.51-.51,7.41-1.79,12.03-3.69ZM103.95,419.14c.07-.01,1.19-.24,2.92-.77.48-.03.95-.08,1.43-.18,3.19-.64,17.68-3.89,26.4-11.24h0c-8.57,15.17-28.1,19.04-29.03,19.21-2.21.42-4.38-.82-4.85-2.76-.06-.25-.09-.51-.09-.76,0-1.65,1.31-3.14,3.22-3.51h0ZM191.78,362.39c1.25.82,1.6,2.5.79,3.75-.29.45-4.55,6.86-11.77,13-4.18,3.43-9.99,7.24-16.53,8.88-.04-1.68-.11-3.34-.2-4.99,14.34-5.41,23.85-19.7,23.96-19.86.52-.79,1.39-1.23,2.27-1.23.51,0,1.02.14,1.48.44h0ZM166.88,337.96c0-10.84-2.47-18.18-2.57-18.49v-.03l-.02-.03c-.08-.24-.13-.48-.13-.72,0-.87.59-1.92,1.9-2.28,1.43-.4,2.97.3,3.42,1.56.12.33,2.89,8.13,2.89,20.02,0,6.05-.71,12-2.11,17.82-.42.63-3.16,4.21-6.96,4.63,2.37-7.24,3.59-14.76,3.59-22.47h0ZM183.21,346.08c.77-2.05,2.44-2.78,3.84-2.17,2.05.89,2.17,2.17,1.79,4.47-1.53,4.73-2.56,7.16-7.39,14.54-3.1,3.85-9.52,10.79-17.75,14.41-.14-1.65-.3-3.27-.48-4.88.05-1.3.09-2.61.09-3.69,8.23-5.63,17.7-16.8,19.91-22.69h-.01ZM132.57,298.76l-.04-.03c-.67-.46-1.05-1.15-1.05-1.89,0-.37.1-.91.56-1.45.6-.69,1.38-.87,1.8-.92.42-.05,1.23-.06,2.02.47.06.04,6.55,4.45,12.92,14.39,4.16,6.49,8.88,16.38,11.28,30.03-.07,3.17-.39,6.67-1.04,10.37-1.6-6-3.52-11.52-5.71-16.47-5.89-23.27-18.84-33.15-20.69-34.46l-.04-.03h-.01ZM131.14,363.64c.51,1.65.98,3.37,1.4,5.12-7.86-7.33-17.66-10.79-22.61-12.16-3.05-1.16-5.24-1.41-5.54-1.44-2.1-.19-3.67-1.74-3.67-3.57,0-.11,0-.23.02-.34.21-1.97,2.21-3.42,4.46-3.23.84.07,15.42,1.51,25.94,15.62h0ZM99.53,333.86c.83-1.84,3.2-2.75,5.3-2.02.42.15,3.44,1.23,7.63,3.52,5.58,4.15,10.17,9.57,13.74,16.23-4.22-3.1-8.41-5.07-11.9-6.3-6.45-4.58-11.9-6.57-12.47-6.78-1.6-.56-2.58-1.91-2.58-3.34,0-.44.09-.89.29-1.32h-.01ZM29.54,419.09c.29,0,.58.02.87.02,13.88,0,25.13-11.25,25.13-25.13s-11.25-25.13-25.13-25.13c-.34,0-.67.01-1,.03,2.48-6.32,5.84-12.1,9.94-17.08,7.58,2.45,26.49,11.63,26.99,42.24v1.16c0,27.84-15,40.84-23.75,44.79-4.95-5.5-9.78-13.05-13.04-20.89h-.01ZM94,453.22c-4.82,1.61-9.91,2.49-15.18,2.49-11.61,0-22.56-3.68-34.61-14.34,11.14-5.82,31.65-21.33,31.65-47.46-.52-31.85-19.15-44.22-30.12-48.76,9.16-8.09,20.63-12.92,33.08-12.92,5.21,0,10.24.86,15,2.43,0,.17-.03.34-.03.51,0,3.46,2.37,6.52,6.03,7.79.16.06.82.3,1.82.74-3.39,1.05-5.96,3.75-6.32,7.1-.03.28-.04.54-.04.8,0,2.47,1.21,4.69,3.15,6.23-1.48,1.17-2.52,2.71-2.94,4.46-.14.58-.21,1.17-.21,1.76,0,2.76,1.59,5.27,4.05,6.81-1.17,1.06-2.05,2.4-2.45,3.95-.16.61-.24,1.25-.24,1.88,0,3.87,2.96,7.17,7.22,8.11-2.57,1.87-4.22,4.69-4.22,7.85,0,3.8,2.39,7.12,5.91,8.87-.52.12-1.03.24-1.51.34-4.35.88-7.4,4.23-7.4,8.16,0,.63.08,1.27.25,1.89.4,1.54,1.27,2.87,2.44,3.93-2.45,1.54-4.05,4.05-4.05,6.81,0,.59.07,1.19.21,1.77.42,1.74,1.45,3.28,2.94,4.45-1.94,1.54-3.15,3.76-3.15,6.24,0,.26,0,.52.04.79.37,3.35,2.94,6.05,6.32,7.11-1.01.44-1.68.69-1.84.74-3.64,1.27-6,4.32-6,7.78h0c0,.58.07,1.14.2,1.7h0ZM117.24,448.48c-6.56,4.28-11.83,6.18-12.41,6.38-2.1.73-4.47-.18-5.3-2.02-.19-.43-.29-.88-.29-1.32,0-1.43.98-2.78,2.58-3.34.57-.2,6.02-2.2,12.47-6.77,3.77-1.33,8.36-3.5,12.91-7.05-2.69,5.49-6.01,10.21-9.97,14.12h0ZM105.2,438.67c-2.25.19-4.24-1.26-4.46-3.23,0-.12-.02-.23-.02-.34,0-1.83,1.57-3.38,3.67-3.57.29-.03,2.48-.28,5.53-1.44,5.03-1.39,15.09-4.94,23.01-12.52-.35,1.57-.73,3.09-1.15,4.57-10.56,14.95-25.73,16.46-26.59,16.53h.01ZM148.77,476.24c-6.37,9.94-12.86,14.35-12.92,14.39-.78.52-1.6.52-2.01.47-.42-.05-1.21-.24-1.8-.92-.46-.53-.56-1.08-.56-1.44,0-.75.38-1.44,1.05-1.9l.05-.03.04-.03c1.82-1.29,14.23-10.78,20.29-32.97,2.45-5.37,4.57-11.46,6.3-18.11.6,3.75.85,7.26.87,10.44-2.4,13.69-7.13,23.6-11.3,30.11h0ZM169.48,466.41c-.45,1.26-1.99,1.96-3.42,1.56-1.31-.37-1.9-1.41-1.9-2.28,0-.24.04-.48.13-.72v-.03l.02-.03c.11-.31,2.57-7.64,2.57-18.49,0-7.84-1.92-17.41-4.64-25.5.21-1.37.41-2.76.6-4.16,1.66.74,3.44,1.42,5.41,2.16,3.12,8.28,4.12,20,4.12,27.48,0,11.89-2.77,19.69-2.89,20.02h0ZM186.23,437.69c-1.47.36-3.05-.31-3.46-1.48-1.17-3.36-4.09-10.3-9.47-16.55,2.96.92,5.78,1.57,8.28,2.03,5.91,8.06,6.3,13.02,6.46,13.46.06.18.09.36.09.53,0,.73-.6,1.67-1.91,2h.01ZM191.86,411.98c1.5.03,2.69,1.27,2.65,2.76-.03,1.48-1.24,2.66-2.71,2.66h-.05c-.64-.01-11.44-.3-22.57-5.04,4.1-.3,7.98-1.04,11.5-1.99,6.29,1.47,11.08,1.61,11.17,1.61h0ZM195.05,398.64c-.66.4-14.18,8.45-29.69,8.45-.51,0-1.03-.01-1.54-.03.06-.79.12-1.58.17-2.38,5.92-.89,11.33-2.94,16.06-5.45,7.13-2.22,12.11-5.17,12.2-5.23.44-.26.92-.39,1.4-.39.92,0,1.81.47,2.32,1.31.77,1.28.36,2.94-.92,3.72h0Z"/>
      <circle cx="72.74" cy="348.44" r="6.04"/>
      <circle cx="79.98" cy="369.77" r="4.87"/>
      <circle cx="86.08" cy="391.53" r="4.68"/>
      <circle cx="83.51" cy="416.66" r="4.09"/>
      <circle cx="76.85" cy="427.43" r="4.48"/>
      <circle cx="82.49" cy="437.69" r="3.67"/>
      <circle cx="63" cy="444.36" r="3.51"/>
    </g>
    <g>
      <path d="M235.52,392.12c1.21-2.02,3.27-3.38,5.56-3.79-2.81-2.66-4.57-4.74-5.06-5.34-2.84-3.46-2.34-8.59,1.12-11.44.78-.65,1.68-1.13,2.64-1.44-.36-.45-.61-.8-.74-1-2.45-3.75-1.39-8.8,2.35-11.25,1.17-.77,2.51-1.19,3.9-1.29-1.44-3.07-1.85-3.09-2.59-6.78-1.53-7.67,1.2-10.35,5.37-11.37,3.23-.8,6.52.12,9.08,5.49-.02-.71-.19-5.23-.19-5.92,0-12.7,2.98-21.2,3.21-21.83,1.6-4.41,6.96-6.85,11.97-5.45,2.13.6,3.84,1.8,5,3.31,7.99-16.21,18.24-23.33,19.01-23.84,4.19-2.81,10.17-2.1,13.36,1.58,1.32,1.52,1.95,3.3,1.95,5.07,0,2.5-1.27,4.97-3.68,6.62-.39.28-3.15,2.32-6.55,6.55.34-.18.67-.36,1.01-.52.31-.27.62-.55.94-.82,26.48-22.12,60.88-20.93,62.33-20.87,5.62.24,9.94,4.43,9.69,9.36-.25,4.94-5.01,8.77-10.63,8.58-.14,0-7.79-.21-17.92,2.06,29.46-3.76,57.41,6.22,58.94,6.78,5.21,1.9,7.67,7.16,5.51,11.74-2.17,4.58-8.14,6.75-13.35,4.85-.22-.08-11.99-4.29-27.18-5.78,22.16,5.2,40.08,23.14,47.13,46.5,7.82,4.26,13.13,12.55,13.13,22.09s-5.32,17.84-13.15,22.1c-3.8,12.56-10.72,23.56-19.78,31.85l-.07.22s-.06-.01-.14-.03c-7.7,6.98-16.9,12-26.99,14.39,15.08-1.5,26.77-5.63,27.04-5.73,5.21-1.89,11.17.28,13.34,4.85,2.16,4.58-.3,9.83-5.51,11.74-1.54.56-29.47,10.54-58.92,6.78,10.04,2.26,17.64,2.07,17.89,2.06,5.62-.22,10.39,3.6,10.65,8.54.26,4.96-4.08,9.16-9.71,9.4-1.33.06-30.22,1.04-55.4-15.72.89,1.31,1.35,2.79,1.35,4.29,0,1.77-.64,3.56-1.95,5.07-3.19,3.68-9.17,4.39-13.36,1.58-.78-.53-11.34-7.85-19.38-24.6-1.14,1.3-2.72,2.33-4.64,2.87-5.02,1.4-10.38-1.04-11.97-5.45-.23-.63-3.21-9.13-3.21-21.83,0-1.51.05-3.08.14-4.69-2.37,1.81-5.75,2.57-9.03,1.76-4.17-1.03-6.88-4.26-6.88-7.76,0-.75.12-1.51.38-2.26.34-1,1.93-5.4,4.89-10.7-.96.06-1.64.08-1.97.09h-.16c-4.39,0-8.04-3.57-8.13-7.97-.09-4.48,3.48-8.2,7.96-8.29.02,0,.19,0,.51-.03-3.51-1.56-5.81-2.91-6.39-3.26-3.83-2.32-5.07-7.32-2.76-11.16l.04.04ZM240.58,375.74c-1.16.95-1.32,2.66-.38,3.81.56.68,13.62,16.37,31.69,19.59-.06-1.83-.1-3.68-.1-5.55-15.56-3.31-27.28-17.34-27.4-17.49-.54-.65-1.31-.99-2.1-.99-.61,0-1.21.2-1.72.62h.01ZM301.59,379.63c8.73-7.26,23.07-10.47,26.25-11.11.48-.1.95-.15,1.43-.18,1.73-.53,2.85-.76,2.93-.77,1.91-.36,3.22-1.85,3.22-3.51,0-.25-.03-.5-.09-.76-.47-1.94-2.64-3.18-4.85-2.76-.92.17-20.19,3.98-28.85,18.89,0,.07-.02.13-.03.2h0ZM333.94,375.88c-.5-1.93-2.7-3.14-4.89-2.7-1.73.35-14.97,3.17-22.94,9.29h16.5c3.34-1.13,6.44-1.92,8.27-2.29,1.89-.38,3.17-1.86,3.17-3.49,0-.27-.03-.54-.11-.81ZM324.92,387.26h-24.26c.31,1.74.47,3.54.47,5.39s-.16,3.65-.47,5.39h24.26c3.38,0,6.13-2.41,6.13-5.39s-2.74-5.39-6.13-5.39ZM318.84,402.82h-14.41c7.63,7.1,22.75,10.32,24.61,10.69,2.2.44,4.39-.76,4.89-2.7.07-.27.11-.54.11-.81,0-1.64-1.28-3.11-3.17-3.49-2.51-.51-7.41-1.79-12.03-3.69h0ZM332.18,419.14c-.07-.01-1.19-.24-2.92-.77-.48-.03-.95-.08-1.43-.18-3.19-.64-17.68-3.89-26.4-11.24h0c8.57,15.17,28.1,19.04,29.03,19.21,2.21.42,4.38-.82,4.85-2.76.06-.25.09-.51.09-.76,0-1.65-1.31-3.14-3.22-3.51h0ZM244.35,362.39c-1.25.82-1.6,2.5-.79,3.75.29.45,4.55,6.86,11.77,13,4.18,3.43,9.99,7.24,16.53,8.88.04-1.68.11-3.34.2-4.99-14.34-5.41-23.85-19.7-23.96-19.86-.52-.79-1.39-1.23-2.27-1.23-.51,0-1.02.14-1.48.44h0ZM269.25,337.96c0-10.84,2.47-18.18,2.57-18.49v-.03l.02-.03c.08-.24.13-.48.13-.72,0-.87-.59-1.92-1.9-2.28-1.43-.4-2.97.3-3.42,1.56-.12.33-2.89,8.13-2.89,20.02,0,6.05.71,12,2.11,17.82.42.63,3.16,4.21,6.96,4.63-2.37-7.24-3.59-14.76-3.59-22.47h.01ZM252.92,346.08c-.77-2.05-2.44-2.78-3.84-2.17-2.05.89-2.17,2.17-1.79,4.47,1.53,4.73,2.56,7.16,7.39,14.54,3.1,3.85,9.52,10.79,17.75,14.41.14-1.65.3-3.27.48-4.88-.05-1.3-.09-2.61-.09-3.69-8.23-5.63-17.7-16.8-19.91-22.69h0ZM303.56,298.76l.04-.03c.67-.46,1.05-1.15,1.05-1.89,0-.37-.1-.91-.56-1.45-.6-.69-1.38-.87-1.8-.92-.42-.05-1.23-.06-2.02.47-.06.04-6.55,4.45-12.92,14.39-4.16,6.49-8.88,16.38-11.28,30.03.07,3.17.39,6.67,1.04,10.37,1.6-6,3.52-11.52,5.71-16.47,5.89-23.27,18.84-33.15,20.69-34.46l.04-.03h0ZM304.99,363.64c-.51,1.65-.98,3.37-1.4,5.12,7.86-7.33,17.66-10.79,22.61-12.16,3.05-1.16,5.24-1.41,5.54-1.44,2.1-.19,3.67-1.74,3.67-3.57,0-.11,0-.23-.02-.34-.21-1.97-2.21-3.42-4.46-3.23-.84.07-15.42,1.51-25.94,15.62h0ZM336.6,333.86c-.83-1.84-3.2-2.75-5.3-2.02-.42.15-3.44,1.23-7.63,3.52-5.58,4.15-10.17,9.57-13.74,16.23,4.22-3.1,8.41-5.07,11.9-6.3,6.45-4.58,11.9-6.57,12.47-6.78,1.6-.56,2.58-1.91,2.58-3.34,0-.44-.09-.89-.29-1.32h.01ZM406.59,419.09c-.29,0-.58.02-.87.02-13.88,0-25.13-11.25-25.13-25.13s11.25-25.13,25.13-25.13c.34,0,.67.01,1,.03-2.48-6.32-5.84-12.1-9.94-17.08-7.58,2.45-26.49,11.63-26.99,42.24v1.16c0,27.84,15,40.84,23.75,44.79,4.95-5.5,9.78-13.05,13.04-20.89h0ZM342.13,453.22c4.82,1.61,9.91,2.49,15.18,2.49,11.61,0,22.56-3.68,34.61-14.34-11.14-5.82-31.65-21.33-31.65-47.46.52-31.85,19.15-44.22,30.12-48.76-9.16-8.09-20.63-12.92-33.08-12.92-5.21,0-10.24.86-15,2.43.01.17.03.34.03.51,0,3.46-2.37,6.52-6.03,7.79-.16.06-.82.3-1.82.74,3.39,1.05,5.96,3.75,6.32,7.1.03.28.04.54.04.8,0,2.47-1.21,4.69-3.15,6.23,1.48,1.17,2.52,2.71,2.94,4.46.14.58.21,1.17.21,1.76,0,2.76-1.59,5.27-4.05,6.81,1.17,1.06,2.05,2.4,2.45,3.95.16.61.24,1.25.24,1.88,0,3.87-2.96,7.17-7.22,8.11,2.57,1.87,4.22,4.69,4.22,7.85,0,3.8-2.39,7.12-5.91,8.87.52.12,1.03.24,1.51.34,4.35.88,7.4,4.23,7.4,8.16,0,.63-.08,1.27-.25,1.89-.4,1.54-1.27,2.87-2.44,3.93,2.45,1.54,4.05,4.05,4.05,6.81,0,.59-.07,1.19-.21,1.77-.42,1.74-1.45,3.28-2.94,4.45,1.94,1.54,3.15,3.76,3.15,6.24,0,.26-.01.52-.04.79-.37,3.35-2.94,6.05-6.32,7.11,1.01.44,1.68.69,1.84.74,3.64,1.27,6,4.32,6,7.78h0c0,.58-.07,1.14-.2,1.7h0ZM318.89,448.48c6.56,4.28,11.83,6.18,12.41,6.38,2.1.73,4.47-.18,5.3-2.02.19-.43.29-.88.29-1.32,0-1.43-.98-2.78-2.58-3.34-.57-.2-6.02-2.2-12.47-6.77-3.77-1.33-8.36-3.5-12.91-7.05,2.69,5.49,6.01,10.21,9.97,14.12h-.01ZM330.93,438.67c2.25.19,4.24-1.26,4.46-3.23.01-.12.02-.23.02-.34,0-1.83-1.57-3.38-3.67-3.57-.29-.03-2.48-.28-5.53-1.44-5.03-1.39-15.09-4.94-23.01-12.52.35,1.57.73,3.09,1.15,4.57,10.56,14.95,25.73,16.46,26.59,16.53h0ZM287.36,476.24c6.37,9.94,12.86,14.35,12.92,14.39.78.52,1.6.52,2.01.47.42-.05,1.21-.24,1.8-.92.46-.53.56-1.08.56-1.44,0-.75-.38-1.44-1.05-1.9l-.05-.03-.04-.03c-1.82-1.29-14.23-10.78-20.29-32.97-2.45-5.37-4.57-11.46-6.3-18.11-.6,3.75-.85,7.26-.87,10.44,2.4,13.69,7.13,23.6,11.3,30.11h0ZM266.65,466.41c.45,1.26,1.99,1.96,3.42,1.56,1.31-.37,1.9-1.41,1.9-2.28,0-.24-.04-.48-.13-.72v-.03l-.02-.03c-.11-.31-2.57-7.64-2.57-18.49,0-7.84,1.92-17.41,4.64-25.5-.21-1.37-.41-2.76-.6-4.16-1.66.74-3.44,1.42-5.41,2.16-3.12,8.28-4.12,20-4.12,27.48,0,11.89,2.77,19.69,2.89,20.02h0ZM249.9,437.69c1.47.36,3.05-.31,3.46-1.48,1.17-3.36,4.09-10.3,9.47-16.55-2.96.92-5.78,1.57-8.28,2.03-5.91,8.06-6.3,13.02-6.46,13.46-.06.18-.09.36-.09.53,0,.73.6,1.67,1.91,2h-.01ZM244.27,411.98c-1.5.03-2.69,1.27-2.65,2.76.03,1.48,1.24,2.66,2.71,2.66h.05c.64-.01,11.44-.3,22.57-5.04-4.1-.3-7.98-1.04-11.5-1.99-6.29,1.47-11.08,1.61-11.17,1.61h0ZM241.08,398.64c.66.4,14.18,8.45,29.69,8.45.51,0,1.03-.01,1.54-.03-.06-.79-.12-1.58-.17-2.38-5.92-.89-11.33-2.94-16.06-5.45-7.13-2.22-12.11-5.17-12.2-5.23-.44-.26-.92-.39-1.4-.39-.92,0-1.81.47-2.32,1.31-.77,1.28-.36,2.94.92,3.72h0Z"/>
      <circle cx="365.71" cy="345.12" r="4.98"/>
      <circle cx="354.99" cy="360.12" r="4.87"/>
      <circle cx="348.51" cy="380.98" r="4.68"/>
      <circle cx="348.73" cy="401.49" r="4.09"/>
      <circle cx="351.23" cy="420.3" r="4.48"/>
      <circle cx="353.74" cy="435.97" r="3.67"/>
      <circle cx="359.97" cy="447.49" r="3.51"/>
    </g>
    <circle cx="365.53" cy="438.55" r="2.74"/>
    <circle cx="361.87" cy="429.1" r="2.86"/>
  </g>
</svg>